<svg width="560" height="311" viewBox="0 0 560 311" fill="none" xmlns="http://www.w3.org/2000/svg">
<path d="M2.76 206.1H0V205.01H2.89L3.32 201.53H0.46V200.44H3.42L3.86 197.07H4.86L4.44 200.44H7.65L8.09 197.07H9.08L8.66 200.44H11.43V201.53H8.56L8.13 205.01H10.99V206.1H8L7.56 209.86H6.54L6.98 206.1H3.78L3.32 209.86H2.3L2.76 206.1ZM7.11 205.01L7.53 201.53H4.32L3.9 205.01H7.11Z" fill="white"/>
<path d="M16.1905 209.73C15.6205 209.49 15.1805 209.15 14.8505 208.71C14.5205 208.27 14.3405 207.77 14.3105 207.21H15.9105C15.9505 207.67 16.1705 208.05 16.5605 208.35C16.9505 208.64 17.4605 208.79 18.1005 208.79C18.6905 208.79 19.1505 208.66 19.4905 208.4C19.8305 208.14 20.0005 207.81 20.0005 207.41C20.0005 207.01 19.8205 206.7 19.4605 206.5C19.1005 206.3 18.5405 206.11 17.7805 205.91C17.0905 205.73 16.5205 205.54 16.0905 205.36C15.6505 205.17 15.2805 204.9 14.9705 204.53C14.6605 204.16 14.5005 203.68 14.5005 203.08C14.5005 202.6 14.6405 202.17 14.9205 201.77C15.2005 201.37 15.6105 201.06 16.1305 200.83C16.6505 200.6 17.2505 200.48 17.9205 200.48C18.9505 200.48 19.7805 200.74 20.4205 201.26C21.0505 201.78 21.3905 202.5 21.4405 203.4H19.8905C19.8605 202.91 19.6605 202.52 19.3005 202.23C18.9405 201.94 18.4605 201.79 17.8605 201.79C17.3005 201.79 16.8605 201.91 16.5305 202.15C16.2005 202.39 16.0405 202.7 16.0405 203.08C16.0405 203.39 16.1405 203.64 16.3405 203.84C16.5405 204.04 16.7905 204.2 17.0905 204.32C17.3905 204.44 17.8105 204.57 18.3405 204.72C19.0105 204.9 19.5505 205.08 19.9705 205.26C20.3905 205.44 20.7505 205.7 21.0505 206.05C21.3505 206.4 21.5105 206.86 21.5205 207.43C21.5205 207.94 21.3805 208.4 21.0905 208.81C20.8105 209.22 20.4105 209.54 19.8905 209.77C19.3705 210 18.7805 210.12 18.1105 210.12C17.4005 210.12 16.7605 210 16.1905 209.75V209.73Z" fill="white"/>
<path d="M32.8002 200.63V209.95H31.2502V208.57C30.9602 209.05 30.5402 209.42 30.0202 209.68C29.4902 209.95 28.9102 210.08 28.2802 210.08C27.5502 210.08 26.9002 209.93 26.3202 209.63C25.7402 209.33 25.2902 208.88 24.9502 208.28C24.6202 207.68 24.4502 206.95 24.4502 206.09V200.63H25.9802V205.88C25.9802 206.8 26.2102 207.5 26.6802 208C27.1402 208.49 27.7802 208.74 28.5802 208.74C29.3802 208.74 30.0602 208.48 30.5402 207.97C31.0202 207.46 31.2502 206.72 31.2502 205.74V200.62H32.8002V200.63Z" fill="white"/>
<path d="M37.6398 209.73C37.0698 209.49 36.6298 209.15 36.2998 208.71C35.9698 208.27 35.7898 207.77 35.7598 207.21H37.3598C37.3998 207.67 37.6198 208.05 38.0098 208.35C38.3998 208.64 38.9098 208.79 39.5498 208.79C40.1398 208.79 40.5998 208.66 40.9398 208.4C41.2798 208.14 41.4498 207.81 41.4498 207.41C41.4498 207.01 41.2698 206.7 40.9098 206.5C40.5498 206.3 39.9898 206.11 39.2298 205.91C38.5398 205.73 37.9698 205.54 37.5398 205.36C37.1098 205.18 36.7298 204.9 36.4198 204.53C36.1098 204.16 35.9498 203.68 35.9498 203.08C35.9498 202.6 36.0898 202.17 36.3698 201.77C36.6498 201.37 37.0598 201.06 37.5798 200.83C38.0998 200.6 38.6998 200.48 39.3698 200.48C40.3998 200.48 41.2298 200.74 41.8698 201.26C42.4998 201.78 42.8398 202.5 42.8898 203.4H41.3398C41.3098 202.91 41.1098 202.52 40.7498 202.23C40.3898 201.94 39.9098 201.79 39.3098 201.79C38.7498 201.79 38.3098 201.91 37.9798 202.15C37.6498 202.39 37.4898 202.7 37.4898 203.08C37.4898 203.39 37.5898 203.64 37.7898 203.84C37.9898 204.04 38.2398 204.2 38.5398 204.32C38.8398 204.44 39.2598 204.57 39.7898 204.72C40.4598 204.9 40.9998 205.08 41.4198 205.26C41.8398 205.44 42.1998 205.7 42.4998 206.05C42.7998 206.4 42.9598 206.86 42.9698 207.43C42.9698 207.94 42.8298 208.4 42.5398 208.81C42.2498 209.22 41.8598 209.54 41.3398 209.77C40.8198 210 40.2298 210.12 39.5598 210.12C38.8498 210.12 38.2098 210 37.6398 209.75V209.73Z" fill="white"/>
<path d="M47.8694 201.9V207.39C47.8694 207.84 47.9694 208.16 48.1594 208.35C48.3494 208.54 48.6894 208.63 49.1594 208.63H50.2994V209.94H48.9094C48.0494 209.94 47.3994 209.74 46.9694 209.35C46.5394 208.95 46.3194 208.3 46.3194 207.39V201.9H45.1094V200.62H46.3194V198.27H47.8694V200.62H50.2994V201.9H47.8694Z" fill="white"/>
<path d="M53.0295 202.74C53.4095 202.02 53.9495 201.46 54.6195 201.07C55.2895 200.67 56.0495 200.48 56.8695 200.48C57.6895 200.48 58.3895 200.66 58.9895 201.01C59.5895 201.36 60.0395 201.8 60.3295 202.34V200.64H61.8895V209.96H60.3295V208.23C60.0195 208.77 59.5695 209.22 58.9595 209.58C58.3495 209.94 57.6495 210.12 56.8395 210.12C56.0295 210.12 55.2595 209.92 54.5995 209.51C53.9395 209.1 53.3995 208.53 53.0195 207.79C52.6295 207.05 52.4395 206.21 52.4395 205.27C52.4395 204.33 52.6295 203.48 53.0195 202.76L53.0295 202.74ZM59.9095 203.43C59.6295 202.91 59.2395 202.51 58.7595 202.23C58.2795 201.95 57.7495 201.81 57.1695 201.81C56.5895 201.81 56.0695 201.95 55.5895 202.22C55.1095 202.49 54.7295 202.89 54.4495 203.41C54.1695 203.93 54.0295 204.54 54.0295 205.25C54.0295 205.96 54.1695 206.58 54.4495 207.11C54.7295 207.64 55.1095 208.04 55.5895 208.32C56.0695 208.6 56.5895 208.74 57.1695 208.74C57.7495 208.74 58.2795 208.6 58.7595 208.32C59.2395 208.04 59.6195 207.64 59.9095 207.11C60.1895 206.58 60.3295 205.97 60.3295 205.27C60.3295 204.57 60.1895 203.96 59.9095 203.43Z" fill="white"/>
<path d="M65.4194 198.81C65.2194 198.61 65.1094 198.36 65.1094 198.06C65.1094 197.76 65.2094 197.52 65.4194 197.31C65.6294 197.1 65.8694 197 66.1694 197C66.4694 197 66.6894 197.1 66.8894 197.31C67.0894 197.52 67.1894 197.76 67.1894 198.06C67.1894 198.36 67.0894 198.6 66.8894 198.81C66.6894 199.02 66.4494 199.12 66.1694 199.12C65.8894 199.12 65.6294 199.02 65.4194 198.81ZM66.9094 200.63V209.95H65.3594V200.63H66.9094Z" fill="white"/>
<path d="M77.6897 201.49C78.3897 202.18 78.7396 203.16 78.7396 204.46V209.95H77.2096V204.68C77.2096 203.75 76.9797 203.04 76.5097 202.55C76.0497 202.06 75.4096 201.81 74.6096 201.81C73.8096 201.81 73.1496 202.07 72.6596 202.57C72.1796 203.08 71.9397 203.82 71.9397 204.8V209.95H70.3896V200.63H71.9397V201.96C72.2497 201.48 72.6597 201.12 73.1897 200.86C73.7197 200.6 74.2996 200.47 74.9296 200.47C76.0596 200.47 76.9796 200.81 77.6796 201.5L77.6897 201.49Z" fill="white"/>
<path d="M82.13 202.74C82.51 202.02 83.05 201.46 83.72 201.07C84.39 200.67 85.15 200.48 85.97 200.48C86.79 200.48 87.49 200.66 88.09 201.01C88.69 201.36 89.14 201.8 89.43 202.34V200.64H90.99V209.96H89.43V208.23C89.12 208.77 88.67 209.22 88.06 209.58C87.45 209.94 86.75 210.12 85.94 210.12C85.13 210.12 84.36 209.92 83.7 209.51C83.03 209.1 82.5 208.53 82.12 207.79C81.73 207.05 81.54 206.21 81.54 205.27C81.54 204.33 81.73 203.48 82.12 202.76L82.13 202.74ZM89.01 203.43C88.73 202.91 88.34 202.51 87.86 202.23C87.38 201.95 86.85 201.81 86.27 201.81C85.69 201.81 85.17 201.95 84.69 202.22C84.21 202.49 83.83 202.89 83.55 203.41C83.27 203.93 83.13 204.54 83.13 205.25C83.13 205.96 83.27 206.58 83.55 207.11C83.83 207.64 84.21 208.04 84.69 208.32C85.17 208.6 85.69 208.74 86.27 208.74C86.85 208.74 87.38 208.6 87.86 208.32C88.34 208.04 88.72 207.64 89.01 207.11C89.29 206.58 89.43 205.97 89.43 205.27C89.43 204.57 89.29 203.96 89.01 203.43Z" fill="white"/>
<path d="M97.41 201C98.02 200.65 98.72 200.47 99.5 200.47C100.34 200.47 101.09 200.67 101.76 201.06C102.43 201.46 102.96 202.01 103.34 202.73C103.72 203.45 103.92 204.29 103.92 205.24C103.92 206.19 103.73 207.02 103.34 207.76C102.95 208.5 102.42 209.07 101.75 209.48C101.08 209.89 100.33 210.09 99.5 210.09C98.67 210.09 97.99 209.91 97.38 209.56C96.77 209.21 96.32 208.76 96.01 208.22V209.94H94.46V197.36H96.01V202.36C96.33 201.8 96.79 201.35 97.4 201H97.41ZM101.92 203.42C101.64 202.9 101.25 202.5 100.77 202.23C100.29 201.96 99.76 201.82 99.18 201.82C98.6 201.82 98.09 201.96 97.61 202.24C97.13 202.52 96.74 202.92 96.45 203.45C96.16 203.98 96.02 204.59 96.02 205.28C96.02 205.97 96.16 206.6 96.45 207.12C96.74 207.65 97.12 208.05 97.61 208.33C98.09 208.61 98.62 208.75 99.18 208.75C99.74 208.75 100.29 208.61 100.77 208.33C101.25 208.05 101.63 207.65 101.92 207.12C102.2 206.59 102.35 205.97 102.35 205.26C102.35 204.55 102.21 203.95 101.92 203.42Z" fill="white"/>
<path d="M108.361 197.36V209.94H106.811V197.36H108.361Z" fill="white"/>
<path d="M120.29 205.86H112.84C112.9 206.78 113.21 207.49 113.78 208.01C114.35 208.53 115.05 208.78 115.86 208.78C116.53 208.78 117.09 208.62 117.53 208.31C117.98 208 118.29 207.58 118.47 207.06H120.14C119.89 207.96 119.39 208.68 118.64 209.24C117.89 209.8 116.96 210.08 115.85 210.08C114.97 210.08 114.18 209.88 113.48 209.49C112.78 209.09 112.24 208.53 111.84 207.8C111.44 207.07 111.25 206.22 111.25 205.26C111.25 204.3 111.44 203.45 111.83 202.73C112.21 202 112.76 201.45 113.45 201.06C114.15 200.67 114.95 200.47 115.86 200.47C116.77 200.47 117.53 200.66 118.21 201.05C118.89 201.44 119.41 201.97 119.78 202.64C120.15 203.31 120.33 204.08 120.33 204.93C120.33 205.22 120.31 205.54 120.28 205.87L120.29 205.86ZM118.36 203.08C118.1 202.65 117.74 202.33 117.3 202.11C116.85 201.89 116.36 201.78 115.81 201.78C115.03 201.78 114.36 202.03 113.81 202.53C113.26 203.03 112.95 203.72 112.87 204.6H118.75C118.75 204.01 118.62 203.5 118.36 203.08Z" fill="white"/>
<path d="M128.62 202.74C129.01 202.02 129.54 201.46 130.21 201.07C130.88 200.67 131.64 200.48 132.48 200.48C133.2 200.48 133.88 200.65 134.5 200.98C135.12 201.31 135.6 201.75 135.93 202.3V197.37H137.49V209.95H135.93V208.2C135.62 208.76 135.17 209.21 134.57 209.57C133.97 209.93 133.27 210.11 132.46 210.11C131.65 210.11 130.88 209.91 130.21 209.5C129.54 209.09 129.01 208.52 128.62 207.78C128.23 207.04 128.04 206.2 128.04 205.26C128.04 204.32 128.23 203.47 128.62 202.75V202.74ZM135.51 203.43C135.23 202.91 134.84 202.51 134.36 202.23C133.88 201.95 133.35 201.81 132.77 201.81C132.19 201.81 131.66 201.95 131.19 202.22C130.71 202.49 130.33 202.89 130.05 203.41C129.77 203.93 129.62 204.54 129.62 205.25C129.62 205.96 129.76 206.58 130.05 207.11C130.33 207.64 130.71 208.04 131.19 208.32C131.67 208.6 132.19 208.74 132.77 208.74C133.35 208.74 133.88 208.6 134.36 208.32C134.84 208.04 135.22 207.64 135.51 207.11C135.79 206.58 135.93 205.97 135.93 205.27C135.93 204.57 135.79 203.96 135.51 203.43Z" fill="white"/>
<path d="M149.409 205.86H141.959C142.019 206.78 142.329 207.49 142.899 208.01C143.469 208.53 144.169 208.78 144.979 208.78C145.649 208.78 146.209 208.62 146.649 208.31C147.099 208 147.409 207.58 147.589 207.06H149.259C149.009 207.96 148.509 208.68 147.759 209.24C147.009 209.8 146.079 210.08 144.969 210.08C144.089 210.08 143.299 209.88 142.599 209.49C141.899 209.09 141.359 208.53 140.959 207.8C140.559 207.07 140.359 206.22 140.359 205.26C140.359 204.3 140.549 203.45 140.939 202.73C141.329 202 141.869 201.45 142.559 201.06C143.259 200.67 144.059 200.47 144.969 200.47C145.879 200.47 146.639 200.66 147.319 201.05C147.999 201.44 148.519 201.97 148.889 202.64C149.259 203.31 149.439 204.08 149.439 204.93C149.439 205.22 149.419 205.54 149.389 205.87L149.409 205.86ZM147.479 203.08C147.219 202.65 146.859 202.33 146.419 202.11C145.969 201.89 145.479 201.78 144.929 201.78C144.149 201.78 143.479 202.03 142.929 202.53C142.379 203.03 142.069 203.72 141.989 204.6H147.869C147.869 204.01 147.739 203.5 147.479 203.08Z" fill="white"/>
<path d="M155.82 208.52L158.71 200.63H160.36L156.7 209.95H154.9L151.24 200.63H152.91L155.82 208.52Z" fill="white"/>
<path d="M171.19 205.86H163.74C163.8 206.78 164.11 207.49 164.68 208.01C165.25 208.53 165.95 208.78 166.76 208.78C167.43 208.78 167.99 208.62 168.43 208.31C168.88 208 169.19 207.58 169.37 207.06H171.04C170.79 207.96 170.29 208.68 169.54 209.24C168.79 209.8 167.86 210.08 166.75 210.08C165.87 210.08 165.08 209.88 164.38 209.49C163.68 209.09 163.14 208.53 162.74 207.8C162.34 207.07 162.15 206.22 162.15 205.26C162.15 204.3 162.34 203.45 162.73 202.73C163.11 202 163.66 201.45 164.35 201.06C165.05 200.67 165.85 200.47 166.76 200.47C167.67 200.47 168.43 200.66 169.11 201.05C169.79 201.44 170.31 201.97 170.68 202.64C171.05 203.31 171.23 204.08 171.23 204.93C171.23 205.22 171.21 205.54 171.18 205.87L171.19 205.86ZM169.25 203.08C168.99 202.65 168.63 202.33 168.19 202.11C167.74 201.89 167.25 201.78 166.7 201.78C165.92 201.78 165.25 202.03 164.7 202.53C164.15 203.03 163.84 203.72 163.76 204.6H169.64C169.64 204.01 169.51 203.5 169.25 203.08Z" fill="white"/>
<path d="M175.68 197.36V209.94H174.13V197.36H175.68Z" fill="white"/>
<path d="M180.86 209.5C180.15 209.1 179.6 208.54 179.19 207.81C178.79 207.08 178.59 206.23 178.59 205.27C178.59 204.31 178.8 203.48 179.21 202.75C179.62 202.02 180.19 201.46 180.9 201.07C181.61 200.68 182.41 200.48 183.3 200.48C184.19 200.48 184.98 200.68 185.7 201.07C186.41 201.46 186.98 202.02 187.39 202.74C187.8 203.47 188.01 204.31 188.01 205.27C188.01 206.23 187.8 207.08 187.37 207.81C186.95 208.54 186.37 209.1 185.64 209.5C184.91 209.9 184.11 210.09 183.23 210.09C182.35 210.09 181.57 209.89 180.86 209.5ZM184.79 208.35C185.28 208.09 185.67 207.7 185.97 207.18C186.27 206.66 186.42 206.02 186.42 205.28C186.42 204.54 186.27 203.9 185.98 203.38C185.69 202.86 185.3 202.47 184.82 202.22C184.34 201.97 183.83 201.84 183.27 201.84C182.71 201.84 182.18 201.97 181.71 202.22C181.24 202.47 180.86 202.86 180.58 203.38C180.3 203.9 180.16 204.54 180.16 205.28C180.16 206.02 180.3 206.68 180.58 207.2C180.86 207.72 181.23 208.11 181.69 208.36C182.15 208.62 182.66 208.74 183.22 208.74C183.78 208.74 184.3 208.61 184.78 208.35H184.79Z" fill="white"/>
<path d="M193.81 201.01C194.42 200.65 195.12 200.47 195.93 200.47C196.74 200.47 197.51 200.67 198.18 201.06C198.85 201.46 199.38 202.01 199.77 202.73C200.16 203.45 200.35 204.29 200.35 205.24C200.35 206.19 200.16 207.02 199.77 207.76C199.38 208.5 198.85 209.07 198.18 209.48C197.51 209.89 196.75 210.09 195.93 210.09C195.11 210.09 194.44 209.91 193.83 209.55C193.22 209.19 192.76 208.75 192.44 208.22V214.36H190.89V200.62H192.44V202.34C192.75 201.81 193.2 201.36 193.81 201.01ZM198.34 203.42C198.06 202.9 197.67 202.5 197.19 202.23C196.71 201.96 196.18 201.82 195.6 201.82C195.02 201.82 194.51 201.96 194.03 202.24C193.55 202.52 193.16 202.92 192.87 203.45C192.58 203.98 192.44 204.59 192.44 205.28C192.44 205.97 192.58 206.6 192.87 207.12C193.16 207.65 193.54 208.05 194.03 208.33C194.51 208.61 195.04 208.75 195.6 208.75C196.16 208.75 196.71 208.61 197.19 208.33C197.67 208.05 198.05 207.65 198.34 207.12C198.62 206.59 198.76 205.97 198.76 205.26C198.76 204.55 198.62 203.95 198.34 203.42Z" fill="white"/>
<path d="M216.38 200.91C216.95 201.21 217.39 201.66 217.72 202.26C218.05 202.86 218.21 203.59 218.21 204.45V209.94H216.68V204.67C216.68 203.74 216.45 203.03 215.99 202.54C215.53 202.05 214.91 201.8 214.13 201.8C213.35 201.8 212.68 202.06 212.21 202.57C211.73 203.09 211.5 203.83 211.5 204.81V209.94H209.97V204.67C209.97 203.74 209.74 203.03 209.28 202.54C208.82 202.05 208.2 201.8 207.42 201.8C206.64 201.8 205.98 202.06 205.5 202.57C205.02 203.09 204.79 203.83 204.79 204.81V209.94H203.24V200.62H204.79V201.96C205.1 201.47 205.51 201.1 206.02 200.84C206.54 200.58 207.11 200.45 207.73 200.45C208.51 200.45 209.2 200.63 209.8 200.98C210.4 201.33 210.85 201.85 211.14 202.53C211.4 201.87 211.83 201.36 212.43 201C213.03 200.64 213.7 200.46 214.44 200.46C215.18 200.46 215.81 200.61 216.38 200.91Z" fill="white"/>
<path d="M230.04 205.86H222.59C222.65 206.78 222.96 207.49 223.53 208.01C224.1 208.53 224.8 208.78 225.61 208.78C226.28 208.78 226.84 208.62 227.28 208.31C227.73 208 228.04 207.58 228.22 207.06H229.89C229.64 207.96 229.14 208.68 228.39 209.24C227.64 209.8 226.71 210.08 225.6 210.08C224.72 210.08 223.93 209.88 223.23 209.49C222.53 209.09 221.99 208.53 221.59 207.8C221.19 207.07 221 206.22 221 205.26C221 204.3 221.19 203.45 221.58 202.73C221.96 202 222.51 201.45 223.2 201.06C223.9 200.67 224.7 200.47 225.61 200.47C226.52 200.47 227.28 200.66 227.96 201.05C228.64 201.44 229.16 201.97 229.53 202.64C229.9 203.31 230.08 204.08 230.08 204.93C230.08 205.22 230.06 205.54 230.03 205.87L230.04 205.86ZM228.11 203.08C227.85 202.65 227.5 202.33 227.05 202.11C226.6 201.89 226.11 201.78 225.56 201.78C224.78 201.78 224.11 202.03 223.56 202.53C223.01 203.03 222.7 203.72 222.62 204.6H228.5C228.5 204.01 228.37 203.5 228.11 203.08Z" fill="white"/>
<path d="M240.28 201.49C240.98 202.18 241.33 203.16 241.33 204.46V209.95H239.8V204.68C239.8 203.75 239.57 203.04 239.1 202.55C238.64 202.06 238 201.81 237.2 201.81C236.4 201.81 235.74 202.07 235.25 202.57C234.77 203.08 234.53 203.82 234.53 204.8V209.95H232.98V200.63H234.53V201.96C234.84 201.48 235.25 201.12 235.78 200.86C236.31 200.6 236.89 200.47 237.52 200.47C238.65 200.47 239.57 200.81 240.27 201.5L240.28 201.49Z" fill="white"/>
<path d="M246.6 201.9V207.39C246.6 207.84 246.7 208.16 246.89 208.35C247.08 208.54 247.42 208.63 247.89 208.63H249.03V209.94H247.64C246.78 209.94 246.13 209.74 245.7 209.35C245.27 208.95 245.05 208.3 245.05 207.39V201.9H243.84V200.62H245.05V198.27H246.6V200.62H249.03V201.9H246.6Z" fill="white"/>
<path d="M2.76 234.1H0V233.01H2.89L3.32 229.53H0.46V228.44H3.42L3.86 225.07H4.86L4.44 228.44H7.65L8.09 225.07H9.08L8.66 228.44H11.43V229.53H8.56L8.13 233.01H10.99V234.1H8L7.56 237.86H6.54L6.98 234.1H3.78L3.32 237.86H2.3L2.76 234.1ZM7.11 233.01L7.53 229.53H4.32L3.9 233.01H7.11Z" fill="white"/>
<path d="M22.1003 226.1V227.36H18.8703V237.95H17.3203V227.36H14.0703V226.1H22.0903H22.1003Z" fill="white"/>
<path d="M24.8595 230.74C25.2395 230.02 25.7795 229.46 26.4495 229.07C27.1195 228.67 27.8795 228.48 28.6995 228.48C29.5195 228.48 30.2195 228.66 30.8195 229.01C31.4195 229.36 31.8695 229.8 32.1595 230.34V228.64H33.7195V237.96H32.1595V236.23C31.8495 236.77 31.3995 237.22 30.7895 237.58C30.1795 237.94 29.4795 238.12 28.6695 238.12C27.8595 238.12 27.0895 237.92 26.4295 237.51C25.7595 237.1 25.2295 236.53 24.8495 235.79C24.4595 235.05 24.2695 234.21 24.2695 233.27C24.2695 232.33 24.4595 231.48 24.8495 230.76L24.8595 230.74ZM31.7395 231.43C31.4595 230.91 31.0695 230.51 30.5895 230.23C30.1095 229.95 29.5795 229.81 28.9995 229.81C28.4195 229.81 27.8995 229.95 27.4195 230.22C26.9395 230.49 26.5595 230.89 26.2795 231.41C25.9995 231.93 25.8595 232.54 25.8595 233.25C25.8595 233.96 25.9995 234.58 26.2795 235.11C26.5595 235.64 26.9395 236.04 27.4195 236.32C27.8995 236.6 28.4195 236.74 28.9995 236.74C29.5795 236.74 30.1095 236.6 30.5895 236.32C31.0695 236.04 31.4495 235.64 31.7395 235.11C32.0195 234.58 32.1595 233.97 32.1595 233.27C32.1595 232.57 32.0195 231.96 31.7395 231.43Z" fill="white"/>
<path d="M37.2495 226.81C37.0495 226.61 36.9395 226.36 36.9395 226.06C36.9395 225.76 37.0395 225.52 37.2495 225.31C37.4595 225.1 37.6995 225 37.9995 225C38.2995 225 38.5195 225.1 38.7195 225.31C38.9195 225.52 39.0195 225.76 39.0195 226.06C39.0195 226.36 38.9195 226.6 38.7195 226.81C38.5195 227.02 38.2795 227.12 37.9995 227.12C37.7195 227.12 37.4595 227.02 37.2495 226.81ZM38.7395 228.63V237.95H37.1895V228.63H38.7395Z" fill="white"/>
<path d="M44.1194 229.9V235.39C44.1194 235.84 44.2194 236.16 44.4094 236.35C44.5994 236.54 44.9394 236.63 45.4094 236.63H46.5494V237.94H45.1594C44.2994 237.94 43.6494 237.74 43.2194 237.35C42.7894 236.95 42.5694 236.3 42.5694 235.39V229.9H41.3594V228.62H42.5694V226.27H44.1194V228.62H46.5494V229.9H44.1194Z" fill="white"/>
<path d="M57.5297 228.63V237.95H55.9797V236.57C55.6897 237.05 55.2697 237.42 54.7497 237.68C54.2197 237.95 53.6397 238.08 53.0097 238.08C52.2797 238.08 51.6297 237.93 51.0497 237.63C50.4697 237.33 50.0197 236.88 49.6797 236.28C49.3497 235.68 49.1797 234.95 49.1797 234.09V228.63H50.7097V233.88C50.7097 234.8 50.9397 235.5 51.4097 236C51.8697 236.49 52.5097 236.74 53.3097 236.74C54.1097 236.74 54.7897 236.48 55.2697 235.97C55.7497 235.46 55.9797 234.72 55.9797 233.74V228.62H57.5297V228.63Z" fill="white"/>
<path d="M68.2902 229.49C68.9902 230.18 69.3402 231.16 69.3402 232.46V237.95H67.8102V232.68C67.8102 231.75 67.5802 231.04 67.1102 230.55C66.6502 230.06 66.0102 229.81 65.2102 229.81C64.4102 229.81 63.7502 230.07 63.2602 230.57C62.7802 231.08 62.5402 231.82 62.5402 232.8V237.95H60.9902V228.63H62.5402V229.96C62.8502 229.48 63.2602 229.12 63.7902 228.86C64.3202 228.6 64.9002 228.47 65.5302 228.47C66.6602 228.47 67.5802 228.81 68.2802 229.5L68.2902 229.49Z" fill="white"/>
<path d="M78.6904 229C79.3004 229.35 79.7504 229.79 80.0404 230.33V228.63H81.6004V238.15C81.6004 239 81.4204 239.76 81.0604 240.42C80.7004 241.08 80.1804 241.6 79.5004 241.98C78.8304 242.35 78.0404 242.54 77.1504 242.54C75.9304 242.54 74.9104 242.25 74.0904 241.67C73.2704 241.09 72.7904 240.3 72.6504 239.31H74.1804C74.3504 239.88 74.7004 240.33 75.2304 240.68C75.7604 241.03 76.4004 241.2 77.1504 241.2C78.0004 241.2 78.6904 240.93 79.2304 240.4C79.7704 239.87 80.0404 239.12 80.0404 238.16V236.21C79.7304 236.75 79.2804 237.21 78.6804 237.57C78.0804 237.93 77.3804 238.11 76.5704 238.11C75.7604 238.11 74.9904 237.91 74.3204 237.5C73.6504 237.09 73.1204 236.52 72.7304 235.78C72.3404 235.04 72.1504 234.2 72.1504 233.26C72.1504 232.32 72.3404 231.47 72.7304 230.75C73.1204 230.03 73.6504 229.47 74.3204 229.08C74.9904 228.68 75.7404 228.49 76.5704 228.49C77.4004 228.49 78.0804 228.67 78.6904 229.02V229ZM79.6104 231.43C79.3304 230.91 78.9404 230.51 78.4604 230.23C77.9804 229.95 77.4504 229.81 76.8704 229.81C76.2904 229.81 75.7704 229.95 75.2904 230.22C74.8104 230.49 74.4304 230.89 74.1504 231.41C73.8704 231.93 73.7204 232.54 73.7204 233.25C73.7204 233.96 73.8604 234.58 74.1504 235.11C74.4304 235.64 74.8104 236.04 75.2904 236.32C75.7704 236.6 76.2904 236.74 76.8704 236.74C77.4504 236.74 77.9804 236.6 78.4604 236.32C78.9404 236.04 79.3204 235.64 79.6104 235.11C79.8904 234.58 80.0304 233.97 80.0304 233.27C80.0304 232.57 79.8904 231.96 79.6104 231.43Z" fill="white"/>
<path d="M93.4002 229C94.0102 228.65 94.7102 228.47 95.4902 228.47C96.3302 228.47 97.0802 228.67 97.7502 229.06C98.4202 229.46 98.9502 230.01 99.3302 230.73C99.7102 231.45 99.9102 232.29 99.9102 233.24C99.9102 234.19 99.7202 235.02 99.3302 235.76C98.9402 236.5 98.4102 237.07 97.7402 237.48C97.0702 237.89 96.3202 238.09 95.4902 238.09C94.6602 238.09 93.9802 237.91 93.3702 237.56C92.7602 237.21 92.3102 236.76 92.0002 236.22V237.94H90.4502V225.36H92.0002V230.36C92.3202 229.8 92.7802 229.35 93.3902 229H93.4002ZM97.9002 231.42C97.6202 230.9 97.2302 230.5 96.7502 230.23C96.2702 229.96 95.7402 229.82 95.1602 229.82C94.5802 229.82 94.0702 229.96 93.5902 230.24C93.1102 230.52 92.7202 230.92 92.4302 231.45C92.1402 231.98 92.0002 232.59 92.0002 233.28C92.0002 233.97 92.1402 234.6 92.4302 235.12C92.7202 235.65 93.1002 236.05 93.5902 236.33C94.0702 236.61 94.6002 236.75 95.1602 236.75C95.7202 236.75 96.2702 236.61 96.7502 236.33C97.2302 236.05 97.6102 235.65 97.9002 235.12C98.1802 234.59 98.3302 233.97 98.3302 233.26C98.3302 232.55 98.1902 231.95 97.9002 231.42Z" fill="white"/>
<path d="M104.35 225.36V237.94H102.8V225.36H104.35Z" fill="white"/>
<path d="M116.09 228.63V237.95H114.54V236.57C114.25 237.05 113.83 237.42 113.31 237.68C112.78 237.95 112.2 238.08 111.57 238.08C110.84 238.08 110.19 237.93 109.61 237.63C109.03 237.33 108.58 236.88 108.24 236.28C107.91 235.68 107.74 234.95 107.74 234.09V228.63H109.27V233.88C109.27 234.8 109.5 235.5 109.97 236C110.43 236.49 111.07 236.74 111.87 236.74C112.67 236.74 113.35 236.48 113.83 235.97C114.31 235.46 114.54 234.72 114.54 233.74V228.62H116.09V228.63Z" fill="white"/>
<path d="M128.01 233.86H120.56C120.62 234.78 120.93 235.49 121.5 236.01C122.07 236.53 122.77 236.78 123.58 236.78C124.25 236.78 124.81 236.62 125.25 236.31C125.7 236 126.01 235.58 126.19 235.06H127.86C127.61 235.96 127.11 236.68 126.36 237.24C125.61 237.8 124.68 238.08 123.57 238.08C122.69 238.08 121.9 237.88 121.2 237.49C120.5 237.09 119.96 236.53 119.56 235.8C119.16 235.07 118.97 234.22 118.97 233.26C118.97 232.3 119.16 231.45 119.55 230.73C119.93 230 120.48 229.45 121.17 229.06C121.87 228.67 122.67 228.47 123.58 228.47C124.49 228.47 125.25 228.66 125.93 229.05C126.61 229.44 127.13 229.97 127.5 230.64C127.87 231.31 128.05 232.08 128.05 232.93C128.05 233.22 128.03 233.54 128 233.87L128.01 233.86ZM126.07 231.08C125.81 230.65 125.46 230.33 125.01 230.11C124.56 229.89 124.07 229.78 123.52 229.78C122.74 229.78 122.07 230.03 121.52 230.53C120.97 231.03 120.66 231.72 120.58 232.6H126.46C126.46 232.01 126.33 231.5 126.07 231.08Z" fill="white"/>
<path d="M2.76 262.1H0V261.01H2.89L3.32 257.53H0.46V256.44H3.42L3.86 253.07H4.86L4.44 256.44H7.65L8.09 253.07H9.08L8.66 256.44H11.43V257.53H8.56L8.13 261.01H10.99V262.1H8L7.56 265.86H6.54L6.98 262.1H3.78L3.32 265.86H2.3L2.76 262.1ZM7.11 261.01L7.53 257.53H4.32L3.9 261.01H7.11Z" fill="white"/>
<path d="M16.1905 265.73C15.6205 265.49 15.1805 265.15 14.8505 264.71C14.5205 264.27 14.3405 263.77 14.3105 263.21H15.9105C15.9505 263.67 16.1705 264.05 16.5605 264.35C16.9505 264.64 17.4605 264.79 18.1005 264.79C18.6905 264.79 19.1505 264.66 19.4905 264.4C19.8305 264.14 20.0005 263.81 20.0005 263.41C20.0005 263.01 19.8205 262.7 19.4605 262.5C19.1005 262.3 18.5405 262.11 17.7805 261.91C17.0905 261.73 16.5205 261.54 16.0905 261.36C15.6505 261.17 15.2805 260.9 14.9705 260.53C14.6605 260.16 14.5005 259.68 14.5005 259.08C14.5005 258.6 14.6405 258.17 14.9205 257.77C15.2005 257.37 15.6105 257.06 16.1305 256.83C16.6505 256.6 17.2505 256.48 17.9205 256.48C18.9505 256.48 19.7805 256.74 20.4205 257.26C21.0505 257.78 21.3905 258.5 21.4405 259.4H19.8905C19.8605 258.91 19.6605 258.52 19.3005 258.23C18.9405 257.94 18.4605 257.79 17.8605 257.79C17.3005 257.79 16.8605 257.91 16.5305 258.15C16.2005 258.39 16.0405 258.7 16.0405 259.08C16.0405 259.39 16.1405 259.64 16.3405 259.84C16.5405 260.04 16.7905 260.2 17.0905 260.32C17.3905 260.44 17.8105 260.57 18.3405 260.72C19.0105 260.9 19.5505 261.08 19.9705 261.26C20.3905 261.44 20.7505 261.7 21.0505 262.05C21.3505 262.4 21.5105 262.86 21.5205 263.43C21.5205 263.94 21.3805 264.4 21.0905 264.81C20.8105 265.22 20.4105 265.54 19.8905 265.77C19.3705 266 18.7805 266.12 18.1105 266.12C17.4005 266.12 16.7605 266 16.1905 265.75V265.73Z" fill="white"/>
<path d="M26.0803 253.36V265.94H24.5303V253.36H26.0803Z" fill="white"/>
<path d="M31.2602 265.5C30.5502 265.1 30.0002 264.54 29.5902 263.81C29.1902 263.08 28.9902 262.23 28.9902 261.27C28.9902 260.31 29.2002 259.48 29.6102 258.75C30.0202 258.02 30.5902 257.46 31.3002 257.07C32.0102 256.68 32.8102 256.48 33.7002 256.48C34.5902 256.48 35.3802 256.68 36.1002 257.07C36.8102 257.46 37.3802 258.02 37.7902 258.74C38.2002 259.47 38.4102 260.31 38.4102 261.27C38.4102 262.23 38.2002 263.08 37.7702 263.81C37.3502 264.54 36.7702 265.1 36.0402 265.5C35.3102 265.9 34.5102 266.09 33.6302 266.09C32.7502 266.09 31.9702 265.89 31.2602 265.5ZM35.1902 264.35C35.6802 264.09 36.0702 263.7 36.3702 263.18C36.6702 262.66 36.8202 262.02 36.8202 261.28C36.8202 260.54 36.6702 259.9 36.3802 259.38C36.0902 258.86 35.7002 258.47 35.2202 258.22C34.7402 257.97 34.2302 257.84 33.6702 257.84C33.1102 257.84 32.5802 257.97 32.1102 258.22C31.6402 258.47 31.2602 258.86 30.9802 259.38C30.7002 259.9 30.5602 260.54 30.5602 261.28C30.5602 262.02 30.7002 262.68 30.9802 263.2C31.2602 263.72 31.6302 264.11 32.0902 264.36C32.5502 264.62 33.0602 264.74 33.6202 264.74C34.1802 264.74 34.7002 264.61 35.1802 264.35H35.1902Z" fill="white"/>
<path d="M53.6995 256.63L50.7895 265.95H49.1895L46.9495 258.55L44.7095 265.95H43.1095L40.1895 256.63H41.7695L43.9095 264.45L46.2195 256.63H47.7995L50.0595 264.47L52.1695 256.63H53.6995Z" fill="white"/>
<path d="M69.9201 261.86H62.4701C62.5301 262.78 62.8401 263.49 63.4101 264.01C63.9801 264.53 64.6801 264.78 65.4901 264.78C66.1601 264.78 66.7201 264.62 67.1601 264.31C67.6101 264 67.9201 263.58 68.1001 263.06H69.7701C69.5201 263.96 69.0201 264.68 68.2701 265.24C67.5201 265.8 66.5901 266.08 65.4801 266.08C64.6001 266.08 63.8101 265.88 63.1101 265.49C62.4101 265.09 61.8701 264.53 61.4701 263.8C61.0701 263.07 60.8701 262.22 60.8701 261.26C60.8701 260.3 61.0601 259.45 61.4501 258.73C61.8401 258 62.3801 257.45 63.0701 257.06C63.7701 256.67 64.5701 256.47 65.4801 256.47C66.3901 256.47 67.1501 256.66 67.8301 257.05C68.5101 257.44 69.0301 257.97 69.4001 258.64C69.7701 259.31 69.9501 260.08 69.9501 260.93C69.9501 261.22 69.9301 261.54 69.9001 261.87L69.9201 261.86ZM67.9801 259.08C67.7201 258.65 67.3601 258.33 66.9201 258.11C66.4701 257.89 65.9801 257.78 65.4301 257.78C64.6501 257.78 63.9801 258.03 63.4301 258.53C62.8801 259.03 62.5701 259.72 62.4901 260.6H68.3701C68.3701 260.01 68.2401 259.5 67.9801 259.08Z" fill="white"/>
<path d="M72.8603 258.74C73.2403 258.02 73.7803 257.46 74.4703 257.07C75.1603 256.67 75.9403 256.48 76.8203 256.48C77.9603 256.48 78.9103 256.76 79.6503 257.31C80.3903 257.87 80.8803 258.64 81.1203 259.62H79.4503C79.2903 259.05 78.9803 258.61 78.5203 258.28C78.0603 257.95 77.4903 257.79 76.8103 257.79C75.9303 257.79 75.2103 258.09 74.6703 258.7C74.1303 259.31 73.8503 260.16 73.8503 261.28C73.8503 262.4 74.1203 263.27 74.6703 263.88C75.2103 264.49 75.9303 264.8 76.8103 264.8C77.4903 264.8 78.0603 264.64 78.5103 264.32C78.9603 264 79.2803 263.55 79.4503 262.96H81.1203C80.8703 263.91 80.3703 264.67 79.6203 265.25C78.8703 265.82 77.9403 266.11 76.8203 266.11C75.9403 266.11 75.1503 265.91 74.4703 265.52C73.7803 265.12 73.2503 264.56 72.8603 263.84C72.4703 263.11 72.2803 262.26 72.2803 261.29C72.2803 260.32 72.4703 259.49 72.8603 258.77V258.74Z" fill="white"/>
<path d="M85.7202 265.5C85.0102 265.1 84.4602 264.54 84.0502 263.81C83.6502 263.08 83.4502 262.23 83.4502 261.27C83.4502 260.31 83.6602 259.48 84.0702 258.75C84.4802 258.02 85.0502 257.46 85.7602 257.07C86.4702 256.68 87.2702 256.48 88.1602 256.48C89.0502 256.48 89.8402 256.68 90.5602 257.07C91.2702 257.46 91.8402 258.02 92.2502 258.74C92.6602 259.47 92.8702 260.31 92.8702 261.27C92.8702 262.23 92.6602 263.08 92.2302 263.81C91.8102 264.54 91.2302 265.1 90.5002 265.5C89.7702 265.9 88.9702 266.09 88.0902 266.09C87.2102 266.09 86.4302 265.89 85.7202 265.5ZM89.6602 264.35C90.1502 264.09 90.5402 263.7 90.8402 263.18C91.1402 262.66 91.2902 262.02 91.2902 261.28C91.2902 260.54 91.1402 259.9 90.8502 259.38C90.5602 258.86 90.1702 258.47 89.6902 258.22C89.2102 257.97 88.7002 257.84 88.1402 257.84C87.5802 257.84 87.0502 257.97 86.5802 258.22C86.1102 258.47 85.7302 258.86 85.4502 259.38C85.1702 259.9 85.0302 260.54 85.0302 261.28C85.0302 262.02 85.1702 262.68 85.4502 263.2C85.7302 263.72 86.1002 264.11 86.5602 264.36C87.0202 264.62 87.5302 264.74 88.0902 264.74C88.6502 264.74 89.1702 264.61 89.6502 264.35H89.6602Z" fill="white"/>
<path d="M103.06 257.49C103.76 258.18 104.11 259.16 104.11 260.46V265.95H102.58V260.68C102.58 259.75 102.35 259.04 101.88 258.55C101.42 258.06 100.78 257.81 99.9798 257.81C99.1798 257.81 98.5198 258.07 98.0298 258.57C97.5498 259.08 97.3098 259.82 97.3098 260.8V265.95H95.7598V256.63H97.3098V257.96C97.6198 257.48 98.0298 257.12 98.5598 256.86C99.0898 256.6 99.6698 256.47 100.3 256.47C101.43 256.47 102.35 256.81 103.05 257.5L103.06 257.49Z" fill="white"/>
<path d="M109.18 265.5C108.47 265.1 107.92 264.54 107.51 263.81C107.11 263.08 106.91 262.23 106.91 261.27C106.91 260.31 107.12 259.48 107.53 258.75C107.94 258.02 108.51 257.46 109.22 257.07C109.93 256.68 110.73 256.48 111.62 256.48C112.51 256.48 113.3 256.68 114.02 257.07C114.73 257.46 115.3 258.02 115.71 258.74C116.12 259.47 116.33 260.31 116.33 261.27C116.33 262.23 116.12 263.08 115.69 263.81C115.27 264.54 114.69 265.1 113.96 265.5C113.23 265.9 112.43 266.09 111.55 266.09C110.67 266.09 109.89 265.89 109.18 265.5ZM113.12 264.35C113.61 264.09 114 263.7 114.3 263.18C114.6 262.66 114.75 262.02 114.75 261.28C114.75 260.54 114.6 259.9 114.31 259.38C114.02 258.86 113.63 258.47 113.15 258.22C112.67 257.97 112.16 257.84 111.6 257.84C111.04 257.84 110.51 257.97 110.04 258.22C109.57 258.47 109.19 258.86 108.91 259.38C108.63 259.9 108.49 260.54 108.49 261.28C108.49 262.02 108.63 262.68 108.91 263.2C109.19 263.72 109.56 264.11 110.02 264.36C110.48 264.62 110.99 264.74 111.55 264.74C112.11 264.74 112.63 264.61 113.11 264.35H113.12Z" fill="white"/>
<path d="M132.36 256.91C132.93 257.21 133.37 257.66 133.7 258.26C134.03 258.86 134.19 259.59 134.19 260.45V265.94H132.66V260.67C132.66 259.74 132.43 259.03 131.97 258.54C131.51 258.05 130.89 257.8 130.11 257.8C129.33 257.8 128.66 258.06 128.19 258.57C127.71 259.09 127.48 259.83 127.48 260.81V265.94H125.95V260.67C125.95 259.74 125.72 259.03 125.26 258.54C124.8 258.05 124.18 257.8 123.4 257.8C122.62 257.8 121.96 258.06 121.48 258.57C121 259.09 120.77 259.83 120.77 260.81V265.94H119.22V256.62H120.77V257.96C121.08 257.47 121.49 257.1 122 256.84C122.52 256.58 123.09 256.45 123.71 256.45C124.49 256.45 125.18 256.63 125.78 256.98C126.38 257.33 126.83 257.85 127.12 258.53C127.38 257.87 127.81 257.36 128.41 257C129.01 256.64 129.68 256.46 130.42 256.46C131.16 256.46 131.79 256.61 132.36 256.91Z" fill="white"/>
<path d="M145.61 256.63L140 270.33H138.4L140.24 265.84L136.48 256.63H138.2L141.12 264.18L144.01 256.63H145.61Z" fill="white"/>
<path d="M2.76 290.1H0V289.01H2.89L3.32 285.53H0.46V284.44H3.42L3.86 281.07H4.86L4.44 284.44H7.65L8.09 281.07H9.08L8.66 284.44H11.43V285.53H8.56L8.13 289.01H10.99V290.1H8L7.56 293.86H6.54L6.98 290.1H3.78L3.32 293.86H2.3L2.76 290.1ZM7.11 289.01L7.53 285.53H4.32L3.9 289.01H7.11Z" fill="white"/>
<path d="M21.8105 291.31H16.6405L15.6905 293.95H14.0605L18.3405 282.17H20.1205L24.3905 293.95H22.7605L21.8105 291.31ZM21.3705 290.05L19.2305 284.07L17.0905 290.05H21.3705Z" fill="white"/>
<path d="M35.3803 284.63V293.95H33.8303V292.57C33.5403 293.05 33.1203 293.42 32.6003 293.68C32.0703 293.95 31.4903 294.08 30.8603 294.08C30.1303 294.08 29.4803 293.93 28.9003 293.63C28.3203 293.33 27.8703 292.88 27.5303 292.28C27.2003 291.68 27.0303 290.95 27.0303 290.09V284.63H28.5603V289.88C28.5603 290.8 28.7903 291.5 29.2603 292C29.7203 292.49 30.3603 292.74 31.1603 292.74C31.9603 292.74 32.6403 292.48 33.1203 291.97C33.6003 291.46 33.8303 290.72 33.8303 289.74V284.62H35.3803V284.63Z" fill="white"/>
<path d="M40.2198 293.73C39.6498 293.49 39.2098 293.15 38.8798 292.71C38.5498 292.27 38.3698 291.77 38.3398 291.21H39.9398C39.9798 291.67 40.1998 292.05 40.5898 292.35C40.9798 292.64 41.4898 292.79 42.1298 292.79C42.7198 292.79 43.1798 292.66 43.5198 292.4C43.8598 292.14 44.0298 291.81 44.0298 291.41C44.0298 291.01 43.8498 290.7 43.4898 290.5C43.1298 290.3 42.5698 290.11 41.8098 289.91C41.1198 289.73 40.5498 289.54 40.1198 289.36C39.6798 289.17 39.3098 288.9 38.9998 288.53C38.6898 288.16 38.5298 287.68 38.5298 287.08C38.5298 286.6 38.6698 286.17 38.9498 285.77C39.2298 285.37 39.6398 285.06 40.1598 284.83C40.6798 284.6 41.2798 284.48 41.9498 284.48C42.9798 284.48 43.8098 284.74 44.4498 285.26C45.0798 285.78 45.4198 286.5 45.4698 287.4H43.9198C43.8898 286.91 43.6898 286.52 43.3298 286.23C42.9698 285.94 42.4898 285.79 41.8898 285.79C41.3298 285.79 40.8898 285.91 40.5598 286.15C40.2298 286.39 40.0698 286.7 40.0698 287.08C40.0698 287.39 40.1698 287.64 40.3698 287.84C40.5698 288.04 40.8198 288.2 41.1198 288.32C41.4198 288.44 41.8398 288.57 42.3698 288.72C43.0398 288.9 43.5798 289.08 43.9998 289.26C44.4198 289.44 44.7798 289.7 45.0798 290.05C45.3798 290.4 45.5398 290.86 45.5498 291.43C45.5498 291.94 45.4098 292.4 45.1198 292.81C44.8398 293.22 44.4398 293.54 43.9198 293.77C43.3998 294 42.8098 294.12 42.1398 294.12C41.4298 294.12 40.7898 294 40.2198 293.75V293.73Z" fill="white"/>
<path d="M50.4602 285.9V291.39C50.4602 291.84 50.5602 292.16 50.7502 292.35C50.9402 292.54 51.2802 292.63 51.7502 292.63H52.8902V293.94H51.5002C50.6402 293.94 49.9902 293.74 49.5602 293.35C49.1302 292.95 48.9102 292.3 48.9102 291.39V285.9H47.7002V284.62H48.9102V282.27H50.4602V284.62H52.8902V285.9H50.4602Z" fill="white"/>
<path d="M58.3196 284.9C58.8196 284.61 59.4396 284.46 60.1596 284.46V286.06H59.7496C58.0196 286.06 57.1496 287 57.1496 288.88V293.95H55.5996V284.63H57.1496V286.14C57.4196 285.61 57.8096 285.19 58.3096 284.9H58.3196Z" fill="white"/>
<path d="M64.4897 293.5C63.7797 293.1 63.2297 292.54 62.8197 291.81C62.4197 291.08 62.2197 290.23 62.2197 289.27C62.2197 288.31 62.4297 287.48 62.8397 286.75C63.2497 286.02 63.8197 285.46 64.5297 285.07C65.2397 284.68 66.0397 284.48 66.9297 284.48C67.8197 284.48 68.6097 284.68 69.3297 285.07C70.0397 285.46 70.6097 286.02 71.0197 286.74C71.4297 287.47 71.6397 288.31 71.6397 289.27C71.6397 290.23 71.4297 291.08 70.9997 291.81C70.5697 292.54 69.9997 293.1 69.2697 293.5C68.5397 293.9 67.7397 294.09 66.8597 294.09C65.9797 294.09 65.1997 293.89 64.4897 293.5ZM68.4297 292.35C68.9197 292.09 69.3097 291.7 69.6097 291.18C69.9097 290.66 70.0597 290.02 70.0597 289.28C70.0597 288.54 69.9097 287.9 69.6197 287.38C69.3297 286.86 68.9397 286.47 68.4597 286.22C67.9797 285.97 67.4697 285.84 66.9097 285.84C66.3497 285.84 65.8197 285.97 65.3497 286.22C64.8797 286.48 64.4997 286.86 64.2197 287.38C63.9397 287.9 63.7897 288.54 63.7897 289.28C63.7897 290.02 63.9297 290.68 64.2097 291.2C64.4897 291.72 64.8597 292.11 65.3197 292.36C65.7797 292.61 66.2897 292.74 66.8497 292.74C67.4097 292.74 67.9297 292.61 68.4097 292.35H68.4297Z" fill="white"/>
<path d="M81.8195 285.49C82.5195 286.18 82.8695 287.16 82.8695 288.46V293.95H81.3395V288.68C81.3395 287.75 81.1095 287.04 80.6395 286.55C80.1795 286.06 79.5395 285.81 78.7395 285.81C77.9395 285.81 77.2795 286.07 76.7895 286.57C76.3095 287.08 76.0695 287.82 76.0695 288.8V293.95H74.5195V284.63H76.0695V285.96C76.3795 285.48 76.7895 285.12 77.3195 284.86C77.8495 284.6 78.4295 284.47 79.0595 284.47C80.1895 284.47 81.1095 284.81 81.8095 285.5L81.8195 285.49Z" fill="white"/>
<path d="M94.7102 289.86H87.2602C87.3202 290.78 87.6302 291.49 88.2002 292.01C88.7702 292.53 89.4702 292.78 90.2802 292.78C90.9502 292.78 91.5102 292.62 91.9502 292.31C92.4002 292 92.7102 291.58 92.8902 291.06H94.5602C94.3102 291.96 93.8102 292.68 93.0602 293.24C92.3102 293.8 91.3802 294.08 90.2702 294.08C89.3902 294.08 88.6002 293.88 87.9002 293.49C87.2002 293.09 86.6602 292.53 86.2602 291.8C85.8602 291.07 85.6602 290.22 85.6602 289.26C85.6602 288.3 85.8502 287.45 86.2402 286.73C86.6302 286 87.1702 285.45 87.8602 285.06C88.5602 284.67 89.3602 284.47 90.2702 284.47C91.1802 284.47 91.9402 284.66 92.6202 285.05C93.3002 285.44 93.8202 285.97 94.1902 286.64C94.5602 287.31 94.7402 288.08 94.7402 288.93C94.7402 289.22 94.7202 289.54 94.6902 289.87L94.7102 289.86ZM92.7702 287.08C92.5102 286.65 92.1602 286.33 91.7102 286.11C91.2602 285.89 90.7702 285.78 90.2202 285.78C89.4402 285.78 88.7702 286.03 88.2202 286.53C87.6702 287.03 87.3602 287.72 87.2802 288.6H93.1602C93.1602 288.01 93.0302 287.5 92.7702 287.08Z" fill="white"/>
<path d="M99.0304 293.73C98.4604 293.49 98.0204 293.15 97.6904 292.71C97.3604 292.27 97.1804 291.77 97.1504 291.21H98.7504C98.8004 291.67 99.0104 292.05 99.4004 292.35C99.7904 292.64 100.3 292.79 100.94 292.79C101.53 292.79 101.99 292.66 102.33 292.4C102.67 292.14 102.84 291.81 102.84 291.41C102.84 291.01 102.66 290.7 102.3 290.5C101.94 290.3 101.38 290.11 100.62 289.91C99.9304 289.73 99.3604 289.54 98.9304 289.36C98.4904 289.17 98.1204 288.9 97.8104 288.53C97.5004 288.16 97.3404 287.68 97.3404 287.08C97.3404 286.6 97.4804 286.17 97.7604 285.77C98.0404 285.37 98.4504 285.06 98.9704 284.83C99.4904 284.6 100.09 284.48 100.76 284.48C101.79 284.48 102.62 284.74 103.26 285.26C103.89 285.78 104.23 286.5 104.28 287.4H102.73C102.7 286.91 102.5 286.52 102.14 286.23C101.78 285.94 101.3 285.79 100.7 285.79C100.14 285.79 99.7004 285.91 99.3704 286.15C99.0404 286.39 98.8804 286.7 98.8804 287.08C98.8804 287.39 98.9804 287.64 99.1804 287.84C99.3804 288.04 99.6304 288.2 99.9304 288.32C100.23 288.44 100.65 288.57 101.18 288.72C101.85 288.9 102.39 289.08 102.81 289.26C103.23 289.44 103.59 289.7 103.89 290.05C104.19 290.4 104.35 290.86 104.36 291.43C104.36 291.94 104.22 292.4 103.94 292.81C103.66 293.22 103.26 293.54 102.74 293.77C102.22 294 101.63 294.12 100.96 294.12C100.25 294.12 99.6104 294 99.0404 293.75L99.0304 293.73Z" fill="white"/>
<path d="M107.419 282.81C107.219 282.61 107.109 282.36 107.109 282.06C107.109 281.76 107.209 281.52 107.419 281.31C107.629 281.1 107.869 281 108.169 281C108.469 281 108.689 281.1 108.889 281.31C109.089 281.51 109.189 281.76 109.189 282.06C109.189 282.36 109.089 282.6 108.889 282.81C108.689 283.01 108.449 283.12 108.169 283.12C107.889 283.12 107.629 283.02 107.419 282.81ZM108.919 284.63V293.95H107.369V284.63H108.919Z" fill="white"/>
<path d="M112.401 286.74C112.791 286.02 113.321 285.46 113.991 285.07C114.661 284.67 115.411 284.48 116.241 284.48C117.071 284.48 117.761 284.66 118.361 285.01C118.961 285.36 119.411 285.8 119.701 286.34V284.64H121.261V293.96H119.701V292.23C119.391 292.77 118.941 293.22 118.331 293.58C117.721 293.94 117.021 294.12 116.211 294.12C115.401 294.12 114.631 293.92 113.971 293.51C113.311 293.1 112.771 292.53 112.391 291.79C112.001 291.05 111.811 290.21 111.811 289.27C111.811 288.33 112.001 287.48 112.391 286.76L112.401 286.74ZM119.291 287.43C119.011 286.91 118.621 286.51 118.141 286.23C117.661 285.95 117.131 285.81 116.551 285.81C115.971 285.81 115.441 285.95 114.971 286.22C114.491 286.49 114.111 286.89 113.831 287.41C113.551 287.93 113.401 288.54 113.401 289.25C113.401 289.96 113.541 290.58 113.831 291.11C114.111 291.64 114.491 292.04 114.971 292.32C115.451 292.6 115.971 292.74 116.551 292.74C117.131 292.74 117.661 292.6 118.141 292.32C118.621 292.04 119.001 291.64 119.291 291.11C119.571 290.58 119.711 289.97 119.711 289.27C119.711 288.57 119.571 287.96 119.291 287.43Z" fill="white"/>
<path d="M132.04 285.49C132.74 286.18 133.09 287.16 133.09 288.46V293.95H131.56V288.68C131.56 287.75 131.33 287.04 130.86 286.55C130.4 286.06 129.76 285.81 128.96 285.81C128.16 285.81 127.5 286.07 127.01 286.57C126.53 287.08 126.29 287.82 126.29 288.8V293.95H124.74V284.63H126.29V285.96C126.6 285.48 127.01 285.12 127.54 284.86C128.07 284.6 128.65 284.47 129.28 284.47C130.41 284.47 131.33 284.81 132.03 285.5L132.04 285.49Z" fill="white"/>
<path d="M141.87 286.74C142.26 286.02 142.79 285.46 143.48 285.07C144.17 284.67 144.95 284.48 145.83 284.48C146.97 284.48 147.92 284.76 148.66 285.31C149.4 285.87 149.89 286.64 150.13 287.62H148.46C148.3 287.05 147.99 286.61 147.53 286.28C147.07 285.95 146.5 285.79 145.82 285.79C144.94 285.79 144.22 286.09 143.68 286.7C143.14 287.31 142.86 288.16 142.86 289.28C142.86 290.4 143.13 291.27 143.68 291.88C144.22 292.49 144.94 292.8 145.82 292.8C146.5 292.8 147.07 292.64 147.52 292.32C147.97 292 148.29 291.55 148.46 290.96H150.13C149.88 291.91 149.38 292.67 148.63 293.25C147.88 293.82 146.95 294.11 145.82 294.11C144.94 294.11 144.15 293.91 143.47 293.52C142.78 293.12 142.25 292.56 141.86 291.84C141.47 291.11 141.28 290.26 141.28 289.29C141.28 288.32 141.47 287.49 141.86 286.77L141.87 286.74Z" fill="white"/>
<path d="M161.3 284.63V293.95H159.75V292.57C159.46 293.05 159.04 293.42 158.52 293.68C157.99 293.95 157.41 294.08 156.78 294.08C156.05 294.08 155.4 293.93 154.82 293.63C154.24 293.33 153.79 292.88 153.45 292.28C153.12 291.68 152.95 290.95 152.95 290.09V284.63H154.48V289.88C154.48 290.8 154.71 291.5 155.18 292C155.64 292.49 156.28 292.74 157.08 292.74C157.88 292.74 158.56 292.48 159.04 291.97C159.52 291.46 159.75 290.72 159.75 289.74V284.62H161.3V284.63Z" fill="white"/>
<path d="M166.31 281.36V293.94H164.76V281.36H166.31Z" fill="white"/>
<path d="M171.68 285.9V291.39C171.68 291.84 171.78 292.16 171.97 292.35C172.16 292.54 172.5 292.63 172.97 292.63H174.11V293.94H172.72C171.86 293.94 171.21 293.74 170.78 293.35C170.35 292.95 170.13 292.3 170.13 291.39V285.9H168.92V284.62H170.13V282.27H171.68V284.62H174.11V285.9H171.68Z" fill="white"/>
<path d="M185.1 284.63V293.95H183.55V292.57C183.26 293.05 182.84 293.42 182.32 293.68C181.79 293.95 181.21 294.08 180.58 294.08C179.85 294.08 179.2 293.93 178.62 293.63C178.04 293.33 177.59 292.88 177.25 292.28C176.92 291.68 176.75 290.95 176.75 290.09V284.63H178.28V289.88C178.28 290.8 178.51 291.5 178.98 292C179.44 292.49 180.08 292.74 180.88 292.74C181.68 292.74 182.36 292.48 182.84 291.97C183.32 291.46 183.55 290.72 183.55 289.74V284.62H185.1V284.63Z" fill="white"/>
<path d="M191.281 284.9C191.781 284.61 192.401 284.46 193.121 284.46V286.06H192.711C190.981 286.06 190.111 287 190.111 288.88V293.95H188.561V284.63H190.111V286.14C190.381 285.61 190.771 285.19 191.271 284.9H191.281Z" fill="white"/>
<path d="M204.2 289.86H196.75C196.81 290.78 197.12 291.49 197.69 292.01C198.26 292.53 198.96 292.78 199.77 292.78C200.44 292.78 201 292.62 201.44 292.31C201.89 292 202.2 291.58 202.38 291.06H204.05C203.8 291.96 203.3 292.68 202.55 293.24C201.8 293.8 200.87 294.08 199.76 294.08C198.88 294.08 198.09 293.88 197.39 293.49C196.69 293.09 196.15 292.53 195.75 291.8C195.35 291.07 195.16 290.22 195.16 289.26C195.16 288.3 195.35 287.45 195.74 286.73C196.12 286 196.67 285.45 197.36 285.06C198.06 284.67 198.86 284.47 199.77 284.47C200.68 284.47 201.44 284.66 202.12 285.05C202.8 285.44 203.32 285.97 203.69 286.64C204.06 287.31 204.24 288.08 204.24 288.93C204.24 289.22 204.22 289.54 204.19 289.87L204.2 289.86ZM202.27 287.08C202.01 286.65 201.66 286.33 201.21 286.11C200.76 285.89 200.27 285.78 199.72 285.78C198.94 285.78 198.27 286.03 197.72 286.53C197.17 287.03 196.86 287.72 196.78 288.6H202.66C202.66 288.01 202.53 287.5 202.27 287.08Z" fill="white"/>
</svg>
