<svg width="560" height="311" viewBox="0 0 560 311" fill="none" xmlns="http://www.w3.org/2000/svg">
<g clip-path="url(#clip0_127_201)">
<path d="M3.42698 209.288H0V207.935H3.59732L4.1284 203.594H0.571162V202.24H4.24865L4.79977 198.049H6.05232L5.52124 202.24H9.51938L10.0705 198.049H11.303L10.7719 202.24H14.2189V203.594H10.6417L10.1106 207.935H13.6678V209.288H9.94024L9.38911 213.97H8.11652L8.66765 209.288H4.68955L4.11838 213.97H2.84579L3.41696 209.288H3.42698ZM8.83799 207.935L9.36907 203.594H5.37093L4.83985 207.935H8.83799Z" fill="white"/>
<path d="M25.0714 205.178C23.9892 209.499 21.5542 212.627 18.8487 214.371C18.6183 214.03 17.9769 213.439 17.6162 213.188C19.9409 211.815 22.0152 209.378 23.0773 206.29H18.0371V204.787H23.7487L24.0192 204.726L25.0513 205.188L25.0714 205.178ZM36.3944 203.233C34.7411 204.777 32.5867 206.601 30.8331 207.824C32.3963 210.15 34.4906 211.955 37.1159 212.948C36.7752 213.268 36.2742 213.88 36.0337 214.321C32.4765 212.777 29.9413 209.92 28.2679 206.17V213.669C28.2679 214.622 28.0374 215.113 27.356 215.364C26.6747 215.614 25.5624 215.635 23.7988 215.635C23.7387 215.213 23.4781 214.512 23.2276 214.07C24.5203 214.131 25.7628 214.131 26.1035 214.111C26.4843 214.091 26.6145 213.98 26.6145 213.649V202.22H20.7927V200.696H28.2579V202.26C28.7188 203.824 29.32 205.308 30.0816 206.661C31.755 205.388 33.739 203.594 34.9715 202.22L36.3944 203.233ZM30.4724 200.586C28.7589 199.613 25.352 198.34 22.7266 197.688L23.4882 196.395C26.0734 197.007 29.5004 198.15 31.274 199.122L30.4724 200.586Z" fill="white"/>
<path d="M42.1258 210.091C41.8753 212.036 41.4945 214.181 41.0235 215.535C40.753 215.404 40.1317 215.214 39.791 215.113C40.3221 213.74 40.6628 211.705 40.8532 209.88L42.1258 210.091ZM45.8133 209.228C45.7732 208.887 45.7031 208.446 45.6029 208.005C41.4945 208.637 40.8432 208.767 40.4824 208.978C40.4223 208.657 40.1818 207.985 40.0215 207.604C40.4423 207.524 40.8933 206.993 41.4845 206.191C41.8051 205.83 42.4364 204.917 43.1779 203.754C41.0836 204.005 40.6428 204.075 40.3622 204.215C40.282 203.945 40.0415 203.263 39.9012 202.902C40.2419 202.822 40.5826 202.351 40.9834 201.719C41.4043 201.107 42.7771 198.651 43.5487 196.345L44.9014 196.917C44.0597 198.912 42.9975 200.977 41.8953 202.571L43.9695 202.401C44.5206 201.488 45.0116 200.516 45.4525 199.543L46.7051 200.285C45.4525 202.742 43.8894 205.218 42.2861 207.183L45.3323 206.802C45.1419 206.08 44.9515 205.338 44.7211 204.707L45.8433 204.436C46.3744 205.9 46.8855 207.785 47.0257 208.908L45.8433 209.248L45.8133 209.228ZM43.9896 209.8C44.2401 211.344 44.5006 213.339 44.5607 214.672L43.3583 214.883C43.3382 213.549 43.1078 211.534 42.8472 209.99L43.9896 209.8ZM45.7632 209.289C46.2241 210.542 46.7151 212.166 46.9255 213.209L45.8233 213.57C45.6329 212.487 45.1419 210.863 44.7411 209.609L45.7532 209.289H45.7632ZM54.8717 212.697C56.4349 213.269 58.0883 214.011 59.1705 214.502L58.5191 215.645C57.3969 215.093 55.6433 214.271 54.0801 213.63L54.6112 212.697H50.9938L52.1161 213.65C50.5028 214.392 48.4987 215.214 47.0558 215.785C46.9055 215.444 46.635 214.983 46.4045 214.662C47.7773 214.151 49.7914 213.309 50.9337 212.697H47.657V206.491H58.0883V212.697H54.8918H54.8717ZM52.1963 198.621H46.7953V197.518H52.1963V196.375H53.7394V197.518H58.8999V198.621H53.7394V199.764H58.0582V200.827H47.6871V199.764H52.1963V198.621ZM46.9556 201.689H58.7396V205.559H46.9556V201.689ZM48.2883 204.486H50.6832V202.752H48.2883V204.486ZM49.0499 208.336H56.5852V207.444H49.0499V208.336ZM49.0499 210.01H56.5852V209.098H49.0499V210.01ZM49.0499 211.745H56.5852V210.772H49.0499V211.745ZM54.1001 204.486V202.752H51.8957V204.486H54.1001ZM57.3468 202.752H55.3327V204.486H57.3468V202.752Z" fill="white"/>
<path d="M70.0829 209.629C70.0829 209.629 70.0629 210.07 70.0228 210.241C69.7723 213.209 69.4917 214.452 68.9907 214.943C68.6299 215.304 68.2091 215.434 67.5978 215.474C67.0668 215.514 65.9445 215.494 64.8021 215.434C64.7821 215.013 64.5717 214.462 64.3412 214.081C65.4835 214.191 66.6459 214.211 67.0467 214.211C67.4275 214.211 67.6379 214.191 67.8083 214.021C68.1289 213.75 68.3594 212.878 68.5498 210.862H63.6999C63.9504 209.609 64.251 207.724 64.4414 206.231H68.6299V204.005H65.0927V203.754C64.3312 204.155 63.5496 204.496 62.748 204.747C62.5776 204.406 62.1968 203.854 61.9062 203.584C63.3291 203.163 64.7821 202.461 66.0747 201.589C65.4434 200.997 64.4915 200.255 63.6799 199.764L64.5917 198.892C65.4635 199.403 66.4956 200.145 67.1068 200.777C67.9085 200.095 68.6099 199.333 69.141 198.531H64.231V197.237H69.9627L70.2332 197.177L71.2052 197.689C70.2733 199.804 68.64 201.478 66.7661 202.752H70.0428V207.454H65.5737C65.4635 208.196 65.3633 208.958 65.2531 209.639H70.0729L70.0829 209.629ZM79.3918 209.058C78.8006 210.602 77.8487 211.875 76.6663 212.868C77.7886 213.569 78.8006 214.201 79.5221 214.732L78.7405 215.745C77.979 215.174 76.8567 214.432 75.6342 213.67C74.1913 214.622 72.5479 215.274 70.7843 215.725C70.634 215.364 70.3434 214.833 70.0629 214.562C71.606 214.221 73.1091 213.67 74.4017 212.908C73.2594 212.226 72.097 211.534 71.0549 210.963L71.8164 210.091C72.9387 210.682 74.2514 211.444 75.4939 212.166C76.2955 211.514 76.997 210.772 77.528 209.9H71.0549V208.757H78.2696L78.5201 208.697L79.3918 209.058ZM80.955 199.423C80.0832 200.245 78.9409 201.117 77.9689 201.749C79.0912 202.401 80.2937 202.912 81.5863 203.253C81.2456 203.554 80.8648 204.095 80.6344 204.476C79.5522 204.135 78.5401 203.714 77.6082 203.183V206C77.6082 206.461 77.6483 206.612 77.9689 206.612H79.5321C79.8027 206.612 80.2736 206.592 80.5442 206.531C80.5442 206.872 80.5843 207.333 80.6244 207.654C80.3939 207.734 79.973 207.734 79.5422 207.734H77.8086C76.516 207.734 76.2655 207.223 76.2655 205.98V203.925H73.3896V204.346C73.3896 205.699 72.9487 207.263 71.0849 208.346C70.8745 208.075 70.3635 207.564 70.0729 207.374C71.7463 206.461 72.0369 205.318 72.0369 204.306V202.651H76.7364C74.552 201.188 72.7984 199.182 71.6962 196.766L72.9487 196.385C73.3696 197.298 73.9207 198.14 74.6021 198.952C75.514 198.21 76.6362 197.217 77.2675 196.496L78.4299 197.318C77.518 198.19 76.3356 199.092 75.3837 199.774C75.8246 200.235 76.3557 200.666 76.9268 201.067C77.8788 200.365 79.0812 199.353 79.7826 198.611L80.945 199.413L80.955 199.423Z" fill="white"/>
<path d="M88.0695 202.28V203.534C88.0695 207.133 87.7489 212.276 85.5945 215.725C85.2939 215.474 84.6025 215.043 84.2217 214.923C86.336 211.594 86.5063 206.922 86.5063 203.534V197.368H102.228V202.28H88.0695ZM88.0695 198.741V200.897H100.665V198.741H88.0695ZM102.379 210.281C101.387 211.043 100.094 211.845 99.0118 212.416C100.304 213.369 101.868 214.021 103.731 214.412C103.371 214.732 102.97 215.304 102.759 215.725C99.0118 214.772 96.3263 212.617 94.8834 209.348H91.9675V213.67L96.5167 212.657C96.4566 213.038 96.4065 213.65 96.4566 213.97C91.1658 215.264 90.5145 215.454 90.0836 215.725C90.0235 215.344 89.7028 214.712 89.4724 214.391C89.8531 214.181 90.4844 213.71 90.4844 212.787V209.359H88.1998V207.985H91.9274V205.759H88.7709V204.406H91.9274V202.501H93.4104V204.406H97.619V202.501H99.102V204.406H102.659V205.759H99.102V207.985H103.501V209.359H96.3464C96.7873 210.181 97.3384 210.943 98.0398 211.604C99.102 210.973 100.415 210.12 101.196 209.489L102.379 210.291V210.281ZM93.4004 207.975H97.6089V205.749H93.4004V207.975Z" fill="white"/>
<path d="M3.42698 241.05H0V239.696H3.59732L4.1284 235.355H0.571162V234.002H4.24865L4.79977 229.811H6.05232L5.52124 234.002H9.51938L10.0705 229.811H11.303L10.7719 234.002H14.2189V235.355H10.6417L10.1106 239.696H13.6678V241.05H9.94024L9.38911 245.732H8.11652L8.66765 241.05H4.68955L4.11838 245.732H2.84579L3.41696 241.05H3.42698ZM8.83799 239.696L9.36907 235.355H5.37093L4.83985 239.696H8.83799Z" fill="white"/>
<path d="M30.7023 230.523C32.7565 232.328 35.1915 234.904 36.2937 236.659L34.961 237.611C34.6404 237.06 34.1995 236.448 33.6684 235.787C21.5838 236.468 20.3613 236.508 19.5296 236.799C19.4695 236.458 19.1889 235.676 19.0186 235.255C19.4795 235.175 20.0306 234.704 20.732 234.002C21.4936 233.32 23.9486 230.653 25.602 228.027L27.1451 228.728C25.4717 231.014 23.5879 233.2 21.7241 234.954L32.516 234.423C31.5441 233.32 30.4618 232.217 29.4498 231.315L30.7023 230.513V230.523ZM20.6519 238.594H34.1093V247.406H32.4559V246.304H22.2351V247.447H20.6519V238.594ZM22.2351 240.098V244.78H32.4559V240.098H22.2351Z" fill="white"/>
<path d="M51.6753 241.09C53.5992 243.085 56.6053 244.9 59.3108 245.812C58.9301 246.133 58.4391 246.725 58.2086 247.166C55.453 246.063 52.3667 243.967 50.3326 241.682V247.436H48.7493V241.742C46.7352 244.008 43.7391 246.023 41.0436 247.116C40.7931 246.715 40.3222 246.123 39.9414 245.802C42.6068 244.87 45.5528 243.045 47.4367 241.08H42.3162V233.37H48.7493V231.596H40.4725V230.112H48.7493V228.117H50.3326V230.112H58.8198V231.596H50.3326V233.37H57.1264V241.08H51.6653L51.6753 241.09ZM43.8393 236.649H48.7493V234.633H43.8393V236.649ZM43.8393 239.867H48.7493V237.812H43.8393V239.867ZM50.3426 234.633V236.649H55.5432V234.633H50.3426ZM55.5432 237.812H50.3426V239.867H55.5432V237.812Z" fill="white"/>
<path d="M81.5058 245.471V246.805H62.1865V245.471H64.6215V241.15H79.141V245.471H81.5159H81.5058ZM66.9061 230.804H62.437V229.49H66.9061V228.137H68.4292V229.49H71.1347V230.804H68.4292V231.886H66.9061V230.804ZM63.4792 232.428H72.0065V233.49H68.79V234.674H71.4754V237.832H68.79V239.205H72.1769V240.238H63.4792V232.428ZM64.8119 233.49V234.674H67.4372V233.49H64.8119ZM70.1828 235.626H64.8119V236.879H70.1828V235.626ZM67.4372 237.832H64.8119V239.205H67.4372V237.832ZM66.0845 245.471H69.0004V242.363H66.0845V245.471ZM70.3531 242.363V245.471H73.2991V242.363H70.3531ZM80.6641 235.456H74.7421C74.1509 236.749 73.4494 237.932 72.6679 238.804C72.4775 238.533 71.9664 237.912 71.6959 237.661C72.8783 236.288 73.8503 234.273 74.3813 232.197L75.8243 232.538C75.674 233.069 75.4836 233.601 75.2932 234.102H80.6641V235.456ZM75.4134 230.784H72.3472V229.49H75.4134V228.137H76.9566V229.49H81.0649V230.784H76.9566V231.886H75.4134V230.784ZM73.8703 239.797V238.443H80.2232V239.797H73.8703ZM74.6519 242.363V245.471H77.5979V242.363H74.6519Z" fill="white"/>
<path d="M3.42698 272.812H0V271.458H3.59732L4.1284 267.117H0.571162V265.764H4.24865L4.79977 261.573H6.05232L5.52124 265.764H9.51938L10.0705 261.573H11.303L10.7719 265.764H14.2189V267.117H10.6417L10.1106 271.458H13.6678V272.812H9.94024L9.38911 277.494H8.11652L8.66765 272.812H4.68955L4.11838 277.494H2.84579L3.41696 272.812H3.42698ZM8.83799 271.448L9.36907 267.107H5.37093L4.83985 271.448H8.83799Z" fill="white"/>
<path d="M17.4551 269.333C18.1765 268.059 18.5172 265.773 18.5573 263.929L19.6195 264.079C19.6195 265.984 19.2788 268.38 18.4972 269.814L17.4651 269.322L17.4551 269.333ZM20.4412 259.868H21.9242V279.178H20.4412V259.868ZM23.3972 267.768C23.2268 266.706 22.6757 264.991 22.0845 263.678L23.0565 263.317C23.7078 264.59 24.289 266.285 24.4493 267.297L23.3872 267.758L23.3972 267.768ZM36.073 272.471C35.2313 274.205 33.8885 275.538 32.2452 276.561C33.8284 277.193 35.612 277.664 37.4458 277.935C37.1251 278.255 36.6842 278.867 36.4738 279.268C34.3996 278.907 32.4155 278.276 30.6519 277.403C28.6378 278.336 26.3332 278.907 23.9884 279.268C23.8581 278.887 23.5475 278.255 23.287 277.935C25.3411 277.704 27.3452 277.253 29.1288 276.561C27.9064 275.779 26.8642 274.867 26.0626 273.804L27.0947 273.363H24.2389V272.049H34.8204L35.121 271.989L36.073 272.481V272.471ZM36.4738 271.027H24.5595V267.127H36.4738V271.027ZM26.8442 266.475H25.4714V260.61H35.582V266.475H34.119V261.713H26.8442V266.475ZM28.0767 268.19H25.8722V269.994H28.0767V268.19ZM27.5055 273.363C28.2871 274.315 29.3894 275.168 30.702 275.859C31.9746 275.178 33.0468 274.375 33.8384 273.363H27.5156H27.5055ZM33.4977 263.788H27.5556V262.816H33.4977V263.788ZM27.5456 264.871H33.4877V265.844H27.5456V264.871ZM31.5638 268.19H29.2792V269.994H31.5638V268.19ZM35.101 268.19H32.7763V269.994H35.101V268.19Z" fill="white"/>
<path d="M46.2543 272.621C46.2143 272.3 46.1241 271.899 46.0239 271.478C41.5347 272.16 40.9034 272.3 40.4826 272.511C40.4024 272.19 40.1619 271.428 39.9715 271.047C40.4325 270.937 40.9235 270.416 41.5347 269.654C41.8554 269.273 42.5067 268.38 43.2683 267.257C41.0938 267.508 40.6429 267.598 40.3523 267.749C40.2722 267.428 40.0317 266.756 39.8613 266.355C40.2221 266.275 40.5828 265.844 41.0237 265.192C41.4646 264.581 42.9476 262.144 43.8194 259.878L45.2122 260.45C44.2803 262.445 43.138 264.47 41.9957 266.084L44.1801 265.894C44.7112 265.002 45.2623 264.049 45.7032 263.077L47.056 263.879C45.7032 266.295 44.0499 268.751 42.3564 270.696L45.6832 270.275C45.4527 269.553 45.2222 268.831 44.9617 268.2L46.1642 267.859C46.7353 269.253 47.3265 271.097 47.537 272.2L46.2443 272.621H46.2543ZM42.1961 273.634C41.9857 275.479 41.5848 277.504 41.1139 278.847C40.8433 278.697 40.182 278.486 39.8613 278.356C40.3523 277.043 40.663 275.158 40.8734 273.423L42.1861 273.634H42.1961ZM44.2402 273.383C44.5108 274.777 44.7713 276.601 44.8314 277.825L43.5589 278.035C43.5188 276.852 43.2883 275.007 43.0278 273.564L44.2302 273.373L44.2402 273.383ZM46.2143 272.832C46.6351 273.955 47.1261 275.418 47.2965 276.371L46.1341 276.772C45.9437 275.799 45.5028 274.316 45.102 273.193L46.2243 272.832H46.2143ZM59.1406 277.273V278.717H47.056V277.273H52.457V273.253H48.2484V271.839H58.2989V273.253H54.0001V277.273H59.1406ZM50.0821 271.117C49.6412 270.015 48.6392 268.39 47.567 266.947C48.3887 265.653 49.3005 264.049 49.7915 263.047L51.1643 263.408C50.5932 264.49 49.7915 265.844 49.0701 266.896C50.002 268.12 50.9339 269.603 51.3948 270.556L50.0821 271.107V271.117ZM58.9301 262.365H47.7774V260.921H58.9301V262.365ZM54.8017 263.428C54.2105 264.49 53.3788 265.844 52.6874 266.876C53.6193 268.08 54.5913 269.543 55.0823 270.476L53.7696 271.067C53.3287 269.964 52.2866 268.34 51.1443 266.917C52.0161 265.643 52.948 264.059 53.4289 263.067L54.8017 263.428ZM57.5373 271.117C57.0062 270.015 55.8839 268.36 54.7015 266.947C55.5934 265.653 56.5653 264.049 57.0463 263.047L58.4391 263.428C57.8279 264.51 56.9762 265.844 56.2647 266.896C57.2567 268.08 58.2989 269.543 58.7999 270.496L57.5273 271.107L57.5373 271.117Z" fill="white"/>
<path d="M62.848 265.964C63.9703 266.535 65.4132 267.468 66.1447 268.17L65.323 269.252C64.6216 268.551 63.1887 267.578 62.0664 266.946L62.848 265.974V265.964ZM62.2768 278.075C63.0985 276.441 64.2408 273.734 65.0725 271.408L66.1347 272.19C65.3531 274.375 64.311 276.952 63.4693 278.857L62.2869 278.075H62.2768ZM65.6838 263.788C65.0725 262.966 63.7398 261.793 62.6376 261.011L63.4793 260.099C64.5815 260.841 65.9142 261.964 66.5656 262.746L65.6737 263.778L65.6838 263.788ZM77.6381 270.225H79.1211V279.248H77.6381V275.899H69.9825C69.6218 277.123 68.9204 278.336 67.5876 279.268C67.3371 278.997 66.786 278.586 66.4052 278.426C68.5897 276.902 68.9003 274.696 68.9003 273.072V270.255H70.3633V271.628H77.6381V270.235V270.225ZM72.0467 264.911C72.0467 264.911 72.0267 265.232 72.0267 265.422C71.9465 268.109 71.8764 269.152 71.5657 269.513C71.3754 269.764 71.1248 269.894 70.724 269.914C70.4535 269.954 69.9825 269.954 69.5817 269.934C69.5617 269.593 69.4514 269.172 69.3112 268.871C69.7721 268.911 70.0927 268.911 70.2631 268.911C70.4535 268.931 70.5637 268.891 70.6439 268.761C70.7942 268.551 70.8343 267.849 70.9144 265.984H69.712C69.4114 267.949 68.6699 269.393 67.277 270.305C67.1668 270.074 66.8161 269.623 66.5756 269.413C67.7179 268.671 68.3292 267.528 68.5897 265.984H67.3872V264.901H72.0668L72.0467 264.911ZM81.1452 263.197H67.2369V261.903H73.2492C73.139 261.292 72.9786 260.51 72.7582 259.908L74.2011 259.718C74.4516 260.4 74.7122 261.302 74.8124 261.903H81.1352V263.197H81.1452ZM77.6381 274.626V272.892H70.3633V273.082C70.3633 273.573 70.3433 274.095 70.2531 274.626H77.6381ZM72.6379 265.422C72.4876 264.911 72.0868 264.199 71.706 263.668L72.5978 263.287C73.0187 263.798 73.4195 264.47 73.5899 264.941L72.6379 265.432V265.422ZM76.5359 263.638C75.9246 264.36 75.143 265.102 74.5218 265.673V270.145H73.3193V265.673C74.0207 264.991 74.9226 263.939 75.3935 263.217L76.5359 263.638ZM80.4338 264.911C80.033 265.122 79.5921 265.312 79.081 265.503C79.5019 267.027 80.2033 268.49 81.2154 269.182C80.9649 269.373 80.6442 269.754 80.4739 270.024C79.3716 269.132 78.6301 267.508 78.2293 265.773C77.8085 265.904 77.3876 266.004 77.0068 266.114V268.781L78.7003 268.29C78.7203 268.561 78.8105 268.972 78.8706 269.182C76.7162 269.904 76.2854 270.094 76.0549 270.285V270.265C75.9447 270.014 75.6941 269.483 75.5238 269.232C75.7342 269.082 75.9847 268.771 75.9847 267.959V265.392C77.2373 265.072 78.6502 264.59 79.4518 264.099L80.4238 264.901L80.4338 264.911Z" fill="white"/>
<path d="M3.42698 304.563H0V303.21H3.59732L4.1284 298.868H0.571162V297.515H4.24865L4.79977 293.324H6.05232L5.52124 297.515H9.51938L10.0705 293.324H11.303L10.7719 297.515H14.2189V298.868H10.6417L10.1106 303.21H13.6678V304.563H9.94024L9.38911 309.245H8.11652L8.66765 304.563H4.68955L4.11838 309.245H2.84579L3.41696 304.563H3.42698ZM8.83799 303.21L9.36907 298.868H5.37093L4.83985 303.21H8.83799Z" fill="white"/>
<path d="M28.2275 295.229V297.475H35.5323V309.145C35.5323 310.078 35.3019 310.499 34.6205 310.729C33.9391 310.98 32.7367 310.98 31.0432 310.98C30.933 310.559 30.6825 309.967 30.472 309.566C31.8048 309.626 33.0974 309.626 33.4581 309.606C33.8389 309.586 33.9491 309.476 33.9491 309.145V298.939H20.8525V310.97H19.3093V297.485H26.524V295.239H18.167V293.756H26.524V291.66H28.2375V293.756H36.6546V295.239H28.2375L28.2275 295.229ZM28.0772 306.919V310.559H26.5741V306.919H22.0248V305.606H26.5741V303.471H22.4657V302.177H28.498C29.0091 301.335 29.6203 300.082 29.961 299.21L31.3138 299.591C30.8528 300.483 30.3618 301.435 29.8708 302.177H32.436V303.471H28.0772V305.606H32.7968V306.919H28.0772ZM24.7805 299.23C25.3316 299.992 25.9027 301.004 26.1132 301.706L24.8205 302.167C24.6101 301.445 24.059 300.393 23.5279 299.601L24.7805 299.22V299.23Z" fill="white"/>
<path d="M51.1637 306.087H52.6267V310.218H51.1637V309.566H41.1133V306.178H42.5763V308.313H46.1535V305.476H47.6165V308.313H51.1738V306.087H51.1637ZM44.43 302.558V303.932H58.2081C58.2081 303.932 58.188 304.373 58.148 304.563C57.8273 308.333 57.5367 309.857 57.0056 310.408C56.6449 310.789 56.2641 310.92 55.733 310.98C55.242 311.02 54.3202 311 53.3382 310.94C53.3181 310.539 53.1678 309.947 52.9374 309.566C53.8492 309.677 54.711 309.697 55.0316 309.697C55.3923 309.697 55.5627 309.657 55.733 309.466C56.0737 309.125 56.3443 307.982 56.6048 305.165H42.8969V293.355H47.7869C48.0574 292.763 48.2979 292.081 48.4382 291.6L50.2419 291.811C49.9713 292.362 49.7108 292.873 49.4202 293.355H55.8533V299.811H44.4501V301.335H58.9897V302.558H44.4501H44.43ZM44.43 294.508V296.072H54.2901V294.508H44.43ZM54.3001 298.638V297.134H44.4401V298.638H54.3001Z" fill="white"/>
<path d="M78.0186 296.904C76.8162 300.253 75.1829 302.919 73.0686 305.095C75.3933 307.06 78.2491 308.564 81.616 309.396C81.2352 309.757 80.7943 310.409 80.5337 310.86C77.0867 309.887 74.2109 308.343 71.8561 306.228C69.4812 308.303 66.5653 309.827 63.0482 310.95C62.8578 310.569 62.3968 309.847 62.0762 309.486C65.5633 308.494 68.399 307.05 70.7138 305.105C68.5293 302.859 66.8659 300.112 65.6334 296.914H62.3768V295.37H81.3354V296.914H78.0086L78.0186 296.904ZM67.2667 296.904C68.369 299.591 69.8921 302.007 71.8761 303.992C73.76 302.087 75.1728 299.761 76.235 296.904H67.2667ZM71.7559 295.31C71.5054 294.438 70.824 293.024 70.1927 291.981L71.826 291.52C72.4573 292.513 73.1788 293.866 73.4794 294.758L71.7659 295.31H71.7559Z" fill="white"/>
<path d="M91.5364 292.202C90.9252 293.575 90.2237 294.929 89.4221 296.202V310.98H87.899V298.448C86.9871 299.651 86.0152 300.754 85.0432 301.666C84.8728 301.285 84.4319 300.483 84.1514 300.102C86.4561 298.107 88.7207 294.959 90.0734 291.721L91.5364 292.212V292.202ZM100.465 308.825C101.647 308.825 101.817 307.892 101.988 304.273C102.388 304.594 103 304.885 103.451 304.995C103.2 308.915 102.769 310.268 100.555 310.268H96.5366C94.4423 310.268 93.781 309.657 93.781 307.411V291.971H95.3041V297.726H102.819V299.25H95.3041V307.441C95.3041 308.564 95.5345 308.815 96.6368 308.815H100.465V308.825Z" fill="white"/>
</g>
<defs>
<clipPath id="clip0_127_201">
<rect width="560" height="311" fill="white"/>
</clipPath>
</defs>
</svg>
