<svg width="560" height="311" viewBox="0 0 560 311" fill="none" xmlns="http://www.w3.org/2000/svg">
<g clip-path="url(#clip0_127_127)">
<path d="M109.906 59.0342H106.14V64.508H76.1172V68.2681H106.14V72.5725H81.6897C78.6208 72.5725 76.1172 75.0725 76.1172 78.137V96.8769H104.979L76.1172 113.994H82.8204L106.14 100.627V113.994H109.906V100.627L133.226 113.994H139.929L111.067 96.8769H139.929V78.137C139.929 75.0725 137.425 72.5725 134.356 72.5725H109.906V68.2681H139.929V64.508H109.906V59.0342ZM81.6897 76.3326H106.14V82.8447H79.8827V78.137C79.8827 77.139 80.6903 76.3326 81.6897 76.3326ZM79.8726 86.6047H106.13V93.1168H79.8726V86.6047ZM109.906 93.1168V86.6047H136.163V93.1168H109.906ZM134.356 76.3326C135.356 76.3326 136.163 77.139 136.163 78.137V82.8447H109.906V76.3326H134.356Z" fill="white"/>
<path d="M353.947 74.0342H315.182C312.062 74.0342 309.528 76.5644 309.528 79.6793V92.1189H359.59V79.6793C359.59 76.5644 357.056 74.0342 353.937 74.0342H353.947ZM336.442 77.7943H346.265L342.731 88.3487H336.442V77.7943ZM332.677 88.3487H326.397L322.864 77.7943H332.687V88.3487H332.677ZM313.294 79.6693C313.294 78.631 314.142 77.7842 315.182 77.7842H318.887L322.42 88.3386H313.294V79.6592V79.6693ZM355.825 88.3487H346.699L350.232 77.7943H353.937C354.977 77.7943 355.825 78.641 355.825 79.6793V88.3588V88.3487Z" fill="white"/>
<path d="M354.462 94.3267H314.657C311.83 94.3267 309.528 96.8267 309.528 99.9013V114.004H359.59V99.9013C359.59 96.8267 357.289 94.3267 354.462 94.3267ZM314.657 98.4194H354.462C355.209 98.4194 355.825 99.0847 355.825 99.9013V102.119H313.294V99.9013C313.294 99.0847 313.9 98.4194 314.657 98.4194ZM313.294 109.911V106.212H355.825V109.911H313.294Z" fill="white"/>
<path d="M347.981 67.2295H321.148V70.9896H347.981V67.2295Z" fill="white"/>
<path d="M342.428 59.387C337.835 56.9778 332.353 56.9778 327.74 59.387L302.502 72.8951V77.1592L329.496 62.7136C332.989 60.879 337.169 60.879 340.672 62.7136L368.272 77.1693V72.9253L342.428 59.387Z" fill="white"/>
<path d="M160.998 59.0342H157.233V68.9535H152.074V72.7136H157.233V113.994H160.998V72.7136H166.167V68.9535H160.998V59.0342Z" fill="white"/>
<path d="M190.567 70.8388H174.475C171.436 70.8388 168.973 73.3085 168.973 76.3327V92.9154H172.739V89.3166H190.567V92.9154H194.332V89.3166H212.433V92.9154H216.199V76.3327C216.199 73.2984 213.725 70.8388 210.697 70.8388H194.332V66.998H210.949C213.846 66.998 216.199 64.6492 216.199 61.7561V59.0142H212.433V61.7561C212.433 62.5726 211.767 63.238 210.949 63.238H194.332V59.0343H190.567V63.238H168.267V66.998H190.567V70.8388ZM174.485 74.5988H190.577V78.1976H172.749V76.3327C172.749 75.3751 173.526 74.5988 174.485 74.5988ZM172.739 85.5565V81.9577H190.567V85.5565H172.739ZM194.332 85.5565V81.9577H212.433V85.5565H194.332ZM210.697 74.5988C211.656 74.5988 212.433 75.3751 212.433 76.3327V78.1976H194.332V74.5988H210.697Z" fill="white"/>
<path d="M211.646 94.2461H207.88V97.3509H168.267V101.111H207.88V106.544C207.88 108.581 206.224 110.234 204.185 110.234H192.455V113.994H204.185C208.304 113.994 211.646 110.647 211.646 106.544V101.111H216.501V97.3509H211.646V94.2461Z" fill="white"/>
<path d="M177.302 103.066L181.037 112.038H185.105L181.38 103.066H177.302Z" fill="white"/>
<path d="M53.2621 86.0098H10.2465C5.209 86.0098 1.11035 90.1025 1.11035 95.1327V114.004H62.3982V95.1327C62.3982 90.1025 58.2996 86.0098 53.2621 86.0098ZM58.6327 110.234H4.87586V95.1227C4.87586 92.169 7.2886 89.7598 10.2465 89.7598H53.2621C56.22 89.7598 58.6327 92.169 58.6327 95.1227V110.234Z" fill="white"/>
<path d="M57.6941 69.8003L54.615 71.9676L59.4304 78.762H4.02808L15.9101 59.0342H11.5187L0.484667 77.3507C-0.141235 78.3991 -0.161425 79.6491 0.434191 80.7076C1.07019 81.8265 2.3018 82.5221 3.64446 82.5221H59.8645C61.2678 82.5221 62.5196 81.7862 63.1354 80.5866C63.7108 79.4777 63.6199 78.1572 62.8931 77.1289L57.6941 69.8003Z" fill="white"/>
<path d="M290.277 104.407H230.816V88.7719C230.816 85.7175 233.31 83.2275 236.369 83.2275H284.735C287.794 83.2275 290.287 85.7175 290.287 88.7719V104.407H290.277ZM234.542 100.687H286.552V88.7719C286.552 87.7638 285.734 86.9473 284.725 86.9473H236.359C235.349 86.9473 234.531 87.7638 234.531 88.7719V100.687H234.542Z" fill="white"/>
<path d="M287.945 89.0444H232.997V92.7642H287.945V89.0444Z" fill="white"/>
<path d="M287.945 94.8711H232.997V98.5908H287.945V94.8711Z" fill="white"/>
<path d="M290.277 114.004H274.902C271.994 114.004 269.622 111.534 269.622 108.49V103.429H273.347V108.49C273.347 109.387 274.044 110.113 274.902 110.113H290.277V114.004Z" fill="white"/>
<path d="M247.393 101.978L242.406 114.004H238.378L243.365 101.978H247.393Z" fill="white"/>
<path d="M258.084 80.7984H232.967C230.746 80.7984 228.949 78.994 228.949 76.7863V63.0263C228.949 60.8085 230.756 59.0142 232.967 59.0142H258.084V62.7339H232.967C232.806 62.7339 232.674 62.865 232.674 63.0263V76.7863C232.674 76.9476 232.806 77.0787 232.967 77.0787H258.084V80.7984Z" fill="white"/>
<path d="M258.083 74.9111H232.623V71.1913H254.358V68.893C254.358 68.7317 254.227 68.6006 254.065 68.6006H232.633V64.8809H254.065C256.276 64.8809 258.073 66.6752 258.073 68.8829V74.8909L258.083 74.9111Z" fill="white"/>
<path d="M247.151 62.5723H243.426V65.042H247.151V62.5723Z" fill="white"/>
<path d="M247.151 74.6187H243.426V77.7941H247.151V74.6187Z" fill="white"/>
<path d="M292.125 80.7984H261.476V72.7541C261.476 70.5061 263.313 68.6714 265.564 68.6714H288.036C290.287 68.6714 292.125 70.5061 292.125 72.7541V80.7984ZM265.201 77.0786H288.399V72.7541C288.399 72.5524 288.238 72.3911 288.036 72.3911H265.564C265.362 72.3911 265.201 72.5524 265.201 72.7541V77.0786Z" fill="white"/>
<path d="M274.175 70.8184H270.45V78.9434H274.175V70.8184Z" fill="white"/>
<path d="M283.15 70.8184H279.425V78.9434H283.15V70.8184Z" fill="white"/>
<path d="M265.574 62.6027C265.322 62.6027 265.16 62.4616 265.1 62.3708C265.029 62.2902 264.918 62.1087 264.979 61.8567L265.594 59.0039H261.789L261.344 61.0704C261.062 62.3608 261.385 63.6813 262.213 64.7096C263.04 65.7378 264.272 66.3225 265.594 66.3225L292.175 66.4132V62.6934L265.594 62.6027H265.574Z" fill="white"/>
<path d="M0 37.8043V34.145C1.00952 31.9676 2.34208 30.0119 3.99769 28.268C5.6533 26.524 7.46034 24.7901 9.40871 23.0664C10.8725 21.7559 12.0839 20.6672 13.0127 19.8002C13.9515 18.9434 14.6885 18.1672 15.2134 17.4918C15.7384 16.8164 16.1119 16.1208 16.3441 15.4151C16.5662 14.6994 16.6873 13.8224 16.6873 12.774C16.6873 9.28612 14.4664 7.54217 10.0346 7.54217C8.53043 7.54217 7.03634 7.70346 5.55235 8.01596C4.06836 8.33854 2.65503 8.76192 1.30228 9.28612V2.57241C2.7257 2.08854 4.3914 1.69539 6.2893 1.41313C8.18719 1.13088 10.0043 0.989746 11.7306 0.989746C15.9403 0.989746 19.1001 2.02805 21.2302 4.11475C23.3502 6.19136 24.4203 9.02402 24.4203 12.5825C24.4203 15.0623 23.8044 17.1692 22.5829 18.9131C21.3614 20.6571 19.7765 22.3708 17.818 24.0643C16.2734 25.4151 14.8096 26.7156 13.4266 27.9756C12.0335 29.2357 10.8725 30.5563 9.93366 31.9474H24.7534V37.8043H0Z" fill="white"/>
<path d="M48.1338 39.2762C44.1462 39.2762 40.9562 38.5202 38.5535 37.0282C36.1509 35.5262 34.4145 33.3387 33.3444 30.4657C32.2743 27.5927 31.7393 24.1552 31.7393 20.1431C31.7393 16.131 32.2743 12.6431 33.3444 9.78024C34.4145 6.9375 36.1509 4.76008 38.5535 3.25806C40.9562 1.75605 44.1462 1 48.1338 1C52.1214 1 55.3115 1.75605 57.7142 3.25806C60.1168 4.76008 61.8532 6.9375 62.9233 9.78024C63.9934 12.6331 64.5284 16.0806 64.5284 20.1431C64.5284 24.2056 63.9934 27.6028 62.9233 30.4657C61.8532 33.3387 60.1168 35.5262 57.7142 37.0282C55.3115 38.5302 52.1113 39.2762 48.1338 39.2762ZM48.1338 32.744C51.4047 32.744 53.666 31.6552 54.9279 29.4778C56.1898 27.3004 56.8157 24.1855 56.8157 20.1431C56.8157 16.1008 56.1898 12.9758 54.9279 10.7984C53.666 8.62097 51.4047 7.53226 48.1338 7.53226C44.863 7.53226 42.6017 8.62097 41.3398 10.7984C40.0779 12.9758 39.452 16.0907 39.452 20.1431C39.452 24.1956 40.0779 27.3105 41.3398 29.4778C42.6017 31.6552 44.863 32.744 48.1338 32.744Z" fill="white"/>
<path d="M71.5244 37.8043V34.145C72.5339 31.9676 73.8665 30.0119 75.5221 28.268C77.1777 26.524 78.9848 24.7901 80.9331 23.0664C82.3969 21.7559 83.6083 20.6672 84.5371 19.8002C85.476 18.9434 86.2129 18.1672 86.7379 17.4918C87.2628 16.8164 87.6363 16.1208 87.8685 15.4151C88.0906 14.6994 88.2118 13.8224 88.2118 12.774C88.2118 9.28612 85.9908 7.54217 81.559 7.54217C80.0548 7.54217 78.5608 7.70346 77.0768 8.01596C75.5928 8.33854 74.1794 8.76192 72.8267 9.28612V2.57241C74.2501 2.08854 75.9158 1.69539 77.8137 1.41313C79.7116 1.13088 81.5287 0.989746 83.255 0.989746C87.4647 0.989746 90.6245 2.02805 92.7546 4.11475C94.8746 6.19136 95.9447 9.02402 95.9447 12.5825C95.9447 15.0623 95.3289 17.1692 94.1073 18.9131C92.8858 20.6571 91.3009 22.3708 89.3424 24.0643C87.7979 25.4151 86.3341 26.7156 84.951 27.9756C83.5579 29.2357 82.3969 30.5563 81.4581 31.9474H96.2778V37.8043H71.5345H71.5244Z" fill="white"/>
<path d="M117.508 38.3688C112.774 38.3688 109.21 37.2095 106.828 34.8809C104.435 32.5522 103.254 28.9736 103.254 24.1349V16.3627C103.254 13.3587 103.9 10.7075 105.202 8.39902C106.494 6.09055 108.352 4.27604 110.755 2.96555C113.157 1.65507 115.994 0.989746 119.265 0.989746C121.143 0.989746 122.778 1.10063 124.171 1.33249C125.564 1.55426 126.897 1.897 128.169 2.34055V8.87281C125.807 7.93531 123 7.46152 119.77 7.46152C116.539 7.46152 114.359 8.13692 112.774 9.48773C111.199 10.8385 110.411 12.6228 110.411 14.8305V16.5744C111.613 15.7176 113.026 15.0623 114.641 14.6289C116.257 14.1954 117.74 13.9837 119.093 13.9837C123.414 13.9837 126.594 15.0321 128.623 17.1389C130.652 19.2357 131.662 22.1994 131.662 26.0301C131.662 28.4293 131.167 30.5563 130.168 32.4212C129.168 34.276 127.644 35.7377 125.574 36.7861C123.505 37.8345 120.82 38.3587 117.518 38.3587L117.508 38.3688ZM117.569 32.7438C120.012 32.7438 121.829 32.1692 123.04 30.9998C124.242 29.8406 124.837 28.2781 124.837 26.3325C124.837 24.2256 124.312 22.6127 123.263 21.4938C122.213 20.3647 120.355 19.8002 117.68 19.8002C116.438 19.8002 115.186 20.022 113.904 20.4756C112.622 20.9293 111.461 21.5139 110.411 22.2196V25.6571C110.411 30.3849 112.794 32.7438 117.569 32.7438Z" fill="white"/>
<path d="M163.896 37.8044V7.42131H152.73V1.56445H182.602V7.42131H171.497V37.8145H163.886L163.896 37.8044Z" fill="white"/>
<path d="M183.682 37.8044L197.543 1.56445H205.881L219.691 37.8044H211.797L208.355 29.0846H194.999L191.617 37.8044H183.672H183.682ZM196.129 23.2378H207.234L201.651 8.66123L196.129 23.2378Z" fill="white"/>
<path d="M227.808 37.8044V1.56445H235.419V37.8044H227.808Z" fill="white"/>
<path d="M253.571 37.8044V7.42131H242.405V1.56445H272.277V7.42131H261.172V37.8145H253.56L253.571 37.8044Z" fill="white"/>
<path d="M295.214 38.3689C290.216 38.3689 286.259 37.1592 283.352 34.7399C280.444 32.3205 278.98 28.8024 278.98 24.1854V1.56445H286.592V23.6209C286.592 26.4032 287.339 28.4697 288.854 29.8407C290.358 31.2116 292.478 31.8971 295.224 31.8971C297.97 31.8971 300.079 31.2116 301.563 29.8407C303.047 28.4697 303.794 26.4032 303.794 23.6209V1.56445H311.406V24.1854C311.406 28.8024 309.963 32.3205 307.065 34.7399C304.168 37.1592 300.221 38.3689 295.224 38.3689H295.214Z" fill="white"/>
<path d="M320.351 37.8044V1.56445H326.943L344.135 25.7076V1.56445H351.747V37.8044H345.154L327.962 13.6612V37.8044H320.351Z" fill="white"/>
<path d="M378.459 38.3688C372.371 38.3688 367.748 36.776 364.598 33.5805C361.438 30.395 359.863 25.9595 359.863 20.2942C359.863 14.2861 361.458 9.56838 364.648 6.14096C367.838 2.71354 372.593 0.989746 378.913 0.989746C381.093 0.989746 383.062 1.11071 384.829 1.36273C386.595 1.60467 388.271 1.98773 389.846 2.51192V9.04418C388.271 8.47967 386.605 8.07644 384.859 7.8345C383.112 7.59257 381.316 7.4716 379.478 7.4716C375.157 7.4716 372.099 8.53007 370.292 10.647C368.485 12.7639 367.586 15.9897 367.586 20.3043C367.586 28.0664 371.251 31.9575 378.57 31.9575C379.842 31.9575 381.093 31.8567 382.315 31.645C383.536 31.4333 384.617 31.1611 385.556 30.8285V22.3809H377.096V17.5422H391.976V35.274C390.734 36.0603 389.008 36.776 386.797 37.4111C384.576 38.0462 381.8 38.3688 378.459 38.3688Z" fill="white"/>
<path d="M415.326 37.8044V1.56445H441.362V7.47171H422.928V16.756H439.272V22.6128H422.928V31.9576H441.362V37.8145H415.326V37.8044Z" fill="white"/>
<path d="M446.944 37.8044L460.078 19.629L447.277 1.56445H456.242L464.641 13.6612L473.04 1.56445H482.005L469.204 19.629L482.338 37.8044H473.262L464.641 25.7076L456.02 37.8044H446.944Z" fill="white"/>
<path d="M489.324 37.8044V1.56445H506.345C509.202 1.56445 511.544 2.10881 513.361 3.19752C515.178 4.28623 516.541 5.76808 517.439 7.64308C518.348 9.51808 518.792 11.6552 518.792 14.0645C518.792 16.4737 518.277 18.6612 517.248 20.5362C516.218 22.4112 514.744 23.8729 512.856 24.9011C510.958 25.9294 508.717 26.4435 506.123 26.4435H496.936V37.8145H489.324V37.8044ZM496.936 20.4153H504.548C506.728 20.4153 508.374 19.8407 509.474 18.7015C510.585 17.5624 511.14 16.01 511.14 14.0645C511.14 11.9576 510.615 10.3548 509.565 9.24591C508.515 8.13703 506.93 7.5826 504.83 7.5826H496.936V20.4153Z" fill="white"/>
<path d="M542.364 38.369C530.603 38.369 524.728 32.1996 524.728 19.8508C524.728 13.2077 526.212 8.40927 529.179 5.44556C532.147 2.48185 536.539 1 542.364 1C548.189 1 552.58 2.48185 555.548 5.44556C558.516 8.40927 560 13.2177 560 19.8508C560 32.1996 554.125 38.369 542.364 38.369ZM542.364 31.8972C545.786 31.8972 548.29 30.9093 549.895 28.9436C551.49 26.9778 552.287 23.9436 552.287 19.8609C552.287 15.3246 551.49 12.119 549.895 10.2641C548.29 8.40927 545.786 7.48186 542.364 7.48186C538.942 7.48186 536.438 8.40927 534.833 10.2641C533.238 12.119 532.44 15.3145 532.44 19.8609C532.44 23.9536 533.238 26.9778 534.833 28.9436C536.428 30.9194 538.942 31.8972 542.364 31.8972Z" fill="white"/>
<path d="M0 152.462H26.1768V154.962H0V152.462Z" fill="white"/>
<path d="M37.1605 159.841L39.3713 157.24C41.0976 158.964 43.4397 160.063 45.7414 160.063C48.6387 160.063 50.264 158.702 50.264 156.686C50.264 154.508 48.6387 153.833 46.4279 152.855L43.1066 151.423C40.7948 150.446 38.2306 148.631 38.2306 145.153C38.2306 141.383 41.5519 138.561 46.0947 138.561C48.8911 138.561 51.5259 139.73 53.3431 141.585L51.3644 143.984C49.8703 142.653 48.2147 141.837 46.0947 141.837C43.6517 141.837 42.0667 143.006 42.0667 144.891C42.0667 146.968 43.9848 147.744 45.9332 148.53L49.2141 149.932C52.0408 151.131 54.0901 152.885 54.0901 156.393C54.0901 160.224 50.9 163.339 45.6707 163.339C42.3898 163.339 39.331 162.038 37.1504 159.831L37.1605 159.841Z" fill="white"/>
<path d="M58.6224 158.732V137.038H62.3576V158.923C62.3576 159.931 62.7816 160.284 63.2359 160.284C63.3974 160.284 63.5287 160.284 63.8517 160.224L64.3363 163.046C63.882 163.208 63.2662 163.339 62.3172 163.339C59.6218 163.339 58.6123 161.615 58.6123 158.732H58.6224Z" fill="white"/>
<path d="M67.3652 153.994C67.3652 148.056 71.3629 144.609 75.7846 144.609C80.2063 144.609 84.204 148.046 84.204 153.994C84.204 159.942 80.2063 163.349 75.7846 163.349C71.3629 163.349 67.3652 159.942 67.3652 153.994ZM80.3678 153.994C80.3678 150.224 78.6113 147.694 75.7846 147.694C72.958 147.694 71.2317 150.224 71.2317 153.994C71.2317 157.764 72.9882 160.294 75.7846 160.294C78.581 160.294 80.3678 157.794 80.3678 153.994Z" fill="white"/>
<path d="M86.7783 145.062H90.5539L92.9263 154.71C93.2796 156.464 93.5724 158.087 93.9055 159.81H94.0368C94.4305 158.087 94.7838 156.433 95.2078 154.71L97.7417 145.062H101.184L103.748 154.71C104.172 156.464 104.526 158.087 104.95 159.81H105.081C105.434 158.087 105.727 156.464 106.121 154.71L108.432 145.062H111.946L107.332 162.925H102.84L100.568 154.095C100.144 152.411 99.8213 150.778 99.4276 148.933H99.2661C98.9127 150.788 98.5796 152.442 98.1253 154.125L95.9447 162.925H91.624L86.7783 145.062Z" fill="white"/>
<path d="M124.231 148.046H121.788V145.254L124.231 145.063V142.825C124.231 139.155 125.887 136.625 129.884 136.625C131.086 136.625 132.227 136.887 133.034 137.21L132.287 140.032C131.641 139.74 130.955 139.579 130.339 139.579C128.744 139.579 127.966 140.617 127.966 142.794V145.063H131.58V148.046H127.966V162.915H124.231V148.046Z" fill="white"/>
<path d="M133.529 153.994C133.529 148.056 137.527 144.609 141.949 144.609C146.37 144.609 150.368 148.046 150.368 153.994C150.368 159.942 146.37 163.349 141.949 163.349C137.527 163.349 133.529 159.942 133.529 153.994ZM146.532 153.994C146.532 150.224 144.775 147.694 141.949 147.694C139.122 147.694 137.396 150.224 137.396 153.994C137.396 157.764 139.152 160.294 141.949 160.294C144.745 160.294 146.532 157.794 146.532 153.994Z" fill="white"/>
<path d="M155.082 145.063H158.141L158.434 148.278H158.535C159.807 145.97 161.684 144.609 163.602 144.609C164.481 144.609 165.066 144.74 165.621 145.002L164.935 148.248C164.319 148.056 163.865 147.956 163.148 147.956C161.684 147.956 159.928 148.964 158.827 151.786V162.925H155.092V145.063H155.082Z" fill="white"/>
<path d="M176.343 158.732V137.038H180.078V158.923C180.078 159.931 180.502 160.284 180.957 160.284C181.118 160.284 181.249 160.284 181.572 160.224L182.057 163.046C181.603 163.208 180.987 163.339 180.038 163.339C177.343 163.339 176.333 161.615 176.333 158.732H176.343Z" fill="white"/>
<path d="M185.902 139.478C185.902 138.147 186.841 137.27 188.214 137.27C189.587 137.27 190.556 138.147 190.556 139.478C190.556 140.809 189.577 141.716 188.214 141.716C186.851 141.716 185.902 140.839 185.902 139.478ZM186.357 145.063H190.092V162.926H186.357V145.063Z" fill="white"/>
<path d="M196.634 148.046H194.191V145.254L196.634 145.063V142.825C196.634 139.155 198.29 136.625 202.288 136.625C203.489 136.625 204.63 136.887 205.437 137.21L204.69 140.032C204.044 139.74 203.358 139.579 202.742 139.579C201.147 139.579 200.37 140.617 200.37 142.794V145.063H203.984V148.046H200.37V162.915H196.634V148.046Z" fill="white"/>
<path d="M205.932 153.994C205.932 148.218 209.929 144.609 214.089 144.609C218.833 144.609 221.408 148.016 221.408 153.046C221.408 153.792 221.307 154.508 221.216 154.962H209.606C209.899 158.369 212.049 160.415 215.138 160.415C216.733 160.415 218.096 159.931 219.399 159.085L220.701 161.454C219.045 162.563 216.996 163.339 214.654 163.339C209.808 163.339 205.942 159.901 205.942 153.984L205.932 153.994ZM218.157 152.371C218.157 149.317 216.754 147.532 214.159 147.532C211.918 147.532 209.929 149.256 209.576 152.371H218.157Z" fill="white"/>
</g>
<defs>
<clipPath id="clip0_127_127">
<rect width="560" height="311" fill="white"/>
</clipPath>
</defs>
</svg>
