<svg width="391" height="745" viewBox="0 0 391 745" fill="none" xmlns="http://www.w3.org/2000/svg">
<mask id="mask0_124_990" style="mask-type:alpha" maskUnits="userSpaceOnUse" x="0" y="1" width="390" height="744">
<rect y="1" width="390" height="744" fill="#D9D9D9"/>
</mask>
<g mask="url(#mask0_124_990)">
<path d="M67.1939 356.634L68.6987 354.942C70.0966 356.42 72.0867 357.391 74.1302 357.391C76.7124 357.391 78.2706 356.099 78.2706 354.162C78.2706 352.225 76.846 351.499 74.9895 350.667L72.1401 349.429C70.3103 348.649 68.1333 347.251 68.1333 344.374C68.1333 341.337 70.7689 339.128 74.3439 339.128C76.6812 339.128 78.7514 340.121 80.1494 341.578L78.8316 343.163C77.6206 342.032 76.1692 341.306 74.3395 341.306C72.109 341.306 70.6576 342.437 70.6576 344.209C70.6576 346.12 72.3806 346.846 73.9121 347.491L76.7347 348.703C79.0186 349.696 80.7949 351.041 80.7949 353.975C80.7949 357.097 78.2127 359.568 74.099 359.568C71.3032 359.568 68.9079 358.437 67.1895 356.638L67.1939 356.634Z" fill="#F3E238"/>
<path d="M145.844 339.476H148.346V357.092H156.952V359.216H145.848V339.476H145.844Z" fill="#F3E238"/>
<path d="M219.703 349.291C219.703 342.972 223.171 339.124 228.118 339.124C233.064 339.124 236.532 342.972 236.532 349.291C236.532 355.61 233.064 359.564 228.118 359.564C223.171 359.564 219.703 355.61 219.703 349.291ZM233.981 349.291C233.981 344.343 231.644 341.302 228.118 341.302C224.591 341.302 222.254 344.339 222.254 349.291C222.254 354.242 224.565 357.386 228.118 357.386C231.67 357.386 233.981 354.211 233.981 349.291Z" fill="#F3E238"/>
<path d="M299.777 339.476H302.333L304.403 350.234C304.781 352.359 305.182 354.483 305.561 356.607H305.667C306.126 354.483 306.607 352.359 307.092 350.234L309.808 339.476H312.092L314.834 350.234C315.319 352.332 315.774 354.456 316.232 356.607H316.366C316.74 354.456 317.118 352.332 317.497 350.234L319.567 339.476H321.962L317.875 359.216H314.892L311.909 347.331C311.557 345.772 311.264 344.347 310.943 342.838H310.836C310.516 344.343 310.164 345.768 309.839 347.331L306.91 359.216H303.953L299.786 339.476H299.777Z" fill="#F3E238"/>
<path d="M68.6191 404.185H79.9941V406.309H71.1212V412.98H78.6496V415.077H71.1212V423.925H68.6191V404.185Z" fill="#F3E238"/>
<path d="M308.278 404.185H314.462C318.469 404.185 321.345 405.636 321.345 409.751C321.345 412.819 319.568 414.645 316.879 415.291L321.932 423.925H319.11L314.324 415.562H310.775V423.925H308.273V404.185H308.278ZM314.083 413.545C317.178 413.545 318.869 412.307 318.869 409.751C318.869 407.195 317.178 406.229 314.083 406.229H310.775V413.545H314.083Z" fill="#F3E238"/>
<path d="M68.6191 468.898H71.1212V486.515H79.727V488.639H68.6236V468.898H68.6191Z" fill="#F3E238"/>
<path d="M151.098 468.898H153.6V488.639H151.098V468.898Z" fill="#F3E238"/>
<path d="M226.85 468.898H238.225V471.022H229.352V477.693H236.88V479.79H229.352V488.639H226.85V468.898Z" fill="#F3E238"/>
<path d="M309.564 468.898H320.939V471.022H312.067V477.208H319.541V479.332H312.067V486.515H321.233V488.639H309.564V468.898Z" fill="#F3E238"/>
<path d="M225.307 428.73C217.07 445.732 196.533 452.648 179.446 444.183C162.355 435.717 155.178 415.068 163.414 398.066C171.65 381.064 192.188 374.148 209.275 382.613C226.366 391.079 233.543 411.728 225.307 428.73Z" fill="#F3E238"/>
</g>
</svg>
