<svg width="1280" height="1076" viewBox="0 0 1280 1076" fill="none" xmlns="http://www.w3.org/2000/svg">
<mask id="mask0_124_989" style="mask-type:alpha" maskUnits="userSpaceOnUse" x="0" y="0" width="1280" height="1076">
<rect width="1280" height="1076" fill="#D9D9D9"/>
</mask>
<g mask="url(#mask0_124_989)">
<path d="M694.281 663.61C665.041 693.99 616.601 694.55 586.081 664.85C555.561 635.15 554.531 586.45 583.771 556.07C613.011 525.69 661.451 525.13 691.971 554.83C722.491 584.53 723.521 633.23 694.281 663.61Z" fill="#F3E238"/>
<path d="M383 476.7L385.21 474.21C387.26 476.38 390.18 477.8 393.18 477.8C396.97 477.8 399.26 475.91 399.26 473.06C399.26 470.21 397.17 469.15 394.45 467.93L390.27 466.11C387.59 464.97 384.39 462.91 384.39 458.69C384.39 454.23 388.26 451 393.51 451C396.94 451 399.98 452.46 402.03 454.59L400.1 456.92C398.32 455.26 396.19 454.2 393.51 454.2C390.23 454.2 388.1 455.86 388.1 458.46C388.1 461.26 390.63 462.33 392.87 463.27L397.01 465.05C400.36 466.51 402.97 468.48 402.97 472.78C402.97 477.36 399.18 480.99 393.14 480.99C389.04 480.99 385.52 479.33 383 476.69V476.7Z" fill="#F3E238"/>
<path d="M545.23 451.52H548.9V477.37H561.53V480.49H545.23V451.53V451.52Z" fill="#F3E238"/>
<path d="M700.43 465.92C700.43 456.65 705.52 451 712.78 451C720.04 451 725.13 456.64 725.13 465.92C725.13 475.2 720.04 480.99 712.78 480.99C705.52 480.99 700.43 475.19 700.43 465.92ZM721.38 465.92C721.38 458.66 717.95 454.2 712.78 454.2C707.61 454.2 704.18 458.66 704.18 465.92C704.18 473.18 707.57 477.8 712.78 477.8C717.99 477.8 721.38 473.14 721.38 465.92Z" fill="#F3E238"/>
<path d="M864.75 451.52H868.5L871.54 467.3C872.09 470.42 872.68 473.53 873.24 476.65H873.4C874.07 473.53 874.78 470.42 875.49 467.3L879.48 451.52H882.83L886.85 467.3C887.56 470.38 888.23 473.5 888.9 476.65H889.1C889.65 473.49 890.2 470.38 890.76 467.3L893.8 451.52H897.31L891.31 480.48H886.93L882.55 463.04C882.04 460.75 881.6 458.66 881.13 456.45H880.97C880.5 458.66 879.98 460.75 879.51 463.04L875.21 480.48H870.87L864.75 451.52Z" fill="#F3E238"/>
<path d="M385.09 581.85H401.78V584.97H388.76V594.76H399.81V597.84H388.76V610.82H385.09V581.86V581.85Z" fill="#F3E238"/>
<path d="M877.221 581.85H886.301C892.181 581.85 896.401 583.98 896.401 590.02C896.401 594.52 893.801 597.2 889.851 598.15L897.271 610.82H893.131L886.111 598.55H880.901V610.82H877.231V581.86L877.221 581.85ZM885.741 595.58C890.281 595.58 892.761 593.76 892.761 590.02C892.761 586.28 890.271 584.85 885.741 584.85H880.891V595.58H885.741Z" fill="#F3E238"/>
<path d="M385.09 712.17H388.76V738.02H401.39V741.14H385.09V712.18V712.17Z" fill="#F3E238"/>
<path d="M552.93 712.17H556.6V741.13H552.93V712.17Z" fill="#F3E238"/>
<path d="M710.91 712.17H727.6V715.29H714.58V725.08H725.63V728.16H714.58V741.14H710.91V712.18V712.17Z" fill="#F3E238"/>
<path d="M879.109 712.17H895.799V715.29H882.779V724.37H893.749V727.49H882.779V738.03H896.239V741.15H879.109V712.19V712.17Z" fill="#F3E238"/>
</g>
</svg>
