<svg width="150" height="150" viewBox="0 0 150 150" fill="none" xmlns="http://www.w3.org/2000/svg">
<g clip-path="url(#clip0_540_569)">
<g clip-path="url(#clip1_540_569)">
<path d="M87.4326 83.8943C88.7664 82.7695 88.1887 80.0001 88.2651 78.3043C87.8404 66.0336 86.9909 53.9418 84.0431 42.0374C83.4399 39.9923 83.2106 37.2314 81.4096 35.9361C80.3392 35.1863 78.6742 35.3311 77.3235 35.5868C74.4182 36.1577 71.4874 36.5582 68.5481 36.8564C59.195 38.1346 41.8991 35.0925 39.9282 23.9807C39.8603 17.743 47.3359 15.8087 52.4075 15.5957C60.4523 15.144 68.1913 17.7175 75.2252 21.7225C77.5699 23.2478 80.4667 24.8754 82.6074 22.1145C85.2239 18.9786 88.1717 15.9195 91.7311 13.8062C94.5005 12.1104 97.5672 10.7811 100.676 9.95452C107.515 8.04574 126.493 8.17356 125.822 18.3055C125.108 22.5832 121.209 25.6168 117.785 28.1306C109.681 33.8995 99.4616 34.7943 90.0406 35.4249C86.9484 36.3878 89.3185 40.1968 89.7008 42.3868C93.1583 54.8706 95.401 67.4907 95.2821 80.5199C95.4944 83.6131 95.1037 86.8427 95.9362 89.8082C96.327 91.0864 97.032 92.2367 97.9155 93.3616C100.549 96.4804 102.843 100.042 104.372 103.851C108.908 113.796 104.856 126.024 95.6983 131.853C88.5115 136.761 79.4473 137.741 70.9947 136.65C49.757 134.75 31.9938 119.198 23.5837 100.076C17.7136 87.8738 17.7136 73.8562 12.6251 61.4235C9.81321 55.9869 7.86784 50.6014 14.5195 47.3548C24.3907 43.2134 35.6892 44.1252 46.1551 44.7983C57.2157 45.642 68.0979 48.4029 77.7058 54.0951C79.0225 54.8195 80.6366 56.021 81.0613 57.3418C81.7834 59.3699 79.6172 60.3583 77.8842 59.9152C73.1439 58.5092 68.735 56.0125 63.8248 54.8962C56.8334 52.9022 49.5276 51.8796 42.3493 51.1297C35.2814 50.5417 28.0181 50.5332 20.9078 51.641C17.2634 52.1267 15.2925 53.4049 17.5862 57.0691C22.8361 66.0421 23.6517 76.7534 26.1747 86.6723C29.1735 98.2954 35.7911 109.262 44.592 117.494C55.2363 126.893 73.849 133.097 87.5346 127.813C99.0284 123.135 102.121 111.836 95.1292 101.695C89.9557 93.5405 81.0953 88.9986 72.6002 84.9595C62.8479 80.4432 52.3905 75.7224 45.6624 66.9794C44.4561 65.3433 42.5192 62.4716 43.8444 60.6225C46.1636 59.1483 48.6781 63.6306 50.4026 64.9343C52.4924 66.9368 54.8286 68.6837 57.2921 70.2005C65.7362 75.3048 75.2082 78.4066 83.8562 83.0166C84.8756 83.5364 86.4557 84.3715 87.3477 83.954L87.4666 83.8858L87.4326 83.8943ZM85.3004 27.6108C86.4812 28.8805 89.0212 28.3607 90.6862 28.4544C99.1643 28.0368 107.982 26.5797 114.991 21.697C116.307 20.6488 118.677 19.6092 118.643 17.7686C118.329 16.5756 116.588 16.0899 115.415 15.7064C111.023 14.3515 106.258 14.5646 101.815 15.6383C95.4775 17.1125 90.27 20.2909 86.2348 25.2333C85.7336 25.8469 85.0285 26.8268 85.2494 27.483L85.3089 27.6108H85.3004ZM76.2701 29.3917C76.3296 29.1105 76.0577 28.7612 75.5565 28.3862C72.1755 26.094 68.3442 24.3301 64.411 23.0518C60.1465 21.6117 47.8966 19.2769 45.2291 23.8102C45.0083 24.9692 46.1551 25.9747 47.0641 26.6819C52.1356 30.5336 58.8552 30.9938 64.9972 30.9682C68.3952 30.9 71.8867 30.7211 75.2252 30.0564C75.7604 29.9115 76.1172 29.7326 76.2361 29.494L76.2701 29.3917Z" fill="white"/>
<path d="M120.393 128.094C125.55 130.191 129.058 122.777 132.83 120.459C134.801 118.891 138.233 119.718 137.57 122.7C137.197 124.473 135.387 125.777 134.215 127.063C133.884 127.472 133.467 127.975 133.816 128.435C134.308 129.168 137.307 128.827 138.785 129.824C140.416 130.693 140.408 132.986 138.768 133.88C136.967 134.971 134.512 134.818 132.422 134.886C125.49 134.877 118.389 135.005 111.635 134.724C110.395 134.647 109.019 134.519 107.923 134C106.096 133.224 105.536 131.119 107.175 129.867C108.738 128.725 110.947 128.486 112.459 127.234C116.792 123.161 120.266 118.065 124.412 113.693C125.524 112.526 126.909 111.205 128.523 110.975C130.893 110.609 131.522 113.199 130.503 114.912C127.963 119.096 124.004 122.351 120.98 126.16C120.572 126.714 120.054 127.421 120.334 128.001L120.402 128.103L120.393 128.094Z" fill="white"/>
<path d="M112.646 105.377C112.646 101.73 113.844 97.9546 113.835 94.2819C113.818 86.3059 111.507 77.8868 106.207 71.76C104.558 69.6552 102.078 67.8998 100.829 65.5905C99.6228 63.1449 101.976 62.1308 104.057 63C110.514 66.0251 114.77 72.578 117.921 78.7645C120.75 85.4027 121.515 93.2082 120.385 100.204C119.68 103.238 119.314 108.061 115.679 108.777C114.039 108.973 112.765 107.49 112.671 105.641L112.654 105.385L112.646 105.377Z" fill="white"/>
</g>
</g>
<defs>
<clipPath id="clip0_540_569">
<rect width="150" height="150" fill="white"/>
</clipPath>
<clipPath id="clip1_540_569">
<rect width="130" height="159" fill="white" transform="translate(10 9)"/>
</clipPath>
</defs>
</svg>
