<svg width="150" height="150" viewBox="0 0 150 150" fill="none" xmlns="http://www.w3.org/2000/svg">
<g clip-path="url(#clip0_540_570)">
<path d="M107.107 22.1865C114.564 23.2671 121.779 29.1546 123.843 37.0357C124.513 39.2342 124.922 41.4886 125.331 43.7616C125.666 46.016 126.819 47.1339 129.087 47.2271C150.566 48.3077 155.978 82.9807 133.625 87.6944C129.571 87.9739 129.683 91.5511 128.158 94.5321C123.23 104.574 110.268 108.133 100.821 103.531C97.0831 101.947 96.953 96.9542 101.751 98.4634C110.305 102.301 122.263 98.6683 124.773 88.5142C125.164 87.1169 125.443 85.4028 126.484 84.4526C127.451 83.521 129.032 83.2415 130.557 82.9434C134.034 82.2913 137.623 80.9685 140.059 78.1738C144.522 73.1433 144.169 65.0946 140.561 59.6728C137.214 54.7355 130.966 52.1085 125.48 51.8477C122.132 51.8477 121.11 49.6678 120.831 46.4446C120.459 43.743 120.031 41.0228 119.176 38.4703C115.196 25.6706 97.2691 23.0808 90.5372 34.6882C89.1053 36.7935 87.1155 36.6072 85.7208 34.5764C78.7471 22.8572 61.7872 28.7261 58.0866 40.557C56.7848 43.8548 56.2827 47.4134 55.9108 50.9534C55.7248 52.3693 55.3901 53.7294 54.5905 54.5119C52.675 56.2074 49.6624 55.1082 47.4123 56.077C41.3498 57.847 37.9095 64.1816 37.5376 70.6281C37.5562 72.3794 36.6822 75.8449 34.618 74.0749C31.6983 69.268 35.5106 59.0953 39.2113 55.4621C41.5544 53.0214 44.6228 51.3632 47.8586 50.6925C49.1789 50.413 50.741 50.1336 51.4849 48.9039C52.768 45.9229 52.675 42.0476 54.1255 39.0106C55.5761 35.2098 57.5659 31.5581 60.4111 28.7634C67.0872 21.9816 78.524 20.5097 85.8323 26.9002C86.725 27.72 87.9337 28.8752 88.9937 28.6516C89.7748 28.5584 90.5186 27.8691 91.1509 27.3101C95.3165 23.3044 101.416 21.4226 106.902 22.1492L107.125 22.1865H107.107Z" fill="white"/>
<path d="M21.7307 91.2158C30.2478 91.4953 39.3972 91.1785 48.0259 91.0854C59.4627 91.1785 70.9366 91.1785 82.392 91.2531C86.4274 91.2903 90.5558 91.3276 94.4238 90.1352C96.8786 89.3527 99.4635 88.0485 100.598 85.5332C101.974 82.3473 100.449 78.0807 97.6596 76.2921C94.9445 74.4289 90.2397 76.1989 90.3698 79.8693C90.5372 81.9187 93.773 82.7758 94.0333 84.9557C93.9961 88.7751 89.0495 87.3405 87.506 85.3097C81.7597 79.2358 88.2685 69.2494 95.5582 69.976C103.09 70.1437 107.311 79.4408 105.749 86.5393C104.856 90.6569 101.472 93.7124 97.92 95.2774C92.7688 97.4014 87.1341 96.9915 81.7225 96.7866C68.3518 96.6748 54.9252 96.6003 41.5358 96.5071C29.7643 96.1718 18.0114 96.0413 6.25852 96.0041C4.86379 96.0041 2.94837 95.7991 2.2603 94.6253C0.977155 92.166 4.08275 90.9363 5.99817 91.1413C11.1494 91.1413 16.3563 91.1972 21.4703 91.2344H21.6935L21.7307 91.2158Z" fill="white"/>
<path d="M70.1183 119.07C71.2341 124.38 80.2906 124.808 82.9684 120.598C84.6421 118.38 84.5863 115.101 82.9684 112.884C79.0446 108.021 71.5503 109.232 66.0457 108.822C48.6395 108.822 31.2148 108.673 13.8086 108.543C9.36404 108.58 8.69457 103.755 13.511 103.326C33.9856 102.954 54.5532 103.438 75.0464 103.568C82.02 103.27 89.068 108.152 89.5515 115.958C90.7603 130.416 69.5419 134.031 65.2461 120.914C63.0889 112.996 72.4057 108.822 78.0776 112.623C79.4165 113.443 80.272 115.66 78.7471 116.722C76.4783 118.306 71.0854 114.803 70.1183 118.902V119.088V119.07Z" fill="white"/>
<path d="M42.7817 84.434C35.4547 84.434 27.9604 84.3967 21.3587 84.2849C19.0899 84.0986 16.4679 84.4713 14.3665 83.3906C12.4325 82.31 13.0647 79.6644 15.1103 79.1799C15.7054 78.9936 16.3749 78.9191 17.0443 78.8818C24.799 78.4533 32.7211 78.621 40.5129 78.7328C48.8255 78.7328 57.1753 78.8073 65.5065 78.8446C71.4573 79.4221 79.9372 76.8883 78.1334 68.9327C77.2593 63.4364 70.4345 59.2257 66.0271 63.0079C64.7254 64.1258 64.1489 66.2125 64.9672 67.6844C65.9342 69.6966 68.4633 69.5475 70.1555 70.2928C71.3829 70.8517 71.9222 72.3609 71.1597 73.5533C69.8394 75.5655 66.9942 75.2673 65.0601 74.4476C61.6012 72.9943 59.63 69.2494 59.7416 65.784C60.0019 58.2569 68.6306 54.3257 74.786 57.1949C83.4147 60.7349 86.4274 74.578 78.84 80.8568C75.1208 84.0614 70.0812 84.2477 65.4507 84.2849C57.7146 84.788 49.8297 84.3595 43.0421 84.434H42.8189H42.7817Z" fill="white"/>
</g>
<defs>
<clipPath id="clip0_540_570">
<rect width="146" height="107" fill="white" transform="translate(2 22)"/>
</clipPath>
</defs>
</svg>
