<svg width="150" height="150" viewBox="0 0 150 150" fill="none" xmlns="http://www.w3.org/2000/svg">
<path d="M103.865 77.0806C104.962 103.644 83.1188 117.793 58.6067 110.627C36.8913 104.192 33.2355 81.8338 41.4427 63.0588C46.2684 51.7425 55.0423 43.1137 62.1528 33.2783C65.4613 28.6896 67.6365 23.3332 68.3494 17.7025C68.7333 15.4173 67.9107 12.7848 69.4096 10.8469C75.6427 6.27657 74.1256 21.5599 73.1202 24.3935C70.5063 34.8322 63.2496 42.9674 56.8337 51.2672C45.1899 64.4299 36.5257 90.3712 54.8412 101.651C61.6227 105.325 70.0676 106.623 77.5803 104.923C97.541 100.938 100.21 79.4389 95.0733 62.9308C91.9659 52.1996 84.9102 43.0588 79.5544 33.4976C77.1416 28.9273 81.2178 26.3496 84.2704 30.664C94.5981 44.2837 103.811 59.1465 103.847 76.8064V77.0623L103.865 77.0806Z" fill="white"/>
<path d="M73.3946 126.752C60.5079 126.934 47.6395 127.355 34.7163 127.355C29.9455 127.355 25.723 124.905 23.1274 120.847C21.4092 118.653 21.0436 113.114 24.8822 113.498C26.6918 113.9 27.3681 116.039 28.5197 117.337C30.4756 119.841 33.4916 121.176 36.6721 121.011C57.4371 120.152 78.1837 120.115 98.9304 119.622C103.701 119.293 108.673 120.042 113.316 118.836C115.162 118.159 116.734 116.806 117.703 115.088C118.781 112.931 119.823 109.183 122.821 110.664C125.216 112.072 124.941 116.203 123.607 118.452C121.249 122.583 117.794 125.435 113.023 125.911C99.9174 126.422 86.72 126.422 73.6322 126.715H73.3946V126.752Z" fill="white"/>
<path d="M70.7805 133.333C84.7091 133.095 98.7108 132.839 112.731 132.528C119.567 132.674 125.215 132.821 128.487 125.654C128.981 124.649 129.602 123.57 130.589 123.003C133.203 121.486 135.598 124.795 134.867 127.3C133.295 133.735 126.86 138.726 120.28 139C100.722 138.835 81.2361 139.621 61.6228 139.822C59.9959 139.822 58.1132 139.822 57.51 138.013C55.1886 131.468 67.0699 133.918 70.5246 133.333H70.7805Z" fill="white"/>
<path d="M37.6591 140.279C31.5904 140.554 25.668 140.736 20.3671 137.3C17.4973 135.417 13.8964 131.23 15.3221 127.592C17.2963 124.685 19.7456 128.47 21.2262 129.896C24.2788 132.656 28.1357 134.338 32.3399 134.301C36.5623 134.265 40.803 134.119 45.0255 134.082C46.1405 134.082 47.3104 134.32 48.1146 135.087C49.2662 136.056 49.5952 137.994 48.5899 139.091C47.5663 140.279 45.6287 140.078 43.9287 140.151C41.8632 140.188 39.5418 140.225 37.8784 140.261H37.6591V140.279Z" fill="white"/>
<path d="M89.9185 78.8176C89.754 81.5415 89.5164 84.7774 88.8035 87.7755C87.9261 90.664 83.2467 100.536 79.4812 97.5927C77.7447 96.185 78.6769 93.8267 79.7919 92.3276C82.68 87.6841 83.795 81.4867 83.5026 76.0754C83.7036 72.9675 80.5962 66.0754 85.1477 65.3076C89.2422 65.5818 89.626 75.2893 89.9185 78.5617V78.7993V78.8176Z" fill="white"/>
<path d="M81.4555 60.0786C80.1211 60.1152 78.8781 59.2377 78.4029 57.958C77.1965 55.1975 76.0083 52.4187 74.9847 49.6948C74.3267 48.2688 74.8567 46.5687 76.4653 46.0568C80.0297 45.5997 82.0221 52.1993 83.6307 54.7039C84.8188 56.7149 84.3801 59.8044 81.6931 60.0604H81.4555V60.0786Z" fill="white"/>
</svg>
