<svg width="150" height="150" viewBox="0 0 150 150" fill="none" xmlns="http://www.w3.org/2000/svg">
<g clip-path="url(#clip0_540_597)">
<path d="M67.8828 15.0718C73.177 17.5015 78.632 20.1991 84.0156 22.4322C85.4822 23.1111 87.074 23.9151 87.8252 25.3979C89.256 28.3099 86.7342 30.275 83.7652 29.4354C78.9003 27.7203 74.3395 25.0942 69.582 23.0933C67.865 22.1464 66.1837 22.861 64.9675 24.2724C52.3224 36.1884 39.4091 47.7828 26.925 59.7882C25.6014 60.9316 25.977 61.4675 28.177 61.0745C31.915 60.9673 38.1392 57.4121 40.0351 62.3429C42.5033 72.4546 43.165 82.9057 45.2219 93.0888C45.4544 94.1786 46.2592 94.8396 47.3502 94.8932C50.3371 94.9646 53.4134 94.8932 56.4182 94.911C61.9448 94.9289 67.543 94.8574 73.0518 94.9289C74.0712 94.9289 74.9655 95.4827 74.5899 96.6618C73.6241 99.2522 72.9444 102.825 69.3494 102.379C50.6412 102.379 31.7719 102.414 13.01 102.397C10.8995 102.397 8.16304 102.021 7.23299 99.9311C6.17775 97.3585 8.82481 95.1969 11.2751 95.2683C18.8944 95.0182 26.5494 94.8932 34.1865 94.9468C36.297 95.0182 38.1213 94.9825 37.5847 92.2848C36.5295 85.3889 35.4385 78.4215 34.3475 71.5792C33.9182 69.9892 34.3475 67.0414 32.1297 66.8628C27.39 67.238 22.6503 68.4707 17.9107 68.9709C11.2572 69.6855 11.7401 63.8257 15.9075 60.5028C21.7918 55.1611 27.4973 49.1227 33.5247 43.9597C33.8824 43.6203 34.1865 43.2451 34.3832 42.8342C34.7946 42.066 34.7588 41.137 34.6157 40.2616C33.7572 35.6524 32.8808 30.811 32.0223 26.434C31.6467 24.1116 30.824 20.7887 33.006 19.2344C34.0434 18.5019 35.5637 18.5198 36.5653 19.288C37.8888 20.2706 38.4254 22.0928 38.7831 23.6649C39.5522 27.3273 40.3033 31.1504 41.0188 34.7234C41.144 35.2594 41.3586 35.974 41.9488 35.9383C43.5943 35.3666 44.8999 33.5979 46.2771 32.4903C50.8379 28.1848 55.9174 23.8972 60.3888 19.7882C62.5708 18.0374 64.5382 14.6967 67.6503 15.0182L67.8649 15.0718H67.8828Z" fill="white"/>
<path d="M84.7304 82.0119C84.5337 81.8154 84.176 81.7439 83.7289 81.7618C80.9208 81.994 78.0234 82.3692 75.1975 82.6907C72.4431 83.0123 69.6887 83.4054 66.9165 83.5483C65.1995 83.6197 63.1426 83.5483 61.9443 82.1905C60.3167 80.0467 62.2483 77.1704 63.0711 75.0087C66.8986 67.023 70.9049 59.1266 74.7324 51.0873C75.895 48.7649 77.4153 45.1561 80.5273 45.6563C83.55 46.3709 83.1386 49.8725 82.0834 52.0878C79.025 59.5018 75.1975 66.9516 71.9423 74.0798C71.5488 74.9194 71.209 76.1342 72.4073 76.3486C77.2006 76.4558 81.9761 75.2767 86.8767 74.7586C92.2424 73.7582 93.6553 77.4741 92.5464 82.0655C91.7237 85.6028 90.6148 89.2294 89.7563 92.7667C89.6132 93.4277 89.5059 94.2673 90.114 94.6247C105.102 95.3571 120.376 94.6247 135.454 94.8748C137.922 94.8033 141.517 95.2499 142.018 98.1441C142.501 101.646 138.459 102.503 135.704 102.325C120.197 102.36 104.565 102.342 89.1124 102.36C86.2507 102.11 85.9824 105.29 85.2312 107.345C82.8525 115.116 80.2412 123.012 77.5941 130.784C77.1828 131.891 76.7356 132.999 75.895 133.856C74.1064 135.893 70.4399 135.143 69.8676 132.463C69.492 131.034 69.9391 129.444 70.3505 128.032C74.2674 115.973 78.3811 103.897 82.4053 91.6769C83.3175 88.9257 84.1581 86.1566 84.9272 83.3696C85.0524 82.8337 85.0703 82.4049 84.8735 82.1369L84.7841 82.0297L84.7304 82.0119Z" fill="white"/>
<path d="M118.266 46.264C114.939 43.9952 110.843 42.6374 107.266 40.6544C105.835 39.8147 104.369 38.7428 103.6 37.2779C102.938 35.9916 103.797 34.6696 105.192 34.2766C108.304 33.5262 111.434 34.884 114.206 36.1881C118.91 38.4391 123.757 40.7616 128.496 43.0662C134.309 45.2636 134.613 50.5695 127.942 51.6415C123.775 52.3382 119.536 52.8027 115.368 53.4637C114.134 53.5887 113.008 54.3034 113.204 55.6968C114.689 64.6473 116.495 73.5084 117.622 82.4588C118.141 85.9961 113.329 88.3543 111.058 85.5494C108.715 78.6535 108.483 69.9532 106.926 62.6106C106.39 59.1091 105.531 55.6254 105.299 52.1059C105.514 46.9251 112.185 47.8719 115.833 47.0501C116.996 46.9072 118.373 46.7643 118.284 46.3534V46.264H118.266Z" fill="white"/>
</g>
<defs>
<clipPath id="clip0_540_597">
<rect width="135" height="120" fill="white" transform="translate(7 15)"/>
</clipPath>
</defs>
</svg>
