<svg width="150" height="150" viewBox="0 0 150 150" fill="none" xmlns="http://www.w3.org/2000/svg">
<g clip-path="url(#clip0_540_611)">
<path d="M41.8969 65.0649C43.4292 62.4586 43.2262 58.7432 44.6293 55.9336C45.7186 53.2349 47.251 50.7765 49.2634 48.6878C55.3929 41.9225 67.1719 41.2017 73.8922 47.5603C76.3477 49.3717 77.5662 53.4198 80.2802 54.3994C82.2926 54.9725 85.1358 53.0686 87.5359 53.4198C90.1945 53.6601 90.6191 56.5436 88.3482 57.819C86.6128 59.002 83.6588 59.1129 82.6434 60.5362C81.2587 62.7728 82.8649 65.6379 82.9572 68.0963C84.4527 76.0815 83.9726 84.0297 83.4926 92.0519C83.4926 111.035 70.3474 116.34 53.4543 115.619C44.6293 115.767 35.7674 115.86 26.9423 116.045C26.0931 116.1 25.2807 116.211 24.5053 116.488C22.4744 117.135 21.2559 119.15 20.0743 121.165C18.5419 123.605 17.2127 126.229 15.3295 128.392C14.074 129.926 11.4339 130.832 10.0862 128.984C8.68303 126.932 10.2708 124.362 11.4524 122.532C13.3356 119.686 15.2926 116.876 17.2127 114.048C18.9481 111.017 22.0683 109.483 25.5207 109.686C34.1611 109.593 42.7831 109.409 51.405 109.316C62.8701 110.074 75.8677 107.468 76.5138 93.6416C77.5293 81.2016 78.9878 63.9373 71.3444 53.4013C67.7257 48.5214 60.23 47.7821 55.3006 51.0353C49.7434 54.6213 48.0448 61.4235 47.6941 67.5972C46.974 72.1628 41.4907 72.3477 38.1121 74.1037C33.7549 75.9151 29.7855 78.5954 26.1484 81.4974C24.173 82.6989 10.1046 95.8782 15.2003 96.7654C24.4868 96.8763 33.8473 96.3403 43.1708 96.3957C50.7773 96.8578 54.6728 92.4401 55.3375 84.9724C55.4852 83.6231 55.596 82.2183 56.0944 81.1092C56.6114 79.7229 58.1807 78.9466 59.3992 79.7784C60.6177 80.5362 61.1716 82.3477 61.2454 84.0852C61.5778 90.8874 58.4946 98.5769 51.7558 101.109C46.1617 103.179 39.8845 102.237 33.995 102.588C29.324 102.662 24.6345 102.736 19.9635 102.791C15.2556 103.069 7.48297 102.921 8.05531 96.4512C10.8616 85.7303 23.0283 75.9706 32.1303 70.3699C34.4011 68.9835 36.9305 67.8745 39.3675 66.9318C40.2906 66.5436 41.2507 66.0076 41.823 65.2312L41.9338 65.0834L41.8969 65.0649Z" fill="white"/>
<path d="M86.0774 119.298C86.5389 119.871 87.7944 119.76 88.5698 119.797C93.3146 119.963 98.4841 119.094 103.247 120.019C104.429 120.388 105.463 121.349 105.352 122.588C105.186 124.991 101.77 125.527 99.6472 125.508C76.5508 125.897 53.362 126.266 30.2287 126.618C28.1609 126.691 25.133 126.266 24.6899 124.011C24.4499 122.902 25.0961 121.812 26.2223 121.313C27.3485 120.776 28.7701 120.739 30.0625 120.703C44.8693 120.093 59.9162 120.943 74.6492 119.557C75.8861 119.187 77.0123 118.54 78.0278 117.764C82.0526 114.529 85.9851 111.146 89.936 107.911C91.3392 106.765 93.0562 105.749 94.4039 106.137C96.1578 106.581 96.1578 108.762 95.1978 110.019C92.9269 112.921 89.6221 114.991 86.982 117.597C86.5574 118.041 85.8927 118.651 86.0404 119.187L86.0774 119.261V119.298Z" fill="white"/>
<path d="M142 60.2403C141.908 70.3512 137.864 80.7763 130.35 87.7449C128.929 88.9279 126.529 88.9649 125.882 87.0425C125.088 84.4362 127.932 81.9039 129.353 79.8706C136.277 71.2015 138.197 59.5564 135.317 48.9649C133.784 42.2181 130.886 35.5822 125.919 30.4991C123.353 27.7449 120.011 25.8595 116.983 23.6969C115.063 22.3475 114.823 19.8706 117.556 20C134.172 24.8798 141.151 44.2144 141.963 60.037V60.2403H142Z" fill="white"/>
<path d="M128.079 56.1739C128.19 63.8079 125.938 71.2201 121.673 77.3014C120.75 78.6138 119.457 80.185 117.796 80.2959C115.469 80.3698 115.082 77.8559 116.097 76.0814C117.574 73.3643 119.365 70.684 120.417 67.745C125.679 55.2866 120.787 39.9631 108.841 33.3642C105.629 30.8504 108.546 28.5768 111.519 29.9262C121.377 34.5842 127.747 45.2127 128.061 55.9705V56.1739H128.079Z" fill="white"/>
<path d="M115.894 58.8728C115.876 62.8284 114.639 69.6306 110.965 71.8672C109.912 72.3478 108.675 71.9966 108.158 70.9615C107.18 68.7804 108.878 66.285 109.414 64.1223C110.503 60.7027 110.245 57.0428 109.322 53.5863C108.38 49.5382 106.404 45.6565 103.007 43.0317C101.346 41.8672 97.7456 38.9098 100.792 37.4125C102.767 36.8765 104.706 38.3183 106.275 39.3903C112.294 43.7157 115.525 51.4976 115.876 58.6695V58.8728H115.894Z" fill="white"/>
<path d="M98.1888 59.4641C98.3734 56.1554 96.9149 52.5879 94.5517 50.2219C93.2039 48.891 92.5393 46.5805 94.5517 45.7117C99.8135 44.6027 103.598 54.0666 103.783 58.2995C103.875 60.4622 103.727 63.2533 101.807 64.6027C98.7611 66.1923 97.9857 61.904 98.1888 59.6674V59.4641Z" fill="white"/>
</g>
<defs>
<clipPath id="clip0_540_611">
<rect width="134" height="110" fill="white" transform="translate(8 20)"/>
</clipPath>
</defs>
</svg>
