<svg width="150" height="150" viewBox="0 0 150 150" fill="none" xmlns="http://www.w3.org/2000/svg">
<g clip-path="url(#clip0_540_626)">
<path d="M3.05877 94.75C6.38395 90.9332 15.4793 94.2803 19.2348 96.5508C27.939 101.875 34.7067 113.404 46.4818 108.745C52.5649 106.24 57.5722 101.425 63.7531 99.0758C70.6382 96.1985 79.1272 96.5117 85.5233 100.407C91.0783 103.558 94.8534 109.528 100.839 112.053C113.337 117.788 123.704 104.889 135.049 102.227C137.201 101.718 139.665 101.425 141.719 102.227C143.949 103.069 144.731 105.202 142.54 106.573C139.9 108.138 136.301 108.041 133.426 109.137C127.421 111.035 122.452 116.066 116.526 118.336C109.426 121.233 100.976 120.274 94.5209 116.222C90.2764 113.639 87.0099 109.215 82.9219 106.436C77.5429 102.58 70.0319 102.599 64.2617 105.672C59.5673 107.962 55.5575 111.505 50.9023 113.874C43.8216 117.651 34.8632 116.888 28.3497 112.269C22.9903 108.745 19.3326 102.932 13.5429 100.192C11.1761 98.4495 2.64801 98.1363 3.00009 94.887L3.03921 94.7696L3.05877 94.75Z" fill="white"/>
<path d="M6.24693 61.7092C10.1394 58.1468 18.4719 61.2199 22.5012 63.6862C31.0098 69.0102 37.8166 80.1672 49.2983 75.9393C55.577 73.6688 60.3887 68.5992 66.6675 66.2112C73.7286 63.3534 81.8264 63.6079 88.379 67.4052C93.9535 70.4783 97.8851 76.3699 103.773 78.9928C115.509 84.6105 125.895 73.2577 136.281 69.891C139.02 69.0298 142.208 68.3839 144.946 69.4408C147.176 70.3217 147.841 72.3769 145.592 73.6883C142.09 75.45 137.611 75.2934 134.071 77.1725C127.01 80.637 120.614 86.9006 112.242 86.9985C99.5085 87.7031 94.6381 80.2455 85.7775 73.3752C79.9878 69.4213 73.7677 69.617 67.5672 72.6901C56.9266 78.6209 49.6112 86.9006 36.2323 81.831C29.2885 79.4039 24.9266 72.5922 19.176 68.7166C17.2592 67.4443 15.1271 66.5244 12.9364 65.8393C10.9022 65.0368 5.69926 64.4104 6.18825 61.8267L6.24693 61.7288V61.7092Z" fill="white"/>
<path d="M4.70165 78.0728C8.77011 74.3147 17.709 77.8771 21.7774 80.637C29.9339 86.3134 37.1711 96.8441 48.3593 92.1072C54.286 89.7584 59.0391 84.9041 65.0048 82.6922C72.0855 79.8736 80.2616 79.8345 86.9119 83.8079C92.4669 86.9397 96.3789 92.577 102.169 95.376C113.494 101.189 123.43 90.1303 133.464 86.6266C136.574 85.5892 140.193 84.6888 143.362 85.824C145.67 86.7049 146.315 88.8384 143.949 90.1303C140.526 91.794 136.262 91.657 132.819 93.4578C126.051 96.6092 120.457 102.305 112.79 103.147C98.8435 105.045 93.7774 97.3334 84.2126 89.7779C78.5403 85.8436 72.2616 85.9415 66.1589 88.995C61.484 91.246 57.5916 94.7888 52.9168 97.0789C46.4816 100.387 38.6968 100.583 32.3007 97.1572C26.3545 94.2016 22.4034 88.1142 16.9657 84.7083C14.4034 83.025 11.4107 82.1638 8.51583 81.3025C6.91191 80.774 4.15397 79.8541 4.64297 78.1707L4.70165 78.0728Z" fill="white"/>
<path d="M111.284 38.4363C93.8166 35.6764 75.1173 35.3436 60.1735 46.5398C55.264 49.9065 51.3129 54.6825 50.1002 60.6133C49.5916 62.1596 48.7506 64.7629 47.0293 64.5281C43.0586 62.8839 44.9559 55.3284 46.8141 52.1183C55.1466 38.0057 73.5916 30.646 89.2591 30C98.0806 29.863 106.609 30.9983 115.391 32.251C123.332 33.0339 123.137 39.0039 122.648 45.4241C122.139 51.3745 119.049 67.1314 112.418 68.3254C109.191 68.2862 109.797 63.9408 110.775 61.8073C112.868 56.4441 121.298 39.7869 111.518 38.4559L111.303 38.4167L111.284 38.4363Z" fill="white"/>
<path d="M98.9022 46.4419C98.5306 48.3014 96.3986 49.3388 94.736 50.0239C89.2397 52.1378 83.489 53.7037 78.6382 57.0704C77.2299 58.0099 74.4524 59.6737 73.3179 57.7946C72.6137 56.2092 73.8656 54.1735 74.9414 52.9208C78.5991 48.458 84.2519 46.618 89.5722 44.9543C92.3497 44.1126 98.5502 41.705 98.9218 46.2461V46.4419H98.9022Z" fill="white"/>
</g>
<defs>
<clipPath id="clip0_540_626">
<rect width="144" height="90" fill="white" transform="translate(3 30)"/>
</clipPath>
</defs>
</svg>
