<svg width="150" height="150" viewBox="0 0 150 150" fill="none" xmlns="http://www.w3.org/2000/svg">
<g clip-path="url(#clip0_540_640)">
<path d="M142.308 70.5648C122.271 56.0289 100.709 41.6979 79.4258 28.8951C76.2658 26.9756 72.6412 27.5719 69.6485 29.4728C63.0127 33.0695 56.2839 37.1135 49.6108 41.0084C42.343 44.7169 50.7261 23.3975 42.9564 25.0933C38.5325 27.9819 42.2872 41.642 39.4433 46.2823C38.8485 47.3446 37.8261 48.2018 36.7852 48.8913C28.7738 53.9789 20.6509 59.2901 12.6582 64.4523C10.0187 66.409 5.79925 67.9185 4.99997 71.4407C4.77692 74.292 7.60227 75.0188 9.86999 74.9256C13.7734 75.0374 22.6584 75.2983 26.3202 75.4102C30.3352 74.9815 29.9077 77.7955 29.7776 80.7959C29.7032 86.1258 29.6846 90.4679 29.5545 96.6364C29.4244 104.724 29.2757 114.229 29.22 117.434C28.5694 124.553 36.6365 123.789 41.5437 123.901C61.3212 124.683 96.3035 125.149 108.46 124.963C111.174 124.87 114.817 125.373 116.304 123.565C117.103 122.652 117.01 121.236 116.044 120.416C114.984 119.484 113.311 119.316 111.88 119.242C104.78 119.093 97.1586 119.018 90.1695 118.888C87.5487 118.515 83.701 119.763 82.0095 117.359C81.4332 115.701 80.5968 108.657 83.701 108.042C95.3927 107.762 87.5487 95.6673 85.2066 89.592C82.2883 84.5976 76.5075 72.2234 70.0761 79.6219C65.4105 84.4485 56.7486 98.3323 58.2914 104.855C62.4179 110.669 67.3251 103.271 65.9496 115.925C65.5592 120.136 58.533 117.881 55.1686 118.347C51.2466 118.291 47.2502 118.235 43.3095 118.086C40.5585 117.9 37.4358 118.198 36.3577 116.744C35.6699 115.906 35.6142 114.471 35.6142 113.297C35.8186 102.786 35.893 91.6979 36.1532 81.0941C36.1532 76.9197 36.9153 70.0803 31.023 70.1362C24.9262 69.3162 11.0782 72.1116 24.2756 64.6759C35.1681 57.7434 46.6925 50.3449 58.0497 43.4497C63.4774 40.6916 68.9794 35.5481 75.0948 34.0945C78.2733 34.4485 80.9314 37.2439 83.7567 38.7721C99.6865 49.1895 115.3 59.0106 130.431 70.3412C132.996 73.5093 114.743 69.3535 113.739 73.4161C112.902 74.6274 112.717 76.3979 112.642 77.926C112.456 84.1317 112.419 90.4866 112.289 96.6923C112.828 100.159 110.263 109.942 114.687 110.688C119.074 110.52 118.367 104.575 118.479 101.407C118.628 95.6487 118.274 89.6479 118.479 83.6658C118.163 76.2115 120.245 76.9197 127.234 77.0501C132.104 76.6588 138.182 77.721 142.624 76.1929C144.706 75.0933 144.149 72.2793 142.457 70.8071L142.253 70.6207L142.308 70.5648ZM71.8605 117.993C71.656 117.695 71.656 116.633 71.6189 115.272C71.6932 112.458 71.4887 108.917 72.1393 107.594C72.9014 107.184 74.091 107.464 74.9461 107.427C75.7082 107.427 76.0242 107.669 76.0614 108.396C76.1171 111.489 76.0242 114.657 75.9498 117.583C75.9126 117.807 75.8569 117.974 75.6896 118.068C75.2063 118.273 72.8085 118.198 71.972 118.068L71.8791 117.993H71.8605ZM63.9421 101.556C63.7934 100.699 64.4625 99.5436 64.8529 98.6304C67.1578 93.4497 69.9831 87.5794 73.5892 83.2372C75.5967 81.765 78.1246 88.3807 79.2956 90.0766C81.0801 93.7292 82.7716 97.0837 83.8868 100.774C83.9984 101.351 84.0727 101.761 83.6824 102.078C78.9982 102.693 72.9014 102.19 68.0686 102.209C66.6373 102.022 64.8901 102.451 63.9978 101.705L63.9421 101.575V101.556Z" fill="white"/>
<path d="M78.4406 56.0661C65.4477 50.7735 58.1426 71.1052 72.8456 73.7515C84.0541 75.4101 88.478 61.4891 78.6822 56.1779L78.422 56.0661H78.4406ZM77.474 68.1981C74.091 71.7575 67.734 67.1358 70.076 62.8496C73.4219 56.4388 82.9574 62.8682 77.6971 67.9931L77.474 68.1981Z" fill="white"/>
</g>
<defs>
<clipPath id="clip0_540_640">
<rect width="139" height="100" fill="white" transform="translate(5 25)"/>
</clipPath>
</defs>
</svg>
