<svg width="150" height="150" viewBox="0 0 150 150" fill="none" xmlns="http://www.w3.org/2000/svg">
<g clip-path="url(#clip0_540_651)">
<path d="M79.6798 47.9983C80.417 47.1628 80.401 45.54 80.6093 44.4314C81.01 40.6716 81.3465 36.8798 81.7311 33.12C82.3401 28.4284 82.4202 23.5761 84.5356 19.3022C86.4747 15.6549 88.8625 11.9434 92.901 10.5134C95.8177 9.21197 100.064 10.4331 100.353 14.0321C100.529 18.772 97.8209 23.2226 97.2279 27.85C95.8978 36.6548 95.1125 45.54 94.4875 54.4734C93.9427 58.9722 90.6093 62.3303 88.1254 65.849C85.3689 69.0464 83.7504 72.8864 81.5869 76.4534C80.7055 77.8994 79.135 79.008 78.3337 80.4059C77.8048 81.4663 78.0132 82.7196 78.0452 83.8764C78.6382 89.5642 73.2536 93.2436 71.4587 98.2245C69.776 102.129 70.0965 106.419 70.1927 110.564C70.2888 113.826 69.0869 116.943 68.1093 119.996C67.1959 122.518 66.4907 125.057 66.3145 127.692C66.2504 132.271 66.3145 138.521 60.8497 139.79C56.3625 140.819 51.0901 138.168 49.3273 133.894C48.7504 132.592 48.4619 131.098 47.6766 129.909C46.4106 127.965 43.7664 127.21 42.7407 125.041C40.9939 122.245 42.6927 118.951 42.6766 116.043C42.5324 112.717 40.2888 109.841 40.1766 106.467C39.0388 99.7991 43.4619 95.6698 48.7023 92.5688C50.417 91.2513 51.026 89.4035 49.4715 87.7486C48.4619 86.4632 47.6927 85.1136 47.292 83.539C47.0196 81.9966 46.1221 80.7433 44.776 79.956C41.9074 78.1565 40.0805 74.461 41.1221 71.0869C41.683 69.2231 42.9811 67.6485 43.3978 65.7365C44.0228 63.1497 43.3016 60.5789 43.4459 57.96C43.542 56.2086 44.183 54.5858 44.7279 52.9309C45.6254 50.0549 44.6798 46.8896 46.0741 44.1582C48.4779 39.0167 54.9042 36.6066 60.1927 37.426C64.808 37.8277 67.0677 41.9088 70.5933 44.1743C72.5484 45.1865 74.8241 45.0258 76.7632 46.1666C77.7728 46.5522 78.5741 47.9501 79.5837 48.0304L79.6798 47.9822V47.9983ZM55.8978 41.6517C53.5901 42.0373 50.6574 43.8208 49.8401 46.3434C49.167 48.4 49.808 50.5851 49.4234 52.6738C49.1189 54.8108 47.8689 56.7549 47.8369 58.9401C47.8369 62.8283 48.6221 66.9255 46.4106 70.3799C45.8016 71.5689 44.9362 72.9507 45.6093 74.2843C46.4266 75.891 48.4779 76.5176 49.6638 77.8351C51.2664 79.2812 50.9779 81.5949 51.8273 83.4105C52.2119 84.1656 52.8048 84.7922 53.3657 85.4189C56.9875 88.9537 54.8721 94.6254 50.9939 96.9391C37.0356 104.507 50.433 110.275 46.5388 121.04C45.9459 124.012 50.2888 124.639 51.3946 126.872C52.4362 128.238 52.3401 130.038 52.9651 131.58C53.9427 133.524 56.5228 134.633 58.6382 134.986C62.1478 135.179 60.3689 126.198 61.4106 123.723C62.308 119.69 64.1029 115.834 64.76 111.866C65.1286 106.065 64.2632 99.9437 67.1478 94.6093C68.7183 90.6729 72.8209 87.9414 72.901 83.539C72.8529 81.6752 72.6286 79.715 73.4939 77.9958C74.3593 76.0838 76.3305 74.8145 77.3882 73.0632C79.6157 68.6929 82.0837 64.5315 85.1446 60.6753C87.0196 58.2331 89.2471 55.823 89.5837 52.6096C90.6254 41.8927 90.9619 30.7421 94.2311 20.4269C94.7439 18.6113 97.5645 12.6664 93.3818 15.3497C90.2888 18.0008 88.2055 22.0015 87.5324 26.0183C86.1702 33.6984 86.5709 41.5393 85.1606 49.1391C84.2792 53.1237 79.8561 56.3532 76.4266 52.9309C75.6574 52.24 75.0324 51.3563 74.151 50.81C71.9395 49.7175 69.1991 49.8942 67.1478 48.3357C63.1414 45.2829 62.0196 40.7198 56.058 41.6035L55.8657 41.6357L55.8978 41.6517Z" fill="white"/>
<path d="M100.112 114.051C104.92 113.296 106.074 118.325 108.638 121.217C111.603 124.463 109.471 129.412 104.856 129.331C100.929 129.283 97.0673 127.516 94.0384 125.25C91.0737 118.647 93.3012 115.674 99.9198 114.067L100.096 114.035L100.112 114.051ZM105.112 124.367C104.695 123.451 103.718 122.696 103.253 121.732C102.452 120.607 102.195 118.598 100.625 118.373C100.032 118.422 99.3589 118.695 98.7339 118.888C97.9968 119.177 96.923 119.498 96.7147 120.414C96.6506 121.201 97.1955 122.214 97.9327 122.599C100.064 123.354 102.788 124.784 105.064 124.447L105.096 124.35L105.112 124.367Z" fill="white"/>
<path d="M100 90.8021C103.958 90.3843 110 90.8985 109.087 96.3613C108.542 100.539 103.958 103.527 100.112 101.439C94.8397 99.3177 92.5961 91.6536 99.8237 90.8181H100V90.8021ZM99.1666 95.1884C99.8718 96.2489 101.122 97.3414 102.356 97.6307C102.901 97.6789 103.349 97.1968 103.782 96.8594C104.151 96.4899 104.599 95.8151 104.455 95.2848C102.837 94.8832 100.865 94.5618 99.1987 95.1081L99.1666 95.1884Z" fill="white"/>
</g>
<defs>
<clipPath id="clip0_540_651">
<rect width="70" height="130" fill="white" transform="translate(40 10)"/>
</clipPath>
</defs>
</svg>
