<svg width="150" height="150" viewBox="0 0 150 150" fill="none" xmlns="http://www.w3.org/2000/svg">
<g clip-path="url(#clip0_540_676)">
<path d="M68.2421 134.827C57.4606 134.533 46.4195 135.052 35.6207 135C34.5823 134.966 33.5093 134.879 32.6267 134.481C30.1866 133.478 30.5847 130.59 33.319 129.984C34.9457 129.535 36.7974 129.569 38.528 129.517C50.1921 129.396 61.9255 129.396 73.5723 128.739C80.7542 128.739 87.9361 129.05 95.1526 128.86C101.244 128.86 107.457 128.756 113.566 128.722C115.625 128.705 118.342 129.033 118.913 130.797C119.658 133.167 116.439 134.291 113.895 134.153C105.519 134.257 96.9351 134.326 88.4726 134.43C81.8098 134.481 75.1817 135.139 68.519 134.81H68.2594L68.2421 134.827Z" fill="white"/>
<path d="M80.408 113.726C81.1175 112.775 81.0656 111.114 80.9271 109.955C80.4945 108.122 77.8294 108.727 75.8219 108.762C74.7663 108.814 73.7279 108.814 72.6723 108.762C70.6994 108.71 68.1901 108.347 67.9132 110.18C67.7401 112.014 68.2593 114.003 67.6882 115.802C67.1171 118.534 63.7425 119.226 62.7041 116.476C61.7004 112.861 62.4099 108.97 63.0849 105.389C63.1887 102.484 64.6597 98.4536 61.2331 97.0353C51.9226 92.6075 44.1177 85.2567 38.5106 76.626C34.063 69.7767 32.6612 62.3567 32.3497 54.4178C32.2286 38.8514 42.0237 19.5144 59.416 18.9263C62.1157 19.0993 64.2443 17.1448 66.6325 16.3146C72.2742 14.0834 78.6082 14.7234 83.8172 17.8194C86.3265 19.1166 89.1993 18.321 91.899 19.0993C94.2007 19.5836 96.312 20.5176 98.3714 21.6072C113.774 30.6012 118.446 51.7196 113.202 67.9433C110.035 77.3697 103.425 85.274 95.689 91.3968C92.9201 93.6626 89.805 95.4095 86.7246 97.1045C84.7344 98.2633 85.2882 100.373 85.4093 102.501C85.5132 107.24 88.0917 112.463 85.842 117.047C84.0595 119.728 80.5464 119.174 77.5871 119.261C75.8219 119.209 73.5376 119.572 72.2396 118.154C71.0974 116.718 72.3608 114.902 74.0394 114.643C75.8046 114.106 78.9197 114.85 80.2868 113.812L80.3907 113.709L80.408 113.726ZM57.2009 49.4193C57.8066 59.3645 60.1775 69.1195 63.5002 78.442C64.8847 82.5412 70.6302 95.1327 75.9777 92.0367C84.146 86.1734 86.6034 72.1463 88.6455 62.8064C89.9608 56.3377 90.8087 50.0765 89.9435 43.6424C89.4416 37.3639 88.1783 30.6012 84.0422 25.568C79.8023 19.9814 71.0282 18.5285 65.6807 23.2503C57.9796 29.2694 57.5297 40.3388 57.2009 49.1944V49.4193ZM90.7741 24.2016C90.7741 25.3432 92.0721 26.8306 92.4355 28.0413C95.2563 34.8041 96.1043 42.4489 96.2774 49.5922C95.8274 60.9384 93.1104 72.5441 89.2685 83.1985C88.4552 85.3951 87.3822 87.4706 86.3785 89.5461C85.842 90.8952 86.7765 90.4801 87.6591 89.9612C99.1848 82.7142 108.963 70.555 109.568 56.5798C110.312 43.8326 103.84 27.9549 90.8087 24.167L90.7568 24.2189L90.7741 24.2016ZM62.3926 90.7395C62.4965 90.6012 62.3234 90.1688 62.0119 89.598C57.9796 82.3855 55.6434 74.1353 53.7051 66.1272C51.9745 58.5516 50.5901 50.6473 51.7149 42.8468C52.1822 37.2947 52.961 31.5005 55.6607 26.3463C56.0414 25.6545 56.7163 24.1843 55.4703 24.634C39.7047 31.2065 34.7899 51.9445 40.2066 67.0093C42.7332 73.7894 47.6135 79.549 52.8571 84.4611C55.2626 86.6923 58.2219 88.7159 61.1466 90.3936C61.7523 90.7049 62.1849 90.8779 62.3407 90.7741L62.3926 90.7395ZM68.5362 99.7335C68.3285 100.079 68.467 101.013 68.4323 101.688C68.4496 102.397 68.3631 103.245 68.7612 103.608C69.9379 104.161 71.5474 103.919 72.828 103.712C75.1816 103.141 77.7429 104.352 79.9753 103.469C80.2176 103.262 80.2522 102.899 80.2522 102.432C80.1484 101.515 80.3733 100.131 79.8542 99.5778C79.0062 99.4394 77.5352 99.9064 76.5315 99.9064C73.9183 100.235 71.2013 99.7854 68.64 99.647L68.5362 99.7335Z" fill="white"/>
</g>
<defs>
<clipPath id="clip0_540_676">
<rect width="88" height="120" fill="white" transform="translate(31 15)"/>
</clipPath>
</defs>
</svg>
