<svg width="150" height="150" viewBox="0 0 150 150" fill="none" xmlns="http://www.w3.org/2000/svg">
<g clip-path="url(#clip0_540_686)">
<path d="M133.973 75.3567C133.554 78.129 133.838 90.8193 128.461 88.222C126.732 86.6744 127.624 83.6734 127.772 81.5741C128.691 72.5172 128.11 63.097 125.138 54.4304C118.924 35.6977 101.862 23.9897 82.7743 21.9711C72.4671 20.8406 61.2952 21.1636 51.8525 25.8468C49.1913 27.0311 50.9204 29.4399 52.0011 31.2432C54.1355 35.0382 56.3645 38.9678 50.7718 40.475C43.0583 42.9781 35.2772 45.4408 27.7797 47.9708C25.6318 48.6168 22.5788 49.828 20.8497 47.8632C19.4853 46.0464 20.6606 43.6375 21.5386 41.8073C23.646 37.4471 25.7264 33.0196 28.0229 28.7402C30.3869 24.6491 32.7645 20.5177 35.6149 16.7496C38.5733 13.1026 41.7749 15.7537 43.7742 18.9431C45.1927 21.2444 46.5841 22.1864 48.813 20.9618C53.244 18.7682 58.1342 17.3282 63.0919 16.5343C102.227 10.5995 134.77 34.2846 133.986 75.0203V75.3298L133.973 75.3567ZM27.1988 42.6417C33.0617 41.1479 43.2744 37.9989 48.8401 35.7919C49.0157 35.5631 49.0022 35.2805 48.813 34.971C46.8678 32.3871 44.5848 29.117 42.6125 26.3986C41.856 25.322 39.8972 20.1812 38.3437 21.7827C34.1154 28.323 29.8331 35.2536 27.1043 42.5475L27.1988 42.6551V42.6417Z" fill="white"/>
<path d="M110.495 134.946C107.05 134.287 106.104 128.204 102.605 128.325C95.0134 131.38 86.9621 134.031 78.6271 134.045C37.9789 135.727 10.2452 105.717 17.0132 65.4654C18.1479 58.8309 23.6055 60.3516 22.3222 66.542C17.7021 98.5438 36.3174 125.701 69.4546 128.016C78.9649 128.85 89.029 128.244 97.7287 124.073C100.89 122.821 98.8769 120.291 97.7152 118.246C96.3643 115.783 93.8516 111.638 97.364 110.063C105.402 107.022 113.912 104.748 121.788 101.935C128.029 99.3782 131.879 101.679 128.178 108.327C125.557 113.212 116.087 135.202 110.751 135.013L110.495 134.973V134.946ZM122.463 107.291C118.911 107.749 115.223 109.579 111.643 110.494C108.212 111.732 104.28 112.27 101.119 113.98C100.93 114.222 100.957 114.531 101.133 114.881C103.065 117.667 105.415 120.601 107.306 123.427C108.049 124.476 109.968 129.631 111.562 127.962C115.709 121.556 120.032 114.531 122.558 107.399L122.463 107.291Z" fill="white"/>
<path d="M75.0338 63.4601C77.0196 63.1102 78.5731 61.3069 80.5589 60.7551C84.8007 59.2613 89.4883 59.2748 93.7571 60.4456C97.0667 61.3203 102.605 64.5636 99.5524 68.4124C94.5811 73.9569 86.003 75.5718 79.1134 73.607C77.4113 73.4993 77.9652 75.7198 77.8031 76.8502C77.8301 79.0707 77.5329 81.5603 78.492 82.5293C79.0054 83.1079 79.8699 83.3636 80.6399 83.5789C85.9759 84.8574 90.9337 87.7642 94.5676 91.7342C98.9715 96.3904 93.0276 100.468 88.2725 100.172C82.3691 99.9566 76.0199 100.724 70.1841 99.8221C67.8741 99.0146 68.4549 96.1751 70.6974 95.7714C76.1415 95.1927 81.8693 95.7176 87.3674 95.5157C89.7719 95.5964 91.7713 94.7621 88.9479 92.7838C84.8682 90.0654 80.005 88.5313 75.1418 88.0737C72.8318 87.4009 54.7299 93.053 60.917 95.6637C64.686 97.2517 62.3084 100.212 59.0393 99.674C44.5983 96.1616 63.0244 84.2114 69.4951 83.5117C71.8592 83.0676 72.1158 81.5872 72.0483 79.0976C71.8592 77.0386 73.0209 72.6784 69.6167 73.8492C63.4702 75.8005 50.6638 72.9072 49.3534 65.8689C50.9745 60.6071 58.3503 59.5574 63.1595 59.5978C66.4826 59.6651 69.8734 60.5263 72.6157 62.4508C73.2776 62.8814 74.0341 63.3928 74.7636 63.4466H75.0202L75.0338 63.4601ZM55.0271 65.9497C59.1473 69.3141 67.023 71.4942 71.4674 67.7395C68.59 63.2582 59.2824 63.4735 55.0406 65.7882L55.0136 65.9497H55.0271ZM94.7972 65.7882C90.2988 63.5004 81.4505 63.2178 78.3434 67.8337C83.0445 71.4134 90.5419 69.4621 94.8108 65.9497L94.7837 65.7882H94.7972Z" fill="white"/>
</g>
<defs>
<clipPath id="clip0_540_686">
<rect width="118" height="120" fill="white" transform="translate(16 15)"/>
</clipPath>
</defs>
</svg>
