<svg width="309" height="240" viewBox="0 0 309 240" fill="none" xmlns="http://www.w3.org/2000/svg">
<mask id="mask0_91_327" style="mask-type:alpha" maskUnits="userSpaceOnUse" x="0" y="0" width="309" height="240">
<rect width="309" height="240" fill="#D9D9D9"/>
</mask>
<g mask="url(#mask0_91_327)">
<path d="M308.561 160.79C347.17 160.79 347.17 169.52 385.78 169.52C424.39 169.52 424.39 160.79 463 160.79" stroke="white" stroke-width="2.51" stroke-miterlimit="10"/>
<path d="M308.561 155.4C347.17 155.4 347.17 164.13 385.78 164.13C424.39 164.13 424.39 155.4 463 155.4" stroke="white" stroke-width="2.37" stroke-miterlimit="10"/>
<path d="M308.561 150.01C347.17 150.01 347.17 158.74 385.78 158.74C424.39 158.74 424.39 150.01 463 150.01" stroke="white" stroke-width="2.24" stroke-miterlimit="10"/>
<path d="M308.561 144.62C347.17 144.62 347.17 153.35 385.78 153.35C424.39 153.35 424.39 144.62 463 144.62" stroke="white" stroke-width="2.1" stroke-miterlimit="10"/>
<path d="M308.561 139.23C347.17 139.23 347.17 147.96 385.78 147.96C424.39 147.96 424.39 139.23 463 139.23" stroke="white" stroke-width="1.96" stroke-miterlimit="10"/>
<path d="M308.561 133.84C347.17 133.84 347.17 142.57 385.78 142.57C424.39 142.57 424.39 133.84 463 133.84" stroke="white" stroke-width="1.82" stroke-miterlimit="10"/>
<path d="M308.561 128.45C347.17 128.45 347.17 137.18 385.78 137.18C424.39 137.18 424.39 128.45 463 128.45" stroke="white" stroke-width="1.68" stroke-miterlimit="10"/>
<path d="M308.561 123.06C347.17 123.06 347.17 131.79 385.78 131.79C424.39 131.79 424.39 123.06 463 123.06" stroke="white" stroke-width="1.54" stroke-miterlimit="10"/>
<path d="M308.561 117.67C347.17 117.67 347.17 126.4 385.78 126.4C424.39 126.4 424.39 117.67 463 117.67" stroke="white" stroke-width="1.4" stroke-miterlimit="10"/>
<path d="M308.561 112.28C347.17 112.28 347.17 121.01 385.78 121.01C424.39 121.01 424.39 112.28 463 112.28" stroke="white" stroke-width="1.26" stroke-miterlimit="10"/>
<path d="M308.561 106.88C347.17 106.88 347.17 115.61 385.78 115.61C424.39 115.61 424.39 106.88 463 106.88" stroke="white" stroke-width="1.12" stroke-miterlimit="10"/>
<path d="M308.561 101.49C347.17 101.49 347.17 110.22 385.78 110.22C424.39 110.22 424.39 101.49 463 101.49" stroke="white" stroke-width="0.98" stroke-miterlimit="10"/>
<path d="M308.561 96.1001C347.17 96.1001 347.17 104.83 385.78 104.83C424.39 104.83 424.39 96.1001 463 96.1001" stroke="white" stroke-width="0.84" stroke-miterlimit="10"/>
<path d="M308.561 90.71C347.17 90.71 347.17 99.44 385.78 99.44C424.39 99.44 424.39 90.71 463 90.71" stroke="white" stroke-width="0.7" stroke-miterlimit="10"/>
<path d="M308.561 85.3201C347.17 85.3201 347.17 94.0501 385.78 94.0501C424.39 94.0501 424.39 85.3201 463 85.3201" stroke="white" stroke-width="0.57" stroke-miterlimit="10"/>
<path d="M-0.337891 160.93C38.272 160.93 38.272 169.66 76.8819 169.66C115.492 169.66 115.492 160.93 154.102 160.93" stroke="white" stroke-width="2.51" stroke-miterlimit="10"/>
<path d="M-0.337891 155.54C38.272 155.54 38.272 164.27 76.8819 164.27C115.492 164.27 115.492 155.54 154.102 155.54" stroke="white" stroke-width="2.37" stroke-miterlimit="10"/>
<path d="M-0.337891 150.15C38.272 150.15 38.272 158.88 76.8819 158.88C115.492 158.88 115.492 150.15 154.102 150.15" stroke="white" stroke-width="2.24" stroke-miterlimit="10"/>
<path d="M-0.337891 144.76C38.272 144.76 38.272 153.49 76.8819 153.49C115.492 153.49 115.492 144.76 154.102 144.76" stroke="white" stroke-width="2.1" stroke-miterlimit="10"/>
<path d="M-0.337891 139.37C38.272 139.37 38.272 148.1 76.8819 148.1C115.492 148.1 115.492 139.37 154.102 139.37" stroke="white" stroke-width="1.96" stroke-miterlimit="10"/>
<path d="M-0.337891 133.98C38.272 133.98 38.272 142.71 76.8819 142.71C115.492 142.71 115.492 133.98 154.102 133.98" stroke="white" stroke-width="1.82" stroke-miterlimit="10"/>
<path d="M-0.337891 128.59C38.272 128.59 38.272 137.32 76.8819 137.32C115.492 137.32 115.492 128.59 154.102 128.59" stroke="white" stroke-width="1.68" stroke-miterlimit="10"/>
<path d="M-0.337891 123.2C38.272 123.2 38.272 131.93 76.8819 131.93C115.492 131.93 115.492 123.2 154.102 123.2" stroke="white" stroke-width="1.54" stroke-miterlimit="10"/>
<path d="M-0.337891 117.81C38.272 117.81 38.272 126.54 76.8819 126.54C115.492 126.54 115.492 117.81 154.102 117.81" stroke="white" stroke-width="1.4" stroke-miterlimit="10"/>
<path d="M-0.337891 112.42C38.272 112.42 38.272 121.15 76.8819 121.15C115.492 121.15 115.492 112.42 154.102 112.42" stroke="white" stroke-width="1.26" stroke-miterlimit="10"/>
<path d="M-0.337891 107.02C38.272 107.02 38.272 115.75 76.8819 115.75C115.492 115.75 115.492 107.02 154.102 107.02" stroke="white" stroke-width="1.12" stroke-miterlimit="10"/>
<path d="M-0.337891 101.63C38.272 101.63 38.272 110.36 76.8819 110.36C115.492 110.36 115.492 101.63 154.102 101.63" stroke="white" stroke-width="0.98" stroke-miterlimit="10"/>
<path d="M-0.337891 96.24C38.272 96.24 38.272 104.97 76.8819 104.97C115.492 104.97 115.492 96.24 154.102 96.24" stroke="white" stroke-width="0.84" stroke-miterlimit="10"/>
<path d="M-0.337891 90.8501C38.272 90.8501 38.272 99.5801 76.8819 99.5801C115.492 99.5801 115.492 90.8501 154.102 90.8501" stroke="white" stroke-width="0.7" stroke-miterlimit="10"/>
<path d="M-0.337891 85.46C38.272 85.46 38.272 94.19 76.8819 94.19C115.492 94.19 115.492 85.46 154.102 85.46" stroke="white" stroke-width="0.57" stroke-miterlimit="10"/>
<path d="M308.561 163.95C269.951 163.95 269.951 155.22 231.341 155.22C192.731 155.22 192.731 163.95 154.121 163.95" stroke="white" stroke-width="2.51" stroke-miterlimit="10"/>
<path d="M308.561 169.34C269.951 169.34 269.951 160.61 231.341 160.61C192.731 160.61 192.731 169.34 154.121 169.34" stroke="white" stroke-width="2.37" stroke-miterlimit="10"/>
<path d="M308.561 174.73C269.951 174.73 269.951 166 231.341 166C192.731 166 192.731 174.73 154.121 174.73" stroke="white" stroke-width="2.24" stroke-miterlimit="10"/>
<path d="M308.561 180.12C269.951 180.12 269.951 171.39 231.341 171.39C192.731 171.39 192.731 180.12 154.121 180.12" stroke="white" stroke-width="2.1" stroke-miterlimit="10"/>
<path d="M308.561 185.51C269.951 185.51 269.951 176.78 231.341 176.78C192.731 176.78 192.731 185.51 154.121 185.51" stroke="white" stroke-width="1.96" stroke-miterlimit="10"/>
<path d="M308.561 190.9C269.951 190.9 269.951 182.17 231.341 182.17C192.731 182.17 192.731 190.9 154.121 190.9" stroke="white" stroke-width="1.82" stroke-miterlimit="10"/>
<path d="M308.561 196.29C269.951 196.29 269.951 187.56 231.341 187.56C192.731 187.56 192.731 196.29 154.121 196.29" stroke="white" stroke-width="1.68" stroke-miterlimit="10"/>
<path d="M308.561 201.68C269.951 201.68 269.951 192.95 231.341 192.95C192.731 192.95 192.731 201.68 154.121 201.68" stroke="white" stroke-width="1.54" stroke-miterlimit="10"/>
<path d="M308.561 207.07C269.951 207.07 269.951 198.34 231.341 198.34C192.731 198.34 192.731 207.07 154.121 207.07" stroke="white" stroke-width="1.4" stroke-miterlimit="10"/>
<path d="M308.561 212.46C269.951 212.46 269.951 203.73 231.341 203.73C192.731 203.73 192.731 212.46 154.121 212.46" stroke="white" stroke-width="1.26" stroke-miterlimit="10"/>
<path d="M308.561 217.86C269.951 217.86 269.951 209.13 231.341 209.13C192.731 209.13 192.731 217.86 154.121 217.86" stroke="white" stroke-width="1.12" stroke-miterlimit="10"/>
<path d="M308.561 223.25C269.951 223.25 269.951 214.52 231.341 214.52C192.731 214.52 192.731 223.25 154.121 223.25" stroke="white" stroke-width="0.98" stroke-miterlimit="10"/>
<path d="M308.561 228.64C269.951 228.64 269.951 219.91 231.341 219.91C192.731 219.91 192.731 228.64 154.121 228.64" stroke="white" stroke-width="0.84" stroke-miterlimit="10"/>
<path d="M308.561 234.03C269.951 234.03 269.951 225.3 231.341 225.3C192.731 225.3 192.731 234.03 154.121 234.03" stroke="white" stroke-width="0.7" stroke-miterlimit="10"/>
<path d="M308.561 239.42C269.951 239.42 269.951 230.69 231.341 230.69C192.731 230.69 192.731 239.42 154.121 239.42" stroke="white" stroke-width="0.57" stroke-miterlimit="10"/>
<path d="M308.561 9.99001C269.951 9.99001 269.951 1.26001 231.341 1.26001C192.731 1.26001 192.731 9.99001 154.121 9.99001" stroke="white" stroke-width="2.51" stroke-miterlimit="10"/>
<path d="M308.561 15.3799C269.951 15.3799 269.951 6.6499 231.341 6.6499C192.731 6.6499 192.731 15.3799 154.121 15.3799" stroke="white" stroke-width="2.37" stroke-miterlimit="10"/>
<path d="M308.561 20.77C269.951 20.77 269.951 12.04 231.341 12.04C192.731 12.04 192.731 20.77 154.121 20.77" stroke="white" stroke-width="2.24" stroke-miterlimit="10"/>
<path d="M308.561 26.1599C269.951 26.1599 269.951 17.4299 231.341 17.4299C192.731 17.4299 192.731 26.1599 154.121 26.1599" stroke="white" stroke-width="2.1" stroke-miterlimit="10"/>
<path d="M308.561 31.5501C269.951 31.5501 269.951 22.8201 231.341 22.8201C192.731 22.8201 192.731 31.5501 154.121 31.5501" stroke="white" stroke-width="1.96" stroke-miterlimit="10"/>
<path d="M308.561 36.94C269.951 36.94 269.951 28.21 231.341 28.21C192.731 28.21 192.731 36.94 154.121 36.94" stroke="white" stroke-width="1.82" stroke-miterlimit="10"/>
<path d="M308.561 42.3301C269.951 42.3301 269.951 33.6001 231.341 33.6001C192.731 33.6001 192.731 42.3301 154.121 42.3301" stroke="white" stroke-width="1.68" stroke-miterlimit="10"/>
<path d="M308.561 47.73C269.951 47.73 269.951 39 231.341 39C192.731 39 192.731 47.73 154.121 47.73" stroke="white" stroke-width="1.54" stroke-miterlimit="10"/>
<path d="M308.561 53.1199C269.951 53.1199 269.951 44.3899 231.341 44.3899C192.731 44.3899 192.731 53.1199 154.121 53.1199" stroke="white" stroke-width="1.4" stroke-miterlimit="10"/>
<path d="M308.561 58.51C269.951 58.51 269.951 49.78 231.341 49.78C192.731 49.78 192.731 58.51 154.121 58.51" stroke="white" stroke-width="1.26" stroke-miterlimit="10"/>
<path d="M308.561 63.8999C269.951 63.8999 269.951 55.1699 231.341 55.1699C192.731 55.1699 192.731 63.8999 154.121 63.8999" stroke="white" stroke-width="1.12" stroke-miterlimit="10"/>
<path d="M308.561 69.2901C269.951 69.2901 269.951 60.5601 231.341 60.5601C192.731 60.5601 192.731 69.2901 154.121 69.2901" stroke="white" stroke-width="0.98" stroke-miterlimit="10"/>
<path d="M308.561 74.68C269.951 74.68 269.951 65.95 231.341 65.95C192.731 65.95 192.731 74.68 154.121 74.68" stroke="white" stroke-width="0.84" stroke-miterlimit="10"/>
<path d="M308.561 80.0701C269.951 80.0701 269.951 71.3401 231.341 71.3401C192.731 71.3401 192.731 80.0701 154.121 80.0701" stroke="white" stroke-width="0.7" stroke-miterlimit="10"/>
<path d="M308.561 85.46C269.951 85.46 269.951 76.73 231.341 76.73C192.731 76.73 192.731 85.46 154.121 85.46" stroke="white" stroke-width="0.57" stroke-miterlimit="10"/>
</g>
</svg>
