<svg width="390" height="212" viewBox="0 0 390 212" fill="none" xmlns="http://www.w3.org/2000/svg">
<mask id="mask0_115_1008" style="mask-type:alpha" maskUnits="userSpaceOnUse" x="0" y="0" width="390" height="212">
<rect width="390" height="212" fill="#D9D9D9"/>
</mask>
<g mask="url(#mask0_115_1008)">
<mask id="mask1_115_1008" style="mask-type:luminance" maskUnits="userSpaceOnUse" x="0" y="-7" width="390" height="225">
<path d="M0 217.463L390 217.463L390 -6.00023L0 -6.00023L0 217.463Z" fill="white"/>
</mask>
<g mask="url(#mask1_115_1008)">
<path d="M291.414 194.195C315.793 194.195 328.181 197.761 340.158 201.207C351.886 204.583 364.011 208.079 387.855 208.079C411.699 208.079 423.824 204.587 435.551 201.207C447.529 197.761 459.917 194.195 484.296 194.195V197.459C460.452 197.459 448.327 200.951 436.599 204.331C424.622 207.777 412.234 211.344 387.855 211.344C363.476 211.344 351.088 207.777 339.111 204.331C327.383 200.955 315.258 197.459 291.414 197.459V194.195Z" fill="#AAD5ED"/>
<path d="M291.414 187.893C315.775 187.893 328.159 191.46 340.132 194.906C351.864 198.286 363.998 201.782 387.859 201.782C411.721 201.782 423.85 198.29 435.587 194.906C447.56 191.46 459.944 187.893 484.305 187.893V190.98C460.443 190.98 448.314 194.472 436.577 197.856C424.604 201.302 412.221 204.869 387.859 204.869C363.498 204.869 351.115 201.302 339.142 197.856C327.409 194.476 315.276 190.98 291.414 190.98V187.893Z" fill="#AAD5ED"/>
<path d="M291.414 181.601C315.766 181.601 328.136 185.163 340.096 188.613C351.842 191.989 363.984 195.489 387.855 195.489C411.726 195.489 423.868 191.989 435.614 188.613C447.574 185.163 459.948 181.601 484.296 181.601V184.509C460.425 184.509 448.283 188.009 436.537 191.385C424.577 194.836 412.203 198.398 387.855 198.398C363.507 198.398 351.133 194.836 339.173 191.385C327.427 188.009 315.285 184.509 291.414 184.509V181.601Z" fill="#AAD5ED"/>
<path d="M291.414 175.308C315.748 175.308 328.114 178.87 340.069 182.316C351.82 185.696 363.971 189.196 387.859 189.196C411.748 189.196 423.899 185.696 435.65 182.316C447.605 178.87 459.971 175.308 484.305 175.308V178.034C460.416 178.034 448.265 181.534 436.515 184.914C424.559 188.361 412.194 191.923 387.859 191.923C363.525 191.923 351.16 188.361 339.204 184.914C327.454 181.534 315.302 178.034 291.414 178.034V175.308Z" fill="#AAD5ED"/>
<path d="M291.414 169.007C315.731 169.007 328.092 172.569 340.038 176.007C351.793 179.396 363.949 182.892 387.855 182.892C411.761 182.892 423.917 179.391 435.672 176.007C447.623 172.565 459.984 169.007 484.296 169.007V171.555C460.39 171.555 448.234 175.056 436.479 178.44C424.528 181.882 412.167 185.44 387.855 185.44C363.543 185.44 351.177 181.878 339.231 178.44C327.476 175.051 315.32 171.555 291.414 171.555V169.007Z" fill="#AAD5ED"/>
<path d="M291.414 162.718C315.717 162.718 328.069 166.276 340.011 169.714C351.775 173.103 363.94 176.607 387.855 176.607C411.77 176.607 423.94 173.103 435.699 169.714C447.645 166.272 459.993 162.718 484.296 162.718V165.076C460.381 165.076 448.211 168.581 436.452 171.969C424.506 175.411 412.158 178.965 387.855 178.965C363.552 178.965 351.2 175.407 339.258 171.969C327.494 168.581 315.329 165.076 291.414 165.076V162.718Z" fill="#AAD5ED"/>
<path d="M291.414 156.425C315.699 156.425 328.043 159.975 339.985 163.417C351.757 166.806 363.926 170.314 387.859 170.314C411.792 170.314 423.962 166.806 435.734 163.417C447.672 159.975 460.015 156.425 484.305 156.425V158.602C460.372 158.602 448.202 162.11 436.43 165.498C424.492 168.941 412.149 172.49 387.859 172.49C363.57 172.49 351.231 168.941 339.289 165.498C327.516 162.11 315.347 158.602 291.414 158.602V156.425Z" fill="#AAD5ED"/>
<path d="M291.414 150.128C315.69 150.128 328.029 153.678 339.953 157.116C351.73 160.509 363.909 164.017 387.855 164.017C411.801 164.017 423.98 160.509 435.757 157.116C447.685 153.682 460.02 150.128 484.296 150.128V152.127C460.35 152.127 448.171 155.635 436.394 159.028C424.466 162.462 412.131 166.016 387.855 166.016C363.579 166.016 351.24 162.466 339.316 159.028C327.539 155.635 315.36 152.127 291.414 152.127V150.128Z" fill="#AAD5ED"/>
<path d="M291.414 143.831C315.673 143.831 328.002 147.381 339.927 150.819C351.712 154.212 363.895 157.72 387.859 157.72C411.824 157.72 424.006 154.212 435.792 150.819C447.712 147.385 460.046 143.831 484.305 143.831V145.648C460.341 145.648 448.158 149.156 436.372 152.549C424.452 155.983 412.118 159.536 387.859 159.536C363.601 159.536 351.271 155.987 339.347 152.549C327.561 149.156 315.378 145.648 291.414 145.648V143.831Z" fill="#AAD5ED"/>
<path d="M291.414 137.539C315.664 137.539 327.98 141.084 339.9 144.518C351.69 147.911 363.886 151.423 387.859 151.423C411.833 151.423 424.029 147.911 435.819 144.518C447.734 141.084 460.055 137.539 484.305 137.539V139.177C460.332 139.177 448.136 142.689 436.345 146.082C424.43 149.516 412.109 153.062 387.859 153.062C363.61 153.062 351.293 149.516 339.374 146.082C327.583 142.689 315.387 139.177 291.414 139.177V137.539Z" fill="#AAD5ED"/>
<path d="M291.414 131.242C315.646 131.242 327.958 134.787 339.869 138.217C351.663 141.614 363.864 145.131 387.855 145.131C411.846 145.131 424.047 141.618 435.841 138.217C447.752 134.787 460.064 131.242 484.296 131.242V132.702C460.305 132.702 448.104 136.215 436.31 139.616C424.399 143.045 412.087 146.591 387.855 146.591C363.623 146.591 351.311 143.045 339.4 139.616C327.606 136.219 315.405 132.702 291.414 132.702V131.242Z" fill="#AAD5ED"/>
<path d="M291.414 124.949C315.628 124.949 327.936 128.494 339.842 131.924C351.646 135.321 363.851 138.838 387.859 138.838C411.868 138.838 424.073 135.325 435.877 131.924C447.783 128.494 460.091 124.949 484.305 124.949V126.227C460.296 126.227 448.091 129.74 436.287 133.141C424.381 136.57 412.073 140.116 387.859 140.116C363.646 140.116 351.338 136.57 339.432 133.141C327.628 129.744 315.423 126.227 291.414 126.227V124.949Z" fill="#AAD5ED"/>
<path d="M291.414 118.648C315.615 118.648 327.913 122.194 339.811 125.619C351.619 129.024 363.837 132.537 387.855 132.537C411.873 132.537 424.091 129.024 435.899 125.619C447.797 122.194 460.095 118.648 484.296 118.648V119.748C460.278 119.748 448.06 123.261 436.252 126.666C424.354 130.092 412.056 133.637 387.855 133.637C363.654 133.637 351.356 130.092 339.458 126.666C327.65 123.261 315.432 119.748 291.414 119.748V118.648Z" fill="#AAD5ED"/>
<path d="M291.414 112.355C315.597 112.355 327.891 115.897 339.784 119.322C351.601 122.727 363.819 126.244 387.859 126.244C411.899 126.244 424.113 122.723 435.935 119.322C447.828 115.897 460.118 112.355 484.305 112.355V113.274C460.269 113.274 448.051 116.795 436.229 120.195C424.336 123.621 412.047 127.163 387.859 127.163C363.672 127.163 351.383 123.621 339.49 120.195C327.672 116.79 315.454 113.274 291.414 113.274V112.355Z" fill="#AAD5ED"/>
<path d="M291.414 106.062C315.588 106.062 327.873 109.604 339.757 113.029C351.583 116.434 363.811 119.951 387.859 119.951C411.908 119.951 424.136 116.43 435.962 113.029C447.841 109.604 460.131 106.062 484.305 106.062V106.803C460.256 106.803 448.029 110.323 436.203 113.724C424.323 117.15 412.033 120.691 387.859 120.691C363.686 120.691 351.4 117.15 339.516 113.724C327.69 110.319 315.463 106.803 291.414 106.803V106.062Z" fill="#AAD5ED"/>
<path d="M194.97 0.466309C219.349 0.466309 231.733 4.03265 243.715 7.48314C255.443 10.8592 267.567 14.3552 291.42 14.3552V17.6195C267.041 17.6195 254.653 14.0531 242.667 10.6027C230.939 7.22663 218.814 3.73062 194.97 3.73062C171.126 3.73062 159.002 7.22249 147.274 10.6027C135.296 14.0531 122.908 17.6195 98.5293 17.6195V14.3552C122.373 14.3552 134.498 10.8633 146.226 7.48314C158.203 4.03265 170.591 0.466309 194.97 0.466309Z" fill="#AAD5ED"/>
<path d="M194.969 6.93701C219.33 6.93701 231.713 10.5033 243.682 13.9497C255.423 17.3299 267.562 20.8259 291.419 20.8259V23.9123C267.053 23.9123 254.67 20.3459 242.697 16.8996C230.964 13.5194 218.83 10.0234 194.969 10.0234C171.107 10.0234 158.978 13.5153 147.241 16.8996C135.268 20.3459 122.885 23.9123 98.5234 23.9123V20.8259C122.385 20.8259 134.514 17.334 146.251 13.9497C158.224 10.5033 170.608 6.93701 194.969 6.93701Z" fill="#AAD5ED"/>
<path d="M194.97 13.416C219.322 13.416 231.692 16.9782 243.652 20.4246C255.398 23.8047 267.541 27.3049 291.42 27.3049V30.2134C267.068 30.2134 254.693 26.6512 242.725 23.2007C230.983 19.8205 218.841 16.3245 194.97 16.3245C171.1 16.3245 158.957 19.8247 147.211 23.2007C135.251 26.6512 122.877 30.2134 98.5293 30.2134V27.3049C122.4 27.3049 134.542 23.8047 146.288 20.4287C158.248 16.9782 170.623 13.416 194.97 13.416Z" fill="#AAD5ED"/>
<path d="M194.969 19.8909C219.303 19.8909 231.669 23.4531 243.624 26.8994C255.374 30.2796 267.526 33.7797 291.419 33.7797V36.5062C267.08 36.5062 254.714 32.944 242.759 29.4976C231.009 26.1175 218.857 22.6173 194.969 22.6173C171.08 22.6173 158.929 26.1175 147.179 29.4976C135.223 32.944 122.858 36.5062 98.5234 36.5062V33.7797C122.412 33.7797 134.563 30.2796 146.314 26.8994C158.269 23.4531 170.634 19.8909 194.969 19.8909Z" fill="#AAD5ED"/>
<path d="M194.969 26.3655C219.285 26.3655 231.646 29.9277 243.593 33.3658C255.348 36.7542 267.508 40.2502 291.414 40.2502V42.7988C267.093 42.7988 254.732 39.2366 242.781 35.7985C231.027 32.41 218.866 28.914 194.964 28.914C171.063 28.914 158.902 32.4142 147.147 35.7985C135.197 39.2407 122.835 42.7988 98.5234 42.7988V40.2502C122.43 40.2502 134.586 36.7501 146.34 33.3658C158.291 29.9235 170.652 26.3655 194.964 26.3655H194.969Z" fill="#AAD5ED"/>
<path d="M194.97 32.8447C219.273 32.8447 231.625 36.4028 243.567 39.8367C255.335 43.2293 267.495 46.7336 291.42 46.7336V49.0918C267.108 49.0918 254.76 45.5338 242.818 42.0957C231.05 38.7073 218.889 35.203 194.974 35.203C171.059 35.203 158.89 38.7073 147.13 42.0957C135.184 45.5379 122.836 49.0918 98.5332 49.0918V46.7336C122.448 46.7336 134.618 43.2293 146.377 39.8409C158.323 36.3987 170.671 32.8447 194.974 32.8447H194.97Z" fill="#AAD5ED"/>
<path d="M194.969 39.3237C219.254 39.3237 231.597 42.8735 243.539 46.3157C255.312 49.7042 267.486 53.2126 291.419 53.2126V55.3888C267.124 55.3888 254.781 51.839 242.844 48.3968C231.071 45.0084 218.902 41.4999 194.969 41.4999C171.036 41.4999 158.866 45.0084 147.094 48.3968C135.156 51.839 122.813 55.3888 98.5234 55.3888V53.2126C122.456 53.2126 134.626 49.7042 146.398 46.3157C158.336 42.8735 170.679 39.3237 194.969 39.3237Z" fill="#AAD5ED"/>
<path d="M194.97 45.7942C219.247 45.7942 231.576 49.344 243.51 52.7821C255.286 56.1746 267.465 59.683 291.42 59.683V61.6814C267.144 61.6814 254.805 58.1316 242.872 54.6935C231.095 51.3009 218.917 47.7925 194.97 47.7925C171.024 47.7925 158.846 51.3009 147.069 54.6935C135.14 58.1274 122.806 61.6814 98.5293 61.6814V59.683C122.476 59.683 134.654 56.1746 146.431 52.7821C158.359 49.3481 170.694 45.7942 194.97 45.7942Z" fill="#AAD5ED"/>
<path d="M194.969 52.2693C219.227 52.2693 231.557 55.8191 243.481 59.2572C255.267 62.6497 267.45 66.1581 291.419 66.1581V67.9744C267.156 67.9744 254.821 64.4246 242.902 60.9865C231.116 57.594 218.933 54.0856 194.969 54.0856C171.005 54.0856 158.822 57.594 147.036 60.9865C135.116 64.4205 122.782 67.9744 98.5234 67.9744V66.1581C122.488 66.1581 134.67 62.6497 146.456 59.2572C158.376 55.8232 170.71 52.2693 194.969 52.2693Z" fill="#AAD5ED"/>
<path d="M194.969 58.7441C219.209 58.7441 231.535 62.2898 243.455 65.7237C255.245 69.1163 267.441 72.6289 291.419 72.6289V74.2672C267.169 74.2672 254.844 70.7174 242.928 67.2876C231.138 63.8909 218.942 60.3825 194.969 60.3825C170.996 60.3825 158.8 63.8951 147.009 67.2876C135.094 70.7216 122.773 74.2672 98.5234 74.2672V72.6289C122.497 72.6289 134.693 69.1163 146.483 65.7237C158.398 62.2898 170.719 58.7441 194.969 58.7441Z" fill="#AAD5ED"/>
<path d="M194.97 65.2229C219.201 65.2229 231.514 68.7686 243.424 72.1984C255.219 75.5951 267.42 79.1118 291.42 79.1118V80.5722C267.183 80.5722 254.867 77.0266 242.96 73.5968C231.166 70.2001 218.965 66.6834 194.974 66.6834C170.983 66.6834 158.783 70.1959 146.988 73.5968C135.077 77.0266 122.765 80.5722 98.5332 80.5722V79.1118C122.524 79.1118 134.725 75.5992 146.52 72.1984C158.43 68.7686 170.742 65.2229 194.974 65.2229H194.97Z" fill="#AAD5ED"/>
<path d="M194.969 71.698C219.183 71.698 231.49 75.2436 243.397 78.6735C255.2 82.0702 267.41 85.5869 291.419 85.5869V86.8653C267.2 86.8653 254.893 83.3196 242.986 79.8898C231.183 76.4931 218.978 72.9764 194.969 72.9764C170.96 72.9764 158.755 76.489 146.951 79.8898C135.045 83.3196 122.737 86.8653 98.5234 86.8653V85.5869C122.532 85.5869 134.737 82.0743 146.541 78.6735C158.447 75.2436 170.755 71.698 194.969 71.698Z" fill="#AAD5ED"/>
<path d="M194.969 78.1685C219.169 78.1685 231.468 81.7141 243.365 85.1398C255.178 88.5448 267.392 92.0573 291.414 92.0573V93.1578C267.214 93.1578 254.911 89.6122 243.009 86.1865C231.196 82.7815 218.982 79.269 194.964 79.269C170.947 79.269 158.728 82.7815 146.92 86.1865C135.023 89.6122 122.724 93.1578 98.5234 93.1578V92.0573C122.541 92.0573 134.76 88.5448 146.568 85.1398C158.465 81.7141 170.764 78.1685 194.964 78.1685H194.969Z" fill="#AAD5ED"/>
<path d="M194.969 84.6436C219.152 84.6436 231.446 88.1851 243.339 91.6107C255.156 95.0157 267.383 98.5324 291.419 98.5324V99.4509C267.227 99.4509 254.937 95.9094 243.044 92.4837C231.227 89.0787 219.009 85.562 194.969 85.562C170.929 85.562 158.715 89.0829 146.893 92.4837C135 95.9094 122.711 99.4509 98.5234 99.4509V98.5324C122.559 98.5324 134.777 95.0116 146.599 91.6107C158.492 88.1851 170.782 84.6436 194.969 84.6436Z" fill="#AAD5ED"/>
<path d="M194.969 91.1226C219.138 91.1226 231.423 94.6641 243.312 98.0897C255.138 101.495 267.365 105.011 291.419 105.011V105.752C267.245 105.752 254.96 102.21 243.071 98.7848C231.245 95.3798 219.018 91.8631 194.969 91.8631C170.92 91.8631 158.693 95.384 146.867 98.7848C134.987 102.21 122.697 105.752 98.5234 105.752V105.011C122.572 105.011 134.8 101.491 146.626 98.0897C158.505 94.6641 170.795 91.1226 194.969 91.1226Z" fill="#AAD5ED"/>
<path d="M-94.3672 194.195C-69.9883 194.195 -57.6004 197.761 -45.6138 201.207C-33.8859 204.583 -21.7611 208.079 2.08266 208.079C25.9264 208.079 38.0512 204.587 49.7792 201.207C61.7568 197.761 74.1447 194.195 98.5236 194.195V197.459C74.6798 197.459 62.555 200.951 50.8271 204.331C38.8495 207.777 26.4616 211.344 2.08266 211.344C-22.2962 211.344 -34.6797 207.777 -46.6618 204.331C-58.3897 200.955 -70.5145 197.459 -94.3672 197.459V194.195Z" fill="#AAD5ED"/>
<path d="M-94.3672 187.893C-70.0017 187.893 -57.6182 191.46 -45.6451 194.906C-33.9127 198.286 -21.779 201.782 2.08266 201.782C25.9443 201.782 38.0735 198.29 49.8104 194.906C61.7836 191.46 74.167 187.893 98.528 187.893V190.98C74.6664 190.98 62.5372 194.472 50.8003 197.856C38.8272 201.302 26.4437 204.869 2.08266 204.869C-22.2784 204.869 -34.6618 201.302 -46.6306 197.856C-58.3718 194.476 -70.51 190.98 -94.3672 190.98V187.893Z" fill="#AAD5ED"/>
<path d="M-94.3672 181.601C-70.015 181.601 -57.6405 185.163 -45.6718 188.613C-33.9305 191.993 -21.7879 195.489 2.08266 195.489C25.9532 195.489 38.0958 191.989 49.8416 188.613C61.8014 185.163 74.1759 181.601 98.5236 181.601V184.509C74.653 184.509 62.5104 188.009 50.7647 191.385C38.8049 194.836 26.4303 198.398 2.08266 198.398C-22.265 198.398 -34.6395 194.836 -46.5993 191.389C-58.3451 188.009 -70.4877 184.509 -94.3672 184.509V181.601Z" fill="#AAD5ED"/>
<path d="M-94.3672 175.308C-70.0284 175.308 -57.6628 178.87 -45.7075 182.316C-33.9573 185.696 -21.8057 189.196 2.08266 189.196C25.971 189.196 38.1226 185.696 49.8728 182.316C61.8281 178.87 74.1937 175.308 98.528 175.308V178.034C74.6397 178.034 62.4881 181.534 50.7379 184.914C38.7826 188.361 26.417 191.923 2.08266 191.923C-22.2517 191.923 -34.6172 188.361 -46.5726 184.914C-58.3228 181.534 -70.4743 178.034 -94.3672 178.034V175.308Z" fill="#AAD5ED"/>
<path d="M-94.3672 169.007C-70.0463 169.007 -57.6851 172.569 -45.7342 176.007C-33.9796 179.396 -21.8191 182.892 2.08266 182.892C25.9844 182.892 38.1449 179.391 49.8996 176.007C61.8504 172.565 74.2116 169.007 98.5236 169.007V171.555C74.6174 171.555 62.4614 175.056 50.7067 178.44C38.7558 181.882 26.3947 185.44 2.08266 185.44C-22.2294 185.44 -34.5949 181.878 -46.5414 178.44C-58.296 175.051 -70.4565 171.555 -94.3627 171.555V169.007H-94.3672Z" fill="#AAD5ED"/>
<path d="M-94.3666 162.718C-70.0546 162.718 -57.7069 166.276 -45.7649 169.714C-33.9969 173.103 -21.8364 176.607 2.07876 176.607C25.9939 176.607 38.1633 173.103 49.9224 169.714C61.8688 166.272 74.2166 162.718 98.5197 162.718V165.076C74.6045 165.076 62.4352 168.581 50.676 171.969C38.7296 175.411 26.3819 178.965 2.07876 178.965C-22.2243 178.965 -34.5766 175.407 -46.5185 171.973C-58.2866 168.581 -70.447 165.076 -94.3711 165.076V162.718H-94.3666Z" fill="#AAD5ED"/>
<path d="M-94.3672 156.425C-70.073 156.425 -57.7297 159.975 -45.7922 163.417C-34.0197 166.806 -21.8503 170.314 2.08266 170.314C26.0156 170.314 38.185 166.806 49.9575 163.417C61.895 159.975 74.2383 156.425 98.528 156.425V158.602C74.5951 158.602 62.4257 162.11 50.6532 165.498C38.7157 168.941 26.3724 172.49 2.08266 172.49C-22.2071 172.49 -34.5459 168.941 -46.4879 165.498C-58.2604 162.11 -70.4342 158.602 -94.3672 158.602V156.425Z" fill="#AAD5ED"/>
<path d="M-94.3672 150.128C-70.0908 150.128 -57.752 153.678 -45.819 157.116C-34.042 160.509 -21.8637 164.017 2.08266 164.017C26.029 164.017 38.2073 160.509 49.9843 157.116C61.9129 153.682 74.2472 150.128 98.5236 150.128V152.127C74.5772 152.127 62.3989 155.635 50.622 159.028C38.6934 162.462 26.359 166.016 2.08266 166.016C-22.1937 166.016 -34.5236 162.466 -46.4566 159.028C-58.2336 155.635 -70.4119 152.127 -94.3672 152.127V150.128Z" fill="#AAD5ED"/>
<path d="M-94.3672 143.831C-70.1042 143.831 -57.7698 147.381 -45.8502 150.819C-34.0643 154.212 -21.8815 157.72 2.08266 157.72C26.0468 157.72 38.2296 154.212 50.0155 150.819C61.9352 147.385 74.2695 143.831 98.528 143.831V145.648C74.5639 145.648 62.3811 149.156 50.5952 152.549C38.6755 155.983 26.3412 159.536 2.08266 159.536C-22.1758 159.536 -34.5058 155.987 -46.4299 152.549C-58.2158 149.156 -70.3985 145.648 -94.3672 145.648V143.831Z" fill="#AAD5ED"/>
<path d="M-94.3672 137.539C-70.1176 137.539 -57.7921 141.088 -45.8769 144.518C-34.0866 147.915 -21.8905 151.423 2.08266 151.423C26.0558 151.423 38.2519 147.911 50.0423 144.518C61.9575 141.084 74.2785 137.539 98.528 137.539V139.177C74.5549 139.177 62.3588 142.689 50.5684 146.082C38.6532 149.516 26.3322 153.062 2.08266 153.062C-22.1669 153.062 -34.4835 149.516 -46.4031 146.082C-58.1935 142.689 -70.3896 139.177 -94.3672 139.177V137.539Z" fill="#AAD5ED"/>
<path d="M-94.3666 131.242C-70.1304 131.242 -57.8139 134.787 -45.9076 138.217C-34.1128 141.614 -21.9122 145.131 2.07876 145.131C26.0697 145.131 38.2703 141.618 50.0651 138.217C61.9758 134.787 74.2879 131.242 98.5197 131.242V132.702C74.5287 132.702 62.3281 136.215 50.5333 139.616C38.6226 143.045 26.3105 146.591 2.07876 146.591C-22.153 146.591 -34.4651 143.045 -46.3758 139.616C-58.1706 136.219 -70.3712 132.702 -94.3711 132.702V131.242H-94.3666Z" fill="#AAD5ED"/>
<path d="M-94.3672 124.949C-70.1488 124.949 -57.8412 128.494 -45.9349 131.924C-34.1312 135.321 -21.9261 138.838 2.08266 138.838C26.0914 138.838 38.2965 135.325 50.1002 131.924C62.0065 128.494 74.3141 124.949 98.528 124.949V126.227C74.5193 126.227 62.3142 129.74 50.5105 133.141C38.6042 136.57 26.2966 140.116 2.08266 140.116C-22.1313 140.116 -34.4389 136.57 -46.3452 133.141C-58.1489 129.744 -70.3584 126.227 -94.3672 126.227V124.949Z" fill="#AAD5ED"/>
<path d="M-94.3672 118.648C-70.1667 118.648 -57.8635 122.194 -45.9617 125.619C-34.149 129.024 -21.935 132.537 2.08266 132.537C26.1004 132.537 38.3188 129.024 50.127 125.619C62.0243 122.194 74.3231 118.648 98.5236 118.648V119.748C74.5059 119.748 62.2875 123.261 50.4793 126.666C38.5819 130.092 26.2832 133.637 2.08266 133.637C-22.1179 133.637 -34.4166 130.092 -46.3139 126.666C-58.1266 123.261 -70.3406 119.748 -94.3627 119.748V118.648H-94.3672Z" fill="#AAD5ED"/>
<path d="M-94.3672 112.355C-70.1756 112.355 -57.8858 115.897 -45.9929 119.322C-34.1758 122.727 -21.9573 126.244 2.08266 126.244C26.1227 126.244 38.3366 122.723 50.1582 119.322C62.0511 115.897 74.3409 112.355 98.528 112.355V113.274C74.4925 113.274 62.2741 116.795 50.4525 120.195C38.5596 123.621 26.2698 127.163 2.08266 127.163C-22.1045 127.163 -34.3943 123.621 -46.2872 120.195C-58.1043 116.79 -70.3316 113.274 -94.3672 113.274V112.355Z" fill="#AAD5ED"/>
<path d="M-94.3672 106.062C-70.1934 106.062 -57.9081 109.604 -46.0196 113.029C-34.1936 116.434 -21.9663 119.951 2.08266 119.951C26.1316 119.951 38.3589 116.43 50.185 113.029C62.0645 109.604 74.3543 106.062 98.528 106.062V106.803C74.4791 106.803 62.2518 110.323 50.4257 113.724C38.5462 117.15 26.2564 120.691 2.08266 120.691C-22.0911 120.691 -34.372 117.15 -46.2604 113.724C-58.0865 110.319 -70.3138 106.803 -94.3672 106.803V106.062Z" fill="#AAD5ED"/>
<path d="M194.466 91.0317C218.845 91.0317 231.229 94.5981 243.211 98.0486C254.939 101.425 267.063 104.921 290.916 104.921V108.185C266.537 108.185 254.149 104.619 242.163 101.168C230.435 97.7921 218.31 94.2961 194.466 94.2961C170.623 94.2961 158.498 97.7879 146.77 101.168C134.792 104.619 122.404 108.185 98.0254 108.185V104.921C121.869 104.921 133.994 101.429 145.722 98.0486C157.7 94.5981 170.087 91.0317 194.466 91.0317Z" fill="#AAD5ED"/>
<path d="M194.465 97.5061C218.826 97.5061 231.209 101.072 243.178 104.519C254.919 107.899 267.058 111.395 290.915 111.395V114.481C266.549 114.481 254.166 110.915 242.193 107.469C230.46 104.089 218.327 100.593 194.465 100.593C170.603 100.593 158.474 104.084 146.737 107.469C134.764 110.915 122.381 114.481 98.0195 114.481V111.395C121.881 111.395 134.01 107.903 145.747 104.519C157.72 101.072 170.104 97.5061 194.465 97.5061Z" fill="#AAD5ED"/>
<path d="M194.466 103.985C218.818 103.985 231.189 107.548 243.148 110.994C254.894 114.374 267.037 117.87 290.916 117.87V120.779C266.564 120.779 254.189 117.216 242.221 113.77C230.479 110.39 218.337 106.894 194.466 106.894C170.596 106.894 158.453 110.386 146.707 113.77C134.748 117.216 122.373 120.779 98.0254 120.779V117.87C121.896 117.87 134.039 114.378 145.784 110.994C157.744 107.548 170.119 103.985 194.466 103.985Z" fill="#AAD5ED"/>
<path d="M194.465 110.456C218.799 110.456 231.165 114.018 243.12 117.464C254.87 120.845 267.022 124.345 290.915 124.345V127.071C266.576 127.071 254.21 123.509 242.255 120.063C230.505 116.682 218.353 113.182 194.465 113.182C170.577 113.182 158.425 116.682 146.675 120.063C134.719 123.509 122.354 127.071 98.0195 127.071V124.345C121.908 124.345 134.059 120.845 145.81 117.464C157.765 114.018 170.131 110.456 194.465 110.456Z" fill="#AAD5ED"/>
<path d="M194.465 116.931C218.781 116.931 231.143 120.493 243.089 123.931C254.844 127.32 267.004 130.816 290.91 130.816V133.364C266.589 133.364 254.228 129.802 242.277 126.364C230.523 122.975 218.362 119.479 194.46 119.479C170.559 119.479 158.398 122.98 146.644 126.364C134.693 129.806 122.332 133.364 98.0195 133.364V130.816C121.926 130.816 134.082 127.315 145.836 123.931C157.787 120.489 170.148 116.931 194.46 116.931H194.465Z" fill="#AAD5ED"/>
<path d="M194.466 123.41C218.769 123.41 231.121 126.968 243.063 130.402C254.831 133.794 266.992 137.299 290.916 137.299V139.657C266.604 139.657 254.256 136.099 242.314 132.661C230.546 129.272 218.385 125.768 194.47 125.768C170.555 125.768 158.386 129.272 146.627 132.661C134.68 136.103 122.332 139.657 98.0293 139.657V137.299C121.944 137.299 134.114 133.794 145.873 130.406C157.819 126.964 170.167 123.41 194.47 123.41H194.466Z" fill="#AAD5ED"/>
<path d="M194.465 129.889C218.75 129.889 231.093 133.439 243.035 136.877C254.808 140.269 266.982 143.774 290.915 143.774V145.95C266.621 145.95 254.277 142.4 242.34 138.962C230.567 135.569 218.398 132.065 194.465 132.065C170.532 132.065 158.363 135.569 146.59 138.962C134.653 142.396 122.309 145.95 98.0195 145.95V143.774C121.953 143.774 134.122 140.269 145.894 136.877C157.832 133.443 170.175 129.889 194.465 129.889Z" fill="#AAD5ED"/>
<path d="M194.466 136.364C218.743 136.364 231.073 139.913 243.006 143.351C254.783 146.744 266.961 150.252 290.916 150.252V152.251C266.64 152.251 254.301 148.701 242.368 145.263C230.591 141.87 218.413 138.362 194.466 138.362C170.52 138.362 158.342 141.87 146.565 145.263C134.636 148.697 122.302 152.251 98.0254 152.251V150.252C121.972 150.252 134.15 146.744 145.927 143.351C157.856 139.917 170.19 136.364 194.466 136.364Z" fill="#AAD5ED"/>
<path d="M194.465 142.834C218.723 142.834 231.053 146.384 242.977 149.822C254.763 153.215 266.946 156.723 290.915 156.723V158.54C266.652 158.54 254.317 154.99 242.398 151.552C230.612 148.159 218.429 144.651 194.465 144.651C170.501 144.651 158.318 148.159 146.532 151.552C134.612 154.986 122.278 158.54 98.0195 158.54V156.723C121.984 156.723 134.166 153.215 145.952 149.822C157.872 146.388 170.206 142.834 194.465 142.834Z" fill="#AAD5ED"/>
<path d="M194.465 149.309C218.706 149.309 231.031 152.855 242.951 156.289C254.741 159.681 266.937 163.194 290.915 163.194V164.832C266.665 164.832 254.34 161.282 242.425 157.853C230.634 154.456 218.438 150.947 194.465 150.947C170.492 150.947 158.296 154.46 146.505 157.853C134.59 161.287 122.269 164.832 98.0195 164.832V163.194C121.993 163.194 134.189 159.681 145.979 156.289C157.894 152.855 170.215 149.309 194.465 149.309Z" fill="#AAD5ED"/>
<path d="M194.466 155.788C218.698 155.788 231.01 159.334 242.92 162.764C254.715 166.156 266.916 169.669 290.916 169.669V171.129C266.679 171.129 254.363 167.583 242.457 164.154C230.662 160.761 218.461 157.249 194.47 157.249C170.479 157.249 158.279 160.761 146.484 164.154C134.573 167.583 122.261 171.129 98.0293 171.129V169.669C122.02 169.669 134.221 166.156 146.016 162.764C157.926 159.334 170.238 155.788 194.47 155.788H194.466Z" fill="#AAD5ED"/>
<path d="M194.465 162.263C218.679 162.263 230.986 165.809 242.893 169.239C254.696 172.635 266.906 176.152 290.915 176.152V177.43C266.696 177.43 254.389 173.885 242.482 170.455C230.679 167.058 218.474 163.542 194.465 163.542C170.456 163.542 158.251 167.054 146.447 170.455C134.541 173.885 122.233 177.43 98.0195 177.43V176.152C122.028 176.152 134.233 172.639 146.037 169.239C157.943 165.809 170.251 162.263 194.465 162.263Z" fill="#AAD5ED"/>
<path d="M194.465 168.738C218.665 168.738 230.964 172.283 242.862 175.709C254.674 179.114 266.888 182.627 290.91 182.627V183.727C266.71 183.727 254.407 180.182 242.505 176.756C230.692 173.351 218.478 169.838 194.46 169.838C170.443 169.838 158.224 173.351 146.416 176.756C134.519 180.182 122.22 183.727 98.0195 183.727V182.627C122.037 182.627 134.256 179.114 146.064 175.709C157.961 172.283 170.26 168.738 194.46 168.738H194.465Z" fill="#AAD5ED"/>
<path d="M194.465 175.209C218.648 175.209 230.942 178.75 242.835 182.176C254.652 185.581 266.879 189.098 290.915 189.098V190.016C266.723 190.016 254.433 186.475 242.54 183.049C230.723 179.644 218.505 176.127 194.465 176.127C170.425 176.127 158.211 179.648 146.389 183.049C134.496 186.475 122.207 190.016 98.0195 190.016V189.098C122.055 189.098 134.274 185.577 146.095 182.176C157.988 178.75 170.278 175.209 194.465 175.209Z" fill="#AAD5ED"/>
<path d="M194.465 181.688C218.634 181.688 230.92 185.229 242.808 188.655C254.634 192.06 266.861 195.576 290.915 195.576V196.317C266.741 196.317 254.456 192.775 242.567 189.35C230.741 185.945 218.514 182.428 194.465 182.428C170.416 182.428 158.189 185.949 146.363 189.35C134.483 192.775 122.193 196.317 98.0195 196.317V195.576C122.068 195.576 134.296 192.056 146.122 188.655C158.001 185.229 170.291 181.688 194.465 181.688Z" fill="#AAD5ED"/>
<path d="M290.916 104.271C315.295 104.271 327.683 107.837 339.66 111.288C351.388 114.664 363.513 118.16 387.357 118.16C411.201 118.16 423.326 114.668 435.053 111.288C447.031 107.837 459.419 104.271 483.798 104.271V107.535C459.954 107.535 447.829 111.027 436.101 114.407C424.124 117.858 411.736 121.424 387.357 121.424C362.978 121.424 350.59 117.858 338.613 114.407C326.885 111.031 314.76 107.535 290.916 107.535V104.271Z" fill="#AAD5ED"/>
<path d="M290.916 97.9697C315.277 97.9697 327.661 101.536 339.634 104.982C351.366 108.363 363.5 111.859 387.361 111.859C411.223 111.859 423.352 108.367 435.089 104.982C447.062 101.536 459.446 97.9697 483.807 97.9697V101.056C459.945 101.056 447.816 104.548 436.079 107.932C424.106 111.379 411.722 114.945 387.361 114.945C363 114.945 350.617 111.379 338.644 107.932C326.911 104.552 314.778 101.056 290.916 101.056V97.9697Z" fill="#AAD5ED"/>
<path d="M290.916 91.6768C315.268 91.6768 327.638 95.239 339.598 98.6894C351.344 102.065 363.486 105.566 387.357 105.566C411.227 105.566 423.37 102.065 435.116 98.6894C447.076 95.239 459.45 91.6768 483.798 91.6768V94.5853C459.927 94.5853 447.785 98.0854 436.039 101.461C424.079 104.912 411.705 108.474 387.357 108.474C363.009 108.474 350.635 104.912 338.675 101.461C326.929 98.0854 314.787 94.5853 290.916 94.5853V91.6768Z" fill="#AAD5ED"/>
<path d="M290.916 85.3799C315.25 85.3799 327.616 88.9421 339.571 92.3884C351.321 95.7686 363.473 99.2687 387.361 99.2687C411.25 99.2687 423.401 95.7686 435.152 92.3884C447.107 88.9421 459.472 85.3799 483.807 85.3799V88.1064C459.918 88.1064 447.767 91.6065 436.017 94.9867C424.061 98.433 411.696 101.995 387.361 101.995C363.027 101.995 350.661 98.433 338.706 94.9867C326.956 91.6065 314.804 88.1064 290.916 88.1064V85.3799Z" fill="#AAD5ED"/>
<path d="M290.916 79.0872C315.232 79.0872 327.594 82.6494 339.54 86.0874C351.295 89.4676 363.451 92.9677 387.357 92.9677C411.263 92.9677 423.419 89.4676 435.174 86.0874C447.125 82.6452 459.486 79.0872 483.798 79.0872V81.6357C459.892 81.6357 447.736 85.1359 435.981 88.516C424.03 91.9582 411.669 95.5163 387.357 95.5163C363.045 95.5163 350.679 91.9541 338.733 88.516C326.978 85.1359 314.822 81.6357 290.916 81.6357V79.0872Z" fill="#AAD5ED"/>
<path d="M290.916 72.7944C315.219 72.7944 327.571 76.3525 339.513 79.7906C351.277 83.179 363.442 86.6833 387.357 86.6833C411.272 86.6833 423.441 83.179 435.201 79.7906C447.147 76.3484 459.495 72.7944 483.798 72.7944V75.1527C459.883 75.1527 447.713 78.657 435.954 82.0454C424.008 85.4876 411.66 89.0415 387.357 89.0415C363.054 89.0415 350.702 85.4835 338.76 82.0454C326.996 78.657 314.831 75.1527 290.916 75.1527V72.7944Z" fill="#AAD5ED"/>
<path d="M290.916 66.5017C315.201 66.5017 327.545 70.0515 339.487 73.4937C351.259 76.8821 363.428 80.3906 387.361 80.3906C411.294 80.3906 423.464 76.8821 435.236 73.4937C447.174 70.0515 459.517 66.5017 483.807 66.5017V68.6779C459.874 68.6779 447.704 72.1863 435.932 75.5748C423.994 79.017 411.651 82.5668 387.361 82.5668C363.072 82.5668 350.733 79.017 338.791 75.5748C327.018 72.1863 314.849 68.6779 290.916 68.6779V66.5017Z" fill="#AAD5ED"/>
<path d="M290.916 60.2043C315.192 60.2043 327.531 63.7541 339.455 67.1922C351.232 70.5848 363.411 74.0932 387.357 74.0932C411.303 74.0932 423.482 70.5848 435.259 67.1922C447.187 63.7583 459.522 60.2043 483.798 60.2043V62.2027C459.852 62.2027 447.673 65.7111 435.896 69.1036C423.968 72.5376 411.633 76.0915 387.357 76.0915C363.081 76.0915 350.742 72.5417 338.818 69.1036C327.041 65.7111 314.862 62.2027 290.916 62.2027V60.2043Z" fill="#AAD5ED"/>
<path d="M290.916 53.9116C315.175 53.9116 327.504 57.4614 339.429 60.8912C351.214 64.2838 363.397 67.7922 387.361 67.7922C411.326 67.7922 423.508 64.2838 435.294 60.8912C447.214 57.4614 459.548 53.9116 483.807 53.9116V55.7279C459.843 55.7279 447.66 59.2363 435.874 62.6289C423.954 66.0587 411.62 69.6085 387.361 69.6085C363.103 69.6085 350.773 66.0587 338.849 62.6289C327.063 59.2363 314.88 55.7279 290.916 55.7279V53.9116Z" fill="#AAD5ED"/>
<path d="M290.916 47.6108C315.166 47.6108 327.482 51.1565 339.402 54.5904C351.192 57.983 363.388 61.4956 387.361 61.4956C411.335 61.4956 423.531 57.983 435.321 54.5904C447.236 51.1565 459.557 47.6108 483.807 47.6108V49.2492C459.834 49.2492 447.638 52.7618 435.847 56.1543C423.932 59.5883 411.611 63.1339 387.361 63.1339C363.112 63.1339 350.795 59.5883 338.876 56.1543C327.085 52.7618 314.889 49.2492 290.916 49.2492V47.6108Z" fill="#AAD5ED"/>
<path d="M290.916 41.3179C315.148 41.3179 327.46 44.8635 339.371 48.2933C351.165 51.69 363.366 55.2067 387.357 55.2067C411.348 55.2067 423.548 51.6942 435.343 48.2933C447.254 44.8635 459.566 41.3179 483.798 41.3179V42.7783C459.807 42.7783 447.606 46.2909 435.812 49.6917C423.901 53.1215 411.589 56.6672 387.357 56.6672C363.125 56.6672 350.813 53.1215 338.902 49.6917C327.108 46.295 314.907 42.7783 290.916 42.7783V41.3179Z" fill="#AAD5ED"/>
<path d="M290.916 35.0251C315.13 35.0251 327.438 38.5708 339.344 42.0006C351.148 45.3973 363.353 48.914 387.361 48.914C411.37 48.914 423.575 45.4014 435.379 42.0006C447.285 38.5708 459.593 35.0251 483.807 35.0251V36.3036C459.798 36.3036 447.593 39.8161 435.789 43.217C423.883 46.6468 411.575 50.1924 387.361 50.1924C363.148 50.1924 350.84 46.6468 338.934 43.217C327.13 39.8203 314.925 36.3036 290.916 36.3036V35.0251Z" fill="#AAD5ED"/>
<path d="M290.916 28.7324C315.117 28.7324 327.415 32.2739 339.313 35.6996C351.121 39.1046 363.339 42.6171 387.357 42.6171C411.375 42.6171 423.593 39.1046 435.401 35.6996C447.299 32.2739 459.597 28.7324 483.798 28.7324V29.8329C459.78 29.8329 447.562 33.3455 435.754 36.7505C423.856 40.1761 411.557 43.7177 387.357 43.7177C363.156 43.7177 350.858 40.1761 338.96 36.7505C327.152 33.3455 314.934 29.8329 290.916 29.8329V28.7324Z" fill="#AAD5ED"/>
<path d="M290.916 22.4312C315.099 22.4312 327.393 25.9727 339.286 29.3983C351.103 32.8033 363.321 36.32 387.361 36.32C411.401 36.32 423.615 32.7992 435.437 29.3983C447.33 25.9727 459.62 22.4312 483.807 22.4312V23.3496C459.771 23.3496 447.553 26.8705 435.731 30.2713C423.838 33.697 411.549 37.2385 387.361 37.2385C363.174 37.2385 350.884 33.697 338.992 30.2713C327.174 26.8663 314.956 23.3496 290.916 23.3496V22.4312Z" fill="#AAD5ED"/>
<path d="M290.916 16.1384C315.09 16.1384 327.375 19.6799 339.259 23.1056C351.085 26.5106 363.312 30.0273 387.361 30.0273C411.41 30.0273 423.638 26.5065 435.464 23.1056C447.343 19.6799 459.633 16.1384 483.807 16.1384V16.879C459.758 16.879 447.53 20.3998 435.704 23.8007C423.825 27.2263 411.535 30.7679 387.361 30.7679C363.188 30.7679 350.902 27.2263 339.018 23.8007C327.192 20.3957 314.965 16.879 290.916 16.879V16.1384Z" fill="#AAD5ED"/>
<path d="M-94.8711 104.271C-70.4922 104.271 -58.1043 107.837 -46.1177 111.288C-34.3898 114.664 -22.265 118.16 1.57875 118.16C25.4225 118.16 37.5473 114.668 49.2753 111.288C61.2529 107.837 73.6408 104.271 98.0197 104.271V107.535C74.1759 107.535 62.0511 111.027 50.3232 114.407C38.3455 117.858 25.9577 121.424 1.57875 121.424C-22.8002 121.424 -35.1836 117.858 -47.1657 114.407C-58.8936 111.031 -71.0184 107.535 -94.8711 107.535V104.271Z" fill="#AAD5ED"/>
<path d="M-94.8711 97.9697C-70.5056 97.9697 -58.1221 101.536 -46.149 104.982C-34.4166 108.363 -22.2829 111.859 1.57875 111.859C25.4404 111.859 37.5696 108.367 49.3065 104.982C61.2796 101.536 73.6631 97.9697 98.0241 97.9697V101.056C74.1625 101.056 62.0333 104.548 50.2964 107.932C38.3233 111.379 25.9398 114.945 1.57875 114.945C-22.7823 114.945 -35.1657 111.379 -47.1345 107.932C-58.8758 104.552 -71.0139 101.056 -94.8711 101.056L-94.8711 97.9697Z" fill="#AAD5ED"/>
<path d="M-94.8711 91.6768C-70.5189 91.6768 -58.1444 95.239 -46.1757 98.6894C-34.4344 102.07 -22.2918 105.566 1.57875 105.566C25.4493 105.566 37.5919 102.065 49.3377 98.6894C61.2975 95.239 73.672 91.6768 98.0197 91.6768V94.5853C74.1491 94.5853 62.0065 98.0854 50.2607 101.461C38.3009 104.912 25.9264 108.474 1.57875 108.474C-22.7689 108.474 -35.1434 104.912 -47.1032 101.466C-58.849 98.0854 -70.9916 94.5853 -94.8711 94.5853V91.6768Z" fill="#AAD5ED"/>
<path d="M-94.8711 85.3799C-70.5323 85.3799 -58.1667 88.9421 -46.2114 92.3884C-34.4612 95.7686 -22.3096 99.2687 1.57875 99.2687C25.4671 99.2687 37.6187 95.7686 49.3689 92.3884C61.3242 88.9421 73.6898 85.3799 98.0241 85.3799V88.1064C74.1358 88.1064 61.9842 91.6065 50.234 94.9867C38.2787 98.433 25.9131 101.995 1.57875 101.995C-22.7556 101.995 -35.1212 98.433 -47.0765 94.9867C-58.8267 91.6065 -70.9783 88.1064 -94.8711 88.1064V85.3799Z" fill="#AAD5ED"/>
<path d="M-94.8711 79.0872C-70.5502 79.0872 -58.189 82.6494 -46.2381 86.0874C-34.4835 89.4676 -22.323 92.9677 1.57875 92.9677C25.4805 92.9677 37.641 89.4676 49.3956 86.0874C61.3465 82.6452 73.7077 79.0872 98.0197 79.0872V81.6357C74.1135 81.6357 61.9574 85.1359 50.2028 88.516C38.2519 91.9582 25.8908 95.5163 1.57875 95.5163C-22.7333 95.5163 -35.0989 91.9541 -47.0453 88.516C-58.7999 85.1359 -70.9604 81.6357 -94.8666 81.6357V79.0872H-94.8711Z" fill="#AAD5ED"/>
<path d="M-94.8705 72.7944C-70.5585 72.7944 -58.2108 76.3525 -46.2688 79.7906C-34.5008 83.179 -22.3403 86.6833 1.57484 86.6833C25.49 86.6833 37.6594 83.179 49.4185 79.7906C61.3649 76.3484 73.7127 72.7944 98.0158 72.7944V75.1527C74.1006 75.1527 61.9313 78.657 50.1721 82.0454C38.2257 85.4876 25.8779 89.0415 1.57484 89.0415C-22.7283 89.0415 -35.0805 85.4835 -47.0224 82.0495C-58.7905 78.657 -70.9509 75.1527 -94.875 75.1527V72.7944H-94.8705Z" fill="#AAD5ED"/>
<path d="M-94.8711 66.5017C-70.5769 66.5017 -58.2336 70.0515 -46.2961 73.4937C-34.5236 76.8821 -22.3542 80.3906 1.57875 80.3906C25.5117 80.3906 37.6811 76.8821 49.4536 73.4937C61.3911 70.0515 73.7344 66.5017 98.0241 66.5017V68.6779C74.0912 68.6779 61.9218 72.1863 50.1493 75.5748C38.2118 79.017 25.8685 82.5668 1.57875 82.5668C-22.711 82.5668 -35.0498 79.017 -46.9918 75.5748C-58.7643 72.1863 -70.9381 68.6779 -94.8711 68.6779V66.5017Z" fill="#AAD5ED"/>
<path d="M-94.8711 60.2043C-70.5948 60.2043 -58.2559 63.7541 -46.3229 67.1922C-34.5459 70.5848 -22.3676 74.0932 1.57875 74.0932C25.5251 74.0932 37.7034 70.5848 49.4804 67.1922C61.409 63.7583 73.7433 60.2043 98.0197 60.2043V62.2027C74.0733 62.2027 61.895 65.7111 50.1181 69.1036C38.1895 72.5376 25.8551 76.0915 1.57875 76.0915C-22.6976 76.0915 -35.0275 72.5417 -46.9605 69.1036C-58.7375 65.7111 -70.9158 62.2027 -94.8711 62.2027L-94.8711 60.2043Z" fill="#AAD5ED"/>
<path d="M-94.8711 53.9116C-70.6081 53.9116 -58.2738 57.4614 -46.3541 60.8912C-34.5682 64.2838 -22.3854 67.7922 1.57875 67.7922C25.5429 67.7922 37.7257 64.2838 49.5116 60.8912C61.4313 57.4614 73.7656 53.9116 98.0241 53.9116V55.7279C74.06 55.7279 61.8772 59.2363 50.0913 62.6289C38.1716 66.0587 25.8373 69.6085 1.57875 69.6085C-22.6798 69.6085 -35.0097 66.0628 -46.9338 62.6289C-58.7197 59.2363 -70.9024 55.7279 -94.8711 55.7279L-94.8711 53.9116Z" fill="#AAD5ED"/>
<path d="M-94.8711 47.6108C-70.6215 47.6108 -58.296 51.1606 -46.3808 54.5904C-34.5905 57.9871 -22.3944 61.4956 1.57875 61.4956C25.5519 61.4956 37.748 57.983 49.5383 54.5904C61.4536 51.1565 73.7746 47.6108 98.0241 47.6108V49.2492C74.051 49.2492 61.8549 52.7618 50.0645 56.1543C38.1493 59.5883 25.8283 63.1339 1.57875 63.1339C-22.6708 63.1339 -34.9874 59.5883 -46.907 56.1543C-58.6974 52.7618 -70.8935 49.2492 -94.8711 49.2492L-94.8711 47.6108Z" fill="#AAD5ED"/>
<path d="M-94.8705 41.3179C-70.6343 41.3179 -58.3178 44.8635 -46.4115 48.2933C-34.6167 51.69 -22.4161 55.2067 1.57484 55.2067C25.5658 55.2067 37.7664 51.6942 49.5612 48.2933C61.472 44.8635 73.784 41.3179 98.0158 41.3179V42.7783C74.0248 42.7783 61.8242 46.2909 50.0294 49.6917C38.1187 53.1215 25.8066 56.6672 1.57484 56.6672C-22.6569 56.6672 -34.969 53.1215 -46.8797 49.6917C-58.6745 46.295 -70.8751 42.7783 -94.875 42.7783V41.3179H-94.8705Z" fill="#AAD5ED"/>
<path d="M-94.8711 35.0251C-70.6527 35.0251 -58.3451 38.5708 -46.4388 42.0006C-34.6351 45.3973 -22.43 48.914 1.57875 48.914C25.5875 48.914 37.7926 45.4014 49.5963 42.0006C61.5026 38.5708 73.8102 35.0251 98.0241 35.0251V36.3036C74.0154 36.3036 61.8103 39.8161 50.0066 43.217C38.1003 46.6468 25.7927 50.1924 1.57875 50.1924C-22.6352 50.1924 -34.9428 46.6468 -46.8491 43.217C-58.6528 39.8203 -70.8623 36.3036 -94.8711 36.3036L-94.8711 35.0251Z" fill="#AAD5ED"/>
<path d="M-94.8711 28.7324C-70.6706 28.7324 -58.3674 32.2739 -46.4656 35.6996C-34.6529 39.1046 -22.439 42.6171 1.57875 42.6171C25.5965 42.6171 37.8149 39.1046 49.6231 35.6996C61.5204 32.2739 73.8191 28.7324 98.0197 28.7324V29.8329C74.002 29.8329 61.7835 33.3455 49.9754 36.7505C38.078 40.1761 25.7793 43.7177 1.57875 43.7177C-22.6218 43.7177 -34.9205 40.1761 -46.8179 36.7505C-58.6305 33.3455 -70.8445 29.8329 -94.8666 29.8329V28.7324H-94.8711Z" fill="#AAD5ED"/>
<path d="M-94.8711 22.4312C-70.6795 22.4312 -58.3897 25.9727 -46.4968 29.3983C-34.6797 32.8033 -22.4612 36.32 1.57875 36.32C25.6187 36.32 37.8327 32.7992 49.6543 29.3983C61.5472 25.9727 73.837 22.4312 98.0241 22.4312V23.3496C73.9886 23.3496 61.7702 26.8705 49.9486 30.2713C38.0557 33.697 25.7659 37.2385 1.57875 37.2385C-22.6084 37.2385 -34.8982 33.697 -46.7911 30.2713C-58.6082 26.8663 -70.8356 23.3496 -94.8711 23.3496L-94.8711 22.4312Z" fill="#AAD5ED"/>
<path d="M-94.8711 16.1384C-70.6973 16.1384 -58.412 19.6799 -46.5235 23.1056C-34.6975 26.5106 -22.4702 30.0273 1.57875 30.0273C25.6277 30.0273 37.855 26.5065 49.681 23.1056C61.5606 19.6799 73.8504 16.1384 98.0241 16.1384V16.879C73.9752 16.879 61.7479 20.3998 49.9219 23.8007C38.0423 27.2263 25.7525 30.7679 1.57875 30.7679C-22.595 30.7679 -34.8759 27.2263 -46.7643 23.8007C-58.5859 20.3957 -70.8177 16.879 -94.8711 16.879V16.1384Z" fill="#AAD5ED"/>
</g>
<mask id="mask2_115_1008" style="mask-type:alpha" maskUnits="userSpaceOnUse" x="0" y="180" width="390" height="32">
<rect y="180" width="390" height="32" fill="#D9D9D9"/>
</mask>
<g mask="url(#mask2_115_1008)">
<path d="M389.755 211.401C389.117 211.406 388.475 211.41 387.823 211.41C363.768 211.41 351.538 207.614 339.709 203.948C327.822 200.264 315.534 196.446 291.354 196.446V194.867C267.5 194.867 255.367 191.102 243.636 187.462C232.793 184.099 221.624 180.629 201.539 180H188.211C168.131 180.633 156.953 184.099 146.114 187.462C134.383 191.102 122.255 194.867 98.4055 194.867V196.446C74.2256 196.446 61.9372 200.264 50.0502 203.948C38.2212 207.619 25.9908 211.41 1.93582 211.41C1.28014 211.41 0.637838 211.41 0 211.401V682.991C0.637838 682.996 1.28014 683 1.93582 683C26.3209 683 38.7119 679.155 50.6925 675.44C62.4234 671.8 74.5512 668.031 98.401 668.031V666.452C122.581 666.452 134.869 662.634 146.756 658.945C158.585 655.274 170.816 651.483 194.871 651.483C218.926 651.483 231.156 655.279 242.985 658.945C254.877 662.638 267.165 666.452 291.345 666.452V668.031C315.195 668.031 327.322 671.795 339.053 675.44C351.034 679.155 363.425 683 387.81 683C388.466 683 389.362 683 390 682.991V211.401H389.755Z" fill="#5D97C4"/>
</g>
</g>
</svg>
