<svg width="1023" height="288" viewBox="0 0 1023 288" fill="none" xmlns="http://www.w3.org/2000/svg">
<mask id="mask0_131_1162" style="mask-type:luminance" maskUnits="userSpaceOnUse" x="0" y="0" width="1023" height="288">
<path d="M1023 0H0V288H1023V0Z" fill="white"/>
</mask>
<g mask="url(#mask0_131_1162)">
<path d="M0.140625 591.2H1279.09V52.79H0.140625V591.2Z" fill="#5D97C4"/>
<path d="M-0.259766 679.95V20.1898C30.9102 20.1098 46.8802 15.2098 62.3402 10.4598C78.2402 5.57979 94.6802 0.529785 127.04 0.529785C159.4 0.529785 175.84 5.57979 191.75 10.4598C207.32 15.2498 223.42 20.1898 255.09 20.1898V22.0598C287.18 22.0598 303.48 27.0598 319.26 31.9098C334.96 36.7298 351.2 41.7098 383.13 41.7098C415.06 41.7098 431.3 36.7298 446.99 31.9098C462.77 27.0598 479.08 22.0598 511.17 22.0598V20.1898C542.83 20.1898 558.93 15.2498 574.51 10.4598C590.41 5.57979 606.85 0.529785 639.21 0.529785C671.57 0.529785 688.01 5.57979 703.92 10.4598C719.49 15.2498 735.59 20.1898 767.26 20.1898V22.0598C799.35 22.0598 815.66 27.0598 831.43 31.9098C847.13 36.7298 863.37 41.7098 895.3 41.7098C927.23 41.7098 943.47 36.7298 959.17 31.9098C974.94 27.0598 991.25 22.0598 1023.34 22.0598V20.1898C1055 20.1898 1071.1 15.2498 1086.68 10.4598C1102.58 5.57979 1119.02 0.529785 1151.38 0.529785C1183.74 0.529785 1200.18 5.57979 1216.09 10.4598C1231.54 15.2098 1247.5 20.1098 1278.68 20.1898V679.95H-0.259766Z" fill="white"/>
<path d="M-1 24.8198V20.1898H-0.26C30.91 20.1098 46.88 15.2098 62.34 10.4598C78.24 5.57979 94.68 0.529785 127.04 0.529785C159.4 0.529785 175.84 5.57979 191.75 10.4598C207.32 15.2498 223.42 20.1898 255.09 20.1898V24.8198C222.73 24.8198 206.29 19.7698 190.39 14.8898C174.81 10.1098 158.71 5.15979 127.04 5.15979C95.37 5.15979 79.27 10.1098 63.7 14.8898C47.91 19.7298 31.6 24.7398 -0.26 24.8198H-1Z" fill="url(#paint0_linear_131_1162)"/>
<path d="M127.04 9.59961C159.38 9.59961 175.81 14.6496 191.71 19.5296C207.29 24.3096 223.41 29.2596 255.09 29.2596V33.6296C222.76 33.6296 206.32 28.5796 190.43 23.6996C174.85 18.9196 158.73 13.9696 127.04 13.9696C95.35 13.9696 79.24 18.9196 63.66 23.6996C47.77 28.5796 31.33 33.6296 -1 33.6296V29.2596C30.69 29.2596 46.8 24.3096 62.38 19.5296C78.27 14.6496 94.71 9.59961 127.04 9.59961Z" fill="url(#paint1_linear_131_1162)"/>
<path d="M127.04 18.6699C159.37 18.6699 175.79 23.7099 191.67 28.5899C207.26 33.3799 223.39 38.3299 255.09 38.3299V42.4399C222.77 42.4399 206.35 37.3999 190.47 32.5199C174.88 27.7299 158.75 22.7799 127.05 22.7799C95.3498 22.7799 79.2198 27.7299 63.6298 32.5199C47.7498 37.3999 31.3298 42.4399 -0.990234 42.4399V38.3299C30.7098 38.3299 46.8398 33.3799 62.4298 28.5899C78.3098 23.7099 94.7298 18.6699 127.05 18.6699H127.04Z" fill="url(#paint2_linear_131_1162)"/>
<path d="M127.04 27.75C159.34 27.75 175.76 32.78 191.63 37.66C207.24 42.45 223.36 47.41 255.09 47.41V51.26C222.79 51.26 206.38 46.23 190.5 41.35C174.89 36.56 158.76 31.6 127.04 31.6C95.3202 31.6 79.1802 36.56 63.5802 41.35C47.7102 46.22 31.2902 51.26 -1.00977 51.26V47.41C30.7102 47.41 46.8502 42.45 62.4502 37.66C78.3202 32.79 94.7402 27.75 127.04 27.75Z" fill="url(#paint3_linear_131_1162)"/>
<path d="M127.04 36.8096C159.32 36.8096 175.73 41.8496 191.6 46.73C207.21 51.52 223.35 56.48 255.09 56.48V60.09C222.81 60.09 206.41 55.05 190.54 50.17C174.93 45.38 158.79 40.4196 127.04 40.4196C95.29 40.4196 79.16 45.38 63.55 50.17C47.68 55.04 31.28 60.09 -1 60.09V56.48C30.74 56.48 46.88 51.52 62.49 46.73C78.36 41.8596 94.76 36.8096 127.04 36.8096Z" fill="url(#paint4_linear_131_1162)"/>
<path d="M127.04 45.8799C159.31 45.8799 175.7 50.9099 191.56 55.7899C207.18 60.5899 223.33 65.5399 255.09 65.5399V68.8899C222.83 68.8899 206.43 63.8599 190.58 58.9799C174.96 54.1799 158.8 49.2299 127.04 49.2299C95.28 49.2299 79.13 54.1899 63.51 58.9799C47.66 63.8499 31.26 68.8899 -1 68.8899V65.5399C30.76 65.5399 46.91 60.5799 62.53 55.7899C78.38 50.9199 94.78 45.8799 127.04 45.8799Z" fill="url(#paint5_linear_131_1162)"/>
<path d="M127.04 54.96C159.28 54.96 175.68 59.99 191.52 64.86C207.15 69.66 223.31 74.62 255.09 74.62V77.71C222.85 77.71 206.46 72.68 190.62 67.81C174.99 63.01 158.83 58.05 127.04 58.05C95.25 58.05 79.1 63.02 63.47 67.81C47.63 72.68 31.24 77.71 -1 77.71V74.62C30.78 74.62 46.94 69.65 62.57 64.86C78.41 59.99 94.8 54.96 127.04 54.96Z" fill="url(#paint6_linear_131_1162)"/>
<path d="M127.04 64.0298C159.27 64.0298 175.65 69.0598 191.48 73.9098C207.12 78.7098 223.29 83.6798 255.09 83.6798V86.5098C222.87 86.5098 206.49 81.4798 190.66 76.6298C175.02 71.8298 158.84 66.8598 127.04 66.8598C95.24 66.8598 79.08 71.8298 63.43 76.6298C47.59 81.4898 31.22 86.5098 -1 86.5098V83.6798C30.8 83.6798 46.96 78.7098 62.61 73.9098C78.45 69.0498 94.82 64.0298 127.04 64.0298Z" fill="url(#paint7_linear_131_1162)"/>
<path d="M127.04 73.0898C159.24 73.0898 175.61 78.1198 191.45 82.9798C207.09 87.7798 223.27 92.7498 255.09 92.7498V95.3298C222.89 95.3298 206.52 90.2998 190.7 85.4398C175.05 80.6398 158.87 75.6698 127.05 75.6698C95.2298 75.6698 79.0598 80.6398 63.4098 85.4398C47.5698 90.3098 31.2098 95.3298 -0.990234 95.3298V92.7498C30.8298 92.7498 46.9998 87.7798 62.6498 82.9798C78.4898 78.1098 94.8498 73.0898 127.05 73.0898H127.04Z" fill="url(#paint8_linear_131_1162)"/>
<path d="M127.04 82.1699C159.23 82.1699 175.59 87.1999 191.41 92.0499C207.06 96.8499 223.25 101.83 255.09 101.83V104.15C222.91 104.15 206.55 99.1199 190.73 94.2699C175.08 89.4699 158.88 84.4899 127.05 84.4899C95.2198 84.4899 79.0298 89.4599 63.3698 94.2699C47.5498 99.1299 31.1898 104.15 -0.990234 104.15V101.83C30.8498 101.83 47.0298 96.8599 62.6898 92.0499C78.5098 87.1899 94.8698 82.1699 127.05 82.1699H127.04Z" fill="url(#paint9_linear_131_1162)"/>
<path d="M127.04 91.2402C159.21 91.2402 175.56 96.2602 191.37 101.12C207.03 105.93 223.23 110.91 255.08 110.91V112.97C222.91 112.97 206.57 107.95 190.75 103.09C175.09 98.2802 158.89 93.3002 127.03 93.3002C95.1702 93.3002 78.9702 98.2702 63.3202 103.09C47.5102 107.95 31.1602 112.97 -1.00977 112.97V110.91C30.8402 110.91 47.0502 105.94 62.7002 101.12C78.5102 96.2602 94.8602 91.2402 127.03 91.2402H127.04Z" fill="url(#paint10_linear_131_1162)"/>
<path d="M127.04 100.31C159.19 100.31 175.53 105.32 191.34 110.17C207.01 114.98 223.22 119.96 255.09 119.96V121.76C222.95 121.76 206.61 116.75 190.8 111.9C175.13 107.09 158.92 102.11 127.04 102.11C95.16 102.11 78.96 107.09 63.29 111.9C47.49 116.75 31.15 121.76 -1 121.76V119.96C30.88 119.96 47.08 114.98 62.75 110.17C78.55 105.32 94.89 100.31 127.04 100.31Z" fill="url(#paint11_linear_131_1162)"/>
<path d="M127.04 109.37C159.17 109.37 175.5 114.39 191.3 119.24C206.98 124.05 223.2 129.03 255.09 129.03V130.59C222.96 130.59 206.64 125.57 190.84 120.72C175.16 115.91 158.94 110.93 127.04 110.93C95.14 110.93 78.93 115.91 63.25 120.72C47.45 125.57 31.13 130.59 -1 130.59V129.03C30.89 129.03 47.11 124.05 62.79 119.24C78.59 114.39 94.91 109.37 127.04 109.37Z" fill="url(#paint12_linear_131_1162)"/>
<path d="M127.04 118.45C159.15 118.45 175.48 123.46 191.26 128.31C206.95 133.13 223.17 138.11 255.09 138.11V139.41C222.98 139.41 206.66 134.4 190.88 129.55C175.19 124.73 158.96 119.75 127.04 119.75C95.12 119.75 78.9 124.73 63.21 129.55C47.43 134.4 31.1 139.41 -1 139.41V138.11C30.91 138.11 47.14 133.13 62.83 128.31C78.61 123.46 94.94 118.45 127.04 118.45Z" fill="url(#paint13_linear_131_1162)"/>
<path d="M127.04 127.52C159.13 127.52 175.45 132.52 191.22 137.37C206.92 142.19 223.16 147.18 255.09 147.18V148.22C223 148.22 206.69 143.22 190.92 138.37C175.21 133.55 158.98 128.56 127.04 128.56C95.1 128.56 78.87 133.55 63.17 138.37C47.4 143.21 31.09 148.22 -1 148.22V147.18C30.93 147.18 47.17 142.19 62.87 137.37C78.64 132.53 94.95 127.52 127.04 127.52Z" fill="url(#paint14_linear_131_1162)"/>
<path d="M255.09 145.46C287.45 145.46 303.89 150.51 319.79 155.39C335.37 160.17 351.47 165.11 383.13 165.11C414.79 165.11 430.9 160.17 446.47 155.39C462.37 150.51 478.81 145.46 511.17 145.46V150.09C479.51 150.09 463.4 155.03 447.83 159.81C431.93 164.69 415.49 169.74 383.13 169.74C350.77 169.74 334.33 164.69 318.43 159.81C302.85 155.03 286.75 150.09 255.09 150.09V145.46Z" fill="url(#paint15_linear_131_1162)"/>
<path d="M255.09 136.64C287.42 136.64 303.86 141.69 319.75 146.57C335.33 151.35 351.44 156.3 383.13 156.3C414.82 156.3 430.93 151.35 446.51 146.57C462.4 141.69 478.84 136.64 511.17 136.64V141.01C479.48 141.01 463.37 145.96 447.79 150.74C431.9 155.62 415.46 160.67 383.13 160.67C350.8 160.67 334.36 155.62 318.47 150.74C302.89 145.96 286.78 141.01 255.09 141.01V136.64Z" fill="url(#paint16_linear_131_1162)"/>
<path d="M255.09 127.83C287.41 127.83 303.83 132.87 319.71 137.75C335.3 142.54 351.43 147.49 383.13 147.49C414.83 147.49 430.96 142.54 446.55 137.75C462.43 132.87 478.85 127.83 511.17 127.83V131.94C479.47 131.94 463.34 136.89 447.75 141.68C431.87 146.56 415.45 151.6 383.13 151.6C350.81 151.6 334.39 146.56 318.51 141.68C302.92 136.89 286.79 131.94 255.09 131.94V127.83Z" fill="url(#paint17_linear_131_1162)"/>
<path d="M255.09 119.02C287.39 119.02 303.8 124.05 319.68 128.93C335.28 133.72 351.41 138.68 383.14 138.68C414.87 138.68 431 133.72 446.6 128.93C462.47 124.06 478.89 119.02 511.19 119.02V122.87C479.47 122.87 463.33 127.83 447.73 132.62C431.86 137.49 415.44 142.53 383.14 142.53C350.84 142.53 334.43 137.5 318.55 132.62C302.95 127.83 286.82 122.87 255.09 122.87V119.02Z" fill="url(#paint18_linear_131_1162)"/>
<path d="M255.09 110.2C287.37 110.2 303.77 115.24 319.64 120.12C335.25 124.91 351.39 129.87 383.13 129.87C414.87 129.87 431.01 124.91 446.62 120.12C462.49 115.25 478.89 110.2 511.17 110.2V113.81C479.43 113.81 463.29 118.77 447.68 123.56C431.81 128.43 415.41 133.48 383.13 133.48C350.85 133.48 334.45 128.44 318.58 123.56C302.97 118.77 286.83 113.81 255.09 113.81V110.2Z" fill="url(#paint19_linear_131_1162)"/>
<path d="M255.09 101.38C287.35 101.38 303.75 106.41 319.6 111.29C335.22 116.09 351.37 121.04 383.13 121.04C414.89 121.04 431.04 116.08 446.66 111.29C462.51 106.42 478.91 101.38 511.17 101.38V104.73C479.41 104.73 463.26 109.69 447.64 114.48C431.79 119.35 415.39 124.39 383.13 124.39C350.87 124.39 334.47 119.36 318.62 114.48C303 109.68 286.85 104.73 255.09 104.73V101.38Z" fill="url(#paint20_linear_131_1162)"/>
<path d="M255.09 92.5698C287.33 92.5698 303.72 97.5998 319.56 102.47C335.19 107.27 351.35 112.23 383.13 112.23C414.91 112.23 431.07 107.26 446.7 102.47C462.54 97.5998 478.93 92.5698 511.17 92.5698V95.6598C479.39 95.6598 463.23 100.63 447.6 105.42C431.76 110.29 415.37 115.32 383.13 115.32C350.89 115.32 334.5 110.29 318.66 105.42C303.03 100.62 286.87 95.6598 255.09 95.6598V92.5698Z" fill="url(#paint21_linear_131_1162)"/>
<path d="M255.09 83.7598C287.31 83.7598 303.69 88.7898 319.52 93.6398C335.16 98.4398 351.33 103.41 383.13 103.41C414.93 103.41 431.09 98.4398 446.74 93.6398C462.58 88.7798 478.95 83.7598 511.17 83.7598V86.5898C479.37 86.5898 463.21 91.5598 447.56 96.3598C431.72 101.22 415.35 106.24 383.13 106.24C350.91 106.24 334.53 101.21 318.7 96.3598C303.06 91.5598 286.89 86.5898 255.09 86.5898V83.7598Z" fill="url(#paint22_linear_131_1162)"/>
<path d="M255.09 74.9399C287.29 74.9399 303.66 79.9699 319.49 84.8299C335.13 89.6299 351.31 94.5999 383.13 94.5999C414.95 94.5999 431.12 89.6299 446.77 84.8299C462.61 79.9599 478.97 74.9399 511.17 74.9399V77.5199C479.35 77.5199 463.18 82.4899 447.53 87.2899C431.69 92.1599 415.33 97.1799 383.13 97.1799C350.93 97.1799 334.56 92.1499 318.73 87.2899C303.09 82.4899 286.91 77.5199 255.09 77.5199V74.9399Z" fill="url(#paint23_linear_131_1162)"/>
<path d="M255.09 66.1201C287.27 66.1201 303.63 71.1501 319.45 76.0001C335.1 80.8001 351.29 85.7801 383.13 85.7801C414.97 85.7801 431.15 80.8101 446.81 76.0001C462.63 71.1401 478.99 66.1201 511.17 66.1201V68.4401C479.33 68.4401 463.15 73.4101 447.49 78.2201C431.67 83.0801 415.31 88.1001 383.13 88.1001C350.95 88.1001 334.59 83.0701 318.77 78.2201C303.12 73.4201 286.93 68.4401 255.09 68.4401V66.1201Z" fill="url(#paint24_linear_131_1162)"/>
<path d="M255.09 57.3198C287.26 57.3198 303.6 62.3398 319.42 67.1898C335.08 71.9998 351.28 76.9798 383.13 76.9798C414.98 76.9798 431.19 72.0098 446.84 67.1898C462.65 62.3398 479 57.3198 511.17 57.3198V59.3798C479.32 59.3798 463.11 64.3498 447.46 69.1698C431.65 74.0198 415.3 79.0398 383.13 79.0398C350.96 79.0398 334.62 74.0198 318.8 69.1698C303.14 64.3598 286.94 59.3798 255.09 59.3798V57.3198Z" fill="url(#paint25_linear_131_1162)"/>
<path d="M255.09 48.5C287.23 48.5 303.57 53.52 319.38 58.37C335.05 63.18 351.26 68.16 383.13 68.16C415 68.16 431.21 63.18 446.88 58.37C462.68 53.52 479.02 48.5 511.17 48.5V50.3C479.29 50.3 463.09 55.28 447.42 60.09C431.62 64.94 415.28 69.96 383.13 69.96C350.98 69.96 334.65 64.94 318.84 60.09C303.17 55.28 286.96 50.3 255.09 50.3V48.5Z" fill="url(#paint26_linear_131_1162)"/>
<path d="M255.09 39.6797C287.22 39.6797 303.54 44.7 319.34 49.55C335.02 54.36 351.24 59.34 383.13 59.34C415.02 59.34 431.24 54.36 446.92 49.55C462.72 44.7 479.04 39.6797 511.17 39.6797V41.2397C479.28 41.2397 463.06 46.22 447.38 51.03C431.58 55.88 415.26 60.9 383.13 60.9C351 60.9 334.68 55.88 318.88 51.03C303.2 46.22 286.98 41.2397 255.09 41.2397V39.6797Z" fill="url(#paint27_linear_131_1162)"/>
<path d="M255.09 30.8599C287.2 30.8599 303.52 35.8699 319.3 40.7199C334.99 45.54 351.21 50.52 383.13 50.52C415.05 50.52 431.27 45.54 446.96 40.7199C462.74 35.8699 479.07 30.8599 511.17 30.8599V32.1599C479.26 32.1599 463.03 37.1399 447.34 41.9599C431.56 46.81 415.23 51.82 383.13 51.82C351.03 51.82 334.7 46.81 318.92 41.9599C303.23 37.1399 287.01 32.1599 255.09 32.1599V30.8599Z" fill="url(#paint28_linear_131_1162)"/>
<path d="M255.09 23.0996V22.0596C287.18 22.0596 303.48 27.0596 319.26 31.9096C334.96 36.7296 351.2 41.7096 383.13 41.7096C415.06 41.7096 431.3 36.7296 446.99 31.9096C462.77 27.0596 479.08 22.0596 511.17 22.0596V23.0996C479.24 23.0996 463 28.0896 447.3 32.9096C431.53 37.7496 415.22 42.7496 383.13 42.7496C351.04 42.7496 334.73 37.7496 318.95 32.9096C303.26 28.0896 287.02 23.0996 255.09 23.0996Z" fill="url(#paint29_linear_131_1162)"/>
<path d="M511.17 24.8198V20.1898C542.83 20.1898 558.93 15.2498 574.51 10.4598C590.41 5.57979 606.85 0.529785 639.21 0.529785C671.57 0.529785 688.01 5.57979 703.92 10.4598C719.49 15.2498 735.59 20.1898 767.26 20.1898V24.8198C734.9 24.8198 718.46 19.7698 702.56 14.8898C686.98 10.1098 670.88 5.15979 639.21 5.15979C607.54 5.15979 591.44 10.1098 575.87 14.8898C559.96 19.7698 543.53 24.8198 511.17 24.8198Z" fill="url(#paint30_linear_131_1162)"/>
<path d="M639.21 9.59961C671.55 9.59961 687.98 14.6496 703.88 19.5296C719.46 24.3096 735.58 29.2596 767.26 29.2596V33.6296C734.93 33.6296 718.49 28.5796 702.6 23.6996C687.02 18.9196 670.9 13.9696 639.21 13.9696C607.52 13.9696 591.41 18.9196 575.83 23.6996C559.94 28.5796 543.5 33.6296 511.17 33.6296V29.2596C542.86 29.2596 558.97 24.3096 574.55 19.5296C590.44 14.6496 606.88 9.59961 639.21 9.59961Z" fill="url(#paint31_linear_131_1162)"/>
<path d="M639.211 18.6699C671.541 18.6699 687.961 23.7099 703.841 28.5899C719.431 33.3799 735.561 38.3299 767.261 38.3299V42.4399C734.941 42.4399 718.521 37.3999 702.641 32.5199C687.051 27.7299 670.921 22.7799 639.221 22.7799C607.521 22.7799 591.391 27.7299 575.801 32.5199C559.921 37.3999 543.501 42.4399 511.181 42.4399V38.3299C542.881 38.3299 559.011 33.3799 574.601 28.5899C590.481 23.7099 606.901 18.6699 639.221 18.6699H639.211Z" fill="url(#paint32_linear_131_1162)"/>
<path d="M639.21 27.75C671.51 27.75 687.93 32.78 703.8 37.66C719.41 42.45 735.53 47.41 767.26 47.41V51.26C734.96 51.26 718.55 46.23 702.67 41.35C687.06 36.56 670.93 31.6 639.21 31.6C607.49 31.6 591.35 36.56 575.75 41.35C559.88 46.22 543.46 51.26 511.16 51.26V47.41C542.88 47.41 559.02 42.45 574.62 37.66C590.49 32.79 606.91 27.75 639.21 27.75Z" fill="url(#paint33_linear_131_1162)"/>
<path d="M639.21 36.8096C671.49 36.8096 687.9 41.8496 703.77 46.73C719.38 51.52 735.52 56.48 767.26 56.48V60.09C734.98 60.09 718.58 55.05 702.71 50.17C687.1 45.38 670.96 40.4196 639.21 40.4196C607.46 40.4196 591.33 45.38 575.72 50.17C559.85 55.04 543.45 60.09 511.17 60.09V56.48C542.91 56.48 559.05 51.52 574.66 46.73C590.53 41.8596 606.93 36.8096 639.21 36.8096Z" fill="url(#paint34_linear_131_1162)"/>
<path d="M639.21 45.8799C671.48 45.8799 687.87 50.9099 703.73 55.7899C719.35 60.5899 735.5 65.5399 767.26 65.5399V68.8899C735 68.8899 718.6 63.8599 702.75 58.9799C687.13 54.1799 670.97 49.2299 639.21 49.2299C607.45 49.2299 591.3 54.1899 575.68 58.9799C559.83 63.8499 543.43 68.8899 511.17 68.8899V65.5399C542.93 65.5399 559.08 60.5799 574.7 55.7899C590.55 50.9199 606.95 45.8799 639.21 45.8799Z" fill="url(#paint35_linear_131_1162)"/>
<path d="M639.21 54.96C671.45 54.96 687.85 59.99 703.69 64.86C719.32 69.66 735.48 74.62 767.26 74.62V77.71C735.02 77.71 718.63 72.68 702.79 67.81C687.16 63.01 671 58.05 639.21 58.05C607.42 58.05 591.27 63.02 575.64 67.81C559.8 72.68 543.41 77.71 511.17 77.71V74.62C542.95 74.62 559.11 69.65 574.74 64.86C590.58 59.99 606.97 54.96 639.21 54.96Z" fill="url(#paint36_linear_131_1162)"/>
<path d="M639.21 64.0298C671.44 64.0298 687.82 69.0598 703.65 73.9098C719.29 78.7098 735.46 83.6798 767.26 83.6798V86.5098C735.04 86.5098 718.66 81.4798 702.83 76.6298C687.19 71.8298 671.01 66.8598 639.21 66.8598C607.41 66.8598 591.25 71.8298 575.6 76.6298C559.76 81.4898 543.39 86.5098 511.17 86.5098V83.6798C542.97 83.6798 559.13 78.7098 574.78 73.9098C590.62 69.0498 606.99 64.0298 639.21 64.0298Z" fill="url(#paint37_linear_131_1162)"/>
<path d="M639.211 73.0898C671.411 73.0898 687.781 78.1198 703.621 82.9798C719.261 87.7798 735.441 92.7498 767.261 92.7498V95.3298C735.061 95.3298 718.691 90.2998 702.871 85.4398C687.221 80.6398 671.041 75.6698 639.221 75.6698C607.401 75.6698 591.231 80.6398 575.581 85.4398C559.741 90.3098 543.381 95.3298 511.181 95.3298V92.7498C543.001 92.7498 559.171 87.7798 574.821 82.9798C590.661 78.1098 607.021 73.0898 639.221 73.0898H639.211Z" fill="url(#paint38_linear_131_1162)"/>
<path d="M639.211 82.1699C671.401 82.1699 687.761 87.1999 703.581 92.0499C719.231 96.8499 735.421 101.83 767.261 101.83V104.15C735.081 104.15 718.721 99.1199 702.901 94.2699C687.251 89.4699 671.051 84.4899 639.221 84.4899C607.391 84.4899 591.201 89.4599 575.541 94.2699C559.721 99.1299 543.361 104.15 511.181 104.15V101.83C543.021 101.83 559.201 96.8599 574.861 92.0499C590.681 87.1899 607.041 82.1699 639.221 82.1699H639.211Z" fill="url(#paint39_linear_131_1162)"/>
<path d="M639.21 91.2402C671.38 91.2402 687.73 96.2602 703.54 101.12C719.2 105.93 735.4 110.91 767.25 110.91V112.97C735.08 112.97 718.74 107.95 702.92 103.09C687.26 98.2802 671.06 93.3002 639.2 93.3002C607.34 93.3002 591.14 98.2702 575.49 103.09C559.68 107.95 543.33 112.97 511.16 112.97V110.91C543.01 110.91 559.22 105.94 574.87 101.12C590.68 96.2602 607.03 91.2402 639.2 91.2402H639.21Z" fill="url(#paint40_linear_131_1162)"/>
<path d="M639.21 100.31C671.36 100.31 687.7 105.32 703.51 110.17C719.18 114.98 735.39 119.96 767.26 119.96V121.76C735.12 121.76 718.78 116.75 702.97 111.9C687.3 107.09 671.09 102.11 639.21 102.11C607.33 102.11 591.13 107.09 575.46 111.9C559.66 116.75 543.32 121.76 511.17 121.76V119.96C543.05 119.96 559.25 114.98 574.92 110.17C590.72 105.32 607.06 100.31 639.21 100.31Z" fill="url(#paint41_linear_131_1162)"/>
<path d="M639.21 109.37C671.34 109.37 687.67 114.39 703.47 119.24C719.15 124.05 735.37 129.03 767.26 129.03V130.59C735.13 130.59 718.81 125.57 703.01 120.72C687.33 115.91 671.11 110.93 639.21 110.93C607.31 110.93 591.1 115.91 575.42 120.72C559.62 125.57 543.3 130.59 511.17 130.59V129.03C543.06 129.03 559.28 124.05 574.96 119.24C590.76 114.39 607.08 109.37 639.21 109.37Z" fill="url(#paint42_linear_131_1162)"/>
<path d="M639.21 118.45C671.32 118.45 687.65 123.46 703.43 128.31C719.12 133.13 735.34 138.11 767.26 138.11V139.41C735.15 139.41 718.83 134.4 703.05 129.55C687.36 124.73 671.13 119.75 639.21 119.75C607.29 119.75 591.07 124.73 575.38 129.55C559.6 134.4 543.27 139.41 511.17 139.41V138.11C543.08 138.11 559.31 133.13 575 128.31C590.78 123.46 607.11 118.45 639.21 118.45Z" fill="url(#paint43_linear_131_1162)"/>
<path d="M639.21 127.52C671.3 127.52 687.62 132.52 703.39 137.37C719.09 142.19 735.33 147.18 767.26 147.18V148.22C735.17 148.22 718.86 143.22 703.09 138.37C687.38 133.55 671.15 128.56 639.21 128.56C607.27 128.56 591.04 133.55 575.34 138.37C559.57 143.21 543.26 148.22 511.17 148.22V147.18C543.1 147.18 559.34 142.19 575.04 137.37C590.81 132.53 607.12 127.52 639.21 127.52Z" fill="url(#paint44_linear_131_1162)"/>
<path d="M767.26 145.46C799.62 145.46 816.06 150.51 831.96 155.39C847.54 160.17 863.64 165.11 895.3 165.11C926.96 165.11 943.07 160.17 958.64 155.39C974.54 150.51 990.98 145.46 1023.34 145.46V150.09C991.68 150.09 975.57 155.03 960 159.81C944.1 164.69 927.66 169.74 895.3 169.74C862.94 169.74 846.5 164.69 830.6 159.81C815.02 155.03 798.92 150.09 767.26 150.09V145.46Z" fill="url(#paint45_linear_131_1162)"/>
<path d="M767.26 136.64C799.59 136.64 816.03 141.69 831.92 146.57C847.5 151.35 863.61 156.3 895.3 156.3C926.99 156.3 943.1 151.35 958.68 146.57C974.57 141.69 991.01 136.64 1023.34 136.64V141.01C991.65 141.01 975.54 145.96 959.96 150.74C944.07 155.62 927.63 160.67 895.3 160.67C862.97 160.67 846.53 155.62 830.64 150.74C815.06 145.96 798.95 141.01 767.26 141.01V136.64Z" fill="url(#paint46_linear_131_1162)"/>
<path d="M767.26 127.83C799.58 127.83 816 132.87 831.88 137.75C847.47 142.54 863.6 147.49 895.3 147.49C927 147.49 943.13 142.54 958.72 137.75C974.6 132.87 991.02 127.83 1023.34 127.83V131.94C991.64 131.94 975.51 136.89 959.92 141.68C944.04 146.56 927.62 151.6 895.3 151.6C862.98 151.6 846.56 146.56 830.68 141.68C815.09 136.89 798.96 131.94 767.26 131.94V127.83Z" fill="url(#paint47_linear_131_1162)"/>
<path d="M767.26 119.02C799.56 119.02 815.97 124.05 831.85 128.93C847.45 133.72 863.58 138.68 895.31 138.68C927.04 138.68 943.17 133.72 958.77 128.93C974.64 124.06 991.06 119.02 1023.36 119.02V122.87C991.64 122.87 975.5 127.83 959.9 132.62C944.03 137.49 927.61 142.53 895.31 142.53C863.01 142.53 846.6 137.5 830.72 132.62C815.12 127.83 798.99 122.87 767.26 122.87V119.02Z" fill="url(#paint48_linear_131_1162)"/>
<path d="M767.26 110.2C799.54 110.2 815.94 115.24 831.81 120.12C847.42 124.91 863.56 129.87 895.3 129.87C927.04 129.87 943.18 124.91 958.79 120.12C974.66 115.25 991.06 110.2 1023.34 110.2V113.81C991.6 113.81 975.46 118.77 959.85 123.56C943.98 128.43 927.58 133.48 895.3 133.48C863.02 133.48 846.62 128.44 830.75 123.56C815.14 118.77 799 113.81 767.26 113.81V110.2Z" fill="url(#paint49_linear_131_1162)"/>
<path d="M767.26 101.38C799.52 101.38 815.92 106.41 831.77 111.29C847.39 116.09 863.54 121.04 895.3 121.04C927.06 121.04 943.21 116.08 958.83 111.29C974.68 106.42 991.08 101.38 1023.34 101.38V104.73C991.58 104.73 975.43 109.69 959.81 114.48C943.96 119.35 927.56 124.39 895.3 124.39C863.04 124.39 846.64 119.36 830.79 114.48C815.17 109.68 799.02 104.73 767.26 104.73V101.38Z" fill="url(#paint50_linear_131_1162)"/>
<path d="M767.26 92.5698C799.5 92.5698 815.89 97.5998 831.73 102.47C847.36 107.27 863.52 112.23 895.3 112.23C927.08 112.23 943.24 107.26 958.87 102.47C974.71 97.5998 991.1 92.5698 1023.34 92.5698V95.6598C991.56 95.6598 975.4 100.63 959.77 105.42C943.93 110.29 927.54 115.32 895.3 115.32C863.06 115.32 846.67 110.29 830.83 105.42C815.2 100.62 799.04 95.6598 767.26 95.6598V92.5698Z" fill="url(#paint51_linear_131_1162)"/>
<path d="M767.26 83.7598C799.48 83.7598 815.86 88.7898 831.69 93.6398C847.33 98.4398 863.5 103.41 895.3 103.41C927.1 103.41 943.26 98.4398 958.91 93.6398C974.75 88.7798 991.12 83.7598 1023.34 83.7598V86.5898C991.54 86.5898 975.38 91.5598 959.73 96.3598C943.89 101.22 927.52 106.24 895.3 106.24C863.08 106.24 846.7 101.21 830.87 96.3598C815.23 91.5598 799.06 86.5898 767.26 86.5898V83.7598Z" fill="url(#paint52_linear_131_1162)"/>
<path d="M767.26 74.9399C799.46 74.9399 815.83 79.9699 831.66 84.8299C847.3 89.6299 863.48 94.5999 895.3 94.5999C927.12 94.5999 943.29 89.6299 958.94 84.8299C974.78 79.9599 991.14 74.9399 1023.34 74.9399V77.5199C991.52 77.5199 975.35 82.4899 959.7 87.2899C943.86 92.1599 927.5 97.1799 895.3 97.1799C863.1 97.1799 846.73 92.1499 830.9 87.2899C815.26 82.4899 799.08 77.5199 767.26 77.5199V74.9399Z" fill="url(#paint53_linear_131_1162)"/>
<path d="M767.26 66.1201C799.44 66.1201 815.8 71.1501 831.62 76.0001C847.27 80.8001 863.46 85.7801 895.3 85.7801C927.14 85.7801 943.32 80.8101 958.98 76.0001C974.8 71.1401 991.16 66.1201 1023.34 66.1201V68.4401C991.5 68.4401 975.32 73.4101 959.66 78.2201C943.84 83.0801 927.48 88.1001 895.3 88.1001C863.12 88.1001 846.76 83.0701 830.94 78.2201C815.29 73.4201 799.1 68.4401 767.26 68.4401V66.1201Z" fill="url(#paint54_linear_131_1162)"/>
<path d="M767.26 57.3198C799.43 57.3198 815.77 62.3398 831.59 67.1898C847.25 71.9998 863.45 76.9798 895.3 76.9798C927.15 76.9798 943.36 72.0098 959.01 67.1898C974.82 62.3398 991.17 57.3198 1023.34 57.3198V59.3798C991.49 59.3798 975.28 64.3498 959.63 69.1698C943.82 74.0198 927.47 79.0398 895.3 79.0398C863.13 79.0398 846.79 74.0198 830.97 69.1698C815.31 64.3598 799.11 59.3798 767.26 59.3798V57.3198Z" fill="url(#paint55_linear_131_1162)"/>
<path d="M767.26 48.5C799.4 48.5 815.74 53.52 831.55 58.37C847.22 63.18 863.43 68.16 895.3 68.16C927.17 68.16 943.38 63.18 959.05 58.37C974.85 53.52 991.19 48.5 1023.34 48.5V50.3C991.46 50.3 975.26 55.28 959.59 60.09C943.79 64.94 927.45 69.96 895.3 69.96C863.15 69.96 846.82 64.94 831.01 60.09C815.34 55.28 799.13 50.3 767.26 50.3V48.5Z" fill="url(#paint56_linear_131_1162)"/>
<path d="M767.26 39.6797C799.39 39.6797 815.71 44.7 831.51 49.55C847.19 54.36 863.41 59.34 895.3 59.34C927.19 59.34 943.41 54.36 959.09 49.55C974.89 44.7 991.21 39.6797 1023.34 39.6797V41.2397C991.45 41.2397 975.23 46.22 959.55 51.03C943.75 55.88 927.43 60.9 895.3 60.9C863.17 60.9 846.85 55.88 831.05 51.03C815.37 46.22 799.15 41.2397 767.26 41.2397V39.6797Z" fill="url(#paint57_linear_131_1162)"/>
<path d="M767.26 30.8599C799.37 30.8599 815.69 35.8699 831.47 40.7199C847.16 45.54 863.38 50.52 895.3 50.52C927.22 50.52 943.44 45.54 959.13 40.7199C974.91 35.8699 991.24 30.8599 1023.34 30.8599V32.1599C991.43 32.1599 975.2 37.1399 959.51 41.9599C943.73 46.81 927.4 51.82 895.3 51.82C863.2 51.82 846.87 46.81 831.09 41.9599C815.4 37.1399 799.18 32.1599 767.26 32.1599V30.8599Z" fill="url(#paint58_linear_131_1162)"/>
<path d="M767.26 23.0996V22.0596C799.35 22.0596 815.66 27.0596 831.43 31.9096C847.13 36.7296 863.37 41.7096 895.3 41.7096C927.23 41.7096 943.47 36.7296 959.17 31.9096C974.94 27.0596 991.25 22.0596 1023.34 22.0596V23.0996C991.41 23.0996 975.17 28.0896 959.47 32.9096C943.7 37.7496 927.39 42.7496 895.3 42.7496C863.21 42.7496 846.9 37.7496 831.12 32.9096C815.43 28.0896 799.19 23.0996 767.26 23.0996Z" fill="url(#paint59_linear_131_1162)"/>
<path d="M127.04 126.92C159.41 126.92 175.84 131.97 191.75 136.86C207.33 141.64 223.43 146.58 255.09 146.58V151.21C222.73 151.21 206.29 146.16 190.39 141.27C174.81 136.49 158.71 131.55 127.04 131.55C95.37 131.55 79.27 136.49 63.7 141.27C47.8 146.16 31.36 151.21 -1 151.21V146.58C30.66 146.58 46.77 141.64 62.34 136.86C78.24 131.97 94.68 126.92 127.04 126.92Z" fill="url(#paint60_linear_131_1162)"/>
<path d="M127.04 136C159.38 136 175.81 141.05 191.71 145.92C207.29 150.71 223.41 155.65 255.09 155.65V160.02C222.76 160.02 206.32 154.98 190.43 150.1C174.85 145.32 158.73 140.37 127.04 140.37C95.35 140.37 79.24 145.32 63.66 150.1C47.77 154.97 31.33 160.02 -1 160.02V155.65C30.69 155.65 46.8 150.7 62.38 145.92C78.27 141.05 94.71 136 127.04 136Z" fill="url(#paint61_linear_131_1162)"/>
<path d="M127.04 145.06C159.37 145.06 175.79 150.1 191.67 154.98C207.26 159.77 223.39 164.72 255.09 164.72V168.83C222.77 168.83 206.35 163.79 190.47 158.91C174.88 154.12 158.75 149.17 127.05 149.17C95.3498 149.17 79.2198 154.12 63.6298 158.91C47.7498 163.79 31.3298 168.83 -0.990234 168.83V164.72C30.7098 164.72 46.8398 159.77 62.4298 154.98C78.3098 150.1 94.7298 145.06 127.05 145.06H127.04Z" fill="url(#paint62_linear_131_1162)"/>
<path d="M127.04 154.14C159.34 154.14 175.76 159.18 191.63 164.06C207.24 168.85 223.37 173.81 255.09 173.81V177.66C222.79 177.66 206.38 172.62 190.5 167.74C174.89 162.95 158.76 157.99 127.04 157.99C95.3202 157.99 79.1802 162.95 63.5802 167.74C47.7102 172.61 31.2902 177.66 -1.00977 177.66V173.81C30.7102 173.81 46.8502 168.85 62.4502 164.06C78.3202 159.19 94.7402 154.14 127.04 154.14Z" fill="url(#paint63_linear_131_1162)"/>
<path d="M127.04 163.2C159.32 163.2 175.73 168.24 191.6 173.12C207.21 177.91 223.35 182.87 255.09 182.87V186.48C222.81 186.48 206.41 181.44 190.54 176.56C174.93 171.77 158.79 166.81 127.04 166.81C95.29 166.81 79.16 171.77 63.55 176.56C47.68 181.43 31.28 186.48 -1 186.48V182.87C30.74 182.87 46.88 177.91 62.49 173.12C78.36 168.25 94.76 163.2 127.04 163.2Z" fill="url(#paint64_linear_131_1162)"/>
<path d="M127.04 172.28C159.31 172.28 175.7 177.31 191.56 182.18C207.18 186.98 223.33 191.93 255.09 191.93V195.28C222.83 195.28 206.43 190.25 190.58 185.38C174.96 180.58 158.8 175.63 127.04 175.63C95.28 175.63 79.13 180.59 63.51 185.38C47.66 190.25 31.26 195.28 -1 195.28V191.93C30.76 191.93 46.91 186.97 62.53 182.18C78.38 177.31 94.78 172.28 127.04 172.28Z" fill="url(#paint65_linear_131_1162)"/>
<path d="M127.04 181.35C159.28 181.35 175.68 186.38 191.52 191.25C207.15 196.05 223.31 201.01 255.09 201.01V204.1C222.85 204.1 206.46 199.07 190.62 194.2C174.99 189.4 158.83 184.44 127.04 184.44C95.25 184.44 79.1 189.41 63.47 194.2C47.63 199.07 31.24 204.1 -1 204.1V201.01C30.78 201.01 46.94 196.04 62.57 191.25C78.41 186.38 94.8 181.35 127.04 181.35Z" fill="url(#paint66_linear_131_1162)"/>
<path d="M127.04 190.42C159.27 190.42 175.65 195.45 191.48 200.31C207.12 205.11 223.29 210.08 255.09 210.08V212.91C222.87 212.91 206.49 207.88 190.66 203.02C175.02 198.22 158.84 193.25 127.04 193.25C95.24 193.25 79.08 198.22 63.43 203.02C47.59 207.89 31.22 212.91 -1 212.91V210.08C30.8 210.08 46.96 205.11 62.61 200.31C78.45 195.44 94.82 190.42 127.04 190.42Z" fill="url(#paint67_linear_131_1162)"/>
<path d="M127.04 199.49C159.24 199.49 175.61 204.52 191.45 209.37C207.09 214.17 223.27 219.14 255.09 219.14V221.72C222.89 221.72 206.52 216.69 190.7 211.84C175.05 207.04 158.87 202.07 127.05 202.07C95.2298 202.07 79.0598 207.04 63.3998 211.84C47.5698 216.7 31.2098 221.72 -0.990234 221.72V219.14C30.8298 219.14 46.9998 214.17 62.6598 209.37C78.4898 204.51 94.8498 199.49 127.05 199.49H127.04Z" fill="url(#paint68_linear_131_1162)"/>
<path d="M127.04 208.56C159.23 208.56 175.59 213.59 191.41 218.44C207.06 223.24 223.25 228.22 255.09 228.22V230.54C222.91 230.54 206.55 225.51 190.73 220.66C175.08 215.86 158.88 210.88 127.05 210.88C95.2198 210.88 79.0298 215.85 63.3698 220.66C47.5498 225.52 31.1898 230.54 -0.990234 230.54V228.22C30.8498 228.22 47.0298 223.25 62.6898 218.44C78.5098 213.58 94.8698 208.56 127.05 208.56H127.04Z" fill="url(#paint69_linear_131_1162)"/>
<path d="M127.04 217.63C159.21 217.63 175.56 222.65 191.37 227.51C207.03 232.32 223.23 237.3 255.08 237.3V239.36C222.91 239.36 206.57 234.34 190.75 229.48C175.09 224.67 158.89 219.69 127.03 219.69C95.1702 219.69 78.9702 224.66 63.3202 229.48C47.5102 234.34 31.1602 239.36 -1.00977 239.36V237.3C30.8402 237.3 47.0502 232.33 62.7002 227.51C78.5102 222.65 94.8602 217.63 127.03 217.63H127.04Z" fill="url(#paint70_linear_131_1162)"/>
<path d="M127.04 226.71C159.19 226.71 175.53 231.73 191.34 236.58C207.01 241.39 223.22 246.37 255.09 246.37V248.17C222.95 248.17 206.61 243.15 190.8 238.3C175.13 233.49 158.92 228.51 127.04 228.51C95.16 228.51 78.96 233.49 63.29 238.3C47.49 243.15 31.15 248.17 -1 248.17V246.37C30.88 246.37 47.08 241.39 62.75 236.58C78.55 231.73 94.89 226.71 127.04 226.71Z" fill="url(#paint71_linear_131_1162)"/>
<path d="M127.04 235.77C159.17 235.77 175.5 240.79 191.3 245.63C206.98 250.45 223.2 255.42 255.09 255.42V256.98C222.96 256.98 206.64 251.96 190.84 247.12C175.16 242.3 158.94 237.33 127.04 237.33C95.14 237.33 78.93 242.3 63.25 247.12C47.45 251.96 31.13 256.98 -1 256.98V255.42C30.89 255.42 47.11 250.45 62.79 245.63C78.59 240.79 94.91 235.77 127.04 235.77Z" fill="url(#paint72_linear_131_1162)"/>
<path d="M127.04 244.84C159.15 244.84 175.48 249.85 191.26 254.7C206.95 259.52 223.17 264.5 255.09 264.5V265.8C222.98 265.8 206.66 260.79 190.88 255.94C175.19 251.12 158.96 246.14 127.04 246.14C95.12 246.14 78.9 251.12 63.21 255.94C47.43 260.79 31.1 265.8 -1 265.8V264.5C30.91 264.5 47.14 259.52 62.83 254.7C78.61 249.85 94.94 244.84 127.04 244.84Z" fill="url(#paint73_linear_131_1162)"/>
<path d="M127.04 253.91C159.13 253.91 175.45 258.92 191.22 263.76C206.92 268.58 223.16 273.57 255.09 273.57V274.61C223 274.61 206.69 269.6 190.92 264.76C175.21 259.94 158.98 254.95 127.04 254.95C95.1 254.95 78.87 259.94 63.17 264.76C47.4 269.6 31.09 274.61 -1 274.61V273.57C30.93 273.57 47.17 268.58 62.87 263.76C78.64 258.92 94.95 253.91 127.04 253.91Z" fill="url(#paint74_linear_131_1162)"/>
<path d="M255.09 271.85C287.45 271.85 303.89 276.9 319.79 281.79C335.37 286.57 351.47 291.51 383.13 291.51C414.79 291.51 430.9 286.57 446.47 281.79C462.37 276.9 478.81 271.85 511.17 271.85V276.48C479.51 276.48 463.4 281.42 447.83 286.2C431.93 291.09 415.49 296.14 383.13 296.14C350.77 296.14 334.33 291.09 318.43 286.2C302.85 281.42 286.75 276.48 255.09 276.48V271.85Z" fill="url(#paint75_linear_131_1162)"/>
<path d="M255.09 263.04C287.42 263.04 303.86 268.09 319.75 272.97C335.33 277.75 351.44 282.7 383.13 282.7C414.82 282.7 430.93 277.75 446.51 272.97C462.4 268.09 478.84 263.04 511.17 263.04V267.41C479.48 267.41 463.37 272.36 447.79 277.14C431.9 282.02 415.46 287.07 383.13 287.07C350.8 287.07 334.36 282.02 318.47 277.14C302.89 272.36 286.78 267.41 255.09 267.41V263.04Z" fill="url(#paint76_linear_131_1162)"/>
<path d="M255.09 254.23C287.41 254.23 303.83 259.27 319.71 264.15C335.3 268.94 351.43 273.89 383.13 273.89C414.83 273.89 430.96 268.94 446.55 264.15C462.43 259.28 478.85 254.23 511.17 254.23V258.34C479.47 258.34 463.34 263.29 447.75 268.08C431.87 272.95 415.45 278 383.13 278C350.81 278 334.39 272.96 318.51 268.08C302.92 263.29 286.79 258.34 255.09 258.34V254.23Z" fill="url(#paint77_linear_131_1162)"/>
<path d="M255.09 245.41C287.39 245.41 303.8 250.45 319.68 255.33C335.28 260.12 351.41 265.08 383.14 265.08C414.87 265.08 431 260.12 446.6 255.33C462.47 250.46 478.89 245.41 511.19 245.41V249.26C479.47 249.26 463.33 254.22 447.73 259.01C431.86 263.88 415.44 268.93 383.14 268.93C350.84 268.93 334.43 263.89 318.55 259.01C302.95 254.22 286.82 249.26 255.09 249.26V245.41Z" fill="url(#paint78_linear_131_1162)"/>
<path d="M255.09 236.59C287.37 236.59 303.77 241.63 319.64 246.51C335.25 251.3 351.39 256.26 383.13 256.26C414.87 256.26 431.01 251.3 446.62 246.51C462.49 241.64 478.89 236.59 511.17 236.59V240.2C479.43 240.2 463.29 245.16 447.68 249.95C431.81 254.82 415.41 259.87 383.13 259.87C350.85 259.87 334.45 254.83 318.58 249.95C302.97 245.16 286.83 240.2 255.09 240.2V236.59Z" fill="url(#paint79_linear_131_1162)"/>
<path d="M255.09 227.78C287.35 227.78 303.75 232.81 319.6 237.68C335.22 242.48 351.37 247.43 383.13 247.43C414.89 247.43 431.04 242.47 446.66 237.68C462.51 232.81 478.91 227.78 511.17 227.78V231.13C479.41 231.13 463.26 236.09 447.64 240.88C431.79 245.75 415.39 250.78 383.13 250.78C350.87 250.78 334.47 245.75 318.62 240.88C303 236.08 286.85 231.13 255.09 231.13V227.78Z" fill="url(#paint80_linear_131_1162)"/>
<path d="M255.09 218.97C287.33 218.97 303.72 224 319.56 228.87C335.19 233.67 351.35 238.63 383.13 238.63C414.91 238.63 431.07 233.66 446.7 228.87C462.54 224 478.93 218.97 511.17 218.97V222.06C479.39 222.06 463.23 227.03 447.6 231.82C431.76 236.69 415.37 241.72 383.13 241.72C350.89 241.72 334.5 236.69 318.66 231.82C303.03 227.02 286.87 222.06 255.09 222.06V218.97Z" fill="url(#paint81_linear_131_1162)"/>
<path d="M255.09 210.15C287.31 210.15 303.69 215.18 319.52 220.04C335.16 224.84 351.33 229.81 383.13 229.81C414.93 229.81 431.09 224.84 446.74 220.04C462.58 215.17 478.95 210.15 511.17 210.15V212.98C479.37 212.98 463.21 217.95 447.56 222.75C431.72 227.62 415.35 232.64 383.13 232.64C350.91 232.64 334.53 227.61 318.7 222.75C303.06 217.95 286.89 212.98 255.09 212.98V210.15Z" fill="url(#paint82_linear_131_1162)"/>
<path d="M255.09 201.33C287.29 201.33 303.66 206.36 319.49 211.22C335.13 216.02 351.31 220.99 383.13 220.99C414.95 220.99 431.12 216.02 446.77 211.22C462.61 206.35 478.97 201.33 511.17 201.33V203.91C479.35 203.91 463.18 208.88 447.53 213.68C431.69 218.55 415.33 223.57 383.13 223.57C350.93 223.57 334.56 218.54 318.73 213.68C303.09 208.88 286.91 203.91 255.09 203.91V201.33Z" fill="url(#paint83_linear_131_1162)"/>
<path d="M255.09 192.52C287.27 192.52 303.63 197.55 319.45 202.4C335.1 207.21 351.29 212.18 383.13 212.18C414.97 212.18 431.15 207.21 446.81 202.4C462.63 197.55 478.99 192.52 511.17 192.52V194.84C479.33 194.84 463.15 199.81 447.49 204.62C431.67 209.47 415.31 214.5 383.13 214.5C350.95 214.5 334.59 209.47 318.77 204.62C303.12 199.81 286.93 194.84 255.09 194.84V192.52Z" fill="url(#paint84_linear_131_1162)"/>
<path d="M255.09 183.71C287.26 183.71 303.6 188.73 319.42 193.59C335.08 198.4 351.28 203.38 383.13 203.38C414.98 203.38 431.19 198.41 446.84 193.59C462.65 188.73 479 183.71 511.17 183.71V185.77C479.32 185.77 463.11 190.74 447.46 195.56C431.65 200.42 415.3 205.44 383.13 205.44C350.96 205.44 334.62 200.42 318.8 195.56C303.14 190.75 286.94 185.77 255.09 185.77V183.71Z" fill="url(#paint85_linear_131_1162)"/>
<path d="M255.09 174.89C287.23 174.89 303.57 179.91 319.38 184.76C335.05 189.57 351.26 194.55 383.13 194.55C415 194.55 431.21 189.57 446.88 184.76C462.68 179.91 479.02 174.89 511.17 174.89V176.69C479.29 176.69 463.09 181.67 447.42 186.48C431.62 191.33 415.28 196.35 383.13 196.35C350.98 196.35 334.65 191.33 318.84 186.48C303.17 181.67 286.96 176.69 255.09 176.69V174.89Z" fill="url(#paint86_linear_131_1162)"/>
<path d="M255.09 166.07C287.22 166.07 303.54 171.09 319.34 175.94C335.02 180.75 351.24 185.73 383.13 185.73C415.02 185.73 431.24 180.75 446.92 175.94C462.72 171.09 479.04 166.07 511.17 166.07V167.63C479.28 167.63 463.06 172.61 447.38 177.42C431.58 182.27 415.26 187.29 383.13 187.29C351 187.29 334.68 182.27 318.88 177.42C303.2 172.61 286.98 167.63 255.09 167.63V166.07Z" fill="url(#paint87_linear_131_1162)"/>
<path d="M255.09 157.26C287.2 157.26 303.52 162.27 319.3 167.11C334.99 171.93 351.21 176.91 383.13 176.91C415.05 176.91 431.27 171.93 446.96 167.11C462.74 162.27 479.07 157.26 511.17 157.26V158.56C479.26 158.56 463.03 163.54 447.34 168.36C431.56 173.2 415.23 178.21 383.13 178.21C351.03 178.21 334.7 173.2 318.92 168.36C303.23 163.54 287.01 158.56 255.09 158.56V157.26Z" fill="url(#paint88_linear_131_1162)"/>
<path d="M255.09 148.45C287.18 148.45 303.49 153.46 319.26 158.3C334.96 163.12 351.2 168.11 383.13 168.11C415.06 168.11 431.3 163.12 447 158.3C462.77 153.46 479.08 148.45 511.17 148.45V149.49C479.24 149.49 463 154.48 447.3 159.3C431.53 164.14 415.22 169.15 383.13 169.15C351.04 169.15 334.73 164.14 318.96 159.3C303.26 154.48 287.02 149.49 255.09 149.49V148.45Z" fill="url(#paint89_linear_131_1162)"/>
<path d="M639.21 126.92C671.58 126.92 688.01 131.97 703.92 136.86C719.5 141.64 735.6 146.58 767.26 146.58V151.21C734.9 151.21 718.46 146.16 702.56 141.27C686.98 136.49 670.88 131.55 639.21 131.55C607.54 131.55 591.44 136.49 575.87 141.27C559.97 146.16 543.53 151.21 511.17 151.21V146.58C542.83 146.58 558.94 141.64 574.51 136.86C590.41 131.97 606.85 126.92 639.21 126.92Z" fill="url(#paint90_linear_131_1162)"/>
<path d="M639.21 136C671.55 136 687.98 141.05 703.88 145.92C719.46 150.71 735.58 155.65 767.26 155.65V160.02C734.93 160.02 718.49 154.98 702.6 150.1C687.02 145.32 670.9 140.37 639.21 140.37C607.52 140.37 591.41 145.32 575.83 150.1C559.94 154.97 543.5 160.02 511.17 160.02V155.65C542.86 155.65 558.97 150.7 574.55 145.92C590.44 141.05 606.88 136 639.21 136Z" fill="url(#paint91_linear_131_1162)"/>
<path d="M639.211 145.06C671.541 145.06 687.961 150.1 703.841 154.98C719.431 159.77 735.561 164.72 767.261 164.72V168.83C734.941 168.83 718.521 163.79 702.641 158.91C687.051 154.12 670.921 149.17 639.221 149.17C607.521 149.17 591.391 154.12 575.801 158.91C559.921 163.79 543.501 168.83 511.181 168.83V164.72C542.881 164.72 559.011 159.77 574.601 154.98C590.481 150.1 606.901 145.06 639.221 145.06H639.211Z" fill="url(#paint92_linear_131_1162)"/>
<path d="M639.21 154.14C671.51 154.14 687.93 159.18 703.8 164.06C719.41 168.85 735.54 173.81 767.26 173.81V177.66C734.96 177.66 718.55 172.62 702.67 167.74C687.06 162.95 670.93 157.99 639.21 157.99C607.49 157.99 591.35 162.95 575.75 167.74C559.88 172.61 543.46 177.66 511.16 177.66V173.81C542.88 173.81 559.02 168.85 574.62 164.06C590.49 159.19 606.91 154.14 639.21 154.14Z" fill="url(#paint93_linear_131_1162)"/>
<path d="M639.21 163.2C671.49 163.2 687.9 168.24 703.77 173.12C719.38 177.91 735.52 182.87 767.26 182.87V186.48C734.98 186.48 718.58 181.44 702.71 176.56C687.1 171.77 670.96 166.81 639.21 166.81C607.46 166.81 591.33 171.77 575.72 176.56C559.85 181.43 543.45 186.48 511.17 186.48V182.87C542.91 182.87 559.05 177.91 574.66 173.12C590.53 168.25 606.93 163.2 639.21 163.2Z" fill="url(#paint94_linear_131_1162)"/>
<path d="M639.21 172.28C671.48 172.28 687.87 177.31 703.73 182.18C719.35 186.98 735.5 191.93 767.26 191.93V195.28C735 195.28 718.6 190.25 702.75 185.38C687.13 180.58 670.97 175.63 639.21 175.63C607.45 175.63 591.3 180.59 575.68 185.38C559.83 190.25 543.43 195.28 511.17 195.28V191.93C542.93 191.93 559.08 186.97 574.7 182.18C590.55 177.31 606.95 172.28 639.21 172.28Z" fill="url(#paint95_linear_131_1162)"/>
<path d="M639.21 181.35C671.45 181.35 687.85 186.38 703.69 191.25C719.32 196.05 735.48 201.01 767.26 201.01V204.1C735.02 204.1 718.63 199.07 702.79 194.2C687.16 189.4 671 184.44 639.21 184.44C607.42 184.44 591.27 189.41 575.64 194.2C559.8 199.07 543.41 204.1 511.17 204.1V201.01C542.95 201.01 559.11 196.04 574.74 191.25C590.58 186.38 606.97 181.35 639.21 181.35Z" fill="url(#paint96_linear_131_1162)"/>
<path d="M639.21 190.42C671.44 190.42 687.82 195.45 703.65 200.31C719.29 205.11 735.46 210.08 767.26 210.08V212.91C735.04 212.91 718.66 207.88 702.83 203.02C687.19 198.22 671.01 193.25 639.21 193.25C607.41 193.25 591.25 198.22 575.6 203.02C559.76 207.89 543.39 212.91 511.17 212.91V210.08C542.97 210.08 559.13 205.11 574.78 200.31C590.62 195.44 606.99 190.42 639.21 190.42Z" fill="url(#paint97_linear_131_1162)"/>
<path d="M639.211 199.49C671.411 199.49 687.781 204.52 703.621 209.37C719.261 214.17 735.441 219.14 767.261 219.14V221.72C735.061 221.72 718.691 216.69 702.871 211.84C687.221 207.04 671.041 202.07 639.221 202.07C607.401 202.07 591.231 207.04 575.571 211.84C559.741 216.7 543.381 221.72 511.181 221.72V219.14C543.001 219.14 559.171 214.17 574.831 209.37C590.661 204.51 607.021 199.49 639.221 199.49H639.211Z" fill="url(#paint98_linear_131_1162)"/>
<path d="M639.211 208.56C671.401 208.56 687.761 213.59 703.581 218.44C719.231 223.24 735.421 228.22 767.261 228.22V230.54C735.081 230.54 718.721 225.51 702.901 220.66C687.251 215.86 671.051 210.88 639.221 210.88C607.391 210.88 591.201 215.85 575.541 220.66C559.721 225.52 543.361 230.54 511.181 230.54V228.22C543.021 228.22 559.201 223.25 574.861 218.44C590.681 213.58 607.041 208.56 639.221 208.56H639.211Z" fill="url(#paint99_linear_131_1162)"/>
<path d="M639.21 217.63C671.38 217.63 687.73 222.65 703.54 227.51C719.2 232.32 735.4 237.3 767.25 237.3V239.36C735.08 239.36 718.74 234.34 702.92 229.48C687.26 224.67 671.06 219.69 639.2 219.69C607.34 219.69 591.14 224.66 575.49 229.48C559.68 234.34 543.33 239.36 511.16 239.36V237.3C543.01 237.3 559.22 232.33 574.87 227.51C590.68 222.65 607.03 217.63 639.2 217.63H639.21Z" fill="url(#paint100_linear_131_1162)"/>
<path d="M639.21 226.71C671.36 226.71 687.7 231.73 703.51 236.58C719.18 241.39 735.39 246.37 767.26 246.37V248.17C735.12 248.17 718.78 243.15 702.97 238.3C687.3 233.49 671.09 228.51 639.21 228.51C607.33 228.51 591.13 233.49 575.46 238.3C559.66 243.15 543.32 248.17 511.17 248.17V246.37C543.05 246.37 559.25 241.39 574.92 236.58C590.72 231.73 607.06 226.71 639.21 226.71Z" fill="url(#paint101_linear_131_1162)"/>
<path d="M639.21 235.77C671.34 235.77 687.67 240.79 703.47 245.63C719.15 250.45 735.37 255.42 767.26 255.42V256.98C735.13 256.98 718.81 251.96 703.01 247.12C687.33 242.3 671.11 237.33 639.21 237.33C607.31 237.33 591.1 242.3 575.42 247.12C559.62 251.96 543.3 256.98 511.17 256.98V255.42C543.06 255.42 559.28 250.45 574.96 245.63C590.76 240.79 607.08 235.77 639.21 235.77Z" fill="url(#paint102_linear_131_1162)"/>
<path d="M639.21 244.84C671.32 244.84 687.65 249.85 703.43 254.7C719.12 259.52 735.34 264.5 767.26 264.5V265.8C735.15 265.8 718.83 260.79 703.05 255.94C687.36 251.12 671.13 246.14 639.21 246.14C607.29 246.14 591.07 251.12 575.38 255.94C559.6 260.79 543.27 265.8 511.17 265.8V264.5C543.08 264.5 559.31 259.52 575 254.7C590.78 249.85 607.11 244.84 639.21 244.84Z" fill="url(#paint103_linear_131_1162)"/>
<path d="M639.21 253.91C671.3 253.91 687.62 258.92 703.39 263.76C719.09 268.58 735.33 273.57 767.26 273.57V274.61C735.17 274.61 718.86 269.6 703.09 264.76C687.38 259.94 671.15 254.95 639.21 254.95C607.27 254.95 591.04 259.94 575.34 264.76C559.57 269.6 543.26 274.61 511.17 274.61V273.57C543.1 273.57 559.34 268.58 575.04 263.76C590.81 258.92 607.12 253.91 639.21 253.91Z" fill="url(#paint104_linear_131_1162)"/>
<path d="M767.26 271.85C799.62 271.85 816.06 276.9 831.96 281.79C847.54 286.57 863.64 291.51 895.3 291.51C926.96 291.51 943.07 286.57 958.64 281.79C974.54 276.9 990.98 271.85 1023.34 271.85V276.48C991.68 276.48 975.57 281.42 960 286.2C944.1 291.09 927.66 296.14 895.3 296.14C862.94 296.14 846.5 291.09 830.6 286.2C815.02 281.42 798.92 276.48 767.26 276.48V271.85Z" fill="url(#paint105_linear_131_1162)"/>
<path d="M767.26 263.04C799.59 263.04 816.03 268.09 831.92 272.97C847.5 277.75 863.61 282.7 895.3 282.7C926.99 282.7 943.1 277.75 958.68 272.97C974.57 268.09 991.01 263.04 1023.34 263.04V267.41C991.65 267.41 975.54 272.36 959.96 277.14C944.07 282.02 927.63 287.07 895.3 287.07C862.97 287.07 846.53 282.02 830.64 277.14C815.06 272.36 798.95 267.41 767.26 267.41V263.04Z" fill="url(#paint106_linear_131_1162)"/>
<path d="M767.26 254.23C799.58 254.23 816 259.27 831.88 264.15C847.47 268.94 863.6 273.89 895.3 273.89C927 273.89 943.13 268.94 958.72 264.15C974.6 259.28 991.02 254.23 1023.34 254.23V258.34C991.64 258.34 975.51 263.29 959.92 268.08C944.04 272.95 927.62 278 895.3 278C862.98 278 846.56 272.96 830.68 268.08C815.09 263.29 798.96 258.34 767.26 258.34V254.23Z" fill="url(#paint107_linear_131_1162)"/>
<path d="M767.26 245.41C799.56 245.41 815.97 250.45 831.85 255.33C847.45 260.12 863.58 265.08 895.31 265.08C927.04 265.08 943.17 260.12 958.77 255.33C974.64 250.46 991.06 245.41 1023.36 245.41V249.26C991.64 249.26 975.5 254.22 959.9 259.01C944.03 263.88 927.61 268.93 895.31 268.93C863.01 268.93 846.6 263.89 830.72 259.01C815.12 254.22 798.99 249.26 767.26 249.26V245.41Z" fill="url(#paint108_linear_131_1162)"/>
<path d="M767.26 236.59C799.54 236.59 815.94 241.63 831.81 246.51C847.42 251.3 863.56 256.26 895.3 256.26C927.04 256.26 943.18 251.3 958.79 246.51C974.66 241.64 991.06 236.59 1023.34 236.59V240.2C991.6 240.2 975.46 245.16 959.85 249.95C943.98 254.82 927.58 259.87 895.3 259.87C863.02 259.87 846.62 254.83 830.75 249.95C815.14 245.16 799 240.2 767.26 240.2V236.59Z" fill="url(#paint109_linear_131_1162)"/>
<path d="M767.26 227.78C799.52 227.78 815.92 232.81 831.77 237.68C847.39 242.48 863.54 247.43 895.3 247.43C927.06 247.43 943.21 242.47 958.83 237.68C974.68 232.81 991.08 227.78 1023.34 227.78V231.13C991.58 231.13 975.43 236.09 959.81 240.88C943.96 245.75 927.56 250.78 895.3 250.78C863.04 250.78 846.64 245.75 830.79 240.88C815.17 236.08 799.02 231.13 767.26 231.13V227.78Z" fill="url(#paint110_linear_131_1162)"/>
<path d="M767.26 218.97C799.5 218.97 815.89 224 831.73 228.87C847.36 233.67 863.52 238.63 895.3 238.63C927.08 238.63 943.24 233.66 958.87 228.87C974.71 224 991.1 218.97 1023.34 218.97V222.06C991.56 222.06 975.4 227.03 959.77 231.82C943.93 236.69 927.54 241.72 895.3 241.72C863.06 241.72 846.67 236.69 830.83 231.82C815.2 227.02 799.04 222.06 767.26 222.06V218.97Z" fill="url(#paint111_linear_131_1162)"/>
<path d="M767.26 210.15C799.48 210.15 815.86 215.18 831.69 220.04C847.33 224.84 863.5 229.81 895.3 229.81C927.1 229.81 943.26 224.84 958.91 220.04C974.75 215.17 991.12 210.15 1023.34 210.15V212.98C991.54 212.98 975.38 217.95 959.73 222.75C943.89 227.62 927.52 232.64 895.3 232.64C863.08 232.64 846.7 227.61 830.87 222.75C815.23 217.95 799.06 212.98 767.26 212.98V210.15Z" fill="url(#paint112_linear_131_1162)"/>
<path d="M767.26 201.33C799.46 201.33 815.83 206.36 831.66 211.22C847.3 216.02 863.48 220.99 895.3 220.99C927.12 220.99 943.29 216.02 958.94 211.22C974.78 206.35 991.14 201.33 1023.34 201.33V203.91C991.52 203.91 975.35 208.88 959.7 213.68C943.86 218.55 927.5 223.57 895.3 223.57C863.1 223.57 846.73 218.54 830.9 213.68C815.26 208.88 799.08 203.91 767.26 203.91V201.33Z" fill="url(#paint113_linear_131_1162)"/>
<path d="M767.26 192.52C799.44 192.52 815.8 197.55 831.62 202.4C847.27 207.21 863.46 212.18 895.3 212.18C927.14 212.18 943.32 207.21 958.98 202.4C974.8 197.55 991.16 192.52 1023.34 192.52V194.84C991.5 194.84 975.32 199.81 959.66 204.62C943.84 209.47 927.48 214.5 895.3 214.5C863.12 214.5 846.76 209.47 830.94 204.62C815.29 199.81 799.1 194.84 767.26 194.84V192.52Z" fill="url(#paint114_linear_131_1162)"/>
<path d="M767.26 183.71C799.43 183.71 815.77 188.73 831.59 193.59C847.25 198.4 863.45 203.38 895.3 203.38C927.15 203.38 943.36 198.41 959.01 193.59C974.82 188.73 991.17 183.71 1023.34 183.71V185.77C991.49 185.77 975.28 190.74 959.63 195.56C943.82 200.42 927.47 205.44 895.3 205.44C863.13 205.44 846.79 200.42 830.97 195.56C815.31 190.75 799.11 185.77 767.26 185.77V183.71Z" fill="url(#paint115_linear_131_1162)"/>
<path d="M767.26 174.89C799.4 174.89 815.74 179.91 831.55 184.76C847.22 189.57 863.43 194.55 895.3 194.55C927.17 194.55 943.38 189.57 959.05 184.76C974.85 179.91 991.19 174.89 1023.34 174.89V176.69C991.46 176.69 975.26 181.67 959.59 186.48C943.79 191.33 927.45 196.35 895.3 196.35C863.15 196.35 846.82 191.33 831.01 186.48C815.34 181.67 799.13 176.69 767.26 176.69V174.89Z" fill="url(#paint116_linear_131_1162)"/>
<path d="M767.26 166.07C799.39 166.07 815.71 171.09 831.51 175.94C847.19 180.75 863.41 185.73 895.3 185.73C927.19 185.73 943.41 180.75 959.09 175.94C974.89 171.09 991.21 166.07 1023.34 166.07V167.63C991.45 167.63 975.23 172.61 959.55 177.42C943.75 182.27 927.43 187.29 895.3 187.29C863.17 187.29 846.85 182.27 831.05 177.42C815.37 172.61 799.15 167.63 767.26 167.63V166.07Z" fill="url(#paint117_linear_131_1162)"/>
<path d="M767.26 157.26C799.37 157.26 815.69 162.27 831.47 167.11C847.16 171.93 863.38 176.91 895.3 176.91C927.22 176.91 943.44 171.93 959.13 167.11C974.91 162.27 991.24 157.26 1023.34 157.26V158.56C991.43 158.56 975.2 163.54 959.51 168.36C943.73 173.2 927.4 178.21 895.3 178.21C863.2 178.21 846.87 173.2 831.09 168.36C815.4 163.54 799.18 158.56 767.26 158.56V157.26Z" fill="url(#paint118_linear_131_1162)"/>
<path d="M767.26 148.45C799.35 148.45 815.66 153.46 831.43 158.3C847.13 163.12 863.37 168.11 895.3 168.11C927.23 168.11 943.47 163.12 959.17 158.3C974.94 153.46 991.25 148.45 1023.34 148.45V149.49C991.41 149.49 975.17 154.48 959.47 159.3C943.7 164.14 927.39 169.15 895.3 169.15C863.21 169.15 846.9 164.14 831.13 159.3C815.43 154.48 799.19 149.49 767.26 149.49V148.45Z" fill="url(#paint119_linear_131_1162)"/>
</g>
<defs>
<linearGradient id="paint0_linear_131_1162" x1="127.05" y1="-3.02022" x2="127.05" y2="277.84" gradientUnits="userSpaceOnUse">
<stop stop-color="#AAD5ED"/>
<stop offset="1" stop-color="white"/>
</linearGradient>
<linearGradient id="paint1_linear_131_1162" x1="127.04" y1="-3.02039" x2="127.04" y2="277.84" gradientUnits="userSpaceOnUse">
<stop stop-color="#AAD5ED"/>
<stop offset="1" stop-color="white"/>
</linearGradient>
<linearGradient id="paint2_linear_131_1162" x1="127.04" y1="-3.02008" x2="127.04" y2="277.84" gradientUnits="userSpaceOnUse">
<stop stop-color="#AAD5ED"/>
<stop offset="1" stop-color="white"/>
</linearGradient>
<linearGradient id="paint3_linear_131_1162" x1="127.04" y1="-3.02" x2="127.04" y2="277.84" gradientUnits="userSpaceOnUse">
<stop stop-color="#AAD5ED"/>
<stop offset="1" stop-color="white"/>
</linearGradient>
<linearGradient id="paint4_linear_131_1162" x1="127.04" y1="-3.02042" x2="127.04" y2="277.84" gradientUnits="userSpaceOnUse">
<stop stop-color="#AAD5ED"/>
<stop offset="1" stop-color="white"/>
</linearGradient>
<linearGradient id="paint5_linear_131_1162" x1="127.04" y1="-3.02022" x2="127.04" y2="277.84" gradientUnits="userSpaceOnUse">
<stop stop-color="#AAD5ED"/>
<stop offset="1" stop-color="white"/>
</linearGradient>
<linearGradient id="paint6_linear_131_1162" x1="127.04" y1="-3.02015" x2="127.04" y2="277.84" gradientUnits="userSpaceOnUse">
<stop stop-color="#AAD5ED"/>
<stop offset="1" stop-color="white"/>
</linearGradient>
<linearGradient id="paint7_linear_131_1162" x1="127.04" y1="-3.0204" x2="127.04" y2="277.84" gradientUnits="userSpaceOnUse">
<stop stop-color="#AAD5ED"/>
<stop offset="1" stop-color="white"/>
</linearGradient>
<linearGradient id="paint8_linear_131_1162" x1="127.04" y1="-3.02038" x2="127.04" y2="277.84" gradientUnits="userSpaceOnUse">
<stop stop-color="#AAD5ED"/>
<stop offset="1" stop-color="white"/>
</linearGradient>
<linearGradient id="paint9_linear_131_1162" x1="127.04" y1="-3.02016" x2="127.04" y2="277.84" gradientUnits="userSpaceOnUse">
<stop stop-color="#AAD5ED"/>
<stop offset="1" stop-color="white"/>
</linearGradient>
<linearGradient id="paint10_linear_131_1162" x1="127.04" y1="-3.01995" x2="127.04" y2="277.84" gradientUnits="userSpaceOnUse">
<stop stop-color="#AAD5ED"/>
<stop offset="1" stop-color="white"/>
</linearGradient>
<linearGradient id="paint11_linear_131_1162" x1="127.04" y1="-3.02033" x2="127.04" y2="277.84" gradientUnits="userSpaceOnUse">
<stop stop-color="#AAD5ED"/>
<stop offset="1" stop-color="white"/>
</linearGradient>
<linearGradient id="paint12_linear_131_1162" x1="127.04" y1="-3.02029" x2="127.04" y2="277.84" gradientUnits="userSpaceOnUse">
<stop stop-color="#AAD5ED"/>
<stop offset="1" stop-color="white"/>
</linearGradient>
<linearGradient id="paint13_linear_131_1162" x1="127.04" y1="-3.02015" x2="127.04" y2="277.84" gradientUnits="userSpaceOnUse">
<stop stop-color="#AAD5ED"/>
<stop offset="1" stop-color="white"/>
</linearGradient>
<linearGradient id="paint14_linear_131_1162" x1="127.04" y1="-3.01996" x2="127.04" y2="277.84" gradientUnits="userSpaceOnUse">
<stop stop-color="#AAD5ED"/>
<stop offset="1" stop-color="white"/>
</linearGradient>
<linearGradient id="paint15_linear_131_1162" x1="383.13" y1="-3.02003" x2="383.13" y2="277.84" gradientUnits="userSpaceOnUse">
<stop stop-color="#AAD5ED"/>
<stop offset="1" stop-color="white"/>
</linearGradient>
<linearGradient id="paint16_linear_131_1162" x1="383.13" y1="-3.02026" x2="383.13" y2="277.84" gradientUnits="userSpaceOnUse">
<stop stop-color="#AAD5ED"/>
<stop offset="1" stop-color="white"/>
</linearGradient>
<linearGradient id="paint17_linear_131_1162" x1="383.13" y1="-3.02035" x2="383.13" y2="277.84" gradientUnits="userSpaceOnUse">
<stop stop-color="#AAD5ED"/>
<stop offset="1" stop-color="white"/>
</linearGradient>
<linearGradient id="paint18_linear_131_1162" x1="383.13" y1="-3.01995" x2="383.13" y2="277.84" gradientUnits="userSpaceOnUse">
<stop stop-color="#AAD5ED"/>
<stop offset="1" stop-color="white"/>
</linearGradient>
<linearGradient id="paint19_linear_131_1162" x1="383.13" y1="-3.02009" x2="383.13" y2="277.84" gradientUnits="userSpaceOnUse">
<stop stop-color="#AAD5ED"/>
<stop offset="1" stop-color="white"/>
</linearGradient>
<linearGradient id="paint20_linear_131_1162" x1="383.13" y1="-3.02019" x2="383.13" y2="277.84" gradientUnits="userSpaceOnUse">
<stop stop-color="#AAD5ED"/>
<stop offset="1" stop-color="white"/>
</linearGradient>
<linearGradient id="paint21_linear_131_1162" x1="383.13" y1="-3.02037" x2="383.13" y2="277.84" gradientUnits="userSpaceOnUse">
<stop stop-color="#AAD5ED"/>
<stop offset="1" stop-color="white"/>
</linearGradient>
<linearGradient id="paint22_linear_131_1162" x1="383.13" y1="-3.02057" x2="383.13" y2="277.84" gradientUnits="userSpaceOnUse">
<stop stop-color="#AAD5ED"/>
<stop offset="1" stop-color="white"/>
</linearGradient>
<linearGradient id="paint23_linear_131_1162" x1="383.13" y1="-3.02003" x2="383.13" y2="277.84" gradientUnits="userSpaceOnUse">
<stop stop-color="#AAD5ED"/>
<stop offset="1" stop-color="white"/>
</linearGradient>
<linearGradient id="paint24_linear_131_1162" x1="383.13" y1="-3.02029" x2="383.13" y2="277.84" gradientUnits="userSpaceOnUse">
<stop stop-color="#AAD5ED"/>
<stop offset="1" stop-color="white"/>
</linearGradient>
<linearGradient id="paint25_linear_131_1162" x1="383.13" y1="-3.02036" x2="383.13" y2="277.84" gradientUnits="userSpaceOnUse">
<stop stop-color="#AAD5ED"/>
<stop offset="1" stop-color="white"/>
</linearGradient>
<linearGradient id="paint26_linear_131_1162" x1="383.13" y1="-3.02" x2="383.13" y2="277.84" gradientUnits="userSpaceOnUse">
<stop stop-color="#AAD5ED"/>
<stop offset="1" stop-color="white"/>
</linearGradient>
<linearGradient id="paint27_linear_131_1162" x1="383.13" y1="-3.02031" x2="383.13" y2="277.84" gradientUnits="userSpaceOnUse">
<stop stop-color="#AAD5ED"/>
<stop offset="1" stop-color="white"/>
</linearGradient>
<linearGradient id="paint28_linear_131_1162" x1="383.13" y1="-3.02013" x2="383.13" y2="277.84" gradientUnits="userSpaceOnUse">
<stop stop-color="#AAD5ED"/>
<stop offset="1" stop-color="white"/>
</linearGradient>
<linearGradient id="paint29_linear_131_1162" x1="383.13" y1="-3.02043" x2="383.13" y2="277.84" gradientUnits="userSpaceOnUse">
<stop stop-color="#AAD5ED"/>
<stop offset="1" stop-color="white"/>
</linearGradient>
<linearGradient id="paint30_linear_131_1162" x1="639.22" y1="-3.02022" x2="639.22" y2="277.84" gradientUnits="userSpaceOnUse">
<stop stop-color="#AAD5ED"/>
<stop offset="1" stop-color="white"/>
</linearGradient>
<linearGradient id="paint31_linear_131_1162" x1="639.22" y1="-3.02039" x2="639.22" y2="277.84" gradientUnits="userSpaceOnUse">
<stop stop-color="#AAD5ED"/>
<stop offset="1" stop-color="white"/>
</linearGradient>
<linearGradient id="paint32_linear_131_1162" x1="639.221" y1="-3.02008" x2="639.221" y2="277.84" gradientUnits="userSpaceOnUse">
<stop stop-color="#AAD5ED"/>
<stop offset="1" stop-color="white"/>
</linearGradient>
<linearGradient id="paint33_linear_131_1162" x1="639.22" y1="-3.02" x2="639.22" y2="277.84" gradientUnits="userSpaceOnUse">
<stop stop-color="#AAD5ED"/>
<stop offset="1" stop-color="white"/>
</linearGradient>
<linearGradient id="paint34_linear_131_1162" x1="639.22" y1="-3.02042" x2="639.22" y2="277.84" gradientUnits="userSpaceOnUse">
<stop stop-color="#AAD5ED"/>
<stop offset="1" stop-color="white"/>
</linearGradient>
<linearGradient id="paint35_linear_131_1162" x1="639.22" y1="-3.02022" x2="639.22" y2="277.84" gradientUnits="userSpaceOnUse">
<stop stop-color="#AAD5ED"/>
<stop offset="1" stop-color="white"/>
</linearGradient>
<linearGradient id="paint36_linear_131_1162" x1="639.22" y1="-3.02015" x2="639.22" y2="277.84" gradientUnits="userSpaceOnUse">
<stop stop-color="#AAD5ED"/>
<stop offset="1" stop-color="white"/>
</linearGradient>
<linearGradient id="paint37_linear_131_1162" x1="639.22" y1="-3.0204" x2="639.22" y2="277.84" gradientUnits="userSpaceOnUse">
<stop stop-color="#AAD5ED"/>
<stop offset="1" stop-color="white"/>
</linearGradient>
<linearGradient id="paint38_linear_131_1162" x1="639.221" y1="-3.02038" x2="639.221" y2="277.84" gradientUnits="userSpaceOnUse">
<stop stop-color="#AAD5ED"/>
<stop offset="1" stop-color="white"/>
</linearGradient>
<linearGradient id="paint39_linear_131_1162" x1="639.221" y1="-3.02016" x2="639.221" y2="277.84" gradientUnits="userSpaceOnUse">
<stop stop-color="#AAD5ED"/>
<stop offset="1" stop-color="white"/>
</linearGradient>
<linearGradient id="paint40_linear_131_1162" x1="639.22" y1="-3.01995" x2="639.22" y2="277.84" gradientUnits="userSpaceOnUse">
<stop stop-color="#AAD5ED"/>
<stop offset="1" stop-color="white"/>
</linearGradient>
<linearGradient id="paint41_linear_131_1162" x1="639.22" y1="-3.02033" x2="639.22" y2="277.84" gradientUnits="userSpaceOnUse">
<stop stop-color="#AAD5ED"/>
<stop offset="1" stop-color="white"/>
</linearGradient>
<linearGradient id="paint42_linear_131_1162" x1="639.22" y1="-3.02029" x2="639.22" y2="277.84" gradientUnits="userSpaceOnUse">
<stop stop-color="#AAD5ED"/>
<stop offset="1" stop-color="white"/>
</linearGradient>
<linearGradient id="paint43_linear_131_1162" x1="639.22" y1="-3.02015" x2="639.22" y2="277.84" gradientUnits="userSpaceOnUse">
<stop stop-color="#AAD5ED"/>
<stop offset="1" stop-color="white"/>
</linearGradient>
<linearGradient id="paint44_linear_131_1162" x1="639.22" y1="-3.01996" x2="639.22" y2="277.84" gradientUnits="userSpaceOnUse">
<stop stop-color="#AAD5ED"/>
<stop offset="1" stop-color="white"/>
</linearGradient>
<linearGradient id="paint45_linear_131_1162" x1="895.3" y1="-3.02003" x2="895.3" y2="277.84" gradientUnits="userSpaceOnUse">
<stop stop-color="#AAD5ED"/>
<stop offset="1" stop-color="white"/>
</linearGradient>
<linearGradient id="paint46_linear_131_1162" x1="895.3" y1="-3.02026" x2="895.3" y2="277.84" gradientUnits="userSpaceOnUse">
<stop stop-color="#AAD5ED"/>
<stop offset="1" stop-color="white"/>
</linearGradient>
<linearGradient id="paint47_linear_131_1162" x1="895.3" y1="-3.02035" x2="895.3" y2="277.84" gradientUnits="userSpaceOnUse">
<stop stop-color="#AAD5ED"/>
<stop offset="1" stop-color="white"/>
</linearGradient>
<linearGradient id="paint48_linear_131_1162" x1="895.3" y1="-3.01995" x2="895.3" y2="277.84" gradientUnits="userSpaceOnUse">
<stop stop-color="#AAD5ED"/>
<stop offset="1" stop-color="white"/>
</linearGradient>
<linearGradient id="paint49_linear_131_1162" x1="895.3" y1="-3.02009" x2="895.3" y2="277.84" gradientUnits="userSpaceOnUse">
<stop stop-color="#AAD5ED"/>
<stop offset="1" stop-color="white"/>
</linearGradient>
<linearGradient id="paint50_linear_131_1162" x1="895.3" y1="-3.02019" x2="895.3" y2="277.84" gradientUnits="userSpaceOnUse">
<stop stop-color="#AAD5ED"/>
<stop offset="1" stop-color="white"/>
</linearGradient>
<linearGradient id="paint51_linear_131_1162" x1="895.3" y1="-3.02037" x2="895.3" y2="277.84" gradientUnits="userSpaceOnUse">
<stop stop-color="#AAD5ED"/>
<stop offset="1" stop-color="white"/>
</linearGradient>
<linearGradient id="paint52_linear_131_1162" x1="895.3" y1="-3.02057" x2="895.3" y2="277.84" gradientUnits="userSpaceOnUse">
<stop stop-color="#AAD5ED"/>
<stop offset="1" stop-color="white"/>
</linearGradient>
<linearGradient id="paint53_linear_131_1162" x1="895.3" y1="-3.02003" x2="895.3" y2="277.84" gradientUnits="userSpaceOnUse">
<stop stop-color="#AAD5ED"/>
<stop offset="1" stop-color="white"/>
</linearGradient>
<linearGradient id="paint54_linear_131_1162" x1="895.3" y1="-3.02029" x2="895.3" y2="277.84" gradientUnits="userSpaceOnUse">
<stop stop-color="#AAD5ED"/>
<stop offset="1" stop-color="white"/>
</linearGradient>
<linearGradient id="paint55_linear_131_1162" x1="895.3" y1="-3.02036" x2="895.3" y2="277.84" gradientUnits="userSpaceOnUse">
<stop stop-color="#AAD5ED"/>
<stop offset="1" stop-color="white"/>
</linearGradient>
<linearGradient id="paint56_linear_131_1162" x1="895.3" y1="-3.02" x2="895.3" y2="277.84" gradientUnits="userSpaceOnUse">
<stop stop-color="#AAD5ED"/>
<stop offset="1" stop-color="white"/>
</linearGradient>
<linearGradient id="paint57_linear_131_1162" x1="895.3" y1="-3.02031" x2="895.3" y2="277.84" gradientUnits="userSpaceOnUse">
<stop stop-color="#AAD5ED"/>
<stop offset="1" stop-color="white"/>
</linearGradient>
<linearGradient id="paint58_linear_131_1162" x1="895.3" y1="-3.02013" x2="895.3" y2="277.84" gradientUnits="userSpaceOnUse">
<stop stop-color="#AAD5ED"/>
<stop offset="1" stop-color="white"/>
</linearGradient>
<linearGradient id="paint59_linear_131_1162" x1="895.3" y1="-3.02043" x2="895.3" y2="277.84" gradientUnits="userSpaceOnUse">
<stop stop-color="#AAD5ED"/>
<stop offset="1" stop-color="white"/>
</linearGradient>
<linearGradient id="paint60_linear_131_1162" x1="127.04" y1="-3.02023" x2="127.04" y2="277.84" gradientUnits="userSpaceOnUse">
<stop stop-color="#AAD5ED"/>
<stop offset="1" stop-color="white"/>
</linearGradient>
<linearGradient id="paint61_linear_131_1162" x1="127.04" y1="-3.02002" x2="127.04" y2="277.84" gradientUnits="userSpaceOnUse">
<stop stop-color="#AAD5ED"/>
<stop offset="1" stop-color="white"/>
</linearGradient>
<linearGradient id="paint62_linear_131_1162" x1="127.04" y1="-3.02047" x2="127.04" y2="277.84" gradientUnits="userSpaceOnUse">
<stop stop-color="#AAD5ED"/>
<stop offset="1" stop-color="white"/>
</linearGradient>
<linearGradient id="paint63_linear_131_1162" x1="127.04" y1="-57.0003" x2="127.04" y2="277.84" gradientUnits="userSpaceOnUse">
<stop stop-color="#AAD5ED"/>
<stop offset="1" stop-color="white"/>
</linearGradient>
<linearGradient id="paint64_linear_131_1162" x1="127.04" y1="-3.02009" x2="127.04" y2="277.84" gradientUnits="userSpaceOnUse">
<stop stop-color="#AAD5ED"/>
<stop offset="1" stop-color="white"/>
</linearGradient>
<linearGradient id="paint65_linear_131_1162" x1="127.04" y1="-3.02041" x2="127.04" y2="277.84" gradientUnits="userSpaceOnUse">
<stop stop-color="#AAD5ED"/>
<stop offset="1" stop-color="white"/>
</linearGradient>
<linearGradient id="paint66_linear_131_1162" x1="127.04" y1="-3.0203" x2="127.04" y2="277.84" gradientUnits="userSpaceOnUse">
<stop stop-color="#AAD5ED"/>
<stop offset="1" stop-color="white"/>
</linearGradient>
<linearGradient id="paint67_linear_131_1162" x1="127.04" y1="-57.0003" x2="127.04" y2="277.84" gradientUnits="userSpaceOnUse">
<stop stop-color="#AAD5ED"/>
<stop offset="1" stop-color="white"/>
</linearGradient>
<linearGradient id="paint68_linear_131_1162" x1="127.04" y1="-3.02075" x2="127.04" y2="277.84" gradientUnits="userSpaceOnUse">
<stop stop-color="#AAD5ED"/>
<stop offset="1" stop-color="white"/>
</linearGradient>
<linearGradient id="paint69_linear_131_1162" x1="127.04" y1="-3.02056" x2="127.04" y2="277.84" gradientUnits="userSpaceOnUse">
<stop stop-color="#AAD5ED"/>
<stop offset="1" stop-color="white"/>
</linearGradient>
<linearGradient id="paint70_linear_131_1162" x1="127.04" y1="-3.01983" x2="127.04" y2="277.84" gradientUnits="userSpaceOnUse">
<stop stop-color="#AAD5ED"/>
<stop offset="1" stop-color="white"/>
</linearGradient>
<linearGradient id="paint71_linear_131_1162" x1="127.04" y1="-3.02057" x2="127.04" y2="277.84" gradientUnits="userSpaceOnUse">
<stop stop-color="#AAD5ED"/>
<stop offset="1" stop-color="white"/>
</linearGradient>
<linearGradient id="paint72_linear_131_1162" x1="127.04" y1="-3.02093" x2="127.04" y2="277.84" gradientUnits="userSpaceOnUse">
<stop stop-color="#AAD5ED"/>
<stop offset="1" stop-color="white"/>
</linearGradient>
<linearGradient id="paint73_linear_131_1162" x1="127.04" y1="-3.02017" x2="127.04" y2="277.84" gradientUnits="userSpaceOnUse">
<stop stop-color="#AAD5ED"/>
<stop offset="1" stop-color="white"/>
</linearGradient>
<linearGradient id="paint74_linear_131_1162" x1="127.04" y1="-3.01972" x2="127.04" y2="277.84" gradientUnits="userSpaceOnUse">
<stop stop-color="#AAD5ED"/>
<stop offset="1" stop-color="white"/>
</linearGradient>
<linearGradient id="paint75_linear_131_1162" x1="383.13" y1="-3.0205" x2="383.13" y2="277.84" gradientUnits="userSpaceOnUse">
<stop stop-color="#AAD5ED"/>
<stop offset="1" stop-color="white"/>
</linearGradient>
<linearGradient id="paint76_linear_131_1162" x1="383.13" y1="-3.01996" x2="383.13" y2="277.84" gradientUnits="userSpaceOnUse">
<stop stop-color="#AAD5ED"/>
<stop offset="1" stop-color="white"/>
</linearGradient>
<linearGradient id="paint77_linear_131_1162" x1="383.13" y1="-3.0198" x2="383.13" y2="277.84" gradientUnits="userSpaceOnUse">
<stop stop-color="#AAD5ED"/>
<stop offset="1" stop-color="white"/>
</linearGradient>
<linearGradient id="paint78_linear_131_1162" x1="383.13" y1="-3.01992" x2="383.13" y2="277.84" gradientUnits="userSpaceOnUse">
<stop stop-color="#AAD5ED"/>
<stop offset="1" stop-color="white"/>
</linearGradient>
<linearGradient id="paint79_linear_131_1162" x1="383.13" y1="-3.02024" x2="383.13" y2="277.84" gradientUnits="userSpaceOnUse">
<stop stop-color="#AAD5ED"/>
<stop offset="1" stop-color="white"/>
</linearGradient>
<linearGradient id="paint80_linear_131_1162" x1="383.13" y1="-3.02041" x2="383.13" y2="277.84" gradientUnits="userSpaceOnUse">
<stop stop-color="#AAD5ED"/>
<stop offset="1" stop-color="white"/>
</linearGradient>
<linearGradient id="paint81_linear_131_1162" x1="383.13" y1="-3.02008" x2="383.13" y2="277.84" gradientUnits="userSpaceOnUse">
<stop stop-color="#AAD5ED"/>
<stop offset="1" stop-color="white"/>
</linearGradient>
<linearGradient id="paint82_linear_131_1162" x1="383.13" y1="-3.0206" x2="383.13" y2="277.84" gradientUnits="userSpaceOnUse">
<stop stop-color="#AAD5ED"/>
<stop offset="1" stop-color="white"/>
</linearGradient>
<linearGradient id="paint83_linear_131_1162" x1="383.13" y1="-3.02072" x2="383.13" y2="277.84" gradientUnits="userSpaceOnUse">
<stop stop-color="#AAD5ED"/>
<stop offset="1" stop-color="white"/>
</linearGradient>
<linearGradient id="paint84_linear_131_1162" x1="383.13" y1="-3.01984" x2="383.13" y2="277.84" gradientUnits="userSpaceOnUse">
<stop stop-color="#AAD5ED"/>
<stop offset="1" stop-color="white"/>
</linearGradient>
<linearGradient id="paint85_linear_131_1162" x1="383.13" y1="-3.02" x2="383.13" y2="277.84" gradientUnits="userSpaceOnUse">
<stop stop-color="#AAD5ED"/>
<stop offset="1" stop-color="white"/>
</linearGradient>
<linearGradient id="paint86_linear_131_1162" x1="383.13" y1="-3.02031" x2="383.13" y2="277.84" gradientUnits="userSpaceOnUse">
<stop stop-color="#AAD5ED"/>
<stop offset="1" stop-color="white"/>
</linearGradient>
<linearGradient id="paint87_linear_131_1162" x1="383.13" y1="-3.02016" x2="383.13" y2="277.84" gradientUnits="userSpaceOnUse">
<stop stop-color="#AAD5ED"/>
<stop offset="1" stop-color="white"/>
</linearGradient>
<linearGradient id="paint88_linear_131_1162" x1="383.13" y1="-3.02063" x2="383.13" y2="277.84" gradientUnits="userSpaceOnUse">
<stop stop-color="#AAD5ED"/>
<stop offset="1" stop-color="white"/>
</linearGradient>
<linearGradient id="paint89_linear_131_1162" x1="383.13" y1="-3.02008" x2="383.13" y2="277.84" gradientUnits="userSpaceOnUse">
<stop stop-color="#AAD5ED"/>
<stop offset="1" stop-color="white"/>
</linearGradient>
<linearGradient id="paint90_linear_131_1162" x1="639.22" y1="-3.02023" x2="639.22" y2="277.84" gradientUnits="userSpaceOnUse">
<stop stop-color="#AAD5ED"/>
<stop offset="1" stop-color="white"/>
</linearGradient>
<linearGradient id="paint91_linear_131_1162" x1="639.22" y1="-3.02002" x2="639.22" y2="277.84" gradientUnits="userSpaceOnUse">
<stop stop-color="#AAD5ED"/>
<stop offset="1" stop-color="white"/>
</linearGradient>
<linearGradient id="paint92_linear_131_1162" x1="639.221" y1="-3.02047" x2="639.221" y2="277.84" gradientUnits="userSpaceOnUse">
<stop stop-color="#AAD5ED"/>
<stop offset="1" stop-color="white"/>
</linearGradient>
<linearGradient id="paint93_linear_131_1162" x1="639.22" y1="-3.0203" x2="639.22" y2="277.84" gradientUnits="userSpaceOnUse">
<stop stop-color="#AAD5ED"/>
<stop offset="1" stop-color="white"/>
</linearGradient>
<linearGradient id="paint94_linear_131_1162" x1="639.22" y1="-3.02009" x2="639.22" y2="277.84" gradientUnits="userSpaceOnUse">
<stop stop-color="#AAD5ED"/>
<stop offset="1" stop-color="white"/>
</linearGradient>
<linearGradient id="paint95_linear_131_1162" x1="639.22" y1="-3.02041" x2="639.22" y2="277.84" gradientUnits="userSpaceOnUse">
<stop stop-color="#AAD5ED"/>
<stop offset="1" stop-color="white"/>
</linearGradient>
<linearGradient id="paint96_linear_131_1162" x1="639.22" y1="-3.0203" x2="639.22" y2="277.84" gradientUnits="userSpaceOnUse">
<stop stop-color="#AAD5ED"/>
<stop offset="1" stop-color="white"/>
</linearGradient>
<linearGradient id="paint97_linear_131_1162" x1="639.22" y1="-3.02023" x2="639.22" y2="277.84" gradientUnits="userSpaceOnUse">
<stop stop-color="#AAD5ED"/>
<stop offset="1" stop-color="white"/>
</linearGradient>
<linearGradient id="paint98_linear_131_1162" x1="639.221" y1="-3.02075" x2="639.221" y2="277.84" gradientUnits="userSpaceOnUse">
<stop stop-color="#AAD5ED"/>
<stop offset="1" stop-color="white"/>
</linearGradient>
<linearGradient id="paint99_linear_131_1162" x1="639.221" y1="-3.02056" x2="639.221" y2="277.84" gradientUnits="userSpaceOnUse">
<stop stop-color="#AAD5ED"/>
<stop offset="1" stop-color="white"/>
</linearGradient>
<linearGradient id="paint100_linear_131_1162" x1="639.22" y1="-3.01983" x2="639.22" y2="277.84" gradientUnits="userSpaceOnUse">
<stop stop-color="#AAD5ED"/>
<stop offset="1" stop-color="white"/>
</linearGradient>
<linearGradient id="paint101_linear_131_1162" x1="639.22" y1="-3.02057" x2="639.22" y2="277.84" gradientUnits="userSpaceOnUse">
<stop stop-color="#AAD5ED"/>
<stop offset="1" stop-color="white"/>
</linearGradient>
<linearGradient id="paint102_linear_131_1162" x1="639.22" y1="-3.02093" x2="639.22" y2="277.84" gradientUnits="userSpaceOnUse">
<stop stop-color="#AAD5ED"/>
<stop offset="1" stop-color="white"/>
</linearGradient>
<linearGradient id="paint103_linear_131_1162" x1="639.22" y1="-3.02017" x2="639.22" y2="277.84" gradientUnits="userSpaceOnUse">
<stop stop-color="#AAD5ED"/>
<stop offset="1" stop-color="white"/>
</linearGradient>
<linearGradient id="paint104_linear_131_1162" x1="639.22" y1="-3.01972" x2="639.22" y2="277.84" gradientUnits="userSpaceOnUse">
<stop stop-color="#AAD5ED"/>
<stop offset="1" stop-color="white"/>
</linearGradient>
<linearGradient id="paint105_linear_131_1162" x1="895.3" y1="-3.0205" x2="895.3" y2="277.84" gradientUnits="userSpaceOnUse">
<stop stop-color="#AAD5ED"/>
<stop offset="1" stop-color="white"/>
</linearGradient>
<linearGradient id="paint106_linear_131_1162" x1="895.3" y1="-3.01996" x2="895.3" y2="277.84" gradientUnits="userSpaceOnUse">
<stop stop-color="#AAD5ED"/>
<stop offset="1" stop-color="white"/>
</linearGradient>
<linearGradient id="paint107_linear_131_1162" x1="895.3" y1="-3.0198" x2="895.3" y2="277.84" gradientUnits="userSpaceOnUse">
<stop stop-color="#AAD5ED"/>
<stop offset="1" stop-color="white"/>
</linearGradient>
<linearGradient id="paint108_linear_131_1162" x1="895.3" y1="-3.01992" x2="895.3" y2="277.84" gradientUnits="userSpaceOnUse">
<stop stop-color="#AAD5ED"/>
<stop offset="1" stop-color="white"/>
</linearGradient>
<linearGradient id="paint109_linear_131_1162" x1="895.3" y1="-3.02024" x2="895.3" y2="277.84" gradientUnits="userSpaceOnUse">
<stop stop-color="#AAD5ED"/>
<stop offset="1" stop-color="white"/>
</linearGradient>
<linearGradient id="paint110_linear_131_1162" x1="895.3" y1="-3.02041" x2="895.3" y2="277.84" gradientUnits="userSpaceOnUse">
<stop stop-color="#AAD5ED"/>
<stop offset="1" stop-color="white"/>
</linearGradient>
<linearGradient id="paint111_linear_131_1162" x1="895.3" y1="-3.02008" x2="895.3" y2="277.84" gradientUnits="userSpaceOnUse">
<stop stop-color="#AAD5ED"/>
<stop offset="1" stop-color="white"/>
</linearGradient>
<linearGradient id="paint112_linear_131_1162" x1="895.3" y1="-3.0206" x2="895.3" y2="277.84" gradientUnits="userSpaceOnUse">
<stop stop-color="#AAD5ED"/>
<stop offset="1" stop-color="white"/>
</linearGradient>
<linearGradient id="paint113_linear_131_1162" x1="895.3" y1="-3.02072" x2="895.3" y2="277.84" gradientUnits="userSpaceOnUse">
<stop stop-color="#AAD5ED"/>
<stop offset="1" stop-color="white"/>
</linearGradient>
<linearGradient id="paint114_linear_131_1162" x1="895.3" y1="-3.01984" x2="895.3" y2="277.84" gradientUnits="userSpaceOnUse">
<stop stop-color="#AAD5ED"/>
<stop offset="1" stop-color="white"/>
</linearGradient>
<linearGradient id="paint115_linear_131_1162" x1="895.3" y1="-3.02" x2="895.3" y2="277.84" gradientUnits="userSpaceOnUse">
<stop stop-color="#AAD5ED"/>
<stop offset="1" stop-color="white"/>
</linearGradient>
<linearGradient id="paint116_linear_131_1162" x1="895.3" y1="-3.02031" x2="895.3" y2="277.84" gradientUnits="userSpaceOnUse">
<stop stop-color="#AAD5ED"/>
<stop offset="1" stop-color="white"/>
</linearGradient>
<linearGradient id="paint117_linear_131_1162" x1="895.3" y1="-3.02016" x2="895.3" y2="277.84" gradientUnits="userSpaceOnUse">
<stop stop-color="#AAD5ED"/>
<stop offset="1" stop-color="white"/>
</linearGradient>
<linearGradient id="paint118_linear_131_1162" x1="895.3" y1="-3.02063" x2="895.3" y2="277.84" gradientUnits="userSpaceOnUse">
<stop stop-color="#AAD5ED"/>
<stop offset="1" stop-color="white"/>
</linearGradient>
<linearGradient id="paint119_linear_131_1162" x1="895.3" y1="-3.02008" x2="895.3" y2="277.84" gradientUnits="userSpaceOnUse">
<stop stop-color="#AAD5ED"/>
<stop offset="1" stop-color="white"/>
</linearGradient>
</defs>
</svg>
