<svg width="512" height="296" viewBox="0 0 512 296" fill="none" xmlns="http://www.w3.org/2000/svg">
<mask id="mask0_102_290" style="mask-type:alpha" maskUnits="userSpaceOnUse" x="0" y="0" width="512" height="296">
<rect width="512" height="296" fill="#D9D9D9"/>
</mask>
<g mask="url(#mask0_102_290)">
<g clip-path="url(#clip0_102_290)">
<path d="M-0.210938 24.29V19.66H0.529062C31.6991 19.58 47.6691 14.68 63.1291 9.93C79.0291 5.05 95.4691 0 127.829 0C160.189 0 176.629 5.05 192.539 9.93C208.109 14.72 224.209 19.66 255.879 19.66V24.29C223.519 24.29 207.079 19.24 191.179 14.36C175.599 9.58 159.499 4.63 127.829 4.63C96.1591 4.63 80.0591 9.58 64.4891 14.36C48.6991 19.2 32.3891 24.21 0.529062 24.29H-0.210938Z" fill="#AAD5ED"/>
<path d="M127.819 9.07007C160.159 9.07007 176.589 14.1201 192.489 19.0001C208.069 23.7801 224.189 28.7301 255.869 28.7301V33.1001C223.539 33.1001 207.099 28.0501 191.209 23.1701C175.629 18.3901 159.509 13.4401 127.819 13.4401C96.1293 13.4401 80.0193 18.3901 64.4393 23.1701C48.5593 28.0501 32.1193 33.1001 -0.220703 33.1001V28.7301C31.4693 28.7301 47.5793 23.7801 63.1593 19.0001C79.0493 14.1201 95.4893 9.07007 127.819 9.07007Z" fill="#AAD5ED"/>
<path d="M127.819 18.1499C160.149 18.1499 176.569 23.1899 192.449 28.0699C208.039 32.8599 224.169 37.8099 255.869 37.8099V41.9199C223.549 41.9199 207.129 36.8799 191.249 31.9999C175.659 27.2099 159.529 22.2599 127.829 22.2599C96.1291 22.2599 79.9991 27.2099 64.4091 31.9999C48.5291 36.8799 32.1091 41.9199 -0.210938 41.9199V37.8099C31.4891 37.8099 47.6191 32.8599 63.2091 28.0699C79.0891 23.1899 95.5091 18.1499 127.829 18.1499H127.819Z" fill="#AAD5ED"/>
<path d="M127.82 27.22C160.12 27.22 176.54 32.25 192.41 37.13C208.02 41.92 224.14 46.88 255.87 46.88V50.73C223.57 50.73 207.16 45.7 191.28 40.82C175.67 36.03 159.54 31.07 127.82 31.07C96.0995 31.07 79.9595 36.03 64.3595 40.82C48.4895 45.69 32.0695 50.73 -0.230469 50.73V46.88C31.4895 46.88 47.6295 41.92 63.2295 37.13C79.0995 32.26 95.5195 27.22 127.82 27.22Z" fill="#AAD5ED"/>
<path d="M127.819 36.28C160.099 36.28 176.509 41.32 192.379 46.2C207.989 50.99 224.129 55.95 255.869 55.95V59.56C223.589 59.56 207.189 54.52 191.319 49.64C175.709 44.85 159.569 39.89 127.819 39.89C96.0693 39.89 79.9393 44.85 64.3293 49.64C48.4593 54.51 32.0593 59.56 -0.220703 59.56V55.95C31.5193 55.95 47.6593 50.99 63.2693 46.2C79.1393 41.33 95.5393 36.28 127.819 36.28Z" fill="#AAD5ED"/>
<path d="M127.819 45.3601C160.089 45.3601 176.479 50.3901 192.339 55.2701C207.959 60.0701 224.109 65.0201 255.869 65.0201V68.3701C223.609 68.3701 207.209 63.3401 191.359 58.4601C175.739 53.6601 159.579 48.7101 127.819 48.7101C96.0593 48.7101 79.9093 53.6701 64.2893 58.4601C48.4393 63.3301 32.0393 68.3701 -0.220703 68.3701V65.0201C31.5393 65.0201 47.6893 60.0601 63.3093 55.2701C79.1593 50.4001 95.5593 45.3601 127.819 45.3601Z" fill="#AAD5ED"/>
<path d="M127.819 54.4299C160.059 54.4299 176.459 59.4599 192.299 64.3299C207.929 69.1299 224.089 74.0899 255.869 74.0899V77.1799C223.629 77.1799 207.239 72.1499 191.399 67.2799C175.769 62.4799 159.609 57.5199 127.819 57.5199C96.0293 57.5199 79.8793 62.4899 64.2493 67.2799C48.4093 72.1499 32.0193 77.1799 -0.220703 77.1799V74.0899C31.5593 74.0899 47.7193 69.1199 63.3493 64.3299C79.1893 59.4599 95.5793 54.4299 127.819 54.4299Z" fill="#AAD5ED"/>
<path d="M127.819 63.51C160.049 63.51 176.429 68.54 192.259 73.39C207.899 78.19 224.069 83.16 255.869 83.16V85.99C223.649 85.99 207.269 80.96 191.439 76.11C175.799 71.31 159.619 66.34 127.819 66.34C96.0193 66.34 79.8593 71.31 64.2093 76.11C48.3693 80.97 31.9993 85.99 -0.220703 85.99V83.16C31.5793 83.16 47.7393 78.19 63.3893 73.39C79.2293 68.53 95.5993 63.51 127.819 63.51Z" fill="#AAD5ED"/>
<path d="M127.819 72.5601C160.019 72.5601 176.389 77.5901 192.229 82.4501C207.869 87.2501 224.049 92.2201 255.869 92.2201V94.8001C223.669 94.8001 207.299 89.7701 191.479 84.9101C175.829 80.1101 159.649 75.1401 127.829 75.1401C96.0091 75.1401 79.8391 80.1101 64.1891 84.9101C48.3491 89.7801 31.9891 94.8001 -0.210938 94.8001V92.2201C31.6091 92.2201 47.7791 87.2501 63.4291 82.4501C79.2691 77.5801 95.6291 72.5601 127.829 72.5601H127.819Z" fill="#AAD5ED"/>
<path d="M127.819 81.6399C160.009 81.6399 176.369 86.6699 192.189 91.5199C207.839 96.3199 224.029 101.3 255.869 101.3V103.62C223.689 103.62 207.329 98.5899 191.509 93.7399C175.859 88.9399 159.659 83.9599 127.829 83.9599C95.9991 83.9599 79.8091 88.9299 64.1491 93.7399C48.3291 98.5999 31.9691 103.62 -0.210938 103.62V101.3C31.6291 101.3 47.8091 96.3299 63.4691 91.5199C79.2891 86.6599 95.6491 81.6399 127.829 81.6399H127.819Z" fill="#AAD5ED"/>
<path d="M127.82 90.71C159.99 90.71 176.34 95.73 192.15 100.59C207.81 105.4 224.01 110.38 255.86 110.38V112.44C223.69 112.44 207.35 107.42 191.53 102.56C175.87 97.75 159.67 92.77 127.81 92.77C95.9495 92.77 79.7495 97.74 64.0995 102.56C48.2895 107.42 31.9395 112.44 -0.230469 112.44V110.38C31.6195 110.38 47.8295 105.41 63.4795 100.59C79.2895 95.73 95.6395 90.71 127.81 90.71H127.82Z" fill="#AAD5ED"/>
<path d="M127.819 99.79C159.969 99.79 176.309 104.8 192.119 109.65C207.789 114.46 223.999 119.44 255.869 119.44V121.24C223.729 121.24 207.389 116.23 191.579 111.38C175.909 106.57 159.699 101.59 127.819 101.59C95.9393 101.59 79.7393 106.57 64.0693 111.38C48.2693 116.23 31.9293 121.24 -0.220703 121.24V119.44C31.6593 119.44 47.8593 114.46 63.5293 109.65C79.3293 104.8 95.6693 99.79 127.819 99.79Z" fill="#AAD5ED"/>
<path d="M127.819 108.85C159.949 108.85 176.279 113.87 192.079 118.72C207.759 123.53 223.979 128.51 255.869 128.51V130.07C223.739 130.07 207.419 125.05 191.619 120.2C175.939 115.39 159.719 110.41 127.819 110.41C95.9193 110.41 79.7093 115.39 64.0293 120.2C48.2293 125.05 31.9093 130.07 -0.220703 130.07V128.51C31.6693 128.51 47.8893 123.53 63.5693 118.72C79.3693 113.87 95.6893 108.85 127.819 108.85Z" fill="#AAD5ED"/>
<path d="M127.819 117.92C159.929 117.92 176.259 122.93 192.039 127.78C207.729 132.6 223.949 137.58 255.869 137.58V138.88C223.759 138.88 207.439 133.87 191.659 129.02C175.969 124.2 159.739 119.22 127.819 119.22C95.8993 119.22 79.6793 124.2 63.9893 129.02C48.2093 133.87 31.8793 138.88 -0.220703 138.88V137.58C31.6893 137.58 47.9193 132.6 63.6093 127.78C79.3893 122.93 95.7193 117.92 127.819 117.92Z" fill="#AAD5ED"/>
<path d="M127.819 127C159.909 127 176.229 132 191.999 136.85C207.699 141.67 223.939 146.66 255.869 146.66V147.7C223.779 147.7 207.469 142.7 191.699 137.85C175.989 133.03 159.759 128.04 127.819 128.04C95.8793 128.04 79.6493 133.03 63.9493 137.85C48.1793 142.69 31.8693 147.7 -0.220703 147.7V146.66C31.7093 146.66 47.9493 141.67 63.6493 136.85C79.4193 132.01 95.7293 127 127.819 127Z" fill="#AAD5ED"/>
<path d="M255.869 144.93C288.229 144.93 304.669 149.98 320.569 154.86C336.149 159.64 352.249 164.58 383.909 164.58C415.569 164.58 431.679 159.64 447.249 154.86C463.149 149.98 479.589 144.93 511.949 144.93V149.56C480.289 149.56 464.179 154.5 448.609 159.28C432.709 164.16 416.269 169.21 383.909 169.21C351.549 169.21 335.109 164.16 319.209 159.28C303.629 154.5 287.529 149.56 255.869 149.56V144.93Z" fill="#AAD5ED"/>
<path d="M255.869 136.12C288.199 136.12 304.639 141.17 320.529 146.05C336.109 150.83 352.219 155.78 383.909 155.78C415.599 155.78 431.709 150.83 447.289 146.05C463.179 141.17 479.619 136.12 511.949 136.12V140.49C480.259 140.49 464.149 145.44 448.569 150.22C432.679 155.1 416.239 160.15 383.909 160.15C351.579 160.15 335.139 155.1 319.249 150.22C303.669 145.44 287.559 140.49 255.869 140.49V136.12Z" fill="#AAD5ED"/>
<path d="M255.869 127.3C288.189 127.3 304.609 132.34 320.489 137.22C336.079 142.01 352.209 146.96 383.909 146.96C415.609 146.96 431.739 142.01 447.329 137.22C463.209 132.34 479.629 127.3 511.949 127.3V131.41C480.249 131.41 464.119 136.36 448.529 141.15C432.649 146.03 416.229 151.07 383.909 151.07C351.589 151.07 335.169 146.03 319.289 141.15C303.699 136.36 287.569 131.41 255.869 131.41V127.3Z" fill="#AAD5ED"/>
<path d="M255.869 118.5C288.169 118.5 304.579 123.53 320.459 128.41C336.059 133.2 352.189 138.16 383.919 138.16C415.649 138.16 431.779 133.2 447.379 128.41C463.249 123.54 479.669 118.5 511.969 118.5V122.35C480.249 122.35 464.109 127.31 448.509 132.1C432.639 136.97 416.219 142.01 383.919 142.01C351.619 142.01 335.209 136.98 319.329 132.1C303.729 127.31 287.599 122.35 255.869 122.35V118.5Z" fill="#AAD5ED"/>
<path d="M255.869 109.67C288.149 109.67 304.549 114.71 320.419 119.59C336.029 124.38 352.169 129.34 383.909 129.34C415.649 129.34 431.789 124.38 447.399 119.59C463.269 114.72 479.669 109.67 511.949 109.67V113.28C480.209 113.28 464.069 118.24 448.459 123.03C432.589 127.9 416.189 132.95 383.909 132.95C351.629 132.95 335.229 127.91 319.359 123.03C303.749 118.24 287.609 113.28 255.869 113.28V109.67Z" fill="#AAD5ED"/>
<path d="M255.869 100.86C288.129 100.86 304.529 105.89 320.379 110.77C335.999 115.57 352.149 120.52 383.909 120.52C415.669 120.52 431.819 115.56 447.439 110.77C463.289 105.9 479.689 100.86 511.949 100.86V104.21C480.189 104.21 464.039 109.17 448.419 113.96C432.569 118.83 416.169 123.87 383.909 123.87C351.649 123.87 335.249 118.84 319.399 113.96C303.779 109.16 287.629 104.21 255.869 104.21V100.86Z" fill="#AAD5ED"/>
<path d="M255.869 92.04C288.109 92.04 304.499 97.07 320.339 101.94C335.969 106.74 352.129 111.7 383.909 111.7C415.689 111.7 431.849 106.73 447.479 101.94C463.319 97.07 479.709 92.04 511.949 92.04V95.13C480.169 95.13 464.009 100.1 448.379 104.89C432.539 109.76 416.149 114.79 383.909 114.79C351.669 114.79 335.279 109.76 319.439 104.89C303.809 100.09 287.649 95.13 255.869 95.13V92.04Z" fill="#AAD5ED"/>
<path d="M255.869 83.24C288.089 83.24 304.469 88.27 320.299 93.12C335.939 97.92 352.109 102.89 383.909 102.89C415.709 102.89 431.869 97.92 447.519 93.12C463.359 88.26 479.729 83.24 511.949 83.24V86.07C480.149 86.07 463.989 91.04 448.339 95.84C432.499 100.7 416.129 105.72 383.909 105.72C351.689 105.72 335.309 100.69 319.479 95.84C303.839 91.04 287.669 86.07 255.869 86.07V83.24Z" fill="#AAD5ED"/>
<path d="M255.869 74.4099C288.069 74.4099 304.439 79.4399 320.269 84.2999C335.909 89.0999 352.089 94.0699 383.909 94.0699C415.729 94.0699 431.899 89.0999 447.549 84.2999C463.389 79.4299 479.749 74.4099 511.949 74.4099V76.9899C480.129 76.9899 463.959 81.9599 448.309 86.7599C432.469 91.6299 416.109 96.6499 383.909 96.6499C351.709 96.6499 335.339 91.6199 319.509 86.7599C303.869 81.9599 287.689 76.9899 255.869 76.9899V74.4099Z" fill="#AAD5ED"/>
<path d="M255.869 65.6001C288.049 65.6001 304.409 70.6301 320.229 75.4801C335.879 80.2801 352.069 85.2601 383.909 85.2601C415.749 85.2601 431.929 80.2901 447.589 75.4801C463.409 70.6201 479.769 65.6001 511.949 65.6001V67.9201C480.109 67.9201 463.929 72.8901 448.269 77.7001C432.449 82.5601 416.089 87.5801 383.909 87.5801C351.729 87.5801 335.369 82.5501 319.549 77.7001C303.899 72.9001 287.709 67.9201 255.869 67.9201V65.6001Z" fill="#AAD5ED"/>
<path d="M255.869 56.79C288.039 56.79 304.379 61.81 320.199 66.66C335.859 71.47 352.059 76.45 383.909 76.45C415.759 76.45 431.969 71.48 447.619 66.66C463.429 61.81 479.779 56.79 511.949 56.79V58.85C480.099 58.85 463.889 63.82 448.239 68.64C432.429 73.49 416.079 78.51 383.909 78.51C351.739 78.51 335.399 73.49 319.579 68.64C303.919 63.83 287.719 58.85 255.869 58.85V56.79Z" fill="#AAD5ED"/>
<path d="M255.869 47.98C288.009 47.98 304.349 53 320.159 57.85C335.829 62.66 352.039 67.64 383.909 67.64C415.779 67.64 431.989 62.66 447.659 57.85C463.459 53 479.799 47.98 511.949 47.98V49.78C480.069 49.78 463.869 54.76 448.199 59.57C432.399 64.42 416.059 69.44 383.909 69.44C351.759 69.44 335.429 64.42 319.619 59.57C303.949 54.76 287.739 49.78 255.869 49.78V47.98Z" fill="#AAD5ED"/>
<path d="M255.869 39.1499C287.999 39.1499 304.319 44.1699 320.119 49.0199C335.799 53.8299 352.019 58.8099 383.909 58.8099C415.799 58.8099 432.019 53.8299 447.699 49.0199C463.499 44.1699 479.819 39.1499 511.949 39.1499V40.7099C480.059 40.7099 463.839 45.6899 448.159 50.4999C432.359 55.3499 416.039 60.3699 383.909 60.3699C351.779 60.3699 335.459 55.3499 319.659 50.4999C303.979 45.6899 287.759 40.7099 255.869 40.7099V39.1499Z" fill="#AAD5ED"/>
<path d="M255.869 30.3401C287.979 30.3401 304.299 35.3501 320.079 40.2001C335.769 45.0201 351.989 50.0001 383.909 50.0001C415.829 50.0001 432.049 45.0201 447.739 40.2001C463.519 35.3501 479.849 30.3401 511.949 30.3401V31.6401C480.039 31.6401 463.809 36.6201 448.119 41.4401C432.339 46.2901 416.009 51.3001 383.909 51.3001C351.809 51.3001 335.479 46.2901 319.699 41.4401C304.009 36.6201 287.789 31.6401 255.869 31.6401V30.3401Z" fill="#AAD5ED"/>
<path d="M255.881 22.57V21.53C287.971 21.53 304.271 26.53 320.051 31.38C335.751 36.2 351.991 41.18 383.921 41.18C415.851 41.18 432.091 36.2 447.781 31.38C463.561 26.53 479.871 21.53 511.961 21.53V22.57C480.031 22.57 463.791 27.56 448.091 32.38C432.321 37.22 416.011 42.22 383.921 42.22C351.831 42.22 335.521 37.22 319.741 32.38C304.051 27.56 287.811 22.57 255.881 22.57Z" fill="#AAD5ED"/>
<path d="M511.961 24.29V19.66C543.621 19.66 559.721 14.72 575.301 9.93C591.201 5.05 607.641 0 640.001 0C672.361 0 688.801 5.05 704.711 9.93C720.281 14.72 736.381 19.66 768.051 19.66V24.29C735.691 24.29 719.251 19.24 703.351 14.36C687.771 9.58 671.671 4.63 640.001 4.63C608.331 4.63 592.231 9.58 576.661 14.36C560.751 19.24 544.321 24.29 511.961 24.29Z" fill="#AAD5ED"/>
<path d="M639.989 9.07007C672.329 9.07007 688.759 14.1201 704.659 19.0001C720.239 23.7801 736.359 28.7301 768.039 28.7301V33.1001C735.709 33.1001 719.269 28.0501 703.379 23.1701C687.799 18.3901 671.679 13.4401 639.989 13.4401C608.299 13.4401 592.189 18.3901 576.609 23.1701C560.719 28.0501 544.279 33.1001 511.949 33.1001V28.7301C543.639 28.7301 559.749 23.7801 575.329 19.0001C591.219 14.1201 607.659 9.07007 639.989 9.07007Z" fill="#AAD5ED"/>
<path d="M639.991 18.1499C672.321 18.1499 688.741 23.1899 704.621 28.0699C720.211 32.8599 736.341 37.8099 768.041 37.8099V41.9199C735.721 41.9199 719.301 36.8799 703.421 31.9999C687.831 27.2099 671.701 22.2599 640.001 22.2599C608.301 22.2599 592.171 27.2099 576.581 31.9999C560.701 36.8799 544.281 41.9199 511.961 41.9199V37.8099C543.661 37.8099 559.791 32.8599 575.381 28.0699C591.261 23.1899 607.681 18.1499 640.001 18.1499H639.991Z" fill="#AAD5ED"/>
<path d="M639.989 27.22C672.289 27.22 688.709 32.25 704.579 37.13C720.189 41.92 736.309 46.88 768.039 46.88V50.73C735.739 50.73 719.329 45.7 703.449 40.82C687.839 36.03 671.709 31.07 639.989 31.07C608.269 31.07 592.129 36.03 576.529 40.82C560.659 45.69 544.239 50.73 511.939 50.73V46.88C543.659 46.88 559.799 41.92 575.399 37.13C591.269 32.26 607.689 27.22 639.989 27.22Z" fill="#AAD5ED"/>
<path d="M639.989 36.28C672.269 36.28 688.679 41.32 704.549 46.2C720.159 50.99 736.299 55.95 768.039 55.95V59.56C735.759 59.56 719.359 54.52 703.489 49.64C687.879 44.85 671.739 39.89 639.989 39.89C608.239 39.89 592.109 44.85 576.499 49.64C560.629 54.51 544.229 59.56 511.949 59.56V55.95C543.689 55.95 559.829 50.99 575.439 46.2C591.309 41.33 607.709 36.28 639.989 36.28Z" fill="#AAD5ED"/>
<path d="M639.989 45.3601C672.259 45.3601 688.649 50.3901 704.509 55.2701C720.129 60.0701 736.279 65.0201 768.039 65.0201V68.3701C735.779 68.3701 719.379 63.3401 703.529 58.4601C687.909 53.6601 671.749 48.7101 639.989 48.7101C608.229 48.7101 592.079 53.6701 576.459 58.4601C560.609 63.3301 544.209 68.3701 511.949 68.3701V65.0201C543.709 65.0201 559.859 60.0601 575.479 55.2701C591.329 50.4001 607.729 45.3601 639.989 45.3601Z" fill="#AAD5ED"/>
<path d="M639.989 54.4299C672.229 54.4299 688.629 59.4599 704.469 64.3299C720.099 69.1299 736.259 74.0899 768.039 74.0899V77.1799C735.799 77.1799 719.409 72.1499 703.569 67.2799C687.939 62.4799 671.779 57.5199 639.989 57.5199C608.199 57.5199 592.049 62.4899 576.419 67.2799C560.579 72.1499 544.189 77.1799 511.949 77.1799V74.0899C543.729 74.0899 559.889 69.1199 575.519 64.3299C591.359 59.4599 607.749 54.4299 639.989 54.4299Z" fill="#AAD5ED"/>
<path d="M639.989 63.51C672.219 63.51 688.599 68.54 704.429 73.39C720.069 78.19 736.239 83.16 768.039 83.16V85.99C735.819 85.99 719.439 80.96 703.609 76.11C687.969 71.31 671.789 66.34 639.989 66.34C608.189 66.34 592.029 71.31 576.379 76.11C560.539 80.97 544.169 85.99 511.949 85.99V83.16C543.749 83.16 559.909 78.19 575.559 73.39C591.399 68.53 607.769 63.51 639.989 63.51Z" fill="#AAD5ED"/>
<path d="M639.991 72.5601C672.191 72.5601 688.561 77.5901 704.401 82.4501C720.041 87.2501 736.221 92.2201 768.041 92.2201V94.8001C735.841 94.8001 719.471 89.7701 703.651 84.9101C688.001 80.1101 671.821 75.1401 640.001 75.1401C608.181 75.1401 592.011 80.1101 576.361 84.9101C560.521 89.7801 544.161 94.8001 511.961 94.8001V92.2201C543.781 92.2201 559.951 87.2501 575.601 82.4501C591.441 77.5801 607.801 72.5601 640.001 72.5601H639.991Z" fill="#AAD5ED"/>
<path d="M639.991 81.6399C672.181 81.6399 688.541 86.6699 704.361 91.5199C720.011 96.3199 736.201 101.3 768.041 101.3V103.62C735.861 103.62 719.501 98.5899 703.681 93.7399C688.031 88.9399 671.831 83.9599 640.001 83.9599C608.171 83.9599 591.981 88.9299 576.321 93.7399C560.501 98.5999 544.141 103.62 511.961 103.62V101.3C543.801 101.3 559.981 96.3299 575.641 91.5199C591.461 86.6599 607.821 81.6399 640.001 81.6399H639.991Z" fill="#AAD5ED"/>
<path d="M639.989 90.71C672.159 90.71 688.509 95.73 704.319 100.59C719.979 105.4 736.179 110.38 768.029 110.38V112.44C735.859 112.44 719.519 107.42 703.699 102.56C688.039 97.75 671.839 92.77 639.979 92.77C608.119 92.77 591.919 97.74 576.269 102.56C560.459 107.42 544.109 112.44 511.939 112.44V110.38C543.789 110.38 559.999 105.41 575.649 100.59C591.459 95.73 607.809 90.71 639.979 90.71H639.989Z" fill="#AAD5ED"/>
<path d="M639.989 99.79C672.139 99.79 688.479 104.8 704.289 109.65C719.959 114.46 736.169 119.44 768.039 119.44V121.24C735.899 121.24 719.559 116.23 703.749 111.38C688.079 106.57 671.869 101.59 639.989 101.59C608.109 101.59 591.909 106.57 576.239 111.38C560.439 116.23 544.099 121.24 511.949 121.24V119.44C543.829 119.44 560.029 114.46 575.699 109.65C591.499 104.8 607.839 99.79 639.989 99.79Z" fill="#AAD5ED"/>
<path d="M639.989 108.85C672.119 108.85 688.449 113.87 704.249 118.72C719.929 123.53 736.149 128.51 768.039 128.51V130.07C735.909 130.07 719.589 125.05 703.789 120.2C688.109 115.39 671.889 110.41 639.989 110.41C608.089 110.41 591.879 115.39 576.199 120.2C560.399 125.05 544.079 130.07 511.949 130.07V128.51C543.839 128.51 560.059 123.53 575.739 118.72C591.539 113.87 607.859 108.85 639.989 108.85Z" fill="#AAD5ED"/>
<path d="M639.989 117.92C672.099 117.92 688.429 122.93 704.209 127.78C719.899 132.6 736.119 137.58 768.039 137.58V138.88C735.929 138.88 719.609 133.87 703.829 129.02C688.139 124.2 671.909 119.22 639.989 119.22C608.069 119.22 591.849 124.2 576.159 129.02C560.379 133.87 544.049 138.88 511.949 138.88V137.58C543.859 137.58 560.089 132.6 575.779 127.78C591.559 122.93 607.889 117.92 639.989 117.92Z" fill="#AAD5ED"/>
<path d="M639.989 127C672.079 127 688.399 132 704.169 136.85C719.869 141.67 736.109 146.66 768.039 146.66V147.7C735.949 147.7 719.639 142.7 703.869 137.85C688.159 133.03 671.929 128.04 639.989 128.04C608.049 128.04 591.819 133.03 576.119 137.85C560.349 142.69 544.039 147.7 511.949 147.7V146.66C543.879 146.66 560.119 141.67 575.819 136.85C591.589 132.01 607.899 127 639.989 127Z" fill="#AAD5ED"/>
<path d="M127.819 126.4C160.189 126.4 176.619 131.45 192.529 136.34C208.109 141.12 224.209 146.06 255.869 146.06V150.69C223.509 150.69 207.069 145.64 191.169 140.75C175.589 135.97 159.489 131.03 127.819 131.03C96.1493 131.03 80.0493 135.97 64.4793 140.75C48.5793 145.64 32.1393 150.69 -0.220703 150.69V146.06C31.4393 146.06 47.5493 141.12 63.1193 136.34C79.0193 131.45 95.4593 126.4 127.819 126.4Z" fill="#AAD5ED"/>
<path d="M127.819 135.47C160.159 135.47 176.589 140.52 192.489 145.39C208.069 150.18 224.189 155.12 255.869 155.12V159.49C223.539 159.49 207.099 154.45 191.209 149.57C175.629 144.79 159.509 139.84 127.819 139.84C96.1293 139.84 80.0193 144.79 64.4393 149.57C48.5493 154.44 32.1093 159.49 -0.220703 159.49V155.12C31.4693 155.12 47.5793 150.17 63.1593 145.39C79.0493 140.52 95.4893 135.47 127.819 135.47Z" fill="#AAD5ED"/>
<path d="M127.819 144.54C160.149 144.54 176.569 149.58 192.449 154.46C208.039 159.25 224.169 164.2 255.869 164.2V168.31C223.549 168.31 207.129 163.27 191.249 158.39C175.659 153.6 159.529 148.65 127.829 148.65C96.1291 148.65 79.9991 153.6 64.4091 158.39C48.5291 163.27 32.1091 168.31 -0.210938 168.31V164.2C31.4891 164.2 47.6191 159.25 63.2091 154.46C79.0891 149.58 95.5091 144.54 127.829 144.54H127.819Z" fill="#AAD5ED"/>
<path d="M127.82 153.61C160.12 153.61 176.54 158.65 192.41 163.53C208.02 168.32 224.15 173.28 255.87 173.28V177.13C223.57 177.13 207.16 172.09 191.28 167.21C175.67 162.42 159.54 157.46 127.82 157.46C96.0995 157.46 79.9595 162.42 64.3595 167.21C48.4895 172.08 32.0695 177.13 -0.230469 177.13V173.28C31.4895 173.28 47.6295 168.32 63.2295 163.53C79.0995 158.66 95.5195 153.61 127.82 153.61Z" fill="#AAD5ED"/>
<path d="M127.819 162.68C160.099 162.68 176.509 167.72 192.379 172.6C207.989 177.39 224.129 182.35 255.869 182.35V185.96C223.589 185.96 207.189 180.92 191.319 176.04C175.709 171.25 159.569 166.29 127.819 166.29C96.0693 166.29 79.9393 171.25 64.3293 176.04C48.4593 180.91 32.0593 185.96 -0.220703 185.96V182.35C31.5193 182.35 47.6593 177.39 63.2693 172.6C79.1393 167.73 95.5393 162.68 127.819 162.68Z" fill="#AAD5ED"/>
<path d="M127.819 171.75C160.089 171.75 176.479 176.78 192.339 181.65C207.959 186.45 224.109 191.4 255.869 191.4V194.75C223.609 194.75 207.209 189.72 191.359 184.85C175.739 180.05 159.579 175.1 127.819 175.1C96.0593 175.1 79.9093 180.06 64.2893 184.85C48.4393 189.72 32.0393 194.75 -0.220703 194.75V191.4C31.5393 191.4 47.6893 186.44 63.3093 181.65C79.1593 176.78 95.5593 171.75 127.819 171.75Z" fill="#AAD5ED"/>
<path d="M127.819 180.82C160.059 180.82 176.459 185.85 192.299 190.72C207.929 195.52 224.089 200.48 255.869 200.48V203.57C223.629 203.57 207.239 198.54 191.399 193.67C175.769 188.87 159.609 183.91 127.819 183.91C96.0293 183.91 79.8793 188.88 64.2493 193.67C48.4093 198.54 32.0193 203.57 -0.220703 203.57V200.48C31.5593 200.48 47.7193 195.51 63.3493 190.72C79.1893 185.85 95.5793 180.82 127.819 180.82Z" fill="#AAD5ED"/>
<path d="M127.819 189.9C160.049 189.9 176.429 194.93 192.259 199.79C207.899 204.59 224.069 209.56 255.869 209.56V212.39C223.649 212.39 207.269 207.36 191.439 202.5C175.799 197.7 159.619 192.73 127.819 192.73C96.0193 192.73 79.8593 197.7 64.2093 202.5C48.3693 207.37 31.9993 212.39 -0.220703 212.39V209.56C31.5793 209.56 47.7393 204.59 63.3893 199.79C79.2293 194.92 95.5993 189.9 127.819 189.9Z" fill="#AAD5ED"/>
<path d="M127.819 198.96C160.019 198.96 176.389 203.99 192.229 208.84C207.869 213.64 224.049 218.61 255.869 218.61V221.19C223.669 221.19 207.299 216.16 191.479 211.31C175.829 206.51 159.649 201.54 127.829 201.54C96.0091 201.54 79.8391 206.51 64.1791 211.31C48.3491 216.17 31.9891 221.19 -0.210938 221.19V218.61C31.6091 218.61 47.7791 213.64 63.4391 208.84C79.2691 203.98 95.6291 198.96 127.829 198.96H127.819Z" fill="#AAD5ED"/>
<path d="M127.819 208.03C160.009 208.03 176.369 213.06 192.189 217.91C207.839 222.71 224.029 227.69 255.869 227.69V230.01C223.689 230.01 207.329 224.98 191.509 220.13C175.859 215.33 159.659 210.35 127.829 210.35C95.9991 210.35 79.8091 215.32 64.1491 220.13C48.3291 224.99 31.9691 230.01 -0.210938 230.01V227.69C31.6291 227.69 47.8091 222.72 63.4691 217.91C79.2891 213.05 95.6491 208.03 127.829 208.03H127.819Z" fill="#AAD5ED"/>
<path d="M127.82 217.11C159.99 217.11 176.34 222.13 192.15 226.99C207.81 231.8 224.01 236.78 255.86 236.78V238.84C223.69 238.84 207.35 233.82 191.53 228.96C175.87 224.15 159.67 219.17 127.81 219.17C95.9495 219.17 79.7495 224.14 64.0995 228.96C48.2895 233.82 31.9395 238.84 -0.230469 238.84V236.78C31.6195 236.78 47.8295 231.81 63.4795 226.99C79.2895 222.13 95.6395 217.11 127.81 217.11H127.82Z" fill="#AAD5ED"/>
<path d="M127.819 226.18C159.969 226.18 176.309 231.2 192.119 236.05C207.789 240.86 223.999 245.84 255.869 245.84V247.64C223.729 247.64 207.389 242.62 191.579 237.77C175.909 232.96 159.699 227.98 127.819 227.98C95.9393 227.98 79.7393 232.96 64.0693 237.77C48.2693 242.62 31.9293 247.64 -0.220703 247.64V245.84C31.6593 245.84 47.8593 240.86 63.5293 236.05C79.3293 231.2 95.6693 226.18 127.819 226.18Z" fill="#AAD5ED"/>
<path d="M127.819 235.25C159.949 235.25 176.279 240.27 192.079 245.11C207.759 249.93 223.979 254.9 255.869 254.9V256.46C223.739 256.46 207.419 251.44 191.619 246.6C175.939 241.78 159.719 236.81 127.819 236.81C95.9193 236.81 79.7093 241.78 64.0293 246.6C48.2293 251.44 31.9093 256.46 -0.220703 256.46V254.9C31.6693 254.9 47.8893 249.93 63.5693 245.11C79.3693 240.27 95.6893 235.25 127.819 235.25Z" fill="#AAD5ED"/>
<path d="M127.819 244.31C159.929 244.31 176.259 249.32 192.039 254.17C207.729 258.99 223.949 263.97 255.869 263.97V265.27C223.759 265.27 207.439 260.26 191.659 255.41C175.969 250.59 159.739 245.61 127.819 245.61C95.8993 245.61 79.6793 250.59 63.9893 255.41C48.2093 260.26 31.8793 265.27 -0.220703 265.27V263.97C31.6893 263.97 47.9193 258.99 63.6093 254.17C79.3893 249.32 95.7193 244.31 127.819 244.31Z" fill="#AAD5ED"/>
<path d="M127.819 253.39C159.909 253.39 176.229 258.4 191.999 263.24C207.699 268.06 223.939 273.05 255.869 273.05V274.09C223.779 274.09 207.469 269.08 191.699 264.24C175.989 259.42 159.759 254.43 127.819 254.43C95.8793 254.43 79.6493 259.42 63.9493 264.24C48.1793 269.08 31.8693 274.09 -0.220703 274.09V273.05C31.7093 273.05 47.9493 268.06 63.6493 263.24C79.4193 258.4 95.7293 253.39 127.819 253.39Z" fill="#AAD5ED"/>
<path d="M255.869 271.33C288.229 271.33 304.669 276.38 320.569 281.27C336.149 286.05 352.249 290.99 383.909 290.99C415.569 290.99 431.679 286.05 447.249 281.27C463.149 276.38 479.589 271.33 511.949 271.33V275.96C480.289 275.96 464.179 280.9 448.609 285.68C432.709 290.57 416.269 295.62 383.909 295.62C351.549 295.62 335.109 290.57 319.209 285.68C303.629 280.9 287.529 275.96 255.869 275.96V271.33Z" fill="#AAD5ED"/>
<path d="M255.869 262.51C288.199 262.51 304.639 267.56 320.529 272.44C336.109 277.22 352.219 282.17 383.909 282.17C415.599 282.17 431.709 277.22 447.289 272.44C463.179 267.56 479.619 262.51 511.949 262.51V266.88C480.259 266.88 464.149 271.83 448.569 276.61C432.679 281.49 416.239 286.54 383.909 286.54C351.579 286.54 335.139 281.49 319.249 276.61C303.669 271.83 287.559 266.88 255.869 266.88V262.51Z" fill="#AAD5ED"/>
<path d="M255.869 253.7C288.189 253.7 304.609 258.74 320.489 263.62C336.079 268.41 352.209 273.36 383.909 273.36C415.609 273.36 431.739 268.41 447.329 263.62C463.209 258.75 479.629 253.7 511.949 253.7V257.81C480.249 257.81 464.119 262.76 448.529 267.55C432.649 272.42 416.229 277.47 383.909 277.47C351.589 277.47 335.169 272.43 319.289 267.55C303.699 262.76 287.569 257.81 255.869 257.81V253.7Z" fill="#AAD5ED"/>
<path d="M255.869 244.89C288.169 244.89 304.579 249.93 320.459 254.81C336.059 259.6 352.189 264.56 383.919 264.56C415.649 264.56 431.779 259.6 447.379 254.81C463.249 249.94 479.669 244.89 511.969 244.89V248.74C480.249 248.74 464.109 253.7 448.509 258.49C432.639 263.36 416.219 268.41 383.919 268.41C351.619 268.41 335.209 263.37 319.329 258.49C303.729 253.7 287.599 248.74 255.869 248.74V244.89Z" fill="#AAD5ED"/>
<path d="M255.869 236.06C288.149 236.06 304.549 241.1 320.419 245.98C336.029 250.77 352.169 255.73 383.909 255.73C415.649 255.73 431.789 250.77 447.399 245.98C463.269 241.11 479.669 236.06 511.949 236.06V239.67C480.209 239.67 464.069 244.63 448.459 249.42C432.589 254.29 416.189 259.34 383.909 259.34C351.629 259.34 335.229 254.3 319.359 249.42C303.749 244.63 287.609 239.67 255.869 239.67V236.06Z" fill="#AAD5ED"/>
<path d="M255.869 227.26C288.129 227.26 304.529 232.29 320.379 237.16C335.999 241.96 352.149 246.91 383.909 246.91C415.669 246.91 431.819 241.95 447.439 237.16C463.289 232.29 479.689 227.26 511.949 227.26V230.61C480.189 230.61 464.039 235.57 448.419 240.36C432.569 245.23 416.169 250.26 383.909 250.26C351.649 250.26 335.249 245.23 319.399 240.36C303.779 235.56 287.629 230.61 255.869 230.61V227.26Z" fill="#AAD5ED"/>
<path d="M255.869 218.44C288.109 218.44 304.499 223.47 320.339 228.34C335.969 233.14 352.129 238.1 383.909 238.1C415.689 238.1 431.849 233.13 447.479 228.34C463.319 223.47 479.709 218.44 511.949 218.44V221.53C480.169 221.53 464.009 226.5 448.379 231.29C432.539 236.16 416.149 241.19 383.909 241.19C351.669 241.19 335.279 236.16 319.439 231.29C303.809 226.49 287.649 221.53 255.869 221.53V218.44Z" fill="#AAD5ED"/>
<path d="M255.869 209.63C288.089 209.63 304.469 214.66 320.299 219.52C335.939 224.32 352.109 229.29 383.909 229.29C415.709 229.29 431.869 224.32 447.519 219.52C463.359 214.65 479.729 209.63 511.949 209.63V212.46C480.149 212.46 463.989 217.43 448.339 222.23C432.499 227.1 416.129 232.12 383.909 232.12C351.689 232.12 335.309 227.09 319.479 222.23C303.839 217.43 287.669 212.46 255.869 212.46V209.63Z" fill="#AAD5ED"/>
<path d="M255.869 200.8C288.069 200.8 304.439 205.83 320.269 210.69C335.909 215.49 352.089 220.46 383.909 220.46C415.729 220.46 431.899 215.49 447.549 210.69C463.389 205.82 479.749 200.8 511.949 200.8V203.38C480.129 203.38 463.959 208.35 448.309 213.15C432.469 218.02 416.109 223.04 383.909 223.04C351.709 223.04 335.339 218.01 319.509 213.15C303.869 208.35 287.689 203.38 255.869 203.38V200.8Z" fill="#AAD5ED"/>
<path d="M255.869 192C288.049 192 304.409 197.03 320.229 201.88C335.879 206.69 352.069 211.66 383.909 211.66C415.749 211.66 431.929 206.69 447.589 201.88C463.409 197.03 479.769 192 511.949 192V194.32C480.109 194.32 463.929 199.29 448.269 204.1C432.449 208.95 416.089 213.98 383.909 213.98C351.729 213.98 335.369 208.95 319.549 204.1C303.899 199.29 287.709 194.32 255.869 194.32V192Z" fill="#AAD5ED"/>
<path d="M255.869 183.18C288.039 183.18 304.379 188.2 320.199 193.06C335.859 197.87 352.059 202.85 383.909 202.85C415.759 202.85 431.969 197.88 447.619 193.06C463.429 188.2 479.779 183.18 511.949 183.18V185.24C480.099 185.24 463.889 190.21 448.239 195.03C432.429 199.89 416.079 204.91 383.909 204.91C351.739 204.91 335.399 199.89 319.579 195.03C303.919 190.22 287.719 185.24 255.869 185.24V183.18Z" fill="#AAD5ED"/>
<path d="M255.869 174.37C288.009 174.37 304.349 179.39 320.159 184.24C335.829 189.05 352.039 194.03 383.909 194.03C415.779 194.03 431.989 189.05 447.659 184.24C463.459 179.39 479.799 174.37 511.949 174.37V176.17C480.069 176.17 463.869 181.15 448.199 185.96C432.399 190.81 416.059 195.83 383.909 195.83C351.759 195.83 335.429 190.81 319.619 185.96C303.949 181.15 287.739 176.17 255.869 176.17V174.37Z" fill="#AAD5ED"/>
<path d="M255.869 165.54C287.999 165.54 304.319 170.56 320.119 175.41C335.799 180.22 352.019 185.2 383.909 185.2C415.799 185.2 432.019 180.22 447.699 175.41C463.499 170.56 479.819 165.54 511.949 165.54V167.1C480.059 167.1 463.839 172.08 448.159 176.89C432.359 181.74 416.039 186.76 383.909 186.76C351.779 186.76 335.459 181.74 319.659 176.89C303.979 172.08 287.759 167.1 255.869 167.1V165.54Z" fill="#AAD5ED"/>
<path d="M255.869 156.74C287.979 156.74 304.299 161.75 320.079 166.59C335.769 171.41 351.989 176.39 383.909 176.39C415.829 176.39 432.049 171.41 447.739 166.59C463.519 161.75 479.849 156.74 511.949 156.74V158.04C480.039 158.04 463.809 163.02 448.119 167.84C432.339 172.68 416.009 177.69 383.909 177.69C351.809 177.69 335.479 172.68 319.699 167.84C304.009 163.02 287.789 158.04 255.869 158.04V156.74Z" fill="#AAD5ED"/>
<path d="M255.869 147.92C287.959 147.92 304.269 152.93 320.039 157.77C335.739 162.59 351.979 167.58 383.909 167.58C415.839 167.58 432.079 162.59 447.779 157.77C463.549 152.93 479.859 147.92 511.949 147.92V148.96C480.019 148.96 463.779 153.95 448.079 158.77C432.309 163.61 415.999 168.62 383.909 168.62C351.819 168.62 335.509 163.61 319.739 158.77C304.039 153.95 287.799 148.96 255.869 148.96V147.92Z" fill="#AAD5ED"/>
<path d="M639.989 126.4C672.359 126.4 688.789 131.45 704.699 136.34C720.279 141.12 736.379 146.06 768.039 146.06V150.69C735.679 150.69 719.239 145.64 703.339 140.75C687.759 135.97 671.659 131.03 639.989 131.03C608.319 131.03 592.219 135.97 576.649 140.75C560.749 145.64 544.309 150.69 511.949 150.69V146.06C543.609 146.06 559.719 141.12 575.289 136.34C591.189 131.45 607.629 126.4 639.989 126.4Z" fill="#AAD5ED"/>
<path d="M639.989 135.47C672.329 135.47 688.759 140.52 704.659 145.39C720.239 150.18 736.359 155.12 768.039 155.12V159.49C735.709 159.49 719.269 154.45 703.379 149.57C687.799 144.79 671.679 139.84 639.989 139.84C608.299 139.84 592.189 144.79 576.609 149.57C560.719 154.44 544.279 159.49 511.949 159.49V155.12C543.639 155.12 559.749 150.17 575.329 145.39C591.219 140.52 607.659 135.47 639.989 135.47Z" fill="#AAD5ED"/>
<path d="M639.991 144.54C672.321 144.54 688.741 149.58 704.621 154.46C720.211 159.25 736.341 164.2 768.041 164.2V168.31C735.721 168.31 719.301 163.27 703.421 158.39C687.831 153.6 671.701 148.65 640.001 148.65C608.301 148.65 592.171 153.6 576.581 158.39C560.701 163.27 544.281 168.31 511.961 168.31V164.2C543.661 164.2 559.791 159.25 575.381 154.46C591.261 149.58 607.681 144.54 640.001 144.54H639.991Z" fill="#AAD5ED"/>
<path d="M639.989 153.61C672.289 153.61 688.709 158.65 704.579 163.53C720.189 168.32 736.319 173.28 768.039 173.28V177.13C735.739 177.13 719.329 172.09 703.449 167.21C687.839 162.42 671.709 157.46 639.989 157.46C608.269 157.46 592.129 162.42 576.529 167.21C560.659 172.08 544.239 177.13 511.939 177.13V173.28C543.659 173.28 559.799 168.32 575.399 163.53C591.269 158.66 607.689 153.61 639.989 153.61Z" fill="#AAD5ED"/>
<path d="M639.989 162.68C672.269 162.68 688.679 167.72 704.549 172.6C720.159 177.39 736.299 182.35 768.039 182.35V185.96C735.759 185.96 719.359 180.92 703.489 176.04C687.879 171.25 671.739 166.29 639.989 166.29C608.239 166.29 592.109 171.25 576.499 176.04C560.629 180.91 544.229 185.96 511.949 185.96V182.35C543.689 182.35 559.829 177.39 575.439 172.6C591.309 167.73 607.709 162.68 639.989 162.68Z" fill="#AAD5ED"/>
<path d="M639.989 171.75C672.259 171.75 688.649 176.78 704.509 181.65C720.129 186.45 736.279 191.4 768.039 191.4V194.75C735.779 194.75 719.379 189.72 703.529 184.85C687.909 180.05 671.749 175.1 639.989 175.1C608.229 175.1 592.079 180.06 576.459 184.85C560.609 189.72 544.209 194.75 511.949 194.75V191.4C543.709 191.4 559.859 186.44 575.479 181.65C591.329 176.78 607.729 171.75 639.989 171.75Z" fill="#AAD5ED"/>
<path d="M639.989 180.82C672.229 180.82 688.629 185.85 704.469 190.72C720.099 195.52 736.259 200.48 768.039 200.48V203.57C735.799 203.57 719.409 198.54 703.569 193.67C687.939 188.87 671.779 183.91 639.989 183.91C608.199 183.91 592.049 188.88 576.419 193.67C560.579 198.54 544.189 203.57 511.949 203.57V200.48C543.729 200.48 559.889 195.51 575.519 190.72C591.359 185.85 607.749 180.82 639.989 180.82Z" fill="#AAD5ED"/>
<path d="M639.989 189.9C672.219 189.9 688.599 194.93 704.429 199.79C720.069 204.59 736.239 209.56 768.039 209.56V212.39C735.819 212.39 719.439 207.36 703.609 202.5C687.969 197.7 671.789 192.73 639.989 192.73C608.189 192.73 592.029 197.7 576.379 202.5C560.539 207.37 544.169 212.39 511.949 212.39V209.56C543.749 209.56 559.909 204.59 575.559 199.79C591.399 194.92 607.769 189.9 639.989 189.9Z" fill="#AAD5ED"/>
<path d="M639.991 198.96C672.191 198.96 688.561 203.99 704.401 208.84C720.041 213.64 736.221 218.61 768.041 218.61V221.19C735.841 221.19 719.471 216.16 703.651 211.31C688.001 206.51 671.821 201.54 640.001 201.54C608.181 201.54 592.011 206.51 576.351 211.31C560.521 216.17 544.161 221.19 511.961 221.19V218.61C543.781 218.61 559.951 213.64 575.611 208.84C591.441 203.98 607.801 198.96 640.001 198.96H639.991Z" fill="#AAD5ED"/>
<path d="M639.991 208.03C672.181 208.03 688.541 213.06 704.361 217.91C720.011 222.71 736.201 227.69 768.041 227.69V230.01C735.861 230.01 719.501 224.98 703.681 220.13C688.031 215.33 671.831 210.35 640.001 210.35C608.171 210.35 591.981 215.32 576.321 220.13C560.501 224.99 544.141 230.01 511.961 230.01V227.69C543.801 227.69 559.981 222.72 575.641 217.91C591.461 213.05 607.821 208.03 640.001 208.03H639.991Z" fill="#AAD5ED"/>
<path d="M639.989 217.11C672.159 217.11 688.509 222.13 704.319 226.99C719.979 231.8 736.179 236.78 768.029 236.78V238.84C735.859 238.84 719.519 233.82 703.699 228.96C688.039 224.15 671.839 219.17 639.979 219.17C608.119 219.17 591.919 224.14 576.269 228.96C560.459 233.82 544.109 238.84 511.939 238.84V236.78C543.789 236.78 559.999 231.81 575.649 226.99C591.459 222.13 607.809 217.11 639.979 217.11H639.989Z" fill="#AAD5ED"/>
<path d="M639.989 226.18C672.139 226.18 688.479 231.2 704.289 236.05C719.959 240.86 736.169 245.84 768.039 245.84V247.64C735.899 247.64 719.559 242.62 703.749 237.77C688.079 232.96 671.869 227.98 639.989 227.98C608.109 227.98 591.909 232.96 576.239 237.77C560.439 242.62 544.099 247.64 511.949 247.64V245.84C543.829 245.84 560.029 240.86 575.699 236.05C591.499 231.2 607.839 226.18 639.989 226.18Z" fill="#AAD5ED"/>
<path d="M639.989 235.25C672.119 235.25 688.449 240.27 704.249 245.11C719.929 249.93 736.149 254.9 768.039 254.9V256.46C735.909 256.46 719.589 251.44 703.789 246.6C688.109 241.78 671.889 236.81 639.989 236.81C608.089 236.81 591.879 241.78 576.199 246.6C560.399 251.44 544.079 256.46 511.949 256.46V254.9C543.839 254.9 560.059 249.93 575.739 245.11C591.539 240.27 607.859 235.25 639.989 235.25Z" fill="#AAD5ED"/>
<path d="M639.989 244.31C672.099 244.31 688.429 249.32 704.209 254.17C719.899 258.99 736.119 263.97 768.039 263.97V265.27C735.929 265.27 719.609 260.26 703.829 255.41C688.139 250.59 671.909 245.61 639.989 245.61C608.069 245.61 591.849 250.59 576.159 255.41C560.379 260.26 544.049 265.27 511.949 265.27V263.97C543.859 263.97 560.089 258.99 575.779 254.17C591.559 249.32 607.889 244.31 639.989 244.31Z" fill="#AAD5ED"/>
<path d="M639.989 253.39C672.079 253.39 688.399 258.4 704.169 263.24C719.869 268.06 736.109 273.05 768.039 273.05V274.09C735.949 274.09 719.639 269.08 703.869 264.24C688.159 259.42 671.929 254.43 639.989 254.43C608.049 254.43 591.819 259.42 576.119 264.24C560.349 269.08 544.039 274.09 511.949 274.09V273.05C543.879 273.05 560.119 268.06 575.819 263.24C591.589 258.4 607.899 253.39 639.989 253.39Z" fill="#AAD5ED"/>
</g>
</g>
<defs>
<clipPath id="clip0_102_290">
<rect width="1280" height="295.62" fill="white"/>
</clipPath>
</defs>
</svg>
