<svg width="1025" height="296" viewBox="0 0 1025 296" fill="none" xmlns="http://www.w3.org/2000/svg">
<g clip-path="url(#clip0_614_1290)">
<path d="M1024.34 271.33V275.96H1023.6C992.43 276.04 976.46 280.94 961 285.69C945.1 290.57 928.66 295.62 896.3 295.62C863.94 295.62 847.5 290.57 831.59 285.69C816.02 280.9 799.92 275.96 768.25 275.96V271.33C800.61 271.33 817.05 276.38 832.95 281.26C848.53 286.04 864.63 290.99 896.3 290.99C927.97 290.99 944.07 286.04 959.64 281.26C975.43 276.42 991.74 271.41 1023.6 271.33H1024.34Z" fill="url(#paint0_linear_614_1290)"/>
<path d="M896.3 286.55C863.96 286.55 847.53 281.5 831.63 276.62C816.05 271.84 799.93 266.89 768.25 266.89V262.52C800.58 262.52 817.02 267.57 832.91 272.45C848.49 277.23 864.61 282.18 896.3 282.18C927.99 282.18 944.1 277.23 959.68 272.45C975.57 267.57 992.01 262.52 1024.34 262.52V266.89C992.65 266.89 976.54 271.84 960.96 276.62C945.07 281.5 928.63 286.55 896.3 286.55Z" fill="url(#paint1_linear_614_1290)"/>
<path d="M896.3 277.47C863.97 277.47 847.55 272.43 831.67 267.55C816.08 262.76 799.95 257.81 768.25 257.81V253.7C800.57 253.7 816.99 258.74 832.87 263.62C848.46 268.41 864.59 273.36 896.29 273.36C927.99 273.36 944.12 268.41 959.71 263.62C975.59 258.74 992.01 253.7 1024.33 253.7V257.81C992.63 257.81 976.5 262.76 960.91 267.55C945.03 272.43 928.61 277.47 896.29 277.47H896.3Z" fill="url(#paint2_linear_614_1290)"/>
<path d="M896.3 268.4C864 268.4 847.58 263.37 831.71 258.49C816.1 253.7 799.98 248.74 768.25 248.74V244.89C800.55 244.89 816.96 249.92 832.84 254.8C848.45 259.59 864.58 264.55 896.3 264.55C928.02 264.55 944.16 259.59 959.76 254.8C975.63 249.93 992.05 244.89 1024.35 244.89V248.74C992.63 248.74 976.49 253.7 960.89 258.49C945.02 263.36 928.6 268.4 896.3 268.4Z" fill="url(#paint3_linear_614_1290)"/>
<path d="M896.3 259.34C864.02 259.34 847.61 254.3 831.74 249.42C816.13 244.63 799.99 239.67 768.25 239.67V236.06C800.53 236.06 816.93 241.1 832.8 245.98C848.41 250.77 864.55 255.73 896.3 255.73C928.05 255.73 944.18 250.77 959.79 245.98C975.66 241.11 992.06 236.06 1024.34 236.06V239.67C992.6 239.67 976.46 244.63 960.85 249.42C944.98 254.29 928.58 259.34 896.3 259.34Z" fill="url(#paint4_linear_614_1290)"/>
<path d="M896.3 250.26C864.03 250.26 847.64 245.23 831.78 240.35C816.16 235.55 800.01 230.6 768.25 230.6V227.25C800.51 227.25 816.91 232.28 832.76 237.16C848.38 241.96 864.54 246.91 896.3 246.91C928.06 246.91 944.21 241.95 959.83 237.16C975.68 232.29 992.08 227.25 1024.34 227.25V230.6C992.58 230.6 976.43 235.56 960.81 240.35C944.96 245.22 928.56 250.26 896.3 250.26Z" fill="url(#paint5_linear_614_1290)"/>
<path d="M896.3 241.19C864.06 241.19 847.66 236.16 831.82 231.29C816.19 226.49 800.03 221.53 768.25 221.53V218.44C800.49 218.44 816.88 223.47 832.72 228.34C848.35 233.14 864.51 238.1 896.3 238.1C928.09 238.1 944.24 233.13 959.87 228.34C975.71 223.47 992.1 218.44 1024.34 218.44V221.53C992.56 221.53 976.4 226.5 960.77 231.29C944.93 236.16 928.54 241.19 896.3 241.19Z" fill="url(#paint6_linear_614_1290)"/>
<path d="M896.3 232.11C864.07 232.11 847.69 227.08 831.86 222.23C816.22 217.43 800.05 212.46 768.25 212.46V209.63C800.47 209.63 816.85 214.66 832.68 219.51C848.32 224.31 864.5 229.28 896.3 229.28C928.1 229.28 944.26 224.31 959.91 219.51C975.75 214.65 992.12 209.63 1024.34 209.63V212.46C992.54 212.46 976.38 217.43 960.73 222.23C944.89 227.09 928.52 232.11 896.3 232.11Z" fill="url(#paint7_linear_614_1290)"/>
<path d="M896.3 223.05C864.1 223.05 847.73 218.02 831.89 213.16C816.25 208.36 800.07 203.39 768.25 203.39V200.81C800.45 200.81 816.82 205.84 832.64 210.7C848.29 215.5 864.47 220.47 896.29 220.47C928.11 220.47 944.28 215.5 959.93 210.7C975.77 205.83 992.13 200.81 1024.33 200.81V203.39C992.51 203.39 976.34 208.36 960.69 213.16C944.85 218.03 928.49 223.05 896.29 223.05H896.3Z" fill="url(#paint8_linear_614_1290)"/>
<path d="M896.3 213.98C864.11 213.98 847.75 208.95 831.93 204.1C816.28 199.3 800.09 194.32 768.25 194.32V192C800.43 192 816.79 197.03 832.61 201.88C848.26 206.68 864.46 211.66 896.29 211.66C928.12 211.66 944.31 206.69 959.97 201.88C975.79 197.02 992.15 192 1024.33 192V194.32C992.49 194.32 976.31 199.29 960.65 204.1C944.83 208.96 928.47 213.98 896.29 213.98H896.3Z" fill="url(#paint9_linear_614_1290)"/>
<path d="M896.3 204.9C864.13 204.9 847.78 199.88 831.97 195.02C816.31 190.21 800.11 185.23 768.26 185.23V183.17C800.43 183.17 816.77 188.19 832.59 193.05C848.25 197.86 864.45 202.84 896.31 202.84C928.17 202.84 944.37 197.87 960.02 193.05C975.83 188.19 992.18 183.17 1024.35 183.17V185.23C992.5 185.23 976.29 190.2 960.64 195.02C944.83 199.88 928.48 204.9 896.31 204.9H896.3Z" fill="url(#paint10_linear_614_1290)"/>
<path d="M896.3 195.83C864.15 195.83 847.81 190.82 832 185.97C816.33 181.16 800.12 176.18 768.25 176.18V174.38C800.39 174.38 816.73 179.39 832.54 184.24C848.21 189.05 864.42 194.03 896.3 194.03C928.18 194.03 944.38 189.05 960.05 184.24C975.85 179.39 992.19 174.38 1024.34 174.38V176.18C992.46 176.18 976.26 181.16 960.59 185.97C944.79 190.82 928.45 195.83 896.3 195.83Z" fill="url(#paint11_linear_614_1290)"/>
<path d="M896.3 186.77C864.17 186.77 847.84 181.75 832.04 176.9C816.36 172.09 800.14 167.11 768.25 167.11V165.55C800.38 165.55 816.7 170.57 832.5 175.42C848.18 180.23 864.4 185.21 896.3 185.21C928.2 185.21 944.41 180.23 960.09 175.42C975.89 170.57 992.21 165.55 1024.34 165.55V167.11C992.45 167.11 976.23 172.09 960.55 176.9C944.75 181.75 928.43 186.77 896.3 186.77Z" fill="url(#paint12_linear_614_1290)"/>
<path d="M896.3 177.69C864.19 177.69 847.86 172.68 832.08 167.83C816.39 163.01 800.17 158.03 768.25 158.03V156.73C800.36 156.73 816.68 161.74 832.46 166.59C848.15 171.41 864.38 176.39 896.3 176.39C928.22 176.39 944.44 171.41 960.13 166.59C975.91 161.74 992.24 156.73 1024.34 156.73V158.03C992.43 158.03 976.2 163.01 960.51 167.83C944.73 172.68 928.4 177.69 896.3 177.69Z" fill="url(#paint13_linear_614_1290)"/>
<path d="M896.3 168.62C864.21 168.62 847.89 163.62 832.12 158.77C816.42 153.95 800.18 148.96 768.25 148.96V147.92C800.34 147.92 816.65 152.92 832.42 157.77C848.13 162.59 864.36 167.58 896.3 167.58C928.24 167.58 944.47 162.59 960.17 157.77C975.94 152.93 992.25 147.92 1024.34 147.92V148.96C992.41 148.96 976.17 153.95 960.47 158.77C944.7 163.61 928.39 168.62 896.3 168.62Z" fill="url(#paint14_linear_614_1290)"/>
<path d="M768.25 150.68C735.89 150.68 719.45 145.63 703.55 140.75C687.97 135.97 671.87 131.03 640.21 131.03C608.55 131.03 592.44 135.97 576.87 140.75C560.97 145.63 544.53 150.68 512.17 150.68V146.05C543.83 146.05 559.94 141.11 575.51 136.33C591.41 131.45 607.85 126.4 640.21 126.4C672.57 126.4 689.01 131.45 704.91 136.33C720.49 141.11 736.59 146.05 768.25 146.05V150.68Z" fill="url(#paint15_linear_614_1290)"/>
<path d="M768.25 159.5C735.92 159.5 719.48 154.45 703.59 149.57C688.01 144.79 671.9 139.84 640.21 139.84C608.52 139.84 592.41 144.79 576.83 149.57C560.94 154.45 544.5 159.5 512.17 159.5V155.13C543.86 155.13 559.97 150.18 575.55 145.4C591.44 140.52 607.88 135.47 640.21 135.47C672.54 135.47 688.98 140.52 704.87 145.4C720.45 150.18 736.56 155.13 768.25 155.13V159.5Z" fill="url(#paint16_linear_614_1290)"/>
<path d="M768.25 168.31C735.93 168.31 719.51 163.27 703.63 158.39C688.04 153.6 671.91 148.65 640.21 148.65C608.51 148.65 592.38 153.6 576.79 158.39C560.91 163.27 544.49 168.31 512.17 168.31V164.2C543.87 164.2 560 159.25 575.59 154.46C591.47 149.58 607.89 144.54 640.21 144.54C672.53 144.54 688.95 149.58 704.83 154.46C720.42 159.25 736.55 164.2 768.25 164.2V168.31Z" fill="url(#paint17_linear_614_1290)"/>
<path d="M768.25 177.12C735.95 177.12 719.54 172.09 703.66 167.21C688.06 162.42 671.93 157.46 640.2 157.46C608.47 157.46 592.34 162.42 576.74 167.21C560.87 172.08 544.45 177.12 512.15 177.12V173.27C543.87 173.27 560.01 168.31 575.61 163.52C591.48 158.65 607.9 153.61 640.2 153.61C672.5 153.61 688.91 158.64 704.79 163.52C720.39 168.31 736.52 173.27 768.25 173.27V177.12Z" fill="url(#paint18_linear_614_1290)"/>
<path d="M768.25 185.94C735.97 185.94 719.57 180.9 703.7 176.02C688.09 171.23 671.95 166.27 640.21 166.27C608.47 166.27 592.33 171.23 576.72 176.02C560.85 180.89 544.45 185.94 512.17 185.94V182.33C543.91 182.33 560.05 177.37 575.66 172.58C591.53 167.71 607.93 162.66 640.21 162.66C672.49 162.66 688.89 167.7 704.76 172.58C720.37 177.37 736.51 182.33 768.25 182.33V185.94Z" fill="url(#paint19_linear_614_1290)"/>
<path d="M768.25 194.76C735.99 194.76 719.59 189.73 703.74 184.85C688.12 180.05 671.97 175.1 640.21 175.1C608.45 175.1 592.3 180.06 576.68 184.85C560.83 189.72 544.43 194.76 512.17 194.76V191.41C543.93 191.41 560.08 186.45 575.7 181.66C591.55 176.79 607.95 171.75 640.21 171.75C672.47 171.75 688.87 176.78 704.72 181.66C720.34 186.46 736.49 191.41 768.25 191.41V194.76Z" fill="url(#paint20_linear_614_1290)"/>
<path d="M768.25 203.57C736.01 203.57 719.62 198.54 703.78 193.67C688.15 188.87 671.99 183.91 640.21 183.91C608.43 183.91 592.27 188.88 576.64 193.67C560.8 198.54 544.41 203.57 512.17 203.57V200.48C543.95 200.48 560.11 195.51 575.74 190.72C591.58 185.85 607.97 180.82 640.21 180.82C672.45 180.82 688.84 185.85 704.68 190.72C720.31 195.52 736.47 200.48 768.25 200.48V203.57Z" fill="url(#paint21_linear_614_1290)"/>
<path d="M768.25 212.38C736.03 212.38 719.65 207.35 703.82 202.5C688.18 197.7 672.01 192.73 640.21 192.73C608.41 192.73 592.25 197.7 576.6 202.5C560.76 207.36 544.39 212.38 512.17 212.38V209.55C543.97 209.55 560.13 204.58 575.78 199.78C591.62 194.92 607.99 189.9 640.21 189.9C672.43 189.9 688.81 194.93 704.64 199.78C720.28 204.58 736.45 209.55 768.25 209.55V212.38Z" fill="url(#paint22_linear_614_1290)"/>
<path d="M768.25 221.2C736.05 221.2 719.68 216.17 703.85 211.31C688.21 206.51 672.03 201.54 640.21 201.54C608.39 201.54 592.22 206.51 576.57 211.31C560.73 216.18 544.37 221.2 512.17 221.2V218.62C543.99 218.62 560.16 213.65 575.81 208.85C591.65 203.98 608.01 198.96 640.21 198.96C672.41 198.96 688.78 203.99 704.61 208.85C720.25 213.65 736.43 218.62 768.25 218.62V221.2Z" fill="url(#paint23_linear_614_1290)"/>
<path d="M768.25 230.02C736.07 230.02 719.71 224.99 703.89 220.14C688.24 215.34 672.05 210.36 640.21 210.36C608.37 210.36 592.19 215.33 576.53 220.14C560.71 225 544.35 230.02 512.17 230.02V227.7C544.01 227.7 560.19 222.73 575.85 217.92C591.67 213.06 608.03 208.04 640.21 208.04C672.39 208.04 688.75 213.07 704.57 217.92C720.22 222.72 736.41 227.7 768.25 227.7V230.02Z" fill="url(#paint24_linear_614_1290)"/>
<path d="M768.25 238.83C736.08 238.83 719.74 233.81 703.92 228.96C688.26 224.15 672.06 219.17 640.21 219.17C608.36 219.17 592.15 224.14 576.5 228.96C560.69 233.81 544.34 238.83 512.17 238.83V236.77C544.02 236.77 560.23 231.8 575.88 226.98C591.69 222.13 608.04 217.11 640.21 217.11C672.38 217.11 688.72 222.13 704.54 226.98C720.2 231.79 736.4 236.77 768.25 236.77V238.83Z" fill="url(#paint25_linear_614_1290)"/>
<path d="M768.25 247.64C736.11 247.64 719.77 242.62 703.96 237.77C688.29 232.96 672.08 227.98 640.21 227.98C608.34 227.98 592.13 232.96 576.46 237.77C560.66 242.62 544.32 247.64 512.17 247.64V245.84C544.05 245.84 560.25 240.86 575.92 236.05C591.72 231.2 608.06 226.18 640.21 226.18C672.36 226.18 688.69 231.2 704.5 236.05C720.17 240.86 736.38 245.84 768.25 245.84V247.64Z" fill="url(#paint26_linear_614_1290)"/>
<path d="M768.25 256.46C736.12 256.46 719.8 251.44 704 246.59C688.32 241.78 672.1 236.8 640.21 236.8C608.32 236.8 592.1 241.78 576.42 246.59C560.62 251.44 544.3 256.46 512.17 256.46V254.9C544.06 254.9 560.28 249.92 575.96 245.11C591.76 240.26 608.08 235.24 640.21 235.24C672.34 235.24 688.66 240.26 704.46 245.11C720.14 249.92 736.36 254.9 768.25 254.9V256.46Z" fill="url(#paint27_linear_614_1290)"/>
<path d="M768.25 265.28C736.14 265.28 719.82 260.27 704.04 255.42C688.35 250.6 672.13 245.62 640.21 245.62C608.29 245.62 592.07 250.6 576.38 255.42C560.6 260.27 544.27 265.28 512.17 265.28V263.98C544.08 263.98 560.31 259 576 254.18C591.78 249.33 608.11 244.32 640.21 244.32C672.31 244.32 688.64 249.33 704.42 254.18C720.11 259 736.33 263.98 768.25 263.98V265.28Z" fill="url(#paint28_linear_614_1290)"/>
<path d="M768.25 273.05V274.09C736.16 274.09 719.86 269.09 704.08 264.24C688.38 259.42 672.14 254.44 640.21 254.44C608.28 254.44 592.04 259.42 576.35 264.24C560.57 269.09 544.26 274.09 512.17 274.09V273.05C544.1 273.05 560.34 268.06 576.04 263.24C591.81 258.4 608.12 253.4 640.21 253.4C672.3 253.4 688.61 258.4 704.39 263.24C720.08 268.06 736.32 273.05 768.25 273.05Z" fill="url(#paint29_linear_614_1290)"/>
<path d="M512.17 271.33V275.96C480.51 275.96 464.41 280.9 448.83 285.69C432.93 290.57 416.49 295.62 384.13 295.62C351.77 295.62 335.33 290.57 319.42 285.69C303.85 280.9 287.75 275.96 256.08 275.96V271.33C288.44 271.33 304.88 276.38 320.78 281.26C336.36 286.04 352.46 290.99 384.13 290.99C415.8 290.99 431.9 286.04 447.47 281.26C463.38 276.38 479.81 271.33 512.17 271.33Z" fill="url(#paint30_linear_614_1290)"/>
<path d="M384.13 286.55C351.79 286.55 335.36 281.5 319.46 276.62C303.88 271.84 287.76 266.89 256.08 266.89V262.52C288.41 262.52 304.85 267.57 320.74 272.45C336.32 277.23 352.44 282.18 384.13 282.18C415.82 282.18 431.93 277.23 447.51 272.45C463.4 267.57 479.84 262.52 512.17 262.52V266.89C480.48 266.89 464.37 271.84 448.79 276.62C432.9 281.5 416.46 286.55 384.13 286.55Z" fill="url(#paint31_linear_614_1290)"/>
<path d="M384.13 277.47C351.8 277.47 335.38 272.43 319.5 267.55C303.91 262.76 287.78 257.81 256.08 257.81V253.7C288.4 253.7 304.82 258.74 320.7 263.62C336.29 268.41 352.42 273.36 384.12 273.36C415.82 273.36 431.95 268.41 447.54 263.62C463.42 258.74 479.84 253.7 512.16 253.7V257.81C480.46 257.81 464.33 262.76 448.74 267.55C432.86 272.43 416.44 277.47 384.12 277.47H384.13Z" fill="url(#paint32_linear_614_1290)"/>
<path d="M384.13 268.4C351.83 268.4 335.41 263.37 319.54 258.49C303.93 253.7 287.81 248.74 256.08 248.74V244.89C288.38 244.89 304.79 249.92 320.67 254.8C336.28 259.59 352.41 264.55 384.13 264.55C415.85 264.55 431.99 259.59 447.59 254.8C463.46 249.93 479.88 244.89 512.18 244.89V248.74C480.46 248.74 464.32 253.7 448.72 258.49C432.85 263.36 416.43 268.4 384.13 268.4Z" fill="url(#paint33_linear_614_1290)"/>
<path d="M384.13 259.34C351.85 259.34 335.44 254.3 319.57 249.42C303.96 244.63 287.82 239.67 256.08 239.67V236.06C288.36 236.06 304.76 241.1 320.63 245.98C336.24 250.77 352.38 255.73 384.13 255.73C415.88 255.73 432.01 250.77 447.62 245.98C463.49 241.11 479.89 236.06 512.17 236.06V239.67C480.43 239.67 464.29 244.63 448.68 249.42C432.81 254.29 416.41 259.34 384.13 259.34Z" fill="url(#paint34_linear_614_1290)"/>
<path d="M384.13 250.26C351.86 250.26 335.47 245.23 319.61 240.35C303.99 235.55 287.84 230.6 256.08 230.6V227.25C288.34 227.25 304.74 232.28 320.59 237.16C336.21 241.96 352.37 246.91 384.13 246.91C415.89 246.91 432.04 241.95 447.66 237.16C463.51 232.29 479.91 227.25 512.17 227.25V230.6C480.41 230.6 464.26 235.56 448.64 240.35C432.79 245.22 416.39 250.26 384.13 250.26Z" fill="url(#paint35_linear_614_1290)"/>
<path d="M384.13 241.19C351.89 241.19 335.49 236.16 319.65 231.29C304.02 226.49 287.86 221.53 256.08 221.53V218.44C288.32 218.44 304.71 223.47 320.55 228.34C336.18 233.14 352.34 238.1 384.13 238.1C415.92 238.1 432.07 233.13 447.7 228.34C463.54 223.47 479.93 218.44 512.17 218.44V221.53C480.39 221.53 464.23 226.5 448.6 231.29C432.76 236.16 416.37 241.19 384.13 241.19Z" fill="url(#paint36_linear_614_1290)"/>
<path d="M384.13 232.11C351.9 232.11 335.52 227.08 319.69 222.23C304.05 217.43 287.88 212.46 256.08 212.46V209.63C288.3 209.63 304.68 214.66 320.51 219.51C336.15 224.31 352.33 229.28 384.13 229.28C415.93 229.28 432.09 224.31 447.74 219.51C463.58 214.65 479.95 209.63 512.17 209.63V212.46C480.37 212.46 464.21 217.43 448.56 222.23C432.72 227.09 416.35 232.11 384.13 232.11Z" fill="url(#paint37_linear_614_1290)"/>
<path d="M384.13 223.05C351.93 223.05 335.56 218.02 319.72 213.16C304.08 208.36 287.9 203.39 256.08 203.39V200.81C288.28 200.81 304.65 205.84 320.47 210.7C336.12 215.5 352.3 220.47 384.12 220.47C415.94 220.47 432.11 215.5 447.76 210.7C463.6 205.83 479.96 200.81 512.16 200.81V203.39C480.34 203.39 464.17 208.36 448.52 213.16C432.68 218.03 416.32 223.05 384.12 223.05H384.13Z" fill="url(#paint38_linear_614_1290)"/>
<path d="M384.13 213.98C351.94 213.98 335.58 208.95 319.76 204.1C304.11 199.3 287.92 194.32 256.08 194.32V192C288.26 192 304.62 197.03 320.44 201.88C336.09 206.68 352.29 211.66 384.12 211.66C415.95 211.66 432.14 206.69 447.8 201.88C463.62 197.02 479.98 192 512.16 192V194.32C480.32 194.32 464.14 199.29 448.48 204.1C432.66 208.96 416.3 213.98 384.12 213.98H384.13Z" fill="url(#paint39_linear_614_1290)"/>
<path d="M384.13 204.9C351.96 204.9 335.61 199.88 319.8 195.02C304.14 190.21 287.94 185.23 256.09 185.23V183.17C288.26 183.17 304.6 188.19 320.42 193.05C336.08 197.86 352.28 202.84 384.14 202.84C416 202.84 432.2 197.87 447.85 193.05C463.66 188.19 480.01 183.17 512.18 183.17V185.23C480.33 185.23 464.12 190.2 448.47 195.02C432.66 199.88 416.31 204.9 384.14 204.9H384.13Z" fill="url(#paint40_linear_614_1290)"/>
<path d="M384.13 195.83C351.98 195.83 335.64 190.82 319.83 185.97C304.16 181.16 287.95 176.18 256.08 176.18V174.38C288.22 174.38 304.56 179.39 320.37 184.24C336.04 189.05 352.25 194.03 384.13 194.03C416.01 194.03 432.21 189.05 447.88 184.24C463.68 179.39 480.02 174.38 512.17 174.38V176.18C480.29 176.18 464.09 181.16 448.42 185.97C432.62 190.82 416.28 195.83 384.13 195.83Z" fill="url(#paint41_linear_614_1290)"/>
<path d="M384.13 186.77C352 186.77 335.67 181.75 319.87 176.9C304.19 172.09 287.97 167.11 256.08 167.11V165.55C288.21 165.55 304.53 170.57 320.33 175.42C336.01 180.23 352.23 185.21 384.13 185.21C416.03 185.21 432.24 180.23 447.92 175.42C463.72 170.57 480.04 165.55 512.17 165.55V167.11C480.28 167.11 464.06 172.09 448.38 176.9C432.58 181.75 416.26 186.77 384.13 186.77Z" fill="url(#paint42_linear_614_1290)"/>
<path d="M384.13 177.69C352.02 177.69 335.69 172.68 319.91 167.83C304.22 163.01 288 158.03 256.08 158.03V156.73C288.19 156.73 304.51 161.74 320.29 166.59C335.98 171.41 352.21 176.39 384.13 176.39C416.05 176.39 432.27 171.41 447.96 166.59C463.74 161.74 480.07 156.73 512.17 156.73V158.03C480.26 158.03 464.03 163.01 448.34 167.83C432.56 172.68 416.23 177.69 384.13 177.69Z" fill="url(#paint43_linear_614_1290)"/>
<path d="M384.13 168.62C352.04 168.62 335.72 163.62 319.95 158.77C304.25 153.95 288.01 148.96 256.08 148.96V147.92C288.17 147.92 304.48 152.92 320.25 157.77C335.96 162.59 352.19 167.58 384.13 167.58C416.07 167.58 432.3 162.59 448 157.77C463.77 152.93 480.08 147.92 512.17 147.92V148.96C480.24 148.96 464 153.95 448.3 158.77C432.53 163.61 416.22 168.62 384.13 168.62Z" fill="url(#paint44_linear_614_1290)"/>
<path d="M256.08 150.68C223.72 150.68 207.28 145.63 191.38 140.75C175.8 135.97 159.7 131.03 128.04 131.03C96.38 131.03 80.27 135.97 64.7 140.75C48.8 145.63 32.36 150.68 0 150.68V146.05C31.66 146.05 47.77 141.11 63.34 136.33C79.24 131.45 95.68 126.4 128.04 126.4C160.4 126.4 176.84 131.45 192.74 136.33C208.32 141.11 224.42 146.05 256.08 146.05V150.68Z" fill="url(#paint45_linear_614_1290)"/>
<path d="M256.08 159.5C223.75 159.5 207.31 154.45 191.42 149.57C175.84 144.79 159.73 139.84 128.04 139.84C96.35 139.84 80.24 144.79 64.66 149.57C48.78 154.45 32.34 159.5 0 159.5V155.13C31.69 155.13 47.8 150.18 63.38 145.4C79.27 140.52 95.71 135.47 128.04 135.47C160.37 135.47 176.81 140.52 192.7 145.4C208.28 150.18 224.39 155.13 256.08 155.13V159.5Z" fill="url(#paint46_linear_614_1290)"/>
<path d="M256.08 168.31C223.76 168.31 207.34 163.27 191.46 158.39C175.87 153.6 159.74 148.65 128.04 148.65C96.34 148.65 80.21 153.6 64.62 158.39C48.74 163.27 32.32 168.31 0 168.31V164.2C31.7 164.2 47.83 159.25 63.42 154.46C79.3 149.58 95.72 144.54 128.04 144.54C160.36 144.54 176.78 149.58 192.66 154.46C208.25 159.25 224.38 164.2 256.08 164.2V168.31Z" fill="url(#paint47_linear_614_1290)"/>
<path d="M256.08 177.12C223.78 177.12 207.37 172.09 191.49 167.21C175.89 162.42 159.76 157.46 128.03 157.46C96.3 157.46 80.17 162.42 64.57 167.21C48.71 172.09 32.3 177.12 0 177.12V173.27C31.72 173.27 47.86 168.31 63.46 163.52C79.33 158.65 95.75 153.61 128.05 153.61C160.35 153.61 176.76 158.64 192.64 163.52C208.24 168.31 224.37 173.27 256.1 173.27V177.12H256.08Z" fill="url(#paint48_linear_614_1290)"/>
<path d="M256.08 185.94C223.8 185.94 207.4 180.9 191.53 176.02C175.92 171.23 159.78 166.27 128.04 166.27C96.3 166.27 80.16 171.23 64.55 176.02C48.68 180.9 32.28 185.94 0 185.94V182.33C31.74 182.33 47.88 177.37 63.49 172.58C79.36 167.71 95.76 162.66 128.04 162.66C160.32 162.66 176.72 167.7 192.59 172.58C208.2 177.37 224.34 182.33 256.08 182.33V185.94Z" fill="url(#paint49_linear_614_1290)"/>
<path d="M256.08 194.76C223.82 194.76 207.42 189.73 191.57 184.85C175.95 180.05 159.8 175.1 128.04 175.1C96.28 175.1 80.13 180.06 64.51 184.85C48.66 189.72 32.26 194.76 0 194.76V191.41C31.76 191.41 47.91 186.45 63.53 181.66C79.38 176.79 95.78 171.75 128.04 171.75C160.3 171.75 176.7 176.78 192.55 181.66C208.17 186.46 224.32 191.41 256.08 191.41V194.76Z" fill="url(#paint50_linear_614_1290)"/>
<path d="M256.08 203.57C223.84 203.57 207.45 198.54 191.61 193.67C175.98 188.87 159.82 183.91 128.04 183.91C96.26 183.91 80.1 188.88 64.47 193.67C48.63 198.54 32.24 203.57 0 203.57V200.48C31.78 200.48 47.94 195.51 63.57 190.72C79.41 185.85 95.8 180.82 128.04 180.82C160.28 180.82 176.67 185.85 192.51 190.72C208.14 195.52 224.3 200.48 256.08 200.48V203.57Z" fill="url(#paint51_linear_614_1290)"/>
<path d="M256.08 212.38C223.86 212.38 207.48 207.35 191.65 202.5C176.01 197.7 159.84 192.73 128.04 192.73C96.24 192.73 80.08 197.7 64.43 202.5C48.6 207.35 32.22 212.38 0 212.38V209.55C31.8 209.55 47.96 204.58 63.61 199.78C79.45 194.92 95.82 189.9 128.04 189.9C160.26 189.9 176.64 194.93 192.47 199.78C208.11 204.58 224.28 209.55 256.08 209.55V212.38Z" fill="url(#paint52_linear_614_1290)"/>
<path d="M256.08 221.2C223.88 221.2 207.51 216.17 191.68 211.31C176.04 206.51 159.86 201.54 128.04 201.54C96.22 201.54 80.05 206.51 64.4 211.31C48.57 216.18 32.21 221.2 0 221.2V218.62C31.82 218.62 47.99 213.65 63.64 208.85C79.48 203.98 95.84 198.96 128.04 198.96C160.24 198.96 176.61 203.99 192.44 208.85C208.08 213.65 224.26 218.62 256.08 218.62V221.2Z" fill="url(#paint53_linear_614_1290)"/>
<path d="M256.08 230.02C223.9 230.02 207.54 224.99 191.72 220.14C176.07 215.34 159.88 210.36 128.04 210.36C96.2 210.36 80.02 215.33 64.36 220.14C48.55 224.99 32.18 230.02 0 230.02V227.7C31.84 227.7 48.02 222.73 63.68 217.92C79.5 213.06 95.86 208.04 128.04 208.04C160.22 208.04 176.58 213.07 192.4 217.92C208.05 222.72 224.24 227.7 256.08 227.7V230.02Z" fill="url(#paint54_linear_614_1290)"/>
<path d="M256.08 238.83C223.91 238.83 207.57 233.81 191.75 228.96C176.09 224.15 159.89 219.17 128.04 219.17C96.19 219.17 79.98 224.14 64.33 228.96C48.52 233.81 32.17 238.83 0 238.83V236.77C31.85 236.77 48.06 231.8 63.71 226.98C79.52 222.13 95.87 217.11 128.04 217.11C160.21 217.11 176.55 222.13 192.37 226.98C208.03 231.79 224.23 236.77 256.08 236.77V238.83Z" fill="url(#paint55_linear_614_1290)"/>
<path d="M256.08 247.64C223.94 247.64 207.6 242.62 191.79 237.77C176.12 232.96 159.91 227.98 128.04 227.98C96.17 227.98 79.96 232.96 64.29 237.77C48.48 242.62 32.15 247.64 0 247.64V245.84C31.88 245.84 48.08 240.86 63.75 236.05C79.55 231.2 95.89 226.18 128.04 226.18C160.19 226.18 176.52 231.2 192.33 236.05C208 240.86 224.21 245.84 256.08 245.84V247.64Z" fill="url(#paint56_linear_614_1290)"/>
<path d="M256.08 256.46C223.95 256.46 207.63 251.44 191.83 246.59C176.15 241.78 159.93 236.8 128.04 236.8C96.15 236.8 79.93 241.78 64.25 246.59C48.45 251.44 32.13 256.46 0 256.46V254.9C31.89 254.9 48.11 249.92 63.79 245.11C79.59 240.26 95.91 235.24 128.04 235.24C160.17 235.24 176.49 240.26 192.29 245.11C207.97 249.92 224.19 254.9 256.08 254.9V256.46Z" fill="url(#paint57_linear_614_1290)"/>
<path d="M256.08 265.28C223.97 265.28 207.65 260.27 191.87 255.42C176.18 250.6 159.96 245.62 128.04 245.62C96.12 245.62 79.9 250.6 64.21 255.42C48.43 260.27 32.1 265.28 0 265.28V263.98C31.91 263.98 48.14 259 63.83 254.18C79.61 249.33 95.94 244.32 128.04 244.32C160.14 244.32 176.47 249.33 192.25 254.18C207.94 259 224.16 263.98 256.08 263.98V265.28Z" fill="url(#paint58_linear_614_1290)"/>
<path d="M256.08 273.05V274.09C223.99 274.09 207.68 269.09 191.91 264.24C176.21 259.42 159.97 254.44 128.04 254.44C96.11 254.44 79.87 259.42 64.17 264.24C48.4 269.09 32.09 274.09 0 274.09V273.05C31.93 273.05 48.17 268.06 63.87 263.24C79.64 258.4 95.95 253.4 128.04 253.4C160.13 253.4 176.44 258.4 192.22 263.24C207.91 268.06 224.15 273.05 256.08 273.05Z" fill="url(#paint59_linear_614_1290)"/>
<path d="M896.3 169.22C863.93 169.22 847.5 164.17 831.59 159.28C816.01 154.5 799.91 149.56 768.25 149.56V144.93C800.61 144.93 817.05 149.98 832.95 154.87C848.53 159.65 864.63 164.59 896.3 164.59C927.97 164.59 944.07 159.65 959.64 154.87C975.54 149.98 991.98 144.93 1024.34 144.93V149.56C992.68 149.56 976.57 154.5 961 159.28C945.1 164.17 928.66 169.22 896.3 169.22Z" fill="url(#paint60_linear_614_1290)"/>
<path d="M896.3 160.15C863.96 160.15 847.53 155.1 831.63 150.23C816.05 145.44 799.93 140.5 768.25 140.5V136.13C800.58 136.13 817.02 141.17 832.91 146.05C848.49 150.83 864.61 155.78 896.3 155.78C927.99 155.78 944.1 150.83 959.68 146.05C975.57 141.18 992.01 136.13 1024.34 136.13V140.5C992.65 140.5 976.54 145.45 960.96 150.23C945.07 155.1 928.63 160.15 896.3 160.15Z" fill="url(#paint61_linear_614_1290)"/>
<path d="M896.3 151.08C863.97 151.08 847.55 146.04 831.67 141.16C816.08 136.37 799.95 131.42 768.25 131.42V127.31C800.57 127.31 816.99 132.35 832.87 137.23C848.46 142.02 864.59 146.97 896.29 146.97C927.99 146.97 944.12 142.02 959.71 137.23C975.59 132.35 992.01 127.31 1024.33 127.31V131.42C992.63 131.42 976.5 136.37 960.91 141.16C945.03 146.04 928.61 151.08 896.29 151.08H896.3Z" fill="url(#paint62_linear_614_1290)"/>
<path d="M896.3 142C864 142 847.58 136.96 831.71 132.08C816.1 127.29 799.97 122.33 768.25 122.33V118.48C800.55 118.48 816.96 123.52 832.84 128.4C848.45 133.19 864.58 138.15 896.3 138.15C928.02 138.15 944.16 133.19 959.76 128.4C975.63 123.53 992.05 118.48 1024.35 118.48V122.33C992.63 122.33 976.49 127.29 960.89 132.08C945.02 136.95 928.6 142 896.3 142Z" fill="url(#paint63_linear_614_1290)"/>
<path d="M896.3 132.94C864.02 132.94 847.61 127.9 831.74 123.02C816.13 118.23 799.99 113.27 768.25 113.27V109.66C800.53 109.66 816.93 114.7 832.8 119.58C848.41 124.37 864.55 129.33 896.3 129.33C928.05 129.33 944.18 124.37 959.79 119.58C975.66 114.71 992.06 109.66 1024.34 109.66V113.27C992.6 113.27 976.46 118.23 960.85 123.02C944.98 127.89 928.58 132.94 896.3 132.94Z" fill="url(#paint64_linear_614_1290)"/>
<path d="M896.3 123.86C864.03 123.86 847.64 118.83 831.78 113.96C816.16 109.16 800.01 104.21 768.25 104.21V100.86C800.51 100.86 816.91 105.89 832.76 110.76C848.38 115.56 864.54 120.51 896.3 120.51C928.06 120.51 944.21 115.55 959.83 110.76C975.68 105.89 992.08 100.86 1024.34 100.86V104.21C992.58 104.21 976.43 109.17 960.81 113.96C944.96 118.83 928.56 123.86 896.3 123.86Z" fill="url(#paint65_linear_614_1290)"/>
<path d="M896.3 114.8C864.06 114.8 847.66 109.77 831.82 104.9C816.19 100.1 800.03 95.1398 768.25 95.1398V92.0498C800.49 92.0498 816.88 97.0798 832.72 101.95C848.35 106.75 864.51 111.71 896.3 111.71C928.09 111.71 944.24 106.74 959.87 101.95C975.71 97.0798 992.1 92.0498 1024.34 92.0498V95.1398C992.56 95.1398 976.4 100.11 960.77 104.9C944.93 109.77 928.54 114.8 896.3 114.8Z" fill="url(#paint66_linear_614_1290)"/>
<path d="M896.3 105.72C864.07 105.72 847.69 100.69 831.86 95.83C816.22 91.03 800.05 86.06 768.25 86.06V83.23C800.47 83.23 816.85 88.26 832.68 93.12C848.32 97.92 864.5 102.89 896.3 102.89C928.1 102.89 944.26 97.92 959.91 93.12C975.75 88.25 992.12 83.23 1024.34 83.23V86.06C992.54 86.06 976.38 91.03 960.73 95.83C944.89 100.7 928.52 105.72 896.3 105.72Z" fill="url(#paint67_linear_614_1290)"/>
<path d="M896.3 96.6499C864.1 96.6499 847.73 91.6199 831.89 86.7699C816.25 81.9699 800.07 76.9999 768.25 76.9999V74.4199C800.45 74.4199 816.82 79.4499 832.64 84.2999C848.29 89.0999 864.47 94.0699 896.29 94.0699C928.11 94.0699 944.28 89.0999 959.94 84.2999C975.77 79.4399 992.13 74.4199 1024.33 74.4199V76.9999C992.51 76.9999 976.34 81.9699 960.68 86.7699C944.85 91.6299 928.49 96.6499 896.29 96.6499H896.3Z" fill="url(#paint68_linear_614_1290)"/>
<path d="M896.3 87.5899C864.11 87.5899 847.75 82.5599 831.93 77.7099C816.28 72.9099 800.09 67.9299 768.25 67.9299V65.6099C800.43 65.6099 816.79 70.6399 832.61 75.4899C848.26 80.2899 864.46 85.2699 896.29 85.2699C928.12 85.2699 944.31 80.2999 959.97 75.4899C975.79 70.6299 992.15 65.6099 1024.33 65.6099V67.9299C992.49 67.9299 976.31 72.8999 960.65 77.7099C944.83 82.5699 928.47 87.5899 896.29 87.5899H896.3Z" fill="url(#paint69_linear_614_1290)"/>
<path d="M896.3 78.5098C864.13 78.5098 847.78 73.4898 831.97 68.6298C816.31 63.8198 800.11 58.8398 768.26 58.8398V56.7798C800.43 56.7798 816.77 61.7998 832.59 66.6598C848.25 71.4698 864.45 76.4498 896.31 76.4498C928.17 76.4498 944.37 71.4798 960.02 66.6598C975.83 61.7998 992.18 56.7798 1024.35 56.7798V58.8398C992.5 58.8398 976.29 63.8098 960.64 68.6298C944.83 73.4898 928.48 78.5098 896.31 78.5098H896.3Z" fill="url(#paint70_linear_614_1290)"/>
<path d="M896.3 69.44C864.15 69.44 847.81 64.42 832 59.57C816.33 54.76 800.12 49.78 768.25 49.78V47.98C800.39 47.98 816.73 53 832.54 57.85C848.21 62.66 864.42 67.64 896.3 67.64C928.18 67.64 944.38 62.66 960.05 57.85C975.85 53 992.19 47.98 1024.34 47.98V49.78C992.46 49.78 976.26 54.76 960.59 59.57C944.79 64.42 928.45 69.44 896.3 69.44Z" fill="url(#paint71_linear_614_1290)"/>
<path d="M896.3 60.3702C864.17 60.3702 847.84 55.3502 832.04 50.5102C816.36 45.6902 800.14 40.7202 768.25 40.7202V39.1602C800.38 39.1602 816.7 44.1802 832.5 49.0202C848.18 53.8402 864.4 58.8102 896.3 58.8102C928.2 58.8102 944.41 53.8402 960.09 49.0202C975.89 44.1802 992.21 39.1602 1024.34 39.1602V40.7202C992.45 40.7202 976.23 45.6902 960.55 50.5102C944.75 55.3502 928.43 60.3702 896.3 60.3702Z" fill="url(#paint72_linear_614_1290)"/>
<path d="M896.3 51.2998C864.19 51.2998 847.86 46.2898 832.08 41.4398C816.39 36.6198 800.17 31.6398 768.25 31.6398V30.3398C800.36 30.3398 816.68 35.3498 832.46 40.1998C848.15 45.0198 864.38 49.9998 896.3 49.9998C928.22 49.9998 944.44 45.0198 960.13 40.1998C975.91 35.3498 992.24 30.3398 1024.34 30.3398V31.6398C992.43 31.6398 976.2 36.6198 960.51 41.4398C944.73 46.2898 928.4 51.2998 896.3 51.2998Z" fill="url(#paint73_linear_614_1290)"/>
<path d="M896.3 42.2298C864.21 42.2298 847.89 37.2198 832.12 32.3798C816.42 27.5598 800.18 22.5698 768.25 22.5698V21.5298C800.34 21.5298 816.65 26.5398 832.42 31.3798C848.13 36.1998 864.36 41.1898 896.3 41.1898C928.24 41.1898 944.47 36.1998 960.17 31.3798C975.94 26.5398 992.25 21.5298 1024.34 21.5298V22.5698C992.41 22.5698 976.17 27.5598 960.47 32.3798C944.7 37.2198 928.39 42.2298 896.3 42.2298Z" fill="url(#paint74_linear_614_1290)"/>
<path d="M768.25 24.29C735.89 24.29 719.45 19.24 703.55 14.35C687.97 9.57 671.87 4.63 640.21 4.63C608.55 4.63 592.44 9.57 576.87 14.35C560.97 19.24 544.53 24.29 512.17 24.29V19.66C543.83 19.66 559.94 14.72 575.51 9.94C591.41 5.05 607.85 0 640.21 0C672.57 0 689.01 5.05 704.91 9.94C720.49 14.72 736.59 19.66 768.25 19.66V24.29Z" fill="url(#paint75_linear_614_1290)"/>
<path d="M768.25 33.1101C735.92 33.1101 719.48 28.0601 703.59 23.1801C688.01 18.4001 671.9 13.4501 640.21 13.4501C608.52 13.4501 592.41 18.4001 576.83 23.1801C560.94 28.0601 544.5 33.1101 512.17 33.1101V28.7401C543.86 28.7401 559.97 23.7901 575.55 19.0101C591.44 14.1301 607.88 9.08008 640.21 9.08008C672.54 9.08008 688.98 14.1301 704.87 19.0101C720.45 23.7901 736.56 28.7401 768.25 28.7401V33.1101Z" fill="url(#paint76_linear_614_1290)"/>
<path d="M768.25 41.9101C735.93 41.9101 719.51 36.8701 703.63 31.9901C688.04 27.2001 671.91 22.2501 640.21 22.2501C608.51 22.2501 592.38 27.2001 576.79 31.9901C560.91 36.8601 544.49 41.9101 512.17 41.9101V37.8001C543.87 37.8001 560 32.8501 575.59 28.0601C591.47 23.1901 607.89 18.1401 640.21 18.1401C672.53 18.1401 688.95 23.1801 704.83 28.0601C720.42 32.8501 736.55 37.8001 768.25 37.8001V41.9101Z" fill="url(#paint77_linear_614_1290)"/>
<path d="M768.25 50.73C735.95 50.73 719.54 45.69 703.66 40.81C688.06 36.02 671.93 31.06 640.2 31.06C608.47 31.06 592.34 36.02 576.74 40.81C560.87 45.68 544.45 50.73 512.15 50.73V46.88C543.87 46.88 560.01 41.92 575.61 37.13C591.48 32.26 607.9 27.21 640.2 27.21C672.5 27.21 688.91 32.25 704.79 37.13C720.39 41.92 736.52 46.88 768.25 46.88V50.73Z" fill="url(#paint78_linear_614_1290)"/>
<path d="M768.25 59.55C735.97 59.55 719.57 54.51 703.7 49.63C688.09 44.84 671.95 39.88 640.21 39.88C608.47 39.88 592.33 44.84 576.72 49.63C560.85 54.5 544.45 59.55 512.17 59.55V55.94C543.91 55.94 560.05 50.98 575.66 46.19C591.53 41.32 607.93 36.27 640.21 36.27C672.49 36.27 688.89 41.31 704.76 46.19C720.37 50.98 736.51 55.94 768.25 55.94V59.55Z" fill="url(#paint79_linear_614_1290)"/>
<path d="M768.25 68.3599C735.99 68.3599 719.59 63.3299 703.74 58.4599C688.12 53.6599 671.97 48.7099 640.21 48.7099C608.45 48.7099 592.3 53.6699 576.68 58.4599C560.83 63.3299 544.43 68.3599 512.17 68.3599V65.0099C543.93 65.0099 560.08 60.0499 575.7 55.2599C591.55 50.3899 607.95 45.3599 640.21 45.3599C672.47 45.3599 688.87 50.3899 704.72 55.2599C720.34 60.0599 736.49 65.0099 768.25 65.0099V68.3599Z" fill="url(#paint80_linear_614_1290)"/>
<path d="M768.25 77.1699C736.01 77.1699 719.62 72.1399 703.78 67.2699C688.15 62.4699 671.99 57.5099 640.21 57.5099C608.43 57.5099 592.27 62.4799 576.64 67.2699C560.8 72.1399 544.41 77.1699 512.17 77.1699V74.0799C543.95 74.0799 560.11 69.1099 575.74 64.3199C591.58 59.4499 607.97 54.4199 640.21 54.4199C672.45 54.4199 688.84 59.4499 704.68 64.3199C720.31 69.1199 736.47 74.0799 768.25 74.0799V77.1699Z" fill="url(#paint81_linear_614_1290)"/>
<path d="M768.25 85.99C736.03 85.99 719.65 80.96 703.82 76.1C688.18 71.3 672.01 66.33 640.21 66.33C608.41 66.33 592.25 71.3 576.6 76.1C560.76 80.97 544.39 85.99 512.17 85.99V83.16C543.97 83.16 560.13 78.19 575.78 73.39C591.62 68.52 607.99 63.5 640.21 63.5C672.43 63.5 688.81 68.53 704.64 73.39C720.28 78.19 736.45 83.16 768.25 83.16V85.99Z" fill="url(#paint82_linear_614_1290)"/>
<path d="M768.25 94.8098C736.05 94.8098 719.68 89.7798 703.85 84.9198C688.21 80.1198 672.03 75.1498 640.21 75.1498C608.39 75.1498 592.22 80.1198 576.57 84.9198C560.73 89.7898 544.37 94.8098 512.17 94.8098V92.2298C543.99 92.2298 560.16 87.2598 575.81 82.4598C591.65 77.5898 608.01 72.5698 640.21 72.5698C672.41 72.5698 688.78 77.5998 704.61 82.4598C720.25 87.2598 736.43 92.2298 768.25 92.2298V94.8098Z" fill="url(#paint83_linear_614_1290)"/>
<path d="M768.25 103.62C736.07 103.62 719.71 98.5901 703.89 93.7401C688.24 88.9301 672.05 83.9601 640.21 83.9601C608.37 83.9601 592.19 88.9301 576.53 93.7401C560.71 98.5901 544.35 103.62 512.17 103.62V101.3C544.01 101.3 560.19 96.3301 575.85 91.5201C591.67 86.6701 608.03 81.6401 640.21 81.6401C672.39 81.6401 688.75 86.6701 704.57 91.5201C720.22 96.3301 736.41 101.3 768.25 101.3V103.62Z" fill="url(#paint84_linear_614_1290)"/>
<path d="M768.25 112.43C736.08 112.43 719.74 107.41 703.92 102.55C688.26 97.7402 672.06 92.7602 640.21 92.7602C608.36 92.7602 592.15 97.7302 576.5 102.55C560.69 107.41 544.34 112.43 512.17 112.43V110.37C544.02 110.37 560.23 105.4 575.88 100.58C591.69 95.7202 608.04 90.7002 640.21 90.7002C672.38 90.7002 688.72 95.7202 704.54 100.58C720.2 105.39 736.4 110.37 768.25 110.37V112.43Z" fill="url(#paint85_linear_614_1290)"/>
<path d="M768.25 121.25C736.11 121.25 719.77 116.23 703.96 111.38C688.29 106.57 672.08 101.59 640.21 101.59C608.34 101.59 592.13 106.57 576.46 111.38C560.66 116.23 544.32 121.25 512.17 121.25V119.45C544.05 119.45 560.25 114.47 575.92 109.66C591.72 104.81 608.06 99.79 640.21 99.79C672.36 99.79 688.69 104.81 704.5 109.66C720.17 114.47 736.38 119.45 768.25 119.45V121.25Z" fill="url(#paint86_linear_614_1290)"/>
<path d="M768.25 130.07C736.12 130.07 719.8 125.05 704 120.2C688.32 115.39 672.1 110.41 640.21 110.41C608.32 110.41 592.1 115.39 576.42 120.2C560.62 125.05 544.3 130.07 512.17 130.07V128.51C544.06 128.51 560.28 123.53 575.96 118.72C591.76 113.87 608.08 108.85 640.21 108.85C672.34 108.85 688.66 113.87 704.46 118.72C720.14 123.53 736.36 128.51 768.25 128.51V130.07Z" fill="url(#paint87_linear_614_1290)"/>
<path d="M768.25 138.88C736.14 138.88 719.82 133.87 704.04 129.03C688.35 124.21 672.13 119.23 640.21 119.23C608.29 119.23 592.07 124.21 576.38 129.03C560.6 133.87 544.27 138.88 512.17 138.88V137.58C544.08 137.58 560.31 132.6 576 127.78C591.78 122.94 608.11 117.93 640.21 117.93C672.31 117.93 688.64 122.94 704.42 127.78C720.11 132.6 736.33 137.58 768.25 137.58V138.88Z" fill="url(#paint88_linear_614_1290)"/>
<path d="M768.25 147.7C736.16 147.7 719.85 142.69 704.08 137.85C688.38 133.03 672.14 128.04 640.21 128.04C608.28 128.04 592.04 133.03 576.34 137.85C560.57 142.69 544.26 147.7 512.17 147.7V146.66C544.1 146.66 560.34 141.67 576.04 136.85C591.81 132.01 608.12 127 640.21 127C672.3 127 688.61 132.01 704.38 136.85C720.08 141.67 736.32 146.66 768.25 146.66V147.7Z" fill="url(#paint89_linear_614_1290)"/>
<path d="M384.13 169.22C351.76 169.22 335.33 164.17 319.42 159.28C303.84 154.5 287.74 149.56 256.08 149.56V144.93C288.44 144.93 304.88 149.98 320.78 154.87C336.36 159.65 352.46 164.59 384.13 164.59C415.8 164.59 431.9 159.65 447.47 154.87C463.37 149.98 479.81 144.93 512.17 144.93V149.56C480.51 149.56 464.4 154.5 448.83 159.28C432.93 164.17 416.49 169.22 384.13 169.22Z" fill="url(#paint90_linear_614_1290)"/>
<path d="M384.13 160.15C351.79 160.15 335.36 155.1 319.46 150.23C303.88 145.44 287.76 140.5 256.08 140.5V136.13C288.41 136.13 304.85 141.17 320.74 146.05C336.32 150.83 352.44 155.78 384.13 155.78C415.82 155.78 431.93 150.83 447.51 146.05C463.4 141.18 479.84 136.13 512.17 136.13V140.5C480.48 140.5 464.37 145.45 448.79 150.23C432.9 155.1 416.46 160.15 384.13 160.15Z" fill="url(#paint91_linear_614_1290)"/>
<path d="M384.13 151.08C351.8 151.08 335.38 146.04 319.5 141.16C303.91 136.37 287.78 131.42 256.08 131.42V127.31C288.4 127.31 304.82 132.35 320.7 137.23C336.29 142.02 352.42 146.97 384.12 146.97C415.82 146.97 431.95 142.02 447.54 137.23C463.42 132.35 479.84 127.31 512.16 127.31V131.42C480.46 131.42 464.33 136.37 448.74 141.16C432.86 146.04 416.44 151.08 384.12 151.08H384.13Z" fill="url(#paint92_linear_614_1290)"/>
<path d="M384.13 142C351.83 142 335.41 136.96 319.54 132.08C303.93 127.29 287.8 122.33 256.08 122.33V118.48C288.38 118.48 304.79 123.52 320.67 128.4C336.28 133.19 352.41 138.15 384.13 138.15C415.85 138.15 431.99 133.19 447.59 128.4C463.46 123.53 479.88 118.48 512.18 118.48V122.33C480.46 122.33 464.32 127.29 448.72 132.08C432.85 136.95 416.43 142 384.13 142Z" fill="url(#paint93_linear_614_1290)"/>
<path d="M384.13 132.94C351.85 132.94 335.44 127.9 319.57 123.02C303.96 118.23 287.82 113.27 256.08 113.27V109.66C288.36 109.66 304.76 114.7 320.63 119.58C336.24 124.37 352.38 129.33 384.13 129.33C415.88 129.33 432.01 124.37 447.62 119.58C463.49 114.71 479.89 109.66 512.17 109.66V113.27C480.43 113.27 464.29 118.23 448.68 123.02C432.81 127.89 416.41 132.94 384.13 132.94Z" fill="url(#paint94_linear_614_1290)"/>
<path d="M384.13 123.86C351.86 123.86 335.47 118.83 319.61 113.96C303.99 109.16 287.84 104.21 256.08 104.21V100.86C288.34 100.86 304.74 105.89 320.59 110.76C336.21 115.56 352.37 120.51 384.13 120.51C415.89 120.51 432.04 115.55 447.66 110.76C463.51 105.89 479.91 100.86 512.17 100.86V104.21C480.41 104.21 464.26 109.17 448.64 113.96C432.79 118.83 416.39 123.86 384.13 123.86Z" fill="url(#paint95_linear_614_1290)"/>
<path d="M384.13 114.8C351.89 114.8 335.49 109.77 319.65 104.9C304.02 100.1 287.86 95.1398 256.08 95.1398V92.0498C288.32 92.0498 304.71 97.0798 320.55 101.95C336.18 106.75 352.34 111.71 384.13 111.71C415.92 111.71 432.07 106.74 447.7 101.95C463.54 97.0798 479.93 92.0498 512.17 92.0498V95.1398C480.39 95.1398 464.23 100.11 448.6 104.9C432.76 109.77 416.37 114.8 384.13 114.8Z" fill="url(#paint96_linear_614_1290)"/>
<path d="M384.13 105.72C351.9 105.72 335.52 100.69 319.69 95.83C304.05 91.03 287.88 86.06 256.08 86.06V83.23C288.3 83.23 304.68 88.26 320.51 93.12C336.15 97.92 352.33 102.89 384.13 102.89C415.93 102.89 432.09 97.92 447.74 93.12C463.58 88.25 479.95 83.23 512.17 83.23V86.06C480.37 86.06 464.21 91.03 448.56 95.83C432.72 100.7 416.35 105.72 384.13 105.72Z" fill="url(#paint97_linear_614_1290)"/>
<path d="M384.13 96.6499C351.93 96.6499 335.56 91.6199 319.72 86.7699C304.08 81.9699 287.9 76.9999 256.08 76.9999V74.4199C288.28 74.4199 304.65 79.4499 320.47 84.2999C336.12 89.0999 352.3 94.0699 384.12 94.0699C415.94 94.0699 432.11 89.0999 447.77 84.2999C463.6 79.4399 479.96 74.4199 512.16 74.4199V76.9999C480.34 76.9999 464.17 81.9699 448.51 86.7699C432.68 91.6299 416.32 96.6499 384.12 96.6499H384.13Z" fill="url(#paint98_linear_614_1290)"/>
<path d="M384.13 87.5899C351.94 87.5899 335.58 82.5599 319.76 77.7099C304.11 72.9099 287.92 67.9299 256.08 67.9299V65.6099C288.26 65.6099 304.62 70.6399 320.44 75.4899C336.09 80.2899 352.29 85.2699 384.12 85.2699C415.95 85.2699 432.14 80.2999 447.8 75.4899C463.62 70.6299 479.98 65.6099 512.16 65.6099V67.9299C480.32 67.9299 464.14 72.8999 448.48 77.7099C432.66 82.5699 416.3 87.5899 384.12 87.5899H384.13Z" fill="url(#paint99_linear_614_1290)"/>
<path d="M384.13 78.5098C351.96 78.5098 335.61 73.4898 319.8 68.6298C304.14 63.8198 287.94 58.8398 256.09 58.8398V56.7798C288.26 56.7798 304.6 61.7998 320.42 66.6598C336.08 71.4698 352.28 76.4498 384.14 76.4498C416 76.4498 432.2 71.4798 447.85 66.6598C463.66 61.7998 480.01 56.7798 512.18 56.7798V58.8398C480.33 58.8398 464.12 63.8098 448.47 68.6298C432.66 73.4898 416.31 78.5098 384.14 78.5098H384.13Z" fill="url(#paint100_linear_614_1290)"/>
<path d="M384.13 69.44C351.98 69.44 335.64 64.42 319.83 59.57C304.16 54.76 287.95 49.78 256.08 49.78V47.98C288.22 47.98 304.56 53 320.37 57.85C336.04 62.66 352.25 67.64 384.13 67.64C416.01 67.64 432.21 62.66 447.88 57.85C463.68 53 480.02 47.98 512.17 47.98V49.78C480.29 49.78 464.09 54.76 448.42 59.57C432.62 64.42 416.28 69.44 384.13 69.44Z" fill="url(#paint101_linear_614_1290)"/>
<path d="M384.13 60.3702C352 60.3702 335.67 55.3502 319.87 50.5102C304.19 45.6902 287.97 40.7202 256.08 40.7202V39.1602C288.21 39.1602 304.53 44.1802 320.33 49.0202C336.01 53.8402 352.23 58.8102 384.13 58.8102C416.03 58.8102 432.24 53.8402 447.92 49.0202C463.72 44.1802 480.04 39.1602 512.17 39.1602V40.7202C480.28 40.7202 464.06 45.6902 448.38 50.5102C432.58 55.3502 416.26 60.3702 384.13 60.3702Z" fill="url(#paint102_linear_614_1290)"/>
<path d="M384.13 51.2998C352.02 51.2998 335.69 46.2898 319.91 41.4398C304.22 36.6198 288 31.6398 256.08 31.6398V30.3398C288.19 30.3398 304.51 35.3498 320.29 40.1998C335.98 45.0198 352.21 49.9998 384.13 49.9998C416.05 49.9998 432.27 45.0198 447.96 40.1998C463.74 35.3498 480.07 30.3398 512.17 30.3398V31.6398C480.26 31.6398 464.03 36.6198 448.34 41.4398C432.56 46.2898 416.23 51.2998 384.13 51.2998Z" fill="url(#paint103_linear_614_1290)"/>
<path d="M384.13 42.2298C352.04 42.2298 335.72 37.2198 319.95 32.3798C304.25 27.5598 288.01 22.5698 256.08 22.5698V21.5298C288.17 21.5298 304.48 26.5398 320.25 31.3798C335.96 36.1998 352.19 41.1898 384.13 41.1898C416.07 41.1898 432.3 36.1998 448 31.3798C463.77 26.5398 480.08 21.5298 512.17 21.5298V22.5698C480.24 22.5698 464 27.5598 448.3 32.3798C432.53 37.2198 416.22 42.2298 384.13 42.2298Z" fill="url(#paint104_linear_614_1290)"/>
<path d="M256.08 24.29C223.72 24.29 207.28 19.24 191.38 14.35C175.8 9.57 159.7 4.63 128.04 4.63C96.38 4.63 80.27 9.57 64.7 14.35C48.8 19.24 32.36 24.29 0 24.29V19.66C31.66 19.66 47.77 14.72 63.34 9.94C79.25 5.05 95.68 0 128.04 0C160.4 0 176.84 5.05 192.74 9.94C208.32 14.72 224.42 19.66 256.08 19.66V24.29Z" fill="url(#paint105_linear_614_1290)"/>
<path d="M256.08 33.1101C223.75 33.1101 207.31 28.0601 191.42 23.1801C175.84 18.4001 159.73 13.4501 128.04 13.4501C96.35 13.4501 80.24 18.4001 64.66 23.1801C48.78 28.0601 32.34 33.1101 0 33.1101V28.7401C31.69 28.7401 47.8 23.7901 63.38 19.0101C79.27 14.1301 95.71 9.08008 128.04 9.08008C160.37 9.08008 176.81 14.1301 192.7 19.0101C208.28 23.7901 224.39 28.7401 256.08 28.7401V33.1101Z" fill="url(#paint106_linear_614_1290)"/>
<path d="M256.08 41.9101C223.76 41.9101 207.34 36.8701 191.46 31.9901C175.87 27.2001 159.74 22.2501 128.04 22.2501C96.34 22.2501 80.21 27.2001 64.62 31.9901C48.74 36.8701 32.32 41.9101 0 41.9101V37.8001C31.7 37.8001 47.83 32.8501 63.42 28.0601C79.3 23.1901 95.72 18.1401 128.04 18.1401C160.36 18.1401 176.78 23.1801 192.66 28.0601C208.25 32.8501 224.38 37.8001 256.08 37.8001V41.9101Z" fill="url(#paint107_linear_614_1290)"/>
<path d="M256.08 50.73C223.78 50.73 207.37 45.69 191.49 40.81C175.89 36.02 159.76 31.06 128.03 31.06C96.3 31.06 80.17 36.02 64.57 40.81C48.71 45.69 32.3 50.73 0 50.73V46.88C31.72 46.88 47.86 41.92 63.46 37.13C79.33 32.26 95.75 27.21 128.05 27.21C160.35 27.21 176.76 32.25 192.64 37.13C208.24 41.92 224.37 46.88 256.1 46.88V50.73H256.08Z" fill="url(#paint108_linear_614_1290)"/>
<path d="M256.08 59.55C223.8 59.55 207.4 54.51 191.53 49.63C175.92 44.84 159.78 39.88 128.04 39.88C96.3 39.88 80.16 44.84 64.55 49.63C48.68 54.51 32.28 59.55 0 59.55V55.94C31.74 55.94 47.88 50.98 63.49 46.19C79.36 41.32 95.76 36.27 128.04 36.27C160.32 36.27 176.72 41.31 192.59 46.19C208.2 50.98 224.34 55.94 256.08 55.94V59.55Z" fill="url(#paint109_linear_614_1290)"/>
<path d="M256.08 68.3599C223.82 68.3599 207.42 63.3299 191.57 58.4599C175.95 53.6599 159.8 48.7099 128.04 48.7099C96.28 48.7099 80.13 53.6699 64.51 58.4599C48.66 63.3299 32.26 68.3599 0 68.3599V65.0099C31.76 65.0099 47.91 60.0499 63.53 55.2599C79.38 50.3899 95.78 45.3599 128.04 45.3599C160.3 45.3599 176.7 50.3899 192.55 55.2599C208.17 60.0599 224.32 65.0099 256.08 65.0099V68.3599Z" fill="url(#paint110_linear_614_1290)"/>
<path d="M256.08 77.1699C223.84 77.1699 207.45 72.1399 191.61 67.2699C175.98 62.4699 159.82 57.5099 128.04 57.5099C96.26 57.5099 80.1 62.4799 64.47 67.2699C48.63 72.1399 32.24 77.1699 0 77.1699V74.0799C31.78 74.0799 47.94 69.1099 63.57 64.3199C79.41 59.4499 95.8 54.4199 128.04 54.4199C160.28 54.4199 176.67 59.4499 192.51 64.3199C208.14 69.1199 224.3 74.0799 256.08 74.0799V77.1699Z" fill="url(#paint111_linear_614_1290)"/>
<path d="M256.08 85.99C223.86 85.99 207.48 80.96 191.65 76.1C176.01 71.3 159.84 66.33 128.04 66.33C96.24 66.33 80.08 71.3 64.43 76.1C48.6 80.96 32.22 85.99 0 85.99V83.16C31.8 83.16 47.96 78.19 63.61 73.39C79.45 68.52 95.82 63.5 128.04 63.5C160.26 63.5 176.64 68.53 192.47 73.39C208.11 78.19 224.28 83.16 256.08 83.16V85.99Z" fill="url(#paint112_linear_614_1290)"/>
<path d="M256.08 94.8098C223.88 94.8098 207.51 89.7798 191.68 84.9198C176.04 80.1198 159.86 75.1498 128.04 75.1498C96.22 75.1498 80.05 80.1198 64.4 84.9198C48.57 89.7898 32.21 94.8098 0 94.8098V92.2298C31.82 92.2298 47.99 87.2598 63.64 82.4598C79.48 77.5898 95.84 72.5698 128.04 72.5698C160.24 72.5698 176.61 77.5998 192.44 82.4598C208.08 87.2598 224.26 92.2298 256.08 92.2298V94.8098Z" fill="url(#paint113_linear_614_1290)"/>
<path d="M256.08 103.62C223.9 103.62 207.54 98.5901 191.72 93.7401C176.07 88.9301 159.88 83.9601 128.04 83.9601C96.2 83.9601 80.02 88.9301 64.36 93.7401C48.55 98.5901 32.18 103.62 0 103.62V101.3C31.84 101.3 48.02 96.3301 63.68 91.5201C79.5 86.6701 95.86 81.6401 128.04 81.6401C160.22 81.6401 176.58 86.6701 192.4 91.5201C208.05 96.3301 224.24 101.3 256.08 101.3V103.62Z" fill="url(#paint114_linear_614_1290)"/>
<path d="M256.08 112.43C223.91 112.43 207.57 107.41 191.75 102.55C176.09 97.7402 159.89 92.7602 128.04 92.7602C96.19 92.7602 79.98 97.7302 64.33 102.55C48.52 107.42 32.17 112.43 0 112.43V110.37C31.85 110.37 48.06 105.4 63.71 100.58C79.52 95.7202 95.87 90.7002 128.04 90.7002C160.21 90.7002 176.55 95.7202 192.37 100.58C208.03 105.39 224.23 110.37 256.08 110.37V112.43Z" fill="url(#paint115_linear_614_1290)"/>
<path d="M256.08 121.25C223.94 121.25 207.6 116.23 191.79 111.38C176.12 106.57 159.91 101.59 128.04 101.59C96.17 101.59 79.96 106.57 64.29 111.38C48.48 116.23 32.15 121.25 0 121.25V119.45C31.88 119.45 48.08 114.47 63.75 109.66C79.55 104.81 95.89 99.79 128.04 99.79C160.19 99.79 176.52 104.81 192.33 109.66C208 114.47 224.21 119.45 256.08 119.45V121.25Z" fill="url(#paint116_linear_614_1290)"/>
<path d="M256.08 130.07C223.95 130.07 207.63 125.05 191.83 120.2C176.15 115.39 159.93 110.41 128.04 110.41C96.15 110.41 79.93 115.39 64.25 120.2C48.45 125.05 32.13 130.07 0 130.07V128.51C31.89 128.51 48.11 123.53 63.79 118.72C79.59 113.87 95.91 108.85 128.04 108.85C160.17 108.85 176.49 113.87 192.29 118.72C207.97 123.53 224.19 128.51 256.08 128.51V130.07Z" fill="url(#paint117_linear_614_1290)"/>
<path d="M256.08 138.88C223.97 138.88 207.65 133.87 191.87 129.03C176.18 124.21 159.96 119.23 128.04 119.23C96.12 119.23 79.9 124.21 64.21 129.03C48.43 133.87 32.11 138.88 0 138.88V137.58C31.91 137.58 48.14 132.6 63.83 127.78C79.61 122.94 95.94 117.93 128.04 117.93C160.14 117.93 176.47 122.94 192.25 127.78C207.94 132.6 224.16 137.58 256.08 137.58V138.88Z" fill="url(#paint118_linear_614_1290)"/>
<path d="M256.08 147.7C223.99 147.7 207.68 142.69 191.91 137.85C176.21 133.03 159.97 128.04 128.04 128.04C96.11 128.04 79.87 133.03 64.17 137.85C48.4 142.68 32.09 147.7 0 147.7V146.66C31.93 146.66 48.17 141.67 63.87 136.85C79.64 132.01 95.95 127 128.04 127C160.13 127 176.44 132.01 192.21 136.85C207.91 141.67 224.15 146.66 256.08 146.66V147.7Z" fill="url(#paint119_linear_614_1290)"/>
</g>
<defs>
<linearGradient id="paint0_linear_614_1290" x1="896.3" y1="299.16" x2="896.3" y2="18.31" gradientUnits="userSpaceOnUse">
<stop stop-color="#AAD5ED"/>
<stop offset="1" stop-color="white"/>
</linearGradient>
<linearGradient id="paint1_linear_614_1290" x1="896.3" y1="299.16" x2="896.3" y2="18.31" gradientUnits="userSpaceOnUse">
<stop stop-color="#AAD5ED"/>
<stop offset="1" stop-color="white"/>
</linearGradient>
<linearGradient id="paint2_linear_614_1290" x1="896.3" y1="299.16" x2="896.3" y2="18.3102" gradientUnits="userSpaceOnUse">
<stop stop-color="#AAD5ED"/>
<stop offset="1" stop-color="white"/>
</linearGradient>
<linearGradient id="paint3_linear_614_1290" x1="896.3" y1="299.16" x2="896.3" y2="18.3102" gradientUnits="userSpaceOnUse">
<stop stop-color="#AAD5ED"/>
<stop offset="1" stop-color="white"/>
</linearGradient>
<linearGradient id="paint4_linear_614_1290" x1="896.3" y1="299.16" x2="896.3" y2="18.3101" gradientUnits="userSpaceOnUse">
<stop stop-color="#AAD5ED"/>
<stop offset="1" stop-color="white"/>
</linearGradient>
<linearGradient id="paint5_linear_614_1290" x1="896.3" y1="299.16" x2="896.3" y2="18.31" gradientUnits="userSpaceOnUse">
<stop stop-color="#AAD5ED"/>
<stop offset="1" stop-color="white"/>
</linearGradient>
<linearGradient id="paint6_linear_614_1290" x1="896.3" y1="299.16" x2="896.3" y2="18.3099" gradientUnits="userSpaceOnUse">
<stop stop-color="#AAD5ED"/>
<stop offset="1" stop-color="white"/>
</linearGradient>
<linearGradient id="paint7_linear_614_1290" x1="896.3" y1="299.16" x2="896.3" y2="18.3099" gradientUnits="userSpaceOnUse">
<stop stop-color="#AAD5ED"/>
<stop offset="1" stop-color="white"/>
</linearGradient>
<linearGradient id="paint8_linear_614_1290" x1="896.3" y1="299.16" x2="896.3" y2="18.31" gradientUnits="userSpaceOnUse">
<stop stop-color="#AAD5ED"/>
<stop offset="1" stop-color="white"/>
</linearGradient>
<linearGradient id="paint9_linear_614_1290" x1="896.3" y1="295.62" x2="896.3" y2="18.31" gradientUnits="userSpaceOnUse">
<stop stop-color="#AAD5ED"/>
<stop offset="1" stop-color="white"/>
</linearGradient>
<linearGradient id="paint10_linear_614_1290" x1="896.3" y1="299.16" x2="896.3" y2="18.3099" gradientUnits="userSpaceOnUse">
<stop stop-color="#AAD5ED"/>
<stop offset="1" stop-color="white"/>
</linearGradient>
<linearGradient id="paint11_linear_614_1290" x1="896.3" y1="299.16" x2="896.3" y2="18.3099" gradientUnits="userSpaceOnUse">
<stop stop-color="#AAD5ED"/>
<stop offset="1" stop-color="white"/>
</linearGradient>
<linearGradient id="paint12_linear_614_1290" x1="896.3" y1="299.16" x2="896.3" y2="18.3098" gradientUnits="userSpaceOnUse">
<stop stop-color="#AAD5ED"/>
<stop offset="1" stop-color="white"/>
</linearGradient>
<linearGradient id="paint13_linear_614_1290" x1="896.3" y1="299.16" x2="896.3" y2="18.3099" gradientUnits="userSpaceOnUse">
<stop stop-color="#AAD5ED"/>
<stop offset="1" stop-color="white"/>
</linearGradient>
<linearGradient id="paint14_linear_614_1290" x1="896.3" y1="299.16" x2="896.3" y2="18.3099" gradientUnits="userSpaceOnUse">
<stop stop-color="#AAD5ED"/>
<stop offset="1" stop-color="white"/>
</linearGradient>
<linearGradient id="paint15_linear_614_1290" x1="640.21" y1="299.16" x2="640.21" y2="18.3099" gradientUnits="userSpaceOnUse">
<stop stop-color="#AAD5ED"/>
<stop offset="1" stop-color="white"/>
</linearGradient>
<linearGradient id="paint16_linear_614_1290" x1="640.21" y1="299.16" x2="640.21" y2="18.3102" gradientUnits="userSpaceOnUse">
<stop stop-color="#AAD5ED"/>
<stop offset="1" stop-color="white"/>
</linearGradient>
<linearGradient id="paint17_linear_614_1290" x1="640.21" y1="299.16" x2="640.21" y2="18.31" gradientUnits="userSpaceOnUse">
<stop stop-color="#AAD5ED"/>
<stop offset="1" stop-color="white"/>
</linearGradient>
<linearGradient id="paint18_linear_614_1290" x1="640.21" y1="299.16" x2="640.21" y2="18.3099" gradientUnits="userSpaceOnUse">
<stop stop-color="#AAD5ED"/>
<stop offset="1" stop-color="white"/>
</linearGradient>
<linearGradient id="paint19_linear_614_1290" x1="640.21" y1="299.16" x2="640.21" y2="18.3102" gradientUnits="userSpaceOnUse">
<stop stop-color="#AAD5ED"/>
<stop offset="1" stop-color="white"/>
</linearGradient>
<linearGradient id="paint20_linear_614_1290" x1="640.21" y1="299.16" x2="640.21" y2="18.31" gradientUnits="userSpaceOnUse">
<stop stop-color="#AAD5ED"/>
<stop offset="1" stop-color="white"/>
</linearGradient>
<linearGradient id="paint21_linear_614_1290" x1="640.21" y1="299.16" x2="640.21" y2="18.3098" gradientUnits="userSpaceOnUse">
<stop stop-color="#AAD5ED"/>
<stop offset="1" stop-color="white"/>
</linearGradient>
<linearGradient id="paint22_linear_614_1290" x1="640.21" y1="299.16" x2="640.21" y2="18.3098" gradientUnits="userSpaceOnUse">
<stop stop-color="#AAD5ED"/>
<stop offset="1" stop-color="white"/>
</linearGradient>
<linearGradient id="paint23_linear_614_1290" x1="640.21" y1="299.16" x2="640.21" y2="18.31" gradientUnits="userSpaceOnUse">
<stop stop-color="#AAD5ED"/>
<stop offset="1" stop-color="white"/>
</linearGradient>
<linearGradient id="paint24_linear_614_1290" x1="640.21" y1="299.16" x2="640.21" y2="18.3099" gradientUnits="userSpaceOnUse">
<stop stop-color="#AAD5ED"/>
<stop offset="1" stop-color="white"/>
</linearGradient>
<linearGradient id="paint25_linear_614_1290" x1="640.21" y1="299.16" x2="640.21" y2="18.3098" gradientUnits="userSpaceOnUse">
<stop stop-color="#AAD5ED"/>
<stop offset="1" stop-color="white"/>
</linearGradient>
<linearGradient id="paint26_linear_614_1290" x1="640.21" y1="299.16" x2="640.21" y2="18.3101" gradientUnits="userSpaceOnUse">
<stop stop-color="#AAD5ED"/>
<stop offset="1" stop-color="white"/>
</linearGradient>
<linearGradient id="paint27_linear_614_1290" x1="640.21" y1="299.16" x2="640.21" y2="18.3104" gradientUnits="userSpaceOnUse">
<stop stop-color="#AAD5ED"/>
<stop offset="1" stop-color="white"/>
</linearGradient>
<linearGradient id="paint28_linear_614_1290" x1="640.21" y1="299.16" x2="640.21" y2="18.3099" gradientUnits="userSpaceOnUse">
<stop stop-color="#AAD5ED"/>
<stop offset="1" stop-color="white"/>
</linearGradient>
<linearGradient id="paint29_linear_614_1290" x1="640.21" y1="299.16" x2="640.21" y2="18.3099" gradientUnits="userSpaceOnUse">
<stop stop-color="#AAD5ED"/>
<stop offset="1" stop-color="white"/>
</linearGradient>
<linearGradient id="paint30_linear_614_1290" x1="384.13" y1="299.16" x2="384.13" y2="18.31" gradientUnits="userSpaceOnUse">
<stop stop-color="#AAD5ED"/>
<stop offset="1" stop-color="white"/>
</linearGradient>
<linearGradient id="paint31_linear_614_1290" x1="384.13" y1="299.16" x2="384.13" y2="18.31" gradientUnits="userSpaceOnUse">
<stop stop-color="#AAD5ED"/>
<stop offset="1" stop-color="white"/>
</linearGradient>
<linearGradient id="paint32_linear_614_1290" x1="384.13" y1="299.16" x2="384.13" y2="18.3102" gradientUnits="userSpaceOnUse">
<stop stop-color="#AAD5ED"/>
<stop offset="1" stop-color="white"/>
</linearGradient>
<linearGradient id="paint33_linear_614_1290" x1="384.13" y1="299.16" x2="384.13" y2="18.3102" gradientUnits="userSpaceOnUse">
<stop stop-color="#AAD5ED"/>
<stop offset="1" stop-color="white"/>
</linearGradient>
<linearGradient id="paint34_linear_614_1290" x1="384.13" y1="299.16" x2="384.13" y2="18.3101" gradientUnits="userSpaceOnUse">
<stop stop-color="#AAD5ED"/>
<stop offset="1" stop-color="white"/>
</linearGradient>
<linearGradient id="paint35_linear_614_1290" x1="384.13" y1="299.16" x2="384.13" y2="18.31" gradientUnits="userSpaceOnUse">
<stop stop-color="#AAD5ED"/>
<stop offset="1" stop-color="white"/>
</linearGradient>
<linearGradient id="paint36_linear_614_1290" x1="384.13" y1="299.16" x2="384.13" y2="18.3099" gradientUnits="userSpaceOnUse">
<stop stop-color="#AAD5ED"/>
<stop offset="1" stop-color="white"/>
</linearGradient>
<linearGradient id="paint37_linear_614_1290" x1="384.13" y1="299.16" x2="384.13" y2="18.3099" gradientUnits="userSpaceOnUse">
<stop stop-color="#AAD5ED"/>
<stop offset="1" stop-color="white"/>
</linearGradient>
<linearGradient id="paint38_linear_614_1290" x1="384.13" y1="299.16" x2="384.13" y2="18.31" gradientUnits="userSpaceOnUse">
<stop stop-color="#AAD5ED"/>
<stop offset="1" stop-color="white"/>
</linearGradient>
<linearGradient id="paint39_linear_614_1290" x1="384.13" y1="299.16" x2="384.13" y2="18.31" gradientUnits="userSpaceOnUse">
<stop stop-color="#AAD5ED"/>
<stop offset="1" stop-color="white"/>
</linearGradient>
<linearGradient id="paint40_linear_614_1290" x1="384.13" y1="299.16" x2="384.13" y2="18.3099" gradientUnits="userSpaceOnUse">
<stop stop-color="#AAD5ED"/>
<stop offset="1" stop-color="white"/>
</linearGradient>
<linearGradient id="paint41_linear_614_1290" x1="384.13" y1="299.16" x2="384.13" y2="18.3099" gradientUnits="userSpaceOnUse">
<stop stop-color="#AAD5ED"/>
<stop offset="1" stop-color="white"/>
</linearGradient>
<linearGradient id="paint42_linear_614_1290" x1="384.13" y1="299.16" x2="384.13" y2="18.3098" gradientUnits="userSpaceOnUse">
<stop stop-color="#AAD5ED"/>
<stop offset="1" stop-color="white"/>
</linearGradient>
<linearGradient id="paint43_linear_614_1290" x1="384.13" y1="299.16" x2="384.13" y2="18.3099" gradientUnits="userSpaceOnUse">
<stop stop-color="#AAD5ED"/>
<stop offset="1" stop-color="white"/>
</linearGradient>
<linearGradient id="paint44_linear_614_1290" x1="384.13" y1="299.16" x2="384.13" y2="18.3099" gradientUnits="userSpaceOnUse">
<stop stop-color="#AAD5ED"/>
<stop offset="1" stop-color="white"/>
</linearGradient>
<linearGradient id="paint45_linear_614_1290" x1="128.04" y1="299.16" x2="128.04" y2="18.3099" gradientUnits="userSpaceOnUse">
<stop stop-color="#AAD5ED"/>
<stop offset="1" stop-color="white"/>
</linearGradient>
<linearGradient id="paint46_linear_614_1290" x1="128.04" y1="299.16" x2="128.04" y2="18.3102" gradientUnits="userSpaceOnUse">
<stop stop-color="#AAD5ED"/>
<stop offset="1" stop-color="white"/>
</linearGradient>
<linearGradient id="paint47_linear_614_1290" x1="128.04" y1="299.16" x2="128.04" y2="18.31" gradientUnits="userSpaceOnUse">
<stop stop-color="#AAD5ED"/>
<stop offset="1" stop-color="white"/>
</linearGradient>
<linearGradient id="paint48_linear_614_1290" x1="128.04" y1="299.16" x2="128.04" y2="18.3099" gradientUnits="userSpaceOnUse">
<stop stop-color="#AAD5ED"/>
<stop offset="1" stop-color="white"/>
</linearGradient>
<linearGradient id="paint49_linear_614_1290" x1="128.04" y1="299.16" x2="128.04" y2="18.3102" gradientUnits="userSpaceOnUse">
<stop stop-color="#AAD5ED"/>
<stop offset="1" stop-color="white"/>
</linearGradient>
<linearGradient id="paint50_linear_614_1290" x1="128.04" y1="299.16" x2="128.04" y2="18.31" gradientUnits="userSpaceOnUse">
<stop stop-color="#AAD5ED"/>
<stop offset="1" stop-color="white"/>
</linearGradient>
<linearGradient id="paint51_linear_614_1290" x1="128.04" y1="299.16" x2="128.04" y2="18.3098" gradientUnits="userSpaceOnUse">
<stop stop-color="#AAD5ED"/>
<stop offset="1" stop-color="white"/>
</linearGradient>
<linearGradient id="paint52_linear_614_1290" x1="128.04" y1="299.16" x2="128.04" y2="18.3098" gradientUnits="userSpaceOnUse">
<stop stop-color="#AAD5ED"/>
<stop offset="1" stop-color="white"/>
</linearGradient>
<linearGradient id="paint53_linear_614_1290" x1="128.04" y1="299.16" x2="128.04" y2="18.31" gradientUnits="userSpaceOnUse">
<stop stop-color="#AAD5ED"/>
<stop offset="1" stop-color="white"/>
</linearGradient>
<linearGradient id="paint54_linear_614_1290" x1="128.04" y1="299.16" x2="128.04" y2="18.3099" gradientUnits="userSpaceOnUse">
<stop stop-color="#AAD5ED"/>
<stop offset="1" stop-color="white"/>
</linearGradient>
<linearGradient id="paint55_linear_614_1290" x1="128.04" y1="299.16" x2="128.04" y2="18.3098" gradientUnits="userSpaceOnUse">
<stop stop-color="#AAD5ED"/>
<stop offset="1" stop-color="white"/>
</linearGradient>
<linearGradient id="paint56_linear_614_1290" x1="128.04" y1="299.16" x2="128.04" y2="18.3101" gradientUnits="userSpaceOnUse">
<stop stop-color="#AAD5ED"/>
<stop offset="1" stop-color="white"/>
</linearGradient>
<linearGradient id="paint57_linear_614_1290" x1="128.04" y1="299.16" x2="128.04" y2="18.3104" gradientUnits="userSpaceOnUse">
<stop stop-color="#AAD5ED"/>
<stop offset="1" stop-color="white"/>
</linearGradient>
<linearGradient id="paint58_linear_614_1290" x1="128.04" y1="299.16" x2="128.04" y2="18.3099" gradientUnits="userSpaceOnUse">
<stop stop-color="#AAD5ED"/>
<stop offset="1" stop-color="white"/>
</linearGradient>
<linearGradient id="paint59_linear_614_1290" x1="128.04" y1="299.16" x2="128.04" y2="18.3099" gradientUnits="userSpaceOnUse">
<stop stop-color="#AAD5ED"/>
<stop offset="1" stop-color="white"/>
</linearGradient>
<linearGradient id="paint60_linear_614_1290" x1="896.3" y1="299.16" x2="896.3" y2="18.3101" gradientUnits="userSpaceOnUse">
<stop stop-color="#AAD5ED"/>
<stop offset="1" stop-color="white"/>
</linearGradient>
<linearGradient id="paint61_linear_614_1290" x1="896.3" y1="299.16" x2="896.3" y2="18.3099" gradientUnits="userSpaceOnUse">
<stop stop-color="#AAD5ED"/>
<stop offset="1" stop-color="white"/>
</linearGradient>
<linearGradient id="paint62_linear_614_1290" x1="896.3" y1="299.16" x2="896.3" y2="18.31" gradientUnits="userSpaceOnUse">
<stop stop-color="#AAD5ED"/>
<stop offset="1" stop-color="white"/>
</linearGradient>
<linearGradient id="paint63_linear_614_1290" x1="896.3" y1="295.62" x2="896.3" y2="18.31" gradientUnits="userSpaceOnUse">
<stop stop-color="#AAD5ED"/>
<stop offset="1" stop-color="white"/>
</linearGradient>
<linearGradient id="paint64_linear_614_1290" x1="896.3" y1="299.16" x2="896.3" y2="18.3102" gradientUnits="userSpaceOnUse">
<stop stop-color="#AAD5ED"/>
<stop offset="1" stop-color="white"/>
</linearGradient>
<linearGradient id="paint65_linear_614_1290" x1="896.3" y1="299.16" x2="896.3" y2="18.3099" gradientUnits="userSpaceOnUse">
<stop stop-color="#AAD5ED"/>
<stop offset="1" stop-color="white"/>
</linearGradient>
<linearGradient id="paint66_linear_614_1290" x1="896.3" y1="299.16" x2="896.3" y2="18.3098" gradientUnits="userSpaceOnUse">
<stop stop-color="#AAD5ED"/>
<stop offset="1" stop-color="white"/>
</linearGradient>
<linearGradient id="paint67_linear_614_1290" x1="896.3" y1="295.62" x2="896.3" y2="18.31" gradientUnits="userSpaceOnUse">
<stop stop-color="#AAD5ED"/>
<stop offset="1" stop-color="white"/>
</linearGradient>
<linearGradient id="paint68_linear_614_1290" x1="896.3" y1="299.16" x2="896.3" y2="18.3099" gradientUnits="userSpaceOnUse">
<stop stop-color="#AAD5ED"/>
<stop offset="1" stop-color="white"/>
</linearGradient>
<linearGradient id="paint69_linear_614_1290" x1="896.3" y1="299.16" x2="896.3" y2="18.3099" gradientUnits="userSpaceOnUse">
<stop stop-color="#AAD5ED"/>
<stop offset="1" stop-color="white"/>
</linearGradient>
<linearGradient id="paint70_linear_614_1290" x1="896.3" y1="299.16" x2="896.3" y2="18.3098" gradientUnits="userSpaceOnUse">
<stop stop-color="#AAD5ED"/>
<stop offset="1" stop-color="white"/>
</linearGradient>
<linearGradient id="paint71_linear_614_1290" x1="896.3" y1="299.16" x2="896.3" y2="18.31" gradientUnits="userSpaceOnUse">
<stop stop-color="#AAD5ED"/>
<stop offset="1" stop-color="white"/>
</linearGradient>
<linearGradient id="paint72_linear_614_1290" x1="896.3" y1="299.16" x2="896.3" y2="18.3102" gradientUnits="userSpaceOnUse">
<stop stop-color="#AAD5ED"/>
<stop offset="1" stop-color="white"/>
</linearGradient>
<linearGradient id="paint73_linear_614_1290" x1="896.3" y1="299.16" x2="896.3" y2="18.3098" gradientUnits="userSpaceOnUse">
<stop stop-color="#AAD5ED"/>
<stop offset="1" stop-color="white"/>
</linearGradient>
<linearGradient id="paint74_linear_614_1290" x1="896.3" y1="299.16" x2="896.3" y2="18.3098" gradientUnits="userSpaceOnUse">
<stop stop-color="#AAD5ED"/>
<stop offset="1" stop-color="white"/>
</linearGradient>
<linearGradient id="paint75_linear_614_1290" x1="640.21" y1="299.16" x2="640.21" y2="18.31" gradientUnits="userSpaceOnUse">
<stop stop-color="#AAD5ED"/>
<stop offset="1" stop-color="white"/>
</linearGradient>
<linearGradient id="paint76_linear_614_1290" x1="640.21" y1="299.16" x2="640.21" y2="18.3101" gradientUnits="userSpaceOnUse">
<stop stop-color="#AAD5ED"/>
<stop offset="1" stop-color="white"/>
</linearGradient>
<linearGradient id="paint77_linear_614_1290" x1="640.21" y1="299.16" x2="640.21" y2="18.3101" gradientUnits="userSpaceOnUse">
<stop stop-color="#AAD5ED"/>
<stop offset="1" stop-color="white"/>
</linearGradient>
<linearGradient id="paint78_linear_614_1290" x1="640.21" y1="299.16" x2="640.21" y2="18.31" gradientUnits="userSpaceOnUse">
<stop stop-color="#AAD5ED"/>
<stop offset="1" stop-color="white"/>
</linearGradient>
<linearGradient id="paint79_linear_614_1290" x1="640.21" y1="299.16" x2="640.21" y2="18.31" gradientUnits="userSpaceOnUse">
<stop stop-color="#AAD5ED"/>
<stop offset="1" stop-color="white"/>
</linearGradient>
<linearGradient id="paint80_linear_614_1290" x1="640.21" y1="299.16" x2="640.21" y2="18.3099" gradientUnits="userSpaceOnUse">
<stop stop-color="#AAD5ED"/>
<stop offset="1" stop-color="white"/>
</linearGradient>
<linearGradient id="paint81_linear_614_1290" x1="640.21" y1="299.16" x2="640.21" y2="18.3099" gradientUnits="userSpaceOnUse">
<stop stop-color="#AAD5ED"/>
<stop offset="1" stop-color="white"/>
</linearGradient>
<linearGradient id="paint82_linear_614_1290" x1="640.21" y1="299.16" x2="640.21" y2="18.31" gradientUnits="userSpaceOnUse">
<stop stop-color="#AAD5ED"/>
<stop offset="1" stop-color="white"/>
</linearGradient>
<linearGradient id="paint83_linear_614_1290" x1="640.21" y1="299.16" x2="640.21" y2="18.3098" gradientUnits="userSpaceOnUse">
<stop stop-color="#AAD5ED"/>
<stop offset="1" stop-color="white"/>
</linearGradient>
<linearGradient id="paint84_linear_614_1290" x1="640.21" y1="299.16" x2="640.21" y2="18.3101" gradientUnits="userSpaceOnUse">
<stop stop-color="#AAD5ED"/>
<stop offset="1" stop-color="white"/>
</linearGradient>
<linearGradient id="paint85_linear_614_1290" x1="640.21" y1="299.16" x2="640.21" y2="18.3102" gradientUnits="userSpaceOnUse">
<stop stop-color="#AAD5ED"/>
<stop offset="1" stop-color="white"/>
</linearGradient>
<linearGradient id="paint86_linear_614_1290" x1="640.21" y1="299.16" x2="640.21" y2="18.31" gradientUnits="userSpaceOnUse">
<stop stop-color="#AAD5ED"/>
<stop offset="1" stop-color="white"/>
</linearGradient>
<linearGradient id="paint87_linear_614_1290" x1="640.21" y1="299.16" x2="640.21" y2="18.3101" gradientUnits="userSpaceOnUse">
<stop stop-color="#AAD5ED"/>
<stop offset="1" stop-color="white"/>
</linearGradient>
<linearGradient id="paint88_linear_614_1290" x1="640.21" y1="299.16" x2="640.21" y2="18.3102" gradientUnits="userSpaceOnUse">
<stop stop-color="#AAD5ED"/>
<stop offset="1" stop-color="white"/>
</linearGradient>
<linearGradient id="paint89_linear_614_1290" x1="640.21" y1="299.16" x2="640.21" y2="18.31" gradientUnits="userSpaceOnUse">
<stop stop-color="#AAD5ED"/>
<stop offset="1" stop-color="white"/>
</linearGradient>
<linearGradient id="paint90_linear_614_1290" x1="384.13" y1="299.16" x2="384.13" y2="18.3101" gradientUnits="userSpaceOnUse">
<stop stop-color="#AAD5ED"/>
<stop offset="1" stop-color="white"/>
</linearGradient>
<linearGradient id="paint91_linear_614_1290" x1="384.13" y1="299.16" x2="384.13" y2="18.3099" gradientUnits="userSpaceOnUse">
<stop stop-color="#AAD5ED"/>
<stop offset="1" stop-color="white"/>
</linearGradient>
<linearGradient id="paint92_linear_614_1290" x1="384.13" y1="299.16" x2="384.13" y2="18.31" gradientUnits="userSpaceOnUse">
<stop stop-color="#AAD5ED"/>
<stop offset="1" stop-color="white"/>
</linearGradient>
<linearGradient id="paint93_linear_614_1290" x1="384.13" y1="299.16" x2="384.13" y2="18.31" gradientUnits="userSpaceOnUse">
<stop stop-color="#AAD5ED"/>
<stop offset="1" stop-color="white"/>
</linearGradient>
<linearGradient id="paint94_linear_614_1290" x1="384.13" y1="299.16" x2="384.13" y2="18.3102" gradientUnits="userSpaceOnUse">
<stop stop-color="#AAD5ED"/>
<stop offset="1" stop-color="white"/>
</linearGradient>
<linearGradient id="paint95_linear_614_1290" x1="384.13" y1="299.16" x2="384.13" y2="18.3099" gradientUnits="userSpaceOnUse">
<stop stop-color="#AAD5ED"/>
<stop offset="1" stop-color="white"/>
</linearGradient>
<linearGradient id="paint96_linear_614_1290" x1="384.13" y1="299.16" x2="384.13" y2="18.3098" gradientUnits="userSpaceOnUse">
<stop stop-color="#AAD5ED"/>
<stop offset="1" stop-color="white"/>
</linearGradient>
<linearGradient id="paint97_linear_614_1290" x1="384.13" y1="299.16" x2="384.13" y2="18.31" gradientUnits="userSpaceOnUse">
<stop stop-color="#AAD5ED"/>
<stop offset="1" stop-color="white"/>
</linearGradient>
<linearGradient id="paint98_linear_614_1290" x1="384.13" y1="299.16" x2="384.13" y2="18.3099" gradientUnits="userSpaceOnUse">
<stop stop-color="#AAD5ED"/>
<stop offset="1" stop-color="white"/>
</linearGradient>
<linearGradient id="paint99_linear_614_1290" x1="384.13" y1="299.16" x2="384.13" y2="18.3099" gradientUnits="userSpaceOnUse">
<stop stop-color="#AAD5ED"/>
<stop offset="1" stop-color="white"/>
</linearGradient>
<linearGradient id="paint100_linear_614_1290" x1="384.13" y1="299.16" x2="384.13" y2="18.3098" gradientUnits="userSpaceOnUse">
<stop stop-color="#AAD5ED"/>
<stop offset="1" stop-color="white"/>
</linearGradient>
<linearGradient id="paint101_linear_614_1290" x1="384.13" y1="299.16" x2="384.13" y2="18.31" gradientUnits="userSpaceOnUse">
<stop stop-color="#AAD5ED"/>
<stop offset="1" stop-color="white"/>
</linearGradient>
<linearGradient id="paint102_linear_614_1290" x1="384.13" y1="299.16" x2="384.13" y2="18.3102" gradientUnits="userSpaceOnUse">
<stop stop-color="#AAD5ED"/>
<stop offset="1" stop-color="white"/>
</linearGradient>
<linearGradient id="paint103_linear_614_1290" x1="384.13" y1="299.16" x2="384.13" y2="18.3098" gradientUnits="userSpaceOnUse">
<stop stop-color="#AAD5ED"/>
<stop offset="1" stop-color="white"/>
</linearGradient>
<linearGradient id="paint104_linear_614_1290" x1="384.13" y1="299.16" x2="384.13" y2="18.3098" gradientUnits="userSpaceOnUse">
<stop stop-color="#AAD5ED"/>
<stop offset="1" stop-color="white"/>
</linearGradient>
<linearGradient id="paint105_linear_614_1290" x1="128.04" y1="299.16" x2="128.04" y2="18.31" gradientUnits="userSpaceOnUse">
<stop stop-color="#AAD5ED"/>
<stop offset="1" stop-color="white"/>
</linearGradient>
<linearGradient id="paint106_linear_614_1290" x1="128.04" y1="299.16" x2="128.04" y2="18.3101" gradientUnits="userSpaceOnUse">
<stop stop-color="#AAD5ED"/>
<stop offset="1" stop-color="white"/>
</linearGradient>
<linearGradient id="paint107_linear_614_1290" x1="128.04" y1="299.16" x2="128.04" y2="18.3101" gradientUnits="userSpaceOnUse">
<stop stop-color="#AAD5ED"/>
<stop offset="1" stop-color="white"/>
</linearGradient>
<linearGradient id="paint108_linear_614_1290" x1="128.04" y1="299.16" x2="128.04" y2="18.31" gradientUnits="userSpaceOnUse">
<stop stop-color="#AAD5ED"/>
<stop offset="1" stop-color="white"/>
</linearGradient>
<linearGradient id="paint109_linear_614_1290" x1="128.04" y1="299.16" x2="128.04" y2="18.31" gradientUnits="userSpaceOnUse">
<stop stop-color="#AAD5ED"/>
<stop offset="1" stop-color="white"/>
</linearGradient>
<linearGradient id="paint110_linear_614_1290" x1="128.04" y1="299.16" x2="128.04" y2="18.3099" gradientUnits="userSpaceOnUse">
<stop stop-color="#AAD5ED"/>
<stop offset="1" stop-color="white"/>
</linearGradient>
<linearGradient id="paint111_linear_614_1290" x1="128.04" y1="299.16" x2="128.04" y2="18.3099" gradientUnits="userSpaceOnUse">
<stop stop-color="#AAD5ED"/>
<stop offset="1" stop-color="white"/>
</linearGradient>
<linearGradient id="paint112_linear_614_1290" x1="128.04" y1="299.16" x2="128.04" y2="18.31" gradientUnits="userSpaceOnUse">
<stop stop-color="#AAD5ED"/>
<stop offset="1" stop-color="white"/>
</linearGradient>
<linearGradient id="paint113_linear_614_1290" x1="128.04" y1="299.16" x2="128.04" y2="18.3098" gradientUnits="userSpaceOnUse">
<stop stop-color="#AAD5ED"/>
<stop offset="1" stop-color="white"/>
</linearGradient>
<linearGradient id="paint114_linear_614_1290" x1="128.04" y1="299.16" x2="128.04" y2="18.3101" gradientUnits="userSpaceOnUse">
<stop stop-color="#AAD5ED"/>
<stop offset="1" stop-color="white"/>
</linearGradient>
<linearGradient id="paint115_linear_614_1290" x1="128.04" y1="299.16" x2="128.04" y2="18.3102" gradientUnits="userSpaceOnUse">
<stop stop-color="#AAD5ED"/>
<stop offset="1" stop-color="white"/>
</linearGradient>
<linearGradient id="paint116_linear_614_1290" x1="128.04" y1="299.16" x2="128.04" y2="18.31" gradientUnits="userSpaceOnUse">
<stop stop-color="#AAD5ED"/>
<stop offset="1" stop-color="white"/>
</linearGradient>
<linearGradient id="paint117_linear_614_1290" x1="128.04" y1="299.16" x2="128.04" y2="18.3101" gradientUnits="userSpaceOnUse">
<stop stop-color="#AAD5ED"/>
<stop offset="1" stop-color="white"/>
</linearGradient>
<linearGradient id="paint118_linear_614_1290" x1="128.04" y1="299.16" x2="128.04" y2="18.3102" gradientUnits="userSpaceOnUse">
<stop stop-color="#AAD5ED"/>
<stop offset="1" stop-color="white"/>
</linearGradient>
<linearGradient id="paint119_linear_614_1290" x1="128.04" y1="299.16" x2="128.04" y2="18.31" gradientUnits="userSpaceOnUse">
<stop stop-color="#AAD5ED"/>
<stop offset="1" stop-color="white"/>
</linearGradient>
<clipPath id="clip0_614_1290">
<rect width="1024.34" height="295.62" fill="white"/>
</clipPath>
</defs>
</svg>
