<svg width="390" height="131" viewBox="0 0 390 131" fill="none" xmlns="http://www.w3.org/2000/svg">
<mask id="mask0_111_504" style="mask-type:luminance" maskUnits="userSpaceOnUse" x="0" y="-1" width="390" height="132">
<path d="M0 130.785L390 130.785V-0.000549316L0 -0.000549316V130.785Z" fill="white"/>
</mask>
<g mask="url(#mask0_111_504)">
<path d="M1.97614 84.5352C26.3096 84.5352 38.6793 80.6941 50.6341 76.9868C62.397 73.3331 74.5615 69.5633 98.4844 69.5633C122.407 69.5633 135.188 65.7222 147.142 62.0149C158.905 58.3611 171.07 54.5914 194.993 54.5914C218.916 54.5914 231.08 58.3656 242.843 62.0149C254.802 65.7266 267.172 69.5633 291.51 69.5633C315.848 69.5633 327.602 73.3375 339.364 76.9868C351.324 80.6986 363.693 84.5352 388.022 84.5352C412.351 84.5352 424.726 80.6941 436.68 76.9868C448.443 73.3331 460.608 69.5633 484.531 69.5633V66.8152C460.197 66.8152 447.827 70.6563 435.873 74.3636C424.11 78.0174 411.945 81.7871 388.022 81.7871C364.1 81.7871 351.935 78.0129 340.172 74.3636C328.213 70.6518 315.843 66.8152 291.505 66.8152C267.167 66.8152 255.413 63.041 243.651 59.3917C231.691 55.6799 219.322 51.8433 194.993 51.8433C170.664 51.8433 158.289 55.6844 146.335 59.3917C134.572 63.0454 122.407 66.8152 98.4844 66.8152C74.5615 66.8152 61.7812 70.6563 49.8264 74.3636C38.0635 78.0174 25.899 81.7871 1.97614 81.7871C-21.9468 81.7871 -34.1113 78.0129 -45.8741 74.3636C-57.8334 70.6518 -70.2031 66.8152 -94.541 66.8152V69.5633C-70.6181 69.5633 -58.4492 73.3375 -46.6863 76.9868C-34.7271 80.6986 -22.3573 84.5352 1.97168 84.5352H1.97614Z" fill="#AAD5ED"/>
<path d="M1.97614 76.3627C26.2783 76.3627 38.6303 72.535 50.5805 68.8277C62.3613 65.1695 74.5392 61.3908 98.4888 61.3908C122.439 61.3908 135.143 57.5631 147.093 53.8558C158.874 50.1975 171.052 46.4189 195.002 46.4189C218.951 46.4189 231.129 50.1975 242.91 53.8558C254.856 57.5586 267.208 61.3908 291.519 61.3908C315.83 61.3908 327.651 65.1695 339.431 68.8277C351.377 72.5305 363.729 76.3627 388.036 76.3627C412.343 76.3627 424.69 72.535 436.64 68.8277C448.421 65.1695 460.599 61.3908 484.549 61.3908V59.0442C460.246 59.0442 447.894 62.8719 435.944 66.5792C424.163 70.2374 411.986 74.0161 388.036 74.0161C364.086 74.0161 351.908 70.2374 340.128 66.5792C328.182 62.8764 315.83 59.0442 291.519 59.0442C267.208 59.0442 255.387 55.2655 243.606 51.6073C231.66 47.9045 219.308 44.0723 195.002 44.0723C170.695 44.0723 158.347 47.9 146.397 51.6073C134.616 55.2655 122.439 59.0442 98.4888 59.0442C74.5392 59.0442 61.8347 62.8719 49.8844 66.5792C38.1037 70.2374 25.9258 74.0161 1.97614 74.0161C-21.9735 74.0161 -34.1514 70.2374 -45.9321 66.5792C-57.878 62.8764 -70.2299 59.0442 -94.541 59.0442V61.3908C-70.5913 61.3908 -58.409 65.1695 -46.6283 68.8277C-34.6824 72.5305 -22.3305 76.3627 1.97614 76.3627Z" fill="#AAD5ED"/>
<path d="M1.97614 68.2028C26.2516 68.2028 38.5901 64.375 50.5225 60.6677C62.3166 57.0095 74.5079 53.2264 98.4888 53.2264C122.47 53.2264 135.107 49.3986 147.035 45.6913C158.829 42.0331 171.021 38.25 195.002 38.25C218.982 38.25 231.174 42.0331 242.968 45.6913C254.896 49.3942 267.239 53.2264 291.519 53.2264C315.799 53.2264 327.695 57.0095 339.489 60.6677C351.417 64.3706 363.76 68.2028 388.036 68.2028C412.311 68.2028 424.654 64.375 436.582 60.6677C448.376 57.0095 460.568 53.2264 484.549 53.2264V51.2679C460.273 51.2679 447.935 55.0956 436.002 58.8029C424.208 62.4611 412.017 66.2443 388.036 66.2443C364.055 66.2443 351.864 62.4611 340.07 58.8029C328.142 55.1001 315.799 51.2679 291.519 51.2679C267.239 51.2679 255.342 47.4848 243.548 43.8265C231.62 40.1237 219.277 36.2915 195.002 36.2915C170.726 36.2915 158.388 40.1192 146.455 43.8265C134.661 47.4848 122.47 51.2679 98.4888 51.2679C74.5079 51.2679 61.8749 55.0956 49.9424 58.8029C38.1483 62.4611 25.9571 66.2443 1.97614 66.2443C-22.0048 66.2443 -34.196 62.4611 -45.9902 58.8029C-57.9181 55.1001 -70.2611 51.2679 -94.541 51.2679V53.2264C-70.5556 53.2264 -58.3644 57.0095 -46.5703 60.6677C-34.6423 64.3706 -22.2993 68.2028 1.97614 68.2028Z" fill="#AAD5ED"/>
<path d="M1.97558 60.0342C26.2242 60.0342 38.5449 56.2109 50.464 52.5125C62.267 48.8543 74.4761 45.0667 98.4838 45.0667C122.491 45.0667 135.053 41.2434 146.972 37.545C158.775 33.8868 170.984 30.0992 194.992 30.0992C219 30.0992 231.209 33.8868 243.012 37.545C254.931 41.2434 267.252 45.0667 291.505 45.0667C315.758 45.0667 327.726 48.8543 339.533 52.5125C351.453 56.2109 363.773 60.0342 388.022 60.0342C412.271 60.0342 424.591 56.2109 436.51 52.5125C448.313 48.8543 460.522 45.0667 484.53 45.0667V43.4919C460.281 43.4919 447.961 47.3152 436.042 51.0135C424.239 54.6717 412.03 58.4638 388.022 58.4638C364.014 58.4638 351.805 54.6762 340.002 51.0135C328.083 47.3152 315.762 43.4919 291.509 43.4919C267.256 43.4919 255.288 39.7043 243.48 36.0461C231.561 32.3477 219.241 28.5244 194.992 28.5244C170.743 28.5244 158.423 32.3477 146.504 36.0461C134.701 39.7043 122.491 43.4919 98.4838 43.4919C74.4761 43.4919 61.9145 47.3152 49.9954 51.0135C38.1924 54.6717 25.9833 58.4638 1.97558 58.4638C-22.0321 58.4638 -34.2412 54.6762 -46.0443 51.0135C-57.9633 47.3152 -70.284 43.4919 -94.5371 43.4919V45.0667C-70.525 45.0667 -58.3158 48.8543 -46.5083 52.5125C-34.5893 56.2109 -22.2686 60.0342 1.98005 60.0342H1.97558Z" fill="#AAD5ED"/>
<path d="M1.97614 51.8699C26.1936 51.8699 38.5009 48.0466 50.4065 44.3527C62.2229 40.6811 74.4499 36.8935 98.4844 36.8935C122.519 36.8935 135.009 33.0703 146.915 29.3764C158.731 25.7048 170.958 21.9172 194.993 21.9172C219.027 21.9172 231.25 25.7048 243.07 29.3764C254.976 33.0703 267.288 36.8935 291.51 36.8935C315.732 36.8935 327.771 40.6811 339.592 44.3527C351.498 48.0466 363.805 51.8699 388.022 51.8699C412.24 51.8699 424.547 48.0466 436.453 44.3527C448.269 40.6811 460.496 36.8935 484.531 36.8935V35.7069C460.313 35.7069 448.006 39.5301 436.1 43.224C424.284 46.8956 412.057 50.6832 388.022 50.6832C363.988 50.6832 351.765 46.8956 339.945 43.224C328.039 39.5301 315.727 35.7069 291.505 35.7069C267.283 35.7069 255.244 31.9193 243.423 28.2477C231.517 24.5538 219.21 20.7305 194.993 20.7305C170.775 20.7305 158.468 24.5538 146.562 28.2477C134.746 31.9193 122.519 35.7069 98.4844 35.7069C74.4499 35.7069 61.9597 39.5301 50.054 43.224C38.2376 46.8956 26.0106 50.6832 1.97614 50.6832C-22.0583 50.6832 -34.2808 46.8956 -46.1017 43.224C-58.0074 39.5301 -70.3191 35.7069 -94.541 35.7069V36.8935C-70.4976 36.8935 -58.2796 40.6811 -46.4587 44.3527C-34.553 48.0466 -22.2457 51.8699 1.97168 51.8699H1.97614Z" fill="#AAD5ED"/>
<path d="M1.97614 43.7063C26.1668 43.7063 38.4607 39.8875 50.353 36.198C62.1872 32.5264 74.4231 28.7344 98.4888 28.7344C122.555 28.7344 134.973 24.9155 146.866 21.2261C158.7 17.5545 170.936 13.7624 195.002 13.7624C219.067 13.7624 231.303 17.5589 243.137 21.2261C255.034 24.92 267.328 28.7344 291.519 28.7344C315.709 28.7344 327.829 32.5309 339.659 36.198C351.556 39.8919 363.85 43.7063 388.036 43.7063C412.222 43.7063 424.52 39.8875 436.413 36.198C448.247 32.5264 460.483 28.7344 484.549 28.7344V27.9358C460.358 27.9358 448.064 31.7546 436.172 35.4441C424.337 39.1157 412.102 42.9077 388.036 42.9077C363.97 42.9077 351.734 39.1112 339.9 35.4441C328.003 31.7501 315.709 27.9358 291.519 27.9358C267.328 27.9358 255.208 24.1393 243.378 20.4721C231.482 16.7782 219.188 12.9639 195.002 12.9639C170.815 12.9639 158.517 16.7827 146.625 20.4721C134.79 24.1437 122.555 27.9358 98.4888 27.9358C74.4231 27.9358 62.0043 31.7546 50.112 35.4441C38.2777 39.1157 26.0418 42.9077 1.97614 42.9077C-22.0896 42.9077 -34.3254 39.1112 -46.1597 35.4441C-58.0565 31.7501 -70.3504 27.9358 -94.541 27.9358V28.7344C-70.4709 28.7344 -58.2305 32.5309 -46.4007 36.198C-34.5039 39.8919 -22.21 43.7063 1.97614 43.7063Z" fill="#AAD5ED"/>
</g>
</svg>
