<svg width="390" height="32" viewBox="0 0 390 32" fill="none" xmlns="http://www.w3.org/2000/svg">
<mask id="mask0_115_1018" style="mask-type:alpha" maskUnits="userSpaceOnUse" x="0" y="0" width="390" height="32">
<rect width="390" height="32" fill="#D9D9D9"/>
</mask>
<g mask="url(#mask0_115_1018)">
<path d="M389.755 31.4013C389.117 31.4057 388.475 31.4102 387.823 31.4102C363.768 31.4102 351.538 27.6144 339.709 23.9479C327.822 20.2636 315.534 16.4455 291.354 16.4455V14.8665C267.5 14.8665 255.367 11.102 243.636 7.46226C232.793 4.09911 221.624 0.628917 201.539 0H188.211C168.131 0.633378 156.953 4.09911 146.114 7.46226C134.383 11.102 122.255 14.8665 98.4055 14.8665V16.4455C74.2256 16.4455 61.9372 20.2636 50.0502 23.9479C38.2212 27.6188 25.9908 31.4102 1.93582 31.4102C1.28014 31.4102 0.637838 31.4102 0 31.4013V502.991C0.637838 502.996 1.28014 503 1.93582 503C26.3209 503 38.7119 499.155 50.6925 495.44C62.4234 491.8 74.5512 488.031 98.401 488.031V486.452C122.581 486.452 134.869 482.634 146.756 478.945C158.585 475.274 170.816 471.483 194.871 471.483C218.926 471.483 231.156 475.279 242.985 478.945C254.877 482.638 267.165 486.452 291.345 486.452V488.031C315.195 488.031 327.322 491.795 339.053 495.44C351.034 499.155 363.425 503 387.81 503C388.466 503 389.362 503 390 502.991V31.4013H389.755Z" fill="#5D97C4"/>
</g>
</svg>
