<svg width="310" height="157" viewBox="0 0 310 157" fill="none" xmlns="http://www.w3.org/2000/svg">
<mask id="mask0_116_2275" style="mask-type:alpha" maskUnits="userSpaceOnUse" x="0" y="0" width="310" height="157">
<rect opacity="0.82" x="0.980469" width="308.78" height="157" fill="#D9D9D9"/>
</mask>
<g mask="url(#mask0_116_2275)">
<mask id="mask1_116_2275" style="mask-type:luminance" maskUnits="userSpaceOnUse" x="-99" y="-41" width="1281" height="240">
<path d="M1181.21 -41H-98.1309V198.59H1181.21V-41Z" fill="white"/>
</mask>
<g mask="url(#mask1_116_2275)">
<path d="M309.78 87.28C290.34 87.28 280.46 85.04 270.91 82.88C261.49 80.75 251.75 78.55 232.6 78.55C213.45 78.55 203.7 80.75 194.29 82.88C184.74 85.04 174.86 87.28 155.42 87.28V84.77C174.58 84.77 184.32 82.57 193.73 80.44C203.28 78.28 213.16 76.04 232.6 76.04C252.04 76.04 261.92 78.28 271.47 80.44C280.89 82.57 290.63 84.77 309.78 84.77V87.28Z" fill="#2557A5"/>
<path d="M309.78 92.5997C290.35 92.5997 280.48 90.3697 270.93 88.2097C261.51 86.0797 251.76 83.8697 232.6 83.8697C213.44 83.8697 203.69 86.0697 194.27 88.2097C184.72 90.3697 174.84 92.5997 155.42 92.5997V90.2197C174.58 90.2197 184.33 88.0197 193.75 85.8797C203.3 83.7197 213.18 81.4897 232.6 81.4897C252.02 81.4897 261.9 83.7197 271.45 85.8797C280.87 88.0097 290.62 90.2197 309.78 90.2197V92.5997Z" fill="#2557A5"/>
<path d="M309.78 97.92C290.36 97.92 280.49 95.69 270.94 93.53C261.51 91.4 251.77 89.19 232.59 89.19C213.41 89.19 203.67 91.4 194.24 93.53C184.69 95.69 174.82 97.92 155.4 97.92V95.69C174.57 95.69 184.32 93.48 193.75 91.35C203.3 89.19 213.17 86.96 232.59 86.96C252.01 86.96 261.88 89.19 271.43 91.35C280.86 93.48 290.6 95.69 309.78 95.69V97.92Z" fill="#2557A5"/>
<path d="M309.78 103.24C290.37 103.24 280.5 101.01 270.96 98.8497C261.53 96.7197 251.78 94.5097 232.6 94.5097C213.42 94.5097 203.67 96.7197 194.24 98.8497C184.7 101.01 174.83 103.24 155.42 103.24V101.14C174.6 101.14 184.35 98.9297 193.78 96.7997C203.32 94.6397 213.19 92.4097 232.6 92.4097C252.01 92.4097 261.88 94.6397 271.42 96.7997C280.85 98.9297 290.6 101.14 309.78 101.14V103.24Z" fill="#2557A5"/>
<path d="M309.78 108.56C290.37 108.56 280.51 106.33 270.97 104.17C261.54 102.04 251.78 99.8296 232.59 99.8296C213.4 99.8296 203.65 102.04 194.21 104.17C184.67 106.33 174.81 108.56 155.4 108.56V106.6C174.59 106.6 184.34 104.39 193.78 102.26C203.32 100.1 213.18 97.8696 232.59 97.8696C252 97.8696 261.86 100.1 271.4 102.26C280.83 104.39 290.59 106.6 309.78 106.6V108.56Z" fill="#2557A5"/>
<path d="M309.78 113.89C290.38 113.89 280.52 111.66 270.99 109.5C261.55 107.36 251.79 105.16 232.6 105.16C213.41 105.16 203.65 107.37 194.21 109.5C184.67 111.66 174.81 113.89 155.42 113.89V112.07C174.61 112.07 184.37 109.86 193.81 107.73C203.35 105.57 213.21 103.34 232.6 103.34C251.99 103.34 261.86 105.57 271.39 107.73C280.83 109.87 290.59 112.07 309.78 112.07V113.89Z" fill="#2557A5"/>
<path d="M309.78 119.21C290.39 119.21 280.53 116.98 271 114.82C261.56 112.68 251.8 110.48 232.59 110.48C213.38 110.48 203.62 112.69 194.18 114.82C184.65 116.98 174.79 119.21 155.4 119.21V117.53C174.6 117.53 184.37 115.32 193.81 113.19C203.34 111.03 213.2 108.8 232.59 108.8C251.98 108.8 261.84 111.03 271.37 113.19C280.81 115.33 290.57 117.53 309.78 117.53V119.21Z" fill="#2557A5"/>
<path d="M309.78 124.53C290.4 124.53 280.55 122.3 271.02 120.15C261.57 118.01 251.81 115.8 232.6 115.8C213.39 115.8 203.62 118.01 194.18 120.15C184.65 122.31 174.8 124.53 155.42 124.53V122.99C174.63 122.99 184.4 120.78 193.84 118.64C203.37 116.48 213.22 114.26 232.6 114.26C251.98 114.26 261.83 116.49 271.36 118.64C280.81 120.78 290.57 122.99 309.78 122.99V124.53Z" fill="#2557A5"/>
<path d="M309.78 129.85C290.41 129.85 280.56 127.62 271.03 125.47C261.58 123.33 251.81 121.12 232.59 121.12C213.37 121.12 203.6 123.33 194.15 125.47C184.63 127.63 174.78 129.85 155.4 129.85V128.45C174.62 128.45 184.39 126.24 193.84 124.1C203.36 121.94 213.21 119.72 232.59 119.72C251.97 119.72 261.81 121.95 271.34 124.1C280.79 126.24 290.56 128.45 309.78 128.45V129.85Z" fill="#2557A5"/>
<path d="M309.78 135.17C290.41 135.17 280.57 132.94 271.05 130.79C261.6 128.65 251.82 126.44 232.6 126.44C213.38 126.44 203.6 128.65 194.15 130.79C184.63 132.94 174.79 135.17 155.42 135.17V133.91C174.65 133.91 184.42 131.7 193.87 129.56C203.39 127.41 213.23 125.18 232.6 125.18C251.97 125.18 261.81 127.41 271.33 129.56C280.78 131.7 290.56 133.91 309.78 133.91V135.17Z" fill="#2557A5"/>
<path d="M309.78 140.49C290.42 140.49 280.58 138.26 271.06 136.11C261.6 133.97 251.82 131.76 232.59 131.76C213.36 131.76 203.58 133.97 194.12 136.11C184.6 138.26 174.76 140.49 155.4 140.49V139.37C174.63 139.37 184.41 137.16 193.87 135.02C203.39 132.87 213.23 130.64 232.59 130.64C251.95 130.64 261.79 132.87 271.31 135.02C280.77 137.16 290.54 139.37 309.78 139.37V140.49Z" fill="#2557A5"/>
<path d="M309.78 145.81C290.43 145.81 280.59 143.59 271.08 141.43C261.62 139.29 251.84 137.08 232.6 137.08C213.36 137.08 203.58 139.29 194.12 141.43C184.61 143.58 174.77 145.81 155.42 145.81V144.83C174.66 144.83 184.44 142.62 193.9 140.48C203.41 138.33 213.25 136.1 232.6 136.1C251.95 136.1 261.79 138.32 271.3 140.48C280.76 142.62 290.54 144.83 309.78 144.83V145.81Z" fill="#2557A5"/>
<path d="M309.78 151.13C290.44 151.13 280.6 148.91 271.09 146.75C261.63 144.61 251.84 142.4 232.59 142.4C213.34 142.4 203.55 144.61 194.09 146.75C184.58 148.9 174.75 151.13 155.4 151.13V150.29C174.65 150.29 184.44 148.08 193.9 145.94C203.41 143.79 213.24 141.56 232.59 141.56C251.94 141.56 261.77 143.78 271.28 145.94C280.74 148.08 290.53 150.29 309.78 150.29V151.13Z" fill="#2557A5"/>
<path d="M309.78 156.45C290.44 156.45 280.62 154.23 271.11 152.08C261.64 149.94 251.85 147.72 232.6 147.72C213.35 147.72 203.55 149.93 194.09 152.08C184.58 154.23 174.76 156.45 155.42 156.45V155.74C174.68 155.74 184.47 153.53 193.93 151.38C203.44 149.23 213.26 147.01 232.6 147.01C251.94 147.01 261.76 149.23 271.27 151.38C280.74 153.52 290.53 155.74 309.78 155.74V156.45Z" fill="#2557A5"/>
<path d="M309.78 161.78C290.45 161.78 280.63 159.56 271.13 157.41C261.66 155.27 251.86 153.05 232.6 153.05C213.34 153.05 203.54 155.26 194.07 157.41C184.57 159.56 174.74 161.78 155.42 161.78V161.21C174.68 161.21 184.48 159 193.95 156.85C203.45 154.7 213.28 152.48 232.6 152.48C251.92 152.48 261.75 154.7 271.25 156.85C280.72 158.99 290.52 161.21 309.78 161.21V161.78Z" fill="#2557A5"/>
<path d="M1.31898 87.28C-18.121 87.28 -28.001 85.04 -37.551 82.88C-46.971 80.75 -56.711 78.55 -75.861 78.55C-95.011 78.55 -104.761 80.75 -114.171 82.88C-123.721 85.04 -133.601 87.28 -153.041 87.28V84.77C-133.881 84.77 -124.141 82.57 -114.731 80.44C-105.181 78.28 -95.301 76.04 -75.861 76.04C-56.421 76.04 -46.541 78.28 -36.991 80.44C-27.571 82.57 -17.831 84.77 1.31898 84.77V87.28Z" fill="#2557A5"/>
<path d="M1.31898 92.5997C-18.111 92.5997 -27.981 90.3697 -37.531 88.2097C-46.951 86.0797 -56.701 83.8697 -75.861 83.8697C-95.021 83.8697 -104.771 86.0697 -114.191 88.2097C-123.741 90.3697 -133.621 92.5997 -153.041 92.5997V90.2197C-133.881 90.2197 -124.131 88.0197 -114.711 85.8797C-105.161 83.7197 -95.281 81.4897 -75.861 81.4897C-56.441 81.4897 -46.561 83.7197 -37.011 85.8797C-27.591 88.0097 -17.841 90.2197 1.31898 90.2197V92.5997Z" fill="#2557A5"/>
<path d="M1.31946 97.92C-18.1005 97.92 -27.9705 95.69 -37.5205 93.53C-46.9505 91.4 -56.6905 89.19 -75.8705 89.19C-95.0505 89.19 -104.791 91.4 -114.221 93.53C-123.771 95.69 -133.641 97.92 -153.061 97.92V95.69C-133.891 95.69 -124.141 93.48 -114.711 91.35C-105.161 89.19 -95.2905 86.96 -75.8705 86.96C-56.4505 86.96 -46.5805 89.19 -37.0305 91.35C-27.6005 93.48 -17.8605 95.69 1.31946 95.69V97.92Z" fill="#2557A5"/>
<path d="M1.31898 103.24C-18.091 103.24 -27.961 101.01 -37.501 98.8497C-46.931 96.7197 -56.681 94.5097 -75.861 94.5097C-95.041 94.5097 -104.791 96.7197 -114.221 98.8497C-123.761 101.01 -133.631 103.24 -153.041 103.24V101.14C-133.861 101.14 -124.111 98.9297 -114.681 96.7997C-105.141 94.6397 -95.271 92.4097 -75.861 92.4097C-56.451 92.4097 -46.581 94.6397 -37.041 96.7997C-27.611 98.9297 -17.861 101.14 1.31898 101.14V103.24Z" fill="#2557A5"/>
<path d="M1.31946 108.56C-18.0905 108.56 -27.9505 106.33 -37.4905 104.17C-46.9205 102.04 -56.6805 99.8296 -75.8705 99.8296C-95.0605 99.8296 -104.811 102.04 -114.251 104.17C-123.791 106.33 -133.651 108.56 -153.061 108.56V106.6C-133.871 106.6 -124.121 104.39 -114.681 102.26C-105.141 100.1 -95.2805 97.8696 -75.8705 97.8696C-56.4605 97.8696 -46.6005 100.1 -37.0605 102.26C-27.6305 104.39 -17.8705 106.6 1.31946 106.6V108.56Z" fill="#2557A5"/>
<path d="M1.31898 113.89C-18.081 113.89 -27.941 111.66 -37.471 109.5C-46.911 107.36 -56.671 105.16 -75.861 105.16C-95.051 105.16 -104.811 107.37 -114.251 109.5C-123.791 111.66 -133.651 113.89 -153.041 113.89V112.07C-133.851 112.07 -124.091 109.86 -114.651 107.73C-105.111 105.57 -95.251 103.34 -75.861 103.34C-56.471 103.34 -46.601 105.57 -37.071 107.73C-27.631 109.87 -17.871 112.07 1.31898 112.07V113.89Z" fill="#2557A5"/>
<path d="M1.31946 119.21C-18.0705 119.21 -27.9305 116.98 -37.4605 114.82C-46.9005 112.68 -56.6605 110.48 -75.8705 110.48C-95.0805 110.48 -104.841 112.69 -114.281 114.82C-123.811 116.98 -133.671 119.21 -153.061 119.21V117.53C-133.861 117.53 -124.091 115.32 -114.651 113.19C-105.121 111.03 -95.2605 108.8 -75.8705 108.8C-56.4805 108.8 -46.6205 111.03 -37.0905 113.19C-27.6505 115.33 -17.8905 117.53 1.31946 117.53V119.21Z" fill="#2557A5"/>
<path d="M1.31898 124.53C-18.061 124.53 -27.911 122.3 -37.441 120.15C-46.891 118.01 -56.651 115.8 -75.861 115.8C-95.071 115.8 -104.841 118.01 -114.281 120.15C-123.811 122.31 -133.661 124.53 -153.041 124.53V122.99C-133.831 122.99 -124.061 120.78 -114.621 118.64C-105.091 116.48 -95.241 114.26 -75.861 114.26C-56.481 114.26 -46.631 116.49 -37.101 118.64C-27.651 120.78 -17.891 122.99 1.31898 122.99V124.53Z" fill="#2557A5"/>
<path d="M1.31946 129.85C-18.0505 129.85 -27.9005 127.62 -37.4305 125.47C-46.8805 123.33 -56.6505 121.12 -75.8705 121.12C-95.0905 121.12 -104.861 123.33 -114.311 125.47C-123.831 127.63 -133.681 129.85 -153.061 129.85V128.45C-133.841 128.45 -124.071 126.24 -114.621 124.1C-105.101 121.94 -95.2505 119.72 -75.8705 119.72C-56.4905 119.72 -46.6505 121.95 -37.1205 124.1C-27.6705 126.24 -17.9005 128.45 1.31946 128.45V129.85Z" fill="#2557A5"/>
<path d="M1.31898 135.17C-18.051 135.17 -27.891 132.94 -37.411 130.79C-46.861 128.65 -56.641 126.44 -75.861 126.44C-95.081 126.44 -104.861 128.65 -114.311 130.79C-123.831 132.94 -133.671 135.17 -153.041 135.17V133.91C-133.811 133.91 -124.041 131.7 -114.591 129.56C-105.071 127.41 -95.231 125.18 -75.861 125.18C-56.491 125.18 -46.651 127.41 -37.131 129.56C-27.681 131.7 -17.901 133.91 1.31898 133.91V135.17Z" fill="#2557A5"/>
<path d="M1.31946 140.49C-18.0405 140.49 -27.8805 138.26 -37.4005 136.11C-46.8605 133.97 -56.6405 131.76 -75.8705 131.76C-95.1005 131.76 -104.881 133.97 -114.341 136.11C-123.861 138.26 -133.701 140.49 -153.061 140.49V139.37C-133.831 139.37 -124.051 137.16 -114.591 135.02C-105.071 132.87 -95.2305 130.64 -75.8705 130.64C-56.5105 130.64 -46.6705 132.87 -37.1505 135.02C-27.6905 137.16 -17.9105 139.37 1.31946 139.37V140.49Z" fill="#2557A5"/>
<path d="M1.31898 145.81C-18.031 145.81 -27.871 143.59 -37.381 141.43C-46.841 139.29 -56.621 137.08 -75.861 137.08C-95.101 137.08 -104.881 139.29 -114.341 141.43C-123.851 143.58 -133.691 145.81 -153.041 145.81V144.83C-133.801 144.83 -124.021 142.62 -114.561 140.48C-105.051 138.33 -95.211 136.1 -75.861 136.1C-56.511 136.1 -46.671 138.32 -37.161 140.48C-27.701 142.62 -17.921 144.83 1.31898 144.83V145.81Z" fill="#2557A5"/>
<path d="M1.31946 151.13C-18.0205 151.13 -27.8605 148.91 -37.3705 146.75C-46.8305 144.61 -56.6205 142.4 -75.8705 142.4C-95.1205 142.4 -104.911 144.61 -114.371 146.75C-123.881 148.9 -133.711 151.13 -153.061 151.13V150.29C-133.811 150.29 -124.021 148.08 -114.561 145.94C-105.051 143.79 -95.2205 141.56 -75.8705 141.56C-56.5205 141.56 -46.6905 143.78 -37.1805 145.94C-27.7205 148.08 -17.9305 150.29 1.31946 150.29V151.13Z" fill="#2557A5"/>
<path d="M1.31898 156.45C-18.021 156.45 -27.841 154.23 -37.351 152.08C-46.821 149.94 -56.611 147.72 -75.861 147.72C-95.111 147.72 -104.911 149.93 -114.371 152.08C-123.881 154.23 -133.701 156.45 -153.041 156.45V155.74C-133.781 155.74 -123.991 153.53 -114.531 151.38C-105.021 149.23 -95.201 147.01 -75.861 147.01C-56.521 147.01 -46.701 149.23 -37.191 151.38C-27.721 153.52 -17.931 155.74 1.31898 155.74V156.45Z" fill="#2557A5"/>
<path d="M1.31898 161.78C-18.011 161.78 -27.831 159.56 -37.331 157.41C-46.801 155.27 -56.601 153.05 -75.861 153.05C-95.121 153.05 -104.921 155.26 -114.391 157.41C-123.891 159.56 -133.721 161.78 -153.041 161.78V161.21C-133.781 161.21 -123.981 159 -114.511 156.85C-105.011 154.7 -95.181 152.48 -75.861 152.48C-56.541 152.48 -46.711 154.7 -37.211 156.85C-27.741 158.99 -17.941 161.21 1.31898 161.21V161.78Z" fill="#2557A5"/>
<path d="M78.1585 92.8499C58.7185 92.8499 48.8385 90.6099 39.2885 88.4499C29.8685 86.3199 20.1285 84.1199 0.978516 84.1199V81.6099C20.4185 81.6099 30.2985 83.8499 39.8485 86.0099C49.2685 88.1399 59.0085 90.3399 78.1585 90.3399C97.3085 90.3399 107.059 88.1399 116.469 86.0099C126.019 83.8499 135.899 81.6099 155.339 81.6099V84.1199C136.179 84.1199 126.439 86.3199 117.029 88.4499C107.479 90.6099 97.5985 92.8499 78.1585 92.8499Z" fill="#2557A5"/>
<path d="M78.1585 87.3898C58.7285 87.3898 48.8585 85.1598 39.3085 82.9998C29.8885 80.8698 20.1385 78.6598 0.978516 78.6598V76.2798C20.4085 76.2798 30.2785 78.5098 39.8285 80.6698C49.2485 82.7998 58.9985 85.0098 78.1585 85.0098C97.3185 85.0098 107.069 82.8098 116.489 80.6698C126.039 78.5098 135.919 76.2798 155.339 76.2798V78.6598C136.179 78.6598 126.429 80.8598 117.009 82.9998C107.459 85.1598 97.5785 87.3898 78.1585 87.3898Z" fill="#2557A5"/>
<path d="M78.1588 81.9297C58.7388 81.9297 48.8688 79.6997 39.3188 77.5397C29.8888 75.4097 20.1488 73.1997 0.96875 73.1997V70.9697C20.3888 70.9697 30.2587 73.1997 39.8087 75.3597C49.2387 77.4897 58.9788 79.6997 78.1588 79.6997C97.3388 79.6997 107.079 77.4897 116.509 75.3597C126.059 73.1997 135.929 70.9697 155.349 70.9697V73.1997C136.179 73.1997 126.429 75.4097 116.999 77.5397C107.449 79.6997 97.5788 81.9297 78.1588 81.9297Z" fill="#2557A5"/>
<path d="M78.1585 76.4697C58.7485 76.4697 48.8785 74.2396 39.3385 72.0796C29.9085 69.9496 20.1585 67.7396 0.978516 67.7396V65.6396C20.3885 65.6396 30.2585 67.8696 39.7985 70.0296C49.2285 72.1596 58.9785 74.3696 78.1585 74.3696C97.3385 74.3696 107.089 72.1596 116.519 70.0296C126.059 67.8696 135.929 65.6396 155.339 65.6396V67.7396C136.159 67.7396 126.409 69.9496 116.979 72.0796C107.439 74.2396 97.5685 76.4697 78.1585 76.4697Z" fill="#2557A5"/>
<path d="M78.1588 71.0098C58.7488 71.0098 48.8888 68.7798 39.3488 66.6198C29.9188 64.4898 20.1588 62.2798 0.96875 62.2798V60.3198C20.3787 60.3198 30.2387 62.5498 39.7787 64.7098C49.2087 66.8398 58.9688 69.0498 78.1588 69.0498C97.3488 69.0498 107.099 66.8398 116.539 64.7098C126.079 62.5498 135.939 60.3198 155.349 60.3198V62.2798C136.159 62.2798 126.409 64.4898 116.969 66.6198C107.429 68.7798 97.5688 71.0098 78.1588 71.0098Z" fill="#2557A5"/>
<path d="M78.1585 65.55C58.7585 65.55 48.8985 63.32 39.3685 61.16C29.9285 59.02 20.1685 56.82 0.978516 56.82V55C20.3785 55 30.2385 57.23 39.7685 59.39C49.2085 61.53 58.9685 63.73 78.1585 63.73C97.3485 63.73 107.109 61.52 116.549 59.39C126.089 57.23 135.949 55 155.339 55V56.82C136.149 56.82 126.389 59.03 116.949 61.16C107.409 63.32 97.5485 65.55 78.1585 65.55Z" fill="#2557A5"/>
<path d="M78.1588 60.0897C58.7688 60.0897 48.9088 57.8597 39.3788 55.6997C29.9388 53.5597 20.1787 51.3597 0.96875 51.3597V49.6797C20.3587 49.6797 30.2187 51.9097 39.7487 54.0697C49.1887 56.2097 58.9488 58.4097 78.1588 58.4097C97.3688 58.4097 107.129 56.1997 116.569 54.0697C126.099 51.9097 135.959 49.6797 155.349 49.6797V51.3597C136.149 51.3597 126.379 53.5697 116.939 55.6997C107.409 57.8597 97.5488 60.0897 78.1588 60.0897Z" fill="#2557A5"/>
<path d="M78.1585 54.6299C58.7785 54.6299 48.9285 52.3999 39.3985 50.2499C29.9485 48.1099 20.1885 45.8999 0.978516 45.8999V44.3599C20.3585 44.3599 30.2085 46.5899 39.7385 48.7399C49.1885 50.8799 58.9485 53.0899 78.1585 53.0899C97.3685 53.0899 107.139 50.8799 116.579 48.7399C126.109 46.5799 135.959 44.3599 155.339 44.3599V45.8999C136.129 45.8999 126.359 48.1099 116.919 50.2499C107.389 52.4099 97.5385 54.6299 78.1585 54.6299Z" fill="#2557A5"/>
<path d="M78.1588 49.17C58.7888 49.17 48.9388 46.94 39.4088 44.79C29.9588 42.65 20.1887 40.44 0.96875 40.44V39.04C20.3388 39.04 30.1888 41.27 39.7188 43.42C49.1687 45.56 58.9388 47.77 78.1588 47.77C97.3788 47.77 107.149 45.56 116.599 43.42C126.119 41.27 135.969 39.04 155.349 39.04V40.44C136.129 40.44 126.359 42.65 116.909 44.79C107.389 46.94 97.5388 49.17 78.1588 49.17Z" fill="#2557A5"/>
<path d="M78.1585 43.7097C58.7885 43.7097 48.9485 41.4797 39.4285 39.3297C29.9785 37.1897 20.1985 34.9797 0.978516 34.9797V33.7197C20.3485 33.7197 30.1885 35.9497 39.7085 38.0997C49.1585 40.2397 58.9385 42.4497 78.1585 42.4497C97.3785 42.4497 107.159 40.2397 116.609 38.0997C126.129 35.9497 135.969 33.7197 155.339 33.7197V34.9797C136.109 34.9797 126.339 37.1897 116.889 39.3297C107.369 41.4797 97.5285 43.7097 78.1585 43.7097Z" fill="#2557A5"/>
<path d="M78.1588 38.2499C58.7988 38.2499 48.9588 36.0199 39.4388 33.8699C29.9788 31.7299 20.1987 29.5199 0.96875 29.5199V28.3999C20.3288 28.3999 30.1688 30.6299 39.6888 32.7799C49.1488 34.9199 58.9288 37.1299 78.1588 37.1299C97.3888 37.1299 107.169 34.9199 116.629 32.7799C126.149 30.6299 135.989 28.3999 155.349 28.3999V29.5199C136.119 29.5199 126.339 31.7299 116.879 33.8699C107.359 36.0199 97.5188 38.2499 78.1588 38.2499Z" fill="#2557A5"/>
<path d="M78.1585 32.7901C58.8085 32.7901 48.9685 30.5701 39.4585 28.4101C29.9985 26.2701 20.2185 24.0601 0.978516 24.0601V23.0801C20.3285 23.0801 30.1685 25.3001 39.6785 27.4601C49.1385 29.6001 58.9185 31.8101 78.1585 31.8101C97.3985 31.8101 107.179 29.6001 116.639 27.4601C126.149 25.3101 135.989 23.0801 155.339 23.0801V24.0601C136.099 24.0601 126.319 26.2701 116.859 28.4101C107.349 30.5601 97.5085 32.7901 78.1585 32.7901Z" fill="#2557A5"/>
<path d="M78.1588 27.3298C58.8188 27.3298 48.9788 25.1098 39.4688 22.9498C30.0087 20.8098 20.2188 18.5998 0.96875 18.5998V17.7598C20.3088 17.7598 30.1488 19.9798 39.6588 22.1398C49.1188 24.2798 58.9088 26.4898 78.1588 26.4898C97.4088 26.4898 107.199 24.2798 116.659 22.1398C126.169 19.9898 135.999 17.7598 155.349 17.7598V18.5998C136.099 18.5998 126.309 20.8098 116.849 22.9498C107.339 25.0998 97.5088 27.3298 78.1588 27.3298Z" fill="#2557A5"/>
<path d="M78.1585 21.8697C58.8185 21.8697 48.9985 19.6497 39.4885 17.4997C30.0185 15.3597 20.2285 13.1397 0.978516 13.1397V12.4297C20.3185 12.4297 30.1385 14.6497 39.6485 16.7997C49.1185 18.9397 58.9085 21.1597 78.1585 21.1597C97.4085 21.1597 107.209 18.9497 116.669 16.7997C126.179 14.6497 135.999 12.4297 155.339 12.4297V13.1397C136.079 13.1397 126.289 15.3497 116.829 17.4997C107.319 19.6497 97.4985 21.8697 78.1585 21.8697Z" fill="#2557A5"/>
<path d="M78.1585 16.4099C58.8285 16.4099 49.0085 14.1899 39.5085 12.0399C30.0385 9.89986 20.2385 7.67986 0.978516 7.67986V7.10986C20.3085 7.10986 30.1285 9.32986 39.6285 11.4799C49.0985 13.6199 58.8985 15.8399 78.1585 15.8399C97.4185 15.8399 107.219 13.6299 116.689 11.4799C126.189 9.32986 136.019 7.10986 155.339 7.10986V7.67986C136.079 7.67986 126.279 9.88986 116.809 12.0399C107.309 14.1899 97.4785 16.4099 78.1585 16.4099Z" fill="#2557A5"/>
</g>
</g>
</svg>
