<svg width="525" height="153" viewBox="0 0 525 153" fill="none" xmlns="http://www.w3.org/2000/svg">
<mask id="mask0_113_538" style="mask-type:luminance" maskUnits="userSpaceOnUse" x="0" y="0" width="525" height="153">
<path d="M525 0H0V153H525V0Z" fill="white"/>
</mask>
<g mask="url(#mask0_113_538)">
<path d="M376.23 116.96C409.38 116.96 426.23 111.73 442.52 106.67C458.55 101.69 475.12 96.5504 507.71 96.5504C540.3 96.5504 557.71 91.3204 574 86.2604C590.03 81.2804 606.6 76.1404 639.19 76.1404C671.78 76.1404 688.35 81.2804 704.38 86.2604C720.67 91.3204 737.52 96.5504 770.68 96.5504C803.84 96.5504 819.85 101.69 835.88 106.67C852.17 111.73 869.02 116.96 902.17 116.96C935.32 116.96 952.17 111.73 968.46 106.67C984.49 101.69 1001.06 96.5504 1033.65 96.5504V92.8104C1000.5 92.8104 983.65 98.0404 967.36 103.1C951.33 108.08 934.76 113.22 902.17 113.22C869.58 113.22 853.01 108.08 836.98 103.1C820.69 98.0404 803.84 92.8104 770.68 92.8104C737.52 92.8104 721.51 87.6704 705.48 82.6904C689.19 77.6304 672.34 72.4004 639.19 72.4004C606.04 72.4004 589.19 77.6304 572.9 82.6904C556.87 87.6704 540.3 92.8104 507.71 92.8104C475.12 92.8104 457.71 98.0404 441.42 103.1C425.39 108.08 408.82 113.22 376.23 113.22C343.64 113.22 327.07 108.08 311.04 103.1C294.75 98.0404 277.9 92.8104 244.74 92.8104V96.5504C277.33 96.5504 293.91 101.69 309.94 106.67C326.23 111.73 343.08 116.96 376.23 116.96Z" fill="#AAD5ED"/>
<path d="M376.23 105.82C409.34 105.82 426.17 100.6 442.44 95.5503C458.49 90.5603 475.081 85.4203 507.701 85.4203C540.32 85.4203 557.64 80.2003 573.91 75.1503C589.96 70.1603 606.55 65.0203 639.17 65.0203C671.79 65.0203 688.38 70.1703 704.44 75.1503C720.72 80.2003 737.54 85.4203 770.66 85.4203C803.78 85.4203 819.88 90.5703 835.93 95.5503C852.21 100.6 869.031 105.82 902.141 105.82C935.251 105.82 952.08 100.6 968.35 95.5503C984.4 90.5603 1000.99 85.4203 1033.61 85.4203V82.2203C1000.5 82.2203 983.671 87.4403 967.401 92.4903C951.351 97.4803 934.76 102.62 902.13 102.62C869.5 102.62 852.92 97.4703 836.87 92.4903C820.59 87.4403 803.771 82.2203 770.651 82.2203C737.531 82.2203 721.43 77.0703 705.38 72.0903C689.1 67.0403 672.28 61.8203 639.17 61.8203C606.06 61.8203 589.231 67.0403 572.961 72.0903C556.911 77.0803 540.32 82.2203 507.69 82.2203C475.06 82.2203 457.75 87.4403 441.48 92.4903C425.43 97.4803 408.84 102.62 376.22 102.62C343.6 102.62 327.01 97.4703 310.95 92.4903C294.67 87.4403 277.85 82.2203 244.73 82.2203V85.4203C277.36 85.4203 293.95 90.5703 310 95.5503C326.28 100.6 343.1 105.82 376.21 105.82H376.23Z" fill="#AAD5ED"/>
<path d="M376.23 94.7C409.3 94.7 426.11 89.48 442.36 84.43C458.43 79.44 475.04 74.29 507.7 74.29C540.36 74.29 557.58 69.07 573.83 64.02C589.9 59.03 606.51 53.88 639.17 53.88C671.83 53.88 688.45 59.04 704.51 64.02C720.76 69.07 737.57 74.29 770.65 74.29C803.73 74.29 819.93 79.45 836 84.43C852.25 89.48 869.06 94.7 902.13 94.7C935.2 94.7 952.01 89.48 968.26 84.43C984.33 79.44 1000.94 74.29 1033.6 74.29V71.62C1000.53 71.62 983.72 76.84 967.47 81.89C951.4 86.88 934.79 92.03 902.13 92.03C869.47 92.03 852.85 86.87 836.79 81.89C820.54 76.84 803.73 71.62 770.65 71.62C737.57 71.62 721.37 66.46 705.3 61.48C689.05 56.43 672.24 51.21 639.16 51.21C606.08 51.21 589.28 56.43 573.03 61.48C556.96 66.47 540.35 71.62 507.69 71.62C475.03 71.62 457.81 76.84 441.56 81.89C425.49 86.88 408.88 92.03 376.22 92.03C343.56 92.03 326.94 86.87 310.88 81.89C294.63 76.84 277.82 71.62 244.74 71.62V74.29C277.42 74.29 294.02 79.45 310.09 84.43C326.34 89.48 343.15 94.7 376.23 94.7Z" fill="#AAD5ED"/>
<path d="M376.23 83.5704C409.26 83.5704 426.05 78.3604 442.29 73.3204C458.37 68.3304 475 63.1704 507.71 63.1704C540.42 63.1704 557.53 57.9604 573.77 52.9204C589.85 47.9304 606.48 42.7704 639.19 42.7704C671.9 42.7704 688.53 47.9304 704.61 52.9204C720.85 57.9604 737.63 63.1704 770.67 63.1704C803.71 63.1704 820.02 68.3304 836.1 73.3204C852.34 78.3604 869.12 83.5704 902.16 83.5704C935.2 83.5704 951.98 78.3604 968.22 73.3204C984.3 68.3304 1000.93 63.1704 1033.64 63.1704V61.0304C1000.61 61.0304 983.82 66.2404 967.58 71.2804C951.5 76.2704 934.87 81.4304 902.16 81.4304C869.45 81.4304 852.82 76.2704 836.74 71.2804C820.5 66.2404 803.72 61.0304 770.68 61.0304C737.64 61.0304 721.33 55.8704 705.25 50.8804C689.01 45.8404 672.23 40.6304 639.19 40.6304C606.15 40.6304 589.37 45.8404 573.13 50.8804C557.05 55.8704 540.42 61.0304 507.71 61.0304C475 61.0304 457.89 66.2404 441.65 71.2804C425.57 76.2704 408.94 81.4304 376.23 81.4304C343.52 81.4304 326.89 76.2704 310.81 71.2804C294.57 66.2404 277.79 61.0304 244.75 61.0304V63.1704C277.46 63.1704 294.1 68.3304 310.18 73.3204C326.42 78.3604 343.2 83.5704 376.24 83.5704H376.23Z" fill="#AAD5ED"/>
<path d="M376.23 72.4503C409.22 72.4503 425.99 67.2403 442.21 62.2103C458.31 57.2103 474.96 52.0503 507.71 52.0503C540.46 52.0503 557.47 46.8403 573.69 41.8103C589.79 36.8103 606.44 31.6503 639.19 31.6503C671.94 31.6503 688.58 36.8103 704.69 41.8103C720.91 46.8403 737.68 52.0503 770.68 52.0503C803.68 52.0503 820.08 57.2103 836.19 62.2103C852.41 67.2403 869.18 72.4503 902.17 72.4503C935.16 72.4503 951.93 67.2403 968.15 62.2103C984.25 57.2103 1000.9 52.0503 1033.65 52.0503V50.4303C1000.66 50.4303 983.89 55.6403 967.67 60.6703C951.57 65.6703 934.92 70.8303 902.17 70.8303C869.42 70.8303 852.78 65.6703 836.67 60.6703C820.45 55.6403 803.68 50.4303 770.68 50.4303C737.68 50.4303 721.28 45.2703 705.17 40.2703C688.95 35.2403 672.18 30.0303 639.19 30.0303C606.2 30.0303 589.43 35.2403 573.21 40.2703C557.11 45.2703 540.46 50.4303 507.71 50.4303C474.96 50.4303 457.95 55.6403 441.73 60.6703C425.63 65.6703 408.98 70.8303 376.23 70.8303C343.48 70.8303 326.84 65.6703 310.73 60.6703C294.51 55.6403 277.74 50.4303 244.74 50.4303V52.0503C277.49 52.0503 294.14 57.2103 310.25 62.2103C326.47 67.2403 343.24 72.4503 376.23 72.4503Z" fill="#AAD5ED"/>
<path d="M376.23 61.3202C409.18 61.3202 425.93 56.1202 442.13 51.0902C458.25 46.0902 474.92 40.9202 507.71 40.9202C540.5 40.9202 557.41 35.7202 573.61 30.6902C589.73 25.6902 606.4 20.5202 639.19 20.5202C671.98 20.5202 688.65 25.6902 704.77 30.6902C720.98 35.7202 737.72 40.9202 770.68 40.9202C803.64 40.9202 820.14 46.0902 836.26 51.0902C852.47 56.1202 869.21 61.3202 902.16 61.3202C935.11 61.3202 951.86 56.1202 968.06 51.0902C984.18 46.0902 1000.85 40.9202 1033.64 40.9202V39.8302C1000.69 39.8302 983.94 45.0302 967.74 50.0602C951.62 55.0602 934.95 60.2302 902.16 60.2302C869.37 60.2302 852.7 55.0602 836.58 50.0602C820.37 45.0302 803.63 39.8302 770.67 39.8302C737.71 39.8302 721.21 34.6602 705.09 29.6602C688.88 24.6302 672.14 19.4302 639.19 19.4302C606.24 19.4302 589.49 24.6302 573.29 29.6602C557.17 34.6602 540.5 39.8302 507.71 39.8302C474.92 39.8302 458.01 45.0302 441.81 50.0602C425.69 55.0602 409.02 60.2302 376.23 60.2302C343.44 60.2302 326.77 55.0602 310.65 50.0602C294.44 45.0302 277.7 39.8302 244.74 39.8302V40.9202C277.53 40.9202 294.2 46.0902 310.32 51.0902C326.53 56.1202 343.27 61.3202 376.22 61.3202H376.23Z" fill="#AAD5ED"/>
<path d="M-148.59 116.96C-115.44 116.96 -98.5901 111.73 -82.3001 106.67C-66.2701 101.69 -49.7001 96.5504 -17.1101 96.5504C15.4799 96.5504 32.8899 91.3204 49.1799 86.2604C65.2099 81.2804 81.7799 76.1404 114.37 76.1404C146.96 76.1404 163.53 81.2804 179.56 86.2604C195.85 91.3204 212.7 96.5504 245.86 96.5504C279.02 96.5504 295.03 101.69 311.06 106.67C327.35 111.73 344.2 116.96 377.35 116.96C410.5 116.96 427.35 111.73 443.64 106.67C459.67 101.69 476.24 96.5504 508.83 96.5504V92.8104C475.68 92.8104 458.83 98.0404 442.54 103.1C426.51 108.08 409.94 113.22 377.35 113.22C344.76 113.22 328.19 108.08 312.16 103.1C295.87 98.0404 279.02 92.8104 245.86 92.8104C212.7 92.8104 196.69 87.6704 180.66 82.6904C164.37 77.6304 147.52 72.4004 114.37 72.4004C81.2199 72.4004 64.3699 77.6304 48.0799 82.6904C32.0499 87.6704 15.4799 92.8104 -17.1101 92.8104C-49.7001 92.8104 -67.1101 98.0404 -83.4001 103.1C-99.4301 108.08 -116 113.22 -148.59 113.22C-181.18 113.22 -197.75 108.08 -213.78 103.1C-230.07 98.0404 -246.92 92.8104 -280.08 92.8104V96.5504C-247.49 96.5504 -230.91 101.69 -214.88 106.67C-198.59 111.73 -181.74 116.96 -148.59 116.96Z" fill="#AAD5ED"/>
<path d="M-148.59 105.82C-115.48 105.82 -98.6499 100.6 -82.3799 95.5503C-66.3299 90.5603 -49.7398 85.4203 -17.1198 85.4203C15.5002 85.4203 32.8201 80.2003 49.0901 75.1503C65.1401 70.1603 81.7302 65.0203 114.35 65.0203C146.97 65.0203 163.56 70.1703 179.62 75.1503C195.9 80.2003 212.72 85.4203 245.84 85.4203C278.96 85.4203 295.06 90.5703 311.11 95.5503C327.39 100.6 344.21 105.82 377.32 105.82C410.43 105.82 427.26 100.6 443.53 95.5503C459.58 90.5603 476.17 85.4203 508.79 85.4203V82.2203C475.68 82.2203 458.85 87.4403 442.58 92.4903C426.53 97.4803 409.94 102.62 377.31 102.62C344.68 102.62 328.1 97.4703 312.05 92.4903C295.77 87.4403 278.95 82.2203 245.83 82.2203C212.71 82.2203 196.61 77.0703 180.56 72.0903C164.28 67.0403 147.46 61.8203 114.35 61.8203C81.2402 61.8203 64.4101 67.0403 48.1401 72.0903C32.0901 77.0803 15.5001 82.2203 -17.1299 82.2203C-49.7599 82.2203 -67.0698 87.4403 -83.3398 92.4903C-99.3898 97.4803 -115.98 102.62 -148.6 102.62C-181.22 102.62 -197.81 97.4703 -213.87 92.4903C-230.15 87.4403 -246.97 82.2203 -280.09 82.2203V85.4203C-247.46 85.4203 -230.87 90.5703 -214.82 95.5503C-198.54 100.6 -181.72 105.82 -148.61 105.82H-148.59Z" fill="#AAD5ED"/>
<path d="M-148.59 94.7C-115.52 94.7 -98.7101 89.48 -82.4601 84.43C-66.3901 79.44 -49.7801 74.29 -17.1201 74.29C15.5399 74.29 32.7599 69.07 49.0099 64.02C65.0799 59.03 81.6899 53.88 114.35 53.88C147.01 53.88 163.63 59.04 179.69 64.02C195.94 69.07 212.75 74.29 245.83 74.29C278.91 74.29 295.11 79.45 311.18 84.43C327.43 89.48 344.24 94.7 377.31 94.7C410.38 94.7 427.19 89.48 443.44 84.43C459.51 79.44 476.12 74.29 508.78 74.29V71.62C475.71 71.62 458.9 76.84 442.65 81.89C426.58 86.88 409.97 92.03 377.31 92.03C344.65 92.03 328.03 86.87 311.97 81.89C295.72 76.84 278.91 71.62 245.83 71.62C212.75 71.62 196.55 66.46 180.48 61.48C164.23 56.43 147.42 51.21 114.34 51.21C81.2599 51.21 64.4599 56.43 48.2099 61.48C32.1399 66.47 15.5299 71.62 -17.1301 71.62C-49.7901 71.62 -67.0101 76.84 -83.2601 81.89C-99.3301 86.88 -115.94 92.03 -148.6 92.03C-181.26 92.03 -197.88 86.87 -213.94 81.89C-230.19 76.84 -247 71.62 -280.08 71.62V74.29C-247.4 74.29 -230.8 79.45 -214.73 84.43C-198.48 89.48 -181.67 94.7 -148.59 94.7Z" fill="#AAD5ED"/>
<path d="M-148.59 83.5704C-115.56 83.5704 -98.7703 78.3604 -82.5303 73.3204C-66.4503 68.3304 -49.8203 63.1704 -17.1103 63.1704C15.5997 63.1704 32.7097 57.9604 48.9497 52.9204C65.0297 47.9304 81.6597 42.7704 114.37 42.7704C147.08 42.7704 163.71 47.9304 179.79 52.9204C196.03 57.9604 212.81 63.1704 245.85 63.1704C278.89 63.1704 295.2 68.3304 311.28 73.3204C327.52 78.3604 344.3 83.5704 377.34 83.5704C410.38 83.5704 427.16 78.3604 443.4 73.3204C459.48 68.3304 476.11 63.1704 508.82 63.1704V61.0304C475.79 61.0304 459 66.2404 442.76 71.2804C426.68 76.2704 410.05 81.4304 377.34 81.4304C344.63 81.4304 328 76.2704 311.92 71.2804C295.68 66.2404 278.9 61.0304 245.86 61.0304C212.82 61.0304 196.51 55.8704 180.43 50.8804C164.19 45.8404 147.41 40.6304 114.37 40.6304C81.3297 40.6304 64.5497 45.8404 48.3097 50.8804C32.2297 55.8704 15.5997 61.0304 -17.1103 61.0304C-49.8203 61.0304 -66.9303 66.2404 -83.1703 71.2804C-99.2503 76.2704 -115.88 81.4304 -148.59 81.4304C-181.3 81.4304 -197.93 76.2704 -214.01 71.2804C-230.25 66.2404 -247.03 61.0304 -280.07 61.0304V63.1704C-247.36 63.1704 -230.72 68.3304 -214.64 73.3204C-198.4 78.3604 -181.62 83.5704 -148.58 83.5704H-148.59Z" fill="#AAD5ED"/>
<path d="M-148.59 72.4503C-115.6 72.4503 -98.8301 67.2403 -82.6101 62.2103C-66.5101 57.2103 -49.8601 52.0503 -17.1101 52.0503C15.6399 52.0503 32.6499 46.8403 48.8699 41.8103C64.9699 36.8103 81.6199 31.6503 114.37 31.6503C147.12 31.6503 163.76 36.8103 179.87 41.8103C196.09 46.8403 212.86 52.0503 245.86 52.0503C278.86 52.0503 295.26 57.2103 311.37 62.2103C327.59 67.2403 344.36 72.4503 377.35 72.4503C410.34 72.4503 427.11 67.2403 443.33 62.2103C459.43 57.2103 476.08 52.0503 508.83 52.0503V50.4303C475.84 50.4303 459.07 55.6403 442.85 60.6703C426.75 65.6703 410.1 70.8303 377.35 70.8303C344.6 70.8303 327.96 65.6703 311.85 60.6703C295.63 55.6403 278.86 50.4303 245.86 50.4303C212.86 50.4303 196.46 45.2703 180.35 40.2703C164.13 35.2403 147.36 30.0303 114.37 30.0303C81.3799 30.0303 64.6099 35.2403 48.3899 40.2703C32.2899 45.2703 15.6399 50.4303 -17.1101 50.4303C-49.8601 50.4303 -66.8701 55.6403 -83.0901 60.6703C-99.1901 65.6703 -115.84 70.8303 -148.59 70.8303C-181.34 70.8303 -197.98 65.6703 -214.09 60.6703C-230.31 55.6403 -247.08 50.4303 -280.08 50.4303V52.0503C-247.33 52.0503 -230.68 57.2103 -214.57 62.2103C-198.35 67.2403 -181.58 72.4503 -148.59 72.4503Z" fill="#AAD5ED"/>
<path d="M-148.59 61.3202C-115.64 61.3202 -98.8901 56.1202 -82.6901 51.0902C-66.5701 46.0902 -49.9001 40.9202 -17.1101 40.9202C15.6799 40.9202 32.5899 35.7202 48.7899 30.6902C64.9099 25.6902 81.5799 20.5202 114.37 20.5202C147.16 20.5202 163.83 25.6902 179.95 30.6902C196.16 35.7202 212.9 40.9202 245.86 40.9202C278.82 40.9202 295.32 46.0902 311.44 51.0902C327.65 56.1202 344.39 61.3202 377.34 61.3202C410.29 61.3202 427.04 56.1202 443.24 51.0902C459.36 46.0902 476.03 40.9202 508.82 40.9202V39.8302C475.87 39.8302 459.12 45.0302 442.92 50.0602C426.8 55.0602 410.13 60.2302 377.34 60.2302C344.55 60.2302 327.88 55.0602 311.76 50.0602C295.55 45.0302 278.81 39.8302 245.85 39.8302C212.89 39.8302 196.39 34.6602 180.27 29.6602C164.06 24.6302 147.32 19.4302 114.37 19.4302C81.4199 19.4302 64.6699 24.6302 48.4699 29.6602C32.3499 34.6602 15.6799 39.8302 -17.1101 39.8302C-49.9001 39.8302 -66.8101 45.0302 -83.0101 50.0602C-99.1301 55.0602 -115.8 60.2302 -148.59 60.2302C-181.38 60.2302 -198.05 55.0602 -214.17 50.0602C-230.38 45.0302 -247.12 39.8302 -280.08 39.8302V40.9202C-247.29 40.9202 -230.62 46.0902 -214.5 51.0902C-198.29 56.1202 -181.55 61.3202 -148.6 61.3202H-148.59Z" fill="#AAD5ED"/>
</g>
</svg>
