<svg width="390" height="301" viewBox="0 0 390 301" fill="none" xmlns="http://www.w3.org/2000/svg">
<mask id="mask0_134_1388" style="mask-type:alpha" maskUnits="userSpaceOnUse" x="0" y="0" width="390" height="301">
<rect width="390" height="301" fill="#D9D9D9"/>
</mask>
<g mask="url(#mask0_134_1388)">
<path d="M543.706 -69V290.294C526.693 290.337 517.977 293.006 509.539 295.592C500.861 298.25 491.888 301 474.226 301C456.564 301 447.591 298.25 438.907 295.592C430.409 292.984 421.622 290.294 404.337 290.294V289.275C386.822 289.275 377.926 286.552 369.313 283.911C360.744 281.286 351.88 278.574 334.453 278.574C317.026 278.574 308.162 281.286 299.598 283.911C290.986 286.552 282.084 289.275 264.569 289.275V290.294C247.289 290.294 238.502 292.984 229.998 295.592C221.32 298.25 212.347 301 194.685 301C177.023 301 168.05 298.25 159.367 295.592C150.869 292.984 142.081 290.294 124.796 290.294V289.275C107.281 289.275 98.3794 286.552 89.7721 283.911C81.2031 281.286 72.3394 278.574 54.9121 278.574C37.4848 278.574 28.6211 281.286 20.0521 283.911C11.4449 286.552 2.54291 289.275 -14.9717 289.275V290.294C-32.2516 290.294 -41.039 292.984 -49.5425 295.592C-58.2206 298.25 -67.1935 301 -84.8555 301C-102.518 301 -111.49 298.25 -120.174 295.592C-128.607 293.006 -137.318 290.337 -154.335 290.294V-69H543.706Z" fill="#5D97C4"/>
<path d="M404.862 221.729C387.156 221.729 378.16 218.966 369.46 216.296C360.935 213.68 352.126 210.977 334.803 210.977C317.48 210.977 308.665 213.68 300.145 216.296C291.446 218.966 282.45 221.729 264.744 221.729V219.196C282.067 219.196 290.882 216.493 299.401 213.877C308.101 211.207 317.097 208.444 334.803 208.444C352.509 208.444 361.505 211.207 370.204 213.877C378.729 216.493 387.539 219.196 404.862 219.196V221.729Z" fill="#2557A5"/>
<path d="M404.862 226.555C387.172 226.555 378.177 223.792 369.482 221.122C360.957 218.506 352.143 215.798 334.803 215.798C317.463 215.798 308.648 218.506 300.124 221.122C291.429 223.792 282.434 226.555 264.744 226.555V224.164C282.084 224.164 290.898 221.456 299.423 218.84C308.118 216.17 317.113 213.407 334.803 213.407C352.493 213.407 361.488 216.17 370.183 218.84C378.707 221.456 387.522 224.164 404.862 224.164V226.555Z" fill="#2557A5"/>
<path d="M404.862 231.376C387.177 231.376 378.193 228.618 369.504 225.948C360.974 223.327 352.148 220.618 334.803 220.618C317.458 220.618 308.632 223.327 300.102 225.948C291.413 228.618 282.428 231.376 264.744 231.376V229.127C282.089 229.127 290.915 226.418 299.445 223.798C308.134 221.127 317.119 218.37 334.803 218.37C352.487 218.37 361.472 221.127 370.161 223.798C378.691 226.418 387.517 229.127 404.862 229.127V231.376Z" fill="#2557A5"/>
<path d="M404.862 236.196C387.188 236.196 378.209 233.444 369.52 230.773C360.985 228.153 352.159 225.439 334.797 225.439C317.436 225.439 308.61 228.153 300.074 230.773C291.391 233.438 282.406 236.196 264.733 236.196V234.089C282.089 234.089 290.92 231.375 299.456 228.754C308.139 226.09 317.124 223.332 334.797 223.332C352.471 223.332 361.45 226.084 370.139 228.754C378.674 231.375 387.5 234.089 404.862 234.089V236.196Z" fill="#2557A5"/>
<path d="M404.862 241.022C387.199 241.022 378.226 238.264 369.542 235.594C361.001 232.973 352.17 230.259 334.803 230.259C317.436 230.259 308.605 232.973 300.063 235.594C291.38 238.259 282.406 241.022 264.744 241.022V239.047C282.111 239.047 290.942 236.333 299.483 233.712C308.167 231.047 317.14 228.284 334.803 228.284C352.465 228.284 361.439 231.042 370.122 233.712C378.664 236.333 387.495 239.047 404.862 239.047V241.022Z" fill="#2557A5"/>
<path d="M404.862 245.848C387.21 245.848 378.237 243.096 369.564 240.426C361.018 237.799 352.181 235.091 334.803 235.091C317.425 235.091 308.588 237.805 300.041 240.426C291.369 243.09 282.395 245.848 264.744 245.848V244.015C282.122 244.015 290.959 241.301 299.505 238.68C308.178 236.016 317.151 233.258 334.803 233.258C352.454 233.258 361.428 236.01 370.1 238.68C378.647 241.307 387.484 244.015 404.862 244.015V245.848Z" fill="#2557A5"/>
<path d="M404.862 250.669C387.221 250.669 378.253 247.916 369.586 245.252C361.034 242.625 352.192 239.911 334.803 239.911C317.414 239.911 308.572 242.631 300.02 245.252C291.353 247.916 282.384 250.669 264.744 250.669V248.978C282.133 248.978 290.975 246.259 299.527 243.638C308.194 240.973 317.162 238.221 334.803 238.221C352.443 238.221 361.411 240.973 370.079 243.638C378.631 246.264 387.473 248.978 404.862 248.978V250.669Z" fill="#2557A5"/>
<path d="M404.862 255.489C387.232 255.489 378.27 252.737 369.608 250.083C361.05 247.457 352.203 244.737 334.803 244.737C317.403 244.737 308.561 247.457 299.998 250.083C291.331 252.742 282.374 255.489 264.744 255.489V253.941C282.144 253.941 290.986 251.221 299.549 248.595C308.216 245.936 317.173 243.189 334.803 243.189C352.433 243.189 361.395 245.941 370.057 248.595C378.614 251.221 387.462 253.941 404.862 253.941V255.489Z" fill="#2557A5"/>
<path d="M404.862 260.315C387.243 260.315 378.286 257.563 369.624 254.903C361.067 252.277 352.214 249.558 334.803 249.558C317.392 249.558 308.544 252.277 299.981 254.903C291.314 257.568 282.363 260.315 264.744 260.315V258.903C282.155 258.903 291.002 256.184 299.565 253.557C308.233 250.893 317.184 248.146 334.803 248.146C352.422 248.146 361.379 250.898 370.04 253.557C378.598 256.184 387.451 258.903 404.862 258.903V260.315Z" fill="#2557A5"/>
<path d="M404.862 265.141C387.254 265.141 378.302 262.389 369.646 259.735C361.083 257.109 352.225 254.384 334.803 254.384C317.381 254.384 308.528 257.103 299.959 259.735C291.303 262.394 282.352 265.141 264.744 265.141V263.872C282.166 263.872 291.019 261.152 299.587 258.52C308.244 255.861 317.195 253.114 334.803 253.114C352.411 253.114 361.362 255.866 370.018 258.52C378.581 261.147 387.44 263.872 404.862 263.872V265.141Z" fill="#2557A5"/>
<path d="M404.862 269.956C387.26 269.956 378.319 267.209 369.663 264.556C361.094 261.924 352.23 259.199 334.803 259.199C317.376 259.199 308.506 261.918 299.943 264.556C291.292 267.209 282.346 269.956 264.744 269.956V268.829C282.171 268.829 291.041 266.11 299.604 263.472C308.254 260.819 317.201 258.072 334.803 258.072C352.405 258.072 361.346 260.819 370.002 263.472C378.571 266.104 387.435 268.829 404.862 268.829V269.956Z" fill="#2557A5"/>
<path d="M404.862 274.782C387.276 274.782 378.335 272.035 369.685 269.382C361.111 266.75 352.241 264.025 334.803 264.025C317.365 264.025 308.495 266.75 299.921 269.382C291.276 272.035 282.335 274.782 264.744 274.782V273.797C282.188 273.797 291.052 271.072 299.626 268.441C308.271 265.787 317.212 263.04 334.803 263.04C352.394 263.04 361.329 265.787 369.98 268.441C378.554 271.072 387.424 273.797 404.862 273.797V274.782Z" fill="#2557A5"/>
<path d="M404.862 279.608C387.281 279.608 378.352 276.861 369.706 274.207C361.127 271.576 352.252 268.851 334.803 268.851C317.354 268.851 308.479 271.576 299.899 274.207C291.254 276.861 282.324 279.608 264.744 279.608V278.754C282.193 278.754 291.068 276.029 299.648 273.398C308.293 270.744 317.222 267.997 334.803 267.997C352.383 267.997 361.313 270.744 369.958 273.398C378.538 276.029 387.413 278.754 404.862 278.754V279.608Z" fill="#2557A5"/>
<path d="M404.862 284.434C387.292 284.434 378.363 281.693 369.728 279.039C361.143 276.402 352.268 273.677 334.803 273.677C317.337 273.677 308.462 276.402 299.877 279.039C291.243 281.693 282.308 284.434 264.744 284.434V283.723C282.204 283.723 291.084 280.998 299.669 278.36C308.304 275.707 317.239 272.965 334.803 272.965C352.367 272.965 361.302 275.707 369.936 278.36C378.521 280.998 387.396 283.723 404.862 283.723V284.434Z" fill="#2557A5"/>
<path d="M404.862 288.685V289.254C387.303 289.254 378.385 286.519 369.75 283.865C361.16 281.228 352.274 278.503 334.803 278.503C317.332 278.503 308.446 281.228 299.861 283.865C291.227 286.519 282.302 289.254 264.744 289.254V288.685C282.215 288.685 291.101 285.955 299.691 283.318C308.32 280.669 317.244 277.934 334.803 277.934C352.361 277.934 361.286 280.669 369.92 283.318C378.505 285.955 387.391 288.685 404.862 288.685Z" fill="#2557A5"/>
<path d="M264.744 287.745V290.278C247.421 290.278 238.611 292.981 230.087 295.602C221.387 298.272 212.391 301.035 194.685 301.035C176.979 301.035 167.983 298.272 159.278 295.602C150.759 292.981 141.949 290.278 124.621 290.278V287.745C142.327 287.745 151.322 290.508 160.022 293.178C168.547 295.793 177.356 298.502 194.685 298.502C212.014 298.502 220.823 295.793 229.342 293.178C238.048 290.508 247.038 287.745 264.744 287.745Z" fill="#2557A5"/>
<path d="M194.685 296.067C176.99 296.067 168 293.304 159.3 290.633C150.775 288.018 141.955 285.31 124.621 285.31V282.918C142.31 282.918 151.306 285.682 160 288.352C168.525 290.967 177.345 293.676 194.685 293.676C212.025 293.676 220.839 290.967 229.364 288.352C238.059 285.682 247.054 282.918 264.744 282.918V285.31C247.404 285.31 238.59 288.018 230.065 290.633C221.37 293.304 212.375 296.067 194.685 296.067Z" fill="#2557A5"/>
<path d="M194.685 291.104C176.995 291.104 168.011 288.347 159.322 285.676C150.791 283.055 141.966 280.347 124.621 280.347V278.098C142.305 278.098 151.289 280.856 159.978 283.526C168.509 286.147 177.334 288.855 194.68 288.855C212.025 288.855 220.85 286.147 229.381 283.526C238.07 280.856 247.054 278.098 264.739 278.098V280.347C247.393 280.347 238.568 283.055 230.037 285.676C221.348 288.347 212.364 291.104 194.68 291.104H194.685Z" fill="#2557A5"/>
<path d="M194.685 286.136C177.012 286.136 168.027 283.384 159.344 280.713C150.802 278.093 141.982 275.379 124.621 275.379V273.272C142.294 273.272 151.273 276.024 159.962 278.694C168.503 281.315 177.329 284.029 194.685 284.029C212.041 284.029 220.872 281.315 229.408 278.694C238.092 276.03 247.076 273.272 264.749 273.272V275.379C247.393 275.379 238.562 278.093 230.026 280.713C221.343 283.378 212.358 286.136 194.685 286.136Z" fill="#2557A5"/>
<path d="M194.685 281.178C177.023 281.178 168.044 278.421 159.36 275.751C150.819 273.13 141.988 270.416 124.621 270.416V268.44C142.283 268.44 151.257 271.198 159.94 273.868C168.481 276.489 177.313 279.203 194.685 279.203C212.057 279.203 220.883 276.489 229.424 273.868C238.108 271.204 247.081 268.44 264.744 268.44V270.416C247.377 270.416 238.546 273.13 230.004 275.751C221.321 278.415 212.347 281.178 194.685 281.178Z" fill="#2557A5"/>
<path d="M194.685 276.216C177.028 276.216 168.06 273.464 159.382 270.793C150.835 268.167 141.999 265.458 124.621 265.458V263.625C142.272 263.625 151.246 266.378 159.918 269.048C168.465 271.674 177.307 274.383 194.685 274.383C212.063 274.383 220.9 271.669 229.446 269.048C238.119 266.383 247.092 263.625 264.744 263.625V265.458C247.366 265.458 238.529 268.172 229.983 270.793C221.31 273.458 212.337 276.216 194.685 276.216Z" fill="#2557A5"/>
<path d="M194.685 271.247C177.044 271.247 168.071 268.495 159.404 265.83C150.852 263.204 142.009 260.49 124.621 260.49V258.799C142.261 258.799 151.229 261.552 159.896 264.216C168.448 266.843 177.291 269.557 194.685 269.557C212.079 269.557 220.916 266.837 229.468 264.216C238.135 261.552 247.103 258.799 264.744 258.799V260.49C247.355 260.49 238.513 263.209 229.961 265.83C221.294 268.495 212.326 271.247 194.685 271.247Z" fill="#2557A5"/>
<path d="M194.685 266.285C177.05 266.285 168.087 263.532 159.426 260.879C150.868 258.252 142.02 255.533 124.621 255.533V253.984C142.25 253.984 151.213 256.737 159.874 259.39C168.432 262.017 177.285 264.736 194.685 264.736C212.085 264.736 220.927 262.017 229.49 259.39C238.157 256.731 247.114 253.984 264.744 253.984V255.533C247.344 255.533 238.502 258.252 229.939 260.879C221.272 263.538 212.315 266.285 194.685 266.285Z" fill="#2557A5"/>
<path d="M194.685 261.327C177.066 261.327 168.109 258.575 159.442 255.916C150.885 253.289 142.031 250.57 124.621 250.57V249.158C142.239 249.158 151.196 251.91 159.853 254.57C168.416 257.196 177.269 259.915 194.68 259.915C212.09 259.915 220.938 257.196 229.501 254.57C238.168 251.905 247.12 249.158 264.739 249.158V250.57C247.328 250.57 238.48 253.289 229.917 255.916C221.25 258.58 212.298 261.327 194.68 261.327H194.685Z" fill="#2557A5"/>
<path d="M194.685 256.365C177.072 256.365 168.12 253.612 159.464 250.959C150.901 248.332 142.042 245.607 124.621 245.607V244.338C142.228 244.338 151.18 247.09 159.836 249.744C168.399 252.37 177.263 255.095 194.68 255.095C212.096 255.095 220.954 252.376 229.523 249.744C238.179 247.085 247.131 244.338 264.739 244.338V245.607C247.317 245.607 238.464 248.327 229.895 250.959C221.239 253.618 212.287 256.365 194.68 256.365H194.685Z" fill="#2557A5"/>
<path d="M194.685 251.396C177.083 251.396 168.136 248.649 159.486 245.99C150.917 243.358 142.053 240.634 124.626 240.634V239.506C142.228 239.506 151.169 242.253 159.825 244.912C168.394 247.544 177.258 250.269 194.69 250.269C212.123 250.269 220.987 247.55 229.55 244.912C238.201 242.253 247.147 239.506 264.749 239.506V240.634C247.322 240.634 238.453 243.353 229.89 245.99C221.239 248.649 212.293 251.396 194.69 251.396H194.685Z" fill="#2557A5"/>
<path d="M194.685 246.433C177.094 246.433 168.153 243.692 159.502 241.038C150.928 238.407 142.059 235.682 124.621 235.682V234.697C142.206 234.697 151.147 237.438 159.798 240.092C168.372 242.724 177.241 245.449 194.685 245.449C212.129 245.449 220.993 242.724 229.567 240.092C238.212 237.438 247.153 234.697 264.744 234.697V235.682C247.3 235.682 238.436 238.407 229.862 241.038C221.217 243.692 212.276 246.433 194.685 246.433Z" fill="#2557A5"/>
<path d="M194.685 241.476C177.105 241.476 168.169 238.729 159.524 236.076C150.945 233.444 142.07 230.719 124.621 230.719V229.865C142.201 229.865 151.131 232.612 159.776 235.266C168.355 237.898 177.23 240.622 194.685 240.622C212.14 240.622 221.009 237.898 229.589 235.266C238.234 232.612 247.164 229.865 264.744 229.865V230.719C247.295 230.719 238.42 233.444 229.84 236.076C221.195 238.729 212.265 241.476 194.685 241.476Z" fill="#2557A5"/>
<path d="M194.685 236.508C177.116 236.508 168.18 233.767 159.546 231.113C150.961 228.476 142.086 225.751 124.621 225.751V225.04C142.19 225.04 151.12 227.781 159.754 230.435C168.339 233.072 177.22 235.797 194.685 235.797C212.151 235.797 221.026 233.072 229.611 230.435C238.245 227.781 247.18 225.04 264.744 225.04V225.751C247.284 225.751 238.403 228.476 229.818 231.113C221.184 233.767 212.249 236.508 194.685 236.508Z" fill="#2557A5"/>
<path d="M194.685 231.545C177.127 231.545 168.197 228.809 159.568 226.155C150.978 223.518 142.092 220.788 124.621 220.788V220.219C142.179 220.219 151.103 222.955 159.732 225.608C168.328 228.246 177.209 230.976 194.685 230.976C212.161 230.976 221.042 228.246 229.632 225.608C238.261 222.96 247.185 220.219 264.744 220.219V220.788C247.273 220.788 238.387 223.518 229.797 226.155C221.168 228.804 212.244 231.545 194.685 231.545Z" fill="#2557A5"/>
<path d="M124.621 221.729C106.914 221.729 97.9189 218.966 89.219 216.296C80.6942 213.68 71.8849 210.977 54.5616 210.977C37.2384 210.977 28.4236 213.68 19.9042 216.296C11.2043 218.966 2.20893 221.729 -15.4973 221.729V219.196C1.82592 219.196 10.6407 216.493 19.1601 213.877C27.86 211.207 36.8554 208.444 54.5616 208.444C72.2679 208.444 81.2633 211.207 89.9632 213.877C98.488 216.493 107.297 219.196 124.621 219.196V221.729Z" fill="#2557A5"/>
<path d="M124.621 226.555C106.931 226.555 97.9354 223.792 89.2409 221.122C80.7161 218.506 71.9013 215.798 54.5616 215.798C37.222 215.798 28.4072 218.506 19.8823 221.122C11.1879 223.792 2.19252 226.555 -15.4973 226.555V224.164C1.84233 224.164 10.6571 221.456 19.182 218.84C27.8764 216.17 36.8718 213.407 54.5616 213.407C72.2515 213.407 81.2468 216.17 89.9413 218.84C98.4661 221.456 107.281 224.164 124.621 224.164V226.555Z" fill="#2557A5"/>
<path d="M124.621 231.376C106.936 231.376 97.9518 228.618 89.2628 225.948C80.7325 223.327 71.9067 220.618 54.5616 220.618C37.2165 220.618 28.3907 223.327 19.8604 225.948C11.1715 228.618 2.18704 231.376 -15.4973 231.376V229.127C1.8478 229.127 10.6736 226.418 19.2039 223.798C27.8928 221.127 36.8773 218.37 54.5616 218.37C72.246 218.37 81.2304 221.127 89.9194 223.798C98.4497 226.418 107.275 229.127 124.621 229.127V231.376Z" fill="#2557A5"/>
<path d="M124.621 236.196C106.947 236.196 97.9682 233.444 89.2792 230.773C80.7434 228.153 71.9176 225.439 54.5561 225.439C37.1946 225.439 28.3688 228.153 19.8331 230.773C11.1496 233.438 2.16511 236.196 -15.5083 236.196V234.089C1.84776 234.089 10.679 231.375 19.2148 228.754C27.8983 226.09 36.8827 223.332 54.5561 223.332C72.2295 223.332 81.2085 226.084 89.8975 228.754C98.4332 231.375 107.259 234.089 124.621 234.089V236.196Z" fill="#2557A5"/>
<path d="M124.621 241.022C106.958 241.022 97.9846 238.264 89.3011 235.594C80.7599 232.973 71.9286 230.259 54.5616 230.259C37.1946 230.259 28.3634 232.973 19.8222 235.594C11.1387 238.259 2.16516 241.022 -15.4973 241.022V239.047C1.86969 239.047 10.7009 236.333 19.2422 233.712C27.9257 231.047 36.8992 228.284 54.5616 228.284C72.2241 228.284 81.1976 231.042 89.8811 233.712C98.4223 236.333 107.254 239.047 124.621 239.047V241.022Z" fill="#2557A5"/>
<path d="M124.621 245.848C106.969 245.848 97.9956 243.096 89.323 240.426C80.7763 237.799 71.9396 235.091 54.5616 235.091C37.1837 235.091 28.347 237.805 19.8003 240.426C11.1277 243.09 2.15421 245.848 -15.4973 245.848V244.015C1.88063 244.015 10.7173 241.301 19.264 238.68C27.9366 236.016 36.9101 233.258 54.5616 233.258C72.2132 233.258 81.1867 236.01 89.8592 238.68C98.4059 241.307 107.243 244.015 124.621 244.015V245.848Z" fill="#2557A5"/>
<path d="M124.621 250.669C106.98 250.669 98.012 247.916 89.3449 245.252C80.7927 242.625 71.9505 239.911 54.5616 239.911C37.1727 239.911 28.3306 242.631 19.7784 245.252C11.1113 247.916 2.14327 250.669 -15.4973 250.669V248.978C1.89158 248.978 10.7338 246.259 19.2859 243.638C27.953 240.973 36.921 238.221 54.5616 238.221C72.2022 238.221 81.1702 240.973 89.8373 243.638C98.3895 246.264 107.232 248.978 124.621 248.978V250.669Z" fill="#2557A5"/>
<path d="M124.621 255.489C106.991 255.489 98.0284 252.737 89.3668 250.083C80.8091 247.457 71.9615 244.737 54.5616 244.737C37.1618 244.737 28.3196 247.457 19.7565 250.083C11.0894 252.742 2.13233 255.489 -15.4973 255.489V253.941C1.90252 253.941 10.7447 251.221 19.3078 248.595C27.9749 245.936 36.932 243.189 54.5616 243.189C72.1913 243.189 81.1538 245.941 89.8154 248.595C98.3731 251.221 107.221 253.941 124.621 253.941V255.489Z" fill="#2557A5"/>
<path d="M124.621 260.315C107.002 260.315 98.0448 257.563 89.3832 254.903C80.8255 252.277 71.9724 249.558 54.5616 249.558C37.1509 249.558 28.3032 252.277 19.7401 254.903C11.073 257.568 2.12138 260.315 -15.4973 260.315V258.903C1.91346 258.903 10.7611 256.184 19.3242 253.557C27.9913 250.893 36.9429 248.146 54.5616 248.146C72.1803 248.146 81.1374 250.898 89.799 253.557C98.3567 256.184 107.21 258.903 124.621 258.903V260.315Z" fill="#2557A5"/>
<path d="M124.621 265.141C107.013 265.141 98.0612 262.389 89.4051 259.735C80.8419 257.109 71.9834 254.384 54.5616 254.384C37.1399 254.384 28.2868 257.103 19.7182 259.735C11.0621 262.394 2.11044 265.141 -15.4973 265.141V263.872C1.92441 263.872 10.7775 261.152 19.3461 258.52C28.0023 255.861 36.9539 253.114 54.5616 253.114C72.1694 253.114 81.121 255.866 89.7772 258.52C98.3403 261.147 107.199 263.872 124.621 263.872V265.141Z" fill="#2557A5"/>
<path d="M124.621 269.956C107.018 269.956 98.0776 267.209 89.4215 264.556C80.8529 261.924 71.9888 259.199 54.5616 259.199C37.1344 259.199 28.2649 261.918 19.7018 264.556C11.0511 267.209 2.10497 269.956 -15.4973 269.956V268.829C1.92988 268.829 10.7994 266.11 19.3625 263.472C28.0132 260.819 36.9593 258.072 54.5616 258.072C72.1639 258.072 81.1046 260.819 89.7607 263.472C98.3293 266.104 107.193 268.829 124.621 268.829V269.956Z" fill="#2557A5"/>
<path d="M124.621 274.782C107.035 274.782 98.094 272.035 89.4434 269.382C80.8693 266.75 71.9998 264.025 54.5616 264.025C37.1235 264.025 28.254 266.75 19.6799 269.382C11.0347 272.035 2.09403 274.782 -15.4973 274.782V273.797C1.94629 273.797 10.8103 271.072 19.3844 268.441C28.0296 265.787 36.9703 263.04 54.5616 263.04C72.153 263.04 81.0882 265.787 89.7388 268.441C98.3129 271.072 107.182 273.797 124.621 273.797V274.782Z" fill="#2557A5"/>
<path d="M124.621 279.608C107.04 279.608 98.1105 276.861 89.4653 274.207C80.8857 271.576 72.0107 268.851 54.5616 268.851C37.1126 268.851 28.2375 271.576 19.658 274.207C11.0128 276.861 2.08308 279.608 -15.4973 279.608V278.754C1.95176 278.754 10.8268 276.029 19.4063 273.398C28.0515 270.744 36.9812 267.997 54.5616 267.997C72.142 267.997 81.0718 270.744 89.717 273.398C98.2965 276.029 107.172 278.754 124.621 278.754V279.608Z" fill="#2557A5"/>
<path d="M124.621 284.434C107.051 284.434 98.1214 281.693 89.4871 279.039C80.9021 276.402 72.0271 273.677 54.5616 273.677C37.0961 273.677 28.2211 276.402 19.6361 279.039C11.0019 281.693 2.06667 284.434 -15.4973 284.434V283.723C1.96271 283.723 10.8432 280.998 19.4282 278.36C28.0625 275.707 36.9977 272.965 54.5616 272.965C72.1256 272.965 81.0608 275.707 89.6951 278.36C98.2801 280.998 107.155 283.723 124.621 283.723V284.434Z" fill="#2557A5"/>
<path d="M124.621 288.685V289.254C107.062 289.254 98.1378 286.519 89.509 283.865C80.9185 281.228 72.0326 278.503 54.5616 278.503C37.0907 278.503 28.2047 281.228 19.6142 283.865C10.9854 286.519 2.0612 289.254 -15.4973 289.254V288.685C1.97365 288.685 10.8596 285.955 19.4501 283.318C28.0789 280.669 37.0031 277.934 54.5616 277.934C72.1201 277.934 81.0444 280.669 89.6786 283.318C98.2637 285.955 107.15 288.685 124.621 288.685Z" fill="#2557A5"/>
<path d="M404.862 152.573C387.156 152.573 378.16 149.81 369.46 147.134C360.935 144.519 352.126 141.816 334.803 141.816C317.48 141.816 308.665 144.519 300.145 147.134C291.446 149.81 282.45 152.573 264.744 152.573V150.039C282.067 150.039 290.882 147.336 299.401 144.721C308.101 142.045 317.097 139.282 334.803 139.282C352.509 139.282 361.505 142.045 370.204 144.721C378.729 147.336 387.539 150.039 404.862 150.039V152.573Z" fill="#2557A5"/>
<path d="M404.862 157.399C387.172 157.399 378.177 154.636 369.482 151.966C360.957 149.35 352.143 146.642 334.803 146.642C317.463 146.642 308.648 149.35 300.124 151.966C291.429 154.636 282.434 157.399 264.744 157.399V155.008C282.084 155.008 290.898 152.299 299.423 149.684C308.118 147.014 317.113 144.25 334.803 144.25C352.493 144.25 361.488 147.014 370.183 149.684C378.707 152.299 387.522 155.008 404.862 155.008V157.399Z" fill="#2557A5"/>
<path d="M404.862 162.214C387.177 162.214 378.193 159.456 369.504 156.786C360.974 154.165 352.148 151.457 334.803 151.457C317.458 151.457 308.632 154.165 300.102 156.786C291.413 159.451 282.428 162.214 264.744 162.214V159.965C282.089 159.965 290.915 157.257 299.445 154.636C308.134 151.971 317.119 149.208 334.803 149.208C352.487 149.208 361.472 151.966 370.161 154.636C378.691 157.257 387.517 159.965 404.862 159.965V162.214Z" fill="#2557A5"/>
<path d="M404.862 167.04C387.188 167.04 378.209 164.282 369.52 161.612C360.985 158.991 352.159 156.277 334.797 156.277C317.436 156.277 308.61 158.991 300.074 161.612C291.391 164.277 282.406 167.04 264.733 167.04V164.933C282.089 164.933 290.92 162.219 299.456 159.598C308.139 156.934 317.124 154.17 334.797 154.17C352.471 154.17 361.45 156.928 370.139 159.598C378.674 162.219 387.5 164.933 404.862 164.933V167.04Z" fill="#2557A5"/>
<path d="M404.862 171.866C387.199 171.866 378.226 169.108 369.542 166.438C361.001 163.817 352.17 161.103 334.803 161.103C317.436 161.103 308.605 163.817 300.063 166.438C291.38 169.103 282.406 171.866 264.744 171.866V169.891C282.111 169.891 290.942 167.177 299.483 164.556C308.167 161.891 317.14 159.128 334.803 159.128C352.465 159.128 361.439 161.886 370.122 164.556C378.664 167.177 387.495 169.891 404.862 169.891V171.866Z" fill="#2557A5"/>
<path d="M404.862 176.686C387.21 176.686 378.237 173.934 369.564 171.269C361.018 168.643 352.181 165.935 334.803 165.935C317.425 165.935 308.588 168.649 300.041 171.269C291.369 173.934 282.395 176.686 264.744 176.686V174.853C282.122 174.853 290.959 172.139 299.505 169.518C308.178 166.854 317.151 164.102 334.803 164.102C352.454 164.102 361.428 166.854 370.1 169.518C378.647 172.145 387.484 174.853 404.862 174.853V176.686Z" fill="#2557A5"/>
<path d="M404.862 181.507C387.221 181.507 378.253 178.755 369.586 176.09C361.034 173.464 352.192 170.75 334.803 170.75C317.414 170.75 308.572 173.469 300.02 176.09C291.353 178.755 282.384 181.507 264.744 181.507V179.816C282.133 179.816 290.975 177.097 299.527 174.476C308.194 171.811 317.162 169.059 334.803 169.059C352.443 169.059 361.411 171.811 370.079 174.476C378.631 177.102 387.473 179.816 404.862 179.816V181.507Z" fill="#2557A5"/>
<path d="M404.862 186.333C387.232 186.333 378.27 183.581 369.608 180.922C361.05 178.295 352.203 175.576 334.803 175.576C317.403 175.576 308.561 178.295 299.998 180.922C291.331 183.586 282.374 186.333 264.744 186.333V184.785C282.144 184.785 290.986 182.065 299.549 179.439C308.216 176.774 317.173 174.027 334.803 174.027C352.433 174.027 361.395 176.78 370.057 179.439C378.614 182.065 387.462 184.785 404.862 184.785V186.333Z" fill="#2557A5"/>
<path d="M404.862 191.159C387.243 191.159 378.286 188.406 369.624 185.747C361.067 183.121 352.214 180.401 334.803 180.401C317.392 180.401 308.544 183.121 299.981 185.747C291.314 188.412 282.363 191.159 264.744 191.159V189.747C282.155 189.747 291.002 187.028 299.565 184.401C308.233 181.737 317.184 178.99 334.803 178.99C352.422 178.99 361.379 181.742 370.04 184.401C378.598 187.028 387.451 189.747 404.862 189.747V191.159Z" fill="#2557A5"/>
<path d="M404.862 195.979C387.254 195.979 378.302 193.227 369.646 190.573C361.083 187.941 352.225 185.222 334.803 185.222C317.381 185.222 308.528 187.941 299.959 190.573C291.303 193.227 282.352 195.979 264.744 195.979V194.71C282.166 194.71 291.019 191.99 299.587 189.359C308.244 186.705 317.195 183.953 334.803 183.953C352.411 183.953 361.362 186.705 370.018 189.359C378.581 191.99 387.44 194.71 404.862 194.71V195.979Z" fill="#2557A5"/>
<path d="M404.862 200.8C387.26 200.8 378.319 198.053 369.663 195.394C361.094 192.762 352.23 190.037 334.803 190.037C317.376 190.037 308.506 192.757 299.943 195.394C291.292 198.053 282.346 200.8 264.744 200.8V199.673C282.171 199.673 291.041 196.953 299.604 194.316C308.254 191.657 317.201 188.91 334.803 188.91C352.405 188.91 361.346 191.657 370.002 194.316C378.571 196.948 387.435 199.673 404.862 199.673V200.8Z" fill="#2557A5"/>
<path d="M404.862 205.626C387.276 205.626 378.335 202.879 369.685 200.225C361.111 197.594 352.241 194.869 334.803 194.869C317.365 194.869 308.495 197.594 299.921 200.225C291.276 202.879 282.335 205.626 264.744 205.626V204.641C282.188 204.641 291.052 201.916 299.626 199.284C308.271 196.631 317.212 193.884 334.803 193.884C352.394 193.884 361.329 196.631 369.98 199.284C378.554 201.916 387.424 204.641 404.862 204.641V205.626Z" fill="#2557A5"/>
<path d="M404.862 210.452C387.281 210.452 378.352 207.705 369.706 205.052C361.127 202.42 352.252 199.695 334.803 199.695C317.354 199.695 308.479 202.42 299.899 205.052C291.254 207.705 282.324 210.452 264.744 210.452V209.599C282.193 209.599 291.068 206.874 299.648 204.242C308.293 201.588 317.222 198.841 334.803 198.841C352.383 198.841 361.313 201.588 369.958 204.242C378.538 206.874 387.413 209.599 404.862 209.599V210.452Z" fill="#2557A5"/>
<path d="M404.862 215.273C387.292 215.273 378.363 212.531 369.728 209.883C361.143 207.246 352.268 204.521 334.803 204.521C317.337 204.521 308.462 207.246 299.877 209.883C291.243 212.531 282.308 215.273 264.744 215.273V214.561C282.204 214.561 291.084 211.836 299.669 209.199C308.304 206.551 317.239 203.81 334.803 203.81C352.367 203.81 361.302 206.551 369.936 209.199C378.521 211.836 387.396 214.561 404.862 214.561V215.273Z" fill="#2557A5"/>
<path d="M404.862 220.093C387.303 220.093 378.379 217.352 369.75 214.703C361.16 212.066 352.274 209.336 334.803 209.336C317.332 209.336 308.446 212.066 299.855 214.703C291.227 217.352 282.302 220.093 264.744 220.093V219.524C282.215 219.524 291.101 216.794 299.691 214.156C308.32 211.508 317.244 208.767 334.803 208.767C352.361 208.767 361.286 211.508 369.914 214.156C378.505 216.794 387.391 219.524 404.862 219.524V220.093Z" fill="#2557A5"/>
<path d="M194.685 231.874C176.973 231.874 167.983 229.11 159.278 226.435C150.753 223.819 141.944 221.116 124.621 221.116V218.583C142.327 218.583 151.322 221.346 160.022 224.022C168.547 226.637 177.356 229.34 194.685 229.34C212.014 229.34 220.823 226.637 229.342 224.022C238.042 221.346 247.038 218.583 264.744 218.583V221.116C247.421 221.116 238.606 223.819 230.087 226.435C221.387 229.11 212.391 231.874 194.685 231.874Z" fill="#2557A5"/>
<path d="M194.685 226.91C176.99 226.91 168 224.147 159.3 221.483C150.775 218.862 141.955 216.159 124.621 216.159V213.768C142.31 213.768 151.306 216.525 160 219.195C168.525 221.811 177.345 224.519 194.685 224.519C212.025 224.519 220.839 221.811 229.364 219.195C238.059 216.531 247.054 213.768 264.744 213.768V216.159C247.404 216.159 238.59 218.867 230.065 221.483C221.37 224.147 212.375 226.91 194.685 226.91Z" fill="#2557A5"/>
<path d="M194.685 221.948C176.995 221.948 168.011 219.19 159.322 216.52C150.791 213.899 141.966 211.191 124.621 211.191V208.942C142.305 208.942 151.289 211.7 159.978 214.37C168.509 216.991 177.334 219.699 194.68 219.699C212.025 219.699 220.85 216.991 229.381 214.37C238.07 211.7 247.054 208.942 264.739 208.942V211.191C247.393 211.191 238.568 213.899 230.037 216.52C221.348 219.19 212.364 221.948 194.68 221.948H194.685Z" fill="#2557A5"/>
<path d="M194.685 216.98C177.012 216.98 168.027 214.222 159.344 211.552C150.802 208.931 141.977 206.217 124.621 206.217V204.11C142.294 204.11 151.273 206.868 159.962 209.538C168.503 212.159 177.329 214.873 194.685 214.873C212.041 214.873 220.872 212.159 229.408 209.538C238.092 206.874 247.076 204.11 264.749 204.11V206.217C247.393 206.217 238.562 208.931 230.026 211.552C221.343 214.216 212.358 216.98 194.685 216.98Z" fill="#2557A5"/>
<path d="M194.685 212.022C177.023 212.022 168.044 209.264 159.36 206.594C150.819 203.973 141.988 201.259 124.621 201.259V199.284C142.283 199.284 151.257 202.042 159.94 204.712C168.481 207.333 177.313 210.047 194.685 210.047C212.057 210.047 220.883 207.333 229.424 204.712C238.108 202.047 247.081 199.284 264.744 199.284V201.259C247.377 201.259 238.546 203.973 230.004 206.594C221.321 209.259 212.347 212.022 194.685 212.022Z" fill="#2557A5"/>
<path d="M194.685 207.054C177.028 207.054 168.06 204.302 159.382 201.637C150.835 199.011 141.999 196.302 124.621 196.302V194.469C142.272 194.469 151.246 197.221 159.918 199.886C168.465 202.513 177.307 205.221 194.685 205.221C212.063 205.221 220.9 202.507 229.446 199.886C238.119 197.221 247.092 194.469 264.744 194.469V196.302C247.366 196.302 238.529 199.016 229.983 201.637C221.31 204.302 212.337 207.054 194.685 207.054Z" fill="#2557A5"/>
<path d="M194.685 202.091C177.044 202.091 168.071 199.339 159.404 196.674C150.852 194.048 142.009 191.334 124.621 191.334V189.643C142.261 189.643 151.229 192.395 159.896 195.06C168.448 197.686 177.291 200.4 194.685 200.4C212.079 200.4 220.916 197.681 229.468 195.06C238.135 192.395 247.103 189.643 264.744 189.643V191.334C247.355 191.334 238.513 194.053 229.961 196.674C221.294 199.339 212.326 202.091 194.685 202.091Z" fill="#2557A5"/>
<path d="M194.685 197.128C177.05 197.128 168.087 194.376 159.426 191.717C150.868 189.091 142.02 186.371 124.621 186.371V184.823C142.25 184.823 151.213 187.575 159.874 190.234C168.432 192.861 177.285 195.58 194.685 195.58C212.085 195.58 220.927 192.861 229.49 190.234C238.157 187.57 247.114 184.823 264.744 184.823V186.371C247.344 186.371 238.502 189.091 229.939 191.717C221.272 194.382 212.315 197.128 194.685 197.128Z" fill="#2557A5"/>
<path d="M194.685 192.166C177.066 192.166 168.109 189.414 159.442 186.76C150.885 184.134 142.031 181.414 124.621 181.414V180.002C142.239 180.002 151.196 182.755 159.853 185.408C168.416 188.035 177.269 190.754 194.68 190.754C212.09 190.754 220.938 188.035 229.507 185.408C238.168 182.749 247.12 180.002 264.739 180.002V181.414C247.328 181.414 238.48 184.134 229.911 186.76C221.25 189.419 212.298 192.166 194.68 192.166H194.685Z" fill="#2557A5"/>
<path d="M194.685 187.203C177.072 187.203 168.12 184.451 159.464 181.797C150.901 179.171 142.042 176.446 124.621 176.446V175.176C142.228 175.176 151.18 177.929 159.836 180.582C168.399 183.209 177.263 185.934 194.68 185.934C212.096 185.934 220.954 183.214 229.523 180.582C238.179 177.923 247.131 175.176 264.739 175.176V176.446C247.317 176.446 238.464 179.165 229.895 181.797C221.239 184.456 212.287 187.203 194.68 187.203H194.685Z" fill="#2557A5"/>
<path d="M194.685 182.24C177.083 182.24 168.136 179.493 159.486 176.834C150.917 174.202 142.053 171.477 124.626 171.477V170.35C142.228 170.35 151.169 173.097 159.825 175.756C168.394 178.388 177.258 181.113 194.69 181.113C212.123 181.113 220.987 178.393 229.55 175.756C238.201 173.097 247.147 170.35 264.749 170.35V171.477C247.322 171.477 238.453 174.197 229.89 176.834C221.239 179.493 212.293 182.24 194.69 182.24H194.685Z" fill="#2557A5"/>
<path d="M194.685 177.277C177.094 177.277 168.153 174.531 159.502 171.877C150.928 169.245 142.059 166.52 124.621 166.52V165.535C142.206 165.535 151.147 168.282 159.798 170.936C168.372 173.568 177.241 176.292 194.685 176.292C212.129 176.292 220.993 173.568 229.567 170.936C238.212 168.282 247.153 165.535 264.744 165.535V166.52C247.3 166.52 238.436 169.245 229.862 171.877C221.217 174.531 212.276 177.277 194.685 177.277Z" fill="#2557A5"/>
<path d="M194.685 172.314C177.105 172.314 168.169 169.568 159.524 166.919C150.945 164.282 142.07 161.563 124.621 161.563V160.709C142.201 160.709 151.131 163.456 159.776 166.104C168.355 168.741 177.23 171.461 194.685 171.461C212.14 171.461 221.009 168.741 229.589 166.104C238.234 163.456 247.164 160.709 264.744 160.709V161.563C247.295 161.563 238.42 164.282 229.84 166.919C221.195 169.568 212.265 172.314 194.685 172.314Z" fill="#2557A5"/>
<path d="M194.685 167.352C177.116 167.352 168.18 164.611 159.546 161.957C150.961 159.319 142.086 156.595 124.621 156.595V155.883C142.19 155.883 151.12 158.625 159.754 161.278C168.339 163.916 177.22 166.641 194.685 166.641C212.151 166.641 221.026 163.916 229.611 161.278C238.245 158.625 247.18 155.883 264.744 155.883V156.595C247.284 156.595 238.403 159.319 229.818 161.957C221.184 164.611 212.249 167.352 194.685 167.352Z" fill="#2557A5"/>
<path d="M194.685 162.389C177.127 162.389 168.197 159.647 159.568 156.999C150.978 154.362 142.092 151.632 124.621 151.632V151.062C142.179 151.062 151.103 153.804 159.732 156.452C168.328 159.089 177.209 161.82 194.685 161.82C212.161 161.82 221.042 159.089 229.632 156.452C238.261 153.804 247.185 151.062 264.744 151.062V151.632C247.273 151.632 238.387 154.362 229.797 156.999C221.168 159.647 212.244 162.389 194.685 162.389Z" fill="#2557A5"/>
<path d="M124.621 152.573C106.914 152.573 97.9189 149.81 89.219 147.134C80.6942 144.519 71.8849 141.816 54.5616 141.816C37.2384 141.816 28.4236 144.519 19.9042 147.134C11.2043 149.81 2.20893 152.573 -15.4973 152.573V150.039C1.82592 150.039 10.6407 147.336 19.1601 144.721C27.86 142.045 36.8554 139.282 54.5616 139.282C72.2679 139.282 81.2633 142.045 89.9632 144.721C98.488 147.336 107.297 150.039 124.621 150.039V152.573Z" fill="#2557A5"/>
<path d="M124.621 157.399C106.931 157.399 97.9354 154.636 89.2409 151.966C80.7161 149.35 71.9013 146.642 54.5616 146.642C37.222 146.642 28.4072 149.35 19.8823 151.966C11.1879 154.636 2.19252 157.399 -15.4973 157.399V155.008C1.84233 155.008 10.6571 152.299 19.182 149.684C27.8764 147.014 36.8718 144.25 54.5616 144.25C72.2515 144.25 81.2468 147.014 89.9413 149.684C98.4661 152.299 107.281 155.008 124.621 155.008V157.399Z" fill="#2557A5"/>
<path d="M124.621 162.214C106.936 162.214 97.9518 159.456 89.2628 156.786C80.7325 154.165 71.9067 151.457 54.5616 151.457C37.2165 151.457 28.3907 154.165 19.8604 156.786C11.1715 159.451 2.18704 162.214 -15.4973 162.214V159.965C1.8478 159.965 10.6736 157.257 19.2039 154.636C27.8928 151.971 36.8773 149.208 54.5616 149.208C72.246 149.208 81.2304 151.966 89.9194 154.636C98.4497 157.257 107.275 159.965 124.621 159.965V162.214Z" fill="#2557A5"/>
<path d="M124.621 167.04C106.947 167.04 97.9682 164.282 89.2792 161.612C80.7434 158.991 71.9176 156.277 54.5561 156.277C37.1946 156.277 28.3688 158.991 19.8331 161.612C11.1496 164.277 2.16511 167.04 -15.5083 167.04V164.933C1.84776 164.933 10.679 162.219 19.2148 159.598C27.8983 156.934 36.8827 154.17 54.5561 154.17C72.2295 154.17 81.2085 156.928 89.8975 159.598C98.4332 162.219 107.259 164.933 124.621 164.933V167.04Z" fill="#2557A5"/>
<path d="M124.621 171.866C106.958 171.866 97.9846 169.108 89.3011 166.438C80.7599 163.817 71.9286 161.103 54.5616 161.103C37.1946 161.103 28.3634 163.817 19.8222 166.438C11.1387 169.103 2.16516 171.866 -15.4973 171.866V169.891C1.86969 169.891 10.7009 167.177 19.2422 164.556C27.9257 161.891 36.8992 159.128 54.5616 159.128C72.2241 159.128 81.1976 161.886 89.8811 164.556C98.4223 167.177 107.254 169.891 124.621 169.891V171.866Z" fill="#2557A5"/>
<path d="M124.621 176.686C106.969 176.686 97.9956 173.934 89.323 171.269C80.7763 168.643 71.9396 165.935 54.5616 165.935C37.1837 165.935 28.347 168.649 19.8003 171.269C11.1277 173.934 2.15421 176.686 -15.4973 176.686V174.853C1.88063 174.853 10.7173 172.139 19.264 169.518C27.9366 166.854 36.9101 164.102 54.5616 164.102C72.2132 164.102 81.1867 166.854 89.8592 169.518C98.4059 172.145 107.243 174.853 124.621 174.853V176.686Z" fill="#2557A5"/>
<path d="M124.621 181.507C106.98 181.507 98.012 178.755 89.3449 176.09C80.7927 173.464 71.9505 170.75 54.5616 170.75C37.1727 170.75 28.3306 173.469 19.7784 176.09C11.1113 178.755 2.14327 181.507 -15.4973 181.507V179.816C1.89158 179.816 10.7338 177.097 19.2859 174.476C27.953 171.811 36.921 169.059 54.5616 169.059C72.2022 169.059 81.1702 171.811 89.8373 174.476C98.3895 177.102 107.232 179.816 124.621 179.816V181.507Z" fill="#2557A5"/>
<path d="M124.621 186.333C106.991 186.333 98.0284 183.581 89.3668 180.922C80.8091 178.295 71.9615 175.576 54.5616 175.576C37.1618 175.576 28.3196 178.295 19.7565 180.922C11.0894 183.586 2.13233 186.333 -15.4973 186.333V184.785C1.90252 184.785 10.7447 182.065 19.3078 179.439C27.9749 176.774 36.932 174.027 54.5616 174.027C72.1913 174.027 81.1538 176.78 89.8154 179.439C98.3731 182.065 107.221 184.785 124.621 184.785V186.333Z" fill="#2557A5"/>
<path d="M124.621 191.159C107.002 191.159 98.0448 188.406 89.3832 185.747C80.8255 183.121 71.9724 180.401 54.5616 180.401C37.1509 180.401 28.3032 183.121 19.7401 185.747C11.073 188.412 2.12138 191.159 -15.4973 191.159V189.747C1.91346 189.747 10.7611 187.028 19.3242 184.401C27.9913 181.737 36.9429 178.99 54.5616 178.99C72.1803 178.99 81.1374 181.742 89.799 184.401C98.3567 187.028 107.21 189.747 124.621 189.747V191.159Z" fill="#2557A5"/>
<path d="M124.621 195.979C107.013 195.979 98.0612 193.227 89.4051 190.573C80.8419 187.941 71.9834 185.222 54.5616 185.222C37.1399 185.222 28.2868 187.941 19.7182 190.573C11.0621 193.227 2.11044 195.979 -15.4973 195.979V194.71C1.92441 194.71 10.7775 191.99 19.3461 189.359C28.0023 186.705 36.9539 183.953 54.5616 183.953C72.1694 183.953 81.121 186.705 89.7772 189.359C98.3403 191.99 107.199 194.71 124.621 194.71V195.979Z" fill="#2557A5"/>
<path d="M124.621 200.8C107.018 200.8 98.0776 198.053 89.4215 195.394C80.8529 192.762 71.9888 190.037 54.5616 190.037C37.1344 190.037 28.2649 192.757 19.7018 195.394C11.0511 198.053 2.10497 200.8 -15.4973 200.8V199.673C1.92988 199.673 10.7994 196.953 19.3625 194.316C28.0132 191.657 36.9593 188.91 54.5616 188.91C72.1639 188.91 81.1046 191.657 89.7607 194.316C98.3293 196.948 107.193 199.673 124.621 199.673V200.8Z" fill="#2557A5"/>
<path d="M124.621 205.626C107.035 205.626 98.094 202.879 89.4434 200.225C80.8693 197.594 71.9998 194.869 54.5616 194.869C37.1235 194.869 28.254 197.594 19.6799 200.225C11.0347 202.879 2.09403 205.626 -15.4973 205.626V204.641C1.94629 204.641 10.8103 201.916 19.3844 199.284C28.0296 196.631 36.9703 193.884 54.5616 193.884C72.153 193.884 81.0882 196.631 89.7388 199.284C98.3129 201.916 107.182 204.641 124.621 204.641V205.626Z" fill="#2557A5"/>
<path d="M124.621 210.452C107.04 210.452 98.1105 207.705 89.4653 205.052C80.8857 202.42 72.0107 199.695 54.5616 199.695C37.1126 199.695 28.2375 202.42 19.658 205.052C11.0128 207.705 2.08308 210.452 -15.4973 210.452V209.599C1.95176 209.599 10.8268 206.874 19.4063 204.242C28.0515 201.588 36.9812 198.841 54.5616 198.841C72.142 198.841 81.0718 201.588 89.717 204.242C98.2965 206.874 107.172 209.599 124.621 209.599V210.452Z" fill="#2557A5"/>
<path d="M124.621 215.273C107.051 215.273 98.1214 212.531 89.4871 209.883C80.9021 207.246 72.0271 204.521 54.5616 204.521C37.0961 204.521 28.2211 207.246 19.6361 209.883C11.0019 212.531 2.06667 215.273 -15.4973 215.273V214.561C1.96271 214.561 10.8432 211.836 19.4282 209.199C28.0625 206.551 36.9977 203.81 54.5616 203.81C72.1256 203.81 81.0608 206.551 89.6951 209.199C98.2801 211.836 107.155 214.561 124.621 214.561V215.273Z" fill="#2557A5"/>
<path d="M124.621 220.093C107.062 220.093 98.1378 217.352 89.509 214.703C80.9185 212.066 72.0326 209.336 54.5616 209.336C37.0907 209.336 28.2047 212.066 19.6142 214.703C10.9854 217.352 2.0612 220.093 -15.4973 220.093V219.524C1.97365 219.524 10.8596 216.794 19.4501 214.156C28.0789 211.508 37.0031 208.767 54.5616 208.767C72.1201 208.767 81.0444 211.508 89.6732 214.156C98.2637 216.794 107.15 219.524 124.621 219.524V220.093Z" fill="#2557A5"/>
<path d="M404.862 83.4111C387.156 83.4111 378.16 80.648 369.46 77.9778C360.935 75.3623 352.126 72.6594 334.803 72.6594C317.48 72.6594 308.665 75.3623 300.145 77.9778C291.446 80.648 282.45 83.4111 264.744 83.4111V80.8778C282.067 80.8778 290.882 78.1748 299.401 75.5593C308.101 72.8892 317.097 70.126 334.803 70.126C352.509 70.126 361.505 72.8892 370.204 75.5593C378.729 78.1748 387.539 80.8778 404.862 80.8778V83.4111Z" fill="#2557A5"/>
<path d="M404.862 88.2372C387.172 88.2372 378.177 85.4741 369.482 82.8039C360.957 80.1884 352.143 77.48 334.803 77.48C317.463 77.48 308.648 80.1884 300.124 82.8039C291.429 85.4741 282.434 88.2372 264.744 88.2372V85.8461C282.084 85.8461 290.898 83.1377 299.423 80.5222C308.118 77.8521 317.113 75.0889 334.803 75.0889C352.493 75.0889 361.488 77.8521 370.183 80.5222C378.707 83.1377 387.522 85.8461 404.862 85.8461V88.2372Z" fill="#2557A5"/>
<path d="M404.862 93.0579C387.177 93.0579 378.193 90.3002 369.504 87.63C360.974 85.0091 352.148 82.3006 334.803 82.3006C317.458 82.3006 308.632 85.0091 300.102 87.63C291.413 90.3002 282.428 93.0579 264.744 93.0579V90.809C282.089 90.809 290.915 88.1005 299.445 85.4796C308.134 82.8095 317.119 80.0518 334.803 80.0518C352.487 80.0518 361.472 82.8095 370.161 85.4796C378.691 88.1005 387.517 90.809 404.862 90.809V93.0579Z" fill="#2557A5"/>
<path d="M404.862 97.884C387.188 97.884 378.209 95.1263 369.52 92.4561C360.985 89.8352 352.159 87.1212 334.797 87.1212C317.436 87.1212 308.61 89.8352 300.074 92.4561C291.391 95.1208 282.406 97.884 264.733 97.884V95.7774C282.089 95.7774 290.92 93.0634 299.456 90.4425C308.139 87.7778 317.124 85.0146 334.797 85.0146C352.471 85.0146 361.45 87.7724 370.139 90.4425C378.674 93.0634 387.5 95.7774 404.862 95.7774V97.884Z" fill="#2557A5"/>
<path d="M404.862 102.704C387.199 102.704 378.226 99.9465 369.542 97.2818C361.001 94.6554 352.17 91.9469 334.803 91.9469C317.436 91.9469 308.605 94.6554 300.063 97.2818C291.38 99.9465 282.406 102.704 264.744 102.704V100.729C282.111 100.729 290.942 98.0205 299.483 95.3941C308.167 92.7294 317.14 89.9717 334.803 89.9717C352.465 89.9717 361.439 92.7294 370.122 95.3941C378.664 98.0205 387.495 100.729 404.862 100.729V102.704Z" fill="#2557A5"/>
<path d="M404.862 107.53C387.21 107.53 378.237 104.778 369.564 102.108C361.018 99.4814 352.181 96.7729 334.803 96.7729C317.425 96.7729 308.588 99.4869 300.041 102.108C291.369 104.772 282.395 107.53 264.744 107.53V105.697C282.122 105.697 290.959 102.983 299.505 100.362C308.178 97.6976 317.151 94.9399 334.803 94.9399C352.454 94.9399 361.428 97.6922 370.1 100.362C378.647 102.989 387.484 105.697 404.862 105.697V107.53Z" fill="#2557A5"/>
<path d="M404.862 112.351C387.221 112.351 378.253 109.599 369.586 106.934C361.034 104.308 352.192 101.594 334.803 101.594C317.414 101.594 308.572 104.313 300.02 106.934C291.353 109.599 282.384 112.351 264.744 112.351V110.66C282.133 110.66 290.975 107.941 299.527 105.32C308.194 102.655 317.162 99.9028 334.803 99.9028C352.443 99.9028 361.411 102.655 370.079 105.32C378.631 107.946 387.473 110.66 404.862 110.66V112.351Z" fill="#2557A5"/>
<path d="M264.744 117.177V115.628C282.144 115.628 290.986 112.909 299.549 110.283C308.216 107.618 317.173 104.871 334.803 104.871C352.433 104.871 361.395 107.623 370.057 110.277C378.614 112.903 387.462 115.623 404.862 115.623V117.171C387.232 117.171 378.27 114.419 369.608 111.765C361.05 109.139 352.203 106.42 334.803 106.42C317.403 106.42 308.561 109.139 299.998 111.765C291.331 114.43 282.374 117.177 264.744 117.177Z" fill="#2557A5"/>
<path d="M404.862 121.998C387.243 121.998 378.286 119.245 369.624 116.586C361.067 113.96 352.214 111.24 334.803 111.24C317.392 111.24 308.544 113.96 299.981 116.586C291.314 119.251 282.363 121.998 264.744 121.998V120.586C282.155 120.586 291.002 117.866 299.565 115.24C308.233 112.575 317.184 109.829 334.803 109.829C352.422 109.829 361.379 112.581 370.04 115.24C378.598 117.866 387.451 120.586 404.862 120.586V121.998Z" fill="#2557A5"/>
<path d="M404.862 126.824C387.254 126.824 378.302 124.071 369.646 121.418C361.083 118.791 352.225 116.066 334.803 116.066C317.381 116.066 308.528 118.786 299.959 121.418C291.303 124.077 282.352 126.824 264.744 126.824V125.554C282.166 125.554 291.019 122.835 299.587 120.203C308.244 117.544 317.195 114.797 334.803 114.797C352.411 114.797 361.362 117.549 370.018 120.203C378.581 122.829 387.44 125.554 404.862 125.554V126.824Z" fill="#2557A5"/>
<path d="M404.862 131.644C387.26 131.644 378.319 128.897 369.663 126.238C361.094 123.606 352.23 120.881 334.803 120.881C317.376 120.881 308.506 123.6 299.943 126.238C291.292 128.897 282.346 131.644 264.744 131.644V130.517C282.171 130.517 291.041 127.797 299.604 125.16C308.254 122.501 317.201 119.754 334.803 119.754C352.405 119.754 361.346 122.501 370.002 125.16C378.571 127.792 387.435 130.517 404.862 130.517V131.644Z" fill="#2557A5"/>
<path d="M404.862 136.464C387.276 136.464 378.335 133.723 369.685 131.069C361.111 128.437 352.241 125.712 334.803 125.712C317.365 125.712 308.495 128.437 299.921 131.069C291.276 133.723 282.335 136.464 264.744 136.464V135.479C282.188 135.479 291.052 132.754 299.626 130.123C308.271 127.469 317.212 124.728 334.803 124.728C352.394 124.728 361.329 127.469 369.98 130.123C378.554 132.754 387.424 135.479 404.862 135.479V136.464Z" fill="#2557A5"/>
<path d="M404.862 141.291C387.281 141.291 378.352 138.544 369.706 135.89C361.127 133.258 352.252 130.533 334.803 130.533C317.354 130.533 308.479 133.258 299.899 135.89C291.254 138.544 282.324 141.291 264.744 141.291V140.437C282.193 140.437 291.068 137.712 299.648 135.08C308.293 132.426 317.222 129.68 334.803 129.68C352.383 129.68 361.313 132.426 369.958 135.08C378.538 137.712 387.413 140.437 404.862 140.437V141.291Z" fill="#2557A5"/>
<path d="M404.862 146.117C387.292 146.117 378.363 143.375 369.728 140.721C361.143 138.084 352.268 135.359 334.803 135.359C317.337 135.359 308.462 138.084 299.877 140.721C291.243 143.375 282.308 146.117 264.744 146.117V145.405C282.204 145.405 291.084 142.68 299.669 140.043C308.304 137.389 317.239 134.648 334.803 134.648C352.367 134.648 361.302 137.389 369.936 140.043C378.521 142.68 387.396 145.405 404.862 145.405V146.117Z" fill="#2557A5"/>
<path d="M404.862 150.937C387.303 150.937 378.379 148.195 369.75 145.547C361.16 142.91 352.274 140.179 334.803 140.179C317.332 140.179 308.446 142.91 299.855 145.547C291.227 148.195 282.302 150.937 264.744 150.937V150.368C282.215 150.368 291.101 147.637 299.691 145C308.32 142.352 317.244 139.61 334.803 139.61C352.361 139.61 361.286 142.352 369.914 145C378.505 147.637 387.391 150.368 404.862 150.368V150.937Z" fill="#2557A5"/>
<path d="M194.685 162.717C176.973 162.717 167.983 159.954 159.278 157.279C150.753 154.663 141.944 151.96 124.621 151.96V149.427C142.327 149.427 151.322 152.19 160.022 154.866C168.547 157.481 177.356 160.184 194.685 160.184C212.014 160.184 220.823 157.481 229.342 154.866C238.042 152.19 247.038 149.427 264.744 149.427V151.96C247.421 151.96 238.606 154.663 230.087 157.279C221.387 159.954 212.391 162.717 194.685 162.717Z" fill="#2557A5"/>
<path d="M194.685 157.749C176.99 157.749 168 154.986 159.3 152.316C150.775 149.7 141.955 146.992 124.621 146.992V144.601C142.31 144.601 151.306 147.364 160 150.034C168.525 152.649 177.345 155.358 194.685 155.358C212.025 155.358 220.839 152.649 229.364 150.034C238.059 147.364 247.054 144.601 264.744 144.601V146.992C247.404 146.992 238.59 149.7 230.065 152.316C221.37 154.986 212.375 157.749 194.685 157.749Z" fill="#2557A5"/>
<path d="M194.685 152.786C176.995 152.786 168.011 150.029 159.322 147.359C150.791 144.738 141.966 142.029 124.621 142.029V139.78C142.305 139.78 151.289 142.538 159.978 145.208C168.509 147.829 177.334 150.538 194.68 150.538C212.025 150.538 220.85 147.829 229.381 145.208C238.07 142.538 247.054 139.78 264.739 139.78V142.029C247.393 142.029 238.568 144.738 230.037 147.359C221.348 150.029 212.364 152.786 194.68 152.786H194.685Z" fill="#2557A5"/>
<path d="M194.685 147.818C177.012 147.818 168.027 145.066 159.344 142.396C150.802 139.775 141.982 137.061 124.621 137.061V134.954C142.294 134.954 151.273 137.706 159.962 140.376C168.503 142.997 177.329 145.711 194.685 145.711C212.041 145.711 220.872 142.997 229.408 140.376C238.092 137.712 247.076 134.954 264.749 134.954V137.061C247.393 137.061 238.562 139.775 230.026 142.396C221.343 145.06 212.358 147.818 194.685 147.818Z" fill="#2557A5"/>
<path d="M194.685 142.866C177.023 142.866 168.044 140.109 159.36 137.439C150.819 134.818 141.988 132.104 124.621 132.104V130.128C142.283 130.128 151.257 132.886 159.94 135.556C168.481 138.177 177.313 140.891 194.685 140.891C212.057 140.891 220.883 138.177 229.424 135.556C238.108 132.892 247.081 130.128 264.744 130.128V132.104C247.377 132.104 238.546 134.818 230.004 137.439C221.321 140.103 212.347 142.866 194.685 142.866Z" fill="#2557A5"/>
<path d="M194.685 137.898C177.028 137.898 168.06 135.146 159.382 132.475C150.835 129.849 141.999 127.141 124.621 127.141V125.308C142.272 125.308 151.246 128.06 159.918 130.73C168.465 133.356 177.307 136.065 194.685 136.065C212.063 136.065 220.9 133.351 229.446 130.73C238.119 128.065 247.092 125.308 264.744 125.308V127.141C247.366 127.141 238.529 129.855 229.983 132.475C221.31 135.14 212.337 137.898 194.685 137.898Z" fill="#2557A5"/>
<path d="M194.685 132.935C177.044 132.935 168.071 130.183 159.404 127.524C150.852 124.897 142.009 122.183 124.621 122.183V120.493C142.261 120.493 151.229 123.245 159.896 125.904C168.448 128.531 177.291 131.244 194.685 131.244C212.079 131.244 220.916 128.525 229.468 125.904C238.135 123.239 247.103 120.493 264.744 120.493V122.183C247.355 122.183 238.513 124.903 229.961 127.524C221.294 130.188 212.326 132.935 194.685 132.935Z" fill="#2557A5"/>
<path d="M194.685 127.972C177.05 127.972 168.087 125.22 159.426 122.561C150.868 119.934 142.02 117.215 124.621 117.215V115.667C142.25 115.667 151.213 118.419 159.874 121.078C168.432 123.704 177.285 126.424 194.685 126.424C212.085 126.424 220.927 123.704 229.49 121.078C238.157 118.413 247.114 115.667 264.744 115.667V117.215C247.344 117.215 238.502 119.934 229.939 122.561C221.272 125.225 212.315 127.972 194.685 127.972Z" fill="#2557A5"/>
<path d="M194.685 123.01C177.066 123.01 168.109 120.258 159.442 117.598C150.885 114.972 142.031 112.253 124.621 112.253V110.841C142.239 110.841 151.196 113.593 159.853 116.252C168.416 118.879 177.269 121.598 194.68 121.598C212.09 121.598 220.938 118.879 229.501 116.252C238.168 113.588 247.12 110.841 264.739 110.841V112.253C247.328 112.253 238.48 114.972 229.917 117.598C221.25 120.263 212.298 123.01 194.68 123.01H194.685Z" fill="#2557A5"/>
<path d="M194.685 118.047C177.072 118.047 168.12 115.294 159.464 112.641C150.901 110.014 142.042 107.289 124.621 107.289V106.02C142.228 106.02 151.18 108.772 159.836 111.426C168.399 114.052 177.263 116.777 194.68 116.777C212.096 116.777 220.954 114.058 229.523 111.426C238.179 108.767 247.131 106.02 264.739 106.02V107.289C247.317 107.289 238.464 110.009 229.895 112.641C221.239 115.3 212.287 118.047 194.68 118.047H194.685Z" fill="#2557A5"/>
<path d="M194.685 113.079C177.083 113.079 168.136 110.332 159.486 107.678C150.917 105.046 142.053 102.321 124.626 102.321V101.194C142.228 101.194 151.169 103.941 159.825 106.595C168.394 109.227 177.258 111.952 194.69 111.952C212.123 111.952 220.987 109.232 229.55 106.595C238.201 103.941 247.147 101.194 264.749 101.194V102.321C247.322 102.321 238.453 105.041 229.89 107.678C221.239 110.332 212.293 113.079 194.69 113.079H194.685Z" fill="#2557A5"/>
<path d="M194.685 108.116C177.094 108.116 168.153 105.369 159.502 102.715C150.928 100.083 142.059 97.3584 124.621 97.3584V96.3735C142.206 96.3735 151.147 99.1203 159.798 101.774C168.372 104.406 177.241 107.131 194.685 107.131C212.129 107.131 220.993 104.406 229.567 101.774C238.212 99.1203 247.153 96.3735 264.744 96.3735V97.3584C247.3 97.3584 238.436 100.083 229.862 102.715C221.217 105.369 212.276 108.116 194.685 108.116Z" fill="#2557A5"/>
<path d="M194.685 103.159C177.105 103.159 168.169 100.412 159.524 97.7582C150.945 95.1263 142.07 92.4014 124.621 92.4014V91.5479C142.201 91.5479 151.131 94.2946 159.776 96.9484C168.355 99.5802 177.23 102.305 194.685 102.305C212.14 102.305 221.009 99.5802 229.589 96.9484C238.234 94.2946 247.164 91.5479 264.744 91.5479V92.4014C247.295 92.4014 238.42 95.1263 229.84 97.7582C221.195 100.412 212.265 103.159 194.685 103.159Z" fill="#2557A5"/>
<path d="M194.685 98.1902C177.116 98.1902 168.18 95.4489 159.546 92.7952C150.961 90.1579 142.086 87.433 124.621 87.433V86.7217C142.19 86.7217 151.12 89.463 159.754 92.1167C168.339 94.7541 177.22 97.4789 194.685 97.4789C212.151 97.4789 221.026 94.7541 229.611 92.1167C238.245 89.463 247.18 86.7217 264.744 86.7217V87.433C247.284 87.433 238.403 90.1579 229.818 92.7952C221.184 95.4489 212.249 98.1902 194.685 98.1902Z" fill="#2557A5"/>
<path d="M194.685 93.2272C177.127 93.2272 168.197 90.4859 159.568 87.8376C150.978 85.2003 142.092 82.4699 124.621 82.4699V81.9009C142.179 81.9009 151.103 84.6422 159.732 87.2904C168.328 89.9278 177.209 92.6581 194.685 92.6581C212.161 92.6581 221.042 89.9278 229.632 87.2904C238.261 84.6422 247.185 81.9009 264.744 81.9009V82.4699C247.273 82.4699 238.387 85.2003 229.797 87.8376C221.168 90.4859 212.244 93.2272 194.685 93.2272Z" fill="#2557A5"/>
<path d="M124.621 83.4111C106.914 83.4111 97.9189 80.648 89.219 77.9778C80.6942 75.3623 71.8849 72.6594 54.5616 72.6594C37.2384 72.6594 28.4236 75.3623 19.9042 77.9778C11.2043 80.648 2.20893 83.4111 -15.4973 83.4111V80.8778C1.82592 80.8778 10.6407 78.1748 19.1601 75.5593C27.86 72.8892 36.8554 70.126 54.5616 70.126C72.2679 70.126 81.2633 72.8892 89.9632 75.5593C98.488 78.1748 107.297 80.8778 124.621 80.8778V83.4111Z" fill="#2557A5"/>
<path d="M124.621 88.2372C106.931 88.2372 97.9354 85.4741 89.2409 82.8039C80.7161 80.1884 71.9013 77.48 54.5616 77.48C37.222 77.48 28.4072 80.1884 19.8823 82.8039C11.1879 85.4741 2.19252 88.2372 -15.4973 88.2372V85.8461C1.84233 85.8461 10.6571 83.1377 19.182 80.5222C27.8764 77.8521 36.8718 75.0889 54.5616 75.0889C72.2515 75.0889 81.2468 77.8521 89.9413 80.5222C98.4661 83.1377 107.281 85.8461 124.621 85.8461V88.2372Z" fill="#2557A5"/>
<path d="M124.621 93.0579C106.936 93.0579 97.9518 90.3002 89.2628 87.63C80.7325 85.0091 71.9067 82.3006 54.5616 82.3006C37.2165 82.3006 28.3907 85.0091 19.8604 87.63C11.1715 90.3002 2.18704 93.0579 -15.4973 93.0579V90.809C1.8478 90.809 10.6736 88.1005 19.2039 85.4796C27.8928 82.8095 36.8773 80.0518 54.5616 80.0518C72.246 80.0518 81.2304 82.8095 89.9194 85.4796C98.4497 88.1005 107.275 90.809 124.621 90.809V93.0579Z" fill="#2557A5"/>
<path d="M124.621 97.884C106.947 97.884 97.9682 95.1263 89.2792 92.4561C80.7434 89.8352 71.9176 87.1212 54.5561 87.1212C37.1946 87.1212 28.3688 89.8352 19.8331 92.4561C11.1496 95.1208 2.16511 97.884 -15.5083 97.884V95.7774C1.84776 95.7774 10.679 93.0634 19.2148 90.4425C27.8983 87.7778 36.8827 85.0146 54.5561 85.0146C72.2295 85.0146 81.2085 87.7724 89.8975 90.4425C98.4332 93.0634 107.259 95.7774 124.621 95.7774V97.884Z" fill="#2557A5"/>
<path d="M124.621 102.704C106.958 102.704 97.9846 99.9465 89.3011 97.2818C80.7599 94.6554 71.9286 91.9469 54.5616 91.9469C37.1946 91.9469 28.3634 94.6554 19.8222 97.2818C11.1387 99.9465 2.16516 102.704 -15.4973 102.704V100.729C1.86969 100.729 10.7009 98.0205 19.2422 95.3941C27.9257 92.7294 36.8992 89.9717 54.5616 89.9717C72.2241 89.9717 81.1976 92.7294 89.8811 95.3941C98.4223 98.0205 107.254 100.729 124.621 100.729V102.704Z" fill="#2557A5"/>
<path d="M124.621 107.53C106.969 107.53 97.9956 104.778 89.323 102.108C80.7763 99.4814 71.9396 96.7729 54.5616 96.7729C37.1837 96.7729 28.347 99.4869 19.8003 102.108C11.1277 104.772 2.15421 107.53 -15.4973 107.53V105.697C1.88063 105.697 10.7173 102.983 19.264 100.362C27.9366 97.6976 36.9101 94.9399 54.5616 94.9399C72.2132 94.9399 81.1867 97.6922 89.8592 100.362C98.4059 102.989 107.243 105.697 124.621 105.697V107.53Z" fill="#2557A5"/>
<path d="M124.621 112.351C106.98 112.351 98.012 109.599 89.3449 106.934C80.7927 104.308 71.9505 101.594 54.5616 101.594C37.1727 101.594 28.3306 104.313 19.7784 106.934C11.1113 109.599 2.14327 112.351 -15.4973 112.351V110.66C1.89158 110.66 10.7338 107.941 19.2859 105.32C27.953 102.655 36.921 99.9028 54.5616 99.9028C72.2022 99.9028 81.1702 102.655 89.8373 105.32C98.3895 107.946 107.232 110.66 124.621 110.66V112.351Z" fill="#2557A5"/>
<path d="M-15.4973 117.177V115.628C1.90252 115.628 10.7447 112.909 19.3078 110.283C27.9749 107.618 36.932 104.871 54.5616 104.871C72.1913 104.871 81.1538 107.623 89.8154 110.277C98.3731 112.903 107.221 115.623 124.621 115.623V117.171C106.991 117.171 98.0284 114.419 89.3668 111.765C80.8091 109.139 71.9615 106.42 54.5616 106.42C37.1618 106.42 28.3196 109.139 19.7565 111.765C11.0894 114.43 2.13233 117.177 -15.4973 117.177Z" fill="#2557A5"/>
<path d="M124.621 121.998C107.002 121.998 98.0448 119.245 89.3832 116.586C80.8255 113.96 71.9724 111.24 54.5616 111.24C37.1509 111.24 28.3032 113.96 19.7401 116.586C11.073 119.251 2.12138 121.998 -15.4973 121.998V120.586C1.91346 120.586 10.7611 117.866 19.3242 115.24C27.9913 112.575 36.9429 109.829 54.5616 109.829C72.1803 109.829 81.1374 112.581 89.799 115.24C98.3567 117.866 107.21 120.586 124.621 120.586V121.998Z" fill="#2557A5"/>
<path d="M124.621 126.824C107.013 126.824 98.0612 124.071 89.4051 121.418C80.8419 118.791 71.9834 116.066 54.5616 116.066C37.1399 116.066 28.2868 118.786 19.7182 121.418C11.0621 124.077 2.11044 126.824 -15.4973 126.824V125.554C1.92441 125.554 10.7775 122.835 19.3461 120.203C28.0023 117.544 36.9539 114.797 54.5616 114.797C72.1694 114.797 81.121 117.549 89.7772 120.203C98.3403 122.829 107.199 125.554 124.621 125.554V126.824Z" fill="#2557A5"/>
<path d="M124.621 131.644C107.018 131.644 98.0776 128.897 89.4215 126.238C80.8529 123.606 71.9888 120.881 54.5616 120.881C37.1344 120.881 28.2649 123.6 19.7018 126.238C11.0511 128.897 2.10497 131.644 -15.4973 131.644V130.517C1.92988 130.517 10.7994 127.797 19.3625 125.16C28.0132 122.501 36.9593 119.754 54.5616 119.754C72.1639 119.754 81.1046 122.501 89.7607 125.16C98.3293 127.792 107.193 130.517 124.621 130.517V131.644Z" fill="#2557A5"/>
<path d="M124.621 136.464C107.035 136.464 98.094 133.723 89.4434 131.069C80.8693 128.437 71.9998 125.712 54.5616 125.712C37.1235 125.712 28.254 128.437 19.6799 131.069C11.0347 133.723 2.09403 136.464 -15.4973 136.464V135.479C1.94629 135.479 10.8103 132.754 19.3844 130.123C28.0296 127.469 36.9703 124.728 54.5616 124.728C72.153 124.728 81.0882 127.469 89.7388 130.123C98.3129 132.754 107.182 135.479 124.621 135.479V136.464Z" fill="#2557A5"/>
<path d="M124.621 141.291C107.04 141.291 98.1105 138.544 89.4653 135.89C80.8857 133.258 72.0107 130.533 54.5616 130.533C37.1126 130.533 28.2375 133.258 19.658 135.89C11.0128 138.544 2.08308 141.291 -15.4973 141.291V140.437C1.95176 140.437 10.8268 137.712 19.4063 135.08C28.0515 132.426 36.9812 129.68 54.5616 129.68C72.142 129.68 81.0718 132.426 89.717 135.08C98.2965 137.712 107.172 140.437 124.621 140.437V141.291Z" fill="#2557A5"/>
<path d="M124.621 146.117C107.051 146.117 98.1214 143.375 89.4871 140.721C80.9021 138.084 72.0271 135.359 54.5616 135.359C37.0961 135.359 28.2211 138.084 19.6361 140.721C11.0019 143.375 2.06667 146.117 -15.4973 146.117V145.405C1.96271 145.405 10.8432 142.68 19.4282 140.043C28.0625 137.389 36.9977 134.648 54.5616 134.648C72.1256 134.648 81.0608 137.389 89.6951 140.043C98.2801 142.68 107.155 145.405 124.621 145.405V146.117Z" fill="#2557A5"/>
<path d="M124.621 150.937C107.062 150.937 98.1378 148.195 89.509 145.547C80.9185 142.91 72.0326 140.179 54.5616 140.179C37.0907 140.179 28.2047 142.91 19.6142 145.547C10.9854 148.195 2.0612 150.937 -15.4973 150.937V150.368C1.97365 150.368 10.8596 147.637 19.4501 145C28.0789 142.352 37.0031 139.61 54.5616 139.61C72.1201 139.61 81.0444 142.352 89.6732 145C98.2637 147.637 107.15 150.368 124.621 150.368V150.937Z" fill="#2557A5"/>
<path d="M404.862 14.255C387.156 14.255 378.16 11.4918 369.46 8.81617C360.935 6.20072 352.126 3.49773 334.803 3.49773C317.48 3.49773 308.665 6.20072 300.145 8.81617C291.446 11.4918 282.45 14.255 264.744 14.255V11.7216C282.067 11.7216 290.882 9.01862 299.401 6.40317C308.101 3.72754 317.097 0.964355 334.803 0.964355C352.509 0.964355 361.505 3.72754 370.204 6.40317C378.729 9.01862 387.539 11.7216 404.862 11.7216V14.255Z" fill="#2557A5"/>
<path d="M404.862 19.081C387.172 19.081 378.177 16.3178 369.482 13.6476C360.957 11.0322 352.143 8.32373 334.803 8.32373C317.463 8.32373 308.648 11.0322 300.124 13.6476C291.429 16.3178 282.434 19.081 264.744 19.081V16.6899C282.084 16.6899 290.898 13.9814 299.423 11.366C308.118 8.6958 317.113 5.93262 334.803 5.93262C352.493 5.93262 361.488 8.6958 370.183 11.366C378.707 13.9814 387.522 16.6899 404.862 16.6899V19.081Z" fill="#2557A5"/>
<path d="M404.862 23.8962C387.177 23.8962 378.193 21.1385 369.504 18.4684C360.974 15.8474 352.148 13.139 334.803 13.139C317.458 13.139 308.632 15.8474 300.102 18.4684C291.413 21.1331 282.428 23.8962 264.744 23.8962V21.6474C282.089 21.6474 290.915 18.9389 299.445 16.318C308.134 13.6533 317.119 10.8901 334.803 10.8901C352.487 10.8901 361.472 13.6478 370.161 16.318C378.691 18.9389 387.517 21.6474 404.862 21.6474V23.8962Z" fill="#2557A5"/>
<path d="M404.862 28.7223C387.188 28.7223 378.209 25.9646 369.52 23.2945C360.985 20.6735 352.159 17.9596 334.797 17.9596C317.436 17.9596 308.61 20.6735 300.074 23.2945C291.391 25.9592 282.406 28.7223 264.733 28.7223V26.6158C282.089 26.6158 290.92 23.9018 299.456 21.2809C308.139 18.6162 317.124 15.853 334.797 15.853C352.471 15.853 361.45 18.6107 370.139 21.2809C378.674 23.9018 387.5 26.6158 404.862 26.6158V28.7223Z" fill="#2557A5"/>
<path d="M404.862 33.5481C387.199 33.5481 378.226 30.7903 369.542 28.1202C361.001 25.4993 352.17 22.7853 334.803 22.7853C317.436 22.7853 308.605 25.4993 300.063 28.1202C291.38 30.7849 282.406 33.5481 264.744 33.5481V31.5728C282.111 31.5728 290.942 28.8588 299.483 26.2379C308.167 23.5732 317.14 20.8101 334.803 20.8101C352.465 20.8101 361.439 23.5678 370.122 26.2379C378.664 28.8588 387.495 31.5728 404.862 31.5728V33.5481Z" fill="#2557A5"/>
<path d="M404.862 38.3739C387.21 38.3739 378.237 35.6217 369.564 32.9515C361.018 30.3252 352.181 27.6167 334.803 27.6167C317.425 27.6167 308.588 30.3306 300.041 32.9515C291.369 35.6162 282.395 38.3739 264.744 38.3739V36.5409C282.122 36.5409 290.959 33.827 299.505 31.2061C308.178 28.5414 317.151 25.7837 334.803 25.7837C352.454 25.7837 361.428 28.5359 370.1 31.2061C378.647 33.8325 387.484 36.5409 404.862 36.5409V38.3739Z" fill="#2557A5"/>
<path d="M404.862 43.1891C387.221 43.1891 378.253 40.4369 369.586 37.7776C361.034 35.1513 352.192 32.4373 334.803 32.4373C317.414 32.4373 308.572 35.1567 300.02 37.7776C291.353 40.4423 282.384 43.1891 264.744 43.1891V41.4984C282.133 41.4984 290.975 38.779 299.527 36.158C308.194 33.4933 317.162 30.7466 334.803 30.7466C352.443 30.7466 361.411 33.4988 370.079 36.158C378.631 38.7844 387.473 41.4984 404.862 41.4984V43.1891Z" fill="#2557A5"/>
<path d="M404.862 48.0152C387.232 48.0152 378.27 45.263 369.608 42.6037C361.05 39.9774 352.203 37.2579 334.803 37.2579C317.403 37.2579 308.561 39.9774 299.998 42.6037C291.331 45.2684 282.374 48.0152 264.744 48.0152V46.4667C282.144 46.4667 290.986 43.7473 299.549 41.1209C308.216 38.4562 317.173 35.7095 334.803 35.7095C352.433 35.7095 361.395 38.4617 370.057 41.1209C378.614 43.7473 387.462 46.4667 404.862 46.4667V48.0152Z" fill="#2557A5"/>
<path d="M404.862 52.8413C387.243 52.8413 378.286 50.0891 369.624 47.4298C361.067 44.8035 352.214 42.084 334.803 42.084C317.392 42.084 308.544 44.8035 299.981 47.4298C291.314 50.0945 282.363 52.8413 264.744 52.8413V51.4296C282.155 51.4296 291.002 48.7102 299.565 46.0838C308.233 43.4191 317.184 40.6724 334.803 40.6724C352.422 40.6724 361.379 43.4246 370.04 46.0838C378.598 48.7102 387.451 51.4296 404.862 51.4296V52.8413Z" fill="#2557A5"/>
<path d="M404.862 57.6673C387.254 57.6673 378.302 54.9151 369.646 52.2613C361.083 49.6349 352.225 46.91 334.803 46.91C317.381 46.91 308.528 49.6295 299.959 52.2613C291.303 54.9205 282.352 57.6673 264.744 57.6673V56.3979C282.166 56.3979 291.019 53.6785 299.587 51.0466C308.244 48.3874 317.195 45.6406 334.803 45.6406C352.411 45.6406 361.362 48.3929 370.018 51.0466C378.581 53.673 387.44 56.3979 404.862 56.3979V57.6673Z" fill="#2557A5"/>
<path d="M404.862 62.4821C387.26 62.4821 378.319 59.7353 369.663 57.0816C361.094 54.4497 352.23 51.7248 334.803 51.7248C317.376 51.7248 308.506 54.4442 299.943 57.0816C291.292 59.7353 282.346 62.4821 264.744 62.4821V61.3549C282.171 61.3549 291.041 58.6355 299.604 55.9982C308.254 53.3444 317.201 50.5977 334.803 50.5977C352.405 50.5977 361.346 53.3444 370.002 55.9982C378.571 58.63 387.435 61.3549 404.862 61.3549V62.4821Z" fill="#2557A5"/>
<path d="M404.862 67.3081C387.276 67.3081 378.335 64.5613 369.685 61.9076C361.111 59.2757 352.241 56.5508 334.803 56.5508C317.365 56.5508 308.495 59.2757 299.921 61.9076C291.276 64.5613 282.335 67.3081 264.744 67.3081V66.3232C282.188 66.3232 291.052 63.5983 299.626 60.9664C308.271 58.3127 317.212 55.5659 334.803 55.5659C352.394 55.5659 361.329 58.3127 369.98 60.9664C378.554 63.5983 387.424 66.3232 404.862 66.3232V67.3081Z" fill="#2557A5"/>
<path d="M404.862 72.1343C387.281 72.1343 378.352 69.3875 369.706 66.7338C361.127 64.1019 352.252 61.377 334.803 61.377C317.354 61.377 308.479 64.1019 299.899 66.7338C291.254 69.3875 282.324 72.1343 264.744 72.1343V71.2807C282.193 71.2807 291.068 68.5558 299.648 65.9239C308.293 63.2702 317.222 60.5234 334.803 60.5234C352.383 60.5234 361.313 63.2702 369.958 65.9239C378.538 68.5558 387.413 71.2807 404.862 71.2807V72.1343Z" fill="#2557A5"/>
<path d="M404.862 76.9548C387.292 76.9548 378.363 74.2135 369.728 71.5652C361.143 68.9279 352.268 66.203 334.803 66.203C317.337 66.203 308.462 68.9279 299.877 71.5652C291.243 74.2135 282.308 76.9548 264.744 76.9548V76.2435C282.204 76.2435 291.084 73.5186 299.669 70.8813C308.304 68.233 317.239 65.4917 334.803 65.4917C352.367 65.4917 361.302 68.233 369.936 70.8813C378.521 73.5186 387.396 76.2435 404.862 76.2435V76.9548Z" fill="#2557A5"/>
<path d="M404.862 81.775C387.303 81.775 378.379 79.0337 369.75 76.3855C361.16 73.7481 352.274 71.0178 334.803 71.0178C317.332 71.0178 308.446 73.7481 299.855 76.3855C291.227 79.0337 282.302 81.775 264.744 81.775V81.206C282.215 81.206 291.101 78.4756 299.691 75.8383C308.32 73.19 317.244 70.4487 334.803 70.4487C352.361 70.4487 361.286 73.19 369.914 75.8383C378.505 78.4756 387.391 81.206 404.862 81.206V81.775Z" fill="#2557A5"/>
<path d="M194.685 93.5557C176.973 93.5557 167.983 90.7925 159.278 88.1223C150.753 85.5069 141.944 82.8039 124.621 82.8039V80.2705C142.327 80.2705 151.322 83.0337 160.022 85.7039C168.547 88.3193 177.356 91.0223 194.685 91.0223C212.014 91.0223 220.823 88.3193 229.342 85.7039C238.042 83.0337 247.038 80.2705 264.744 80.2705V82.8039C247.421 82.8039 238.606 85.5069 230.087 88.1223C221.387 90.7925 212.391 93.5557 194.685 93.5557Z" fill="#2557A5"/>
<path d="M194.685 88.5927C176.99 88.5927 168 85.8295 159.3 83.1594C150.775 80.5439 141.955 77.8354 124.621 77.8354V75.4443C142.31 75.4443 151.306 78.2075 160 80.8777C168.525 83.4931 177.345 86.2016 194.685 86.2016C212.025 86.2016 220.839 83.4931 229.364 80.8777C238.059 78.2075 247.054 75.4443 264.744 75.4443V77.8354C247.404 77.8354 238.59 80.5439 230.065 83.1594C221.37 85.8295 212.375 88.5927 194.685 88.5927Z" fill="#2557A5"/>
<path d="M194.685 83.6301C176.995 83.6301 168.011 80.8724 159.322 78.2022C150.791 75.5813 141.966 72.8729 124.621 72.8729V70.624C142.305 70.624 151.289 73.3817 159.978 76.0519C168.509 78.6728 177.334 81.3813 194.68 81.3813C212.025 81.3813 220.85 78.6728 229.381 76.0519C238.07 73.3817 247.054 70.624 264.739 70.624V72.8729C247.393 72.8729 238.568 75.5813 230.037 78.2022C221.348 80.8724 212.364 83.6301 194.68 83.6301H194.685Z" fill="#2557A5"/>
<path d="M194.685 78.6618C177.012 78.6618 168.027 75.9041 159.344 73.2339C150.802 70.613 141.977 67.8991 124.621 67.8991V65.7925C142.294 65.7925 151.273 68.5502 159.962 71.2204C168.503 73.8413 177.329 76.5552 194.685 76.5552C212.041 76.5552 220.872 73.8413 229.408 71.2204C238.092 68.5557 247.076 65.7925 264.749 65.7925V67.8991C247.393 67.8991 238.562 70.613 230.026 73.2339C221.343 75.8986 212.358 78.6618 194.685 78.6618Z" fill="#2557A5"/>
<path d="M194.685 73.7047C177.023 73.7047 168.044 70.947 159.36 68.2823C150.819 65.6559 141.988 62.9474 124.621 62.9474V60.9722C142.283 60.9722 151.257 63.7299 159.94 66.3946C168.481 69.021 177.313 71.7294 194.685 71.7294C212.057 71.7294 220.883 69.021 229.424 66.3946C238.108 63.7299 247.081 60.9722 264.744 60.9722V62.9474C247.377 62.9474 238.546 65.6559 230.004 68.2823C221.321 70.947 212.347 73.7047 194.685 73.7047Z" fill="#2557A5"/>
<path d="M194.685 68.7416C177.028 68.7416 168.06 65.9894 159.382 63.3192C150.835 60.6928 141.999 57.9844 124.621 57.9844V56.1514C142.272 56.1514 151.246 58.9036 159.918 61.5738C168.465 64.2002 177.307 66.9086 194.685 66.9086C212.063 66.9086 220.9 64.1947 229.446 61.5738C238.119 58.9091 247.092 56.1514 264.744 56.1514V57.9844C247.366 57.9844 238.529 60.6983 229.983 63.3192C221.31 65.9839 212.337 68.7416 194.685 68.7416Z" fill="#2557A5"/>
<path d="M194.685 63.7737C177.044 63.7737 168.071 61.0214 159.404 58.3567C150.852 55.7304 142.009 53.0164 124.621 53.0164V51.3257C142.261 51.3257 151.229 54.0779 159.896 56.7426C168.448 59.369 177.291 62.0829 194.685 62.0829C212.079 62.0829 220.916 59.3635 229.468 56.7426C238.135 54.0779 247.103 51.3257 264.744 51.3257V53.0164C247.355 53.0164 238.513 55.7358 229.961 58.3567C221.294 61.0214 212.326 63.7737 194.685 63.7737Z" fill="#2557A5"/>
<path d="M194.685 58.8106C177.05 58.8106 168.087 56.0584 159.426 53.3992C150.868 50.7728 142.02 48.0534 124.621 48.0534V46.5049C142.25 46.5049 151.213 49.2571 159.874 51.9163C168.432 54.5427 177.285 57.2621 194.685 57.2621C212.085 57.2621 220.927 54.5427 229.49 51.9163C238.157 49.2516 247.114 46.5049 264.744 46.5049V48.0534C247.344 48.0534 238.502 50.7728 229.939 53.3992C221.272 56.0638 212.315 58.8106 194.685 58.8106Z" fill="#2557A5"/>
<path d="M194.685 53.848C177.066 53.848 168.109 51.0958 159.442 48.4421C150.885 45.8157 142.031 43.0963 124.621 43.0963V41.6846C142.239 41.6846 151.196 44.4368 159.853 47.0906C168.416 49.7169 177.269 52.4364 194.68 52.4364C212.09 52.4364 220.938 49.7169 229.507 47.0906C238.168 44.4313 247.12 41.6846 264.739 41.6846V43.0963C247.328 43.0963 238.48 45.8157 229.911 48.4421C221.25 51.1013 212.298 53.848 194.68 53.848H194.685Z" fill="#2557A5"/>
<path d="M194.685 48.8904C177.072 48.8904 168.12 46.1382 159.464 43.4845C150.901 40.8581 142.042 38.1332 124.621 38.1332V36.8638C142.228 36.8638 151.18 39.616 159.836 42.2698C168.399 44.8961 177.263 47.621 194.68 47.621C212.096 47.621 220.954 44.9016 229.523 42.2698C238.179 39.6105 247.131 36.8638 264.739 36.8638V38.1332C247.317 38.1332 238.464 40.8526 229.895 43.4845C221.239 46.1437 212.287 48.8904 194.68 48.8904H194.685Z" fill="#2557A5"/>
<path d="M194.685 43.9226C177.083 43.9226 168.136 41.1758 159.486 38.5166C150.917 35.8848 142.053 33.1599 124.626 33.1599V32.0327C142.228 32.0327 151.169 34.7795 159.825 37.4387C168.394 40.0706 177.258 42.7954 194.69 42.7954C212.123 42.7954 220.987 40.076 229.55 37.4387C238.201 34.7795 247.147 32.0327 264.749 32.0327V33.1599C247.322 33.1599 238.453 35.8793 229.89 38.5166C221.239 41.1758 212.293 43.9226 194.69 43.9226H194.685Z" fill="#2557A5"/>
<path d="M194.685 38.9598C177.094 38.9598 168.153 36.2185 159.502 33.5648C150.928 30.9329 142.059 28.208 124.621 28.208V27.2231C142.206 27.2231 151.147 29.9644 159.798 32.6182C168.372 35.25 177.241 37.9749 194.685 37.9749C212.129 37.9749 220.993 35.25 229.567 32.6182C238.212 29.9644 247.153 27.2231 264.744 27.2231V28.208C247.3 28.208 238.436 30.9329 229.862 33.5648C221.217 36.2185 212.276 38.9598 194.685 38.9598Z" fill="#2557A5"/>
<path d="M194.685 34.0024C177.105 34.0024 168.169 31.2557 159.524 28.6019C150.945 25.9701 142.07 23.2452 124.621 23.2452V22.3916C142.201 22.3916 151.131 25.1384 159.776 27.7921C168.355 30.424 177.23 33.1489 194.685 33.1489C212.14 33.1489 221.009 30.424 229.589 27.7921C238.234 25.1384 247.164 22.3916 264.744 22.3916V23.2452C247.295 23.2452 238.42 25.9701 229.84 28.6019C221.195 31.2557 212.265 34.0024 194.685 34.0024Z" fill="#2557A5"/>
<path d="M194.685 29.034C177.116 29.034 168.18 26.2927 159.546 23.639C150.961 21.0016 142.086 18.2767 124.621 18.2767V17.5654C142.19 17.5654 151.12 20.3067 159.754 22.9605C168.339 25.5978 177.22 28.3227 194.685 28.3227C212.151 28.3227 221.026 25.5978 229.611 22.9605C238.245 20.3067 247.18 17.5654 264.744 17.5654V18.2767C247.284 18.2767 238.403 21.0016 229.818 23.639C221.184 26.2927 212.249 29.034 194.685 29.034Z" fill="#2557A5"/>
<path d="M194.685 24.0714C177.127 24.0714 168.197 21.3301 159.568 18.6819C150.978 16.0445 142.092 13.3142 124.621 13.3142V12.7451C142.179 12.7451 151.103 15.4864 159.732 18.1347C168.328 20.772 177.209 23.5024 194.685 23.5024C212.161 23.5024 221.042 20.772 229.632 18.1347C238.261 15.4864 247.185 12.7451 264.744 12.7451V13.3142C247.273 13.3142 238.387 16.0445 229.797 18.6819C221.168 21.3301 212.244 24.0714 194.685 24.0714Z" fill="#2557A5"/>
<path d="M124.621 14.255C106.914 14.255 97.9189 11.4918 89.219 8.81617C80.6942 6.20072 71.8849 3.49773 54.5616 3.49773C37.2384 3.49773 28.4236 6.20072 19.9042 8.81617C11.2043 11.4918 2.20893 14.255 -15.4973 14.255V11.7216C1.82592 11.7216 10.6407 9.01862 19.1601 6.40317C27.86 3.72754 36.8554 0.964355 54.5616 0.964355C72.2679 0.964355 81.2633 3.72754 89.9632 6.40317C98.488 9.01862 107.297 11.7216 124.621 11.7216V14.255Z" fill="#2557A5"/>
<path d="M124.621 19.081C106.931 19.081 97.9354 16.3178 89.2409 13.6476C80.7161 11.0322 71.9013 8.32373 54.5616 8.32373C37.222 8.32373 28.4072 11.0322 19.8823 13.6476C11.1879 16.3178 2.19252 19.081 -15.4973 19.081V16.6899C1.84233 16.6899 10.6571 13.9814 19.182 11.366C27.8764 8.6958 36.8718 5.93262 54.5616 5.93262C72.2515 5.93262 81.2468 8.6958 89.9413 11.366C98.4661 13.9814 107.281 16.6899 124.621 16.6899V19.081Z" fill="#2557A5"/>
<path d="M124.621 23.8962C106.936 23.8962 97.9518 21.1385 89.2628 18.4684C80.7325 15.8474 71.9067 13.139 54.5616 13.139C37.2165 13.139 28.3907 15.8474 19.8604 18.4684C11.1715 21.1331 2.18704 23.8962 -15.4973 23.8962V21.6474C1.8478 21.6474 10.6736 18.9389 19.2039 16.318C27.8928 13.6533 36.8773 10.8901 54.5616 10.8901C72.246 10.8901 81.2304 13.6478 89.9194 16.318C98.4497 18.9389 107.275 21.6474 124.621 21.6474V23.8962Z" fill="#2557A5"/>
<path d="M124.621 28.7223C106.947 28.7223 97.9682 25.9646 89.2792 23.2945C80.7434 20.6735 71.9176 17.9596 54.5561 17.9596C37.1946 17.9596 28.3688 20.6735 19.8331 23.2945C11.1496 25.9592 2.16511 28.7223 -15.5083 28.7223V26.6158C1.84776 26.6158 10.679 23.9018 19.2148 21.2809C27.8983 18.6162 36.8827 15.853 54.5561 15.853C72.2295 15.853 81.2085 18.6107 89.8975 21.2809C98.4332 23.9018 107.259 26.6158 124.621 26.6158V28.7223Z" fill="#2557A5"/>
<path d="M124.621 33.5481C106.958 33.5481 97.9846 30.7903 89.3011 28.1202C80.7599 25.4993 71.9286 22.7853 54.5616 22.7853C37.1946 22.7853 28.3634 25.4993 19.8222 28.1202C11.1387 30.7849 2.16516 33.5481 -15.4973 33.5481V31.5728C1.86969 31.5728 10.7009 28.8588 19.2422 26.2379C27.9257 23.5732 36.8992 20.8101 54.5616 20.8101C72.2241 20.8101 81.1976 23.5678 89.8811 26.2379C98.4223 28.8588 107.254 31.5728 124.621 31.5728V33.5481Z" fill="#2557A5"/>
<path d="M124.621 38.3739C106.969 38.3739 97.9956 35.6217 89.323 32.9515C80.7763 30.3252 71.9396 27.6167 54.5616 27.6167C37.1837 27.6167 28.347 30.3306 19.8003 32.9515C11.1277 35.6162 2.15421 38.3739 -15.4973 38.3739V36.5409C1.88063 36.5409 10.7173 33.827 19.264 31.2061C27.9366 28.5414 36.9101 25.7837 54.5616 25.7837C72.2132 25.7837 81.1867 28.5359 89.8592 31.2061C98.4059 33.8325 107.243 36.5409 124.621 36.5409V38.3739Z" fill="#2557A5"/>
<path d="M124.621 43.1891C106.98 43.1891 98.012 40.4369 89.3449 37.7776C80.7927 35.1513 71.9505 32.4373 54.5616 32.4373C37.1727 32.4373 28.3306 35.1567 19.7784 37.7776C11.1113 40.4423 2.14327 43.1891 -15.4973 43.1891V41.4984C1.89158 41.4984 10.7338 38.779 19.2859 36.158C27.953 33.4933 36.921 30.7466 54.5616 30.7466C72.2022 30.7466 81.1702 33.4988 89.8373 36.158C98.3895 38.7844 107.232 41.4984 124.621 41.4984V43.1891Z" fill="#2557A5"/>
<path d="M124.621 48.0152C106.991 48.0152 98.0284 45.263 89.3668 42.6037C80.8091 39.9774 71.9615 37.2579 54.5616 37.2579C37.1618 37.2579 28.3196 39.9774 19.7565 42.6037C11.0894 45.2684 2.13233 48.0152 -15.4973 48.0152V46.4667C1.90252 46.4667 10.7447 43.7473 19.3078 41.1209C27.9749 38.4562 36.932 35.7095 54.5616 35.7095C72.1913 35.7095 81.1538 38.4617 89.8154 41.1209C98.3731 43.7473 107.221 46.4667 124.621 46.4667V48.0152Z" fill="#2557A5"/>
<path d="M124.621 52.8413C107.002 52.8413 98.0448 50.0891 89.3832 47.4298C80.8255 44.8035 71.9724 42.084 54.5616 42.084C37.1509 42.084 28.3032 44.8035 19.7401 47.4298C11.073 50.0945 2.12138 52.8413 -15.4973 52.8413V51.4296C1.91346 51.4296 10.7611 48.7102 19.3242 46.0838C27.9913 43.4191 36.9429 40.6724 54.5616 40.6724C72.1803 40.6724 81.1374 43.4246 89.799 46.0838C98.3567 48.7102 107.21 51.4296 124.621 51.4296V52.8413Z" fill="#2557A5"/>
<path d="M124.621 57.6673C107.013 57.6673 98.0612 54.9151 89.4051 52.2613C80.8419 49.6349 71.9834 46.91 54.5616 46.91C37.1399 46.91 28.2868 49.6295 19.7182 52.2613C11.0621 54.9205 2.11044 57.6673 -15.4973 57.6673V56.3979C1.92441 56.3979 10.7775 53.6785 19.3461 51.0466C28.0023 48.3874 36.9539 45.6406 54.5616 45.6406C72.1694 45.6406 81.121 48.3929 89.7772 51.0466C98.3403 53.673 107.199 56.3979 124.621 56.3979V57.6673Z" fill="#2557A5"/>
<path d="M124.621 62.4821C107.018 62.4821 98.0776 59.7353 89.4215 57.0816C80.8529 54.4497 71.9888 51.7248 54.5616 51.7248C37.1344 51.7248 28.2649 54.4442 19.7018 57.0816C11.0511 59.7353 2.10497 62.4821 -15.4973 62.4821V61.3549C1.92988 61.3549 10.7994 58.6355 19.3625 55.9982C28.0132 53.3444 36.9593 50.5977 54.5616 50.5977C72.1639 50.5977 81.1046 53.3444 89.7607 55.9982C98.3293 58.63 107.193 61.3549 124.621 61.3549V62.4821Z" fill="#2557A5"/>
<path d="M124.621 67.3081C107.035 67.3081 98.094 64.5613 89.4434 61.9076C80.8693 59.2757 71.9998 56.5508 54.5616 56.5508C37.1235 56.5508 28.254 59.2757 19.6799 61.9076C11.0347 64.5613 2.09403 67.3081 -15.4973 67.3081V66.3232C1.94629 66.3232 10.8103 63.5983 19.3844 60.9664C28.0296 58.3127 36.9703 55.5659 54.5616 55.5659C72.153 55.5659 81.0882 58.3127 89.7388 60.9664C98.3129 63.5983 107.182 66.3232 124.621 66.3232V67.3081Z" fill="#2557A5"/>
<path d="M124.621 72.1343C107.04 72.1343 98.1105 69.3875 89.4653 66.7338C80.8857 64.1019 72.0107 61.377 54.5616 61.377C37.1126 61.377 28.2375 64.1019 19.658 66.7338C11.0128 69.3875 2.08308 72.1343 -15.4973 72.1343V71.2807C1.95176 71.2807 10.8268 68.5558 19.4063 65.9239C28.0515 63.2702 36.9812 60.5234 54.5616 60.5234C72.142 60.5234 81.0718 63.2702 89.717 65.9239C98.2965 68.5558 107.172 71.2807 124.621 71.2807V72.1343Z" fill="#2557A5"/>
<path d="M124.621 76.9548C107.051 76.9548 98.1214 74.2135 89.4871 71.5652C80.9021 68.9279 72.0271 66.203 54.5616 66.203C37.0961 66.203 28.2211 68.9279 19.6361 71.5652C11.0019 74.2135 2.06667 76.9548 -15.4973 76.9548V76.2435C1.96271 76.2435 10.8432 73.5186 19.4282 70.8813C28.0625 68.233 36.9977 65.4917 54.5616 65.4917C72.1256 65.4917 81.0608 68.233 89.6951 70.8813C98.2801 73.5186 107.155 76.2435 124.621 76.2435V76.9548Z" fill="#2557A5"/>
<path d="M124.621 81.775C107.062 81.775 98.1378 79.0337 89.509 76.3855C80.9185 73.7481 72.0326 71.0178 54.5616 71.0178C37.0907 71.0178 28.2047 73.7481 19.6142 76.3855C10.9854 79.0337 2.0612 81.775 -15.4973 81.775V81.206C1.97365 81.206 10.8596 78.4756 19.4501 75.8383C28.0789 73.19 37.0031 70.4487 54.5616 70.4487C72.1201 70.4487 81.0444 73.19 89.6732 75.8383C98.2637 78.4756 107.15 81.206 124.621 81.206V81.775Z" fill="#2557A5"/>
</g>
</svg>
