<svg width="511" height="548" viewBox="0 0 511 548" fill="none" xmlns="http://www.w3.org/2000/svg">
<mask id="mask0_96_436" style="mask-type:alpha" maskUnits="userSpaceOnUse" x="0" y="0" width="1279" height="548">
<rect width="1279" height="548" fill="#D9D9D9"/>
</mask>
<g mask="url(#mask0_96_436)">
<path d="M1281 -131V528.352C1249.78 528.432 1233.78 533.329 1218.3 538.076C1202.37 542.953 1185.91 548 1153.49 548C1121.08 548 1104.62 542.953 1088.68 538.076C1073.09 533.289 1056.96 528.352 1025.24 528.352V526.483C993.097 526.483 976.771 521.486 960.965 516.639C945.24 511.822 928.974 506.845 896.992 506.845C865.011 506.845 848.745 511.822 833.03 516.639C817.224 521.486 800.888 526.483 768.746 526.483V528.352C737.035 528.352 720.909 533.289 705.304 538.076C689.379 542.953 672.912 548 640.5 548C608.088 548 591.621 542.953 575.686 538.076C560.091 533.289 543.965 528.352 512.244 528.352V526.483C480.102 526.483 463.766 521.486 447.97 516.639C432.245 511.822 415.979 506.845 383.998 506.845C352.016 506.845 335.75 511.822 320.025 516.639C304.229 521.486 287.893 526.483 255.751 526.483V528.352C224.04 528.352 207.914 533.289 192.309 538.076C176.384 542.953 159.917 548 127.505 548C95.0929 548 78.6264 542.953 62.6908 538.076C47.2159 533.329 31.2302 528.432 0 528.352V-131H1281Z" fill="#5D97C4"/>
</g>
<g clip-path="url(#clip0_96_436)">
<path d="M511.07 403.54C478.71 403.54 462.27 398.49 446.37 393.61C430.79 388.83 414.69 383.89 383.03 383.89C351.37 383.89 335.26 388.83 319.69 393.61C303.79 398.49 287.35 403.54 254.99 403.54V398.91C286.65 398.91 302.76 393.97 318.33 389.19C334.23 384.31 350.67 379.26 383.03 379.26C415.39 379.26 431.83 384.31 447.73 389.19C463.31 393.97 479.41 398.91 511.07 398.91V403.54Z" fill="#2557A5"/>
<path d="M511.07 412.36C478.74 412.36 462.3 407.31 446.41 402.43C430.83 397.65 414.72 392.7 383.03 392.7C351.34 392.7 335.23 397.65 319.65 402.43C303.76 407.31 287.32 412.36 254.99 412.36V407.99C286.68 407.99 302.79 403.04 318.37 398.26C334.26 393.38 350.7 388.33 383.03 388.33C415.36 388.33 431.8 393.38 447.69 398.26C463.27 403.04 479.38 407.99 511.07 407.99V412.36Z" fill="#2557A5"/>
<path d="M511.07 421.17C478.75 421.17 462.33 416.13 446.45 411.25C430.86 406.46 414.73 401.51 383.03 401.51C351.33 401.51 335.2 406.46 319.61 411.25C303.73 416.13 287.31 421.17 254.99 421.17V417.06C286.69 417.06 302.82 412.11 318.41 407.32C334.29 402.44 350.71 397.4 383.03 397.4C415.35 397.4 431.77 402.44 447.65 407.32C463.24 412.11 479.37 417.06 511.07 417.06V421.17Z" fill="#2557A5"/>
<path d="M511.071 429.98C478.771 429.98 462.361 424.95 446.481 420.07C430.881 415.28 414.751 410.32 383.021 410.32C351.291 410.32 335.161 415.28 319.561 420.07C303.691 424.94 287.271 429.98 254.971 429.98V426.13C286.691 426.13 302.831 421.17 318.431 416.38C334.301 411.51 350.721 406.47 383.021 406.47C415.321 406.47 431.731 411.5 447.611 416.38C463.211 421.17 479.341 426.13 511.071 426.13V429.98Z" fill="#2557A5"/>
<path d="M511.07 438.8C478.79 438.8 462.39 433.76 446.52 428.88C430.91 424.09 414.77 419.13 383.03 419.13C351.29 419.13 335.15 424.09 319.54 428.88C303.67 433.75 287.27 438.8 254.99 438.8V435.19C286.73 435.19 302.87 430.23 318.48 425.44C334.35 420.57 350.75 415.52 383.03 415.52C415.31 415.52 431.71 420.56 447.58 425.44C463.19 430.23 479.33 435.19 511.07 435.19V438.8Z" fill="#2557A5"/>
<path d="M511.07 447.62C478.81 447.62 462.41 442.59 446.56 437.71C430.94 432.91 414.79 427.96 383.03 427.96C351.27 427.96 335.12 432.92 319.5 437.71C303.65 442.58 287.25 447.62 254.99 447.62V444.27C286.75 444.27 302.9 439.31 318.52 434.52C334.37 429.65 350.77 424.61 383.03 424.61C415.29 424.61 431.69 429.64 447.54 434.52C463.16 439.32 479.31 444.27 511.07 444.27V447.62Z" fill="#2557A5"/>
<path d="M511.07 456.43C478.83 456.43 462.44 451.4 446.6 446.53C430.97 441.73 414.81 436.77 383.03 436.77C351.25 436.77 335.09 441.74 319.46 446.53C303.62 451.4 287.23 456.43 254.99 456.43V453.34C286.77 453.34 302.93 448.37 318.56 443.58C334.4 438.71 350.79 433.68 383.03 433.68C415.27 433.68 431.66 438.71 447.5 443.58C463.13 448.38 479.29 453.34 511.07 453.34V456.43Z" fill="#2557A5"/>
<path d="M511.07 465.24C478.85 465.24 462.47 460.21 446.64 455.36C431 450.56 414.83 445.59 383.03 445.59C351.23 445.59 335.07 450.56 319.42 455.36C303.58 460.22 287.21 465.24 254.99 465.24V462.41C286.79 462.41 302.95 457.44 318.6 452.64C334.44 447.78 350.81 442.76 383.03 442.76C415.25 442.76 431.63 447.79 447.46 452.64C463.1 457.44 479.27 462.41 511.07 462.41V465.24Z" fill="#2557A5"/>
<path d="M511.07 474.06C478.87 474.06 462.5 469.03 446.67 464.17C431.03 459.37 414.85 454.4 383.03 454.4C351.21 454.4 335.04 459.37 319.39 464.17C303.55 469.04 287.19 474.06 254.99 474.06V471.48C286.81 471.48 302.98 466.51 318.63 461.71C334.47 456.84 350.83 451.82 383.03 451.82C415.23 451.82 431.6 456.85 447.43 461.71C463.07 466.51 479.25 471.48 511.07 471.48V474.06Z" fill="#2557A5"/>
<path d="M511.07 482.88C478.89 482.88 462.53 477.85 446.71 473C431.06 468.2 414.87 463.22 383.03 463.22C351.19 463.22 335.01 468.19 319.35 473C303.53 477.86 287.17 482.88 254.99 482.88V480.56C286.83 480.56 303.01 475.59 318.67 470.78C334.49 465.92 350.85 460.9 383.03 460.9C415.21 460.9 431.57 465.93 447.39 470.78C463.04 475.58 479.23 480.56 511.07 480.56V482.88Z" fill="#2557A5"/>
<path d="M511.07 491.68C478.9 491.68 462.56 486.66 446.74 481.81C431.08 477 414.88 472.02 383.03 472.02C351.18 472.02 334.97 476.99 319.32 481.81C303.51 486.66 287.16 491.68 254.99 491.68V489.62C286.84 489.62 303.05 484.65 318.7 479.83C334.51 474.98 350.86 469.96 383.03 469.96C415.2 469.96 431.54 474.98 447.36 479.83C463.02 484.64 479.22 489.62 511.07 489.62V491.68Z" fill="#2557A5"/>
<path d="M511.07 500.5C478.93 500.5 462.59 495.48 446.78 490.63C431.11 485.82 414.9 480.84 383.03 480.84C351.16 480.84 334.95 485.82 319.28 490.63C303.48 495.48 287.14 500.5 254.99 500.5V498.7C286.87 498.7 303.07 493.72 318.74 488.91C334.54 484.06 350.88 479.04 383.03 479.04C415.18 479.04 431.51 484.06 447.32 488.91C462.99 493.72 479.2 498.7 511.07 498.7V500.5Z" fill="#2557A5"/>
<path d="M511.07 509.32C478.94 509.32 462.62 504.3 446.82 499.45C431.14 494.64 414.92 489.66 383.03 489.66C351.14 489.66 334.92 494.64 319.24 499.45C303.44 504.3 287.12 509.32 254.99 509.32V507.76C286.88 507.76 303.1 502.78 318.78 497.97C334.58 493.12 350.9 488.1 383.03 488.1C415.16 488.1 431.48 493.12 447.28 497.97C462.96 502.78 479.18 507.76 511.07 507.76V509.32Z" fill="#2557A5"/>
<path d="M511.07 518.14C478.96 518.14 462.64 513.13 446.86 508.28C431.17 503.46 414.95 498.48 383.03 498.48C351.11 498.48 334.89 503.46 319.2 508.28C303.42 513.13 287.09 518.14 254.99 518.14V516.84C286.9 516.84 303.13 511.86 318.82 507.04C334.6 502.19 350.93 497.18 383.03 497.18C415.13 497.18 431.46 502.19 447.24 507.04C462.93 511.86 479.15 516.84 511.07 516.84V518.14Z" fill="#2557A5"/>
<path d="M511.07 525.91V526.95C478.98 526.95 462.67 521.95 446.9 517.1C431.2 512.28 414.96 507.3 383.03 507.3C351.1 507.3 334.86 512.28 319.16 517.1C303.39 521.95 287.08 526.95 254.99 526.95V525.91C286.92 525.91 303.16 520.92 318.86 516.1C334.63 511.26 350.94 506.26 383.03 506.26C415.12 506.26 431.43 511.26 447.21 516.1C462.9 520.92 479.14 525.91 511.07 525.91Z" fill="#2557A5"/>
<path d="M511.07 277.15C478.71 277.15 462.27 272.1 446.37 267.21C430.79 262.43 414.69 257.49 383.03 257.49C351.37 257.49 335.26 262.43 319.69 267.21C303.79 272.1 287.35 277.15 254.99 277.15V272.52C286.65 272.52 302.76 267.58 318.33 262.8C334.23 257.91 350.67 252.86 383.03 252.86C415.39 252.86 431.83 257.91 447.73 262.8C463.31 267.58 479.41 272.52 511.07 272.52V277.15Z" fill="#2557A5"/>
<path d="M511.07 285.97C478.74 285.97 462.3 280.92 446.41 276.04C430.83 271.26 414.72 266.31 383.03 266.31C351.34 266.31 335.23 271.26 319.65 276.04C303.76 280.92 287.32 285.97 254.99 285.97V281.6C286.68 281.6 302.79 276.65 318.37 271.87C334.26 266.99 350.7 261.94 383.03 261.94C415.36 261.94 431.8 266.99 447.69 271.87C463.27 276.65 479.38 281.6 511.07 281.6V285.97Z" fill="#2557A5"/>
<path d="M511.07 294.77C478.75 294.77 462.33 289.73 446.45 284.85C430.86 280.06 414.73 275.11 383.03 275.11C351.33 275.11 335.2 280.06 319.61 284.85C303.73 289.72 287.31 294.77 254.99 294.77V290.66C286.69 290.66 302.82 285.71 318.41 280.92C334.29 276.05 350.71 271 383.03 271C415.35 271 431.77 276.04 447.65 280.92C463.24 285.71 479.37 290.66 511.07 290.66V294.77Z" fill="#2557A5"/>
<path d="M511.071 303.59C478.771 303.59 462.361 298.55 446.481 293.67C430.881 288.88 414.751 283.92 383.021 283.92C351.291 283.92 335.161 288.88 319.561 293.67C303.691 298.54 287.271 303.59 254.971 303.59V299.74C286.691 299.74 302.831 294.78 318.431 289.99C334.301 285.12 350.721 280.07 383.021 280.07C415.321 280.07 431.731 285.11 447.611 289.99C463.211 294.78 479.341 299.74 511.071 299.74V303.59Z" fill="#2557A5"/>
<path d="M511.07 312.41C478.79 312.41 462.39 307.37 446.52 302.49C430.91 297.7 414.77 292.74 383.03 292.74C351.29 292.74 335.15 297.7 319.54 302.49C303.67 307.36 287.27 312.41 254.99 312.41V308.8C286.73 308.8 302.87 303.84 318.48 299.05C334.35 294.18 350.75 289.13 383.03 289.13C415.31 289.13 431.71 294.17 447.58 299.05C463.19 303.84 479.33 308.8 511.07 308.8V312.41Z" fill="#2557A5"/>
<path d="M511.07 321.22C478.81 321.22 462.41 316.19 446.56 311.32C430.94 306.52 414.79 301.57 383.03 301.57C351.27 301.57 335.12 306.53 319.5 311.32C303.65 316.19 287.25 321.22 254.99 321.22V317.87C286.75 317.87 302.9 312.91 318.52 308.12C334.37 303.25 350.77 298.22 383.03 298.22C415.29 298.22 431.69 303.25 447.54 308.12C463.16 312.92 479.31 317.87 511.07 317.87V321.22Z" fill="#2557A5"/>
<path d="M511.07 330.03C478.83 330.03 462.44 325 446.6 320.13C430.97 315.33 414.81 310.37 383.03 310.37C351.25 310.37 335.09 315.34 319.46 320.13C303.62 325 287.23 330.03 254.99 330.03V326.94C286.77 326.94 302.93 321.97 318.56 317.18C334.4 312.31 350.79 307.28 383.03 307.28C415.27 307.28 431.66 312.31 447.5 317.18C463.13 321.98 479.29 326.94 511.07 326.94V330.03Z" fill="#2557A5"/>
<path d="M511.07 338.85C478.85 338.85 462.47 333.82 446.64 328.96C431 324.16 414.83 319.19 383.03 319.19C351.23 319.19 335.07 324.16 319.42 328.96C303.58 333.83 287.21 338.85 254.99 338.85V336.02C286.79 336.02 302.95 331.05 318.6 326.25C334.44 321.38 350.81 316.36 383.03 316.36C415.25 316.36 431.63 321.39 447.46 326.25C463.1 331.05 479.27 336.02 511.07 336.02V338.85Z" fill="#2557A5"/>
<path d="M511.07 347.67C478.87 347.67 462.5 342.64 446.67 337.78C431.03 332.98 414.85 328.01 383.03 328.01C351.21 328.01 335.04 332.98 319.39 337.78C303.55 342.65 287.19 347.67 254.99 347.67V345.09C286.81 345.09 302.98 340.12 318.63 335.32C334.47 330.45 350.83 325.43 383.03 325.43C415.23 325.43 431.6 330.46 447.43 335.32C463.07 340.12 479.25 345.09 511.07 345.09V347.67Z" fill="#2557A5"/>
<path d="M511.07 356.48C478.89 356.48 462.53 351.45 446.71 346.6C431.06 341.79 414.87 336.82 383.03 336.82C351.19 336.82 335.01 341.79 319.35 346.6C303.53 351.45 287.17 356.48 254.99 356.48V354.16C286.83 354.16 303.01 349.19 318.67 344.38C334.49 339.53 350.85 334.5 383.03 334.5C415.21 334.5 431.57 339.53 447.39 344.38C463.04 349.19 479.23 354.16 511.07 354.16V356.48Z" fill="#2557A5"/>
<path d="M511.07 365.29C478.9 365.29 462.56 360.27 446.74 355.41C431.08 350.6 414.88 345.62 383.03 345.62C351.18 345.62 334.97 350.59 319.32 355.41C303.51 360.27 287.16 365.29 254.99 365.29V363.23C286.84 363.23 303.05 358.26 318.7 353.44C334.51 348.58 350.86 343.56 383.03 343.56C415.2 343.56 431.54 348.58 447.36 353.44C463.02 358.25 479.22 363.23 511.07 363.23V365.29Z" fill="#2557A5"/>
<path d="M511.07 374.11C478.93 374.11 462.59 369.09 446.78 364.24C431.11 359.43 414.9 354.45 383.03 354.45C351.16 354.45 334.95 359.43 319.28 364.24C303.48 369.09 287.14 374.11 254.99 374.11V372.31C286.87 372.31 303.07 367.33 318.74 362.52C334.54 357.67 350.88 352.65 383.03 352.65C415.18 352.65 431.51 357.67 447.32 362.52C462.99 367.33 479.2 372.31 511.07 372.31V374.11Z" fill="#2557A5"/>
<path d="M511.07 382.93C478.94 382.93 462.62 377.91 446.82 373.06C431.14 368.25 414.92 363.27 383.03 363.27C351.14 363.27 334.92 368.25 319.24 373.06C303.44 377.91 287.12 382.93 254.99 382.93V381.37C286.88 381.37 303.1 376.39 318.78 371.58C334.58 366.73 350.9 361.71 383.03 361.71C415.16 361.71 431.48 366.73 447.28 371.58C462.96 376.39 479.18 381.37 511.07 381.37V382.93Z" fill="#2557A5"/>
<path d="M511.07 391.74C478.96 391.74 462.64 386.73 446.86 381.89C431.17 377.07 414.95 372.09 383.03 372.09C351.11 372.09 334.89 377.07 319.2 381.89C303.42 386.73 287.09 391.74 254.99 391.74V390.44C286.9 390.44 303.13 385.46 318.82 380.64C334.6 375.8 350.93 370.79 383.03 370.79C415.13 370.79 431.46 375.8 447.24 380.64C462.93 385.46 479.15 390.44 511.07 390.44V391.74Z" fill="#2557A5"/>
<path d="M511.07 400.55C478.98 400.55 462.67 395.54 446.9 390.7C431.2 385.88 414.96 380.89 383.03 380.89C351.1 380.89 334.86 385.88 319.16 390.7C303.39 395.54 287.08 400.55 254.99 400.55V399.51C286.92 399.51 303.16 394.52 318.86 389.7C334.63 384.86 350.94 379.85 383.03 379.85C415.12 379.85 431.43 384.86 447.2 389.7C462.9 394.52 479.14 399.51 511.07 399.51V400.55Z" fill="#2557A5"/>
<path d="M511.07 150.75C478.71 150.75 462.27 145.7 446.37 140.82C430.79 136.04 414.69 131.1 383.03 131.1C351.37 131.1 335.26 136.04 319.69 140.82C303.79 145.7 287.35 150.75 254.99 150.75V146.12C286.65 146.12 302.76 141.18 318.33 136.4C334.23 131.52 350.67 126.47 383.03 126.47C415.39 126.47 431.83 131.52 447.73 136.4C463.31 141.18 479.41 146.12 511.07 146.12V150.75Z" fill="#2557A5"/>
<path d="M511.07 159.57C478.74 159.57 462.3 154.52 446.41 149.64C430.83 144.86 414.72 139.91 383.03 139.91C351.34 139.91 335.23 144.86 319.65 149.64C303.76 154.52 287.32 159.57 254.99 159.57V155.2C286.68 155.2 302.79 150.25 318.37 145.47C334.26 140.59 350.7 135.54 383.03 135.54C415.36 135.54 431.8 140.59 447.69 145.47C463.27 150.25 479.38 155.2 511.07 155.2V159.57Z" fill="#2557A5"/>
<path d="M511.07 168.38C478.75 168.38 462.33 163.34 446.45 158.46C430.86 153.67 414.73 148.72 383.03 148.72C351.33 148.72 335.2 153.67 319.61 158.46C303.73 163.34 287.31 168.38 254.99 168.38V164.27C286.69 164.27 302.82 159.32 318.41 154.53C334.29 149.65 350.71 144.61 383.03 144.61C415.35 144.61 431.77 149.65 447.65 154.53C463.24 159.32 479.37 164.27 511.07 164.27V168.38Z" fill="#2557A5"/>
<path d="M511.071 177.2C478.771 177.2 462.361 172.16 446.481 167.28C430.881 162.49 414.751 157.53 383.021 157.53C351.291 157.53 335.161 162.49 319.561 167.28C303.691 172.15 287.271 177.2 254.971 177.2V173.35C286.691 173.35 302.831 168.39 318.431 163.6C334.301 158.73 350.721 153.68 383.021 153.68C415.321 153.68 431.731 158.72 447.611 163.6C463.211 168.39 479.341 173.35 511.071 173.35V177.2Z" fill="#2557A5"/>
<path d="M511.07 186.01C478.79 186.01 462.39 180.97 446.52 176.1C430.91 171.3 414.77 166.35 383.03 166.35C351.29 166.35 335.15 171.3 319.54 176.1C303.67 180.97 287.27 186.01 254.99 186.01V182.4C286.73 182.4 302.87 177.45 318.48 172.65C334.35 167.78 350.75 162.74 383.03 162.74C415.31 162.74 431.71 167.78 447.58 172.65C463.19 177.45 479.33 182.4 511.07 182.4V186.01Z" fill="#2557A5"/>
<path d="M511.07 194.83C478.81 194.83 462.41 189.8 446.56 184.92C430.94 180.12 414.79 175.17 383.03 175.17C351.27 175.17 335.12 180.13 319.5 184.92C303.65 189.79 287.25 194.83 254.99 194.83V191.48C286.75 191.48 302.9 186.52 318.52 181.73C334.37 176.86 350.77 171.82 383.03 171.82C415.29 171.82 431.69 176.85 447.54 181.73C463.16 186.53 479.31 191.48 511.07 191.48V194.83Z" fill="#2557A5"/>
<path d="M511.07 203.64C478.83 203.64 462.44 198.61 446.6 193.74C430.97 188.94 414.81 183.98 383.03 183.98C351.25 183.98 335.09 188.95 319.46 193.74C303.62 198.61 287.23 203.64 254.99 203.64V200.55C286.77 200.55 302.93 195.58 318.56 190.79C334.4 185.92 350.79 180.89 383.03 180.89C415.27 180.89 431.66 185.92 447.5 190.79C463.13 195.59 479.29 200.55 511.07 200.55V203.64Z" fill="#2557A5"/>
<path d="M254.99 212.46V209.63C286.79 209.63 302.95 204.66 318.6 199.86C334.44 194.99 350.81 189.97 383.03 189.97C415.25 189.97 431.63 195 447.46 199.85C463.1 204.65 479.27 209.62 511.07 209.62V212.45C478.85 212.45 462.47 207.42 446.64 202.57C431 197.77 414.83 192.8 383.03 192.8C351.23 192.8 335.07 197.77 319.42 202.57C303.58 207.44 287.21 212.46 254.99 212.46Z" fill="#2557A5"/>
<path d="M511.07 221.27C478.87 221.27 462.5 216.24 446.67 211.38C431.03 206.58 414.85 201.61 383.03 201.61C351.21 201.61 335.04 206.58 319.39 211.38C303.55 216.25 287.19 221.27 254.99 221.27V218.69C286.81 218.69 302.98 213.72 318.63 208.92C334.47 204.05 350.83 199.03 383.03 199.03C415.23 199.03 431.6 204.06 447.43 208.92C463.07 213.72 479.25 218.69 511.07 218.69V221.27Z" fill="#2557A5"/>
<path d="M511.07 230.09C478.89 230.09 462.53 225.06 446.71 220.21C431.06 215.41 414.87 210.43 383.03 210.43C351.19 210.43 335.01 215.4 319.35 220.21C303.53 225.07 287.17 230.09 254.99 230.09V227.77C286.83 227.77 303.01 222.8 318.67 217.99C334.49 213.13 350.85 208.11 383.03 208.11C415.21 208.11 431.57 213.14 447.39 217.99C463.04 222.79 479.23 227.77 511.07 227.77V230.09Z" fill="#2557A5"/>
<path d="M511.07 238.9C478.9 238.9 462.56 233.88 446.74 229.02C431.08 224.21 414.88 219.23 383.03 219.23C351.18 219.23 334.97 224.2 319.32 229.02C303.51 233.88 287.16 238.9 254.99 238.9V236.84C286.84 236.84 303.05 231.87 318.7 227.05C334.51 222.19 350.86 217.17 383.03 217.17C415.2 217.17 431.54 222.19 447.36 227.05C463.02 231.86 479.22 236.84 511.07 236.84V238.9Z" fill="#2557A5"/>
<path d="M511.07 247.71C478.93 247.71 462.59 242.7 446.78 237.85C431.11 233.04 414.9 228.06 383.03 228.06C351.16 228.06 334.95 233.04 319.28 237.85C303.48 242.7 287.14 247.71 254.99 247.71V245.91C286.87 245.91 303.07 240.93 318.74 236.12C334.54 231.27 350.88 226.26 383.03 226.26C415.18 226.26 431.51 231.27 447.32 236.12C462.99 240.93 479.2 245.91 511.07 245.91V247.71Z" fill="#2557A5"/>
<path d="M511.07 256.53C478.94 256.53 462.62 251.51 446.82 246.66C431.14 241.85 414.92 236.87 383.03 236.87C351.14 236.87 334.92 241.85 319.24 246.66C303.44 251.51 287.12 256.53 254.99 256.53V254.97C286.88 254.97 303.1 249.99 318.78 245.18C334.58 240.33 350.9 235.31 383.03 235.31C415.16 235.31 431.48 240.33 447.28 245.18C462.96 249.99 479.18 254.97 511.07 254.97V256.53Z" fill="#2557A5"/>
<path d="M511.07 265.35C478.96 265.35 462.64 260.34 446.86 255.49C431.17 250.67 414.95 245.69 383.03 245.69C351.11 245.69 334.89 250.67 319.2 255.49C303.42 260.34 287.09 265.35 254.99 265.35V264.05C286.9 264.05 303.13 259.07 318.82 254.25C334.6 249.4 350.93 244.39 383.03 244.39C415.13 244.39 431.46 249.4 447.24 254.25C462.93 259.07 479.15 264.05 511.07 264.05V265.35Z" fill="#2557A5"/>
<path d="M511.07 274.16C478.98 274.16 462.67 269.15 446.9 264.31C431.2 259.49 414.96 254.5 383.03 254.5C351.1 254.5 334.86 259.49 319.16 264.31C303.39 269.15 287.08 274.16 254.99 274.16V273.12C286.92 273.12 303.16 268.13 318.86 263.31C334.63 258.47 350.94 253.46 383.03 253.46C415.12 253.46 431.43 258.47 447.2 263.31C462.9 268.13 479.14 273.12 511.07 273.12V274.16Z" fill="#2557A5"/>
<path d="M511.07 24.3601C478.71 24.3601 462.27 19.3101 446.37 14.4201C430.79 9.64007 414.69 4.70007 383.03 4.70007C351.37 4.70007 335.26 9.64007 319.69 14.4201C303.79 19.3101 287.35 24.3601 254.99 24.3601V19.7301C286.65 19.7301 302.76 14.7901 318.33 10.0101C334.23 5.12007 350.67 0.0700684 383.03 0.0700684C415.39 0.0700684 431.83 5.12007 447.73 10.0101C463.31 14.7901 479.41 19.7301 511.07 19.7301V24.3601Z" fill="#2557A5"/>
<path d="M511.07 33.1799C478.74 33.1799 462.3 28.1299 446.41 23.2499C430.83 18.4699 414.72 13.5199 383.03 13.5199C351.34 13.5199 335.23 18.4699 319.65 23.2499C303.76 28.1299 287.32 33.1799 254.99 33.1799V28.8099C286.68 28.8099 302.79 23.8599 318.37 19.0799C334.26 14.1999 350.7 9.1499 383.03 9.1499C415.36 9.1499 431.8 14.1999 447.69 19.0799C463.27 23.8599 479.38 28.8099 511.07 28.8099V33.1799Z" fill="#2557A5"/>
<path d="M511.07 41.98C478.75 41.98 462.33 36.94 446.45 32.06C430.86 27.27 414.73 22.32 383.03 22.32C351.33 22.32 335.2 27.27 319.61 32.06C303.73 36.93 287.31 41.98 254.99 41.98V37.87C286.69 37.87 302.82 32.92 318.41 28.13C334.29 23.26 350.71 18.21 383.03 18.21C415.35 18.21 431.77 23.25 447.65 28.13C463.24 32.92 479.37 37.87 511.07 37.87V41.98Z" fill="#2557A5"/>
<path d="M511.071 50.8C478.771 50.8 462.361 45.76 446.481 40.88C430.881 36.09 414.751 31.13 383.021 31.13C351.291 31.13 335.161 36.09 319.561 40.88C303.691 45.75 287.271 50.8 254.971 50.8V46.95C286.691 46.95 302.831 41.99 318.431 37.2C334.301 32.33 350.721 27.28 383.021 27.28C415.321 27.28 431.731 32.32 447.611 37.2C463.211 41.99 479.341 46.95 511.071 46.95V50.8Z" fill="#2557A5"/>
<path d="M511.07 59.6201C478.79 59.6201 462.39 54.5801 446.52 49.7001C430.91 44.9101 414.77 39.9501 383.03 39.9501C351.29 39.9501 335.15 44.9101 319.54 49.7001C303.67 54.5701 287.27 59.6201 254.99 59.6201V56.0101C286.73 56.0101 302.87 51.0501 318.48 46.2601C334.35 41.3901 350.75 36.3401 383.03 36.3401C415.31 36.3401 431.71 41.3801 447.58 46.2601C463.19 51.0501 479.33 56.0101 511.07 56.0101V59.6201Z" fill="#2557A5"/>
<path d="M511.07 68.4399C478.81 68.4399 462.41 63.4099 446.56 58.5299C430.94 53.7299 414.79 48.7799 383.03 48.7799C351.27 48.7799 335.12 53.7399 319.5 58.5299C303.65 63.3999 287.25 68.4399 254.99 68.4399V65.0899C286.75 65.0899 302.9 60.1299 318.52 55.3399C334.37 50.4699 350.77 45.4299 383.03 45.4299C415.29 45.4299 431.69 50.4599 447.54 55.3399C463.16 60.1399 479.31 65.0899 511.07 65.0899V68.4399Z" fill="#2557A5"/>
<path d="M511.07 77.24C478.83 77.24 462.44 72.21 446.6 67.35C430.97 62.55 414.81 57.59 383.03 57.59C351.25 57.59 335.09 62.56 319.46 67.35C303.62 72.22 287.23 77.24 254.99 77.24V74.15C286.77 74.15 302.93 69.18 318.56 64.39C334.4 59.52 350.79 54.5 383.03 54.5C415.27 54.5 431.66 59.53 447.5 64.39C463.13 69.19 479.29 74.15 511.07 74.15V77.24Z" fill="#2557A5"/>
<path d="M511.07 86.0601C478.85 86.0601 462.47 81.0301 446.64 76.1701C431 71.3701 414.83 66.4001 383.03 66.4001C351.23 66.4001 335.07 71.3701 319.42 76.1701C303.58 81.0401 287.21 86.0601 254.99 86.0601V83.2301C286.79 83.2301 302.95 78.2601 318.6 73.4601C334.44 68.5901 350.81 63.5701 383.03 63.5701C415.25 63.5701 431.63 68.6001 447.46 73.4601C463.1 78.2601 479.27 83.2301 511.07 83.2301V86.0601Z" fill="#2557A5"/>
<path d="M511.07 94.8799C478.87 94.8799 462.5 89.8499 446.67 84.9899C431.03 80.1899 414.85 75.2199 383.03 75.2199C351.21 75.2199 335.04 80.1899 319.39 84.9899C303.55 89.8599 287.19 94.8799 254.99 94.8799V92.2999C286.81 92.2999 302.98 87.3299 318.63 82.5299C334.47 77.6599 350.83 72.6399 383.03 72.6399C415.23 72.6399 431.6 77.6699 447.43 82.5299C463.07 87.3299 479.25 92.2999 511.07 92.2999V94.8799Z" fill="#2557A5"/>
<path d="M511.07 103.7C478.89 103.7 462.53 98.67 446.71 93.82C431.06 89.02 414.87 84.04 383.03 84.04C351.19 84.04 335.01 89.01 319.35 93.82C303.53 98.68 287.17 103.7 254.99 103.7V101.38C286.83 101.38 303.01 96.41 318.67 91.6C334.49 86.74 350.85 81.72 383.03 81.72C415.21 81.72 431.57 86.75 447.39 91.6C463.04 96.4 479.23 101.38 511.07 101.38V103.7Z" fill="#2557A5"/>
<path d="M511.07 112.5C478.9 112.5 462.56 107.48 446.74 102.63C431.08 97.82 414.88 92.84 383.03 92.84C351.18 92.84 334.97 97.81 319.32 102.63C303.51 107.48 287.16 112.5 254.99 112.5V110.44C286.84 110.44 303.05 105.47 318.7 100.65C334.51 95.8 350.86 90.78 383.03 90.78C415.2 90.78 431.54 95.8 447.36 100.65C463.02 105.46 479.22 110.44 511.07 110.44V112.5Z" fill="#2557A5"/>
<path d="M511.07 121.32C478.93 121.32 462.59 116.3 446.78 111.45C431.11 106.64 414.9 101.66 383.03 101.66C351.16 101.66 334.95 106.64 319.28 111.45C303.48 116.3 287.14 121.32 254.99 121.32V119.52C286.87 119.52 303.07 114.54 318.74 109.73C334.54 104.88 350.88 99.8601 383.03 99.8601C415.18 99.8601 431.51 104.88 447.32 109.73C462.99 114.54 479.2 119.52 511.07 119.52V121.32Z" fill="#2557A5"/>
<path d="M511.07 130.14C478.94 130.14 462.62 125.12 446.82 120.27C431.14 115.46 414.92 110.48 383.03 110.48C351.14 110.48 334.92 115.46 319.24 120.27C303.44 125.12 287.12 130.14 254.99 130.14V128.58C286.88 128.58 303.1 123.6 318.78 118.79C334.58 113.94 350.9 108.92 383.03 108.92C415.16 108.92 431.48 113.94 447.28 118.79C462.96 123.6 479.18 128.58 511.07 128.58V130.14Z" fill="#2557A5"/>
<path d="M511.07 138.95C478.96 138.95 462.64 133.94 446.86 129.1C431.17 124.28 414.95 119.3 383.03 119.3C351.11 119.3 334.89 124.28 319.2 129.1C303.42 133.94 287.09 138.95 254.99 138.95V137.65C286.9 137.65 303.13 132.67 318.82 127.85C334.6 123.01 350.93 118 383.03 118C415.13 118 431.46 123.01 447.24 127.85C462.93 132.67 479.15 137.65 511.07 137.65V138.95Z" fill="#2557A5"/>
<path d="M511.07 147.76C478.98 147.76 462.67 142.75 446.9 137.91C431.2 133.09 414.96 128.1 383.03 128.1C351.1 128.1 334.86 133.09 319.16 137.91C303.39 142.75 287.08 147.76 254.99 147.76V146.72C286.92 146.72 303.16 141.73 318.86 136.91C334.63 132.07 350.94 127.06 383.03 127.06C415.12 127.06 431.43 132.07 447.2 136.91C462.9 141.73 479.14 146.72 511.07 146.72V147.76Z" fill="#2557A5"/>
<path d="M254.99 524.19V528.82C223.33 528.82 207.23 533.76 191.65 538.55C175.75 543.43 159.31 548.48 126.95 548.48C94.5904 548.48 78.1504 543.43 62.2404 538.55C46.7904 533.8 30.8304 528.9 -0.349609 528.82H-1.09961V524.19H-0.349609C31.5104 524.27 47.8204 529.28 63.6004 534.12C79.1804 538.9 95.2804 543.85 126.95 543.85C158.62 543.85 174.72 538.9 190.29 534.12C206.2 529.24 222.63 524.19 254.99 524.19Z" fill="#2557A5"/>
<path d="M126.95 539.4C94.6104 539.4 78.1804 534.35 62.2804 529.47C46.7004 524.69 30.5804 519.74 -1.09961 519.74V515.37C31.2304 515.37 47.6704 520.42 63.5604 525.3C79.1404 530.08 95.2604 535.03 126.95 535.03C158.64 535.03 174.75 530.08 190.33 525.3C206.22 520.42 222.66 515.37 254.99 515.37V519.74C223.3 519.74 207.19 524.69 191.61 529.47C175.72 534.35 159.28 539.4 126.95 539.4Z" fill="#2557A5"/>
<path d="M126.95 530.33C94.6204 530.33 78.2004 525.29 62.3204 520.41C46.7304 515.62 30.6004 510.67 -1.09961 510.67V506.56C31.2204 506.56 47.6404 511.6 63.5204 516.48C79.1104 521.27 95.2404 526.22 126.94 526.22C158.64 526.22 174.77 521.27 190.36 516.48C206.24 511.6 222.66 506.56 254.98 506.56V510.67C223.28 510.67 207.15 515.62 191.56 520.41C175.68 525.29 159.26 530.33 126.94 530.33H126.95Z" fill="#2557A5"/>
<path d="M126.95 521.25C94.6504 521.25 78.2304 516.22 62.3604 511.34C46.7504 506.55 30.6304 501.59 -1.09961 501.59V497.74C31.2004 497.74 47.6104 502.77 63.4904 507.65C79.1004 512.44 95.2304 517.4 126.95 517.4C158.67 517.4 174.81 512.44 190.41 507.65C206.28 502.78 222.7 497.74 255 497.74V501.59C223.28 501.59 207.14 506.55 191.54 511.34C175.67 516.21 159.25 521.25 126.95 521.25Z" fill="#2557A5"/>
<path d="M126.95 512.19C94.6704 512.19 78.2604 507.15 62.3904 502.27C46.7804 497.48 30.6404 492.52 -1.09961 492.52V488.91C31.1804 488.91 47.5804 493.95 63.4504 498.83C79.0604 503.62 95.2004 508.58 126.95 508.58C158.7 508.58 174.83 503.62 190.44 498.83C206.31 493.96 222.71 488.91 254.99 488.91V492.52C223.25 492.52 207.11 497.48 191.5 502.27C175.63 507.14 159.23 512.19 126.95 512.19Z" fill="#2557A5"/>
<path d="M126.95 503.12C94.6804 503.12 78.2904 498.09 62.4304 493.21C46.8104 488.41 30.6604 483.46 -1.09961 483.46V480.11C31.1604 480.11 47.5604 485.14 63.4104 490.02C79.0304 494.82 95.1904 499.77 126.95 499.77C158.71 499.77 174.86 494.81 190.48 490.02C206.33 485.15 222.73 480.11 254.99 480.11V483.46C223.23 483.46 207.08 488.42 191.46 493.21C175.61 498.08 159.21 503.12 126.95 503.12Z" fill="#2557A5"/>
<path d="M126.95 494.04C94.7104 494.04 78.3104 489.01 62.4704 484.14C46.8404 479.34 30.6804 474.38 -1.09961 474.38V471.29C31.1404 471.29 47.5304 476.32 63.3704 481.19C79.0004 485.99 95.1604 490.95 126.95 490.95C158.74 490.95 174.89 485.98 190.52 481.19C206.36 476.32 222.75 471.29 254.99 471.29V474.38C223.21 474.38 207.05 479.35 191.42 484.14C175.58 489.01 159.19 494.04 126.95 494.04Z" fill="#2557A5"/>
<path d="M126.95 484.97C94.7204 484.97 78.3404 479.94 62.5104 475.09C46.8704 470.29 30.7004 465.32 -1.09961 465.32V462.49C31.1204 462.49 47.5004 467.52 63.3304 472.37C78.9704 477.17 95.1504 482.14 126.95 482.14C158.75 482.14 174.91 477.17 190.56 472.37C206.4 467.51 222.77 462.49 254.99 462.49V465.32C223.19 465.32 207.03 470.29 191.38 475.09C175.54 479.95 159.17 484.97 126.95 484.97Z" fill="#2557A5"/>
<path d="M126.95 475.91C94.7504 475.91 78.3804 470.88 62.5404 466.02C46.9004 461.22 30.7204 456.25 -1.09961 456.25V453.67C31.1004 453.67 47.4704 458.7 63.2904 463.56C78.9404 468.36 95.1204 473.33 126.94 473.33C158.76 473.33 174.93 468.36 190.58 463.56C206.42 458.69 222.78 453.67 254.98 453.67V456.25C223.16 456.25 206.99 461.22 191.34 466.02C175.5 470.89 159.14 475.91 126.94 475.91H126.95Z" fill="#2557A5"/>
<path d="M126.95 466.84C94.7604 466.84 78.4004 461.81 62.5804 456.96C46.9304 452.16 30.7404 447.18 -1.09961 447.18V444.86C31.0804 444.86 47.4404 449.89 63.2604 454.74C78.9104 459.54 95.1104 464.52 126.94 464.52C158.77 464.52 174.96 459.55 190.62 454.74C206.44 449.88 222.8 444.86 254.98 444.86V447.18C223.14 447.18 206.96 452.15 191.3 456.96C175.48 461.82 159.12 466.84 126.94 466.84H126.95Z" fill="#2557A5"/>
<path d="M126.95 457.76C94.7802 457.76 78.4302 452.74 62.6202 447.88C46.9602 443.07 30.7602 438.09 -1.08984 438.09V436.03C31.0802 436.03 47.4202 441.05 63.2402 445.91C78.9002 450.72 95.1002 455.7 126.96 455.7C158.82 455.7 175.02 450.73 190.67 445.91C206.48 441.05 222.83 436.03 255 436.03V438.09C223.15 438.09 206.94 443.06 191.29 447.88C175.48 452.74 159.13 457.76 126.96 457.76H126.95Z" fill="#2557A5"/>
<path d="M126.95 448.69C94.8004 448.69 78.4604 443.68 62.6504 438.83C46.9804 434.02 30.7704 429.04 -1.09961 429.04V427.24C31.0404 427.24 47.3804 432.25 63.1904 437.1C78.8604 441.91 95.0704 446.89 126.95 446.89C158.83 446.89 175.03 441.91 190.7 437.1C206.5 432.25 222.84 427.24 254.99 427.24V429.04C223.11 429.04 206.91 434.02 191.24 438.83C175.44 443.68 159.1 448.69 126.95 448.69Z" fill="#2557A5"/>
<path d="M126.95 439.63C94.8204 439.63 78.4904 434.61 62.6904 429.76C47.0104 424.95 30.7904 419.97 -1.09961 419.97V418.41C31.0304 418.41 47.3504 423.43 63.1504 428.28C78.8304 433.09 95.0504 438.07 126.95 438.07C158.85 438.07 175.06 433.09 190.74 428.28C206.54 423.43 222.86 418.41 254.99 418.41V419.97C223.1 419.97 206.88 424.95 191.2 429.76C175.4 434.61 159.08 439.63 126.95 439.63Z" fill="#2557A5"/>
<path d="M126.95 430.55C94.8404 430.55 78.5104 425.54 62.7304 420.69C47.0404 415.87 30.8204 410.89 -1.09961 410.89V409.59C31.0104 409.59 47.3304 414.6 63.1104 419.45C78.8004 424.27 95.0304 429.25 126.95 429.25C158.87 429.25 175.09 424.27 190.78 419.45C206.56 414.6 222.89 409.59 254.99 409.59V410.89C223.08 410.89 206.85 415.87 191.16 420.69C175.38 425.54 159.05 430.55 126.95 430.55Z" fill="#2557A5"/>
<path d="M126.95 421.48C94.8604 421.48 78.5404 416.48 62.7704 411.63C47.0704 406.81 30.8304 401.82 -1.09961 401.82V400.78C30.9904 400.78 47.3004 405.78 63.0704 410.63C78.7804 415.45 95.0104 420.44 126.95 420.44C158.89 420.44 175.12 415.45 190.82 410.63C206.59 405.79 222.9 400.78 254.99 400.78V401.82C223.06 401.82 206.82 406.81 191.12 411.63C175.35 416.47 159.04 421.48 126.95 421.48Z" fill="#2557A5"/>
<path d="M126.95 422.08C94.5804 422.08 78.1504 417.03 62.2404 412.14C46.6604 407.36 30.5604 402.42 -1.09961 402.42V397.79C31.2604 397.79 47.7004 402.84 63.6004 407.73C79.1804 412.51 95.2804 417.45 126.95 417.45C158.62 417.45 174.72 412.51 190.29 407.73C206.19 402.84 222.63 397.79 254.99 397.79V402.42C223.33 402.42 207.22 407.36 191.65 412.14C175.75 417.03 159.31 422.08 126.95 422.08Z" fill="#2557A5"/>
<path d="M126.95 413.01C94.6104 413.01 78.1804 407.96 62.2804 403.09C46.7004 398.3 30.5804 393.36 -1.09961 393.36V388.99C31.2304 388.99 47.6704 394.03 63.5604 398.91C79.1404 403.69 95.2604 408.64 126.95 408.64C158.64 408.64 174.75 403.69 190.33 398.91C206.22 394.04 222.66 388.99 254.99 388.99V393.36C223.3 393.36 207.19 398.31 191.61 403.09C175.72 407.96 159.28 413.01 126.95 413.01Z" fill="#2557A5"/>
<path d="M126.95 403.94C94.6204 403.94 78.2004 398.9 62.3204 394.02C46.7304 389.23 30.6004 384.28 -1.09961 384.28V380.17C31.2204 380.17 47.6404 385.21 63.5204 390.09C79.1104 394.88 95.2404 399.83 126.94 399.83C158.64 399.83 174.77 394.88 190.36 390.09C206.24 385.21 222.66 380.17 254.98 380.17V384.28C223.28 384.28 207.15 389.23 191.56 394.02C175.68 398.9 159.26 403.94 126.94 403.94H126.95Z" fill="#2557A5"/>
<path d="M126.95 394.86C94.6504 394.86 78.2304 389.82 62.3604 384.94C46.7504 380.15 30.6204 375.19 -1.09961 375.19V371.34C31.2004 371.34 47.6104 376.38 63.4904 381.26C79.1004 386.05 95.2304 391.01 126.95 391.01C158.67 391.01 174.81 386.05 190.41 381.26C206.28 376.39 222.7 371.34 255 371.34V375.19C223.28 375.19 207.14 380.15 191.54 384.94C175.67 389.81 159.25 394.86 126.95 394.86Z" fill="#2557A5"/>
<path d="M126.95 385.8C94.6704 385.8 78.2604 380.76 62.3904 375.88C46.7804 371.09 30.6404 366.13 -1.09961 366.13V362.52C31.1804 362.52 47.5804 367.56 63.4504 372.44C79.0604 377.23 95.2004 382.19 126.95 382.19C158.7 382.19 174.83 377.23 190.44 372.44C206.31 367.57 222.71 362.52 254.99 362.52V366.13C223.25 366.13 207.11 371.09 191.5 375.88C175.63 380.75 159.23 385.8 126.95 385.8Z" fill="#2557A5"/>
<path d="M126.95 376.72C94.6804 376.72 78.2904 371.69 62.4304 366.82C46.8104 362.02 30.6604 357.07 -1.09961 357.07V353.72C31.1604 353.72 47.5604 358.75 63.4104 363.62C79.0304 368.42 95.1904 373.37 126.95 373.37C158.71 373.37 174.86 368.41 190.48 363.62C206.33 358.75 222.73 353.72 254.99 353.72V357.07C223.23 357.07 207.08 362.03 191.46 366.82C175.61 371.69 159.21 376.72 126.95 376.72Z" fill="#2557A5"/>
<path d="M126.95 367.65C94.7104 367.65 78.3104 362.62 62.4704 357.75C46.8404 352.95 30.6804 347.99 -1.09961 347.99V344.9C31.1404 344.9 47.5304 349.93 63.3704 354.8C79.0004 359.6 95.1604 364.56 126.95 364.56C158.74 364.56 174.89 359.59 190.52 354.8C206.36 349.93 222.75 344.9 254.99 344.9V347.99C223.21 347.99 207.05 352.96 191.42 357.75C175.58 362.62 159.19 367.65 126.95 367.65Z" fill="#2557A5"/>
<path d="M126.95 358.58C94.7204 358.58 78.3404 353.55 62.5104 348.69C46.8704 343.89 30.7004 338.92 -1.09961 338.92V336.09C31.1204 336.09 47.5004 341.12 63.3304 345.98C78.9704 350.78 95.1504 355.75 126.95 355.75C158.75 355.75 174.91 350.78 190.56 345.98C206.4 341.11 222.77 336.09 254.99 336.09V338.92C223.19 338.92 207.03 343.89 191.38 348.69C175.54 353.56 159.17 358.58 126.95 358.58Z" fill="#2557A5"/>
<path d="M126.95 349.51C94.7504 349.51 78.3804 344.48 62.5404 339.63C46.9004 334.83 30.7204 329.86 -1.09961 329.86V327.28C31.1004 327.28 47.4704 332.31 63.2904 337.16C78.9404 341.96 95.1204 346.93 126.94 346.93C158.76 346.93 174.93 341.96 190.59 337.16C206.42 332.3 222.78 327.28 254.98 327.28V329.86C223.16 329.86 206.99 334.83 191.33 339.63C175.5 344.49 159.14 349.51 126.94 349.51H126.95Z" fill="#2557A5"/>
<path d="M126.95 340.44C94.7604 340.44 78.4004 335.41 62.5804 330.56C46.9304 325.76 30.7404 320.78 -1.09961 320.78V318.46C31.0804 318.46 47.4404 323.49 63.2604 328.34C78.9104 333.14 95.1104 338.12 126.94 338.12C158.77 338.12 174.96 333.15 190.62 328.34C206.44 323.48 222.8 318.46 254.98 318.46V320.78C223.14 320.78 206.96 325.75 191.3 330.56C175.48 335.42 159.12 340.44 126.94 340.44H126.95Z" fill="#2557A5"/>
<path d="M126.95 331.37C94.7802 331.37 78.4302 326.35 62.6202 321.49C46.9602 316.68 30.7602 311.7 -1.08984 311.7V309.64C31.0802 309.64 47.4202 314.66 63.2402 319.52C78.9002 324.33 95.1002 329.31 126.96 329.31C158.82 329.31 175.02 324.34 190.67 319.52C206.48 314.66 222.83 309.64 255 309.64V311.7C223.15 311.7 206.94 316.67 191.29 321.49C175.48 326.35 159.13 331.37 126.96 331.37H126.95Z" fill="#2557A5"/>
<path d="M126.95 322.3C94.8004 322.3 78.4604 317.28 62.6504 312.43C46.9804 307.62 30.7704 302.64 -1.09961 302.64V300.84C31.0404 300.84 47.3804 305.86 63.1904 310.71C78.8604 315.52 95.0704 320.5 126.95 320.5C158.83 320.5 175.03 315.52 190.7 310.71C206.5 305.86 222.84 300.84 254.99 300.84V302.64C223.11 302.64 206.91 307.62 191.24 312.43C175.44 317.28 159.1 322.3 126.95 322.3Z" fill="#2557A5"/>
<path d="M126.95 313.23C94.8204 313.23 78.4904 308.21 62.6904 303.37C47.0104 298.55 30.7904 293.58 -1.09961 293.58V292.02C31.0304 292.02 47.3504 297.04 63.1504 301.88C78.8304 306.7 95.0504 311.67 126.95 311.67C158.85 311.67 175.06 306.7 190.74 301.88C206.54 297.04 222.86 292.02 254.99 292.02V293.58C223.1 293.58 206.88 298.55 191.2 303.37C175.4 308.21 159.08 313.23 126.95 313.23Z" fill="#2557A5"/>
<path d="M126.95 304.16C94.8404 304.16 78.5104 299.15 62.7304 294.3C47.0404 289.48 30.8204 284.5 -1.09961 284.5V283.2C31.0104 283.2 47.3304 288.21 63.1104 293.06C78.8004 297.88 95.0304 302.86 126.95 302.86C158.87 302.86 175.09 297.88 190.78 293.06C206.56 288.21 222.89 283.2 254.99 283.2V284.5C223.08 284.5 206.85 289.48 191.16 294.3C175.38 299.15 159.05 304.16 126.95 304.16Z" fill="#2557A5"/>
<path d="M126.95 295.09C94.8604 295.09 78.5404 290.08 62.7704 285.24C47.0704 280.42 30.8304 275.43 -1.09961 275.43V274.39C30.9904 274.39 47.3004 279.4 63.0704 284.24C78.7804 289.06 95.0104 294.05 126.95 294.05C158.89 294.05 175.12 289.06 190.82 284.24C206.59 279.4 222.9 274.39 254.99 274.39V275.43C223.06 275.43 206.82 280.42 191.12 285.24C175.35 290.08 159.04 295.09 126.95 295.09Z" fill="#2557A5"/>
<path d="M126.95 295.69C94.5804 295.69 78.1504 290.64 62.2404 285.75C46.6604 280.97 30.5604 276.03 -1.09961 276.03V271.4C31.2604 271.4 47.7004 276.45 63.6004 281.34C79.1804 286.12 95.2804 291.06 126.95 291.06C158.62 291.06 174.72 286.12 190.29 281.34C206.19 276.45 222.63 271.4 254.99 271.4V276.03C223.33 276.03 207.22 280.97 191.65 285.75C175.75 290.64 159.31 295.69 126.95 295.69Z" fill="#2557A5"/>
<path d="M126.95 286.61C94.6104 286.61 78.1804 281.56 62.2804 276.68C46.7004 271.9 30.5804 266.95 -1.09961 266.95V262.58C31.2304 262.58 47.6704 267.63 63.5604 272.51C79.1404 277.29 95.2604 282.24 126.95 282.24C158.64 282.24 174.75 277.29 190.33 272.51C206.22 267.63 222.66 262.58 254.99 262.58V266.95C223.3 266.95 207.19 271.9 191.61 276.68C175.72 281.56 159.28 286.61 126.95 286.61Z" fill="#2557A5"/>
<path d="M126.95 277.54C94.6204 277.54 78.2004 272.5 62.3204 267.62C46.7304 262.83 30.6004 257.88 -1.09961 257.88V253.77C31.2204 253.77 47.6404 258.81 63.5204 263.69C79.1104 268.48 95.2404 273.43 126.94 273.43C158.64 273.43 174.77 268.48 190.36 263.69C206.24 258.81 222.66 253.77 254.98 253.77V257.88C223.28 257.88 207.15 262.83 191.56 267.62C175.68 272.5 159.26 277.54 126.94 277.54H126.95Z" fill="#2557A5"/>
<path d="M126.95 268.46C94.6504 268.46 78.2304 263.43 62.3604 258.55C46.7504 253.76 30.6304 248.8 -1.09961 248.8V244.95C31.2004 244.95 47.6104 249.98 63.4904 254.86C79.1004 259.65 95.2304 264.61 126.95 264.61C158.67 264.61 174.81 259.65 190.41 254.86C206.28 249.99 222.7 244.95 255 244.95V248.8C223.28 248.8 207.14 253.76 191.54 258.55C175.67 263.42 159.25 268.46 126.95 268.46Z" fill="#2557A5"/>
<path d="M126.95 259.41C94.6704 259.41 78.2604 254.37 62.3904 249.49C46.7804 244.7 30.6404 239.74 -1.09961 239.74V236.13C31.1804 236.13 47.5804 241.17 63.4504 246.05C79.0604 250.84 95.2004 255.8 126.95 255.8C158.7 255.8 174.83 250.84 190.44 246.05C206.31 241.18 222.71 236.13 254.99 236.13V239.74C223.25 239.74 207.11 244.7 191.5 249.49C175.63 254.36 159.23 259.41 126.95 259.41Z" fill="#2557A5"/>
<path d="M126.95 250.33C94.6804 250.33 78.2904 245.3 62.4304 240.42C46.8104 235.62 30.6604 230.67 -1.09961 230.67V227.32C31.1604 227.32 47.5604 232.35 63.4104 237.23C79.0304 242.03 95.1904 246.98 126.95 246.98C158.71 246.98 174.86 242.02 190.48 237.23C206.33 232.36 222.73 227.32 254.99 227.32V230.67C223.23 230.67 207.08 235.63 191.46 240.42C175.61 245.29 159.21 250.33 126.95 250.33Z" fill="#2557A5"/>
<path d="M126.95 241.26C94.7104 241.26 78.3104 236.23 62.4704 231.37C46.8404 226.57 30.6804 221.61 -1.09961 221.61V218.52C31.1404 218.52 47.5304 223.55 63.3704 228.41C79.0004 233.21 95.1604 238.17 126.95 238.17C158.74 238.17 174.89 233.2 190.52 228.41C206.36 223.54 222.75 218.52 254.99 218.52V221.61C223.21 221.61 207.05 226.58 191.42 231.37C175.58 236.24 159.19 241.26 126.95 241.26Z" fill="#2557A5"/>
<path d="M126.95 232.19C94.7204 232.19 78.3404 227.16 62.5104 222.3C46.8704 217.5 30.7004 212.53 -1.09961 212.53V209.7C31.1204 209.7 47.5004 214.73 63.3304 219.59C78.9704 224.39 95.1504 229.36 126.95 229.36C158.75 229.36 174.91 224.39 190.56 219.59C206.4 214.72 222.77 209.7 254.99 209.7V212.53C223.19 212.53 207.03 217.5 191.38 222.3C175.54 227.17 159.17 232.19 126.95 232.19Z" fill="#2557A5"/>
<path d="M126.95 223.12C94.7504 223.12 78.3804 218.09 62.5404 213.23C46.9004 208.43 30.7204 203.46 -1.09961 203.46V200.88C31.1004 200.88 47.4704 205.91 63.2904 210.77C78.9404 215.57 95.1204 220.54 126.94 220.54C158.76 220.54 174.93 215.57 190.58 210.77C206.42 205.9 222.78 200.88 254.98 200.88V203.46C223.16 203.46 206.99 208.43 191.34 213.23C175.5 218.1 159.14 223.12 126.94 223.12H126.95Z" fill="#2557A5"/>
<path d="M126.95 214.05C94.7604 214.05 78.4004 209.02 62.5804 204.17C46.9304 199.37 30.7404 194.39 -1.09961 194.39V192.07C31.0804 192.07 47.4404 197.1 63.2604 201.95C78.9104 206.75 95.1104 211.73 126.94 211.73C158.77 211.73 174.96 206.76 190.62 201.95C206.44 197.09 222.8 192.07 254.98 192.07V194.39C223.14 194.39 206.96 199.36 191.3 204.17C175.48 209.03 159.12 214.05 126.94 214.05H126.95Z" fill="#2557A5"/>
<path d="M126.95 204.97C94.7802 204.97 78.4302 199.95 62.6202 195.1C46.9602 190.29 30.7602 185.31 -1.08984 185.31V183.25C31.0802 183.25 47.4202 188.27 63.2402 193.12C78.9002 197.93 95.1002 202.91 126.96 202.91C158.82 202.91 175.02 197.94 190.67 193.12C206.48 188.27 222.83 183.25 255 183.25V185.31C223.15 185.31 206.94 190.28 191.29 195.1C175.48 199.95 159.13 204.97 126.96 204.97H126.95Z" fill="#2557A5"/>
<path d="M126.95 195.9C94.8004 195.9 78.4604 190.88 62.6504 186.03C46.9804 181.22 30.7704 176.24 -1.09961 176.24V174.44C31.0404 174.44 47.3804 179.46 63.1904 184.31C78.8604 189.12 95.0704 194.1 126.95 194.1C158.83 194.1 175.03 189.12 190.7 184.31C206.5 179.46 222.84 174.44 254.99 174.44V176.24C223.11 176.24 206.91 181.22 191.24 186.03C175.44 190.88 159.1 195.9 126.95 195.9Z" fill="#2557A5"/>
<path d="M126.95 186.84C94.8204 186.84 78.4904 181.82 62.6904 176.97C47.0104 172.16 30.7904 167.18 -1.09961 167.18V165.62C31.0304 165.62 47.3504 170.64 63.1504 175.49C78.8304 180.3 95.0504 185.28 126.95 185.28C158.85 185.28 175.06 180.3 190.74 175.49C206.54 170.64 222.86 165.62 254.99 165.62V167.18C223.1 167.18 206.88 172.16 191.2 176.97C175.4 181.82 159.08 186.84 126.95 186.84Z" fill="#2557A5"/>
<path d="M126.95 177.76C94.8404 177.76 78.5104 172.75 62.7304 167.9C47.0404 163.08 30.8204 158.1 -1.09961 158.1V156.8C31.0104 156.8 47.3304 161.81 63.1104 166.66C78.8004 171.48 95.0304 176.46 126.95 176.46C158.87 176.46 175.09 171.48 190.78 166.66C206.56 161.81 222.89 156.8 254.99 156.8V158.1C223.08 158.1 206.85 163.08 191.16 167.9C175.38 172.75 159.05 177.76 126.95 177.76Z" fill="#2557A5"/>
<path d="M126.95 168.69C94.8604 168.69 78.5404 163.68 62.7704 158.84C47.0704 154.02 30.8304 149.03 -1.09961 149.03V147.99C30.9904 147.99 47.3004 153 63.0704 157.84C78.7804 162.66 95.0104 167.65 126.95 167.65C158.89 167.65 175.12 162.66 190.82 157.84C206.59 153 222.9 147.99 254.99 147.99V149.03C223.06 149.03 206.82 154.02 191.12 158.84C175.35 163.68 159.04 168.69 126.95 168.69Z" fill="#2557A5"/>
<path d="M126.95 169.29C94.5804 169.29 78.1504 164.24 62.2404 159.36C46.6604 154.58 30.5604 149.64 -1.09961 149.64V145.01C31.2604 145.01 47.7004 150.06 63.6004 154.94C79.1804 159.72 95.2804 164.66 126.95 164.66C158.62 164.66 174.72 159.72 190.29 154.94C206.19 150.06 222.63 145.01 254.99 145.01V149.64C223.33 149.64 207.22 154.58 191.65 159.36C175.75 164.24 159.31 169.29 126.95 169.29Z" fill="#2557A5"/>
<path d="M126.95 160.22C94.6104 160.22 78.1804 155.17 62.2804 150.29C46.7004 145.51 30.5804 140.56 -1.09961 140.56V136.19C31.2304 136.19 47.6704 141.24 63.5604 146.12C79.1404 150.9 95.2604 155.85 126.95 155.85C158.64 155.85 174.75 150.9 190.33 146.12C206.22 141.24 222.66 136.19 254.99 136.19V140.56C223.3 140.56 207.19 145.51 191.61 150.29C175.72 155.17 159.28 160.22 126.95 160.22Z" fill="#2557A5"/>
<path d="M126.95 151.15C94.6204 151.15 78.2004 146.11 62.3204 141.23C46.7304 136.44 30.6004 131.49 -1.09961 131.49V127.38C31.2204 127.38 47.6404 132.42 63.5204 137.3C79.1104 142.09 95.2404 147.04 126.94 147.04C158.64 147.04 174.77 142.09 190.36 137.3C206.24 132.42 222.66 127.38 254.98 127.38V131.49C223.28 131.49 207.15 136.44 191.56 141.23C175.68 146.11 159.26 151.15 126.94 151.15H126.95Z" fill="#2557A5"/>
<path d="M126.95 142.07C94.6504 142.07 78.2304 137.03 62.3604 132.15C46.7504 127.36 30.6204 122.4 -1.09961 122.4V118.55C31.2004 118.55 47.6104 123.59 63.4904 128.47C79.1004 133.26 95.2304 138.22 126.95 138.22C158.67 138.22 174.81 133.26 190.41 128.47C206.28 123.6 222.7 118.55 255 118.55V122.4C223.28 122.4 207.14 127.36 191.54 132.15C175.67 137.02 159.25 142.07 126.95 142.07Z" fill="#2557A5"/>
<path d="M126.95 133.01C94.6704 133.01 78.2604 127.97 62.3904 123.1C46.7804 118.3 30.6404 113.35 -1.09961 113.35V109.74C31.1804 109.74 47.5804 114.78 63.4504 119.65C79.0604 124.45 95.2004 129.4 126.95 129.4C158.7 129.4 174.83 124.45 190.44 119.65C206.31 114.78 222.71 109.74 254.99 109.74V113.35C223.25 113.35 207.11 118.3 191.5 123.1C175.63 127.97 159.23 133.01 126.95 133.01Z" fill="#2557A5"/>
<path d="M126.95 123.94C94.6804 123.94 78.2904 118.91 62.4304 114.03C46.8104 109.23 30.6604 104.28 -1.09961 104.28V100.93C31.1604 100.93 47.5604 105.96 63.4104 110.84C79.0304 115.64 95.1904 120.59 126.95 120.59C158.71 120.59 174.86 115.63 190.48 110.84C206.33 105.97 222.73 100.93 254.99 100.93V104.28C223.23 104.28 207.08 109.24 191.46 114.03C175.61 118.9 159.21 123.94 126.95 123.94Z" fill="#2557A5"/>
<path d="M126.95 114.86C94.7104 114.86 78.3104 109.83 62.4704 104.96C46.8404 100.16 30.6804 95.2001 -1.09961 95.2001V92.1101C31.1404 92.1101 47.5304 97.1401 63.3704 102.01C79.0004 106.81 95.1604 111.77 126.95 111.77C158.74 111.77 174.89 106.8 190.52 102.01C206.36 97.1401 222.75 92.1101 254.99 92.1101V95.2001C223.21 95.2001 207.05 100.17 191.42 104.96C175.58 109.83 159.19 114.86 126.95 114.86Z" fill="#2557A5"/>
<path d="M126.95 105.79C94.7204 105.79 78.3404 100.76 62.5104 95.9C46.8704 91.1 30.7004 86.13 -1.09961 86.13V83.3C31.1204 83.3 47.5004 88.33 63.3304 93.19C78.9704 97.99 95.1504 102.96 126.95 102.96C158.75 102.96 174.91 97.99 190.56 93.19C206.4 88.32 222.77 83.3 254.99 83.3V86.13C223.19 86.13 207.03 91.1 191.38 95.9C175.54 100.77 159.17 105.79 126.95 105.79Z" fill="#2557A5"/>
<path d="M126.95 96.72C94.7504 96.72 78.3804 91.69 62.5404 86.84C46.9004 82.04 30.7204 77.07 -1.09961 77.07V74.49C31.1004 74.49 47.4704 79.52 63.2904 84.37C78.9404 89.17 95.1204 94.14 126.94 94.14C158.76 94.14 174.93 89.17 190.59 84.37C206.42 79.51 222.78 74.49 254.98 74.49V77.07C223.16 77.07 206.99 82.04 191.33 86.84C175.5 91.7 159.14 96.72 126.94 96.72H126.95Z" fill="#2557A5"/>
<path d="M126.95 87.6599C94.7604 87.6599 78.4004 82.6299 62.5804 77.7799C46.9304 72.9799 30.7404 67.9999 -1.09961 67.9999V65.6799C31.0804 65.6799 47.4404 70.7099 63.2604 75.5599C78.9104 80.3599 95.1104 85.3399 126.94 85.3399C158.77 85.3399 174.96 80.3699 190.62 75.5599C206.44 70.6999 222.8 65.6799 254.98 65.6799V67.9999C223.14 67.9999 206.96 72.9699 191.3 77.7799C175.48 82.6399 159.12 87.6599 126.94 87.6599H126.95Z" fill="#2557A5"/>
<path d="M126.95 78.5801C94.7802 78.5801 78.4302 73.5601 62.6202 68.7001C46.9602 63.8901 30.7602 58.9101 -1.08984 58.9101V56.8501C31.0802 56.8501 47.4202 61.8701 63.2402 66.7301C78.9002 71.5401 95.1002 76.5201 126.96 76.5201C158.82 76.5201 175.02 71.5501 190.67 66.7301C206.48 61.8701 222.83 56.8501 255 56.8501V58.9101C223.15 58.9101 206.94 63.8801 191.29 68.7001C175.48 73.5601 159.13 78.5801 126.96 78.5801H126.95Z" fill="#2557A5"/>
<path d="M126.95 69.5101C94.8004 69.5101 78.4604 64.5001 62.6504 59.6501C46.9804 54.8401 30.7704 49.8601 -1.09961 49.8601V48.0601C31.0404 48.0601 47.3804 53.0701 63.1904 57.9201C78.8604 62.7301 95.0704 67.7101 126.95 67.7101C158.83 67.7101 175.03 62.7301 190.7 57.9201C206.5 53.0701 222.84 48.0601 254.99 48.0601V49.8601C223.11 49.8601 206.91 54.8401 191.24 59.6501C175.44 64.5001 159.1 69.5101 126.95 69.5101Z" fill="#2557A5"/>
<path d="M126.95 60.45C94.8204 60.45 78.4904 55.43 62.6904 50.58C47.0104 45.77 30.7904 40.79 -1.09961 40.79V39.23C31.0304 39.23 47.3504 44.25 63.1504 49.1C78.8304 53.91 95.0504 58.89 126.95 58.89C158.85 58.89 175.06 53.91 190.74 49.1C206.54 44.25 222.86 39.23 254.99 39.23V40.79C223.1 40.79 206.88 45.77 191.2 50.58C175.4 55.43 159.08 60.45 126.95 60.45Z" fill="#2557A5"/>
<path d="M126.95 51.3699C94.8404 51.3699 78.5104 46.3599 62.7304 41.5099C47.0404 36.6899 30.8204 31.7099 -1.09961 31.7099V30.4099C31.0104 30.4099 47.3304 35.4199 63.1104 40.2699C78.8004 45.0899 95.0304 50.0699 126.95 50.0699C158.87 50.0699 175.09 45.0899 190.78 40.2699C206.56 35.4199 222.89 30.4099 254.99 30.4099V31.7099C223.08 31.7099 206.85 36.6899 191.16 41.5099C175.38 46.3599 159.05 51.3699 126.95 51.3699Z" fill="#2557A5"/>
<path d="M126.95 42.3001C94.8604 42.3001 78.5404 37.2901 62.7704 32.4501C47.0704 27.6301 30.8304 22.6401 -1.09961 22.6401V21.6001C30.9904 21.6001 47.3004 26.6101 63.0704 31.4501C78.7804 36.2701 95.0104 41.2601 126.95 41.2601C158.89 41.2601 175.12 36.2701 190.82 31.4501C206.59 26.6101 222.9 21.6001 254.99 21.6001V22.6401C223.06 22.6401 206.82 27.6301 191.12 32.4501C175.35 37.2901 159.04 42.3001 126.95 42.3001Z" fill="#2557A5"/>
</g>
<defs>
<clipPath id="clip0_96_436">
<rect width="1280" height="572.04" fill="white" transform="translate(0 -10)"/>
</clipPath>
</defs>
</svg>
