<svg width="390" height="42" viewBox="0 0 390 42" fill="none" xmlns="http://www.w3.org/2000/svg">
<mask id="mask0_107_419" style="mask-type:alpha" maskUnits="userSpaceOnUse" x="0" y="0" width="390" height="42">
<rect width="390" height="42" transform="matrix(-1 0 0 1 390 0)" fill="#D9D9D9"/>
</mask>
<g mask="url(#mask0_107_419)">
<path d="M590.828 13.3516V97.0001H-200V13.3516C-181.578 13.5366 -171.92 16.5029 -162.564 19.3705C-152.683 22.3985 -142.475 25.5251 -122.386 25.5251C-102.297 25.5251 -92.0894 22.3923 -82.2147 19.3705C-71.1729 15.9849 -60.1373 13.7463 -48.5397 13.4256C-32.3352 12.9816 -16.0504 9.10254 -0.321457 5.31603C9.73225 2.89858 19.1128 0.635312 29.5124 0.148123C45.5254 -0.604245 60.9765 1.37535 76.2732 6.0684C90.0755 10.2989 104.489 11.9702 118.798 13.4317C127.135 14.2828 135.472 15.177 143.673 16.9284C152.133 18.7415 160.464 21.1034 168.961 22.7623C191.193 27.0915 214.123 26.0123 235.793 19.3705C244.537 16.6941 253.275 14.5973 262.415 13.8326C279.892 12.371 298.103 11.2486 314.975 6.07457C339.924 -1.58479 365.867 -1.92397 391.082 5.01385C400.765 7.67797 410.491 10.3668 420.502 11.4645C436.614 13.2344 452.911 14.0669 468.695 17.983C479.546 20.6717 489.667 24.1314 500.944 25.0503C505.162 25.3956 509.398 25.5313 513.628 25.5313C523.929 25.5313 534.063 24.5508 544.08 22.1641C549.891 20.7766 555.498 18.5688 561.328 17.1566C571.048 14.8008 580.83 13.4811 590.828 13.3577V13.3516Z" fill="white"/>
</g>
</svg>
