<svg width="309" height="155" viewBox="0 0 309 155" fill="none" xmlns="http://www.w3.org/2000/svg">
<mask id="mask0_116_1829" style="mask-type:alpha" maskUnits="userSpaceOnUse" x="0" y="0" width="309" height="155">
<rect width="308.46" height="155" fill="#D9D9D9"/>
</mask>
<g mask="url(#mask0_116_1829)">
<g clip-path="url(#clip0_116_1829)">
<path d="M462.819 90.8101C443.399 90.8101 433.529 88.5801 423.979 86.4201C414.549 84.2901 404.809 82.0801 385.629 82.0801C366.449 82.0801 356.709 84.2901 347.279 86.4201C337.729 88.5801 327.859 90.8101 308.439 90.8101V88.5801C327.609 88.5801 337.359 86.3701 346.789 84.2401C356.339 82.0801 366.209 79.8501 385.629 79.8501C405.049 79.8501 414.919 82.0801 424.469 84.2401C433.899 86.3701 443.639 88.5801 462.819 88.5801V90.8101Z" fill="#AAD5ED"/>
<path d="M462.819 101.45C443.409 101.45 433.549 99.2198 424.009 97.0598C414.579 94.9298 404.819 92.7198 385.629 92.7198C366.439 92.7198 356.689 94.9298 347.249 97.0598C337.709 99.2198 327.849 101.45 308.439 101.45V99.4898C327.629 99.4898 337.379 97.2798 346.819 95.1498C356.359 92.9898 366.219 90.7598 385.629 90.7598C405.039 90.7598 414.899 92.9898 424.439 95.1498C433.869 97.2798 443.629 99.4898 462.819 99.4898V101.45Z" fill="#AAD5ED"/>
<path d="M462.819 112.09C443.429 112.09 433.569 109.86 424.039 107.7C414.599 105.56 404.839 103.36 385.629 103.36C366.419 103.36 356.659 105.57 347.219 107.7C337.689 109.86 327.829 112.09 308.439 112.09V110.41C327.639 110.41 337.409 108.2 346.849 106.07C356.379 103.91 366.239 101.68 385.629 101.68C405.019 101.68 414.879 103.91 424.409 106.07C433.849 108.21 443.609 110.41 462.819 110.41V112.09Z" fill="#AAD5ED"/>
<path d="M462.819 122.74C443.449 122.74 433.599 120.51 424.069 118.36C414.619 116.22 404.849 114.01 385.629 114.01C366.409 114.01 356.639 116.22 347.189 118.36C337.669 120.52 327.819 122.74 308.439 122.74V121.34C327.659 121.34 337.429 119.13 346.879 116.99C356.399 114.83 366.249 112.61 385.629 112.61C405.009 112.61 414.849 114.84 424.379 116.99C433.829 119.13 443.599 121.34 462.819 121.34V122.74Z" fill="#AAD5ED"/>
<path d="M462.819 133.38C443.459 133.38 433.619 131.15 424.099 129C414.639 126.86 404.859 124.65 385.629 124.65C366.399 124.65 356.619 126.86 347.159 129C337.639 131.15 327.799 133.38 308.439 133.38V132.26C327.669 132.26 337.449 130.05 346.909 127.91C356.429 125.76 366.269 123.53 385.629 123.53C404.989 123.53 414.829 125.76 424.349 127.91C433.809 130.05 443.579 132.26 462.819 132.26V133.38Z" fill="#AAD5ED"/>
<path d="M462.819 144.02C443.479 144.02 433.639 141.8 424.129 139.64C414.669 137.5 404.879 135.29 385.629 135.29C366.379 135.29 356.589 137.5 347.129 139.64C337.619 141.79 327.789 144.02 308.439 144.02V143.18C327.689 143.18 337.479 140.97 346.939 138.83C356.449 136.68 366.279 134.45 385.629 134.45C404.979 134.45 414.809 136.67 424.319 138.83C433.779 140.97 443.569 143.18 462.819 143.18V144.02Z" fill="#AAD5ED"/>
<path d="M154.37 80.1702C134.93 80.1702 125.05 77.9302 115.5 75.7702C106.08 73.6402 96.3398 71.4402 77.1898 71.4402C58.0398 71.4402 48.2898 73.6402 38.8798 75.7702C29.3298 77.9302 19.4498 80.1702 0.00976562 80.1702V77.6602C19.1698 77.6602 28.9098 75.4602 38.3198 73.3302C47.8698 71.1702 57.7498 68.9302 77.1898 68.9302C96.6298 68.9302 106.51 71.1702 116.06 73.3302C125.48 75.4602 135.22 77.6602 154.37 77.6602V80.1702Z" fill="#AAD5ED"/>
<path d="M154.37 85.4899C134.94 85.4899 125.07 83.2599 115.52 81.0999C106.1 78.9699 96.3498 76.7599 77.1898 76.7599C58.0298 76.7599 48.2798 78.9599 38.8598 81.0999C29.3098 83.2599 19.4298 85.4899 0.00976562 85.4899V83.1099C19.1698 83.1099 28.9198 80.9099 38.3398 78.7699C47.8898 76.6099 57.7698 74.3799 77.1898 74.3799C96.6098 74.3799 106.49 76.6099 116.04 78.7699C125.46 80.8999 135.21 83.1099 154.37 83.1099V85.4899Z" fill="#AAD5ED"/>
<path d="M154.37 90.8101C134.95 90.8101 125.08 88.5801 115.53 86.4201C106.1 84.2901 96.3602 82.0801 77.1802 82.0801C58.0002 82.0801 48.2602 84.2901 38.8302 86.4201C29.2802 88.5801 19.4102 90.8101 -0.00976562 90.8101V88.5801C19.1602 88.5801 28.9102 86.3701 38.3402 84.2401C47.8902 82.0801 57.7602 79.8501 77.1802 79.8501C96.6002 79.8501 106.47 82.0801 116.02 84.2401C125.45 86.3701 135.19 88.5801 154.37 88.5801V90.8101Z" fill="#AAD5ED"/>
<path d="M154.37 96.1298C134.96 96.1298 125.09 93.8998 115.55 91.7398C106.12 89.6098 96.3698 87.3998 77.1898 87.3998C58.0098 87.3998 48.2598 89.6098 38.8298 91.7398C29.2898 93.8998 19.4198 96.1298 0.00976562 96.1298V94.0298C19.1898 94.0298 28.9398 91.8198 38.3698 89.6898C47.9098 87.5298 57.7798 85.2998 77.1898 85.2998C96.5998 85.2998 106.47 87.5298 116.01 89.6898C125.44 91.8198 135.19 94.0298 154.37 94.0298V96.1298Z" fill="#AAD5ED"/>
<path d="M154.37 101.45C134.96 101.45 125.1 99.2198 115.56 97.0598C106.13 94.9298 96.3702 92.7198 77.1802 92.7198C57.9902 92.7198 48.2402 94.9298 38.8002 97.0598C29.2602 99.2198 19.4002 101.45 -0.00976562 101.45V99.4898C19.1802 99.4898 28.9302 97.2798 38.3702 95.1498C47.9102 92.9898 57.7702 90.7598 77.1802 90.7598C96.5902 90.7598 106.45 92.9898 115.99 95.1498C125.42 97.2798 135.18 99.4898 154.37 99.4898V101.45Z" fill="#AAD5ED"/>
<path d="M154.37 106.77C134.97 106.77 125.11 104.54 115.58 102.38C106.14 100.24 96.3798 98.0402 77.1898 98.0402C57.9998 98.0402 48.2398 100.25 38.7998 102.38C29.2598 104.54 19.3998 106.77 0.00976562 106.77V104.95C19.1998 104.95 28.9598 102.74 38.3998 100.61C47.9398 98.4502 57.7998 96.2202 77.1898 96.2202C96.5798 96.2202 106.45 98.4502 115.98 100.61C125.42 102.75 135.18 104.95 154.37 104.95V106.77Z" fill="#AAD5ED"/>
<path d="M154.37 112.09C134.98 112.09 125.12 109.86 115.59 107.7C106.15 105.56 96.3902 103.36 77.1802 103.36C57.9702 103.36 48.2102 105.57 38.7702 107.7C29.2402 109.86 19.3802 112.09 -0.00976562 112.09V110.41C19.1902 110.41 28.9602 108.2 38.4002 106.07C47.9302 103.91 57.7902 101.68 77.1802 101.68C96.5702 101.68 106.43 103.91 115.96 106.07C125.4 108.21 135.16 110.41 154.37 110.41V112.09Z" fill="#AAD5ED"/>
<path d="M154.37 117.41C134.99 117.41 125.14 115.18 115.61 113.03C106.16 110.89 96.3998 108.68 77.1898 108.68C57.9798 108.68 48.2098 110.89 38.7698 113.03C29.2398 115.19 19.3898 117.41 0.00976562 117.41V115.87C19.2198 115.87 28.9898 113.66 38.4298 111.52C47.9598 109.36 57.8098 107.14 77.1898 107.14C96.5698 107.14 106.42 109.37 115.95 111.52C125.4 113.66 135.16 115.87 154.37 115.87V117.41Z" fill="#AAD5ED"/>
<path d="M154.37 122.74C135 122.74 125.15 120.51 115.62 118.36C106.17 116.22 96.4002 114.01 77.1802 114.01C57.9602 114.01 48.1902 116.22 38.7402 118.36C29.2202 120.52 19.3702 122.74 -0.00976562 122.74V121.34C19.2102 121.34 28.9802 119.13 38.4302 116.99C47.9502 114.83 57.8002 112.61 77.1802 112.61C96.5602 112.61 106.4 114.84 115.93 116.99C125.38 119.13 135.15 121.34 154.37 121.34V122.74Z" fill="#AAD5ED"/>
<path d="M154.37 128.06C135 128.06 125.16 125.83 115.64 123.68C106.19 121.54 96.4098 119.33 77.1898 119.33C57.9698 119.33 48.1898 121.54 38.7398 123.68C29.2198 125.83 19.3798 128.06 0.00976562 128.06V126.8C19.2398 126.8 29.0098 124.59 38.4598 122.45C47.9798 120.3 57.8198 118.07 77.1898 118.07C96.5598 118.07 106.4 120.3 115.92 122.45C125.37 124.59 135.15 126.8 154.37 126.8V128.06Z" fill="#AAD5ED"/>
<path d="M154.37 133.38C135.01 133.38 125.17 131.15 115.65 129C106.19 126.86 96.4102 124.65 77.1802 124.65C57.9502 124.65 48.1702 126.86 38.7102 129C29.1902 131.15 19.3502 133.38 -0.00976562 133.38V132.26C19.2202 132.26 29.0002 130.05 38.4602 127.91C47.9802 125.76 57.8202 123.53 77.1802 123.53C96.5402 123.53 106.38 125.76 115.9 127.91C125.36 130.05 135.14 132.26 154.37 132.26V133.38Z" fill="#AAD5ED"/>
<path d="M154.37 138.7C135.02 138.7 125.18 136.48 115.67 134.32C106.21 132.18 96.4298 129.97 77.1898 129.97C57.9498 129.97 48.1698 132.18 38.7098 134.32C29.1998 136.47 19.3598 138.7 0.00976562 138.7V137.72C19.2498 137.72 29.0298 135.51 38.4898 133.37C47.9998 131.22 57.8398 128.99 77.1898 128.99C96.5398 128.99 106.38 131.21 115.89 133.37C125.35 135.51 135.13 137.72 154.37 137.72V138.7Z" fill="#AAD5ED"/>
<path d="M154.37 144.02C135.03 144.02 125.19 141.8 115.68 139.64C106.22 137.5 96.4302 135.29 77.1802 135.29C57.9302 135.29 48.1402 137.5 38.6802 139.64C29.1702 141.79 19.3402 144.02 -0.00976562 144.02V143.18C19.2402 143.18 29.0302 140.97 38.4902 138.83C48.0002 136.68 57.8302 134.45 77.1802 134.45C96.5302 134.45 106.36 136.67 115.87 138.83C125.33 140.97 135.12 143.18 154.37 143.18V144.02Z" fill="#AAD5ED"/>
<path d="M154.37 149.34C135.03 149.34 125.21 147.12 115.7 144.97C106.23 142.83 96.4398 140.61 77.1898 140.61C57.9398 140.61 48.1398 142.82 38.6798 144.97C29.1698 147.12 19.3498 149.34 0.00976562 149.34V148.63C19.2698 148.63 29.0598 146.42 38.5198 144.27C48.0298 142.12 57.8498 139.9 77.1898 139.9C96.5298 139.9 106.35 142.12 115.86 144.27C125.33 146.41 135.12 148.63 154.37 148.63V149.34Z" fill="#AAD5ED"/>
<path d="M154.37 154.66C135.04 154.66 125.22 152.44 115.72 150.29C106.25 148.15 96.4498 145.93 77.1898 145.93C57.9298 145.93 48.1298 148.14 38.6598 150.29C29.1598 152.44 19.3298 154.66 0.00976562 154.66V154.09C19.2698 154.09 29.0698 151.88 38.5398 149.73C48.0398 147.58 57.8698 145.36 77.1898 145.36C96.5098 145.36 106.34 147.58 115.84 149.73C125.31 151.87 135.11 154.09 154.37 154.09V154.66Z" fill="#AAD5ED"/>
<path d="M231.209 85.74C211.769 85.74 201.889 83.5 192.339 81.34C182.919 79.21 173.179 77.01 154.029 77.01V74.5C173.469 74.5 183.349 76.74 192.899 78.9C202.319 81.03 212.059 83.23 231.209 83.23C250.359 83.23 260.109 81.03 269.519 78.9C279.069 76.74 288.949 74.5 308.389 74.5V77.01C289.229 77.01 279.489 79.21 270.079 81.34C260.529 83.5 250.649 85.74 231.209 85.74Z" fill="#AAD5ED"/>
<path d="M231.209 80.2799C211.779 80.2799 201.909 78.0499 192.359 75.8899C182.939 73.7599 173.189 71.5499 154.029 71.5499V69.1699C173.459 69.1699 183.329 71.3999 192.879 73.5599C202.299 75.6899 212.049 77.8999 231.209 77.8999C250.369 77.8999 260.119 75.6999 269.539 73.5599C279.089 71.3999 288.969 69.1699 308.389 69.1699V71.5499C289.229 71.5499 279.479 73.7499 270.059 75.8899C260.509 78.0499 250.629 80.2799 231.209 80.2799Z" fill="#AAD5ED"/>
<path d="M231.21 74.8199C211.79 74.8199 201.92 72.5899 192.37 70.4299C182.94 68.2999 173.2 66.0899 154.02 66.0899V63.8599C173.44 63.8599 183.31 66.0899 192.86 68.2499C202.29 70.3799 212.03 72.5899 231.21 72.5899C250.39 72.5899 260.13 70.3799 269.56 68.2499C279.11 66.0899 288.98 63.8599 308.4 63.8599V66.0899C289.23 66.0899 279.48 68.2999 270.05 70.4299C260.5 72.5899 250.63 74.8199 231.21 74.8199Z" fill="#AAD5ED"/>
<path d="M231.209 69.3598C211.799 69.3598 201.929 67.1298 192.389 64.9698C182.959 62.8398 173.209 60.6298 154.029 60.6298V58.5298C173.439 58.5298 183.309 60.7598 192.849 62.9198C202.279 65.0498 212.029 67.2598 231.209 67.2598C250.389 67.2598 260.139 65.0498 269.569 62.9198C279.109 60.7598 288.979 58.5298 308.389 58.5298V60.6298C289.209 60.6298 279.459 62.8398 270.029 64.9698C260.489 67.1298 250.619 69.3598 231.209 69.3598Z" fill="#AAD5ED"/>
<path d="M231.21 63.9C211.8 63.9 201.94 61.67 192.4 59.51C182.97 57.38 173.21 55.17 154.02 55.17V53.21C173.43 53.21 183.29 55.44 192.83 57.6C202.26 59.73 212.02 61.94 231.21 61.94C250.4 61.94 260.15 59.73 269.59 57.6C279.13 55.44 288.99 53.21 308.4 53.21V55.17C289.21 55.17 279.46 57.38 270.02 59.51C260.48 61.67 250.62 63.9 231.21 63.9Z" fill="#AAD5ED"/>
<path d="M231.209 58.4401C211.809 58.4401 201.949 56.2101 192.419 54.0501C182.979 51.9101 173.219 49.7101 154.029 49.7101V47.8901C173.429 47.8901 183.289 50.1201 192.819 52.2801C202.259 54.4201 212.019 56.6201 231.209 56.6201C250.399 56.6201 260.159 54.4101 269.599 52.2801C279.139 50.1201 288.999 47.8901 308.389 47.8901V49.7101C289.199 49.7101 279.439 51.9201 269.999 54.0501C260.459 56.2101 250.599 58.4401 231.209 58.4401Z" fill="#AAD5ED"/>
<path d="M231.21 52.9798C211.82 52.9798 201.96 50.7498 192.43 48.5898C182.99 46.4498 173.23 44.2498 154.02 44.2498V42.5698C173.41 42.5698 183.27 44.7998 192.8 46.9598C202.24 49.0998 212 51.2998 231.21 51.2998C250.42 51.2998 260.18 49.0898 269.62 46.9598C279.15 44.7998 289.01 42.5698 308.4 42.5698V44.2498C289.2 44.2498 279.43 46.4598 269.99 48.5898C260.46 50.7498 250.6 52.9798 231.21 52.9798Z" fill="#AAD5ED"/>
<path d="M231.209 47.52C211.829 47.52 201.979 45.29 192.449 43.14C182.999 41 173.239 38.79 154.029 38.79V37.25C173.409 37.25 183.259 39.48 192.789 41.63C202.239 43.77 211.999 45.98 231.209 45.98C250.419 45.98 260.189 43.77 269.629 41.63C279.159 39.47 289.009 37.25 308.389 37.25V38.79C289.179 38.79 279.409 41 269.969 43.14C260.439 45.3 250.589 47.52 231.209 47.52Z" fill="#AAD5ED"/>
<path d="M231.21 42.0602C211.84 42.0602 201.99 39.8302 192.46 37.6802C183.01 35.5402 173.24 33.3302 154.02 33.3302V31.9302C173.39 31.9302 183.24 34.1602 192.77 36.3102C202.22 38.4502 211.99 40.6602 231.21 40.6602C250.43 40.6602 260.2 38.4502 269.65 36.3102C279.17 34.1602 289.02 31.9302 308.4 31.9302V33.3302C289.18 33.3302 279.41 35.5402 269.96 37.6802C260.44 39.8302 250.59 42.0602 231.21 42.0602Z" fill="#AAD5ED"/>
<path d="M231.209 36.5999C211.839 36.5999 201.999 34.3699 192.479 32.2199C183.029 30.0799 173.249 27.8699 154.029 27.8699V26.6099C173.399 26.6099 183.239 28.8399 192.759 30.9899C202.209 33.1299 211.989 35.3399 231.209 35.3399C250.429 35.3399 260.209 33.1299 269.659 30.9899C279.179 28.8399 289.019 26.6099 308.389 26.6099V27.8699C289.159 27.8699 279.389 30.0799 269.939 32.2199C260.419 34.3699 250.579 36.5999 231.209 36.5999Z" fill="#AAD5ED"/>
<path d="M231.21 31.14C211.85 31.14 202.01 28.91 192.49 26.76C183.03 24.62 173.25 22.41 154.02 22.41V21.29C173.38 21.29 183.22 23.52 192.74 25.67C202.2 27.81 211.98 30.02 231.21 30.02C250.44 30.02 260.22 27.81 269.68 25.67C279.2 23.52 289.04 21.29 308.4 21.29V22.41C289.17 22.41 279.39 24.62 269.93 26.76C260.41 28.91 250.57 31.14 231.21 31.14Z" fill="#AAD5ED"/>
<path d="M231.209 25.6802C211.859 25.6802 202.019 23.4602 192.509 21.3002C183.049 19.1602 173.269 16.9502 154.029 16.9502V15.9702C173.379 15.9702 183.219 18.1902 192.729 20.3502C202.189 22.4902 211.969 24.7002 231.209 24.7002C250.449 24.7002 260.229 22.4902 269.689 20.3502C279.199 18.2002 289.039 15.9702 308.389 15.9702V16.9502C289.149 16.9502 279.369 19.1602 269.909 21.3002C260.399 23.4502 250.559 25.6802 231.209 25.6802Z" fill="#AAD5ED"/>
<path d="M231.21 20.2199C211.87 20.2199 202.03 17.9999 192.52 15.8399C183.06 13.6999 173.27 11.4899 154.02 11.4899V10.6499C173.36 10.6499 183.2 12.8699 192.71 15.0299C202.17 17.1699 211.96 19.3799 231.21 19.3799C250.46 19.3799 260.25 17.1699 269.71 15.0299C279.22 12.8799 289.05 10.6499 308.4 10.6499V11.4899C289.15 11.4899 279.36 13.6999 269.9 15.8399C260.39 17.9899 250.56 20.2199 231.21 20.2199Z" fill="#AAD5ED"/>
<path d="M231.209 14.7598C211.869 14.7598 202.049 12.5398 192.539 10.3898C183.069 8.24982 173.279 6.02982 154.029 6.02982V5.31982C173.369 5.31982 183.189 7.53982 192.699 9.68982C202.169 11.8298 211.959 14.0498 231.209 14.0498C250.459 14.0498 260.259 11.8398 269.719 9.68982C279.229 7.53982 289.049 5.31982 308.389 5.31982V6.02982C289.129 6.02982 279.339 8.23982 269.879 10.3898C260.369 12.5398 250.549 14.7598 231.209 14.7598Z" fill="#AAD5ED"/>
<path d="M231.209 9.3C211.879 9.3 202.059 7.08 192.559 4.93C183.089 2.79 173.289 0.57 154.029 0.57V0C173.359 0 183.179 2.22 192.679 4.37C202.149 6.51 211.949 8.73 231.209 8.73C250.469 8.73 260.269 6.52 269.739 4.37C279.239 2.22 289.069 0 308.389 0V0.57C289.129 0.57 279.329 2.78 269.859 4.93C260.359 7.08 250.529 9.3 231.209 9.3Z" fill="#AAD5ED"/>
</g>
</g>
<defs>
<clipPath id="clip0_116_1829">
<rect width="1388.51" height="154.66" fill="white"/>
</clipPath>
</defs>
</svg>
