<svg width="1280" height="42" viewBox="0 0 1280 42" fill="none" xmlns="http://www.w3.org/2000/svg">
<mask id="mask0_115_1016" style="mask-type:alpha" maskUnits="userSpaceOnUse" x="0" y="0" width="1280" height="42">
<rect width="1280" height="42" fill="#D9D9D9"/>
</mask>
<g mask="url(#mask0_115_1016)">
<path d="M0 112L0.000111672 19.66C31.1959 19.58 47.1792 14.68 62.652 9.93C78.5652 5.05 95.0188 0 127.406 0C159.792 0 176.246 5.05 192.169 9.93C207.752 14.72 223.866 19.66 255.562 19.66V21.53C287.678 21.53 303.992 26.53 319.785 31.38C335.498 36.2 351.751 41.18 383.708 41.18C415.664 41.18 431.918 36.2 447.621 31.38C463.414 26.53 479.737 21.53 511.854 21.53V19.66C543.54 19.66 559.654 14.72 575.246 9.93C591.16 5.05 607.613 0 640 0C672.387 0 688.841 5.05 704.764 9.93C720.347 14.72 736.46 19.66 768.156 19.66V21.53C800.273 21.53 816.596 26.53 832.379 31.38C848.092 36.2 864.346 41.18 896.302 41.18C928.259 41.18 944.512 36.2 960.225 31.38C976.008 26.53 992.332 21.53 1024.45 21.53V19.66C1056.13 19.66 1072.25 14.72 1087.84 9.93C1103.75 5.05 1120.21 0 1152.59 0C1184.98 0 1201.43 5.05 1217.36 9.93C1232.82 14.68 1248.79 19.58 1280 19.66L1280 112H0Z" fill="#5D97C4"/>
</g>
</svg>
