<svg width="390" height="224" viewBox="0 0 390 224" fill="none" xmlns="http://www.w3.org/2000/svg">
<mask id="mask0_137_329" style="mask-type:alpha" maskUnits="userSpaceOnUse" x="0" y="0" width="390" height="224">
<rect width="390" height="224" fill="#D9D9D9"/>
</mask>
<g mask="url(#mask0_137_329)">
<mask id="mask1_137_329" style="mask-type:alpha" maskUnits="userSpaceOnUse" x="-193" y="0" width="388" height="224">
<rect x="-193" width="388" height="224" fill="#D9D9D9"/>
</mask>
<g mask="url(#mask1_137_329)">
<path d="M-481.138 447.859L485.873 447.859L485.873 39.3098L-481.138 39.3098V447.859Z" fill="#5D97C4"/>
<path d="M-481.44 515.203V14.5725C-457.873 14.5118 -445.798 10.7936 -434.109 7.18926C-422.087 3.48628 -409.657 -0.345703 -385.189 -0.345703C-360.722 -0.345703 -348.292 3.48628 -336.262 7.18926C-324.49 10.8239 -312.317 14.5725 -288.371 14.5725V15.9914C-264.108 15.9914 -251.783 19.7855 -239.852 23.4657C-227.981 27.1231 -215.702 30.902 -191.56 30.902C-167.418 30.902 -155.139 27.1231 -143.276 23.4657C-131.345 19.7855 -119.013 15.9914 -94.7495 15.9914V14.5725C-70.8114 14.5725 -58.6382 10.8239 -46.8582 7.18926C-34.8363 3.48628 -22.406 -0.345703 2.06131 -0.345703C26.5286 -0.345703 38.9588 3.48628 50.9883 7.18926C62.7608 10.8239 74.934 14.5725 98.8796 14.5725V15.9914C123.143 15.9914 135.475 19.7855 147.398 23.4657C159.269 27.1231 171.548 30.902 195.69 30.902C219.833 30.902 232.112 27.1231 243.982 23.4657C255.906 19.7855 268.238 15.9914 292.501 15.9914V14.5725C316.439 14.5725 328.612 10.8239 340.392 7.18926C352.414 3.48628 364.844 -0.345703 389.312 -0.345703C413.779 -0.345703 426.209 3.48628 438.239 7.18926C449.921 10.7936 461.988 14.5118 485.563 14.5725V515.203H-481.44Z" fill="white"/>
<path d="M-94.7495 18.0857V14.5725C-70.8115 14.5725 -58.6383 10.8239 -46.8583 7.18926C-34.8363 3.48628 -22.4061 -0.345703 2.06125 -0.345703C26.5286 -0.345703 38.9588 3.48628 50.9883 7.18926C62.7607 10.8239 74.9339 14.5725 98.8795 14.5725V18.0857C74.4122 18.0857 61.982 14.2538 49.96 10.5508C38.18 6.92367 26.0069 3.16758 2.06125 3.16758C-21.8844 3.16758 -34.0576 6.92367 -45.83 10.5508C-57.8595 14.2538 -70.2822 18.0857 -94.7495 18.0857Z" fill="url(#paint0_linear_137_329)"/>
<path d="M2.06125 6.53662C26.5134 6.53662 38.9361 10.3686 50.9581 14.0716C62.7381 17.6987 74.9264 21.4548 98.8795 21.4548V24.7708C74.4349 24.7708 62.0046 20.9388 49.9902 17.2358C38.2102 13.6087 26.022 9.85261 2.06125 9.85261C-21.8995 9.85261 -34.0802 13.6087 -45.8602 17.2358C-57.8746 20.9388 -70.3049 24.7708 -94.7495 24.7708V21.4548C-70.7888 21.4548 -58.608 17.6987 -46.828 14.0716C-34.8137 10.3686 -22.3834 6.53662 2.06125 6.53662Z" fill="url(#paint1_linear_137_329)"/>
<path d="M2.06126 13.4189C26.5059 13.4189 38.921 17.2433 50.9279 20.9463C62.7154 24.581 74.9113 28.3371 98.8795 28.3371V31.4558C74.4425 31.4558 62.0274 27.6314 50.0205 23.9284C38.233 20.2937 26.0371 16.5376 2.06878 16.5376C-21.8995 16.5376 -34.0954 20.2937 -45.8829 23.9284C-57.8897 27.6314 -70.3049 31.4558 -94.7419 31.4558V28.3371C-70.7736 28.3371 -58.5778 24.581 -46.7902 20.9463C-34.7834 17.2433 -22.3683 13.4189 2.06878 13.4189H2.06126Z" fill="url(#paint2_linear_137_329)"/>
<path d="M2.06126 20.3091C26.4832 20.3091 38.8983 24.1259 50.8976 27.8289C62.7003 31.4636 74.8886 35.2272 98.8795 35.2272V38.1486C74.4576 38.1486 62.05 34.3318 50.0432 30.6289C38.2405 26.9942 26.0447 23.2305 2.06126 23.2305C-21.9222 23.2305 -34.1256 26.9942 -45.9207 30.6289C-57.92 34.3243 -70.3351 38.1486 -94.7571 38.1486V35.2272C-70.7737 35.2272 -58.5702 31.4636 -46.7751 27.8289C-34.7758 24.1335 -22.3607 20.3091 2.06126 20.3091Z" fill="url(#paint3_linear_137_329)"/>
<path d="M2.06125 27.1836C26.4681 27.1836 38.8756 31.008 50.8749 34.711C62.6776 38.3457 74.881 42.1093 98.8795 42.1093V44.8486C74.4727 44.8486 62.0727 41.0242 50.0734 37.3213C38.2708 33.6866 26.0673 29.9229 2.06125 29.9229C-21.9448 29.9229 -34.1407 33.6866 -45.9434 37.3213C-57.9427 41.0167 -70.3427 44.8486 -94.7495 44.8486V42.1093C-70.751 42.1093 -58.5476 38.3457 -46.7449 34.711C-34.7456 31.0156 -22.3456 27.1836 2.06125 27.1836Z" fill="url(#paint4_linear_137_329)"/>
<path d="M2.06125 34.0664C26.4605 34.0664 38.8529 37.8832 50.8446 41.5862C62.6549 45.2285 74.8659 48.9846 98.8795 48.9846V51.5266C74.4878 51.5266 62.0878 47.7098 50.1037 44.0068C38.2934 40.3645 26.0749 36.6084 2.06125 36.6084C-21.9524 36.6084 -34.1634 40.3721 -45.9737 44.0068C-57.9578 47.7022 -70.3578 51.5266 -94.7495 51.5266V48.9846C-70.7359 48.9846 -58.5249 45.2209 -46.7146 41.5862C-34.7305 37.8908 -22.3305 34.0664 2.06125 34.0664Z" fill="url(#paint5_linear_137_329)"/>
<path d="M2.06125 40.9561C26.4378 40.9561 38.8378 44.7729 50.8144 48.4683C62.6322 52.1105 74.8508 55.8742 98.8795 55.8742V58.2189C74.5029 58.2189 62.1105 54.4021 50.1339 50.7067C38.3161 47.0645 26.0976 43.3008 2.06125 43.3008C-21.9751 43.3008 -34.1861 47.072 -46.0039 50.7067C-57.9805 54.4021 -70.3729 58.2189 -94.7495 58.2189V55.8742C-70.7207 55.8742 -58.5022 52.1029 -46.6844 48.4683C-34.7078 44.7729 -22.3153 40.9561 2.06125 40.9561Z" fill="url(#paint6_linear_137_329)"/>
<path d="M2.06125 47.8384C26.4303 47.8384 38.8152 51.6552 50.7842 55.3354C62.6095 58.9777 74.8356 62.7489 98.8795 62.7489V64.8964C74.5181 64.8964 62.1332 61.0796 50.1642 57.3994C38.3388 53.7571 26.1051 49.9858 2.06125 49.9858C-21.9827 49.9858 -34.2012 53.7571 -46.0342 57.3994C-58.0107 61.0872 -70.388 64.8964 -94.7495 64.8964V62.7489C-70.7056 62.7489 -58.487 58.9777 -46.6541 55.3354C-34.6775 51.6476 -22.3002 47.8384 2.06125 47.8384Z" fill="url(#paint7_linear_137_329)"/>
<path d="M2.06126 54.7134C26.4076 54.7134 38.7849 58.5302 50.7615 62.218C62.5869 65.8603 74.8205 69.6315 98.8795 69.6315V71.5893C74.5332 71.5893 62.1559 67.7725 50.1944 64.0847C38.3615 60.4424 26.1278 56.6711 2.06878 56.6711C-21.9902 56.6711 -34.2163 60.4424 -46.0492 64.0847C-58.0258 67.7801 -70.3956 71.5893 -94.7419 71.5893V69.6315C-70.6829 69.6315 -58.4568 65.8603 -46.6239 62.218C-34.6473 58.5226 -22.2776 54.7134 2.06878 54.7134H2.06126Z" fill="url(#paint8_linear_137_329)"/>
<path d="M2.06126 61.6035C26.4 61.6035 38.7698 65.4203 50.7313 69.1005C62.5642 72.7428 74.8054 76.5217 98.8795 76.5217V78.2821C74.5483 78.2821 62.1786 74.4653 50.2171 70.7851C38.3842 67.1428 26.1354 63.364 2.06878 63.364C-21.9978 63.364 -34.239 67.1352 -46.0795 70.7851C-58.041 74.4729 -70.4107 78.2821 -94.7419 78.2821V76.5217C-70.6678 76.5217 -58.4341 72.7504 -46.5937 69.1005C-34.6322 65.4127 -22.2624 61.6035 2.06878 61.6035H2.06126Z" fill="url(#paint9_linear_137_329)"/>
<path d="M2.06125 68.4858C26.3849 68.4858 38.7471 72.295 50.701 75.9829C62.5415 79.6327 74.7903 83.4116 98.872 83.4116V84.9747C74.5483 84.9747 62.1937 81.1655 50.2322 77.4777C38.3917 73.8278 26.143 70.049 2.05368 70.049C-22.0356 70.049 -34.2844 73.8203 -46.1173 77.4777C-58.0712 81.1655 -70.4334 84.9747 -94.7571 84.9747V83.4116C-70.6754 83.4116 -58.419 79.6403 -46.5861 75.9829C-34.6322 72.295 -22.27 68.4858 2.05368 68.4858H2.06125Z" fill="url(#paint10_linear_137_329)"/>
<path d="M2.06125 75.3682C26.3698 75.3682 38.7244 79.1698 50.6783 82.85C62.5264 86.4999 74.7827 90.2787 98.8795 90.2787V91.6446C74.5786 91.6446 62.2239 87.843 50.27 84.1627C38.4219 80.5129 26.1656 76.734 2.06125 76.734C-22.0431 76.734 -34.2919 80.5129 -46.14 84.1627C-58.0863 87.843 -70.441 91.6446 -94.7495 91.6446V90.2787C-70.6451 90.2787 -58.3963 86.4999 -46.5483 82.85C-34.602 79.1698 -22.2473 75.3682 2.06125 75.3682Z" fill="url(#paint11_linear_137_329)"/>
<path d="M2.06125 82.2427C26.3547 82.2427 38.7017 86.0519 50.648 89.7321C62.5036 93.382 74.7676 97.1608 98.8795 97.1608V98.3446C74.5861 98.3446 62.2466 94.5354 50.3003 90.8551C38.4447 87.2053 26.1808 83.4264 2.06125 83.4264C-22.0583 83.4264 -34.3146 87.2053 -46.1702 90.8551C-58.1166 94.5354 -70.4561 98.3446 -94.7495 98.3446V97.1608C-70.6376 97.1608 -58.3736 93.382 -46.518 89.7321C-34.5717 86.0519 -22.2322 82.2427 2.06125 82.2427Z" fill="url(#paint12_linear_137_329)"/>
<path d="M2.06125 89.1328C26.3395 89.1328 38.6866 92.9344 50.6178 96.6147C62.481 100.272 74.7449 104.051 98.8795 104.051V105.037C74.6012 105.037 62.2617 101.236 50.3305 97.5556C38.4673 93.8981 26.1959 90.1193 2.06125 90.1193C-22.0734 90.1193 -34.3373 93.8981 -46.2005 97.5556C-58.1317 101.236 -70.4788 105.037 -94.7495 105.037V104.051C-70.6224 104.051 -58.351 100.272 -46.4878 96.6147C-34.5566 92.9344 -22.2095 89.1328 2.06125 89.1328Z" fill="url(#paint13_linear_137_329)"/>
<path d="M2.06125 96.0151C26.3244 96.0151 38.6639 99.8092 50.5876 103.489C62.4583 107.147 74.7373 110.933 98.8795 110.933V111.722C74.6164 111.722 62.2844 107.928 50.3608 104.248C38.4825 100.591 26.211 96.8043 2.06125 96.8043C-22.0885 96.8043 -34.36 100.591 -46.2307 104.248C-58.1544 107.921 -70.4863 111.722 -94.7495 111.722V110.933C-70.6073 110.933 -58.3283 107.147 -46.4576 103.489C-34.5339 99.8168 -22.2019 96.0151 2.06125 96.0151Z" fill="url(#paint14_linear_137_329)"/>
<path d="M98.8796 109.628C123.347 109.628 135.777 113.46 147.799 117.163C159.579 120.79 171.752 124.539 195.69 124.539C219.628 124.539 231.809 120.79 243.582 117.163C255.604 113.46 268.034 109.628 292.501 109.628V113.142C268.563 113.142 256.382 116.89 244.61 120.517C232.588 124.22 220.158 128.052 195.69 128.052C171.223 128.052 158.793 124.22 146.771 120.517C134.991 116.89 122.818 113.142 98.8796 113.142V109.628Z" fill="url(#paint15_linear_137_329)"/>
<path d="M98.8796 102.936C123.324 102.936 135.754 106.768 147.769 110.471C159.549 114.098 171.73 117.854 195.69 117.854C219.651 117.854 231.832 114.098 243.612 110.471C255.626 106.768 268.056 102.936 292.501 102.936V106.252C268.54 106.252 256.36 110.008 244.58 113.635C232.565 117.338 220.135 121.17 195.69 121.17C171.246 121.17 158.815 117.338 146.801 113.635C135.021 110.008 122.84 106.252 98.8796 106.252V102.936Z" fill="url(#paint16_linear_137_329)"/>
<path d="M98.8796 96.2505C123.317 96.2505 135.732 100.075 147.739 103.778C159.526 107.413 171.722 111.169 195.69 111.169C219.659 111.169 231.854 107.413 243.642 103.778C255.649 100.075 268.064 96.2505 292.501 96.2505V99.3692C268.533 99.3692 256.337 103.125 244.549 106.76C232.543 110.463 220.127 114.287 195.69 114.287C171.253 114.287 158.838 110.463 146.831 106.76C135.044 103.125 122.848 99.3692 98.8796 99.3692V96.2505Z" fill="url(#paint17_linear_137_329)"/>
<path d="M98.8796 89.5654C123.302 89.5654 135.709 93.3822 147.716 97.0852C159.511 100.72 171.707 104.484 195.698 104.484C219.689 104.484 231.885 100.72 243.68 97.0852C255.679 93.3898 268.094 89.5654 292.516 89.5654V92.4868C268.533 92.4868 256.329 96.2505 244.534 99.8852C232.535 103.581 220.12 107.405 195.698 107.405C171.276 107.405 158.868 103.588 146.862 99.8852C135.066 96.2505 122.871 92.4868 98.8796 92.4868V89.5654Z" fill="url(#paint18_linear_137_329)"/>
<path d="M98.8796 82.8726C123.286 82.8726 135.686 86.6969 147.686 90.3999C159.488 94.0346 171.692 97.7983 195.69 97.7983C219.689 97.7983 231.892 94.0346 243.695 90.3999C255.694 86.7045 268.094 82.8726 292.501 82.8726V85.6119C268.503 85.6119 256.299 89.3755 244.496 93.0102C232.497 96.7056 220.097 100.538 195.69 100.538C171.284 100.538 158.884 96.7132 146.884 93.0102C135.082 89.3755 122.878 85.6119 98.8796 85.6119V82.8726Z" fill="url(#paint19_linear_137_329)"/>
<path d="M98.8796 76.1802C123.271 76.1802 135.671 79.997 147.655 83.7C159.466 87.3422 171.677 91.0983 195.69 91.0983C219.704 91.0983 231.915 87.3346 243.725 83.7C255.709 80.0046 268.109 76.1802 292.501 76.1802V78.7222C268.487 78.7222 256.276 82.4859 244.466 86.1205C232.482 89.8159 220.082 93.6403 195.69 93.6403C171.299 93.6403 158.899 89.8235 146.914 86.1205C135.104 82.4783 122.893 78.7222 98.8796 78.7222V76.1802Z" fill="url(#paint20_linear_137_329)"/>
<path d="M98.8796 69.4951C123.256 69.4951 135.649 73.3119 147.625 77.0073C159.443 80.6496 171.662 84.4133 195.69 84.4133C219.719 84.4133 231.938 80.642 243.755 77.0073C255.732 73.3119 268.124 69.4951 292.501 69.4951V71.8398C268.472 71.8398 256.254 75.6111 244.436 79.2458C232.459 82.9412 220.067 86.758 195.69 86.758C171.314 86.758 158.921 82.9412 146.945 79.2458C135.127 75.6035 122.908 71.8398 98.8796 71.8398V69.4951Z" fill="url(#paint21_linear_137_329)"/>
<path d="M98.8796 62.8101C123.241 62.8101 135.626 66.6269 147.595 70.3071C159.42 73.9494 171.646 77.7206 195.69 77.7206C219.734 77.7206 231.953 73.9494 243.786 70.3071C255.762 66.6193 268.14 62.8101 292.501 62.8101V64.9575C268.457 64.9575 256.239 68.7288 244.406 72.371C232.429 76.0588 220.052 79.8681 195.69 79.8681C171.329 79.8681 158.944 76.0513 146.975 72.371C135.15 68.7288 122.924 64.9575 98.8796 64.9575V62.8101Z" fill="url(#paint22_linear_137_329)"/>
<path d="M98.8796 56.1172C123.226 56.1172 135.603 59.934 147.572 63.6218C159.398 67.2641 171.631 71.0353 195.69 71.0353C219.749 71.0353 231.975 67.2641 243.808 63.6218C255.785 59.9264 268.155 56.1172 292.501 56.1172V58.0749C268.442 58.0749 256.216 61.8462 244.383 65.4885C232.406 69.1838 220.037 72.9931 195.69 72.9931C171.344 72.9931 158.967 69.1763 146.998 65.4885C135.172 61.8462 122.939 58.0749 98.8796 58.0749V56.1172Z" fill="url(#paint23_linear_137_329)"/>
<path d="M98.8796 49.4243C123.211 49.4243 135.581 53.2411 147.542 56.9213C159.375 60.5636 171.616 64.3425 195.69 64.3425C219.764 64.3425 231.998 60.5712 243.839 56.9213C255.8 53.2335 268.17 49.4243 292.501 49.4243V51.1847C268.427 51.1847 256.193 54.956 244.353 58.6059C232.391 62.2937 220.022 66.1029 195.69 66.1029C171.359 66.1029 158.989 62.2861 147.028 58.6059C135.195 54.9636 122.954 51.1847 98.8796 51.1847V49.4243Z" fill="url(#paint24_linear_137_329)"/>
<path d="M98.8796 42.7471C123.203 42.7471 135.558 46.5563 147.519 50.2365C159.36 53.8864 171.609 57.6652 195.69 57.6652C219.772 57.6652 232.028 53.894 243.861 50.2365C255.815 46.5563 268.177 42.7471 292.501 42.7471V44.3102C268.419 44.3102 256.163 48.0815 244.33 51.7389C232.376 55.4192 220.014 59.2284 195.69 59.2284C171.367 59.2284 159.012 55.4192 147.051 51.7389C135.21 48.0891 122.961 44.3102 98.8796 44.3102V42.7471Z" fill="url(#paint25_linear_137_329)"/>
<path d="M98.8796 36.0542C123.181 36.0542 135.535 39.8634 147.489 43.5436C159.337 47.1935 171.594 50.9724 195.69 50.9724C219.787 50.9724 232.044 47.1935 243.892 43.5436C255.838 39.8634 268.193 36.0542 292.501 36.0542V37.4201C268.397 37.4201 256.148 41.1989 244.3 44.8488C232.354 48.529 219.999 52.3382 195.69 52.3382C171.382 52.3382 159.035 48.529 147.081 44.8488C135.233 41.1989 122.976 37.4201 98.8796 37.4201V36.0542Z" fill="url(#paint26_linear_137_329)"/>
<path d="M98.8796 29.3618C123.173 29.3618 135.513 33.171 147.459 36.8512C159.315 40.5011 171.578 44.28 195.69 44.28C219.802 44.28 232.066 40.5011 243.922 36.8512C255.868 33.171 268.208 29.3618 292.501 29.3618V30.5456C268.389 30.5456 256.125 34.3244 244.27 37.9743C232.323 41.6545 219.984 45.4637 195.69 45.4637C171.397 45.4637 159.057 41.6545 147.111 37.9743C135.255 34.3244 122.992 30.5456 98.8796 30.5456V29.3618Z" fill="url(#paint27_linear_137_329)"/>
<path d="M98.8796 22.6689C123.158 22.6689 135.497 26.4706 147.429 30.1508C159.292 33.8082 171.556 37.5871 195.69 37.5871C219.825 37.5871 232.089 33.8082 243.952 30.1508C255.883 26.4706 268.23 22.6689 292.501 22.6689V23.6554C268.374 23.6554 256.103 27.4343 244.239 31.0917C232.308 34.7719 219.961 38.5736 195.69 38.5736C171.42 38.5736 159.073 34.7719 147.141 31.0917C135.278 27.4343 123.014 23.6554 98.8796 23.6554V22.6689Z" fill="url(#paint28_linear_137_329)"/>
<path d="M98.8796 16.7804V15.9912C123.143 15.9912 135.475 19.7853 147.398 23.4655C159.269 27.1229 171.548 30.9018 195.69 30.9018C219.833 30.9018 232.112 27.1229 243.982 23.4655C255.906 19.7853 268.238 15.9912 292.501 15.9912V16.7804C268.359 16.7804 256.08 20.5668 244.209 24.2243C232.285 27.8969 219.954 31.6909 195.69 31.6909C171.427 31.6909 159.095 27.8969 147.164 24.2243C135.301 20.5668 123.022 16.7804 98.8796 16.7804Z" fill="url(#paint29_linear_137_329)"/>
<path d="M2.06125 95.5601C26.5361 95.5601 38.9588 99.392 50.9883 103.103C62.7683 106.73 74.9415 110.478 98.8795 110.478V113.991C74.4122 113.991 61.982 110.16 49.96 106.449C38.18 102.822 26.0069 99.0733 2.06125 99.0733C-21.8844 99.0733 -34.0576 102.822 -45.83 106.449C-57.8519 110.16 -70.2822 113.991 -94.7495 113.991V110.478C-70.8115 110.478 -58.6307 106.73 -46.8583 103.103C-34.8363 99.392 -22.4061 95.5601 2.06125 95.5601Z" fill="url(#paint30_linear_137_329)"/>
<path d="M2.06125 102.45C26.5134 102.45 38.9361 106.282 50.9581 109.978C62.7381 113.612 74.9264 117.361 98.8795 117.361V120.677C74.4349 120.677 62.0046 116.852 49.9902 113.149C38.2102 109.522 26.022 105.766 2.06125 105.766C-21.8995 105.766 -34.0802 109.522 -45.8602 113.149C-57.8746 116.845 -70.3049 120.677 -94.7495 120.677V117.361C-70.7888 117.361 -58.608 113.605 -46.828 109.978C-34.8137 106.282 -22.3834 102.45 2.06125 102.45Z" fill="url(#paint31_linear_137_329)"/>
<path d="M2.06126 109.325C26.5059 109.325 38.921 113.149 50.9279 116.852C62.7154 120.487 74.9113 124.243 98.8795 124.243V127.362C74.4425 127.362 62.0274 123.537 50.0205 119.834C38.233 116.2 26.0371 112.443 2.06878 112.443C-21.8995 112.443 -34.0954 116.2 -45.8829 119.834C-57.8897 123.537 -70.3049 127.362 -94.7419 127.362V124.243C-70.7736 124.243 -58.5778 120.487 -46.7902 116.852C-34.7834 113.149 -22.3683 109.325 2.06878 109.325H2.06126Z" fill="url(#paint32_linear_137_329)"/>
<path d="M2.06126 116.215C26.4832 116.215 38.8983 120.039 50.8976 123.742C62.7003 127.377 74.8961 131.141 98.8795 131.141V134.062C74.4576 134.062 62.05 130.238 50.0432 126.535C38.2405 122.9 26.0447 119.136 2.06126 119.136C-21.9222 119.136 -34.1256 122.9 -45.9207 126.535C-57.92 130.23 -70.3351 134.062 -94.7571 134.062V131.141C-70.7737 131.141 -58.5702 127.377 -46.7751 123.742C-34.7758 120.047 -22.3607 116.215 2.06126 116.215Z" fill="url(#paint33_linear_137_329)"/>
<path d="M2.06125 123.089C26.4681 123.089 38.8756 126.914 50.8749 130.617C62.6776 134.251 74.881 138.015 98.8795 138.015V140.754C74.4727 140.754 62.0727 136.93 50.0734 133.227C38.2708 129.592 26.0673 125.829 2.06125 125.829C-21.9448 125.829 -34.1407 129.592 -45.9434 133.227C-57.9427 136.922 -70.3427 140.754 -94.7495 140.754V138.015C-70.751 138.015 -58.5476 134.251 -46.7449 130.617C-34.7456 126.921 -22.3456 123.089 2.06125 123.089Z" fill="url(#paint34_linear_137_329)"/>
<path d="M2.06125 129.979C26.4605 129.979 38.8529 133.796 50.8446 137.492C62.6549 141.134 74.8659 144.89 98.8795 144.89V147.432C74.4878 147.432 62.0878 143.615 50.1037 139.92C38.2934 136.278 26.0749 132.522 2.06125 132.522C-21.9524 132.522 -34.1634 136.285 -45.9737 139.92C-57.9578 143.615 -70.3578 147.432 -94.7495 147.432V144.89C-70.7359 144.89 -58.5249 141.126 -46.7146 137.492C-34.7305 133.796 -22.3305 129.979 2.06125 129.979Z" fill="url(#paint35_linear_137_329)"/>
<path d="M2.06125 136.862C26.4378 136.862 38.8378 140.679 50.8144 144.374C62.6322 148.016 74.8508 151.78 98.8795 151.78V154.125C74.5029 154.125 62.1105 150.308 50.1339 146.612C38.3161 142.97 26.0976 139.207 2.06125 139.207C-21.9751 139.207 -34.1861 142.978 -46.0039 146.612C-57.9805 150.308 -70.3729 154.125 -94.7495 154.125V151.78C-70.7207 151.78 -58.5022 148.009 -46.6844 144.374C-34.7078 140.679 -22.3153 136.862 2.06125 136.862Z" fill="url(#paint36_linear_137_329)"/>
<path d="M2.06125 143.744C26.4303 143.744 38.8152 147.561 50.7842 151.249C62.6095 154.891 74.8356 158.662 98.8795 158.662V160.81C74.5181 160.81 62.1332 156.993 50.1642 153.305C38.3388 149.663 26.1051 145.892 2.06125 145.892C-21.9827 145.892 -34.2012 149.663 -46.0342 153.305C-58.0107 157.001 -70.388 160.81 -94.7495 160.81V158.662C-70.7056 158.662 -58.487 154.891 -46.6541 151.249C-34.6775 147.553 -22.3002 143.744 2.06125 143.744Z" fill="url(#paint37_linear_137_329)"/>
<path d="M2.06126 150.626C26.4076 150.626 38.7849 154.443 50.7615 158.123C62.5869 161.766 74.8205 165.537 98.8795 165.537V167.495C74.5332 167.495 62.1559 163.678 50.1944 159.998C38.3615 156.355 26.1278 152.584 2.06878 152.584C-21.9902 152.584 -34.2163 156.355 -46.0568 159.998C-58.0258 163.686 -70.3956 167.495 -94.7419 167.495V165.537C-70.6829 165.537 -58.4568 161.766 -46.6163 158.123C-34.6473 154.436 -22.2776 150.626 2.06878 150.626H2.06126Z" fill="url(#paint38_linear_137_329)"/>
<path d="M2.06126 157.509C26.4 157.509 38.7698 161.326 50.7313 165.006C62.5642 168.649 74.8054 172.427 98.8795 172.427V174.188C74.5483 174.188 62.1786 170.371 50.2171 166.691C38.3842 163.049 26.1354 159.27 2.06878 159.27C-21.9978 159.27 -34.239 163.041 -46.0795 166.691C-58.041 170.379 -70.4107 174.188 -94.7419 174.188V172.427C-70.6678 172.427 -58.4341 168.656 -46.5937 165.006C-34.6322 161.318 -22.2624 157.509 2.06878 157.509H2.06126Z" fill="url(#paint39_linear_137_329)"/>
<path d="M2.06125 164.392C26.3849 164.392 38.7471 168.201 50.701 171.889C62.5415 175.538 74.7903 179.317 98.872 179.317V180.88C74.5483 180.88 62.1937 177.071 50.2322 173.383C38.3917 169.734 26.143 165.955 2.05368 165.955C-22.0356 165.955 -34.2844 169.726 -46.1173 173.383C-58.0712 177.071 -70.4334 180.88 -94.7571 180.88V179.317C-70.6754 179.317 -58.419 175.546 -46.5861 171.889C-34.6322 168.201 -22.27 164.392 2.05368 164.392H2.06125Z" fill="url(#paint40_linear_137_329)"/>
<path d="M2.06125 171.281C26.3698 171.281 38.7244 175.09 50.6783 178.771C62.5264 182.421 74.7827 186.199 98.8795 186.199V187.565C74.5786 187.565 62.2239 183.756 50.27 180.076C38.4219 176.426 26.1656 172.647 2.06125 172.647C-22.0431 172.647 -34.2919 176.426 -46.14 180.076C-58.0863 183.756 -70.441 187.565 -94.7495 187.565V186.199C-70.6451 186.199 -58.3963 182.421 -46.5483 178.771C-34.602 175.09 -22.2473 171.281 2.06125 171.281Z" fill="url(#paint41_linear_137_329)"/>
<path d="M2.06125 178.156C26.3547 178.156 38.7017 181.965 50.648 185.638C62.5036 189.296 74.7676 193.067 98.8795 193.067V194.251C74.5861 194.251 62.2466 190.441 50.3003 186.769C38.4447 183.111 26.1808 179.34 2.06125 179.34C-22.0583 179.34 -34.3146 183.111 -46.1702 186.769C-58.1166 190.441 -70.4561 194.251 -94.7495 194.251V193.067C-70.6376 193.067 -58.3736 189.296 -46.518 185.638C-34.5717 181.965 -22.2322 178.156 2.06125 178.156Z" fill="url(#paint42_linear_137_329)"/>
<path d="M2.06125 185.039C26.3395 185.039 38.6866 188.84 50.6178 192.52C62.481 196.178 74.7449 199.957 98.8795 199.957V200.943C74.6012 200.943 62.2617 197.142 50.3305 193.461C38.4673 189.804 26.1959 186.025 2.06125 186.025C-22.0734 186.025 -34.3373 189.804 -46.2005 193.461C-58.1317 197.142 -70.4788 200.943 -94.7495 200.943V199.957C-70.6224 199.957 -58.351 196.178 -46.4878 192.52C-34.5566 188.84 -22.2095 185.039 2.06125 185.039Z" fill="url(#paint43_linear_137_329)"/>
<path d="M2.06125 191.921C26.3244 191.921 38.6639 195.723 50.5876 199.395C62.4583 203.053 74.7373 206.839 98.8795 206.839V207.628C74.6164 207.628 62.2844 203.827 50.3608 200.154C38.4825 196.497 26.211 192.71 2.06125 192.71C-22.0885 192.71 -34.36 196.497 -46.2307 200.154C-58.1544 203.827 -70.4863 207.628 -94.7495 207.628V206.839C-70.6073 206.839 -58.3283 203.053 -46.4576 199.395C-34.5339 195.723 -22.2019 191.921 2.06125 191.921Z" fill="url(#paint44_linear_137_329)"/>
<path d="M98.8796 205.534C123.347 205.534 135.777 209.366 147.799 213.077C159.579 216.704 171.752 220.452 195.69 220.452C219.628 220.452 231.809 216.704 243.582 213.077C255.604 209.366 268.034 205.534 292.501 205.534V209.047C268.563 209.047 256.382 212.796 244.61 216.423C232.588 220.134 220.158 223.966 195.69 223.966C171.223 223.966 158.793 220.134 146.771 216.423C134.991 212.796 122.818 209.047 98.8796 209.047V205.534Z" fill="url(#paint45_linear_137_329)"/>
<path d="M98.8796 198.849C123.324 198.849 135.754 202.681 147.769 206.384C159.549 210.011 171.73 213.767 195.69 213.767C219.651 213.767 231.832 210.011 243.612 206.384C255.626 202.681 268.056 198.849 292.501 198.849V202.165C268.54 202.165 256.36 205.921 244.58 209.548C232.565 213.251 220.135 217.083 195.69 217.083C171.246 217.083 158.815 213.251 146.801 209.548C135.021 205.921 122.84 202.165 98.8796 202.165V198.849Z" fill="url(#paint46_linear_137_329)"/>
<path d="M98.8796 192.164C123.317 192.164 135.732 195.988 147.739 199.691C159.526 203.326 171.722 207.082 195.69 207.082C219.659 207.082 231.854 203.326 243.642 199.691C255.649 195.996 268.064 192.164 292.501 192.164V195.282C268.533 195.282 256.337 199.038 244.549 202.673C232.543 206.368 220.127 210.2 195.69 210.2C171.253 210.2 158.838 206.376 146.831 202.673C135.044 199.038 122.848 195.282 98.8796 195.282V192.164Z" fill="url(#paint47_linear_137_329)"/>
<path d="M98.8796 185.471C123.302 185.471 135.709 189.296 147.716 192.999C159.511 196.633 171.707 200.397 195.698 200.397C219.689 200.397 231.885 196.633 243.68 192.999C255.679 189.303 268.094 185.471 292.516 185.471V188.393C268.533 188.393 256.329 192.156 244.534 195.791C232.535 199.486 220.12 203.318 195.698 203.318C171.276 203.318 158.868 199.494 146.862 195.791C135.066 192.156 122.871 188.393 98.8796 188.393V185.471Z" fill="url(#paint48_linear_137_329)"/>
<path d="M98.8796 178.778C123.286 178.778 135.686 182.603 147.686 186.306C159.488 189.94 171.692 193.704 195.69 193.704C219.689 193.704 231.892 189.94 243.695 186.306C255.694 182.61 268.094 178.778 292.501 178.778V181.518C268.503 181.518 256.299 185.281 244.496 188.916C232.497 192.611 220.097 196.443 195.69 196.443C171.284 196.443 158.884 192.619 146.884 188.916C135.082 185.281 122.878 181.518 98.8796 181.518V178.778Z" fill="url(#paint49_linear_137_329)"/>
<path d="M98.8796 172.093C123.271 172.093 135.671 175.91 147.655 179.605C159.466 183.248 171.677 187.004 195.69 187.004C219.704 187.004 231.915 183.24 243.725 179.605C255.709 175.91 268.109 172.093 292.501 172.093V174.635C268.487 174.635 256.276 178.399 244.466 182.034C232.482 185.729 220.082 189.546 195.69 189.546C171.299 189.546 158.899 185.729 146.914 182.034C135.104 178.391 122.893 174.635 98.8796 174.635V172.093Z" fill="url(#paint50_linear_137_329)"/>
<path d="M98.8796 165.408C123.256 165.408 135.649 169.225 147.625 172.92C159.443 176.563 171.662 180.326 195.69 180.326C219.719 180.326 231.938 176.555 243.755 172.92C255.732 169.225 268.124 165.408 292.501 165.408V167.753C268.472 167.753 256.254 171.524 244.436 175.159C232.459 178.854 220.067 182.671 195.69 182.671C171.314 182.671 158.921 178.854 146.945 175.159C135.127 171.517 122.908 167.753 98.8796 167.753V165.408Z" fill="url(#paint51_linear_137_329)"/>
<path d="M98.8796 158.715C123.241 158.715 135.626 162.532 147.595 166.22C159.42 169.862 171.646 173.633 195.69 173.633C219.734 173.633 231.953 169.862 243.786 166.22C255.762 162.525 268.14 158.715 292.501 158.715V160.863C268.457 160.863 256.239 164.634 244.406 168.276C232.429 171.972 220.052 175.781 195.69 175.781C171.329 175.781 158.944 171.964 146.975 168.276C135.15 164.634 122.924 160.863 98.8796 160.863V158.715Z" fill="url(#paint52_linear_137_329)"/>
<path d="M98.8796 152.023C123.226 152.023 135.603 155.84 147.572 159.528C159.398 163.17 171.631 166.941 195.69 166.941C219.749 166.941 231.975 163.17 243.808 159.528C255.785 155.832 268.155 152.023 292.501 152.023V153.981C268.442 153.981 256.216 157.752 244.383 161.394C232.406 165.09 220.037 168.899 195.69 168.899C171.344 168.899 158.967 165.082 146.998 161.394C135.172 157.752 122.939 153.981 98.8796 153.981V152.023Z" fill="url(#paint53_linear_137_329)"/>
<path d="M98.8796 145.338C123.211 145.338 135.581 149.155 147.542 152.835C159.375 156.485 171.616 160.256 195.69 160.256C219.764 160.256 231.998 156.485 243.839 152.835C255.8 149.155 268.17 145.338 292.501 145.338V147.098C268.427 147.098 256.193 150.87 244.353 154.519C232.391 158.2 220.022 162.016 195.69 162.016C171.359 162.016 158.989 158.2 147.028 154.519C135.195 150.87 122.954 147.098 98.8796 147.098V145.338Z" fill="url(#paint54_linear_137_329)"/>
<path d="M98.8796 138.653C123.203 138.653 135.558 142.462 147.519 146.15C159.36 149.8 171.609 153.579 195.69 153.579C219.772 153.579 232.028 149.807 243.861 146.15C255.815 142.462 268.177 138.653 292.501 138.653V140.216C268.419 140.216 256.163 143.987 244.33 147.645C232.376 151.333 220.014 155.142 195.69 155.142C171.367 155.142 159.012 151.333 147.051 147.645C135.21 143.995 122.961 140.216 98.8796 140.216V138.653Z" fill="url(#paint55_linear_137_329)"/>
<path d="M98.8796 131.96C123.181 131.96 135.535 135.769 147.489 139.449C159.337 143.099 171.594 146.878 195.69 146.878C219.787 146.878 232.044 143.099 243.892 139.449C255.838 135.769 268.193 131.96 292.501 131.96V133.326C268.397 133.326 256.148 137.105 244.3 140.755C232.354 144.435 219.999 148.244 195.69 148.244C171.382 148.244 159.035 144.435 147.081 140.755C135.233 137.105 122.976 133.326 98.8796 133.326V131.96Z" fill="url(#paint56_linear_137_329)"/>
<path d="M98.8796 125.267C123.173 125.267 135.513 129.076 147.459 132.757C159.315 136.406 171.578 140.185 195.69 140.185C219.802 140.185 232.066 136.406 243.922 132.757C255.868 129.076 268.208 125.267 292.501 125.267V126.451C268.389 126.451 256.125 130.23 244.27 133.88C232.323 137.56 219.984 141.369 195.69 141.369C171.397 141.369 159.057 137.56 147.111 133.88C135.255 130.23 122.992 126.451 98.8796 126.451V125.267Z" fill="url(#paint57_linear_137_329)"/>
<path d="M98.8796 118.582C123.158 118.582 135.497 122.384 147.429 126.056C159.292 129.714 171.556 133.493 195.69 133.493C219.825 133.493 232.089 129.714 243.952 126.056C255.883 122.384 268.23 118.582 292.501 118.582V119.568C268.374 119.568 256.103 123.347 244.239 127.005C232.308 130.677 219.961 134.479 195.69 134.479C171.42 134.479 159.073 130.677 147.141 127.005C135.278 123.347 123.014 119.568 98.8796 119.568V118.582Z" fill="url(#paint58_linear_137_329)"/>
<path d="M98.8796 111.897C123.143 111.897 135.475 115.699 147.398 119.371C159.269 123.029 171.548 126.815 195.69 126.815C219.833 126.815 232.112 123.029 243.982 119.371C255.906 115.699 268.238 111.897 292.501 111.897V112.686C268.359 112.686 256.08 116.473 244.209 120.13C232.285 123.803 219.954 127.604 195.69 127.604C171.427 127.604 159.095 123.803 147.172 120.13C135.301 116.473 123.022 112.686 98.8796 112.686V111.897Z" fill="url(#paint59_linear_137_329)"/>
</g>
<mask id="mask2_137_329" style="mask-type:alpha" maskUnits="userSpaceOnUse" x="195" y="0" width="388" height="224">
<rect x="195" width="388" height="224" fill="#D9D9D9"/>
</mask>
<g mask="url(#mask2_137_329)">
<path d="M-93.1379 447.859L873.873 447.859V39.3098L-93.1379 39.3098V447.859Z" fill="#5D97C4"/>
<path d="M-93.4404 515.203V14.5725C-69.8729 14.5118 -57.798 10.7936 -46.1087 7.18926C-34.0868 3.48628 -21.6565 -0.345703 2.81079 -0.345703C27.2781 -0.345703 39.7083 3.48628 51.7379 7.18926C63.5103 10.8239 75.6835 14.5725 99.6291 14.5725V15.9914C123.892 15.9914 136.217 19.7855 148.148 23.4657C160.019 27.1231 172.298 30.902 196.44 30.902C220.582 30.902 232.861 27.1231 244.724 23.4657C256.655 19.7855 268.987 15.9914 293.251 15.9914V14.5725C317.189 14.5725 329.362 10.8239 341.142 7.18926C353.164 3.48628 365.594 -0.345703 390.061 -0.345703C414.529 -0.345703 426.959 3.48628 438.988 7.18926C450.761 10.8239 462.934 14.5725 486.88 14.5725V15.9914C511.143 15.9914 523.475 19.7855 535.398 23.4657C547.269 27.1231 559.548 30.902 583.69 30.902C607.832 30.902 620.112 27.1231 631.982 23.4657C643.906 19.7855 656.238 15.9914 680.501 15.9914V14.5725C704.439 14.5725 716.612 10.8239 728.392 7.18926C740.414 3.48628 752.844 -0.345703 777.312 -0.345703C801.779 -0.345703 814.209 3.48628 826.239 7.18926C837.921 10.7936 849.988 14.5118 873.563 14.5725V515.203H-93.4404Z" fill="white"/>
<path d="M99.6292 109.628C124.096 109.628 136.527 113.46 148.549 117.163C160.329 120.79 172.502 124.539 196.44 124.539C220.378 124.539 232.559 120.79 244.331 117.163C256.353 113.46 268.783 109.628 293.251 109.628V113.142C269.313 113.142 257.132 116.89 245.359 120.517C233.337 124.22 220.907 128.052 196.44 128.052C171.973 128.052 159.542 124.22 147.52 120.517C135.74 116.89 123.567 113.142 99.6292 113.142V109.628Z" fill="url(#paint60_linear_137_329)"/>
<path d="M99.6292 102.936C124.074 102.936 136.504 106.768 148.518 110.471C160.298 114.098 172.479 117.854 196.44 117.854C220.401 117.854 232.581 114.098 244.361 110.471C256.376 106.768 268.806 102.936 293.251 102.936V106.252C269.29 106.252 257.109 110.008 245.329 113.635C233.315 117.338 220.885 121.17 196.44 121.17C171.995 121.17 159.565 117.338 147.551 113.635C135.771 110.008 123.59 106.252 99.6292 106.252V102.936Z" fill="url(#paint61_linear_137_329)"/>
<path d="M99.6292 96.2505C124.066 96.2505 136.481 100.075 148.488 103.778C160.276 107.413 172.472 111.169 196.44 111.169C220.408 111.169 232.604 107.413 244.392 103.778C256.398 100.075 268.814 96.2505 293.251 96.2505V99.3692C269.282 99.3692 257.086 103.125 245.299 106.76C233.292 110.463 220.877 114.287 196.44 114.287C172.003 114.287 159.588 110.463 147.581 106.76C135.793 103.125 123.597 99.3692 99.6292 99.3692V96.2505Z" fill="url(#paint62_linear_137_329)"/>
<path d="M99.6292 89.5654C124.051 89.5654 136.459 93.3822 148.465 97.0852C160.261 100.72 172.456 104.484 196.447 104.484C220.438 104.484 232.634 100.72 244.429 97.0852C256.429 93.3898 268.844 89.5654 293.266 89.5654V92.4868C269.282 92.4868 257.079 96.2505 245.284 99.8852C233.285 103.581 220.869 107.405 196.447 107.405C172.026 107.405 159.618 103.588 147.611 99.8852C135.816 96.2505 123.62 92.4868 99.6292 92.4868V89.5654Z" fill="url(#paint63_linear_137_329)"/>
<path d="M99.6292 82.8726C124.036 82.8726 136.436 86.6969 148.435 90.3999C160.238 94.0346 172.441 97.7983 196.44 97.7983C220.438 97.7983 232.642 94.0346 244.445 90.3999C256.444 86.7045 268.844 82.8726 293.251 82.8726V85.6119C269.252 85.6119 257.049 89.3755 245.246 93.0102C233.247 96.7056 220.847 100.538 196.44 100.538C172.033 100.538 159.633 96.7132 147.634 93.0102C135.831 89.3755 123.628 85.6119 99.6292 85.6119V82.8726Z" fill="url(#paint64_linear_137_329)"/>
<path d="M99.6292 76.1802C124.021 76.1802 136.421 79.997 148.405 83.7C160.215 87.3422 172.426 91.0983 196.44 91.0983C220.454 91.0983 232.665 87.3346 244.475 83.7C256.459 80.0046 268.859 76.1802 293.251 76.1802V78.7222C269.237 78.7222 257.026 82.4859 245.216 86.1205C233.232 89.8159 220.832 93.6403 196.44 93.6403C172.048 93.6403 159.648 89.8235 147.664 86.1205C135.854 82.4783 123.643 78.7222 99.6292 78.7222V76.1802Z" fill="url(#paint65_linear_137_329)"/>
<path d="M99.6292 69.4951C124.006 69.4951 136.398 73.3119 148.375 77.0073C160.193 80.6496 172.411 84.4133 196.44 84.4133C220.469 84.4133 232.687 80.642 244.505 77.0073C256.482 73.3119 268.874 69.4951 293.251 69.4951V71.8398C269.222 71.8398 257.003 75.6111 245.186 79.2458C233.209 82.9412 220.816 86.758 196.44 86.758C172.063 86.758 159.671 82.9412 147.694 79.2458C135.876 75.6035 123.658 71.8398 99.6292 71.8398V69.4951Z" fill="url(#paint66_linear_137_329)"/>
<path d="M99.6292 62.8101C123.991 62.8101 136.375 66.6269 148.345 70.3071C160.17 73.9494 172.396 77.7206 196.44 77.7206C220.484 77.7206 232.702 73.9494 244.535 70.3071C256.512 66.6193 268.889 62.8101 293.251 62.8101V64.9575C269.207 64.9575 256.988 68.7288 245.155 72.371C233.179 76.0588 220.801 79.8681 196.44 79.8681C172.078 79.8681 159.694 76.0513 147.725 72.371C135.899 68.7288 123.673 64.9575 99.6292 64.9575V62.8101Z" fill="url(#paint67_linear_137_329)"/>
<path d="M99.6292 56.1172C123.975 56.1172 136.353 59.934 148.322 63.6218C160.147 67.2641 172.381 71.0353 196.44 71.0353C220.499 71.0353 232.725 67.2641 244.558 63.6218C256.535 59.9264 268.904 56.1172 293.251 56.1172V58.0749C269.192 58.0749 256.966 61.8462 245.133 65.4885C233.156 69.1838 220.786 72.9931 196.44 72.9931C172.094 72.9931 159.716 69.1763 147.747 65.4885C135.922 61.8462 123.688 58.0749 99.6292 58.0749V56.1172Z" fill="url(#paint68_linear_137_329)"/>
<path d="M99.6292 49.4243C123.96 49.4243 136.33 53.2411 148.292 56.9213C160.125 60.5636 172.366 64.3425 196.44 64.3425C220.514 64.3425 232.748 60.5712 244.588 56.9213C256.55 53.2335 268.919 49.4243 293.251 49.4243V51.1847C269.176 51.1847 256.943 54.956 245.102 58.6059C233.141 62.2937 220.771 66.1029 196.44 66.1029C172.109 66.1029 159.739 62.2861 147.777 58.6059C135.945 54.9636 123.703 51.1847 99.6292 51.1847V49.4243Z" fill="url(#paint69_linear_137_329)"/>
<path d="M99.6292 42.7471C123.953 42.7471 136.307 46.5563 148.269 50.2365C160.109 53.8864 172.358 57.6652 196.44 57.6652C220.522 57.6652 232.778 53.894 244.611 50.2365C256.565 46.5563 268.927 42.7471 293.251 42.7471V44.3102C269.169 44.3102 256.913 48.0815 245.08 51.7389C233.126 55.4192 220.764 59.2284 196.44 59.2284C172.116 59.2284 159.762 55.4192 147.8 51.7389C135.96 48.0891 123.711 44.3102 99.6292 44.3102V42.7471Z" fill="url(#paint70_linear_137_329)"/>
<path d="M99.6292 36.0542C123.93 36.0542 136.285 39.8634 148.239 43.5436C160.087 47.1935 172.343 50.9724 196.44 50.9724C220.537 50.9724 232.793 47.1935 244.641 43.5436C256.587 39.8634 268.942 36.0542 293.251 36.0542V37.4201C269.146 37.4201 256.897 41.1989 245.049 44.8488C233.103 48.529 220.748 52.3382 196.44 52.3382C172.131 52.3382 159.784 48.529 147.83 44.8488C135.982 41.1989 123.726 37.4201 99.6292 37.4201V36.0542Z" fill="url(#paint71_linear_137_329)"/>
<path d="M99.6292 29.3618C123.923 29.3618 136.262 33.171 148.208 36.8512C160.064 40.5011 172.328 44.28 196.44 44.28C220.552 44.28 232.816 40.5011 244.671 36.8512C256.618 33.171 268.957 29.3618 293.251 29.3618V30.5456C269.139 30.5456 256.875 34.3244 245.019 37.9743C233.073 41.6545 220.733 45.4637 196.44 45.4637C172.146 45.4637 159.807 41.6545 147.861 37.9743C136.005 34.3244 123.741 30.5456 99.6292 30.5456V29.3618Z" fill="url(#paint72_linear_137_329)"/>
<path d="M99.6292 22.6689C123.907 22.6689 136.247 26.4706 148.178 30.1508C160.041 33.8082 172.305 37.5871 196.44 37.5871C220.575 37.5871 232.838 33.8082 244.702 30.1508C256.633 26.4706 268.98 22.6689 293.251 22.6689V23.6554C269.124 23.6554 256.852 27.4343 244.989 31.0917C233.058 34.7719 220.711 38.5736 196.44 38.5736C172.169 38.5736 159.822 34.7719 147.891 31.0917C136.028 27.4343 123.764 23.6554 99.6292 23.6554V22.6689Z" fill="url(#paint73_linear_137_329)"/>
<path d="M99.6292 16.7804V15.9912C123.892 15.9912 136.217 19.7853 148.148 23.4655C160.019 27.1229 172.298 30.9018 196.44 30.9018C220.582 30.9018 232.861 27.1229 244.724 23.4655C256.655 19.7853 268.987 15.9912 293.251 15.9912V16.7804C269.108 16.7804 256.829 20.5668 244.959 24.2243C233.035 27.8969 220.703 31.6909 196.44 31.6909C172.177 31.6909 159.845 27.8969 147.914 24.2243C136.05 20.5668 123.771 16.7804 99.6292 16.7804Z" fill="url(#paint74_linear_137_329)"/>
<path d="M293.25 18.0857V14.5725C317.189 14.5725 329.362 10.8239 341.142 7.18926C353.164 3.48628 365.594 -0.345703 390.061 -0.345703C414.529 -0.345703 426.959 3.48628 438.988 7.18926C450.761 10.8239 462.934 14.5725 486.88 14.5725V18.0857C462.412 18.0857 449.982 14.2538 437.96 10.5508C426.18 6.92367 414.007 3.16758 390.061 3.16758C366.116 3.16758 353.942 6.92367 342.17 10.5508C330.14 14.2538 317.718 18.0857 293.25 18.0857Z" fill="url(#paint75_linear_137_329)"/>
<path d="M390.061 6.53662C414.513 6.53662 426.936 10.3686 438.958 14.0716C450.738 17.6987 462.926 21.4548 486.88 21.4548V24.7708C462.435 24.7708 450.005 20.9388 437.99 17.2358C426.21 13.6087 414.022 9.85261 390.061 9.85261C366.101 9.85261 353.92 13.6087 342.14 17.2358C330.125 20.9388 317.695 24.7708 293.25 24.7708V21.4548C317.211 21.4548 329.392 17.6987 341.172 14.0716C353.186 10.3686 365.617 6.53662 390.061 6.53662Z" fill="url(#paint76_linear_137_329)"/>
<path d="M390.061 13.4189C414.506 13.4189 426.921 17.2433 438.928 20.9463C450.715 24.581 462.911 28.3371 486.88 28.3371V31.4558C462.442 31.4558 450.027 27.6314 438.021 23.9284C426.233 20.2937 414.037 16.5376 390.069 16.5376C366.1 16.5376 353.905 20.2937 342.117 23.9284C330.11 27.6314 317.695 31.4558 293.258 31.4558V28.3371C317.226 28.3371 329.422 24.581 341.21 20.9463C353.217 17.2433 365.632 13.4189 390.069 13.4189H390.061Z" fill="url(#paint77_linear_137_329)"/>
<path d="M390.061 20.3091C414.483 20.3091 426.898 24.1259 438.898 27.8289C450.7 31.4636 462.889 35.2272 486.88 35.2272V38.1486C462.458 38.1486 450.05 34.3318 438.043 30.6289C426.24 26.9942 414.045 23.2305 390.061 23.2305C366.078 23.2305 353.874 26.9942 342.079 30.6289C330.08 34.3243 317.665 38.1486 293.243 38.1486V35.2272C317.226 35.2272 329.43 31.4636 341.225 27.8289C353.224 24.1335 365.639 20.3091 390.061 20.3091Z" fill="url(#paint78_linear_137_329)"/>
<path d="M390.061 27.1836C414.468 27.1836 426.876 31.008 438.875 34.711C450.678 38.3457 462.881 42.1093 486.88 42.1093V44.8486C462.473 44.8486 450.073 41.0242 438.073 37.3213C426.271 33.6866 414.067 29.9229 390.061 29.9229C366.055 29.9229 353.859 33.6866 342.057 37.3213C330.057 41.0167 317.657 44.8486 293.25 44.8486V42.1093C317.249 42.1093 329.452 38.3457 341.255 34.711C353.254 31.0156 365.654 27.1836 390.061 27.1836Z" fill="url(#paint79_linear_137_329)"/>
<path d="M390.061 34.0664C414.461 34.0664 426.853 37.8832 438.845 41.5862C450.655 45.2285 462.866 48.9846 486.88 48.9846V51.5266C462.488 51.5266 450.088 47.7098 438.104 44.0068C426.293 40.3645 414.075 36.6084 390.061 36.6084C366.048 36.6084 353.837 40.3721 342.026 44.0068C330.042 47.7022 317.642 51.5266 293.25 51.5266V48.9846C317.264 48.9846 329.475 45.2209 341.285 41.5862C353.27 37.8908 365.67 34.0664 390.061 34.0664Z" fill="url(#paint80_linear_137_329)"/>
<path d="M390.061 40.9561C414.438 40.9561 426.838 44.7729 438.814 48.4683C450.632 52.1105 462.851 55.8742 486.88 55.8742V58.2189C462.503 58.2189 450.11 54.4021 438.134 50.7067C426.316 47.0645 414.098 43.3008 390.061 43.3008C366.025 43.3008 353.814 47.072 341.996 50.7067C330.02 54.4021 317.627 58.2189 293.25 58.2189V55.8742C317.279 55.8742 329.498 52.1029 341.316 48.4683C353.292 44.7729 365.685 40.9561 390.061 40.9561Z" fill="url(#paint81_linear_137_329)"/>
<path d="M390.061 47.8384C414.43 47.8384 426.815 51.6552 438.784 55.3354C450.61 58.9777 462.836 62.7489 486.88 62.7489V64.8964C462.518 64.8964 450.133 61.0796 438.164 57.3994C426.339 53.7571 414.105 49.9858 390.061 49.9858C366.017 49.9858 353.799 53.7571 341.966 57.3994C329.989 61.0872 317.612 64.8964 293.25 64.8964V62.7489C317.294 62.7489 329.513 58.9777 341.346 55.3354C353.322 51.6476 365.7 47.8384 390.061 47.8384Z" fill="url(#paint82_linear_137_329)"/>
<path d="M390.061 54.7134C414.408 54.7134 426.785 58.5302 438.761 62.218C450.587 65.8603 462.821 69.6315 486.88 69.6315V71.5893C462.533 71.5893 450.156 67.7725 438.194 64.0847C426.361 60.4424 414.128 56.6711 390.069 56.6711C366.01 56.6711 353.784 60.4424 341.951 64.0847C329.974 67.7801 317.604 71.5893 293.258 71.5893V69.6315C317.317 69.6315 329.543 65.8603 341.376 62.218C353.353 58.5226 365.722 54.7134 390.069 54.7134H390.061Z" fill="url(#paint83_linear_137_329)"/>
<path d="M390.061 61.6035C414.4 61.6035 426.77 65.4203 438.731 69.1005C450.564 72.7428 462.805 76.5217 486.88 76.5217V78.2821C462.548 78.2821 450.179 74.4653 438.217 70.7851C426.384 67.1428 414.135 63.364 390.069 63.364C366.002 63.364 353.761 67.1352 341.92 70.7851C329.959 74.4729 317.589 78.2821 293.258 78.2821V76.5217C317.332 76.5217 329.566 72.7504 341.406 69.1005C353.368 65.4127 365.738 61.6035 390.069 61.6035H390.061Z" fill="url(#paint84_linear_137_329)"/>
<path d="M390.061 68.4858C414.385 68.4858 426.747 72.295 438.701 75.9829C450.541 79.6327 462.79 83.4116 486.872 83.4116V84.9747C462.548 84.9747 450.194 81.1655 438.232 77.4777C426.392 73.8278 414.143 70.049 390.054 70.049C365.964 70.049 353.716 73.8203 341.883 77.4777C329.929 81.1655 317.567 84.9747 293.243 84.9747V83.4116C317.325 83.4116 329.581 79.6403 341.414 75.9829C353.368 72.295 365.73 68.4858 390.054 68.4858H390.061Z" fill="url(#paint85_linear_137_329)"/>
<path d="M390.061 75.3682C414.37 75.3682 426.724 79.1698 438.678 82.85C450.526 86.4999 462.783 90.2787 486.88 90.2787V91.6446C462.579 91.6446 450.224 87.843 438.27 84.1627C426.422 80.5129 414.166 76.734 390.061 76.734C365.957 76.734 353.708 80.5129 341.86 84.1627C329.914 87.843 317.559 91.6446 293.25 91.6446V90.2787C317.355 90.2787 329.604 86.4999 341.452 82.85C353.398 79.1698 365.753 75.3682 390.061 75.3682Z" fill="url(#paint86_linear_137_329)"/>
<path d="M390.061 82.2427C414.355 82.2427 426.702 86.0519 438.648 89.7321C450.504 93.382 462.768 97.1608 486.88 97.1608V98.3446C462.586 98.3446 450.247 94.5354 438.3 90.8551C426.445 87.2053 414.181 83.4264 390.061 83.4264C365.942 83.4264 353.685 87.2053 341.83 90.8551C329.883 94.5354 317.544 98.3446 293.25 98.3446V97.1608C317.362 97.1608 329.626 93.382 341.482 89.7321C353.428 86.0519 365.768 82.2427 390.061 82.2427Z" fill="url(#paint87_linear_137_329)"/>
<path d="M390.061 89.1328C414.34 89.1328 426.687 92.9344 438.618 96.6147C450.481 100.272 462.745 104.051 486.88 104.051V105.037C462.601 105.037 450.262 101.236 438.33 97.5556C426.467 93.8981 414.196 90.1193 390.061 90.1193C365.927 90.1193 353.663 93.8981 341.8 97.5556C329.868 101.236 317.521 105.037 293.25 105.037V104.051C317.378 104.051 329.649 100.272 341.512 96.6147C353.443 92.9344 365.791 89.1328 390.061 89.1328Z" fill="url(#paint88_linear_137_329)"/>
<path d="M390.061 96.0151C414.324 96.0151 426.664 99.8092 438.588 103.489C450.458 107.147 462.737 110.933 486.88 110.933V111.722C462.616 111.722 450.284 107.928 438.361 104.248C426.482 100.591 414.211 96.8043 390.061 96.8043C365.911 96.8043 353.64 100.591 341.769 104.248C329.846 107.921 317.514 111.722 293.25 111.722V110.933C317.393 110.933 329.672 107.147 341.542 103.489C353.466 99.8168 365.798 96.0151 390.061 96.0151Z" fill="url(#paint89_linear_137_329)"/>
<path d="M99.6292 205.534C124.096 205.534 136.527 209.366 148.549 213.077C160.329 216.704 172.502 220.452 196.44 220.452C220.378 220.452 232.559 216.704 244.331 213.077C256.353 209.366 268.783 205.534 293.251 205.534V209.047C269.313 209.047 257.132 212.796 245.359 216.423C233.337 220.134 220.907 223.966 196.44 223.966C171.973 223.966 159.542 220.134 147.52 216.423C135.74 212.796 123.567 209.047 99.6292 209.047V205.534Z" fill="url(#paint90_linear_137_329)"/>
<path d="M99.6292 198.849C124.074 198.849 136.504 202.681 148.518 206.384C160.298 210.011 172.479 213.767 196.44 213.767C220.401 213.767 232.581 210.011 244.361 206.384C256.376 202.681 268.806 198.849 293.251 198.849V202.165C269.29 202.165 257.109 205.921 245.329 209.548C233.315 213.251 220.885 217.083 196.44 217.083C171.995 217.083 159.565 213.251 147.551 209.548C135.771 205.921 123.59 202.165 99.6292 202.165V198.849Z" fill="url(#paint91_linear_137_329)"/>
<path d="M99.6292 192.164C124.066 192.164 136.481 195.988 148.488 199.691C160.276 203.326 172.472 207.082 196.44 207.082C220.408 207.082 232.604 203.326 244.392 199.691C256.398 195.996 268.814 192.164 293.251 192.164V195.282C269.282 195.282 257.086 199.038 245.299 202.673C233.292 206.368 220.877 210.2 196.44 210.2C172.003 210.2 159.588 206.376 147.581 202.673C135.793 199.038 123.597 195.282 99.6292 195.282V192.164Z" fill="url(#paint92_linear_137_329)"/>
<path d="M99.6292 185.471C124.051 185.471 136.459 189.296 148.465 192.999C160.261 196.633 172.456 200.397 196.447 200.397C220.438 200.397 232.634 196.633 244.429 192.999C256.429 189.303 268.844 185.471 293.266 185.471V188.393C269.282 188.393 257.079 192.156 245.284 195.791C233.285 199.486 220.869 203.318 196.447 203.318C172.026 203.318 159.618 199.494 147.611 195.791C135.816 192.156 123.62 188.393 99.6292 188.393V185.471Z" fill="url(#paint93_linear_137_329)"/>
<path d="M99.6292 178.778C124.036 178.778 136.436 182.603 148.435 186.306C160.238 189.94 172.441 193.704 196.44 193.704C220.438 193.704 232.642 189.94 244.445 186.306C256.444 182.61 268.844 178.778 293.251 178.778V181.518C269.252 181.518 257.049 185.281 245.246 188.916C233.247 192.611 220.847 196.443 196.44 196.443C172.033 196.443 159.633 192.619 147.634 188.916C135.831 185.281 123.628 181.518 99.6292 181.518V178.778Z" fill="url(#paint94_linear_137_329)"/>
<path d="M99.6292 172.093C124.021 172.093 136.421 175.91 148.405 179.605C160.215 183.248 172.426 187.004 196.44 187.004C220.454 187.004 232.665 183.24 244.475 179.605C256.459 175.91 268.859 172.093 293.251 172.093V174.635C269.237 174.635 257.026 178.399 245.216 182.034C233.232 185.729 220.832 189.546 196.44 189.546C172.048 189.546 159.648 185.729 147.664 182.034C135.854 178.391 123.643 174.635 99.6292 174.635V172.093Z" fill="url(#paint95_linear_137_329)"/>
<path d="M99.6292 165.408C124.006 165.408 136.398 169.225 148.375 172.92C160.193 176.563 172.411 180.326 196.44 180.326C220.469 180.326 232.687 176.555 244.505 172.92C256.482 169.225 268.874 165.408 293.251 165.408V167.753C269.222 167.753 257.003 171.524 245.186 175.159C233.209 178.854 220.816 182.671 196.44 182.671C172.063 182.671 159.671 178.854 147.694 175.159C135.876 171.517 123.658 167.753 99.6292 167.753V165.408Z" fill="url(#paint96_linear_137_329)"/>
<path d="M99.6292 158.715C123.991 158.715 136.375 162.532 148.345 166.22C160.17 169.862 172.396 173.633 196.44 173.633C220.484 173.633 232.702 169.862 244.535 166.22C256.512 162.525 268.889 158.715 293.251 158.715V160.863C269.207 160.863 256.988 164.634 245.155 168.276C233.179 171.972 220.801 175.781 196.44 175.781C172.078 175.781 159.694 171.964 147.725 168.276C135.899 164.634 123.673 160.863 99.6292 160.863V158.715Z" fill="url(#paint97_linear_137_329)"/>
<path d="M99.6292 152.023C123.975 152.023 136.353 155.84 148.322 159.528C160.147 163.17 172.381 166.941 196.44 166.941C220.499 166.941 232.725 163.17 244.558 159.528C256.535 155.832 268.904 152.023 293.251 152.023V153.981C269.192 153.981 256.966 157.752 245.133 161.394C233.156 165.09 220.786 168.899 196.44 168.899C172.094 168.899 159.716 165.082 147.747 161.394C135.922 157.752 123.688 153.981 99.6292 153.981V152.023Z" fill="url(#paint98_linear_137_329)"/>
<path d="M99.6292 145.338C123.96 145.338 136.33 149.155 148.292 152.835C160.125 156.485 172.366 160.256 196.44 160.256C220.514 160.256 232.748 156.485 244.588 152.835C256.55 149.155 268.919 145.338 293.251 145.338V147.098C269.176 147.098 256.943 150.87 245.102 154.519C233.141 158.2 220.771 162.016 196.44 162.016C172.109 162.016 159.739 158.2 147.777 154.519C135.945 150.87 123.703 147.098 99.6292 147.098V145.338Z" fill="url(#paint99_linear_137_329)"/>
<path d="M99.6292 138.653C123.953 138.653 136.307 142.462 148.269 146.15C160.109 149.8 172.358 153.579 196.44 153.579C220.522 153.579 232.778 149.807 244.611 146.15C256.565 142.462 268.927 138.653 293.251 138.653V140.216C269.169 140.216 256.913 143.987 245.08 147.645C233.126 151.333 220.764 155.142 196.44 155.142C172.116 155.142 159.762 151.333 147.8 147.645C135.96 143.995 123.711 140.216 99.6292 140.216V138.653Z" fill="url(#paint100_linear_137_329)"/>
<path d="M99.6292 131.96C123.93 131.96 136.285 135.769 148.239 139.449C160.087 143.099 172.343 146.878 196.44 146.878C220.537 146.878 232.793 143.099 244.641 139.449C256.587 135.769 268.942 131.96 293.251 131.96V133.326C269.146 133.326 256.897 137.105 245.049 140.755C233.103 144.435 220.748 148.244 196.44 148.244C172.131 148.244 159.784 144.435 147.83 140.755C135.982 137.105 123.726 133.326 99.6292 133.326V131.96Z" fill="url(#paint101_linear_137_329)"/>
<path d="M99.6292 125.267C123.923 125.267 136.262 129.076 148.208 132.757C160.064 136.406 172.328 140.185 196.44 140.185C220.552 140.185 232.816 136.406 244.671 132.757C256.618 129.076 268.957 125.267 293.251 125.267V126.451C269.139 126.451 256.875 130.23 245.019 133.88C233.073 137.56 220.733 141.369 196.44 141.369C172.146 141.369 159.807 137.56 147.861 133.88C136.005 130.23 123.741 126.451 99.6292 126.451V125.267Z" fill="url(#paint102_linear_137_329)"/>
<path d="M99.6292 118.582C123.907 118.582 136.247 122.384 148.178 126.056C160.041 129.714 172.305 133.493 196.44 133.493C220.575 133.493 232.838 129.714 244.702 126.056C256.633 122.384 268.98 118.582 293.251 118.582V119.568C269.124 119.568 256.852 123.347 244.989 127.005C233.058 130.677 220.711 134.479 196.44 134.479C172.169 134.479 159.822 130.677 147.891 127.005C136.028 123.347 123.764 119.568 99.6292 119.568V118.582Z" fill="url(#paint103_linear_137_329)"/>
<path d="M99.6292 111.897C123.892 111.897 136.224 115.699 148.148 119.371C160.019 123.029 172.298 126.815 196.44 126.815C220.582 126.815 232.861 123.029 244.732 119.371C256.656 115.699 268.987 111.897 293.251 111.897V112.686C269.108 112.686 256.829 116.473 244.959 120.13C233.035 123.803 220.703 127.604 196.44 127.604C172.177 127.604 159.845 123.803 147.921 120.13C136.05 116.473 123.771 112.686 99.6292 112.686V111.897Z" fill="url(#paint104_linear_137_329)"/>
<path d="M390.061 95.5601C414.536 95.5601 426.959 99.392 438.988 103.103C450.768 106.73 462.941 110.478 486.88 110.478V113.991C462.412 113.991 449.982 110.16 437.96 106.449C426.18 102.822 414.007 99.0733 390.061 99.0733C366.116 99.0733 353.942 102.822 342.17 106.449C330.148 110.16 317.718 113.991 293.25 113.991V110.478C317.189 110.478 329.369 106.73 341.142 103.103C353.164 99.392 365.594 95.5601 390.061 95.5601Z" fill="url(#paint105_linear_137_329)"/>
<path d="M390.061 102.45C414.513 102.45 426.936 106.282 438.958 109.978C450.738 113.612 462.926 117.361 486.88 117.361V120.677C462.435 120.677 450.005 116.852 437.99 113.149C426.21 109.522 414.022 105.766 390.061 105.766C366.101 105.766 353.92 109.522 342.14 113.149C330.125 116.845 317.695 120.677 293.25 120.677V117.361C317.211 117.361 329.392 113.605 341.172 109.978C353.186 106.282 365.617 102.45 390.061 102.45Z" fill="url(#paint106_linear_137_329)"/>
<path d="M390.061 109.325C414.506 109.325 426.921 113.149 438.928 116.852C450.715 120.487 462.911 124.243 486.88 124.243V127.362C462.442 127.362 450.027 123.537 438.021 119.834C426.233 116.2 414.037 112.443 390.069 112.443C366.1 112.443 353.905 116.2 342.117 119.834C330.11 123.537 317.695 127.362 293.258 127.362V124.243C317.226 124.243 329.422 120.487 341.21 116.852C353.217 113.149 365.632 109.325 390.069 109.325H390.061Z" fill="url(#paint107_linear_137_329)"/>
<path d="M390.061 116.215C414.483 116.215 426.898 120.039 438.898 123.742C450.7 127.377 462.896 131.141 486.88 131.141V134.062C462.458 134.062 450.05 130.238 438.043 126.535C426.24 122.9 414.045 119.136 390.061 119.136C366.078 119.136 353.874 122.9 342.079 126.535C330.08 130.23 317.665 134.062 293.243 134.062V131.141C317.226 131.141 329.43 127.377 341.225 123.742C353.224 120.047 365.639 116.215 390.061 116.215Z" fill="url(#paint108_linear_137_329)"/>
<path d="M390.061 123.089C414.468 123.089 426.876 126.914 438.875 130.617C450.678 134.251 462.881 138.015 486.88 138.015V140.754C462.473 140.754 450.073 136.93 438.073 133.227C426.271 129.592 414.067 125.829 390.061 125.829C366.055 125.829 353.859 129.592 342.057 133.227C330.057 136.922 317.657 140.754 293.25 140.754V138.015C317.249 138.015 329.452 134.251 341.255 130.617C353.254 126.921 365.654 123.089 390.061 123.089Z" fill="url(#paint109_linear_137_329)"/>
<path d="M390.061 129.979C414.461 129.979 426.853 133.796 438.845 137.492C450.655 141.134 462.866 144.89 486.88 144.89V147.432C462.488 147.432 450.088 143.615 438.104 139.92C426.293 136.278 414.075 132.522 390.061 132.522C366.048 132.522 353.837 136.285 342.026 139.92C330.042 143.615 317.642 147.432 293.25 147.432V144.89C317.264 144.89 329.475 141.126 341.285 137.492C353.27 133.796 365.67 129.979 390.061 129.979Z" fill="url(#paint110_linear_137_329)"/>
<path d="M390.061 136.862C414.438 136.862 426.838 140.679 438.814 144.374C450.632 148.016 462.851 151.78 486.88 151.78V154.125C462.503 154.125 450.11 150.308 438.134 146.612C426.316 142.97 414.098 139.207 390.061 139.207C366.025 139.207 353.814 142.978 341.996 146.612C330.02 150.308 317.627 154.125 293.25 154.125V151.78C317.279 151.78 329.498 148.009 341.316 144.374C353.292 140.679 365.685 136.862 390.061 136.862Z" fill="url(#paint111_linear_137_329)"/>
<path d="M390.061 143.744C414.43 143.744 426.815 147.561 438.784 151.249C450.61 154.891 462.836 158.662 486.88 158.662V160.81C462.518 160.81 450.133 156.993 438.164 153.305C426.339 149.663 414.105 145.892 390.061 145.892C366.017 145.892 353.799 149.663 341.966 153.305C329.989 157.001 317.612 160.81 293.25 160.81V158.662C317.294 158.662 329.513 154.891 341.346 151.249C353.322 147.553 365.7 143.744 390.061 143.744Z" fill="url(#paint112_linear_137_329)"/>
<path d="M390.061 150.626C414.408 150.626 426.785 154.443 438.761 158.123C450.587 161.766 462.821 165.537 486.88 165.537V167.495C462.533 167.495 450.156 163.678 438.194 159.998C426.361 156.355 414.128 152.584 390.069 152.584C366.01 152.584 353.784 156.355 341.943 159.998C329.974 163.686 317.604 167.495 293.258 167.495V165.537C317.317 165.537 329.543 161.766 341.384 158.123C353.353 154.436 365.722 150.626 390.069 150.626H390.061Z" fill="url(#paint113_linear_137_329)"/>
<path d="M390.061 157.509C414.4 157.509 426.77 161.326 438.731 165.006C450.564 168.649 462.805 172.427 486.88 172.427V174.188C462.548 174.188 450.179 170.371 438.217 166.691C426.384 163.049 414.135 159.27 390.069 159.27C366.002 159.27 353.761 163.041 341.92 166.691C329.959 170.379 317.589 174.188 293.258 174.188V172.427C317.332 172.427 329.566 168.656 341.406 165.006C353.368 161.318 365.738 157.509 390.069 157.509H390.061Z" fill="url(#paint114_linear_137_329)"/>
<path d="M390.061 164.392C414.385 164.392 426.747 168.201 438.701 171.889C450.541 175.538 462.79 179.317 486.872 179.317V180.88C462.548 180.88 450.194 177.071 438.232 173.383C426.392 169.734 414.143 165.955 390.054 165.955C365.964 165.955 353.716 169.726 341.883 173.383C329.929 177.071 317.567 180.88 293.243 180.88V179.317C317.325 179.317 329.581 175.546 341.414 171.889C353.368 168.201 365.73 164.392 390.054 164.392H390.061Z" fill="url(#paint115_linear_137_329)"/>
<path d="M390.061 171.281C414.37 171.281 426.724 175.09 438.678 178.771C450.526 182.421 462.783 186.199 486.88 186.199V187.565C462.579 187.565 450.224 183.756 438.27 180.076C426.422 176.426 414.166 172.647 390.061 172.647C365.957 172.647 353.708 176.426 341.86 180.076C329.914 183.756 317.559 187.565 293.25 187.565V186.199C317.355 186.199 329.604 182.421 341.452 178.771C353.398 175.09 365.753 171.281 390.061 171.281Z" fill="url(#paint116_linear_137_329)"/>
<path d="M390.061 178.156C414.355 178.156 426.702 181.965 438.648 185.638C450.504 189.296 462.768 193.067 486.88 193.067V194.251C462.586 194.251 450.247 190.441 438.3 186.769C426.445 183.111 414.181 179.34 390.061 179.34C365.942 179.34 353.685 183.111 341.83 186.769C329.883 190.441 317.544 194.251 293.25 194.251V193.067C317.362 193.067 329.626 189.296 341.482 185.638C353.428 181.965 365.768 178.156 390.061 178.156Z" fill="url(#paint117_linear_137_329)"/>
<path d="M390.061 185.039C414.34 185.039 426.687 188.84 438.618 192.52C450.481 196.178 462.745 199.957 486.88 199.957V200.943C462.601 200.943 450.262 197.142 438.33 193.461C426.467 189.804 414.196 186.025 390.061 186.025C365.927 186.025 353.663 189.804 341.8 193.461C329.868 197.142 317.521 200.943 293.25 200.943V199.957C317.378 199.957 329.649 196.178 341.512 192.52C353.443 188.84 365.791 185.039 390.061 185.039Z" fill="url(#paint118_linear_137_329)"/>
<path d="M390.061 191.921C414.324 191.921 426.664 195.723 438.588 199.395C450.458 203.053 462.737 206.839 486.88 206.839V207.628C462.616 207.628 450.284 203.827 438.361 200.154C426.482 196.497 414.211 192.71 390.061 192.71C365.911 192.71 353.64 196.497 341.769 200.154C329.846 203.827 317.514 207.628 293.25 207.628V206.839C317.393 206.839 329.672 203.053 341.542 199.395C353.466 195.723 365.798 191.921 390.061 191.921Z" fill="url(#paint119_linear_137_329)"/>
</g>
</g>
<defs>
<linearGradient id="paint0_linear_137_329" x1="2.06879" y1="-3.03947" x2="2.06879" y2="210.079" gradientUnits="userSpaceOnUse">
<stop stop-color="#AAD5ED"/>
<stop offset="1" stop-color="white"/>
</linearGradient>
<linearGradient id="paint1_linear_137_329" x1="2.06879" y1="-3.03953" x2="2.06879" y2="210.079" gradientUnits="userSpaceOnUse">
<stop stop-color="#AAD5ED"/>
<stop offset="1" stop-color="white"/>
</linearGradient>
<linearGradient id="paint2_linear_137_329" x1="2.0688" y1="-3.03959" x2="2.0688" y2="210.079" gradientUnits="userSpaceOnUse">
<stop stop-color="#AAD5ED"/>
<stop offset="1" stop-color="white"/>
</linearGradient>
<linearGradient id="paint3_linear_137_329" x1="2.06879" y1="-3.03943" x2="2.06879" y2="210.079" gradientUnits="userSpaceOnUse">
<stop stop-color="#AAD5ED"/>
<stop offset="1" stop-color="white"/>
</linearGradient>
<linearGradient id="paint4_linear_137_329" x1="2.06879" y1="-3.03971" x2="2.06879" y2="210.079" gradientUnits="userSpaceOnUse">
<stop stop-color="#AAD5ED"/>
<stop offset="1" stop-color="white"/>
</linearGradient>
<linearGradient id="paint5_linear_137_329" x1="2.06879" y1="-3.03929" x2="2.06879" y2="210.079" gradientUnits="userSpaceOnUse">
<stop stop-color="#AAD5ED"/>
<stop offset="1" stop-color="white"/>
</linearGradient>
<linearGradient id="paint6_linear_137_329" x1="2.06879" y1="-3.03962" x2="2.06879" y2="210.079" gradientUnits="userSpaceOnUse">
<stop stop-color="#AAD5ED"/>
<stop offset="1" stop-color="white"/>
</linearGradient>
<linearGradient id="paint7_linear_137_329" x1="2.06879" y1="-3.03966" x2="2.06879" y2="210.079" gradientUnits="userSpaceOnUse">
<stop stop-color="#AAD5ED"/>
<stop offset="1" stop-color="white"/>
</linearGradient>
<linearGradient id="paint8_linear_137_329" x1="2.0688" y1="-3.03948" x2="2.0688" y2="210.079" gradientUnits="userSpaceOnUse">
<stop stop-color="#AAD5ED"/>
<stop offset="1" stop-color="white"/>
</linearGradient>
<linearGradient id="paint9_linear_137_329" x1="2.0688" y1="-3.03928" x2="2.0688" y2="210.079" gradientUnits="userSpaceOnUse">
<stop stop-color="#AAD5ED"/>
<stop offset="1" stop-color="white"/>
</linearGradient>
<linearGradient id="paint10_linear_137_329" x1="2.06878" y1="-3.03935" x2="2.06878" y2="210.079" gradientUnits="userSpaceOnUse">
<stop stop-color="#AAD5ED"/>
<stop offset="1" stop-color="white"/>
</linearGradient>
<linearGradient id="paint11_linear_137_329" x1="2.06879" y1="-3.03942" x2="2.06879" y2="210.079" gradientUnits="userSpaceOnUse">
<stop stop-color="#AAD5ED"/>
<stop offset="1" stop-color="white"/>
</linearGradient>
<linearGradient id="paint12_linear_137_329" x1="2.06879" y1="-3.03971" x2="2.06879" y2="210.079" gradientUnits="userSpaceOnUse">
<stop stop-color="#AAD5ED"/>
<stop offset="1" stop-color="white"/>
</linearGradient>
<linearGradient id="paint13_linear_137_329" x1="2.06879" y1="-3.03957" x2="2.06879" y2="210.079" gradientUnits="userSpaceOnUse">
<stop stop-color="#AAD5ED"/>
<stop offset="1" stop-color="white"/>
</linearGradient>
<linearGradient id="paint14_linear_137_329" x1="2.06879" y1="-3.0396" x2="2.06879" y2="210.079" gradientUnits="userSpaceOnUse">
<stop stop-color="#AAD5ED"/>
<stop offset="1" stop-color="white"/>
</linearGradient>
<linearGradient id="paint15_linear_137_329" x1="195.69" y1="-3.03932" x2="195.69" y2="210.079" gradientUnits="userSpaceOnUse">
<stop stop-color="#AAD5ED"/>
<stop offset="1" stop-color="white"/>
</linearGradient>
<linearGradient id="paint16_linear_137_329" x1="195.69" y1="-3.03952" x2="195.69" y2="210.079" gradientUnits="userSpaceOnUse">
<stop stop-color="#AAD5ED"/>
<stop offset="1" stop-color="white"/>
</linearGradient>
<linearGradient id="paint17_linear_137_329" x1="195.69" y1="-3.0395" x2="195.69" y2="210.079" gradientUnits="userSpaceOnUse">
<stop stop-color="#AAD5ED"/>
<stop offset="1" stop-color="white"/>
</linearGradient>
<linearGradient id="paint18_linear_137_329" x1="195.69" y1="-3.03941" x2="195.69" y2="210.079" gradientUnits="userSpaceOnUse">
<stop stop-color="#AAD5ED"/>
<stop offset="1" stop-color="white"/>
</linearGradient>
<linearGradient id="paint19_linear_137_329" x1="195.69" y1="-3.03964" x2="195.69" y2="210.079" gradientUnits="userSpaceOnUse">
<stop stop-color="#AAD5ED"/>
<stop offset="1" stop-color="white"/>
</linearGradient>
<linearGradient id="paint20_linear_137_329" x1="195.69" y1="-3.03932" x2="195.69" y2="210.079" gradientUnits="userSpaceOnUse">
<stop stop-color="#AAD5ED"/>
<stop offset="1" stop-color="white"/>
</linearGradient>
<linearGradient id="paint21_linear_137_329" x1="195.69" y1="-3.0393" x2="195.69" y2="210.079" gradientUnits="userSpaceOnUse">
<stop stop-color="#AAD5ED"/>
<stop offset="1" stop-color="white"/>
</linearGradient>
<linearGradient id="paint22_linear_137_329" x1="195.69" y1="-3.03929" x2="195.69" y2="210.079" gradientUnits="userSpaceOnUse">
<stop stop-color="#AAD5ED"/>
<stop offset="1" stop-color="white"/>
</linearGradient>
<linearGradient id="paint23_linear_137_329" x1="195.69" y1="-3.03943" x2="195.69" y2="210.079" gradientUnits="userSpaceOnUse">
<stop stop-color="#AAD5ED"/>
<stop offset="1" stop-color="white"/>
</linearGradient>
<linearGradient id="paint24_linear_137_329" x1="195.69" y1="-3.03965" x2="195.69" y2="210.079" gradientUnits="userSpaceOnUse">
<stop stop-color="#AAD5ED"/>
<stop offset="1" stop-color="white"/>
</linearGradient>
<linearGradient id="paint25_linear_137_329" x1="195.69" y1="-3.03937" x2="195.69" y2="210.079" gradientUnits="userSpaceOnUse">
<stop stop-color="#AAD5ED"/>
<stop offset="1" stop-color="white"/>
</linearGradient>
<linearGradient id="paint26_linear_137_329" x1="195.69" y1="-3.03956" x2="195.69" y2="210.079" gradientUnits="userSpaceOnUse">
<stop stop-color="#AAD5ED"/>
<stop offset="1" stop-color="white"/>
</linearGradient>
<linearGradient id="paint27_linear_137_329" x1="195.69" y1="-3.03927" x2="195.69" y2="210.079" gradientUnits="userSpaceOnUse">
<stop stop-color="#AAD5ED"/>
<stop offset="1" stop-color="white"/>
</linearGradient>
<linearGradient id="paint28_linear_137_329" x1="195.69" y1="-3.03945" x2="195.69" y2="210.079" gradientUnits="userSpaceOnUse">
<stop stop-color="#AAD5ED"/>
<stop offset="1" stop-color="white"/>
</linearGradient>
<linearGradient id="paint29_linear_137_329" x1="195.69" y1="-3.03968" x2="195.69" y2="210.079" gradientUnits="userSpaceOnUse">
<stop stop-color="#AAD5ED"/>
<stop offset="1" stop-color="white"/>
</linearGradient>
<linearGradient id="paint30_linear_137_329" x1="2.06879" y1="-3.03941" x2="2.06879" y2="210.079" gradientUnits="userSpaceOnUse">
<stop stop-color="#AAD5ED"/>
<stop offset="1" stop-color="white"/>
</linearGradient>
<linearGradient id="paint31_linear_137_329" x1="2.06879" y1="-3.03925" x2="2.06879" y2="210.079" gradientUnits="userSpaceOnUse">
<stop stop-color="#AAD5ED"/>
<stop offset="1" stop-color="white"/>
</linearGradient>
<linearGradient id="paint32_linear_137_329" x1="2.0688" y1="-3.03954" x2="2.0688" y2="210.079" gradientUnits="userSpaceOnUse">
<stop stop-color="#AAD5ED"/>
<stop offset="1" stop-color="white"/>
</linearGradient>
<linearGradient id="paint33_linear_137_329" x1="2.06879" y1="-3.03939" x2="2.06879" y2="210.079" gradientUnits="userSpaceOnUse">
<stop stop-color="#AAD5ED"/>
<stop offset="1" stop-color="white"/>
</linearGradient>
<linearGradient id="paint34_linear_137_329" x1="2.06879" y1="-3.03964" x2="2.06879" y2="210.079" gradientUnits="userSpaceOnUse">
<stop stop-color="#AAD5ED"/>
<stop offset="1" stop-color="white"/>
</linearGradient>
<linearGradient id="paint35_linear_137_329" x1="2.06879" y1="-3.03947" x2="2.06879" y2="210.079" gradientUnits="userSpaceOnUse">
<stop stop-color="#AAD5ED"/>
<stop offset="1" stop-color="white"/>
</linearGradient>
<linearGradient id="paint36_linear_137_329" x1="2.06879" y1="-3.03955" x2="2.06879" y2="210.079" gradientUnits="userSpaceOnUse">
<stop stop-color="#AAD5ED"/>
<stop offset="1" stop-color="white"/>
</linearGradient>
<linearGradient id="paint37_linear_137_329" x1="2.06879" y1="-3.03964" x2="2.06879" y2="210.079" gradientUnits="userSpaceOnUse">
<stop stop-color="#AAD5ED"/>
<stop offset="1" stop-color="white"/>
</linearGradient>
<linearGradient id="paint38_linear_137_329" x1="2.0688" y1="-3.03977" x2="2.0688" y2="210.079" gradientUnits="userSpaceOnUse">
<stop stop-color="#AAD5ED"/>
<stop offset="1" stop-color="white"/>
</linearGradient>
<linearGradient id="paint39_linear_137_329" x1="2.0688" y1="-3.03928" x2="2.0688" y2="210.079" gradientUnits="userSpaceOnUse">
<stop stop-color="#AAD5ED"/>
<stop offset="1" stop-color="white"/>
</linearGradient>
<linearGradient id="paint40_linear_137_329" x1="2.06878" y1="-3.03912" x2="2.06878" y2="210.079" gradientUnits="userSpaceOnUse">
<stop stop-color="#AAD5ED"/>
<stop offset="1" stop-color="white"/>
</linearGradient>
<linearGradient id="paint41_linear_137_329" x1="2.06879" y1="-3.03978" x2="2.06879" y2="210.079" gradientUnits="userSpaceOnUse">
<stop stop-color="#AAD5ED"/>
<stop offset="1" stop-color="white"/>
</linearGradient>
<linearGradient id="paint42_linear_137_329" x1="2.06879" y1="-3.03961" x2="2.06879" y2="210.079" gradientUnits="userSpaceOnUse">
<stop stop-color="#AAD5ED"/>
<stop offset="1" stop-color="white"/>
</linearGradient>
<linearGradient id="paint43_linear_137_329" x1="2.06879" y1="-3.03942" x2="2.06879" y2="210.079" gradientUnits="userSpaceOnUse">
<stop stop-color="#AAD5ED"/>
<stop offset="1" stop-color="white"/>
</linearGradient>
<linearGradient id="paint44_linear_137_329" x1="2.06879" y1="-3.03936" x2="2.06879" y2="210.079" gradientUnits="userSpaceOnUse">
<stop stop-color="#AAD5ED"/>
<stop offset="1" stop-color="white"/>
</linearGradient>
<linearGradient id="paint45_linear_137_329" x1="195.69" y1="-3.03929" x2="195.69" y2="210.079" gradientUnits="userSpaceOnUse">
<stop stop-color="#AAD5ED"/>
<stop offset="1" stop-color="white"/>
</linearGradient>
<linearGradient id="paint46_linear_137_329" x1="195.69" y1="-3.03924" x2="195.69" y2="210.079" gradientUnits="userSpaceOnUse">
<stop stop-color="#AAD5ED"/>
<stop offset="1" stop-color="white"/>
</linearGradient>
<linearGradient id="paint47_linear_137_329" x1="195.69" y1="-3.03959" x2="195.69" y2="210.079" gradientUnits="userSpaceOnUse">
<stop stop-color="#AAD5ED"/>
<stop offset="1" stop-color="white"/>
</linearGradient>
<linearGradient id="paint48_linear_137_329" x1="195.69" y1="-3.0393" x2="195.69" y2="210.079" gradientUnits="userSpaceOnUse">
<stop stop-color="#AAD5ED"/>
<stop offset="1" stop-color="white"/>
</linearGradient>
<linearGradient id="paint49_linear_137_329" x1="195.69" y1="-3.03956" x2="195.69" y2="210.079" gradientUnits="userSpaceOnUse">
<stop stop-color="#AAD5ED"/>
<stop offset="1" stop-color="white"/>
</linearGradient>
<linearGradient id="paint50_linear_137_329" x1="195.69" y1="-3.03952" x2="195.69" y2="210.079" gradientUnits="userSpaceOnUse">
<stop stop-color="#AAD5ED"/>
<stop offset="1" stop-color="white"/>
</linearGradient>
<linearGradient id="paint51_linear_137_329" x1="195.69" y1="-3.0395" x2="195.69" y2="210.079" gradientUnits="userSpaceOnUse">
<stop stop-color="#AAD5ED"/>
<stop offset="1" stop-color="white"/>
</linearGradient>
<linearGradient id="paint52_linear_137_329" x1="195.69" y1="-3.03982" x2="195.69" y2="210.079" gradientUnits="userSpaceOnUse">
<stop stop-color="#AAD5ED"/>
<stop offset="1" stop-color="white"/>
</linearGradient>
<linearGradient id="paint53_linear_137_329" x1="195.69" y1="-3.03952" x2="195.69" y2="210.079" gradientUnits="userSpaceOnUse">
<stop stop-color="#AAD5ED"/>
<stop offset="1" stop-color="white"/>
</linearGradient>
<linearGradient id="paint54_linear_137_329" x1="195.69" y1="-3.03929" x2="195.69" y2="210.079" gradientUnits="userSpaceOnUse">
<stop stop-color="#AAD5ED"/>
<stop offset="1" stop-color="white"/>
</linearGradient>
<linearGradient id="paint55_linear_137_329" x1="195.69" y1="-3.03928" x2="195.69" y2="210.079" gradientUnits="userSpaceOnUse">
<stop stop-color="#AAD5ED"/>
<stop offset="1" stop-color="white"/>
</linearGradient>
<linearGradient id="paint56_linear_137_329" x1="195.69" y1="-3.03954" x2="195.69" y2="210.079" gradientUnits="userSpaceOnUse">
<stop stop-color="#AAD5ED"/>
<stop offset="1" stop-color="white"/>
</linearGradient>
<linearGradient id="paint57_linear_137_329" x1="195.69" y1="-3.0396" x2="195.69" y2="210.079" gradientUnits="userSpaceOnUse">
<stop stop-color="#AAD5ED"/>
<stop offset="1" stop-color="white"/>
</linearGradient>
<linearGradient id="paint58_linear_137_329" x1="195.69" y1="-3.03972" x2="195.69" y2="210.079" gradientUnits="userSpaceOnUse">
<stop stop-color="#AAD5ED"/>
<stop offset="1" stop-color="white"/>
</linearGradient>
<linearGradient id="paint59_linear_137_329" x1="195.69" y1="-3.0396" x2="195.69" y2="210.079" gradientUnits="userSpaceOnUse">
<stop stop-color="#AAD5ED"/>
<stop offset="1" stop-color="white"/>
</linearGradient>
<linearGradient id="paint60_linear_137_329" x1="196.44" y1="-3.03932" x2="196.44" y2="210.079" gradientUnits="userSpaceOnUse">
<stop stop-color="#AAD5ED"/>
<stop offset="1" stop-color="white"/>
</linearGradient>
<linearGradient id="paint61_linear_137_329" x1="196.44" y1="-3.03952" x2="196.44" y2="210.079" gradientUnits="userSpaceOnUse">
<stop stop-color="#AAD5ED"/>
<stop offset="1" stop-color="white"/>
</linearGradient>
<linearGradient id="paint62_linear_137_329" x1="196.44" y1="-3.0395" x2="196.44" y2="210.079" gradientUnits="userSpaceOnUse">
<stop stop-color="#AAD5ED"/>
<stop offset="1" stop-color="white"/>
</linearGradient>
<linearGradient id="paint63_linear_137_329" x1="196.44" y1="-3.03941" x2="196.44" y2="210.079" gradientUnits="userSpaceOnUse">
<stop stop-color="#AAD5ED"/>
<stop offset="1" stop-color="white"/>
</linearGradient>
<linearGradient id="paint64_linear_137_329" x1="196.44" y1="-3.03964" x2="196.44" y2="210.079" gradientUnits="userSpaceOnUse">
<stop stop-color="#AAD5ED"/>
<stop offset="1" stop-color="white"/>
</linearGradient>
<linearGradient id="paint65_linear_137_329" x1="196.44" y1="-3.03932" x2="196.44" y2="210.079" gradientUnits="userSpaceOnUse">
<stop stop-color="#AAD5ED"/>
<stop offset="1" stop-color="white"/>
</linearGradient>
<linearGradient id="paint66_linear_137_329" x1="196.44" y1="-3.0393" x2="196.44" y2="210.079" gradientUnits="userSpaceOnUse">
<stop stop-color="#AAD5ED"/>
<stop offset="1" stop-color="white"/>
</linearGradient>
<linearGradient id="paint67_linear_137_329" x1="196.44" y1="-3.03929" x2="196.44" y2="210.079" gradientUnits="userSpaceOnUse">
<stop stop-color="#AAD5ED"/>
<stop offset="1" stop-color="white"/>
</linearGradient>
<linearGradient id="paint68_linear_137_329" x1="196.44" y1="-3.03943" x2="196.44" y2="210.079" gradientUnits="userSpaceOnUse">
<stop stop-color="#AAD5ED"/>
<stop offset="1" stop-color="white"/>
</linearGradient>
<linearGradient id="paint69_linear_137_329" x1="196.44" y1="-3.03965" x2="196.44" y2="210.079" gradientUnits="userSpaceOnUse">
<stop stop-color="#AAD5ED"/>
<stop offset="1" stop-color="white"/>
</linearGradient>
<linearGradient id="paint70_linear_137_329" x1="196.44" y1="-3.03937" x2="196.44" y2="210.079" gradientUnits="userSpaceOnUse">
<stop stop-color="#AAD5ED"/>
<stop offset="1" stop-color="white"/>
</linearGradient>
<linearGradient id="paint71_linear_137_329" x1="196.44" y1="-3.03956" x2="196.44" y2="210.079" gradientUnits="userSpaceOnUse">
<stop stop-color="#AAD5ED"/>
<stop offset="1" stop-color="white"/>
</linearGradient>
<linearGradient id="paint72_linear_137_329" x1="196.44" y1="-3.03927" x2="196.44" y2="210.079" gradientUnits="userSpaceOnUse">
<stop stop-color="#AAD5ED"/>
<stop offset="1" stop-color="white"/>
</linearGradient>
<linearGradient id="paint73_linear_137_329" x1="196.44" y1="-3.03945" x2="196.44" y2="210.079" gradientUnits="userSpaceOnUse">
<stop stop-color="#AAD5ED"/>
<stop offset="1" stop-color="white"/>
</linearGradient>
<linearGradient id="paint74_linear_137_329" x1="196.44" y1="-3.03968" x2="196.44" y2="210.079" gradientUnits="userSpaceOnUse">
<stop stop-color="#AAD5ED"/>
<stop offset="1" stop-color="white"/>
</linearGradient>
<linearGradient id="paint75_linear_137_329" x1="390.069" y1="-3.03947" x2="390.069" y2="210.079" gradientUnits="userSpaceOnUse">
<stop stop-color="#AAD5ED"/>
<stop offset="1" stop-color="white"/>
</linearGradient>
<linearGradient id="paint76_linear_137_329" x1="390.069" y1="-3.03953" x2="390.069" y2="210.079" gradientUnits="userSpaceOnUse">
<stop stop-color="#AAD5ED"/>
<stop offset="1" stop-color="white"/>
</linearGradient>
<linearGradient id="paint77_linear_137_329" x1="390.069" y1="-3.03959" x2="390.069" y2="210.079" gradientUnits="userSpaceOnUse">
<stop stop-color="#AAD5ED"/>
<stop offset="1" stop-color="white"/>
</linearGradient>
<linearGradient id="paint78_linear_137_329" x1="390.069" y1="-3.03943" x2="390.069" y2="210.079" gradientUnits="userSpaceOnUse">
<stop stop-color="#AAD5ED"/>
<stop offset="1" stop-color="white"/>
</linearGradient>
<linearGradient id="paint79_linear_137_329" x1="390.069" y1="-3.03971" x2="390.069" y2="210.079" gradientUnits="userSpaceOnUse">
<stop stop-color="#AAD5ED"/>
<stop offset="1" stop-color="white"/>
</linearGradient>
<linearGradient id="paint80_linear_137_329" x1="390.069" y1="-3.03929" x2="390.069" y2="210.079" gradientUnits="userSpaceOnUse">
<stop stop-color="#AAD5ED"/>
<stop offset="1" stop-color="white"/>
</linearGradient>
<linearGradient id="paint81_linear_137_329" x1="390.069" y1="-3.03962" x2="390.069" y2="210.079" gradientUnits="userSpaceOnUse">
<stop stop-color="#AAD5ED"/>
<stop offset="1" stop-color="white"/>
</linearGradient>
<linearGradient id="paint82_linear_137_329" x1="390.069" y1="-3.03966" x2="390.069" y2="210.079" gradientUnits="userSpaceOnUse">
<stop stop-color="#AAD5ED"/>
<stop offset="1" stop-color="white"/>
</linearGradient>
<linearGradient id="paint83_linear_137_329" x1="390.069" y1="-3.03948" x2="390.069" y2="210.079" gradientUnits="userSpaceOnUse">
<stop stop-color="#AAD5ED"/>
<stop offset="1" stop-color="white"/>
</linearGradient>
<linearGradient id="paint84_linear_137_329" x1="390.069" y1="-3.03928" x2="390.069" y2="210.079" gradientUnits="userSpaceOnUse">
<stop stop-color="#AAD5ED"/>
<stop offset="1" stop-color="white"/>
</linearGradient>
<linearGradient id="paint85_linear_137_329" x1="390.069" y1="-3.03935" x2="390.069" y2="210.079" gradientUnits="userSpaceOnUse">
<stop stop-color="#AAD5ED"/>
<stop offset="1" stop-color="white"/>
</linearGradient>
<linearGradient id="paint86_linear_137_329" x1="390.069" y1="-3.03942" x2="390.069" y2="210.079" gradientUnits="userSpaceOnUse">
<stop stop-color="#AAD5ED"/>
<stop offset="1" stop-color="white"/>
</linearGradient>
<linearGradient id="paint87_linear_137_329" x1="390.069" y1="-3.03971" x2="390.069" y2="210.079" gradientUnits="userSpaceOnUse">
<stop stop-color="#AAD5ED"/>
<stop offset="1" stop-color="white"/>
</linearGradient>
<linearGradient id="paint88_linear_137_329" x1="390.069" y1="-3.03957" x2="390.069" y2="210.079" gradientUnits="userSpaceOnUse">
<stop stop-color="#AAD5ED"/>
<stop offset="1" stop-color="white"/>
</linearGradient>
<linearGradient id="paint89_linear_137_329" x1="390.069" y1="-3.0396" x2="390.069" y2="210.079" gradientUnits="userSpaceOnUse">
<stop stop-color="#AAD5ED"/>
<stop offset="1" stop-color="white"/>
</linearGradient>
<linearGradient id="paint90_linear_137_329" x1="196.44" y1="-3.03929" x2="196.44" y2="210.079" gradientUnits="userSpaceOnUse">
<stop stop-color="#AAD5ED"/>
<stop offset="1" stop-color="white"/>
</linearGradient>
<linearGradient id="paint91_linear_137_329" x1="196.44" y1="-3.03924" x2="196.44" y2="210.079" gradientUnits="userSpaceOnUse">
<stop stop-color="#AAD5ED"/>
<stop offset="1" stop-color="white"/>
</linearGradient>
<linearGradient id="paint92_linear_137_329" x1="196.44" y1="-3.03959" x2="196.44" y2="210.079" gradientUnits="userSpaceOnUse">
<stop stop-color="#AAD5ED"/>
<stop offset="1" stop-color="white"/>
</linearGradient>
<linearGradient id="paint93_linear_137_329" x1="196.44" y1="-3.0393" x2="196.44" y2="210.079" gradientUnits="userSpaceOnUse">
<stop stop-color="#AAD5ED"/>
<stop offset="1" stop-color="white"/>
</linearGradient>
<linearGradient id="paint94_linear_137_329" x1="196.44" y1="-3.03956" x2="196.44" y2="210.079" gradientUnits="userSpaceOnUse">
<stop stop-color="#AAD5ED"/>
<stop offset="1" stop-color="white"/>
</linearGradient>
<linearGradient id="paint95_linear_137_329" x1="196.44" y1="-3.03952" x2="196.44" y2="210.079" gradientUnits="userSpaceOnUse">
<stop stop-color="#AAD5ED"/>
<stop offset="1" stop-color="white"/>
</linearGradient>
<linearGradient id="paint96_linear_137_329" x1="196.44" y1="-3.0395" x2="196.44" y2="210.079" gradientUnits="userSpaceOnUse">
<stop stop-color="#AAD5ED"/>
<stop offset="1" stop-color="white"/>
</linearGradient>
<linearGradient id="paint97_linear_137_329" x1="196.44" y1="-3.03982" x2="196.44" y2="210.079" gradientUnits="userSpaceOnUse">
<stop stop-color="#AAD5ED"/>
<stop offset="1" stop-color="white"/>
</linearGradient>
<linearGradient id="paint98_linear_137_329" x1="196.44" y1="-3.03952" x2="196.44" y2="210.079" gradientUnits="userSpaceOnUse">
<stop stop-color="#AAD5ED"/>
<stop offset="1" stop-color="white"/>
</linearGradient>
<linearGradient id="paint99_linear_137_329" x1="196.44" y1="-3.03929" x2="196.44" y2="210.079" gradientUnits="userSpaceOnUse">
<stop stop-color="#AAD5ED"/>
<stop offset="1" stop-color="white"/>
</linearGradient>
<linearGradient id="paint100_linear_137_329" x1="196.44" y1="-3.03928" x2="196.44" y2="210.079" gradientUnits="userSpaceOnUse">
<stop stop-color="#AAD5ED"/>
<stop offset="1" stop-color="white"/>
</linearGradient>
<linearGradient id="paint101_linear_137_329" x1="196.44" y1="-3.03954" x2="196.44" y2="210.079" gradientUnits="userSpaceOnUse">
<stop stop-color="#AAD5ED"/>
<stop offset="1" stop-color="white"/>
</linearGradient>
<linearGradient id="paint102_linear_137_329" x1="196.44" y1="-3.0396" x2="196.44" y2="210.079" gradientUnits="userSpaceOnUse">
<stop stop-color="#AAD5ED"/>
<stop offset="1" stop-color="white"/>
</linearGradient>
<linearGradient id="paint103_linear_137_329" x1="196.44" y1="-3.03972" x2="196.44" y2="210.079" gradientUnits="userSpaceOnUse">
<stop stop-color="#AAD5ED"/>
<stop offset="1" stop-color="white"/>
</linearGradient>
<linearGradient id="paint104_linear_137_329" x1="196.44" y1="-3.0396" x2="196.44" y2="210.079" gradientUnits="userSpaceOnUse">
<stop stop-color="#AAD5ED"/>
<stop offset="1" stop-color="white"/>
</linearGradient>
<linearGradient id="paint105_linear_137_329" x1="390.069" y1="-3.03941" x2="390.069" y2="210.079" gradientUnits="userSpaceOnUse">
<stop stop-color="#AAD5ED"/>
<stop offset="1" stop-color="white"/>
</linearGradient>
<linearGradient id="paint106_linear_137_329" x1="390.069" y1="-3.03925" x2="390.069" y2="210.079" gradientUnits="userSpaceOnUse">
<stop stop-color="#AAD5ED"/>
<stop offset="1" stop-color="white"/>
</linearGradient>
<linearGradient id="paint107_linear_137_329" x1="390.069" y1="-3.03954" x2="390.069" y2="210.079" gradientUnits="userSpaceOnUse">
<stop stop-color="#AAD5ED"/>
<stop offset="1" stop-color="white"/>
</linearGradient>
<linearGradient id="paint108_linear_137_329" x1="390.069" y1="-3.03939" x2="390.069" y2="210.079" gradientUnits="userSpaceOnUse">
<stop stop-color="#AAD5ED"/>
<stop offset="1" stop-color="white"/>
</linearGradient>
<linearGradient id="paint109_linear_137_329" x1="390.069" y1="-3.03964" x2="390.069" y2="210.079" gradientUnits="userSpaceOnUse">
<stop stop-color="#AAD5ED"/>
<stop offset="1" stop-color="white"/>
</linearGradient>
<linearGradient id="paint110_linear_137_329" x1="390.069" y1="-3.03947" x2="390.069" y2="210.079" gradientUnits="userSpaceOnUse">
<stop stop-color="#AAD5ED"/>
<stop offset="1" stop-color="white"/>
</linearGradient>
<linearGradient id="paint111_linear_137_329" x1="390.069" y1="-3.03955" x2="390.069" y2="210.079" gradientUnits="userSpaceOnUse">
<stop stop-color="#AAD5ED"/>
<stop offset="1" stop-color="white"/>
</linearGradient>
<linearGradient id="paint112_linear_137_329" x1="390.069" y1="-3.03964" x2="390.069" y2="210.079" gradientUnits="userSpaceOnUse">
<stop stop-color="#AAD5ED"/>
<stop offset="1" stop-color="white"/>
</linearGradient>
<linearGradient id="paint113_linear_137_329" x1="390.069" y1="-3.03977" x2="390.069" y2="210.079" gradientUnits="userSpaceOnUse">
<stop stop-color="#AAD5ED"/>
<stop offset="1" stop-color="white"/>
</linearGradient>
<linearGradient id="paint114_linear_137_329" x1="390.069" y1="-3.03928" x2="390.069" y2="210.079" gradientUnits="userSpaceOnUse">
<stop stop-color="#AAD5ED"/>
<stop offset="1" stop-color="white"/>
</linearGradient>
<linearGradient id="paint115_linear_137_329" x1="390.069" y1="-3.03912" x2="390.069" y2="210.079" gradientUnits="userSpaceOnUse">
<stop stop-color="#AAD5ED"/>
<stop offset="1" stop-color="white"/>
</linearGradient>
<linearGradient id="paint116_linear_137_329" x1="390.069" y1="-3.03978" x2="390.069" y2="210.079" gradientUnits="userSpaceOnUse">
<stop stop-color="#AAD5ED"/>
<stop offset="1" stop-color="white"/>
</linearGradient>
<linearGradient id="paint117_linear_137_329" x1="390.069" y1="-3.03961" x2="390.069" y2="210.079" gradientUnits="userSpaceOnUse">
<stop stop-color="#AAD5ED"/>
<stop offset="1" stop-color="white"/>
</linearGradient>
<linearGradient id="paint118_linear_137_329" x1="390.069" y1="-3.03942" x2="390.069" y2="210.079" gradientUnits="userSpaceOnUse">
<stop stop-color="#AAD5ED"/>
<stop offset="1" stop-color="white"/>
</linearGradient>
<linearGradient id="paint119_linear_137_329" x1="390.069" y1="-3.03936" x2="390.069" y2="210.079" gradientUnits="userSpaceOnUse">
<stop stop-color="#AAD5ED"/>
<stop offset="1" stop-color="white"/>
</linearGradient>
</defs>
</svg>
