<svg width="12" height="15" viewBox="0 0 12 15" fill="none" xmlns="http://www.w3.org/2000/svg">
<path d="M11.4155 5.82606C11.4155 2.93606 8.76548 0.636062 5.62548 0.956062C3.19548 1.20606 1.25548 3.05606 1.02548 5.33606C0.905481 6.49606 1.21548 7.58606 1.82548 8.47606L5.75548 13.8261C5.95548 14.1561 6.46548 14.1561 6.67548 13.8261L10.6055 8.47606C11.1255 7.71606 11.4355 6.80606 11.4355 5.82606H11.4155ZM6.20548 7.46606C5.11548 7.46606 4.23548 6.63606 4.23548 5.61606C4.23548 4.59606 5.11548 3.76606 6.20548 3.76606C7.29548 3.76606 8.17548 4.59606 8.17548 5.61606C8.17548 6.63606 7.29548 7.46606 6.20548 7.46606Z" stroke="#808080" stroke-linecap="round" stroke-linejoin="round"/>
</svg>
