<svg width="72" height="70" viewBox="0 0 72 70" fill="none" xmlns="http://www.w3.org/2000/svg">
<g clip-path="url(#clip0_16_8588)">
<path d="M35.885 0.579687C44.455 0.579687 53.035 0.579687 61.605 0.579687C62.025 0.579687 62.455 0.619687 62.875 0.679688C63.225 0.729687 63.565 0.829688 63.905 0.899687C64.495 1.02969 65.025 1.29969 65.555 1.56969C66.405 1.98969 67.205 2.48969 67.905 3.13969C68.555 3.73969 69.135 4.38969 69.625 5.11969C69.815 5.39969 70.035 5.66969 70.185 5.96969C70.355 6.31969 70.475 6.69969 70.595 7.06969C70.715 7.41969 70.845 7.76969 70.905 8.11969C70.995 8.61969 71.065 9.12969 71.085 9.62969C71.115 10.3997 71.095 11.1697 71.095 11.9297C71.095 27.6797 71.095 43.4397 71.095 59.1897C71.095 59.8797 71.045 60.5797 71.005 61.2697C71.005 61.4097 70.965 61.5497 70.915 61.6797C70.695 62.2997 70.585 62.9597 70.275 63.5597C69.955 64.1697 69.635 64.7897 69.175 65.3197C68.915 65.6197 68.685 65.9397 68.415 66.2297C67.925 66.7597 67.345 67.1897 66.735 67.5897C66.155 67.9697 65.515 68.2397 64.925 68.5697C64.195 68.9797 63.385 69.0097 62.615 69.2097C62.195 69.3197 61.745 69.3197 61.305 69.3197C44.455 69.3197 27.615 69.3197 10.765 69.3197C9.67501 69.3197 8.58501 69.2497 7.54501 68.8597C7.41501 68.8097 7.27501 68.7697 7.14501 68.7097C6.55501 68.4297 5.95501 68.1797 5.39501 67.8597C4.95501 67.6097 4.56501 67.2697 4.17501 66.9497C3.78501 66.6197 3.41501 66.2697 3.05501 65.9097C2.85501 65.7097 2.67501 65.4897 2.51501 65.2497C2.09501 64.5997 1.67501 63.9497 1.37501 63.2197C1.19501 62.7797 1.10501 62.3297 0.955007 61.8897C0.755007 61.2697 0.745007 60.6497 0.715007 60.0097C0.535007 56.4697 0.645007 52.9397 0.645007 49.3997C0.625007 36.5197 0.635007 23.6397 0.645007 10.7597C0.645007 9.87969 0.645008 8.96969 0.885008 8.09969C1.08501 7.38969 1.31501 6.68969 1.59501 6.00969C1.73501 5.66969 1.99501 5.36969 2.22501 5.06969C2.59501 4.57969 2.98501 4.08969 3.37501 3.60969C3.69501 3.20969 4.09501 2.89969 4.53501 2.61969C4.67501 2.52969 4.79501 2.39969 4.93501 2.29969C5.61501 1.82969 6.35501 1.47969 7.10501 1.14969C7.82501 0.839687 8.58501 0.689688 9.35501 0.579688C9.61501 0.539688 9.89501 0.559687 10.165 0.559687C18.735 0.559687 27.315 0.559687 35.885 0.559687V0.579687ZM22.415 33.3197C22.335 33.5597 22.445 33.7497 22.525 33.9397C22.615 34.1697 22.715 34.4097 22.805 34.6397C22.895 34.8797 22.965 35.1197 23.055 35.3597C23.365 36.1997 23.685 37.0297 23.985 37.8597C24.235 38.5497 24.465 39.2497 24.705 39.9397C24.835 40.3197 24.865 40.7397 25.095 41.0897C25.115 41.1197 25.095 41.1797 25.115 41.2197C25.155 41.3397 25.195 41.4597 25.235 41.5797C25.305 41.7897 25.385 41.9997 25.455 42.2097C25.595 42.6497 25.725 43.0997 25.875 43.5397C26.025 43.9597 26.205 44.3797 26.365 44.7997C26.445 45.0097 26.495 45.2297 26.585 45.4397C26.775 45.8897 26.945 46.3497 27.095 46.8197C27.235 47.2497 27.455 47.6497 27.505 48.0997C27.505 48.1297 27.505 48.1597 27.535 48.1797C27.865 48.6197 27.875 49.1897 28.095 49.6797C28.395 50.3697 28.525 51.1297 28.825 51.8397C29.135 52.5697 29.335 53.3397 29.585 54.0897C29.625 54.2197 29.685 54.3597 29.765 54.4697C30.065 54.9297 30.305 55.4197 30.625 55.8797C30.945 56.3297 31.265 56.7597 31.665 57.1497C32.185 57.6497 32.775 58.0397 33.395 58.3597C34.125 58.7397 34.865 59.1297 35.695 59.2897C35.875 59.3197 36.045 59.4097 36.215 59.4697C36.415 59.5397 36.605 59.6197 36.815 59.6697C37.165 59.7397 37.515 59.7897 37.865 59.8397C38.225 59.8797 38.595 59.9197 38.965 59.9297C39.175 59.9297 39.385 59.8897 39.595 59.8497C40.085 59.7697 40.575 59.6997 41.055 59.5897C41.415 59.5097 41.755 59.3697 42.105 59.2497C42.455 59.1297 42.795 58.9997 43.145 58.8797C43.625 58.7097 44.105 58.5597 44.595 58.3897C44.675 58.3597 44.755 58.3197 44.835 58.2897C45.355 58.0997 45.875 57.9197 46.385 57.7197C46.805 57.5597 47.235 57.3997 47.645 57.2197C48.085 57.0197 48.515 56.8097 48.935 56.5797C49.695 56.1497 50.445 55.6997 51.205 55.2597C51.675 54.9797 52.135 54.6697 52.615 54.3997C52.975 54.1897 53.265 53.8597 53.685 53.7297C53.695 53.7297 53.705 53.7097 53.715 53.6997C54.225 53.3397 54.735 52.9797 55.245 52.6297C55.665 52.3497 56.105 52.0897 56.535 51.8097C57.015 51.4997 57.485 51.1697 57.975 50.8597C58.345 50.6297 58.415 50.4397 58.235 50.0497C57.955 49.4697 57.665 48.8997 57.375 48.3197C57.315 48.1897 57.245 48.0697 57.185 47.9397C56.945 47.4297 56.525 47.0097 56.425 46.4297C56.425 46.3897 56.385 46.3497 56.365 46.3197C56.085 45.7497 55.795 45.1897 55.515 44.6197C55.375 44.3297 55.155 44.2297 54.865 44.3797C54.295 44.6697 53.735 44.9597 53.175 45.2597C52.715 45.4997 52.255 45.7497 51.805 45.9997C51.295 46.2797 50.795 46.5597 50.285 46.8397C50.145 46.9197 50.015 46.9997 49.885 47.0797C49.465 47.2997 49.025 47.4897 48.625 47.7497C48.205 48.0197 47.735 48.1497 47.255 48.2697C46.735 48.3997 46.205 48.4997 45.675 48.5797C45.455 48.6097 45.225 48.5797 45.005 48.5397C44.695 48.4897 44.395 48.4197 44.095 48.3497C43.995 48.3297 43.895 48.3197 43.805 48.2797C43.475 48.0997 43.125 47.9497 42.855 47.6597C42.495 47.2697 42.195 46.8597 41.915 46.4097C41.555 45.8397 41.325 45.2297 41.125 44.5897C41.045 44.3197 41.045 44.0097 40.905 43.7797C40.635 43.3497 40.555 42.8597 40.375 42.4097C40.115 41.7697 39.925 41.1097 39.695 40.4597C39.675 40.3897 39.635 40.3297 39.605 40.2697C39.525 40.0797 39.435 39.8797 39.365 39.6897C39.195 39.2297 39.035 38.7597 38.865 38.2897C38.715 37.8897 38.495 37.5097 38.425 37.1097C38.325 36.5897 37.955 36.1697 37.945 35.6197C37.945 35.5597 37.865 35.5097 37.825 35.4497C37.785 35.3797 37.745 35.2997 37.715 35.2197C37.535 34.6697 37.375 34.1197 37.185 33.5697C36.935 32.8297 36.655 32.0997 36.395 31.3697C36.355 31.2597 36.305 31.1697 36.255 31.0597C36.065 30.5897 35.865 30.1197 35.705 29.6397C35.545 29.1497 35.795 28.8097 36.305 28.7297C36.455 28.7097 36.615 28.6797 36.755 28.6297C37.665 28.3197 38.575 27.9997 39.485 27.6997C40.265 27.4397 41.045 27.2097 41.835 26.9697C41.985 26.9197 42.135 26.8697 42.275 26.8197C42.695 26.6597 43.115 26.4997 43.545 26.3497C43.915 26.2197 44.295 26.0997 44.675 25.9797C44.925 25.8997 45.185 25.8297 45.435 25.7397C45.765 25.6097 46.105 25.5297 46.435 25.4197C46.795 25.2997 47.135 25.1297 47.515 25.0497C47.905 24.9597 48.025 24.6897 47.905 24.2997C47.755 23.8297 47.575 23.3597 47.475 22.8797C47.375 22.3897 47.055 21.9797 47.075 21.4597C47.075 21.4197 47.045 21.3797 47.025 21.3397C46.855 20.7997 46.625 20.2797 46.525 19.7297C46.405 19.1297 46.225 18.5497 46.005 17.9897C45.875 17.6497 45.845 17.6197 45.475 17.6497C45.365 17.6497 45.245 17.6797 45.145 17.7297C44.865 17.8697 44.575 17.9597 44.265 18.0197C43.875 18.0997 43.505 18.2897 43.115 18.4197C42.625 18.5897 42.135 18.7597 41.635 18.9297C41.045 19.1397 40.465 19.3297 39.875 19.5297C39.555 19.6397 39.235 19.7497 38.905 19.8497C38.315 20.0397 37.695 20.1797 37.135 20.4197C36.825 20.5497 36.525 20.6197 36.215 20.6997C36.115 20.7197 36.025 20.7397 35.935 20.7797C35.535 20.9397 35.145 21.1897 34.735 21.2597C34.175 21.3497 33.865 21.6097 33.785 22.1497C33.785 22.1997 33.735 22.2497 33.725 22.3097C33.555 23.0597 33.115 23.6397 32.545 24.1197C32.065 24.5197 31.585 24.9097 31.015 25.1697C30.925 25.2097 30.845 25.2697 30.765 25.3297C30.505 25.5197 30.485 25.7397 30.685 25.9797C30.735 26.0297 30.785 26.0797 30.835 26.1297C31.205 26.5197 31.545 26.9497 31.945 27.3097C32.435 27.7597 32.975 28.1497 33.495 28.5597C33.935 28.9097 34.175 29.8597 33.895 30.3497C33.435 31.1697 32.775 31.7197 31.785 31.7897C31.705 31.7897 31.625 31.8297 31.535 31.8497C31.345 31.8897 31.145 31.9497 30.955 31.9497C30.135 31.9397 29.325 31.9897 28.495 31.8097C27.995 31.6997 27.505 31.5997 27.025 31.4197C26.445 31.1997 25.875 30.9397 25.305 30.6997C25.045 30.5897 24.785 30.6997 24.755 30.9797C24.705 31.3897 24.545 31.7697 24.395 32.1497C24.215 32.5897 23.905 32.9397 23.395 33.0597C23.095 33.1297 22.795 33.2097 22.475 33.2997L22.415 33.3197ZM18.545 24.5897C18.375 24.3197 18.205 24.1197 17.945 24.0697C17.455 23.9797 17.055 23.7097 16.635 23.4797C16.275 23.2897 15.955 23.0297 15.605 22.8097C15.075 22.4797 14.565 22.1397 14.185 21.6297C14.125 21.5497 14.045 21.4897 13.965 21.4297C13.745 21.2297 13.525 21.0297 13.305 20.8297C13.165 20.6997 13.035 20.5497 12.875 20.4297C12.555 20.1797 12.225 19.9397 11.875 19.7197C11.545 19.5097 11.215 19.3597 10.835 19.2597C10.245 19.0897 9.75501 19.2797 9.27501 19.5997C8.86501 19.8697 8.56501 20.2497 8.28501 20.6397C8.16501 20.8097 8.02501 20.9697 7.93501 21.1597C7.72501 21.5697 7.52501 21.9897 7.33501 22.4097C6.95501 23.2597 6.15501 23.6797 5.51501 24.2797C5.51501 24.2797 5.49501 24.2997 5.47501 24.2997C5.20501 24.3397 5.18501 24.5397 5.20501 24.7497C5.23501 25.0697 5.26501 25.3997 5.28501 25.7197C5.33501 26.4297 5.46501 27.1197 5.73501 27.7797C5.92501 28.2397 6.08501 28.7097 6.32501 29.1397C6.54501 29.5297 6.77501 29.9297 7.17501 30.1697C7.60501 30.4397 8.06501 30.6497 8.54501 30.8297C9.13501 31.0497 9.72501 31.2197 10.335 31.3497C10.785 31.4497 11.235 31.4197 11.675 31.2597C11.875 31.1797 12.065 31.0897 12.255 30.9897C12.635 30.7997 12.975 30.5497 13.255 30.2297C13.605 29.8297 13.995 29.4797 14.475 29.2597C14.745 29.1397 14.965 28.9897 15.135 28.7497C15.615 28.0597 16.195 27.4597 16.775 26.8497C17.255 26.3497 17.665 25.7897 18.115 25.2597C18.145 25.2297 18.175 25.1797 18.175 25.1497C18.145 24.8797 18.325 24.7397 18.545 24.5897ZM20.785 23.4997C21.135 23.8397 21.485 24.0597 21.925 24.1297C22.105 24.1597 22.285 24.2297 22.465 24.2597C22.875 24.3097 23.285 24.4097 23.685 24.3697C24.235 24.3197 24.745 24.3997 25.265 24.5397C25.625 24.6397 26.015 24.6997 26.385 24.7197C26.745 24.7397 27.105 24.6697 27.475 24.6597C28.115 24.6297 28.745 24.5897 29.385 24.5797C29.815 24.5797 30.195 24.4297 30.555 24.2297C31.115 23.9297 31.635 23.5497 32.035 23.0497C32.215 22.8297 32.395 22.6097 32.505 22.3497C32.645 21.9997 32.755 21.6297 32.705 21.2397C32.695 21.1597 32.705 21.0597 32.745 20.9897C32.885 20.7497 32.855 20.4997 32.865 20.2397C32.885 19.9097 32.775 19.5997 32.705 19.2897C32.575 18.6797 32.535 18.0597 32.235 17.4897C32.195 17.4097 32.185 17.2997 32.175 17.1997C32.095 16.6597 31.795 16.2297 31.435 15.8397C31.295 15.6897 31.115 15.5497 30.915 15.6297C30.425 15.8197 29.985 15.5997 29.555 15.4697C28.975 15.2997 28.405 15.2097 27.805 15.1797C27.425 15.1597 27.035 15.2097 26.675 15.0397C26.575 14.9997 26.455 15.0097 26.335 15.0097C25.705 15.0097 25.085 15.0097 24.455 15.0097C24.355 15.0097 24.245 14.9897 24.155 15.0297C23.805 15.1697 23.465 15.3397 23.115 15.4797C22.585 15.6897 22.405 16.0597 22.425 16.6197C22.465 17.4097 22.395 18.1997 22.265 18.9897C22.225 19.2097 22.145 19.4197 22.095 19.6397C21.945 20.1997 21.755 20.7397 21.585 21.2897C21.365 22.0397 21.035 22.7697 20.755 23.5197L20.785 23.4997ZM21.305 18.7097H21.255C21.255 18.4397 21.295 18.1597 21.255 17.8997C21.115 17.1897 20.955 16.4897 20.785 15.7897C20.685 15.3497 20.505 14.9197 20.455 14.4797C20.415 14.1597 20.325 13.8797 20.155 13.6197C20.055 13.4697 19.905 13.3497 19.795 13.1997C19.325 12.6197 18.875 12.0097 18.385 11.4497C18.135 11.1597 17.865 10.8397 17.415 10.8197C16.925 10.7897 16.425 10.7697 15.935 10.7297C15.395 10.6797 15.015 10.8997 14.755 11.3797C14.575 11.6997 14.375 12.0097 14.125 12.2797C13.835 12.6097 13.685 12.9597 13.685 13.3897C13.685 13.7697 13.685 14.1597 13.685 14.5397C13.685 14.9197 13.745 15.2897 13.895 15.6497C14.035 15.9697 14.115 16.3297 13.915 16.6697C13.885 16.7297 13.865 16.7997 13.855 16.8697C13.755 17.9897 14.025 19.0097 14.715 19.8997C15.095 20.3897 15.395 20.9497 15.885 21.3497C16.135 21.5497 16.365 21.7797 16.565 22.0297C16.885 22.4397 17.325 22.6997 17.715 23.0197C17.965 23.2197 18.255 23.3797 18.545 23.5197C18.865 23.6797 19.045 23.6397 19.305 23.3897C19.515 23.1997 19.735 23.0197 19.945 22.8297C20.315 22.4797 20.575 22.0797 20.585 21.5397C20.585 21.3497 20.655 21.1497 20.715 20.9697C20.855 20.5597 21.055 20.1697 21.165 19.7497C21.255 19.4097 21.255 19.0497 21.285 18.6997L21.305 18.7097ZM29.925 30.7897C30.405 30.7897 30.895 30.7897 31.375 30.7897C31.885 30.7897 32.315 30.6197 32.635 30.2097C32.845 29.9297 32.845 29.6997 32.595 29.4597C32.315 29.1797 32.015 28.9197 31.715 28.6597C31.435 28.4197 31.165 28.1797 30.925 27.8997C30.545 27.4497 30.185 26.9697 29.655 26.6597C29.405 26.5097 29.175 26.2997 28.975 26.0897C28.685 25.7797 28.315 25.6697 27.925 25.5997C27.555 25.5297 27.165 25.4697 26.815 25.3197C26.255 25.0897 25.695 25.1097 25.155 25.2697C24.685 25.4097 24.225 25.6197 23.785 25.8397C23.415 26.0197 23.145 26.2997 23.235 26.7797C23.265 26.9597 23.295 27.1397 23.305 27.3197C23.325 27.5297 23.425 27.6697 23.615 27.7397C23.895 27.8397 24.025 28.0697 24.135 28.3297C24.205 28.4897 24.275 28.6397 24.325 28.7997C24.405 29.0797 24.605 29.2997 24.835 29.3997C25.405 29.6397 25.885 30.0897 26.535 30.1197C26.565 30.1197 26.595 30.1297 26.615 30.1397C27.005 30.2997 27.395 30.4597 27.795 30.6097C28.115 30.7397 28.445 30.8097 28.795 30.7897C29.175 30.7697 29.565 30.7897 29.945 30.7897H29.925ZM13.735 34.7897V34.8197C14.245 34.7497 14.745 34.6797 15.245 34.5897C15.465 34.5497 15.685 34.5097 15.905 34.4297C16.095 34.3697 16.255 34.2497 16.435 34.1697C17.175 33.8697 17.845 33.4497 18.515 33.0197C18.705 32.8997 18.855 32.6797 18.995 32.4897C19.185 32.2097 19.365 31.9197 19.505 31.6197C19.685 31.2397 19.845 30.8397 19.965 30.4297C20.025 30.2397 19.995 29.9997 19.965 29.7997C19.925 29.6097 19.935 29.4497 19.965 29.2597C20.025 28.9497 20.055 28.6397 19.845 28.3597C19.745 28.2197 19.675 28.0697 19.595 27.9197C19.415 27.5997 19.175 27.4197 18.775 27.4397C18.205 27.4597 17.695 27.6997 17.205 27.9197C16.425 28.2797 15.765 28.7997 15.265 29.5197C14.985 29.9297 14.675 30.3097 14.465 30.7597C14.315 31.0797 14.155 31.3897 14.085 31.7397C14.045 31.9297 13.965 32.1197 13.875 32.2897C13.745 32.5497 13.615 32.8097 13.405 33.0297C13.215 33.2297 13.115 33.5097 12.985 33.7597C12.725 34.2497 12.975 34.7197 13.525 34.7697C13.595 34.7697 13.665 34.7697 13.735 34.7697V34.7897ZM58.125 43.1097C58.225 43.3997 58.425 43.3997 58.625 43.4097C59.485 43.4497 60.355 43.3197 61.215 43.4897C61.285 43.4997 61.355 43.4897 61.425 43.4897C61.675 43.4697 61.925 43.4297 62.185 43.4197C63.375 43.4197 64.575 43.4197 65.765 43.4197C65.855 43.4197 65.935 43.4197 66.025 43.4197C66.335 43.3897 66.485 43.1797 66.425 42.8697C66.335 42.3397 66.275 41.8097 66.005 41.3297C65.975 41.2797 65.965 41.2197 65.975 41.1697C65.995 40.8597 65.895 40.5797 65.805 40.2997C65.745 40.0997 65.655 39.8897 65.645 39.6897C65.625 39.3997 65.565 39.1297 65.455 38.8697C65.385 38.6997 65.345 38.5197 65.305 38.3397C65.195 37.8997 65.085 37.4697 64.965 37.0297C64.925 36.8897 64.865 36.7697 64.725 36.7297C64.625 36.8597 64.545 36.9797 64.445 37.0697C64.025 37.4697 63.595 37.8597 63.175 38.2597C62.555 38.8497 61.925 39.4497 61.305 40.0397C60.745 40.5797 60.175 41.1097 59.615 41.6497C59.115 42.1297 58.635 42.6297 58.135 43.1297L58.125 43.1097ZM55.565 40.8397C55.675 40.7097 55.745 40.6497 55.785 40.5697C56.065 40.0497 56.335 39.5097 56.625 38.9997C57.005 38.3397 57.415 37.6997 57.805 37.0397C58.045 36.6397 58.275 36.2297 58.505 35.8297C58.585 35.6897 58.665 35.5297 58.765 35.3997C58.985 35.0897 59.165 34.7497 59.275 34.3797C59.295 34.2997 59.375 34.2497 59.425 34.1797C59.485 34.0697 59.555 33.9597 59.595 33.8397C59.675 33.6097 59.615 33.4597 59.415 33.3397C59.335 33.2897 59.235 33.2597 59.135 33.2297C58.665 33.0797 58.185 32.9297 57.715 32.7797C57.325 32.6597 56.935 32.5297 56.545 32.4197C56.215 32.3197 55.885 32.2397 55.565 32.1397C55.025 31.9697 54.485 31.7897 53.945 31.6097C53.865 31.5797 53.785 31.5497 53.705 31.5397C53.355 31.4897 53.215 31.6297 53.285 31.9697C53.365 32.3797 53.455 32.7997 53.555 33.2097C53.765 34.0397 53.995 34.8697 54.195 35.7097C54.385 36.4797 54.565 37.2497 54.745 38.0097C54.895 38.6397 55.025 39.2797 55.185 39.9097C55.265 40.1997 55.415 40.4697 55.555 40.8197L55.565 40.8397ZM30.555 14.3297C30.495 14.1497 30.435 13.9497 30.365 13.7497C30.225 13.3397 30.065 12.9297 29.925 12.5197C29.715 11.9297 29.515 11.3397 29.305 10.7597C29.265 10.6397 29.195 10.5297 29.125 10.4197C28.985 10.2097 28.905 10.1797 28.715 10.3097C28.405 10.5197 28.075 10.7297 27.825 10.9997C27.585 11.2497 27.315 11.4397 27.045 11.6397C26.905 11.7397 26.765 11.8197 26.625 11.9197C26.215 12.1997 25.845 12.5297 25.435 12.8097C25.025 13.0797 24.755 13.4697 24.285 13.7597C24.455 13.8597 24.555 13.9597 24.665 13.9797C24.925 14.0297 25.195 14.0597 25.465 14.0697C26.425 14.1097 27.395 14.1297 28.355 14.1597C28.595 14.1597 28.835 14.2197 29.065 14.2697C29.425 14.3497 29.775 14.4297 30.125 14.5397C30.335 14.5997 30.455 14.5397 30.555 14.3397V14.3297ZM22.155 32.3497C22.325 32.2797 22.465 32.2097 22.615 32.1697C23.185 32.0297 23.395 31.6097 23.485 31.0897C23.505 30.9697 23.485 30.8297 23.535 30.7097C23.705 30.2897 23.615 29.8797 23.525 29.4697C23.495 29.3597 23.495 29.2297 23.435 29.1397C23.025 28.5097 22.565 27.9197 21.905 27.5197C21.755 27.4297 21.555 27.3897 21.385 27.4097C21.095 27.4297 20.715 27.9997 20.785 28.3097C20.855 28.5797 20.855 28.8397 20.785 29.0997C20.765 29.1797 20.785 29.2697 20.785 29.3497C20.835 29.7997 20.895 30.2497 20.925 30.6897C20.955 31.0097 21.015 31.3097 21.235 31.5497C21.425 31.7597 21.625 31.9597 21.835 32.1497C21.925 32.2297 22.045 32.2797 22.145 32.3397L22.155 32.3497ZM18.535 25.9897C18.535 26.4897 18.725 26.6797 19.155 26.6897C19.425 26.6897 19.705 26.6697 19.955 26.7297C20.365 26.8297 20.745 26.7297 21.055 26.5397C21.365 26.3497 21.645 26.2397 22.005 26.2497C22.215 26.2497 22.395 26.0597 22.355 25.8597C22.275 25.4297 22.095 25.0197 21.745 24.7697C21.475 24.5797 21.235 24.3597 20.925 24.2097C20.425 23.9797 20.115 23.9797 19.705 24.3597C19.415 24.6297 19.105 24.8797 18.815 25.1397C18.755 25.1897 18.685 25.2697 18.665 25.3397C18.605 25.5697 18.565 25.8097 18.535 25.9697V25.9897ZM21.835 33.2997C21.745 33.2597 21.675 33.2297 21.595 33.2097C21.295 33.1197 21.025 32.9697 20.795 32.7397C20.515 32.4597 20.295 32.4997 20.075 32.8397C19.805 33.2597 19.455 33.6097 19.055 33.9097C18.895 34.0297 18.725 34.1597 18.625 34.4297C18.935 34.4297 19.205 34.5197 19.445 34.3597C19.645 34.2297 19.855 34.1797 20.075 34.1397C20.185 34.1197 20.315 34.1197 20.405 34.0497C20.665 33.8497 20.985 33.8297 21.285 33.7797C21.575 33.7297 21.725 33.5597 21.845 33.2897L21.835 33.2997Z" fill="white"/>
</g>
<defs>
<clipPath id="clip0_16_8588">
<rect width="70.49" height="68.76" fill="white" transform="translate(0.605011 0.580078)"/>
</clipPath>
</defs>
</svg>
