<svg width="120" height="114" viewBox="0 0 120 114" fill="none" xmlns="http://www.w3.org/2000/svg">
<g clip-path="url(#clip0_12_3528)">
<path d="M60 48.2601L90.61 55.9201C90.27 53.6701 90.02 50.9201 89.85 47.8801C80.04 47.1001 70.24 45.2901 60.67 42.9701C60.35 42.8801 60.18 42.8301 60 42.8301C59.82 42.8301 59.65 42.8801 59.33 42.9701C49.76 45.2901 39.96 47.1001 30.15 47.8801C29.98 50.9201 29.73 53.6701 29.39 55.9201L60 48.2601Z" fill="white"/>
<path d="M20.7 19.1997C33.71 19.8097 46.86 20.1797 60 20.2197C73.14 20.1797 86.29 19.8097 99.3 19.1997C99.35 19.1997 99.4 19.1997 99.45 19.1997C101.25 19.1197 103.07 19.0697 104.86 18.9797L103.36 10.4297C102.07 10.7197 100.75 10.9297 99.45 11.1997C99.4 11.2097 99.35 11.2197 99.3 11.2297C86.5 13.8297 73.25 15.0597 60 15.0197C46.75 15.0597 33.5 13.8297 20.7 11.2297C20.65 11.2197 20.6 11.2097 20.55 11.1997C19.25 10.9297 17.93 10.7297 16.64 10.4297L15.14 18.9797C16.93 19.0697 18.75 19.1197 20.55 19.1997C20.6 19.1997 20.65 19.1997 20.7 19.1997Z" fill="white"/>
<path d="M60 33.54C50.16 34.83 40.27 35.84 30.34 36.19C30.37 37.44 30.4 38.72 30.4 40.03C30.4 41.34 30.37 42.61 30.34 43.86C40.18 41.65 50.06 40.12 60 38.88C69.93 40.12 79.82 41.65 89.66 43.86C89.63 42.61 89.6 41.34 89.6 40.03C89.6 38.72 89.63 37.44 89.66 36.19C79.73 35.84 69.84 34.83 60 33.54Z" fill="white"/>
<path d="M90.52 24.7401C80.32 25.1101 70.15 24.7601 60 24.1201C49.85 24.7601 39.69 25.1101 29.48 24.7401C29.78 26.9201 30.02 29.5101 30.18 32.3701C40.37 30.6701 50.18 29.8901 60 29.9301C69.82 29.8901 79.63 30.6701 89.82 32.3701C89.98 29.5101 90.21 26.9201 90.52 24.7401Z" fill="white"/>
<path d="M20.55 69.6899C20.6 69.6799 20.65 69.6699 20.7 69.6599C34.09 66.5799 47.11 62.7399 60 57.8399C72.89 62.7399 85.91 66.5799 99.3 69.6599C99.35 69.6699 99.4 69.6799 99.45 69.6899C100.87 70.0199 102.3 70.3299 103.73 70.6499L108.48 62.8599C105.47 62.7299 102.46 62.4399 99.45 62.0799C99.4 62.0799 99.35 62.0699 99.3 62.0599C85.89 60.4599 72.59 56.7999 60 52.1699C47.41 56.7999 34.11 60.4599 20.7 62.0599C20.65 62.0599 20.6 62.0699 20.55 62.0799C17.54 62.4399 14.53 62.7199 11.52 62.8599L16.27 70.6499C17.69 70.3299 19.13 70.0199 20.55 69.6899Z" fill="white"/>
<path d="M60 11.38C63.14 11.38 65.69 8.83 65.69 5.69C65.69 2.55 63.14 0 60 0C56.86 0 54.31 2.55 54.31 5.69C54.31 8.83 56.86 11.38 60 11.38Z" fill="white"/>
<path d="M59.86 96.7497V95.2097C59.46 95.2397 58.99 95.2597 58.52 95.2697C58.22 92.2897 58.67 85.4297 58.67 85.4297H58.65C58.57 85.4497 57.46 85.5697 55.41 85.5697C53.38 85.5697 52.28 85.4497 52.18 85.4397H52.16C52.16 85.5697 52.6 92.3197 52.31 95.2797C51.83 95.2597 51.36 95.2397 50.95 95.2197V96.7597C52.08 96.6897 53.69 96.6597 54.63 96.6497C54.63 101.11 54.43 103.17 54.43 103.17H56.37C56.37 103.17 56.17 101.12 56.17 96.6497C57.11 96.6497 58.72 96.6797 59.85 96.7597L59.86 96.7497ZM55.42 86.7097C56.16 86.7097 56.78 86.6897 57.27 86.6697C57.25 87.0497 57.23 87.4897 57.21 87.9797C56.75 88.0097 56.12 88.0397 55.29 88.0397C54.61 88.0397 54.06 88.0197 53.63 87.9997C53.61 87.4997 53.59 87.0497 53.56 86.6697C54.05 86.6897 54.67 86.7097 55.41 86.7097H55.42ZM55.29 90.4597C54.66 90.4597 54.13 90.4397 53.71 90.4197C53.7 89.9697 53.68 89.5197 53.67 89.0897C54.09 89.0697 54.63 89.0497 55.29 89.0497C56.09 89.0497 56.71 89.0797 57.17 89.1097C57.15 89.5297 57.14 89.9697 57.13 90.4097C56.68 90.4397 56.07 90.4597 55.3 90.4597H55.29ZM53.74 91.4997C54.15 91.4797 54.67 91.4597 55.29 91.4597C56.05 91.4597 56.65 91.4797 57.1 91.5097C57.1 91.9497 57.1 92.3897 57.1 92.8097C56.65 92.8397 56.05 92.8597 55.29 92.8597C54.67 92.8597 54.16 92.8397 53.74 92.8197C53.74 92.3897 53.74 91.9397 53.74 91.4897V91.4997ZM53.72 93.9097C54.14 93.8897 54.66 93.8697 55.29 93.8697C56.06 93.8697 56.67 93.8997 57.12 93.9197C57.14 94.4297 57.16 94.8997 57.2 95.2997C56.2 95.3197 55.41 95.3197 55.41 95.3197C55.41 95.3197 54.63 95.3197 53.64 95.2997C53.68 94.8997 53.71 94.4297 53.72 93.9097Z" fill="white"/>
<path d="M53.88 97.9499L52.83 97.4199C52.51 99.0799 51.31 100.71 50.47 101.31L52.46 102.14C53.26 101.42 53.91 99.7199 53.88 97.9599V97.9499Z" fill="white"/>
<path d="M59.59 100.97C59.26 99.6802 58.33 98.1802 57.59 97.4502L56.72 98.0502C57.53 99.2702 57.94 101.23 57.92 101.61L59.59 100.98V100.97Z" fill="white"/>
<path d="M67.75 95.7704C67.9 96.1704 68.03 96.5904 68.09 97.0404L69.85 96.6704C69.35 94.8204 67.7 93.3504 66.84 92.6304L66.19 93.2404C66.38 93.4504 66.78 93.9404 67.17 94.5904C66.86 94.6104 64.86 94.7104 63.23 94.7904C65.16 93.7904 67.47 91.8104 68.44 89.7704L66.85 88.4504C66.61 89.1704 66.25 89.8704 65.82 90.5304C65.42 90.5404 64.33 90.5804 63.31 90.6104C64.17 89.9404 65.11 89.0304 65.57 88.3304L64.44 87.2604C65.42 86.8404 66.35 86.3704 66.97 85.9304L65.97 84.1904C63.98 86.0104 61.39 87.1704 59.92 87.6004L60.43 88.6904C61.11 88.5404 62.64 88.0204 64.13 87.4004C63.62 88.3304 62.4 89.9704 61.35 90.6804C60.72 90.7104 60.19 90.9004 60.19 90.9004L60.75 92.5704C61.06 92.2104 61.63 91.9804 62.27 91.9104C62.85 91.8404 64.7 91.6604 65.02 91.6304C63.64 93.3404 61.95 94.5904 61.04 94.9104H61.03C60.65 94.9104 59.92 94.9904 59.92 94.9904L60.62 96.8604C60.62 96.8604 61.34 96.3804 63.13 96.2204C63.36 96.2004 63.61 96.1804 63.87 96.1504V101.04C63.87 101.44 63.63 101.84 63.08 101.84H61.89C61.89 101.84 62.38 102.14 62.76 102.65C63.15 103.16 63.34 103.57 63.34 103.57C64.42 103.21 65.3 103.01 65.3 101.49V96.0204C66.34 95.9204 67.32 95.8404 67.74 95.8004L67.75 95.7704Z" fill="white"/>
<path d="M59.47 101.46L61.05 102.51C61.8 101.8 62.93 99.0802 63.11 97.5002L62.01 96.9902C61.56 99.0902 59.93 101.21 59.47 101.47V101.46Z" fill="white"/>
<path d="M66.83 97.0703L65.93 97.6903C66.78 98.9603 67.58 100.85 67.77 102.46L69.64 101.92C69.32 100.34 68 98.2603 66.84 97.0703H66.83Z" fill="white"/>
<path d="M90.5 97.8704C92.33 94.6904 92.78 91.4904 93.06 89.4504C93.62 89.4704 94.12 89.5204 94.44 89.5804V87.9204C93.38 88.1504 90.31 88.0804 89.34 88.0804H88.26C88.5 86.9604 88.7 85.7604 88.83 84.4504L87.32 84.1904C87 87.4204 86.16 90.3504 84.87 92.6904V91.8604C84.87 91.8604 84.05 92.0204 82.14 92.0204C82.15 89.8904 82.18 88.7604 82.27 87.9304C84.32 87.9804 85.66 88.2004 85.66 88.2004V86.2504C85.66 86.2504 83.91 86.6504 81.34 86.6504C78.77 86.6504 76.37 86.2504 76.37 86.2504V88.2004C76.37 88.2004 78.19 87.9904 80.36 87.9304C80.52 89.4104 80.49 91.9004 80.49 99.4504C79.91 99.5704 79.25 99.6804 78.58 99.7704C78.58 94.7604 78.73 92.3104 78.91 91.3504H76.83C77.01 92.3204 77.16 94.8104 77.16 99.9004V99.9404C76.51 100 75.9 100.03 75.38 100.02L75.97 102.46C77.21 101.82 79.24 101.14 80.8 100.73C82.36 100.32 84.27 99.9104 85.57 100.01L85.08 97.9904C84.34 98.4304 83.25 98.7904 82.14 99.0704C82.14 96.6604 82.14 94.7804 82.14 93.3004C83.28 93.3004 84.02 93.3604 84.45 93.4004C84.16 93.8604 83.87 94.2904 83.54 94.6904L85.38 95.6304C85.83 94.9204 86.36 93.9304 86.87 92.6704C87.36 94.8204 87.84 96.5204 88.61 98.0404C87.46 99.4604 85.84 100.73 83.57 101.62L85.26 103.47C87.06 102.25 88.42 100.88 89.47 99.4604C90.38 100.76 91.62 101.97 93.43 103.3L95.47 101.8C93.33 100.9 91.72 99.5104 90.51 97.8604L90.5 97.8704ZM81.33 87.9204C81.49 87.9204 81.64 87.9204 81.79 87.9204H80.86C81.02 87.9204 81.17 87.9204 81.33 87.9204ZM87.52 90.8304C87.66 90.3804 87.8 89.9104 87.93 89.4204H89.33C89.78 89.4204 90.7 89.4004 91.66 89.4204C91.44 91.3304 91.07 94.0404 89.63 96.5404C88.61 94.7604 87.94 92.7904 87.52 90.8404V90.8304Z" fill="white"/>
<path d="M0.719971 86.2796H0.789971C3.29997 86.3896 5.91997 86.4497 8.80997 86.4697V87.3196C8.48997 87.3196 8.17997 87.3196 7.86997 87.3096C7.33997 87.3096 6.80997 87.2996 6.30997 87.2796C5.81997 87.2696 5.32997 87.2596 4.86997 87.2396C4.08997 87.2096 3.33997 87.1796 2.61997 87.1396C2.42997 87.1296 2.22997 87.1196 2.03997 87.1096V88.5596C4.50997 88.4096 7.02997 88.3297 9.52997 88.3297H9.68997C12.19 88.3297 14.71 88.4096 17.18 88.5596V87.1096C16.99 87.1196 16.79 87.1296 16.6 87.1396C15.87 87.1796 15.13 87.2096 14.35 87.2396C13.88 87.2596 13.4 87.2696 12.91 87.2796C12.4 87.2896 11.88 87.2996 11.35 87.3096C11.04 87.3096 10.73 87.3096 10.41 87.3196V86.4697C13.3 86.4597 15.92 86.3996 18.43 86.2796H18.49V84.8297V84.6996C18.49 84.6996 18.01 84.7897 17.18 84.8997C16.99 84.9197 16.82 84.9296 16.63 84.9496C15.84 85.0196 15.08 85.0896 14.34 85.1396C14.06 85.1596 13.78 85.1796 13.51 85.1996C12.56 85.2496 11.65 85.2897 10.76 85.2997C10.64 85.2997 10.52 85.2997 10.41 85.2997V84.6396H8.81997V85.2997C8.69997 85.2997 8.57997 85.2997 8.46997 85.2997C7.57997 85.2897 6.66997 85.2496 5.71997 85.1996C5.44997 85.1796 5.16997 85.1596 4.88997 85.1396C4.14997 85.0896 3.37997 85.0296 2.58997 84.9496C2.40997 84.9296 2.23997 84.9197 2.05997 84.8997C1.22997 84.7897 0.759971 84.6996 0.749971 84.6996V84.8196V86.2696L0.719971 86.2796Z" fill="white"/>
<path d="M3.86003 92.3702V92.4002C5.77003 92.3202 7.69003 92.2902 9.60003 92.2902C11.51 92.2902 13.43 92.3202 15.34 92.4002V92.3702C15.23 91.9502 15.17 91.5502 15.14 91.1602C15.12 90.8002 15.13 90.4802 15.14 90.1902C15.19 89.4702 15.32 88.9802 15.33 88.9502C13.42 89.0302 11.51 89.0702 9.59003 89.0602C7.68003 89.0602 5.77003 89.0302 3.85003 88.9502C3.85003 88.9802 3.98003 89.4702 4.04003 90.1902C4.06003 90.4902 4.07003 90.8102 4.04003 91.1602C4.01003 91.5402 3.96003 91.9502 3.84003 92.3702H3.86003ZM5.60003 90.1602C6.94003 90.1202 8.27003 90.1002 9.60003 90.1102C10.93 90.1102 12.27 90.1302 13.61 90.1602V91.1902C12.27 91.2302 10.94 91.2402 9.60003 91.2402C8.26003 91.2402 6.93003 91.2202 5.60003 91.1902V90.1602Z" fill="white"/>
<path d="M2.19003 95.3504C2.19003 95.3504 2.12003 95.2004 2.08003 95.1204C1.95003 94.8904 1.81003 94.5404 1.86003 94.2004C2.31003 94.2004 2.76003 94.2004 3.21003 94.1904C4.88003 94.1704 6.56003 94.1604 8.24003 94.1604C8.68003 94.1604 9.13003 94.1604 9.57003 94.1604C9.59003 94.1604 9.62003 94.1604 9.64003 94.1604C10.08 94.1604 10.53 94.1604 10.97 94.1604C12.65 94.1604 14.33 94.1804 16 94.1904C16.45 94.1904 16.9 94.1904 17.35 94.2004C17.39 94.4704 17.31 94.7904 17.13 95.1204C17.09 95.2004 17.02 95.3404 17.02 95.3404L18.7 95.8604L18.96 95.9404C18.94 95.8804 18.93 95.8404 18.92 95.8004C18.92 95.7704 18.91 95.7304 18.89 95.6904C18.61 94.8004 18.6 94.1204 18.62 93.8004C18.65 93.5004 18.69 93.2404 18.75 93.0104L18.76 92.9604V92.9404V92.9504C18.35 92.9504 17.94 92.9504 17.53 92.9704C15.31 93.0004 13.07 93.0204 10.82 93.0304C10.42 93.0304 10.01 93.0304 9.61003 93.0304C9.21003 93.0304 8.80003 93.0304 8.40003 93.0304C6.16003 93.0304 3.92003 93.0104 1.69003 92.9704C1.28003 92.9704 0.870029 92.9704 0.460029 92.9504V92.9404V92.9704C0.460029 92.9704 0.480029 93.0104 0.480029 93.0204C0.540029 93.2504 0.580029 93.5104 0.610029 93.8104C0.630029 94.1304 0.610029 94.8104 0.340029 95.7004C0.330029 95.7404 0.320029 95.7704 0.310029 95.8104C0.310029 95.8504 0.290029 95.9004 0.280029 95.9404L2.22003 95.3604L2.19003 95.3504Z" fill="white"/>
<path d="M18.41 101.17C15.74 101.31 13.07 101.37 10.4 101.38V100.65C12.4 100.67 14.4 100.72 16.4 100.85V99.2803C14.4 99.4103 12.4 99.4703 10.4 99.4803V98.3303C11.5 98.2003 12.59 98.0203 13.54 97.7303C14.15 98.2703 14.54 99.1803 14.54 99.1803L16.25 98.2003C15.7 97.2803 14.76 96.5903 13.71 96.1303C14.61 96.1703 15.5 96.2103 16.4 96.2603V94.8203C14.14 94.9703 11.87 95.0503 9.59998 95.0503C7.32998 95.0503 5.06998 94.9703 2.79998 94.8203V96.2603C4.30998 96.1603 5.82998 96.1003 7.34998 96.0703C6.05998 96.9803 4.23998 97.1703 2.64998 97.0803L2.66998 97.1203L2.75998 97.3403L3.38998 98.9103C3.38998 98.9103 4.29998 98.6403 5.30998 98.6003C5.41998 98.6003 5.50998 98.6003 5.61998 98.6003C6.61998 98.6003 7.70998 98.5603 8.80998 98.4803V99.4703C6.80998 99.4603 4.79998 99.4003 2.79998 99.2703V100.84C4.79998 100.71 6.79998 100.65 8.80998 100.64V101.37C6.13998 101.37 3.45998 101.3 0.789978 101.16V102.75C3.71998 102.6 6.65998 102.52 9.59998 102.52C12.54 102.52 15.47 102.6 18.41 102.75V101.16V101.17ZM7.41998 97.4803C8.03998 97.0503 8.41998 96.6303 8.77998 96.0603C9.04998 96.0603 9.32998 96.0503 9.59998 96.0503C10.07 96.0503 10.54 96.0703 11 96.0703C11.6 96.2103 12.14 96.4803 12.64 96.8103C10.91 97.2503 9.33998 97.4403 7.41998 97.4903V97.4803Z" fill="white"/>
<path d="M35.78 96.6897C35.78 96.6897 35.8 96.7597 35.83 96.8197C38.07 100.87 43.33 102.34 43.33 102.34L43.66 101.87L44.93 100.07C42.18 99.9897 38.86 98.7397 37.06 96.5597C38.58 96.5697 40.1 96.5297 41.62 96.5597C41.96 96.5597 42.4 96.5997 42.63 96.5897C42.61 96.4097 42.6 96.2297 42.58 96.0497C42.32 93.6897 42.31 91.3097 42.6 88.9597C42.6 88.8897 42.61 88.8297 42.62 88.7797C40.95 88.6497 37.41 88.5097 35.75 88.5197H35.7C35.7 88.2397 35.7 87.7897 35.71 87.2897C38.41 87.2797 41.12 87.1997 43.82 87.0497V85.2397C43.82 85.2397 43.58 85.2897 43.15 85.3497C42.72 85.4197 42.09 85.4997 41.31 85.5897C39.45 85.7297 37.59 85.8597 35.73 85.8797C35.74 85.0897 35.76 84.4297 35.76 84.4297H34.06C34.06 84.9097 34.08 85.3997 34.08 85.8797C32.22 85.8597 30.35 85.7297 28.5 85.5897C26.94 85.4197 26 85.2397 26 85.2397V87.0497C28.7 87.2097 31.41 87.2797 34.11 87.2897C34.11 87.7897 34.12 88.2497 34.12 88.5197H34.06C32.4 88.5197 28.86 88.6497 27.19 88.7797C27.19 88.8297 27.2 88.8997 27.21 88.9597C27.49 91.3097 27.49 93.6997 27.23 96.0497C27.21 96.2297 27.2 96.4097 27.18 96.5897C27.42 96.5897 27.86 96.5597 28.19 96.5597C29.71 96.5197 31.23 96.5597 32.75 96.5597C30.94 98.7397 27.62 99.9897 24.88 100.07L26.15 101.87L26.48 102.34C26.48 102.34 31.74 100.87 33.98 96.8197C34.01 96.7497 34.03 96.6897 34.03 96.6897L33.79 102.97H36.02L35.78 96.6897ZM34.15 93.6997L34.09 95.1197C32.4 95.1197 30.71 95.1497 29.02 95.1197C29.15 93.4597 29.15 91.7997 29.02 90.1397C30.72 89.9797 32.43 89.8597 34.13 89.8297C34.13 90.5397 34.13 91.2397 34.13 91.9497C32.77 91.9297 31.42 91.8797 30.06 91.7497V93.3397C31.42 93.2097 32.78 93.1597 34.14 93.1397C34.14 93.3297 34.14 93.5197 34.14 93.6997H34.15ZM35.67 93.6997C35.67 93.5097 35.67 93.3197 35.67 93.1397C37.03 93.1597 38.39 93.2097 39.75 93.3397V91.7497C38.39 91.8797 37.03 91.9297 35.68 91.9497C35.68 91.2397 35.68 90.5397 35.68 89.8297C37.39 89.8497 39.09 89.9797 40.79 90.1397C40.66 91.7997 40.66 93.4597 40.79 95.1197C39.1 95.1497 37.41 95.1197 35.72 95.1197L35.66 93.6997H35.67Z" fill="white"/>
<path d="M106.21 102.91H108.62C108.62 102.91 108.09 99.1202 108.09 95.6802V92.1602C108.78 90.8802 109.41 89.5202 109.77 88.4102L108.21 87.9502C107.89 89.5002 105.79 93.0402 103.99 94.5502C103.99 94.5302 103.99 94.5002 103.99 94.4802V87.8302H109.47C110.06 87.8302 110.57 87.8402 110.94 87.8402C115.14 87.8402 119.73 87.8302 119.73 87.8302V86.3502V85.8302C118.43 86.2002 115.54 86.4402 111.96 86.4802C112.05 86.0102 112.22 84.5702 111.19 83.7002L109.43 84.2302C110.15 84.7202 110.66 85.9002 110.67 86.4802C106.75 86.4702 103.54 86.2202 102.15 85.8302C102.35 87.5902 102.33 88.0402 102.33 91.0502C102.33 93.8002 102.58 98.6302 100.03 101.32L102.05 102.83C103.28 101.39 103.87 98.7802 103.97 95.4102L105.35 96.2902C105.67 96.0102 106.17 95.3402 106.73 94.4702V95.6902C106.73 99.1302 106.2 102.92 106.2 102.92L106.21 102.91Z" fill="white"/>
<path d="M117.12 91.1498C117.18 89.3098 117.34 88.5098 117.34 88.5098H115.22C115.22 88.5098 115.38 89.3298 115.44 91.2098H113.34C111.22 91.2098 109.27 90.7998 109.27 90.7998V92.9698C109.27 92.9698 111.22 92.5598 113.34 92.5598H115.46C115.46 92.5598 115.46 92.5998 115.46 92.6198V100.42C115.46 100.85 115.16 101.35 114.62 101.24C114.12 101.14 111.9 100.58 111.9 100.58C112.35 101.27 112.61 102.34 112.64 102.99C113.78 103.01 114.84 103.01 115.35 102.98C117.19 102.88 117.1 101.22 117.1 100.85V92.6298C118.6 92.7398 119.75 92.9898 119.75 92.9898V90.8198C119.75 90.8198 118.61 91.0598 117.12 91.1798V91.1498Z" fill="white"/>
<path d="M114.19 98.1698C113.96 97.4598 113.06 95.4998 111.4 94.2598L110.2 95.0898C111.51 96.4198 112.16 98.3198 112.35 99.2698L114.19 98.1698Z" fill="white"/>
<path d="M0.289978 107.84H1.93998V112.21H2.80998V107.84H4.44998V107.18H0.289978V107.84Z" fill="white"/>
<path d="M8.17003 108.76C7.88003 108.54 7.46003 108.43 6.90003 108.43C6.62003 108.43 6.35003 108.45 6.11003 108.49C5.86003 108.53 5.66003 108.59 5.49003 108.65V109.28C5.88003 109.15 6.30003 109.08 6.75003 109.08C7.03003 109.08 7.25003 109.1 7.39003 109.15C7.54003 109.2 7.64003 109.27 7.69003 109.38C7.75003 109.48 7.77003 109.62 7.77003 109.8V109.96H6.55003C6.03003 109.96 5.65003 110.07 5.40003 110.28C5.15003 110.5 5.03003 110.78 5.03003 111.13C5.03003 111.38 5.09003 111.59 5.21003 111.76C5.33003 111.93 5.50003 112.06 5.70003 112.14C5.91003 112.22 6.13003 112.26 6.37003 112.26C6.71003 112.26 7.00003 112.22 7.22003 112.14C7.45003 112.06 7.64003 111.95 7.79003 111.8L7.85003 112.17H8.59003V109.79C8.59003 109.3 8.44003 108.94 8.15003 108.72L8.17003 108.76ZM7.77003 111.2C7.65003 111.35 7.49003 111.46 7.29003 111.55C7.10003 111.64 6.87003 111.68 6.61003 111.68C6.36003 111.68 6.18003 111.64 6.04003 111.56C5.91003 111.48 5.84003 111.34 5.84003 111.15C5.84003 110.96 5.90003 110.81 6.01003 110.71C6.12003 110.61 6.31003 110.57 6.57003 110.57H7.77003V111.22V111.2Z" fill="white"/>
<path d="M11.65 107.03H10.7V107.73H11.65V107.03Z" fill="white"/>
<path d="M10.2 109.15H10.77V112.21H11.64V108.51H10.28L10.2 109.15Z" fill="white"/>
<path d="M14.73 111.51C14.63 111.42 14.58 111.27 14.58 111.06V109.17H15.53L15.59 108.51H14.58V107.4L13.72 107.66V108.51H13.16V109.17H13.72V111.11C13.72 111.47 13.82 111.76 14.02 111.97C14.22 112.18 14.52 112.29 14.93 112.29C15.23 112.29 15.48 112.25 15.69 112.17V111.57C15.53 111.62 15.38 111.65 15.23 111.65C15 111.65 14.83 111.61 14.73 111.52V111.51Z" fill="white"/>
<path d="M19.9 111.21C19.77 111.34 19.61 111.44 19.43 111.52C19.25 111.6 19.05 111.64 18.84 111.64C18.55 111.64 18.34 111.57 18.2 111.44C18.06 111.31 17.99 111.11 17.99 110.83V108.5H17.12V110.83C17.12 111.3 17.24 111.66 17.48 111.91C17.72 112.15 18.07 112.28 18.52 112.28C18.82 112.28 19.09 112.24 19.32 112.15C19.55 112.06 19.76 111.95 19.93 111.82L19.97 112.2H20.76V108.5H19.9V111.21Z" fill="white"/>
<path d="M24.83 108.43C24.54 108.43 24.28 108.48 24.04 108.57C23.8 108.66 23.6 108.77 23.43 108.9L23.39 108.51H22.59V112.21H23.46V109.5C23.59 109.38 23.75 109.27 23.94 109.2C24.13 109.12 24.32 109.08 24.52 109.08C24.85 109.08 25.08 109.14 25.2 109.25C25.32 109.36 25.38 109.56 25.38 109.85V112.21H26.24V109.81C26.24 109.34 26.13 108.99 25.9 108.76C25.68 108.54 25.32 108.42 24.83 108.42V108.43Z" fill="white"/>
<path d="M30 108.46C29.87 108.44 29.74 108.43 29.62 108.43C29.04 108.43 28.6 108.54 28.31 108.75C28.02 108.96 27.87 109.31 27.87 109.78C27.87 110.04 27.92 110.25 28.03 110.44C28.13 110.62 28.3 110.77 28.51 110.87C28.31 110.94 28.17 111.04 28.08 111.17C27.99 111.3 27.94 111.44 27.94 111.59C27.94 112.06 28.28 112.3 28.97 112.3H29.99C30.23 112.3 30.39 112.32 30.48 112.37C30.57 112.41 30.61 112.49 30.61 112.6C30.61 112.75 30.52 112.84 30.35 112.88C30.17 112.92 29.89 112.94 29.51 112.94C29.26 112.94 29 112.92 28.72 112.89C28.44 112.85 28.2 112.8 27.98 112.73V113.39C28.18 113.46 28.42 113.51 28.7 113.54C28.98 113.57 29.27 113.59 29.55 113.59C30.15 113.59 30.62 113.51 30.94 113.35C31.26 113.19 31.42 112.93 31.42 112.57C31.42 112.27 31.32 112.04 31.11 111.88C30.9 111.72 30.61 111.64 30.23 111.64H29.17C29.02 111.64 28.91 111.62 28.85 111.59C28.79 111.56 28.75 111.5 28.75 111.42C28.75 111.31 28.81 111.21 28.94 111.15C29.07 111.08 29.21 111.04 29.37 111.03C29.46 111.04 29.53 111.05 29.61 111.06C29.68 111.06 29.76 111.07 29.85 111.07C30.35 111.07 30.72 110.96 30.96 110.73C31.21 110.5 31.33 110.19 31.33 109.8C31.33 109.65 31.31 109.52 31.26 109.39C31.21 109.27 31.14 109.16 31.04 109.08H31.68L31.7 108.53H30.31C30.24 108.51 30.13 108.5 30 108.48V108.46ZM30.55 109.76C30.55 110.04 30.48 110.23 30.35 110.35C30.21 110.46 29.97 110.52 29.63 110.52C29.29 110.52 29.05 110.46 28.91 110.34C28.77 110.22 28.7 110.03 28.7 109.76C28.7 109.47 28.77 109.27 28.92 109.15C29.07 109.03 29.31 108.97 29.63 108.97C29.98 108.97 30.22 109.03 30.35 109.16C30.49 109.28 30.55 109.49 30.55 109.76Z" fill="white"/>
<path d="M38.4 111.57C37.8 111.57 37.35 111.42 37.06 111.11C36.77 110.81 36.63 110.36 36.63 109.77C36.63 109.14 36.76 108.66 37.03 108.33C37.29 108 37.75 107.83 38.39 107.83C38.66 107.83 38.91 107.85 39.15 107.9C39.39 107.94 39.62 108.01 39.83 108.09V107.35C39.62 107.28 39.39 107.22 39.14 107.17C38.89 107.13 38.62 107.1 38.32 107.1C37.73 107.1 37.25 107.21 36.87 107.42C36.49 107.64 36.21 107.94 36.03 108.34C35.85 108.74 35.75 109.21 35.75 109.76C35.75 110.53 35.97 111.14 36.4 111.59C36.83 112.04 37.48 112.27 38.32 112.27C38.62 112.27 38.89 112.25 39.14 112.22C39.39 112.18 39.62 112.13 39.83 112.06V111.31C39.61 111.39 39.38 111.45 39.13 111.49C38.88 111.53 38.64 111.55 38.39 111.55L38.4 111.57Z" fill="white"/>
<path d="M43.29 108.43C42.61 108.43 42.11 108.6 41.79 108.93C41.47 109.26 41.31 109.74 41.31 110.36C41.31 110.98 41.47 111.46 41.79 111.79C42.11 112.12 42.61 112.29 43.29 112.29C43.97 112.29 44.48 112.12 44.8 111.79C45.12 111.46 45.28 110.98 45.28 110.36C45.28 109.74 45.12 109.26 44.8 108.93C44.48 108.6 43.98 108.43 43.3 108.43H43.29ZM44.14 111.28C43.97 111.47 43.69 111.57 43.29 111.57C42.89 111.57 42.61 111.47 42.45 111.28C42.28 111.09 42.2 110.78 42.2 110.35C42.2 109.92 42.28 109.62 42.45 109.43C42.62 109.24 42.9 109.15 43.29 109.15C43.68 109.15 43.97 109.24 44.14 109.43C44.31 109.62 44.39 109.92 44.39 110.35C44.39 110.78 44.31 111.09 44.14 111.28Z" fill="white"/>
<path d="M49.67 111.21C49.54 111.34 49.38 111.44 49.2 111.52C49.02 111.6 48.82 111.64 48.61 111.64C48.32 111.64 48.11 111.57 47.97 111.44C47.83 111.31 47.76 111.11 47.76 110.83V108.5H46.89V110.83C46.89 111.3 47.01 111.66 47.25 111.91C47.49 112.15 47.84 112.28 48.29 112.28C48.59 112.28 48.86 112.24 49.09 112.15C49.32 112.06 49.53 111.95 49.7 111.82L49.74 112.2H50.53V108.5H49.67V111.21Z" fill="white"/>
<path d="M54.6 108.43C54.31 108.43 54.05 108.48 53.81 108.57C53.57 108.66 53.37 108.77 53.2 108.9L53.16 108.51H52.36V112.21H53.23V109.5C53.36 109.38 53.52 109.27 53.71 109.2C53.9 109.12 54.09 109.08 54.29 109.08C54.62 109.08 54.85 109.14 54.97 109.25C55.09 109.36 55.15 109.56 55.15 109.85V112.21H56.01V109.81C56.01 109.34 55.9 108.99 55.67 108.76C55.45 108.54 55.09 108.42 54.6 108.42V108.43Z" fill="white"/>
<path d="M59.05 111.51C58.95 111.42 58.9 111.27 58.9 111.06V109.17H59.85L59.91 108.51H58.9V107.4L58.04 107.66V108.51H57.48V109.17H58.04V111.11C58.04 111.47 58.14 111.76 58.34 111.97C58.54 112.18 58.84 112.29 59.25 112.29C59.55 112.29 59.8 112.25 60.01 112.17V111.57C59.85 111.62 59.7 111.65 59.55 111.65C59.32 111.65 59.15 111.61 59.05 111.52V111.51Z" fill="white"/>
<path d="M63.08 111.25L61.86 108.5H60.96L62.65 112.15C62.56 112.33 62.47 112.47 62.4 112.58C62.32 112.69 62.23 112.77 62.13 112.83C62.03 112.88 61.9 112.91 61.73 112.91C61.65 112.91 61.57 112.91 61.49 112.89C61.41 112.88 61.33 112.86 61.24 112.83V113.46C61.44 113.53 61.69 113.57 61.98 113.57C62.27 113.57 62.51 113.5 62.71 113.37C62.91 113.23 63.09 113.05 63.24 112.81C63.39 112.57 63.53 112.3 63.67 111.99L65.21 108.5H64.31L63.08 111.25Z" fill="white"/>
<path d="M71.27 110H72.56V111.41C72.28 111.51 71.91 111.57 71.45 111.57C70.87 111.57 70.44 111.42 70.16 111.12C69.88 110.82 69.74 110.38 69.74 109.8C69.74 109.17 69.87 108.68 70.14 108.34C70.4 108 70.86 107.83 71.52 107.83C72.05 107.83 72.54 107.91 72.98 108.06V107.33C72.76 107.26 72.53 107.2 72.28 107.16C72.03 107.12 71.76 107.1 71.45 107.1C70.86 107.1 70.38 107.21 70 107.43C69.62 107.65 69.33 107.96 69.15 108.36C68.96 108.76 68.87 109.24 68.87 109.79C68.87 110.56 69.08 111.16 69.51 111.61C69.94 112.06 70.58 112.28 71.43 112.28C71.91 112.28 72.3 112.24 72.6 112.15C72.91 112.06 73.14 111.97 73.31 111.87V109.45H71.28V110H71.27Z" fill="white"/>
<path d="M76.76 108.43C76.08 108.43 75.58 108.6 75.26 108.93C74.94 109.26 74.78 109.74 74.78 110.36C74.78 110.98 74.94 111.46 75.26 111.79C75.58 112.12 76.08 112.29 76.76 112.29C77.44 112.29 77.95 112.12 78.27 111.79C78.59 111.46 78.75 110.98 78.75 110.36C78.75 109.74 78.59 109.26 78.27 108.93C77.95 108.6 77.45 108.43 76.77 108.43H76.76ZM77.61 111.28C77.44 111.47 77.16 111.57 76.76 111.57C76.36 111.57 76.08 111.47 75.92 111.28C75.75 111.09 75.67 110.78 75.67 110.35C75.67 109.92 75.75 109.62 75.92 109.43C76.09 109.24 76.37 109.15 76.76 109.15C77.15 109.15 77.44 109.24 77.61 109.43C77.78 109.62 77.86 109.92 77.86 110.35C77.86 110.78 77.78 111.09 77.61 111.28Z" fill="white"/>
<path d="M81.75 111.38L80.69 108.51H79.78L81.28 112.21H82.22L83.71 108.51H82.81L81.75 111.38Z" fill="white"/>
<path d="M86.63 108.43C86 108.43 85.53 108.6 85.22 108.95C84.91 109.29 84.76 109.76 84.76 110.36C84.76 111.02 84.94 111.5 85.3 111.82C85.66 112.14 86.18 112.3 86.84 112.3C87.09 112.3 87.33 112.28 87.55 112.25C87.77 112.21 87.97 112.16 88.14 112.09V111.47C87.99 111.53 87.81 111.57 87.61 111.61C87.41 111.65 87.21 111.66 87.02 111.66C86.56 111.66 86.22 111.59 86 111.46C85.78 111.32 85.64 111.08 85.6 110.72H88.38V110.03C88.38 109.57 88.23 109.19 87.94 108.89C87.65 108.6 87.22 108.45 86.64 108.45L86.63 108.43ZM87.6 110.14H85.59C85.59 109.77 85.67 109.5 85.82 109.33C85.97 109.16 86.25 109.07 86.66 109.07C87 109.07 87.24 109.14 87.39 109.28C87.53 109.42 87.61 109.62 87.61 109.88V110.14H87.6Z" fill="white"/>
<path d="M90.86 108.94L90.81 108.51H90.01V112.21H90.88V109.54C90.99 109.48 91.12 109.42 91.27 109.36C91.42 109.3 91.59 109.25 91.76 109.2C91.93 109.15 92.09 109.11 92.24 109.09V108.44C91.99 108.48 91.75 108.54 91.5 108.64C91.25 108.73 91.03 108.84 90.85 108.95L90.86 108.94Z" fill="white"/>
<path d="M95.92 108.43C95.63 108.43 95.37 108.48 95.13 108.57C94.89 108.66 94.69 108.77 94.52 108.9L94.48 108.51H93.68V112.21H94.55V109.5C94.68 109.38 94.84 109.27 95.03 109.2C95.22 109.12 95.41 109.08 95.61 109.08C95.94 109.08 96.17 109.14 96.29 109.25C96.41 109.36 96.47 109.56 96.47 109.85V112.21H97.33V109.81C97.33 109.34 97.22 108.99 96.99 108.76C96.77 108.54 96.41 108.42 95.92 108.42V108.43Z" fill="white"/>
<path d="M103.69 108.43C103.37 108.43 103.09 108.48 102.87 108.57C102.64 108.66 102.44 108.78 102.26 108.92C102.18 108.77 102.06 108.65 101.91 108.56C101.76 108.47 101.55 108.43 101.27 108.43C101.01 108.43 100.77 108.47 100.55 108.55C100.33 108.63 100.12 108.75 99.93 108.89L99.89 108.5H99.09V112.2H99.95V109.51C100.08 109.39 100.23 109.29 100.4 109.2C100.57 109.11 100.75 109.07 100.93 109.07C101.2 109.07 101.38 109.13 101.47 109.26C101.57 109.38 101.61 109.58 101.61 109.85V112.2H102.42V109.83C102.42 109.76 102.42 109.69 102.42 109.63C102.42 109.57 102.4 109.51 102.39 109.45C102.51 109.32 102.65 109.23 102.81 109.17C102.97 109.11 103.14 109.08 103.33 109.08C103.61 109.08 103.81 109.14 103.93 109.25C104.05 109.36 104.11 109.56 104.11 109.85V112.21H104.97V109.77C104.97 109.32 104.87 108.98 104.66 108.76C104.45 108.54 104.13 108.43 103.69 108.43Z" fill="white"/>
<path d="M108.37 108.43C107.74 108.43 107.27 108.6 106.96 108.95C106.65 109.29 106.5 109.76 106.5 110.36C106.5 111.02 106.68 111.5 107.04 111.82C107.4 112.14 107.92 112.3 108.58 112.3C108.83 112.3 109.07 112.28 109.29 112.25C109.51 112.21 109.71 112.16 109.88 112.09V111.47C109.73 111.53 109.55 111.57 109.35 111.61C109.15 111.65 108.95 111.66 108.76 111.66C108.3 111.66 107.96 111.59 107.74 111.46C107.52 111.32 107.38 111.08 107.34 110.72H110.12V110.03C110.12 109.57 109.97 109.19 109.68 108.89C109.39 108.6 108.96 108.45 108.38 108.45L108.37 108.43ZM109.34 110.14H107.33C107.33 109.77 107.41 109.5 107.56 109.33C107.71 109.16 107.99 109.07 108.4 109.07C108.74 109.07 108.98 109.14 109.13 109.28C109.27 109.42 109.35 109.62 109.35 109.88V110.14H109.34Z" fill="white"/>
<path d="M113.99 108.43C113.7 108.43 113.44 108.48 113.2 108.57C112.96 108.66 112.76 108.77 112.59 108.9L112.55 108.51H111.75V112.21H112.62V109.5C112.75 109.38 112.91 109.27 113.1 109.2C113.29 109.12 113.48 109.08 113.68 109.08C114.01 109.08 114.24 109.14 114.36 109.25C114.48 109.36 114.54 109.56 114.54 109.85V112.21H115.4V109.81C115.4 109.34 115.29 108.99 115.06 108.76C114.84 108.54 114.48 108.42 113.99 108.42V108.43Z" fill="white"/>
<path d="M118.42 111.51C118.32 111.42 118.27 111.27 118.27 111.06V109.17H119.22L119.28 108.51H118.27V107.4L117.41 107.66V108.51H116.85V109.17H117.41V111.11C117.41 111.47 117.51 111.76 117.71 111.97C117.91 112.18 118.21 112.29 118.62 112.29C118.92 112.29 119.17 112.25 119.38 112.17V111.57C119.22 111.62 119.07 111.65 118.92 111.65C118.69 111.65 118.52 111.61 118.42 111.52V111.51Z" fill="white"/>
</g>
<defs>
<clipPath id="clip0_12_3528">
<rect width="119.5" height="113.58" fill="white" transform="translate(0.25)"/>
</clipPath>
</defs>
</svg>
