<svg width="182" height="62" viewBox="0 0 182 62" fill="none" xmlns="http://www.w3.org/2000/svg">
<g clip-path="url(#clip0_7_12023)">
<path d="M12.68 61.685C14.9499 61.685 16.79 59.8449 16.79 57.575C16.79 55.3051 14.9499 53.465 12.68 53.465C10.4101 53.465 8.57001 55.3051 8.57001 57.575C8.57001 59.8449 10.4101 61.685 12.68 61.685Z" fill="#F4E342"/>
<path d="M12.63 50.945C12.55 50.945 12.47 50.945 12.4 50.935C12.38 50.935 12.36 50.935 12.34 50.935C12.31 50.935 12.29 50.935 12.26 50.935C10.28 50.765 8.57001 49.335 7.81001 47.285C7.81001 47.275 7.80001 47.265 7.79001 47.255C7.65001 46.885 7.55001 46.485 7.47001 46.085C7.45001 46.035 7.45001 45.985 7.44001 45.925L6.32001 38.565C6.91001 39.315 7.47001 39.945 7.85001 40.295C8.24001 40.715 8.69001 41.045 9.17001 41.305L9.69001 47.365C9.86001 49.395 11.12 50.925 12.63 50.955V50.945Z" fill="#84B9DE"/>
<path d="M9.17005 41.295C8.69005 41.035 8.24005 40.705 7.85005 40.285C7.47005 39.935 6.91005 39.305 6.32005 38.555L5.24005 31.475L4.43005 26.165C5.20005 27.125 5.92005 27.935 6.41005 28.385C6.93005 28.945 7.53005 29.385 8.19005 29.735L8.26005 30.575L9.18005 41.305L9.17005 41.295Z" fill="#5D97C4"/>
<path d="M6.67005 6.415C6.45005 7.455 6.37005 8.575 6.47005 9.725L6.98005 15.645L7.75005 24.635L8.19005 29.735C7.53005 29.385 6.94005 28.945 6.41005 28.385C5.92005 27.935 5.19005 27.125 4.43005 26.165L3.79005 21.995L3.00005 16.835L1.80005 8.965C1.79005 8.895 1.78005 8.825 1.78005 8.755C1.75005 8.555 1.74005 8.355 1.74005 8.155C1.74005 7.145 2.03005 6.195 2.52005 5.425L2.54005 5.405C2.73005 5.145 2.93005 4.895 3.15005 4.655C5.40005 2.065 8.68005 0.415001 12.3601 0.325001C10.3401 0.465001 8.59005 1.885 7.53005 3.985C7.16005 4.725 6.86005 5.545 6.68005 6.415H6.67005Z" fill="#2E59A6"/>
<path d="M19.0901 38.275L17.9501 45.705L17.9201 45.925C17.8901 46.125 17.8501 46.325 17.8001 46.515C17.5101 47.725 16.9001 48.765 16.1001 49.535C15.1701 50.435 13.9701 50.955 12.6801 50.955C12.7801 50.955 12.8701 50.955 12.9601 50.935C14.3601 50.755 15.5001 49.275 15.6701 47.365L16.2001 41.205C16.6101 40.945 17.0001 40.625 17.3701 40.255C17.9901 39.665 18.5701 38.985 19.0901 38.285V38.275Z" fill="#84B9DE"/>
<path d="M20.97 25.935L20.12 31.495L19.08 38.275C18.55 38.985 17.98 39.665 17.36 40.245C16.99 40.615 16.6 40.935 16.19 41.195L17.1 30.625L17.19 29.645C17.78 29.285 18.33 28.845 18.86 28.315C19.62 27.595 20.32 26.785 20.97 25.925V25.935Z" fill="#5D97C4"/>
<path d="M23.59 8.735C23.59 8.805 23.58 8.885 23.57 8.955L22.37 16.815L21.58 21.985L20.98 25.935C20.33 26.795 19.63 27.605 18.87 28.325C18.34 28.855 17.79 29.295 17.2 29.655L17.63 24.635L18.4 15.725L18.91 9.735C18.94 9.405 18.95 9.075 18.95 8.755C18.95 7.955 18.86 7.175 18.71 6.435C18.53 5.555 18.23 4.735 17.86 3.995C16.78 1.895 15.03 0.465001 13.01 0.325001C16.68 0.415001 19.97 2.065 22.22 4.655C22.44 4.895 22.64 5.145 22.83 5.405C22.83 5.415 22.84 5.425 22.85 5.425C23.44 6.345 23.74 7.515 23.59 8.735Z" fill="#2E59A6"/>
<path d="M7.79001 47.245C6.20001 43.945 4.87001 39.235 3.76001 34.355C4.21001 35.625 5.30001 37.265 6.32001 38.545L7.44001 45.905C7.45001 45.955 7.46001 46.015 7.47001 46.065C7.54001 46.475 7.65001 46.865 7.79001 47.235V47.245Z" fill="#ADD7EF"/>
<path d="M4.43003 26.155C3.04003 24.385 1.51003 22.095 0.97003 20.405C0.89003 20.015 0.83003 19.645 0.77003 19.285C0.57003 18.025 0.44003 16.875 0.40003 15.845V15.825C0.28003 15.125 0.22003 14.405 0.20003 13.655C0.13003 10.595 1.00003 7.745 2.53003 5.435C2.04003 6.205 1.75003 7.155 1.75003 8.165C1.75003 8.365 1.76003 8.565 1.79003 8.765C1.79003 8.835 1.80003 8.905 1.81003 8.975L3.01003 16.845L3.80003 22.005L4.44003 26.175L4.43003 26.155Z" fill="#5D97C4"/>
<path d="M6.32002 38.555C5.30002 37.265 4.21002 35.625 3.76002 34.365C3.69002 34.065 3.62002 33.765 3.56002 33.465C2.53002 28.875 1.69002 24.215 0.980022 20.505C0.980022 20.465 0.970022 20.435 0.960022 20.405C1.49002 22.095 3.02002 24.395 4.42002 26.155L5.23002 31.465L6.31002 38.545L6.32002 38.555Z" fill="#84B9DE"/>
<path d="M25.17 13.655C25.15 14.435 25.08 15.205 24.95 15.945C24.89 17.025 24.74 18.225 24.51 19.545C24.46 19.845 24.4 20.145 24.34 20.455C24.19 20.925 23.94 21.415 23.61 21.935C22.83 23.225 21.96 24.625 20.97 25.935L21.57 21.985L22.36 16.815L23.56 8.955C23.57 8.875 23.58 8.805 23.58 8.735C23.72 7.515 23.42 6.345 22.84 5.425C24.37 7.745 25.24 10.595 25.17 13.645V13.655Z" fill="#5D97C4"/>
<path d="M24.34 20.455C24.34 20.455 24.34 20.495 24.33 20.505C23.61 24.065 22.75 28.805 21.68 33.515C21.61 33.835 21.53 34.155 21.46 34.465C21.35 34.755 21.19 35.045 20.99 35.355C20.42 36.305 19.79 37.315 19.08 38.265L20.12 31.485L20.97 25.925C21.96 24.625 22.83 23.215 23.61 21.925C23.94 21.405 24.19 20.905 24.34 20.445V20.455Z" fill="#84B9DE"/>
<path d="M21.47 34.465C20.44 38.915 19.23 43.275 17.8 46.495C17.85 46.305 17.89 46.105 17.92 45.905L17.95 45.685L19.09 38.255C19.8 37.295 20.44 36.285 21 35.345C21.2 35.035 21.35 34.745 21.47 34.455V34.465Z" fill="#ADD7EF"/>
<path d="M3.15004 4.655C2.93004 4.895 2.73004 5.145 2.54004 5.405C2.71004 5.135 2.92004 4.875 3.15004 4.655Z" fill="#5D97C4"/>
<path d="M22.83 5.405C22.64 5.145 22.44 4.895 22.22 4.655C22.45 4.875 22.65 5.135 22.83 5.405Z" fill="#5D97C4"/>
<path d="M16.2 41.195L15.67 47.355C15.51 49.275 14.37 50.755 12.96 50.925C12.87 50.935 12.78 50.945 12.68 50.945H12.63C11.13 50.915 9.86004 49.385 9.69004 47.355L9.17004 41.295C10.59 42.065 12.34 42.215 13.88 42.005C14.74 41.915 15.5 41.635 16.19 41.195H16.2Z" fill="#5D97C4"/>
<path d="M18.94 8.745C18.94 9.075 18.92 9.395 18.9 9.725L18.39 15.715L17.62 24.625L17.19 29.645C16.64 29.975 16.07 30.225 15.45 30.405C15.08 30.505 14.69 30.585 14.29 30.625C12.84 30.825 11.25 30.775 9.78005 30.355C9.22005 30.195 8.68005 29.995 8.18005 29.715L7.74005 24.615L6.97005 15.625L6.46005 9.705C6.36005 8.555 6.44005 7.435 6.66005 6.395C6.84005 5.525 7.14005 4.705 7.51005 3.965C8.59005 1.895 10.34 0.465001 12.36 0.325001C12.47 0.325001 12.58 0.315001 12.69 0.315001C12.8 0.315001 12.91 0.315001 13.02 0.325001C15.04 0.465001 16.79 1.885 17.85 3.985C18.22 4.725 18.52 5.545 18.7 6.425C18.86 7.165 18.94 7.945 18.94 8.745Z" fill="#003893"/>
<path d="M17.1901 29.655L17.1001 30.635L16.1901 41.205C15.4901 41.645 14.7301 41.925 13.8801 42.015C12.3401 42.225 10.5901 42.075 9.17005 41.305L8.25005 30.575L8.18005 29.735C8.69005 30.005 9.22005 30.215 9.78005 30.375C11.2501 30.795 12.8401 30.845 14.2901 30.645C14.6901 30.605 15.0801 30.525 15.4501 30.425C16.0601 30.255 16.6401 30.005 17.1901 29.665V29.655Z" fill="#2E59A6"/>
<g style="mix-blend-mode:multiply" opacity="0.46">
<path d="M0.970044 20.405C0.830044 19.985 0.760044 19.605 0.770044 19.285C0.830044 19.645 0.890044 20.025 0.970044 20.405Z" fill="#003893"/>
</g>
<g style="mix-blend-mode:multiply" opacity="0.46">
<path d="M24.51 19.545C24.5 19.835 24.44 20.145 24.34 20.455C24.4 20.135 24.45 19.845 24.51 19.545Z" fill="#003893"/>
</g>
<g style="mix-blend-mode:multiply" opacity="0.46">
<path d="M3.76006 34.365C3.64006 34.035 3.57006 33.735 3.56006 33.465C3.63006 33.765 3.69006 34.065 3.76006 34.365Z" fill="#003893"/>
</g>
<g style="mix-blend-mode:multiply" opacity="0.46">
<path d="M21.68 33.515C21.67 33.815 21.6 34.135 21.46 34.465C21.53 34.155 21.61 33.835 21.68 33.515Z" fill="#003893"/>
</g>
<path d="M85.26 14.075H83.85V16.125H72.63V17.535H83.85V19.145H74.71C73.56 19.145 72.63 20.075 72.63 21.225V28.235H83.42L72.63 34.645H75.14L83.85 29.645V34.645H85.26V29.645L93.97 34.645H96.48L85.69 28.235H96.48V21.225C96.48 20.075 95.55 19.145 94.4 19.145H85.26V17.535H96.48V16.125H85.26V14.075ZM74.71 20.555H83.85V22.995H74.04V21.235C74.04 20.865 74.34 20.555 74.72 20.555H74.71ZM74.03 24.395H83.84V26.835H74.03V24.395ZM85.26 26.835V24.395H95.07V26.835H85.26ZM94.39 20.555C94.76 20.555 95.07 20.855 95.07 21.235V22.995H85.26V20.555H94.4H94.39Z" fill="#717071"/>
<path d="M176.46 19.695H161.97C160.81 19.695 159.86 20.645 159.86 21.805V26.455H178.57V21.805C178.57 20.645 177.62 19.695 176.46 19.695ZM169.92 21.095H173.59L172.27 25.045H169.92V21.095ZM168.51 25.045H166.16L164.84 21.095H168.51V25.045ZM161.27 21.805C161.27 21.415 161.59 21.105 161.97 21.105H163.36L164.68 25.055H161.27V21.805ZM177.16 25.045H173.75L175.07 21.095H176.46C176.85 21.095 177.16 21.415 177.16 21.795V25.045Z" fill="#717071"/>
<path d="M176.65 27.285H161.77C160.71 27.285 159.85 28.225 159.85 29.365V34.645H178.56V29.365C178.56 28.215 177.7 27.285 176.64 27.285H176.65ZM161.78 28.815H176.66C176.94 28.815 177.17 29.065 177.17 29.365V30.195H161.28V29.365C161.28 29.065 161.51 28.815 161.79 28.815H161.78ZM161.27 33.115V31.735H177.16V33.115H161.27Z" fill="#717071"/>
<path d="M174.23 17.145H164.2V18.555H174.23V17.145Z" fill="#717071"/>
<path d="M172.15 14.215C170.43 13.315 168.38 13.315 166.66 14.215L157.23 19.265V20.865L167.32 15.455C168.63 14.765 170.19 14.765 171.5 15.455L181.81 20.865V19.275L172.15 14.205V14.215Z" fill="#717071"/>
<path d="M104.35 14.075H102.95V17.795H101.01V19.195H102.95V34.645H104.35V19.195H106.28V17.795H104.35V14.075Z" fill="#717071"/>
<path d="M115.4 18.495H109.39C108.26 18.495 107.33 19.415 107.33 20.555V26.755H108.74V25.405H115.4V26.755H116.81V25.405H123.58V26.755H124.99V20.555C124.99 19.425 124.07 18.495 122.93 18.495H116.82V17.055H123.03C124.11 17.055 124.99 16.175 124.99 15.095V14.065H123.58V15.095C123.58 15.405 123.33 15.645 123.03 15.645H116.82V14.075H115.41V15.645H107.08V17.055H115.41V18.495H115.4ZM109.39 19.905H115.4V21.255H108.74V20.555C108.74 20.195 109.03 19.905 109.39 19.905ZM108.74 24.005V22.655H115.4V24.005H108.74ZM116.81 24.005V22.655H123.58V24.005H116.81ZM122.92 19.905C123.28 19.905 123.57 20.195 123.57 20.555V21.255H116.8V19.905H122.91H122.92Z" fill="#717071"/>
<path d="M123.28 27.255H121.87V28.415H107.07V29.825H121.87V31.865C121.87 32.625 121.25 33.245 120.49 33.245H116.11V34.655H120.49C122.03 34.655 123.28 33.405 123.28 31.865V29.825H125.09V28.415H123.28V27.255Z" fill="#717071"/>
<path d="M110.44 30.555L111.84 33.915H113.36L111.97 30.555H110.44Z" fill="#717071"/>
<path d="M64.09 24.175H48.01C46.13 24.175 44.6 25.705 44.6 27.585V34.645H67.51V27.585C67.51 25.705 65.98 24.175 64.1 24.175H64.09ZM66.1 33.245H46.01V27.595C46.01 26.485 46.91 25.585 48.02 25.585H64.1C65.21 25.585 66.11 26.485 66.11 27.595V33.245H66.1Z" fill="#717071"/>
<path d="M65.74 18.105L64.59 18.915L66.39 21.455H45.68L50.12 14.065H48.48L44.36 20.915C44.12 21.305 44.12 21.775 44.34 22.175C44.58 22.595 45.04 22.855 45.54 22.855H66.55C67.07 22.855 67.54 22.575 67.77 22.135C67.98 21.725 67.95 21.225 67.68 20.835L65.74 18.095V18.105Z" fill="#717071"/>
<path d="M152.67 31.055H130.45V25.205C130.45 24.065 131.38 23.135 132.52 23.135H150.59C151.73 23.135 152.66 24.065 152.66 25.205V31.055H152.67ZM131.84 29.665H151.28V25.205C151.28 24.825 150.97 24.525 150.6 24.525H132.53C132.15 24.525 131.85 24.835 131.85 25.205V29.665H131.84Z" fill="#717071"/>
<path d="M151.8 25.305H131.26V26.695H151.8V25.305Z" fill="#717071"/>
<path d="M151.8 27.485H131.26V28.875H151.8V27.485Z" fill="#717071"/>
<path d="M152.67 34.645H146.92C145.83 34.645 144.95 33.715 144.95 32.585V30.695H146.34V32.585C146.34 32.925 146.6 33.195 146.92 33.195H152.67V34.655V34.645Z" fill="#717071"/>
<path d="M136.64 30.145L134.77 34.645H133.27L135.13 30.145H136.64Z" fill="#717071"/>
<path d="M140.63 22.225H131.24C130.41 22.225 129.74 21.555 129.74 20.725V15.575C129.74 14.745 130.41 14.075 131.24 14.075H140.63V15.465H131.24C131.18 15.465 131.13 15.515 131.13 15.575V20.725C131.13 20.785 131.18 20.835 131.24 20.835H140.63V22.225Z" fill="#717071"/>
<path d="M140.63 20.015H131.11V18.625H139.23V17.765C139.23 17.705 139.18 17.655 139.12 17.655H131.11V16.265H139.12C139.95 16.265 140.62 16.935 140.62 17.765V20.015H140.63Z" fill="#717071"/>
<path d="M136.54 15.405H135.15V16.325H136.54V15.405Z" fill="#717071"/>
<path d="M136.54 19.905H135.15V21.095H136.54V19.905Z" fill="#717071"/>
<path d="M153.36 22.225H141.91V19.215C141.91 18.375 142.6 17.685 143.44 17.685H151.84C152.68 17.685 153.37 18.375 153.37 19.215V22.225H153.36ZM143.29 20.835H151.96V19.215C151.96 19.135 151.9 19.075 151.82 19.075H143.42C143.34 19.075 143.28 19.135 143.28 19.215V20.835H143.29Z" fill="#717071"/>
<path d="M146.65 18.485H145.26V21.525H146.65V18.485Z" fill="#717071"/>
<path d="M150 18.485H148.61V21.525H150V18.485Z" fill="#717071"/>
<path d="M143.43 15.415C143.33 15.415 143.28 15.365 143.25 15.325C143.22 15.295 143.18 15.225 143.2 15.135L143.43 14.065H142.01L141.84 14.835C141.74 15.315 141.85 15.815 142.16 16.195C142.47 16.575 142.93 16.795 143.42 16.795L153.35 16.825V15.435L143.42 15.405L143.43 15.415Z" fill="#717071"/>
<path d="M44.1801 50.735V49.835C44.4301 49.295 44.7601 48.815 45.1601 48.385C45.5701 47.955 46.0101 47.525 46.4901 47.105C46.8501 46.785 47.1501 46.515 47.3801 46.305C47.6101 46.095 47.7901 45.905 47.9201 45.735C48.0501 45.565 48.1401 45.395 48.2001 45.225C48.2601 45.045 48.2801 44.835 48.2801 44.575C48.2801 43.715 47.7301 43.285 46.6501 43.285C46.2801 43.285 45.9101 43.325 45.5501 43.405C45.1901 43.485 44.8401 43.585 44.5001 43.715V42.065C44.8501 41.945 45.2601 41.855 45.7301 41.785C46.2001 41.715 46.6401 41.685 47.0701 41.685C48.1001 41.685 48.8801 41.945 49.4001 42.455C49.9201 42.965 50.1801 43.665 50.1801 44.535C50.1801 45.145 50.0301 45.665 49.7301 46.095C49.4301 46.525 49.0401 46.945 48.5601 47.365C48.1801 47.695 47.8201 48.015 47.4801 48.325C47.1401 48.635 46.8501 48.965 46.6201 49.305H50.2601V50.745H44.1801V50.735Z" fill="#717071"/>
<path d="M56.01 51.095C55.03 51.095 54.25 50.905 53.65 50.545C53.06 50.175 52.63 49.635 52.37 48.935C52.11 48.225 51.98 47.385 51.98 46.395C51.98 45.405 52.11 44.545 52.37 43.845C52.63 43.145 53.06 42.605 53.65 42.235C54.24 41.865 55.03 41.685 56.01 41.685C56.99 41.685 57.77 41.875 58.37 42.235C58.96 42.605 59.39 43.145 59.65 43.845C59.91 44.545 60.04 45.395 60.04 46.395C60.04 47.395 59.91 48.225 59.65 48.935C59.39 49.645 58.96 50.185 58.37 50.545C57.78 50.915 56.99 51.095 56.01 51.095ZM56.01 49.485C56.81 49.485 57.37 49.215 57.68 48.685C57.99 48.145 58.14 47.385 58.14 46.385C58.14 45.385 57.99 44.625 57.68 44.085C57.37 43.545 56.81 43.285 56.01 43.285C55.21 43.285 54.65 43.555 54.34 44.085C54.03 44.625 53.88 45.385 53.88 46.385C53.88 47.385 54.03 48.145 54.34 48.685C54.65 49.225 55.21 49.485 56.01 49.485Z" fill="#717071"/>
<path d="M61.76 50.735V49.835C62.01 49.295 62.34 48.815 62.74 48.385C63.15 47.955 63.59 47.525 64.07 47.105C64.43 46.785 64.73 46.515 64.96 46.305C65.19 46.095 65.37 45.905 65.5 45.735C65.63 45.565 65.72 45.395 65.78 45.225C65.84 45.045 65.86 44.835 65.86 44.575C65.86 43.715 65.31 43.285 64.23 43.285C63.86 43.285 63.49 43.325 63.13 43.405C62.77 43.485 62.42 43.585 62.08 43.715V42.065C62.43 41.945 62.84 41.855 63.31 41.785C63.78 41.715 64.22 41.685 64.65 41.685C65.68 41.685 66.46 41.945 66.98 42.455C67.5 42.965 67.76 43.665 67.76 44.535C67.76 45.145 67.61 45.665 67.31 46.095C67.01 46.525 66.62 46.945 66.14 47.365C65.76 47.695 65.4 48.015 65.06 48.325C64.72 48.635 64.43 48.965 64.2 49.305H67.84V50.745H61.76V50.735Z" fill="#717071"/>
<path d="M73.0601 50.875C71.9001 50.875 71.0201 50.585 70.4401 50.015C69.8501 49.445 69.5601 48.565 69.5601 47.365V45.455C69.5601 44.715 69.7201 44.065 70.0401 43.495C70.3601 42.925 70.8101 42.485 71.4001 42.155C71.9901 41.835 72.6901 41.665 73.4901 41.665C73.9501 41.665 74.3501 41.695 74.7001 41.745C75.0501 41.795 75.3701 41.885 75.6801 41.995V43.605C75.1001 43.375 74.4101 43.255 73.6201 43.255C72.8301 43.255 72.2901 43.425 71.9001 43.755C71.5101 44.085 71.3201 44.525 71.3201 45.075V45.505C71.6201 45.295 71.9601 45.135 72.3601 45.025C72.7601 44.915 73.1201 44.865 73.4501 44.865C74.5101 44.865 75.2901 45.125 75.7901 45.645C76.2901 46.165 76.5401 46.895 76.5401 47.835C76.5401 48.425 76.4201 48.945 76.1701 49.405C75.9301 49.865 75.5501 50.225 75.0401 50.475C74.5301 50.735 73.8701 50.865 73.0601 50.865V50.875ZM73.0801 49.485C73.6801 49.485 74.1301 49.345 74.4201 49.055C74.7201 48.765 74.8601 48.385 74.8601 47.905C74.8601 47.385 74.7301 46.995 74.4701 46.715C74.2101 46.435 73.7501 46.295 73.1001 46.295C72.8001 46.295 72.4901 46.355 72.1701 46.465C71.8601 46.575 71.5701 46.715 71.3101 46.895V47.745C71.3101 48.905 71.9001 49.495 73.0701 49.495L73.0801 49.485Z" fill="#717071"/>
<path d="M84.46 50.735V43.255H81.72V41.815H89.06V43.255H86.33V50.735H84.46Z" fill="#717071"/>
<path d="M89.33 50.735L92.74 41.815H94.79L98.18 50.735H96.24L95.39 48.585H92.11L91.28 50.735H89.33ZM92.39 47.145H95.12L93.75 43.555L92.39 47.145Z" fill="#717071"/>
<path d="M100.17 50.735V41.815H102.04V50.735H100.17Z" fill="#717071"/>
<path d="M106.5 50.735V43.255H103.76V41.815H111.1V43.255H108.37V50.735H106.5Z" fill="#717071"/>
<path d="M116.74 50.875C115.51 50.875 114.54 50.575 113.82 49.985C113.1 49.385 112.75 48.525 112.75 47.385V41.815H114.62V47.245C114.62 47.925 114.8 48.435 115.17 48.775C115.54 49.115 116.06 49.285 116.73 49.285C117.4 49.285 117.92 49.115 118.29 48.775C118.66 48.435 118.84 47.925 118.84 47.245V41.815H120.71V47.385C120.71 48.525 120.35 49.385 119.64 49.985C118.93 50.585 117.96 50.875 116.73 50.875H116.74Z" fill="#717071"/>
<path d="M122.92 50.735V41.815H124.54L128.76 47.755V41.815H130.63V50.735H129.01L124.78 44.795V50.735H122.91H122.92Z" fill="#717071"/>
<path d="M137.2 50.875C135.7 50.875 134.57 50.485 133.79 49.695C133.01 48.905 132.63 47.825 132.63 46.425C132.63 44.945 133.02 43.785 133.81 42.945C134.6 42.105 135.76 41.675 137.31 41.675C137.85 41.675 138.33 41.705 138.76 41.765C139.19 41.825 139.61 41.915 139.99 42.045V43.655C139.6 43.515 139.19 43.415 138.76 43.355C138.33 43.295 137.89 43.265 137.44 43.265C136.38 43.265 135.63 43.525 135.18 44.045C134.74 44.565 134.52 45.355 134.52 46.425C134.52 48.335 135.42 49.295 137.22 49.295C137.53 49.295 137.84 49.275 138.14 49.215C138.44 49.155 138.71 49.095 138.94 49.015V46.935H136.86V45.745H140.52V50.105C140.22 50.295 139.79 50.475 139.25 50.635C138.7 50.795 138.02 50.875 137.2 50.875Z" fill="#717071"/>
<path d="M146.26 50.735V41.815H152.66V43.265H148.13V45.555H152.15V46.995H148.13V49.295H152.66V50.735H146.26Z" fill="#717071"/>
<path d="M154.03 50.735L157.26 46.265L154.12 41.815H156.32L158.38 44.795L160.44 41.815H162.64L159.5 46.265L162.73 50.735H160.5L158.38 47.755L156.26 50.735H154.03Z" fill="#717071"/>
<path d="M164.44 50.735V41.815H168.62C169.32 41.815 169.9 41.945 170.34 42.215C170.79 42.485 171.12 42.845 171.34 43.305C171.56 43.765 171.67 44.295 171.67 44.885C171.67 45.475 171.54 46.015 171.29 46.475C171.04 46.935 170.68 47.295 170.21 47.545C169.74 47.795 169.19 47.925 168.55 47.925H166.29V50.725H164.42L164.44 50.735ZM166.31 46.455H168.18C168.72 46.455 169.12 46.315 169.39 46.035C169.66 45.755 169.8 45.375 169.8 44.895C169.8 44.375 169.67 43.985 169.41 43.715C169.15 43.445 168.76 43.305 168.25 43.305H166.31V46.465V46.455Z" fill="#717071"/>
<path d="M177.48 50.875C174.59 50.875 173.14 49.355 173.14 46.315C173.14 44.685 173.5 43.495 174.23 42.765C174.96 42.035 176.04 41.675 177.47 41.675C178.9 41.675 179.98 42.035 180.71 42.765C181.44 43.495 181.8 44.675 181.8 46.315C181.8 49.355 180.35 50.875 177.46 50.875H177.48ZM177.48 49.275C178.32 49.275 178.94 49.035 179.33 48.545C179.72 48.065 179.92 47.315 179.92 46.305C179.92 45.185 179.72 44.395 179.33 43.945C178.94 43.485 178.32 43.255 177.48 43.255C176.64 43.255 176.02 43.485 175.63 43.945C175.24 44.405 175.04 45.185 175.04 46.305C175.04 47.315 175.24 48.055 175.63 48.545C176.02 49.035 176.64 49.275 177.48 49.275Z" fill="#717071"/>
</g>
<defs>
<clipPath id="clip0_7_12023">
<rect width="181.62" height="61.37" fill="white" transform="translate(0.190002 0.315001)"/>
</clipPath>
</defs>
</svg>
