<svg width="777" height="177" viewBox="0 0 777 177" fill="none" xmlns="http://www.w3.org/2000/svg">
<g clip-path="url(#clip0_581_694)">
<path d="M516.65 160.99H514.92V165.27H513.25V154.65H516.72C518.91 154.65 520.55 155.43 520.55 157.73C520.55 159.37 519.67 160.35 518.33 160.77L520.92 165.26H519.03L516.64 160.98L516.65 160.99ZM516.52 159.65C518.05 159.65 518.9 159.02 518.9 157.73C518.9 156.44 518.05 156 516.52 156H514.92V159.64H516.52V159.65Z" fill="#717071"/>
<path d="M523.43 154.85C523.43 154.27 523.85 153.87 524.47 153.87C525.09 153.87 525.49 154.27 525.49 154.85C525.49 155.47 525.07 155.86 524.47 155.86C523.87 155.86 523.43 155.47 523.43 154.85ZM523.64 157.33H525.3V165.27H523.64V157.33Z" fill="#717071"/>
<path d="M528.03 164.36L528.82 163.28C529.51 163.84 530.2 164.2 531.05 164.2C531.99 164.2 532.43 163.74 532.43 163.13C532.43 162.41 531.55 162.09 530.69 161.76C529.64 161.36 528.47 160.8 528.47 159.46C528.47 158.12 529.54 157.14 531.29 157.14C532.34 157.14 533.23 157.57 533.85 158.08L533.09 159.1C532.53 158.7 531.97 158.41 531.33 158.41C530.44 158.41 530.03 158.84 530.03 159.39C530.03 160.05 530.81 160.31 531.69 160.64C532.78 161.06 534.01 161.55 534.01 163.03C534.01 164.37 532.96 165.46 531 165.46C529.91 165.46 528.78 164.99 528.02 164.35L528.03 164.36Z" fill="#717071"/>
<path d="M536.65 154.85C536.65 154.27 537.07 153.87 537.69 153.87C538.31 153.87 538.71 154.27 538.71 154.85C538.71 155.47 538.29 155.86 537.69 155.86C537.09 155.86 536.65 155.47 536.65 154.85ZM536.86 157.33H538.52V165.27H536.86V157.33Z" fill="#717071"/>
<path d="M542.08 157.33H543.43L543.57 158.44H543.6C544.32 157.72 545.14 157.14 546.22 157.14C547.91 157.14 548.65 158.26 548.65 160.28V165.26H546.99V160.48C546.99 159.11 546.59 158.58 545.65 158.58C544.91 158.58 544.43 158.94 543.72 159.65V165.27H542.06V157.33H542.08Z" fill="#717071"/>
<path d="M551.57 166.73C551.57 166.07 551.99 165.45 552.72 165V164.94C552.32 164.67 552 164.25 552 163.61C552 162.97 552.43 162.44 552.89 162.14V162.08C552.34 161.66 551.84 160.91 551.84 159.96C551.84 158.17 553.27 157.12 554.91 157.12C555.36 157.12 555.76 157.21 556.06 157.31H558.87V158.56H557.37C557.66 158.89 557.87 159.41 557.87 160C557.87 161.74 556.56 162.74 554.9 162.74C554.55 162.74 554.14 162.65 553.79 162.51C553.55 162.73 553.36 162.94 553.36 163.33C553.36 163.79 553.68 164.11 554.69 164.11H556.16C558.02 164.11 559 164.69 559 166.03C559 167.57 557.4 168.81 554.87 168.81C552.95 168.81 551.57 168.1 551.57 166.72V166.73ZM557.39 166.32C557.39 165.66 556.87 165.46 555.92 165.46H554.72C554.35 165.46 553.99 165.43 553.65 165.34C553.17 165.69 552.99 166.09 552.99 166.49C552.99 167.25 553.78 167.73 555.09 167.73C556.47 167.73 557.38 167.05 557.38 166.32H557.39ZM556.41 159.98C556.41 158.93 555.75 158.31 554.91 158.31C554.07 158.31 553.41 158.91 553.41 159.98C553.41 161.05 554.09 161.68 554.91 161.68C555.73 161.68 556.41 161.05 556.41 159.98Z" fill="#717071"/>
<path d="M565.27 163.9L566.25 162.75C567.01 163.5 568.05 164 569.09 164C570.36 164 571.06 163.39 571.06 162.5C571.06 161.54 570.35 161.23 569.37 160.8L567.9 160.17C566.86 159.74 565.74 158.95 565.74 157.39C565.74 155.72 567.19 154.47 569.23 154.47C570.48 154.47 571.65 154.99 572.43 155.81L571.58 156.88C570.92 156.29 570.17 155.93 569.23 155.93C568.15 155.93 567.46 156.46 567.46 157.28C567.46 158.2 568.31 158.53 569.16 158.89L570.62 159.51C571.89 160.04 572.78 160.82 572.78 162.38C572.78 164.08 571.37 165.48 569.05 165.48C567.6 165.48 566.24 164.89 565.28 163.91L565.27 163.9Z" fill="#717071"/>
<path d="M575.6 162.33V157.33H577.27V162.13C577.27 163.48 577.67 164.03 578.59 164.03C579.33 164.03 579.84 163.68 580.49 162.85V157.33H582.16V165.27H580.79L580.66 164.07H580.62C579.9 164.9 579.12 165.47 578.04 165.47C576.34 165.47 575.59 164.35 575.59 162.33H575.6Z" fill="#717071"/>
<path d="M585.72 157.33H587.07L587.21 158.44H587.24C587.96 157.72 588.78 157.14 589.86 157.14C591.55 157.14 592.29 158.26 592.29 160.28V165.26H590.63V160.48C590.63 159.11 590.23 158.58 589.29 158.58C588.56 158.58 588.07 158.94 587.36 159.65V165.27H585.7V157.33H585.72Z" fill="#717071"/>
<path d="M553.27 102C573.069 102 589.12 85.9492 589.12 66.1498C589.12 46.3504 573.069 30.2998 553.27 30.2998C533.471 30.2998 517.42 46.3504 517.42 66.1498C517.42 85.9492 533.471 102 553.27 102Z" fill="#2E59A6"/>
<path d="M521.485 94.4908L511.458 104.518L514.393 107.452L524.42 97.4253L521.485 94.4908Z" fill="#5D97C4"/>
<path d="M583.37 95.2257L580.435 98.1602L590.292 108.017L593.227 105.083L583.37 95.2257Z" fill="#5D97C4"/>
<path d="M555.47 11.3799H551.34V25.2199H555.47V11.3799Z" fill="#5D97C4"/>
<path d="M511.04 64.2998H497.2V68.4298H511.04V64.2998Z" fill="#5D97C4"/>
<path d="M608.39 65.5098H594.55V69.6398H608.39V65.5098Z" fill="#5D97C4"/>
<path d="M554.25 108.72H550.12V122.56H554.25V108.72Z" fill="#5D97C4"/>
<path d="M540.718 12.3859L536.728 13.4541L540.37 27.055L544.36 25.9867L540.718 12.3859Z" fill="#5D97C4"/>
<path d="M511.789 75.1685L498.181 78.7842L499.245 82.7853L512.852 79.1697L511.789 75.1685Z" fill="#5D97C4"/>
<path d="M539.46 106.386L535.895 119.966L539.909 121.02L543.474 107.44L539.46 106.386Z" fill="#5D97C4"/>
<path d="M565.639 12.5325L562.045 26.1562L566.048 27.2124L569.642 13.5886L565.639 12.5325Z" fill="#5D97C4"/>
<path d="M499.622 49.9335L498.573 53.9902L512.176 57.5057L513.225 53.449L499.622 49.9335Z" fill="#5D97C4"/>
<path d="M593.395 76.0438L592.319 80.0312L605.99 83.72L607.066 79.7326L593.395 76.0438Z" fill="#5D97C4"/>
<path d="M564.975 106.655L560.994 107.716L564.622 121.331L568.603 120.27L564.975 106.655Z" fill="#5D97C4"/>
<path d="M606.094 50.8604L592.482 54.5L593.546 58.4802L607.158 54.8405L606.094 50.8604Z" fill="#5D97C4"/>
<path d="M589.581 86.2614L587.509 89.8457L599.794 96.9471L601.866 93.3629L589.581 86.2614Z" fill="#5D97C4"/>
<path d="M600.243 37.6444L587.976 44.5762L590.032 48.2153L602.299 41.2835L600.243 37.6444Z" fill="#5D97C4"/>
<path d="M515.391 85.4524L503.172 92.4277L505.224 96.0232L517.444 89.0478L515.391 85.4524Z" fill="#5D97C4"/>
<path d="M579.268 17.7242L572.272 29.9893L575.895 32.0553L582.891 19.7902L579.268 17.7242Z" fill="#5D97C4"/>
<path d="M505.74 36.7219L503.678 40.3115L515.877 47.321L517.94 43.7313L505.74 36.7219Z" fill="#5D97C4"/>
<path d="M574.909 102.14L571.336 104.191L578.366 116.437L581.939 114.386L574.909 102.14Z" fill="#5D97C4"/>
<path d="M527.154 17.2724L523.493 19.3506L530.429 31.5694L534.09 29.4912L527.154 17.2724Z" fill="#5D97C4"/>
<path d="M529.681 101.553L522.713 113.765L526.309 115.816L533.277 103.605L529.681 101.553Z" fill="#5D97C4"/>
<path d="M515.167 25.7941L512.353 28.6084L522.21 38.4655L525.024 35.6512L515.167 25.7941Z" fill="#5D97C4"/>
<path d="M591.034 26.4027L581.177 36.2598L583.992 39.0741L593.849 29.217L591.034 26.4027Z" fill="#5D97C4"/>
<path d="M704.93 154.65H706.64L707.63 160.17C707.82 161.31 708 162.43 708.21 163.58H708.27C708.49 162.43 708.75 161.29 708.99 160.17L710.34 154.65H711.82L713.19 160.17C713.44 161.29 713.67 162.43 713.91 163.58H713.98C714.17 162.43 714.34 161.29 714.51 160.17L715.52 154.65H717.12L715.03 165.27H712.97L711.54 159.38C711.37 158.55 711.19 157.75 711.05 156.95H710.99C710.83 157.76 710.66 158.55 710.49 159.38L709.09 165.27H707.06L704.91 154.65H704.93Z" fill="#717071"/>
<path d="M719.6 154.85C719.6 154.27 720.02 153.87 720.64 153.87C721.26 153.87 721.66 154.27 721.66 154.85C721.66 155.47 721.24 155.86 720.64 155.86C720.04 155.86 719.6 155.47 719.6 154.85ZM719.8 157.33H721.46V165.27H719.8V157.33Z" fill="#717071"/>
<path d="M725.03 157.33H726.38L726.52 158.44H726.55C727.27 157.72 728.09 157.14 729.17 157.14C730.86 157.14 731.6 158.26 731.6 160.28V165.26H729.94V160.48C729.94 159.11 729.54 158.58 728.6 158.58C727.87 158.58 727.38 158.94 726.67 159.65V165.27H725.01V157.33H725.03Z" fill="#717071"/>
<path d="M734.57 161.3C734.57 158.72 736.2 157.14 737.95 157.14C738.87 157.14 739.45 157.47 740.08 158.03L740.02 156.72V153.78H741.68V165.26H740.33L740.19 164.37H740.15C739.56 164.97 738.74 165.46 737.83 165.46C735.86 165.46 734.58 163.93 734.58 161.3H734.57ZM740.02 163.1V159.24C739.43 158.71 738.87 158.52 738.28 158.52C737.19 158.52 736.28 159.57 736.28 161.29C736.28 163.01 736.99 164.07 738.22 164.07C738.88 164.07 739.44 163.78 740.02 163.11V163.1Z" fill="#717071"/>
<path d="M685.74 100.64C674.81 89.7105 670.17 73.1505 670.74 57.9805C673.52 63.7905 675.22 70.0605 678.4 75.6805C689.93 96.0305 714.23 107.05 737.27 104.69C740.56 104.35 743.77 103.33 747.03 102.96C742.28 107.88 735.53 110.82 728.88 112.16C713.29 115.3 697.18 112.09 685.74 100.65V100.64Z" fill="#2E59A6"/>
<path d="M672.92 30.2402L676.14 38.3102C684.78 58.8702 712.66 79.2302 735.52 72.8402C757.74 66.6302 754.71 36.6202 737.23 26.7502L728 22.7102C741.98 18.7402 756 19.8802 766.03 31.2402C789.06 57.3202 773.18 99.2402 737.72 101.59C698.34 104.2 664.12 70.1502 672.91 30.2402H672.92Z" fill="#5D97C4"/>
<path d="M164.13 159.92C164.13 156.49 166.03 154.46 168.75 154.46C171.47 154.46 173.37 156.5 173.37 159.92C173.37 163.34 171.48 165.46 168.75 165.46C166.02 165.46 164.13 163.33 164.13 159.92ZM171.66 159.92C171.66 157.44 170.51 155.92 168.75 155.92C166.99 155.92 165.85 157.45 165.85 159.92C165.85 162.39 166.99 164 168.75 164C170.51 164 171.66 162.4 171.66 159.92Z" fill="#717071"/>
<path d="M175.95 161.3C175.95 158.66 177.78 157.14 179.87 157.14C180.88 157.14 181.61 157.54 182.19 158.05L181.37 159.13C180.94 158.76 180.49 158.51 179.96 158.51C178.62 158.51 177.67 159.63 177.67 161.3C177.67 162.97 178.59 164.08 179.9 164.08C180.56 164.08 181.15 163.78 181.63 163.36L182.32 164.47C181.59 165.12 180.65 165.46 179.74 165.46C177.59 165.46 175.95 163.93 175.95 161.3Z" fill="#717071"/>
<path d="M184.1 161.3C184.1 158.72 185.87 157.14 187.72 157.14C189.82 157.14 190.96 158.65 190.96 160.89C190.96 161.22 190.92 161.54 190.87 161.74H185.73C185.86 163.25 186.81 164.16 188.18 164.16C188.89 164.16 189.49 163.94 190.07 163.57L190.65 164.62C189.93 165.11 189.01 165.47 187.98 165.47C185.81 165.47 184.11 163.93 184.11 161.31L184.1 161.3ZM189.52 160.58C189.52 159.23 188.9 158.45 187.75 158.45C186.76 158.45 185.88 159.2 185.72 160.58H189.52Z" fill="#717071"/>
<path d="M193.22 163.16C193.22 161.45 194.66 160.57 197.96 160.21C197.95 159.3 197.61 158.5 196.45 158.5C195.61 158.5 194.84 158.87 194.16 159.31L193.54 158.19C194.36 157.67 195.47 157.15 196.74 157.15C198.71 157.15 199.62 158.39 199.62 160.51V165.28H198.27L198.14 164.37H198.08C197.36 164.99 196.51 165.48 195.56 165.48C194.19 165.48 193.23 164.57 193.23 163.18L193.22 163.16ZM197.96 163.21V161.28C195.61 161.55 194.82 162.16 194.82 163.04C194.82 163.83 195.35 164.15 196.06 164.15C196.77 164.15 197.31 163.82 197.96 163.21Z" fill="#717071"/>
<path d="M203.04 157.33H204.39L204.53 158.44H204.56C205.28 157.72 206.1 157.14 207.18 157.14C208.87 157.14 209.61 158.26 209.61 160.28V165.26H207.95V160.48C207.95 159.11 207.55 158.58 206.61 158.58C205.88 158.58 205.39 158.94 204.68 159.65V165.27H203.02V157.33H203.04Z" fill="#717071"/>
<path d="M219.72 156.06H216.62V154.65H224.53V156.06H221.42V165.26H219.72V156.06Z" fill="#717071"/>
<path d="M227.11 154.85C227.11 154.27 227.53 153.87 228.15 153.87C228.77 153.87 229.17 154.27 229.17 154.85C229.17 155.47 228.75 155.86 228.15 155.86C227.55 155.86 227.11 155.47 227.11 154.85ZM227.31 157.33H228.97V165.27H227.31V157.33Z" fill="#717071"/>
<path d="M232 161.3C232 158.72 233.63 157.14 235.38 157.14C236.3 157.14 236.88 157.47 237.51 158.03L237.45 156.72V153.78H239.11V165.26H237.76L237.62 164.37H237.58C236.99 164.97 236.17 165.46 235.26 165.46C233.29 165.46 232.01 163.93 232.01 161.3H232ZM237.46 163.1V159.24C236.87 158.71 236.31 158.52 235.72 158.52C234.63 158.52 233.72 159.57 233.72 161.29C233.72 163.01 234.43 164.07 235.66 164.07C236.32 164.07 236.88 163.78 237.46 163.11V163.1Z" fill="#717071"/>
<path d="M242.13 161.3C242.13 158.72 243.9 157.14 245.75 157.14C247.85 157.14 248.99 158.65 248.99 160.89C248.99 161.22 248.95 161.54 248.9 161.74H243.76C243.89 163.25 244.84 164.16 246.21 164.16C246.92 164.16 247.52 163.94 248.1 163.57L248.68 164.62C247.96 165.11 247.04 165.47 246.02 165.47C243.84 165.47 242.14 163.93 242.14 161.31L242.13 161.3ZM247.54 160.58C247.54 159.23 246.92 158.45 245.77 158.45C244.78 158.45 243.9 159.2 243.74 160.58H247.54Z" fill="#717071"/>
<path d="M251.08 164.36L251.87 163.28C252.56 163.84 253.25 164.2 254.1 164.2C255.04 164.2 255.48 163.74 255.48 163.13C255.48 162.41 254.6 162.09 253.74 161.76C252.69 161.36 251.52 160.8 251.52 159.46C251.52 158.12 252.59 157.14 254.34 157.14C255.39 157.14 256.28 157.57 256.9 158.08L256.14 159.1C255.58 158.7 255.02 158.41 254.38 158.41C253.49 158.41 253.08 158.84 253.08 159.39C253.08 160.05 253.86 160.31 254.74 160.64C255.83 161.06 257.06 161.55 257.06 163.03C257.06 164.37 256.01 165.46 254.05 165.46C252.96 165.46 251.83 164.99 251.07 164.35L251.08 164.36Z" fill="#717071"/>
<path d="M191.84 52.9701C195.26 55.7301 199.88 57.2301 204.24 57.5701C214.56 58.3501 224.45 53.8901 234.76 54.5601C250.89 55.6101 267.18 63.4301 272.46 79.6201L268.65 77.5101C254.96 71.3401 238.97 68.5601 224.3 72.9201C204.29 78.8601 195.61 97.5801 171.2 96.0201C155.23 95.0001 144.66 82.9901 151.29 67.1901C151.29 67.1901 153.09 69.5201 154.41 71.2201C155.43 72.5301 156.59 73.7401 157.92 74.7401C162.78 78.3801 168.49 80.4001 174.77 79.8201C175.25 79.7801 178.38 79.1601 178.52 79.0301C179.22 78.3601 178.26 78.3601 177.96 78.2101C171.83 75.0701 168.32 72.5401 166.18 65.5201C161.58 50.3701 171.22 36.9901 186.41 34.8301C185.73 34.9501 186.62 43.4901 186.71 44.1101C187.2 47.8601 189.15 50.8101 191.84 52.9801V52.9701Z" fill="#2E59A6"/>
<path d="M246.56 53.0999C246.65 53.8199 245.72 53.4399 245.29 53.3799C236.79 52.2699 225.37 46.72 220.59 39.4C216.2 32.68 215.11 21.6799 222.83 16.9199C228.19 13.6099 236.42 16.7999 235.48 23.6499C235.05 26.7699 230.89 29.78 230.16 33.33C228.24 42.7 238.78 50.4799 246.56 53.0899V53.0999Z" fill="#5D97C4"/>
<path d="M155.4 42.0802C158.45 41.5202 161.84 43.5602 162.19 47.1002C162.49 50.1402 160.47 52.9102 159.94 55.8202C158.64 62.9902 161.68 67.6502 165.76 73.1402C159.42 70.2602 154.33 64.3802 151.82 57.7802C150.27 53.7102 149.13 47.6602 152.19 43.9802C153.08 42.9102 154.21 42.3002 155.4 42.0802Z" fill="#5D97C4"/>
<path d="M243.1 22.0503C245.01 21.8303 247.82 23.2203 248.8 24.8503C251.18 28.8003 247.86 32.2703 246.93 36.1803C245.28 43.1703 247.96 47.9503 251.67 53.5403C242.87 49.5603 235.15 35.7903 238.32 26.3903C238.99 24.4203 240.88 22.2903 243.08 22.0403L243.1 22.0503Z" fill="#5D97C4"/>
<path d="M17.3101 163.9L18.2901 162.75C19.0501 163.5 20.0901 164 21.1301 164C22.4001 164 23.1001 163.39 23.1001 162.5C23.1001 161.54 22.3901 161.23 21.4101 160.8L19.9401 160.17C18.9001 159.74 17.7801 158.95 17.7801 157.39C17.7801 155.72 19.2401 154.47 21.2701 154.47C22.5201 154.47 23.6901 154.99 24.4701 155.81L23.6201 156.88C22.9601 156.29 22.2101 155.93 21.2701 155.93C20.1901 155.93 19.5001 156.46 19.5001 157.28C19.5001 158.2 20.3501 158.53 21.2001 158.89L22.6501 159.51C23.9201 160.04 24.8101 160.82 24.8101 162.38C24.8101 164.08 23.4001 165.48 21.0801 165.48C19.6201 165.48 18.2701 164.89 17.3101 163.91V163.9Z" fill="#717071"/>
<path d="M27.1899 161.3C27.1899 158.72 28.9599 157.14 30.8099 157.14C32.9099 157.14 34.0499 158.65 34.0499 160.89C34.0499 161.22 34.0099 161.54 33.9599 161.74H28.8199C28.9499 163.25 29.8999 164.16 31.2699 164.16C31.9799 164.16 32.5799 163.94 33.1599 163.57L33.7399 164.62C33.0199 165.11 32.0999 165.47 31.0799 165.47C28.8999 165.47 27.2099 163.93 27.2099 161.31L27.1899 161.3ZM32.6099 160.58C32.6099 159.23 31.9899 158.45 30.8399 158.45C29.8499 158.45 28.9699 159.2 28.8099 160.58H32.6099Z" fill="#717071"/>
<path d="M36.4199 161.3C36.4199 158.72 38.1899 157.14 40.0399 157.14C42.1399 157.14 43.2799 158.65 43.2799 160.89C43.2799 161.22 43.2399 161.54 43.1899 161.74H38.0499C38.1799 163.25 39.1299 164.16 40.4999 164.16C41.2099 164.16 41.8099 163.94 42.3899 163.57L42.9699 164.62C42.2499 165.11 41.3299 165.47 40.3099 165.47C38.1299 165.47 36.4399 163.93 36.4399 161.31L36.4199 161.3ZM41.8399 160.58C41.8399 159.23 41.2199 158.45 40.0699 158.45C39.0799 158.45 38.1999 159.2 38.0399 160.58H41.8399Z" fill="#717071"/>
<path d="M45.6799 161.3C45.6799 158.72 47.3099 157.14 49.0699 157.14C49.9899 157.14 50.5699 157.47 51.1999 158.03L51.1399 156.72V153.78H52.7999V165.26H51.4499L51.3099 164.37H51.2699C50.6799 164.97 49.8599 165.46 48.9499 165.46C46.9799 165.46 45.6899 163.93 45.6899 161.3H45.6799ZM51.1399 163.1V159.24C50.5499 158.71 49.9899 158.52 49.3999 158.52C48.3099 158.52 47.3999 159.57 47.3999 161.29C47.3999 163.01 48.1099 164.07 49.3399 164.07C49.9999 164.07 50.5599 163.78 51.1399 163.11V163.1Z" fill="#717071"/>
<path d="M55.53 164.36L56.32 163.28C57.01 163.84 57.7 164.2 58.55 164.2C59.49 164.2 59.93 163.74 59.93 163.13C59.93 162.41 59.05 162.09 58.19 161.76C57.14 161.36 55.97 160.8 55.97 159.46C55.97 158.12 57.04 157.14 58.79 157.14C59.84 157.14 60.73 157.57 61.35 158.08L60.59 159.1C60.03 158.7 59.47 158.41 58.83 158.41C57.94 158.41 57.53 158.84 57.53 159.39C57.53 160.05 58.31 160.31 59.19 160.64C60.28 161.06 61.51 161.55 61.51 163.03C61.51 164.37 60.46 165.46 58.5 165.46C57.41 165.46 56.28 164.99 55.52 164.35L55.53 164.36Z" fill="#717071"/>
<path d="M349.9 153.31L350.88 152.16C351.64 152.91 352.68 153.41 353.72 153.41C354.99 153.41 355.69 152.81 355.69 151.91C355.69 150.95 354.98 150.64 354 150.21L352.53 149.58C351.49 149.15 350.37 148.36 350.37 146.8C350.37 145.13 351.83 143.88 353.86 143.88C355.11 143.88 356.28 144.4 357.06 145.22L356.21 146.29C355.55 145.7 354.8 145.34 353.86 145.34C352.78 145.34 352.09 145.87 352.09 146.69C352.09 147.61 352.94 147.94 353.79 148.3L355.24 148.92C356.51 149.45 357.4 150.23 357.4 151.79C357.4 153.49 355.99 154.89 353.67 154.89C352.21 154.89 350.86 154.3 349.9 153.32V153.31Z" fill="#717071"/>
<path d="M359.48 146.74H361.15L362.2 151.03C362.36 151.81 362.49 152.53 362.63 153.29H362.7C362.86 152.53 363.02 151.79 363.2 151.03L364.32 146.74H365.85L366.99 151.03C367.18 151.81 367.34 152.53 367.52 153.29H367.59C367.73 152.53 367.86 151.81 368.04 151.03L369.06 146.74H370.63L368.57 154.68H366.58L365.57 150.76C365.38 150.01 365.24 149.29 365.07 148.47H365C364.84 149.29 364.7 150.03 364.51 150.77L363.53 154.67H361.6L359.47 146.73L359.48 146.74Z" fill="#717071"/>
<path d="M372.75 152.57C372.75 150.86 374.19 149.98 377.49 149.62C377.48 148.71 377.14 147.91 375.98 147.91C375.14 147.91 374.37 148.29 373.69 148.72L373.07 147.6C373.89 147.08 375 146.56 376.27 146.56C378.24 146.56 379.15 147.8 379.15 149.92V154.69H377.8L377.67 153.78H377.61C376.89 154.4 376.04 154.89 375.09 154.89C373.72 154.89 372.76 153.98 372.76 152.59L372.75 152.57ZM377.48 152.62V150.69C375.13 150.96 374.34 151.57 374.34 152.45C374.34 153.24 374.87 153.56 375.58 153.56C376.29 153.56 376.83 153.23 377.48 152.62Z" fill="#717071"/>
<path d="M381.93 157.83L382.25 156.53C382.39 156.57 382.62 156.65 382.84 156.65C383.69 156.65 384.19 156.02 384.48 155.17L384.65 154.62L381.51 146.74H383.2L384.66 150.83C384.91 151.54 385.15 152.31 385.39 153.06H385.46C385.66 152.33 385.88 151.55 386.08 150.83L387.36 146.74H388.96L386.05 155.15C385.43 156.85 384.59 157.99 382.94 157.99C382.52 157.99 382.2 157.93 381.93 157.83Z" fill="#717071"/>
<path d="M391.28 144.26C391.28 143.68 391.7 143.28 392.32 143.28C392.94 143.28 393.34 143.68 393.34 144.26C393.34 144.88 392.92 145.27 392.32 145.27C391.72 145.27 391.28 144.88 391.28 144.26ZM391.48 146.74H393.14V154.68H391.48V146.74Z" fill="#717071"/>
<path d="M396.71 146.74H398.06L398.2 147.85H398.23C398.95 147.13 399.77 146.55 400.85 146.55C402.54 146.55 403.28 147.67 403.28 149.69V154.67H401.62V149.89C401.62 148.52 401.22 147.99 400.28 147.99C399.55 147.99 399.06 148.35 398.35 149.06V154.68H396.69V146.74H396.71Z" fill="#717071"/>
<path d="M406.2 156.14C406.2 155.48 406.62 154.86 407.35 154.41V154.35C406.95 154.08 406.63 153.66 406.63 153.03C406.63 152.4 407.06 151.86 407.52 151.56V151.5C406.97 151.08 406.47 150.33 406.47 149.38C406.47 147.59 407.9 146.54 409.54 146.54C409.99 146.54 410.39 146.63 410.69 146.73H413.5V147.98H412C412.29 148.31 412.5 148.83 412.5 149.42C412.5 151.16 411.19 152.16 409.53 152.16C409.18 152.16 408.77 152.07 408.42 151.93C408.17 152.15 407.99 152.36 407.99 152.75C407.99 153.21 408.31 153.53 409.32 153.53H410.79C412.65 153.53 413.63 154.11 413.63 155.45C413.63 156.99 412.03 158.23 409.5 158.23C407.58 158.23 406.2 157.52 406.2 156.14ZM412.02 155.73C412.02 155.07 411.5 154.87 410.55 154.87H409.35C408.97 154.87 408.61 154.84 408.28 154.75C407.8 155.1 407.62 155.5 407.62 155.9C407.62 156.66 408.41 157.14 409.72 157.14C411.1 157.14 412.01 156.46 412.01 155.73H412.02ZM411.04 149.39C411.04 148.34 410.38 147.72 409.54 147.72C408.7 147.72 408.04 148.32 408.04 149.39C408.04 150.46 408.72 151.09 409.54 151.09C410.36 151.09 411.04 150.46 411.04 149.39Z" fill="#717071"/>
<path d="M344.55 171.58H342.82V175.86H341.15V165.24H344.62C346.81 165.24 348.45 166.02 348.45 168.32C348.45 169.96 347.57 170.94 346.23 171.36L348.82 175.85H346.93L344.54 171.57L344.55 171.58ZM344.43 170.24C345.96 170.24 346.81 169.61 346.81 168.32C346.81 167.03 345.96 166.59 344.43 166.59H342.83V170.23H344.43V170.24Z" fill="#717071"/>
<path d="M351.34 165.44C351.34 164.86 351.76 164.46 352.38 164.46C353 164.46 353.4 164.86 353.4 165.44C353.4 166.06 352.98 166.45 352.38 166.45C351.78 166.45 351.34 166.06 351.34 165.44ZM351.54 167.92H353.2V175.86H351.54V167.92Z" fill="#717071"/>
<path d="M356.2 171.89C356.2 169.25 358.03 167.73 360.12 167.73C361.13 167.73 361.86 168.13 362.44 168.64L361.62 169.72C361.19 169.35 360.74 169.1 360.21 169.1C358.87 169.1 357.92 170.22 357.92 171.89C357.92 173.56 358.84 174.67 360.15 174.67C360.81 174.67 361.4 174.37 361.88 173.95L362.57 175.06C361.84 175.71 360.9 176.05 359.99 176.05C357.84 176.05 356.2 174.52 356.2 171.89Z" fill="#717071"/>
<path d="M364.36 171.89C364.36 169.31 366.13 167.73 367.98 167.73C370.08 167.73 371.22 169.24 371.22 171.48C371.22 171.81 371.18 172.13 371.13 172.33H365.99C366.12 173.84 367.07 174.75 368.44 174.75C369.15 174.75 369.75 174.53 370.33 174.16L370.91 175.21C370.19 175.7 369.27 176.06 368.24 176.06C366.07 176.06 364.37 174.52 364.37 171.9L364.36 171.89ZM369.77 171.17C369.77 169.82 369.15 169.04 368 169.04C367.01 169.04 366.13 169.79 365.97 171.17H369.77Z" fill="#717071"/>
<path d="M378.61 165.24H384.89V166.65H380.28V169.89H384.21V171.29H380.28V175.86H378.61V165.24Z" fill="#717071"/>
<path d="M387.5 165.44C387.5 164.86 387.92 164.46 388.54 164.46C389.16 164.46 389.56 164.86 389.56 165.44C389.56 166.06 389.14 166.45 388.54 166.45C387.94 166.45 387.5 166.06 387.5 165.44ZM387.7 167.92H389.36V175.86H387.7V167.92Z" fill="#717071"/>
<path d="M392.37 171.89C392.37 169.31 394.14 167.73 395.99 167.73C398.09 167.73 399.23 169.24 399.23 171.48C399.23 171.81 399.19 172.13 399.14 172.33H394C394.13 173.84 395.08 174.75 396.45 174.75C397.16 174.75 397.76 174.53 398.34 174.16L398.92 175.21C398.2 175.7 397.28 176.06 396.25 176.06C394.08 176.06 392.38 174.52 392.38 171.9L392.37 171.89ZM397.78 171.17C397.78 169.82 397.16 169.04 396.01 169.04C395.02 169.04 394.14 169.79 393.98 171.17H397.78Z" fill="#717071"/>
<path d="M402.16 173.98V164.37H403.82V174.06C403.82 174.51 404.01 174.66 404.21 174.66C404.28 174.66 404.34 174.66 404.5 174.63L404.7 175.88C404.5 175.97 404.22 176.04 403.81 176.04C402.61 176.04 402.17 175.26 402.17 173.97L402.16 173.98Z" fill="#717071"/>
<path d="M407 171.89C407 169.31 408.63 167.73 410.38 167.73C411.3 167.73 411.88 168.06 412.51 168.62L412.45 167.31V164.37H414.11V175.85H412.76L412.62 174.96H412.58C411.99 175.56 411.17 176.05 410.26 176.05C408.29 176.05 407.01 174.52 407.01 171.89H407ZM412.46 173.69V169.83C411.87 169.3 411.31 169.11 410.72 169.11C409.63 169.11 408.72 170.16 408.72 171.88C408.72 173.6 409.43 174.66 410.66 174.66C411.32 174.66 411.88 174.37 412.46 173.7V173.69Z" fill="#717071"/>
<path d="M416.85 174.95L417.64 173.87C418.33 174.43 419.02 174.79 419.87 174.79C420.81 174.79 421.25 174.33 421.25 173.72C421.25 173 420.37 172.68 419.51 172.35C418.46 171.95 417.29 171.39 417.29 170.05C417.29 168.71 418.36 167.73 420.11 167.73C421.16 167.73 422.05 168.16 422.67 168.67L421.91 169.69C421.35 169.29 420.79 169 420.15 169C419.26 169 418.85 169.43 418.85 169.98C418.85 170.64 419.63 170.9 420.51 171.23C421.6 171.65 422.83 172.14 422.83 173.62C422.83 174.96 421.78 176.05 419.82 176.05C418.73 176.05 417.6 175.58 416.84 174.94L416.85 174.95Z" fill="#717071"/>
<path d="M405.29 35.7597C407.32 36.1197 409.32 36.6497 411.23 37.4197C411.25 37.4197 411.26 37.4397 411.26 37.4697C411.28 37.6097 411.24 37.9797 411.23 38.1397C410.96 42.8297 409.4 48.1597 406.55 51.9397C401.32 58.8897 393.02 59.5197 385.08 57.5297C384 57.2597 382.93 56.9297 381.87 56.5997C381.89 56.2197 381.93 55.8297 381.98 55.4497C382.99 47.5797 386.12 39.4397 394.1 36.5097C397.59 35.2197 401.64 35.1297 405.3 35.7697L405.29 35.7597Z" fill="#2E59A6"/>
<path d="M369.57 36.5001C377.55 39.4401 380.68 47.5701 381.69 55.4401C381.74 55.8201 381.78 56.2101 381.8 56.5901C380.74 56.9301 379.67 57.2501 378.59 57.5201C370.65 59.5201 362.35 58.8901 357.12 51.9301C354.28 48.1501 352.71 42.8201 352.44 38.1301C352.44 37.9601 352.39 37.6001 352.41 37.4601C352.41 37.4401 352.41 37.4201 352.44 37.4101C354.35 36.6401 356.35 36.1101 358.38 35.7501C362.03 35.1101 366.09 35.2001 369.58 36.4901L369.57 36.5001Z" fill="#5D97C4"/>
<path d="M405.29 60.33C407.32 60.69 409.32 61.22 411.23 61.99C411.25 61.99 411.26 62.01 411.26 62.04C411.28 62.18 411.24 62.55 411.23 62.71C410.96 67.4 409.4 72.73 406.55 76.51C401.32 83.46 393.02 84.09 385.08 82.1C384 81.83 382.93 81.5 381.87 81.17C381.89 80.79 381.93 80.4 381.98 80.02C382.99 72.15 386.12 64.01 394.1 61.08C397.59 59.79 401.64 59.7 405.3 60.34L405.29 60.33Z" fill="#2E59A6"/>
<path d="M369.57 61.0704C377.55 64.0104 380.68 72.1404 381.69 80.0104C381.74 80.3904 381.78 80.7804 381.8 81.1604C380.74 81.5004 379.67 81.8204 378.59 82.0904C370.65 84.0904 362.35 83.4604 357.12 76.5004C354.28 72.7204 352.71 67.3904 352.44 62.7004C352.44 62.5304 352.39 62.1704 352.41 62.0304C352.41 62.0104 352.41 61.9904 352.44 61.9804C354.35 61.2104 356.35 60.6804 358.38 60.3204C362.03 59.6804 366.09 59.7704 369.58 61.0604L369.57 61.0704Z" fill="#5D97C4"/>
<path d="M405.29 84.9003C407.32 85.2603 409.32 85.7903 411.23 86.5603C411.25 86.5603 411.26 86.5803 411.26 86.6103C411.28 86.7503 411.24 87.1203 411.23 87.2803C410.96 91.9703 409.4 97.3003 406.55 101.08C401.32 108.03 393.02 108.66 385.08 106.67C384 106.4 382.93 106.07 381.87 105.74C381.89 105.36 381.93 104.97 381.98 104.59C382.99 96.7203 386.12 88.5803 394.1 85.6503C397.59 84.3603 401.64 84.2703 405.3 84.9103L405.29 84.9003Z" fill="#2E59A6"/>
<path d="M369.57 85.6398C377.55 88.5798 380.68 96.7098 381.69 104.58C381.74 104.96 381.78 105.35 381.8 105.73C380.74 106.07 379.67 106.39 378.59 106.66C370.65 108.66 362.35 108.03 357.12 101.07C354.28 97.2898 352.71 91.9598 352.44 87.2698C352.44 87.0998 352.39 86.7398 352.41 86.5998C352.41 86.5798 352.41 86.5598 352.44 86.5498C354.35 85.7798 356.35 85.2498 358.38 84.8898C362.03 84.2498 366.09 84.3398 369.58 85.6298L369.57 85.6398Z" fill="#5D97C4"/>
<path d="M377.1 8.35957C374.53 11.2196 372.44 14.7896 371.78 18.4596C370.38 26.2696 375.51 32.6496 381.8 37.3396V4.05957C380.07 5.32957 378.51 6.78957 377.1 8.35957Z" fill="#5D97C4"/>
<path d="M391.82 18.4703C391.16 14.8003 389.07 11.2303 386.5 8.37031C385.09 6.80031 383.52 5.34031 381.8 4.07031V37.3603C388.09 32.6703 393.22 26.2903 391.82 18.4803V18.4703Z" fill="#2E59A6"/>
<path d="M45.04 67.9701C38.01 66.7401 30.22 66.9201 23.51 69.3901C8.17 75.0401 2.15 90.6801 0.21 105.81C0.12 106.54 0.04 107.29 0 108.01C2.04 108.66 4.1 109.28 6.18 109.81C21.44 113.65 37.4 112.44 47.46 99.0701C52.93 91.8101 55.93 81.5601 56.45 72.5301C56.46 72.3201 56.5 71.9501 56.51 71.6401L50.77 69.2401C48.88 68.7201 46.97 68.3001 45.04 67.9601V67.9701Z" fill="#2E59A6"/>
<path d="M59.8201 60.3499C64.1901 41.9099 56.5301 13.9399 56.5301 13.9399C67.8301 25.0099 66.6101 47.5699 65.1501 58.8799C70.4601 56.7299 75.0401 52.6899 77.5201 46.8799C79.2201 42.8999 79.9201 39.0299 79.8301 35.3199C79.4501 20.1999 65.9001 7.63989 52.7001 0.329886C51.3001 -0.450114 49.5401 0.219886 48.9601 1.71989C48.2201 3.65989 47.2701 5.88989 47.1601 6.15989C45.7301 9.54989 43.1901 12.2199 41.0701 15.1699C34.2701 24.6399 30.2301 38.1299 36.0201 49.0499C39.9001 56.3599 46.9401 60.1099 54.2301 60.5999C53.2301 63.9299 51.8001 67.1599 50.7901 69.2599L56.5301 71.6599L59.8201 60.3599V60.3499Z" fill="#5D97C4"/>
</g>
<defs>
<clipPath id="clip0_581_694">
<rect width="776.82" height="176.05" fill="white"/>
</clipPath>
</defs>
</svg>
