<svg width="788" height="190" viewBox="0 0 788 190" fill="none" xmlns="http://www.w3.org/2000/svg">
<g clip-path="url(#clip0_581_791)">
<path d="M551.08 41.16V41.11V41.09V22.64V22.62V22.57C548.18 21.54 545.07 20.96 541.82 20.96C538.57 20.96 535.46 21.55 532.56 22.57V22.62V22.64V41.09V41.11V41.16C535.46 42.19 538.57 42.77 541.82 42.77C545.07 42.77 548.18 42.18 551.08 41.16Z" fill="#5D97C4"/>
<path d="M569.6 59.7303V59.6803V59.6603V41.2103V41.1903V41.1403C566.7 40.1103 563.59 39.5303 560.34 39.5303C557.09 39.5303 553.98 40.1203 551.08 41.1403V41.1903V41.2103V59.6603V59.6803V59.7303C553.98 60.7603 557.09 61.3403 560.34 61.3403C563.59 61.3403 566.7 60.7503 569.6 59.7303Z" fill="#2E59A6"/>
<path d="M551.08 78.2195V78.1695V78.1495V59.6995V59.6795V59.6295C548.18 58.5995 545.07 58.0195 541.82 58.0195C538.57 58.0195 535.46 58.6095 532.56 59.6295V59.6795V59.6995V78.1495V78.1695V78.2195C535.46 79.2495 538.57 79.8295 541.82 79.8295C545.07 79.8295 548.18 79.2395 551.08 78.2195Z" fill="#5D97C4"/>
<path d="M569.6 96.7898V96.7398V96.7198V78.2698V78.2498V78.1998C566.7 77.1698 563.59 76.5898 560.34 76.5898C557.09 76.5898 553.98 77.1798 551.08 78.1998V78.2498V78.2698V96.7198V96.7398V96.7898C553.98 97.8198 557.09 98.3998 560.34 98.3998C563.59 98.3998 566.7 97.8098 569.6 96.7898Z" fill="#2E59A6"/>
<path d="M551.08 115.28V115.23V115.21V96.7601V96.7401V96.6901C548.18 95.6601 545.07 95.0801 541.82 95.0801C538.57 95.0801 535.46 95.6701 532.56 96.6901V96.7401V96.7601V115.21V115.23V115.28C535.46 116.31 538.57 116.89 541.82 116.89C545.07 116.89 548.18 116.3 551.08 115.28Z" fill="#5D97C4"/>
<path d="M588.12 41.16V41.11V41.09V22.64V22.62V22.57C585.22 21.54 582.11 20.96 578.86 20.96C575.61 20.96 572.5 21.55 569.6 22.57V22.62V22.64V41.09V41.11V41.16C572.5 42.19 575.61 42.77 578.86 42.77C582.11 42.77 585.22 42.18 588.12 41.16Z" fill="#5D97C4"/>
<path d="M588.12 78.2195V78.1695V78.1495V59.6995V59.6795V59.6295C585.22 58.5995 582.11 58.0195 578.86 58.0195C575.61 58.0195 572.5 58.6095 569.6 59.6295V59.6795V59.6995V78.1495V78.1695V78.2195C572.5 79.2495 575.61 79.8295 578.86 79.8295C582.11 79.8295 585.22 79.2395 588.12 78.2195Z" fill="#5D97C4"/>
<path d="M588.12 115.28V115.23V115.21V96.7601V96.7401V96.6901C585.22 95.6601 582.11 95.0801 578.86 95.0801C575.61 95.0801 572.5 95.6701 569.6 96.6901V96.7401V96.7601V115.21V115.23V115.28C572.5 116.31 575.61 116.89 578.86 116.89C582.11 116.89 585.22 116.3 588.12 115.28Z" fill="#5D97C4"/>
<path d="M775.66 32.8402C775.02 31.8002 773.21 30.0202 772.34 29.5802C770.41 28.5902 766.67 28.2402 764.63 29.0702C763.76 29.4302 762.58 30.2402 761.81 30.8102C755.01 35.8702 747.3 42.2502 740.77 47.7302C730.71 56.1702 722.14 66.1802 712.87 75.4402L776.31 40.3402C777.15 37.8802 776.99 35.0302 775.66 32.8402Z" fill="#5D97C4"/>
<path d="M687.14 97.7601C687.14 97.7601 687.08 97.7801 687.05 97.7901L684.28 97.0701L683.24 95.7501L679.38 98.7801L683.44 103.96L684.72 105.6L688.78 110.78L692.64 107.75L691.67 106.52C691.65 106.39 691.63 106.26 691.59 106.12L691.55 103.48C699.98 96.7301 708.4 89.9301 717.46 84.0101C724.32 79.5301 731.78 75.4901 738.47 71.1501C751.1 62.9601 762.42 53.0301 774.21 43.7101C775.17 42.7901 775.85 41.6101 776.28 40.3301L712.84 75.4301C712.69 75.5801 712.55 75.7301 712.4 75.8801C704.48 83.7501 695.87 90.8201 687.12 97.7601H687.14Z" fill="#2E59A6"/>
<path d="M720.85 29.5998L721.83 29.7498C722.16 29.7998 722.39 30.1098 722.34 30.4398C722.29 30.7698 721.98 30.9998 721.65 30.9498L720.69 30.7998C720.66 31.0898 720.65 31.3698 720.64 31.6598L721.74 31.7098C722.07 31.7298 722.33 32.0098 722.31 32.3398C722.29 32.6698 722.01 32.9298 721.68 32.9098L720.67 32.8598C720.69 33.1998 720.73 33.5398 720.77 33.8698L721.73 33.7998C722.06 33.7798 722.35 34.0298 722.38 34.3598C722.4 34.6898 722.15 34.9798 721.82 35.0098L721 35.0698C721.08 35.4298 721.18 35.7898 721.3 36.1398L721.99 35.8998C722.31 35.7898 722.65 35.9598 722.76 36.2698C722.87 36.5898 722.7 36.9298 722.39 37.0398L721.72 37.2698C721.88 37.6598 722.06 38.0398 722.26 38.4098L722.99 38.0598C723.29 37.9198 723.65 38.0398 723.8 38.3398C723.94 38.6398 723.82 38.9998 723.52 39.1498L722.89 39.4598C723.16 39.8698 723.45 40.2598 723.77 40.6398L724.45 39.9698C724.69 39.7398 725.07 39.7398 725.3 39.9698C725.53 40.2098 725.53 40.5898 725.3 40.8198L724.58 41.5298C724.84 41.7898 725.11 42.0398 725.39 42.2798L726.01 41.3498C726.2 41.0698 726.57 40.9998 726.85 41.1798C727.13 41.3698 727.2 41.7398 727.02 42.0198L726.35 43.0198C726.68 43.2598 727.03 43.4798 727.39 43.6898C727.45 43.5598 727.51 43.4198 727.57 43.2798C729.98 37.3098 727.15 30.5198 721.25 28.0098C721.09 28.5298 720.97 29.0498 720.87 29.5798L720.85 29.5998Z" fill="#2E59A6"/>
<path d="M723.84 45.8796C723.84 45.8796 723.78 45.8496 723.75 45.8296C723.47 45.6396 723.4 45.2696 723.58 44.9896L724.3 43.9096C723.91 43.5896 723.55 43.2496 723.2 42.8996L722.36 43.7296C722.18 43.9096 721.91 43.9496 721.69 43.8496C721.62 43.8196 721.56 43.7796 721.5 43.7196C721.27 43.4796 721.27 43.0996 721.5 42.8696L722.37 42.0096C721.91 41.4696 721.5 40.8996 721.12 40.3096L719.75 40.9696C719.58 41.0496 719.4 41.0496 719.24 40.9696C719.11 40.9096 719 40.8096 718.94 40.6796C718.8 40.3796 718.92 40.0196 719.22 39.8696L720.5 39.2496C720.27 38.8096 720.06 38.3596 719.87 37.9096L718.34 38.4396C718.19 38.4896 718.03 38.4796 717.9 38.4196C717.75 38.3496 717.63 38.2296 717.57 38.0596C717.46 37.7396 717.63 37.3996 717.94 37.2896L719.44 36.7696C719.27 36.2596 719.13 35.7396 719.02 35.2096L717.49 35.3196C717.39 35.3196 717.29 35.3096 717.2 35.2696C717 35.1796 716.86 34.9896 716.84 34.7596C716.82 34.4296 717.07 34.1396 717.4 34.1096L718.81 34.0096C718.75 33.5996 718.72 33.1796 718.7 32.7596L717.25 32.6896C717.17 32.6896 717.1 32.6696 717.04 32.6396C716.82 32.5396 716.67 32.3096 716.68 32.0596C716.7 31.7296 716.98 31.4696 717.31 31.4896L718.68 31.5596C718.68 31.2096 718.71 30.8496 718.74 30.4996L717.4 30.2996C717.35 30.2996 717.29 30.2796 717.25 30.2596C717.01 30.1496 716.86 29.8896 716.9 29.6196C716.95 29.2896 717.26 29.0596 717.59 29.1096L718.91 29.3096C719.02 28.6796 719.17 28.0496 719.37 27.4196C714.54 26.2396 709.48 28.2396 706.76 32.3496C707.22 32.6096 707.65 32.8796 708.07 33.1796L708.71 32.3396C708.91 32.0696 709.29 32.0196 709.56 32.2196C709.78 32.3896 709.85 32.6796 709.76 32.9296C709.74 32.9796 709.71 33.0296 709.68 33.0696L709.04 33.9096C709.32 34.1396 709.59 34.3896 709.86 34.6396L710.59 33.8596C710.82 33.6196 711.2 33.5996 711.44 33.8296C711.63 34.0096 711.68 34.2696 711.59 34.4996C711.56 34.5696 711.52 34.6296 711.47 34.6896L710.7 35.5096C710.99 35.8296 711.26 36.1596 711.52 36.5096L712.35 35.8096C712.61 35.5996 712.99 35.6296 713.2 35.8796C713.35 36.0596 713.38 36.2996 713.3 36.4996C713.26 36.5896 713.21 36.6696 713.13 36.7396L712.22 37.5096C712.53 37.9896 712.81 38.4896 713.06 38.9996L714.18 38.4696C714.48 38.3296 714.84 38.4596 714.98 38.7596C715.05 38.9196 715.05 39.0896 714.99 39.2396C714.93 39.3796 714.83 39.4896 714.69 39.5596L713.55 40.0996C713.74 40.5696 713.9 41.0496 714.05 41.5396L715.07 41.1996C715.39 41.0896 715.73 41.2596 715.84 41.5796C715.89 41.7196 715.88 41.8696 715.83 41.9996C715.77 42.1596 715.64 42.2896 715.46 42.3496L714.35 42.7196C714.5 43.4396 714.6 44.1796 714.64 44.9296H715.54C715.87 44.9296 716.14 45.2096 716.14 45.5496C716.14 45.6296 716.12 45.6996 716.1 45.7696C716.01 45.9896 715.79 46.1496 715.53 46.1496H714.67C714.67 46.6596 714.63 47.1796 714.57 47.6996L715.53 47.8996C715.86 47.9696 716.07 48.2896 716 48.6196C716 48.6596 715.98 48.6896 715.97 48.7196C715.86 48.9896 715.58 49.1496 715.28 49.0796L714.38 48.8896C714.28 49.3996 714.15 49.9096 714 50.4196C718.78 51.5096 723.76 49.4996 726.45 45.4296C726.04 45.1896 725.64 44.9396 725.26 44.6696L724.58 45.6796C724.41 45.9296 724.1 46.0096 723.83 45.8996L723.84 45.8796Z" fill="#2E59A6"/>
<path d="M710.56 47.4401C710.63 47.1101 710.95 46.9001 711.28 46.9701L712.68 47.2701C712.72 46.8801 712.75 46.4901 712.75 46.1101H711.42C711.09 46.1001 710.82 45.8301 710.82 45.4901C710.82 45.1601 711.1 44.8901 711.43 44.8901H712.72C712.68 44.3701 712.61 43.8401 712.51 43.3301L711.52 43.6601C711.2 43.7701 710.86 43.6001 710.75 43.2801C710.64 42.9601 710.82 42.6201 711.13 42.5101L712.23 42.1401C712.11 41.7201 711.97 41.3101 711.82 40.9101L710.86 41.3601C710.56 41.5001 710.2 41.3701 710.06 41.0701C709.92 40.7701 710.05 40.4101 710.35 40.2701L711.33 39.8101C711.15 39.4501 710.96 39.1001 710.74 38.7601L709.84 39.5101C709.58 39.7201 709.2 39.6901 708.99 39.4401C708.78 39.1801 708.81 38.8001 709.06 38.5901L710.05 37.7601C709.84 37.4801 709.62 37.2001 709.39 36.9401L708.47 37.9201C708.24 38.1601 707.86 38.1801 707.62 37.9501C707.38 37.7201 707.36 37.3401 707.59 37.1001L708.55 36.0701C708.34 35.8701 708.11 35.6701 707.88 35.4801L707.11 36.4901C706.91 36.7601 706.53 36.8101 706.26 36.6101C705.99 36.4101 705.94 36.0301 706.14 35.7601L706.91 34.7501C706.56 34.5101 706.21 34.2801 705.83 34.0801C705.77 34.2201 705.7 34.3601 705.65 34.5101C703.22 40.5401 706.12 47.4001 712.14 49.8501C712.28 49.4001 712.39 48.9501 712.48 48.5001L711.01 48.1901C710.68 48.1201 710.47 47.8001 710.54 47.4701L710.56 47.4401Z" fill="#2E59A6"/>
<path d="M517.59 154.75H519.26V165.37H517.59V154.75Z" fill="#717071"/>
<path d="M522.97 157.43H524.32L524.46 158.54H524.49C525.21 157.82 526.03 157.24 527.11 157.24C528.8 157.24 529.54 158.36 529.54 160.38V165.36H527.88V160.58C527.88 159.21 527.48 158.68 526.54 158.68C525.81 158.68 525.32 159.04 524.61 159.75V165.37H522.95V157.43H522.97Z" fill="#717071"/>
<path d="M532.51 161.4C532.51 158.82 534.14 157.24 535.89 157.24C536.81 157.24 537.39 157.57 538.02 158.13L537.96 156.82V153.88H539.62V165.36H538.27L538.13 164.47H538.09C537.5 165.08 536.68 165.57 535.77 165.57C533.8 165.57 532.52 164.04 532.52 161.41L532.51 161.4ZM537.96 163.2V159.34C537.37 158.81 536.81 158.62 536.22 158.62C535.13 158.62 534.22 159.67 534.22 161.39C534.22 163.11 534.93 164.17 536.16 164.17C536.82 164.17 537.38 163.88 537.96 163.2Z" fill="#717071"/>
<path d="M542.99 154.95C542.99 154.37 543.41 153.97 544.03 153.97C544.65 153.97 545.05 154.37 545.05 154.95C545.05 155.57 544.63 155.96 544.03 155.96C543.43 155.96 542.99 155.57 542.99 154.95ZM543.19 157.43H544.85V165.37H543.19V157.43Z" fill="#717071"/>
<path d="M547.84 166.829C547.84 166.169 548.26 165.55 548.99 165.1V165.04C548.59 164.77 548.27 164.349 548.27 163.719C548.27 163.089 548.7 162.549 549.16 162.249V162.189C548.61 161.769 548.11 161.02 548.11 160.07C548.11 158.28 549.54 157.229 551.18 157.229C551.63 157.229 552.03 157.319 552.33 157.419H555.14V158.669H553.64C553.93 158.999 554.14 159.519 554.14 160.109C554.14 161.849 552.83 162.85 551.17 162.85C550.82 162.85 550.41 162.76 550.06 162.62C549.81 162.84 549.63 163.049 549.63 163.439C549.63 163.899 549.95 164.219 550.96 164.219H552.43C554.29 164.219 555.27 164.799 555.27 166.139C555.27 167.679 553.67 168.919 551.14 168.919C549.22 168.919 547.84 168.209 547.84 166.829ZM553.66 166.419C553.66 165.759 553.14 165.559 552.19 165.559H550.99C550.61 165.559 550.26 165.529 549.92 165.439C549.45 165.789 549.26 166.189 549.26 166.589C549.26 167.349 550.05 167.829 551.36 167.829C552.74 167.829 553.65 167.149 553.65 166.419H553.66ZM552.68 160.079C552.68 159.029 552.02 158.41 551.18 158.41C550.34 158.41 549.68 159.009 549.68 160.079C549.68 161.149 550.36 161.779 551.18 161.779C552 161.779 552.68 161.149 552.68 160.079Z" fill="#717071"/>
<path d="M557.02 161.4C557.02 158.82 558.79 157.24 560.64 157.24C562.74 157.24 563.88 158.75 563.88 160.99C563.88 161.32 563.84 161.64 563.79 161.84H558.65C558.78 163.35 559.73 164.26 561.1 164.26C561.81 164.26 562.41 164.04 562.99 163.67L563.57 164.72C562.85 165.21 561.93 165.57 560.9 165.57C558.73 165.57 557.02 164.03 557.02 161.41V161.4ZM562.43 160.68C562.43 159.33 561.81 158.55 560.66 158.55C559.67 158.55 558.79 159.3 558.63 160.68H562.43Z" fill="#717071"/>
<path d="M566.81 157.43H568.16L568.3 158.54H568.33C569.05 157.82 569.87 157.24 570.95 157.24C572.63 157.24 573.38 158.36 573.38 160.38V165.36H571.72V160.58C571.72 159.21 571.32 158.68 570.38 158.68C569.65 158.68 569.16 159.04 568.45 159.75V165.37H566.79V157.43H566.81Z" fill="#717071"/>
<path d="M576.32 161.4C576.32 158.76 578.09 157.24 580.07 157.24C582.05 157.24 583.79 158.77 583.79 161.4C583.79 164.03 582.03 165.56 580.07 165.56C578.11 165.56 576.32 164.03 576.32 161.4ZM582.08 161.4C582.08 159.73 581.3 158.61 580.06 158.61C578.82 158.61 578.03 159.73 578.03 161.4C578.03 163.07 578.81 164.18 580.06 164.18C581.31 164.18 582.08 163.08 582.08 161.4Z" fill="#717071"/>
<path d="M586.7 162.42V157.42H588.37V162.22C588.37 163.57 588.77 164.12 589.7 164.12C590.43 164.12 590.95 163.77 591.6 162.94V157.42H593.27V165.36H591.9L591.77 164.16H591.73C591.01 164.99 590.23 165.56 589.15 165.56C587.45 165.56 586.7 164.44 586.7 162.42Z" fill="#717071"/>
<path d="M595.99 164.46L596.78 163.38C597.47 163.94 598.16 164.3 599.01 164.3C599.95 164.3 600.39 163.84 600.39 163.23C600.39 162.51 599.51 162.19 598.65 161.86C597.6 161.46 596.43 160.89 596.43 159.56C596.43 158.23 597.5 157.24 599.25 157.24C600.3 157.24 601.19 157.67 601.81 158.18L601.05 159.2C600.49 158.8 599.93 158.51 599.29 158.51C598.4 158.51 597.99 158.94 597.99 159.49C597.99 160.15 598.77 160.41 599.65 160.74C600.75 161.16 601.97 161.65 601.97 163.13C601.97 164.47 600.92 165.56 598.96 165.56C597.87 165.56 596.74 165.08 595.98 164.45L595.99 164.46Z" fill="#717071"/>
<path d="M503.44 181.26C503.44 177.82 505.56 175.74 508.25 175.74C509.56 175.74 510.6 176.37 511.25 177.08L510.36 178.15C509.8 177.6 509.14 177.2 508.29 177.2C506.46 177.2 505.18 178.73 505.18 181.22C505.18 183.71 506.38 185.28 508.25 185.28C509.21 185.28 509.95 184.83 510.58 184.14L511.49 185.21C510.63 186.2 509.56 186.75 508.18 186.75C505.51 186.75 503.46 184.75 503.46 181.26H503.44Z" fill="#717071"/>
<path d="M514.27 178.61H515.62L515.76 180.04H515.79C516.35 179.03 517.19 178.43 518.05 178.43C518.44 178.43 518.68 178.49 518.93 178.59L518.64 180.05C518.35 179.96 518.16 179.92 517.83 179.92C517.18 179.92 516.4 180.37 515.91 181.63V186.56H514.25V178.62L514.27 178.61Z" fill="#717071"/>
<path d="M520.38 184.44C520.38 182.73 521.82 181.85 525.12 181.49C525.11 180.58 524.77 179.78 523.61 179.78C522.78 179.78 522 180.15 521.32 180.59L520.7 179.47C521.52 178.95 522.63 178.43 523.9 178.43C525.87 178.43 526.78 179.67 526.78 181.79V186.56H525.43L525.3 185.65H525.24C524.52 186.27 523.67 186.76 522.72 186.76C521.35 186.76 520.39 185.85 520.39 184.46L520.38 184.44ZM525.12 184.48V182.55C522.77 182.82 521.98 183.43 521.98 184.31C521.98 185.1 522.51 185.42 523.22 185.42C523.93 185.42 524.47 185.09 525.12 184.48Z" fill="#717071"/>
<path d="M529.39 178.71L530.47 178.62V177.63C530.47 176 531.22 174.88 532.98 174.88C533.53 174.88 534.02 175 534.38 175.14L534.05 176.39C533.78 176.26 533.46 176.2 533.19 176.2C532.48 176.2 532.14 176.66 532.14 177.61V178.6H533.74V179.94H532.14V186.54H530.48V179.94H529.4V178.7L529.39 178.71Z" fill="#717071"/>
<path d="M536.52 183.95V179.95H535.37V178.71L536.61 178.61L536.8 176.42H538.18V178.61H540.24V179.95H538.18V183.97C538.18 184.92 538.51 185.41 539.35 185.41C539.61 185.41 539.95 185.31 540.18 185.22L540.48 186.44C540.05 186.58 539.5 186.74 538.92 186.74C537.15 186.74 536.51 185.62 536.51 183.95H536.52Z" fill="#717071"/>
<path d="M542.05 185.63L542.84 184.55C543.53 185.11 544.22 185.47 545.07 185.47C546.01 185.47 546.45 185.01 546.45 184.4C546.45 183.68 545.57 183.36 544.71 183.03C543.66 182.63 542.49 182.07 542.49 180.73C542.49 179.39 543.56 178.41 545.31 178.41C546.36 178.41 547.25 178.84 547.87 179.35L547.11 180.37C546.55 179.97 545.99 179.68 545.35 179.68C544.46 179.68 544.05 180.11 544.05 180.66C544.05 181.32 544.83 181.58 545.71 181.91C546.81 182.33 548.03 182.82 548.03 184.3C548.03 185.64 546.98 186.73 545.02 186.73C543.93 186.73 542.8 186.26 542.04 185.62L542.05 185.63Z" fill="#717071"/>
<path d="M550.88 178.61H552.23L552.37 179.73H552.4C553.09 179 553.87 178.42 554.86 178.42C556.04 178.42 556.69 178.97 557.03 179.88C557.82 179.04 558.61 178.42 559.61 178.42C561.27 178.42 562.04 179.54 562.04 181.56V186.54H560.37V181.76C560.37 180.39 559.97 179.86 559.06 179.86C558.53 179.86 557.94 180.21 557.27 180.93V186.55H555.61V181.77C555.61 180.4 555.19 179.87 554.28 179.87C553.75 179.87 553.16 180.22 552.51 180.94V186.56H550.85V178.62L550.88 178.61Z" fill="#717071"/>
<path d="M565.08 184.44C565.08 182.73 566.52 181.85 569.82 181.49C569.81 180.58 569.47 179.78 568.31 179.78C567.48 179.78 566.7 180.15 566.02 180.59L565.4 179.47C566.22 178.95 567.33 178.43 568.6 178.43C570.57 178.43 571.48 179.67 571.48 181.79V186.56H570.13L570 185.65H569.94C569.22 186.27 568.37 186.76 567.42 186.76C566.05 186.76 565.09 185.85 565.09 184.46L565.08 184.44ZM569.82 184.48V182.55C567.47 182.82 566.68 183.43 566.68 184.31C566.68 185.1 567.21 185.42 567.92 185.42C568.63 185.42 569.17 185.09 569.82 184.48Z" fill="#717071"/>
<path d="M574.9 178.61H576.25L576.39 179.72H576.42C577.14 179 577.96 178.42 579.04 178.42C580.73 178.42 581.47 179.54 581.47 181.56V186.54H579.81V181.76C579.81 180.39 579.41 179.86 578.47 179.86C577.73 179.86 577.25 180.22 576.54 180.93V186.55H574.88V178.61H574.9Z" fill="#717071"/>
<path d="M584.14 185.63L584.93 184.55C585.62 185.11 586.31 185.47 587.16 185.47C588.1 185.47 588.54 185.01 588.54 184.4C588.54 183.68 587.66 183.36 586.8 183.03C585.75 182.63 584.58 182.07 584.58 180.73C584.58 179.39 585.65 178.41 587.4 178.41C588.45 178.41 589.34 178.84 589.96 179.35L589.2 180.37C588.64 179.97 588.08 179.68 587.44 179.68C586.55 179.68 586.14 180.11 586.14 180.66C586.14 181.32 586.92 181.58 587.8 181.91C588.89 182.33 590.12 182.82 590.12 184.3C590.12 185.64 589.07 186.73 587.11 186.73C586.02 186.73 584.89 186.26 584.13 185.62L584.14 185.63Z" fill="#717071"/>
<path d="M592.96 175.06H594.62V178.1L594.55 179.67C595.24 178.99 596.03 178.42 597.11 178.42C598.8 178.42 599.54 179.54 599.54 181.56V186.54H597.88V181.76C597.88 180.39 597.48 179.86 596.54 179.86C595.81 179.86 595.32 180.22 594.61 180.93V186.55H592.95V175.07L592.96 175.06Z" fill="#717071"/>
<path d="M602.79 176.129C602.79 175.549 603.21 175.149 603.83 175.149C604.45 175.149 604.85 175.549 604.85 176.129C604.85 176.749 604.43 177.139 603.83 177.139C603.23 177.139 602.79 176.749 602.79 176.129ZM602.99 178.609H604.65V186.549H602.99V178.609Z" fill="#717071"/>
<path d="M608.21 178.61H609.56L609.7 179.49H609.73C610.42 178.91 611.29 178.42 612.18 178.42C614.18 178.42 615.31 180 615.31 182.45C615.31 185.17 613.68 186.74 611.9 186.74C611.21 186.74 610.49 186.41 609.83 185.83L609.87 187.18V189.74H608.21V178.59V178.61ZM613.6 182.48C613.6 180.82 613.07 179.8 611.74 179.8C611.12 179.8 610.53 180.13 609.87 180.76V184.64C610.49 185.16 611.11 185.35 611.58 185.35C612.73 185.35 613.6 184.33 613.6 182.48Z" fill="#717071"/>
<path d="M684.11 154.75H685.78V159.09H690.32V154.75H691.99V165.37H690.32V160.54H685.78V165.37H684.11V154.75Z" fill="#717071"/>
<path d="M695.16 161.4C695.16 158.76 696.93 157.24 698.91 157.24C700.89 157.24 702.63 158.77 702.63 161.4C702.63 164.03 700.87 165.56 698.91 165.56C696.95 165.56 695.16 164.03 695.16 161.4ZM700.92 161.4C700.92 159.73 700.14 158.61 698.9 158.61C697.66 158.61 696.87 159.73 696.87 161.4C696.87 163.07 697.65 164.18 698.9 164.18C700.15 164.18 700.92 163.08 700.92 161.4Z" fill="#717071"/>
<path d="M705.65 157.43H707L707.14 158.55H707.17C707.86 157.82 708.64 157.24 709.63 157.24C710.81 157.24 711.46 157.79 711.8 158.7C712.59 157.86 713.38 157.24 714.38 157.24C716.04 157.24 716.81 158.36 716.81 160.38V165.36H715.14V160.58C715.14 159.21 714.74 158.68 713.83 158.68C713.3 158.68 712.71 159.03 712.04 159.75V165.37H710.38V160.59C710.38 159.22 709.96 158.69 709.05 158.69C708.52 158.69 707.93 159.04 707.28 159.76V165.38H705.62V157.44L705.65 157.43Z" fill="#717071"/>
<path d="M719.75 161.4C719.75 158.82 721.52 157.24 723.37 157.24C725.47 157.24 726.61 158.75 726.61 160.99C726.61 161.32 726.57 161.64 726.52 161.84H721.38C721.51 163.35 722.46 164.26 723.83 164.26C724.54 164.26 725.14 164.04 725.72 163.67L726.3 164.72C725.58 165.21 724.66 165.57 723.63 165.57C721.46 165.57 719.75 164.03 719.75 161.41V161.4ZM725.17 160.68C725.17 159.33 724.55 158.55 723.4 158.55C722.41 158.55 721.53 159.3 721.37 160.68H725.17Z" fill="#717071"/>
<path d="M729.65 162.77V158.77H728.5V157.53L729.74 157.43L729.93 155.24H731.31V157.43H733.37V158.77H731.31V162.79C731.31 163.74 731.64 164.23 732.48 164.23C732.74 164.23 733.08 164.13 733.31 164.04L733.61 165.26C733.18 165.4 732.63 165.56 732.05 165.56C730.28 165.56 729.64 164.44 729.64 162.77H729.65Z" fill="#717071"/>
<path d="M735.36 161.4C735.36 158.76 737.13 157.24 739.1 157.24C741.07 157.24 742.82 158.77 742.82 161.4C742.82 164.03 741.06 165.56 739.1 165.56C737.14 165.56 735.36 164.03 735.36 161.4ZM741.13 161.4C741.13 159.73 740.35 158.61 739.11 158.61C737.87 158.61 737.08 159.73 737.08 161.4C737.08 163.07 737.86 164.18 739.11 164.18C740.36 164.18 741.13 163.08 741.13 161.4Z" fill="#717071"/>
<path d="M744.91 157.43H746.58L747.63 161.72C747.79 162.5 747.92 163.22 748.06 163.98H748.13C748.29 163.22 748.45 162.48 748.63 161.72L749.75 157.43H751.28L752.42 161.72C752.61 162.5 752.77 163.22 752.95 163.98H753.02C753.16 163.22 753.29 162.5 753.47 161.72L754.49 157.43H756.06L754 165.37H752.01L751 161.45C750.81 160.7 750.67 159.98 750.5 159.16H750.43C750.27 159.98 750.13 160.72 749.94 161.46L748.96 165.36H747.03L744.9 157.42L744.91 157.43Z" fill="#717071"/>
<path d="M758.8 157.43H760.15L760.29 158.54H760.32C761.04 157.82 761.86 157.24 762.94 157.24C764.63 157.24 765.37 158.36 765.37 160.38V165.36H763.71V160.58C763.71 159.21 763.31 158.68 762.37 158.68C761.64 158.68 761.15 159.04 760.44 159.75V165.37H758.78V157.43H758.8Z" fill="#717071"/>
<path d="M772.62 161.4C772.62 158.76 774.39 157.24 776.37 157.24C778.35 157.24 780.09 158.77 780.09 161.4C780.09 164.03 778.33 165.56 776.37 165.56C774.41 165.56 772.62 164.03 772.62 161.4ZM778.38 161.4C778.38 159.73 777.6 158.61 776.36 158.61C775.12 158.61 774.33 159.73 774.33 161.4C774.33 163.07 775.11 164.18 776.36 164.18C777.61 164.18 778.38 163.08 778.38 161.4Z" fill="#717071"/>
<path d="M782.27 157.53L783.35 157.44V156.45C783.35 154.82 784.1 153.7 785.86 153.7C786.41 153.7 786.9 153.82 787.26 153.96L786.93 155.21C786.66 155.08 786.34 155.02 786.06 155.02C785.35 155.02 785.01 155.48 785.01 156.43V157.42H786.61V158.76H785.01V165.36H783.35V158.76H782.27V157.52V157.53Z" fill="#717071"/>
<path d="M703.05 175.93H706.35C708.51 175.93 710.08 176.64 710.08 178.54C710.08 179.56 709.53 180.53 708.57 180.84V180.91C709.78 181.16 710.66 181.99 710.66 183.43C710.66 185.53 708.96 186.54 706.6 186.54H703.06V175.92L703.05 175.93ZM706.14 180.36C707.75 180.36 708.43 179.76 708.43 178.76C708.43 177.67 707.68 177.23 706.18 177.23H704.71V180.35H706.14V180.36ZM706.4 185.23C708.06 185.23 709.01 184.64 709.01 183.34C709.01 182.16 708.09 181.63 706.4 181.63H704.72V185.23H706.4Z" fill="#717071"/>
<path d="M713.13 184.44C713.13 182.73 714.57 181.85 717.87 181.49C717.86 180.58 717.52 179.78 716.36 179.78C715.52 179.78 714.75 180.15 714.07 180.59L713.45 179.47C714.27 178.95 715.38 178.43 716.65 178.43C718.62 178.43 719.53 179.67 719.53 181.79V186.56H718.18L718.05 185.65H717.99C717.27 186.27 716.42 186.76 715.47 186.76C714.1 186.76 713.14 185.85 713.14 184.46L713.13 184.44ZM717.87 184.48V182.55C715.52 182.82 714.73 183.43 714.73 184.31C714.73 185.1 715.26 185.42 715.97 185.42C716.68 185.42 717.22 185.09 717.87 184.48Z" fill="#717071"/>
<path d="M722.11 185.63L722.9 184.55C723.59 185.11 724.28 185.47 725.13 185.47C726.07 185.47 726.51 185.01 726.51 184.4C726.51 183.68 725.63 183.36 724.77 183.03C723.72 182.63 722.55 182.07 722.55 180.73C722.55 179.39 723.62 178.41 725.37 178.41C726.42 178.41 727.31 178.84 727.93 179.35L727.17 180.37C726.61 179.97 726.05 179.68 725.41 179.68C724.52 179.68 724.11 180.11 724.11 180.66C724.11 181.32 724.89 181.58 725.77 181.91C726.86 182.33 728.09 182.82 728.09 184.3C728.09 185.64 727.04 186.73 725.08 186.73C723.99 186.73 722.86 186.26 722.1 185.62L722.11 185.63Z" fill="#717071"/>
<path d="M730.38 182.58C730.38 180 732.15 178.42 734 178.42C736.1 178.42 737.24 179.93 737.24 182.17C737.24 182.5 737.2 182.82 737.15 183.02H732.01C732.14 184.53 733.09 185.44 734.46 185.44C735.17 185.44 735.77 185.22 736.35 184.85L736.93 185.9C736.21 186.39 735.29 186.75 734.26 186.75C732.09 186.75 730.39 185.21 730.39 182.59L730.38 182.58ZM735.8 181.86C735.8 180.51 735.18 179.73 734.03 179.73C733.04 179.73 732.16 180.48 732 181.86H735.8Z" fill="#717071"/>
<path d="M741.69 185.72H741.63L741.49 186.54H740.18V175.06H741.84V178.1L741.78 179.45C742.47 178.85 743.31 178.41 744.14 178.41C746.14 178.41 747.28 179.99 747.28 182.44C747.28 185.16 745.65 186.73 743.87 186.73C743.15 186.73 742.36 186.36 741.7 185.71L741.69 185.72ZM745.56 182.48C745.56 180.82 745.03 179.8 743.7 179.8C743.08 179.8 742.48 180.13 741.83 180.76V184.64C742.44 185.16 743.07 185.35 743.54 185.35C744.69 185.35 745.56 184.33 745.56 182.48Z" fill="#717071"/>
<path d="M749.64 184.44C749.64 182.73 751.08 181.85 754.38 181.49C754.37 180.58 754.03 179.78 752.87 179.78C752.03 179.78 751.26 180.15 750.58 180.59L749.96 179.47C750.78 178.95 751.89 178.43 753.16 178.43C755.13 178.43 756.04 179.67 756.04 181.79V186.56H754.69L754.56 185.65H754.5C753.78 186.27 752.93 186.76 751.98 186.76C750.61 186.76 749.65 185.85 749.65 184.46L749.64 184.44ZM754.38 184.48V182.55C752.03 182.82 751.24 183.43 751.24 184.31C751.24 185.1 751.77 185.42 752.48 185.42C753.19 185.42 753.73 185.09 754.38 184.48Z" fill="#717071"/>
<path d="M759.46 184.67V175.06H761.12V184.75C761.12 185.2 761.31 185.35 761.51 185.35C761.58 185.35 761.64 185.35 761.8 185.32L762 186.57C761.8 186.66 761.52 186.73 761.11 186.73C759.91 186.73 759.47 185.95 759.47 184.66L759.46 184.67Z" fill="#717071"/>
<path d="M764.83 184.67V175.06H766.49V184.75C766.49 185.2 766.68 185.35 766.88 185.35C766.95 185.35 767.01 185.35 767.17 185.32L767.37 186.57C767.17 186.66 766.9 186.73 766.48 186.73C765.28 186.73 764.84 185.95 764.84 184.66L764.83 184.67Z" fill="#717071"/>
<path d="M205.79 154.75H209C211.36 154.75 213.06 155.57 213.06 157.98C213.06 160.39 211.36 161.35 209.06 161.35H207.46V165.37H205.79V154.75ZM208.92 159.99C210.59 159.99 211.41 159.34 211.41 157.97C211.41 156.6 210.53 156.1 208.85 156.1H207.47V159.99H208.92Z" fill="#717071"/>
<path d="M215.12 161.4C215.12 158.82 216.89 157.24 218.74 157.24C220.84 157.24 221.98 158.75 221.98 160.99C221.98 161.32 221.94 161.64 221.89 161.84H216.75C216.88 163.35 217.83 164.26 219.2 164.26C219.91 164.26 220.51 164.04 221.09 163.67L221.67 164.72C220.95 165.21 220.03 165.57 219.01 165.57C216.83 165.57 215.14 164.03 215.14 161.41L215.12 161.4ZM220.54 160.68C220.54 159.33 219.92 158.55 218.77 158.55C217.78 158.55 216.9 159.3 216.74 160.68H220.54Z" fill="#717071"/>
<path d="M224.08 164.46L224.87 163.38C225.56 163.94 226.25 164.3 227.1 164.3C228.04 164.3 228.48 163.84 228.48 163.23C228.48 162.51 227.6 162.19 226.74 161.86C225.69 161.46 224.52 160.9 224.52 159.56C224.52 158.22 225.59 157.24 227.34 157.24C228.39 157.24 229.28 157.67 229.9 158.18L229.14 159.2C228.58 158.8 228.02 158.51 227.38 158.51C226.49 158.51 226.08 158.94 226.08 159.49C226.08 160.15 226.86 160.41 227.74 160.74C228.83 161.16 230.06 161.65 230.06 163.13C230.06 164.47 229.01 165.56 227.05 165.56C225.96 165.56 224.83 165.09 224.07 164.45L224.08 164.46Z" fill="#717071"/>
<path d="M232.85 162.77V158.77H231.7V157.53L232.94 157.43L233.13 155.24H234.51V157.43H236.57V158.77H234.51V162.79C234.51 163.74 234.84 164.23 235.68 164.23C235.94 164.23 236.28 164.13 236.52 164.04L236.82 165.26C236.39 165.4 235.84 165.56 235.26 165.56C233.49 165.56 232.85 164.44 232.85 162.77Z" fill="#717071"/>
<path d="M239.38 163.49V153.88H241.04V163.57C241.04 164.02 241.23 164.17 241.43 164.17C241.5 164.17 241.56 164.17 241.72 164.14L241.92 165.39C241.72 165.48 241.44 165.55 241.03 165.55C239.83 165.55 239.39 164.77 239.39 163.48L239.38 163.49Z" fill="#717071"/>
<path d="M244.19 161.4C244.19 158.82 245.96 157.24 247.81 157.24C249.91 157.24 251.05 158.75 251.05 160.99C251.05 161.32 251.01 161.64 250.96 161.84H245.82C245.95 163.35 246.9 164.26 248.27 164.26C248.98 164.26 249.58 164.04 250.16 163.67L250.74 164.72C250.02 165.21 249.1 165.57 248.08 165.57C245.9 165.57 244.2 164.03 244.2 161.41L244.19 161.4ZM249.6 160.68C249.6 159.33 248.98 158.55 247.83 158.55C246.84 158.55 245.96 159.3 245.8 160.68H249.6Z" fill="#717071"/>
<path d="M186.05 184.44C186.05 182.73 187.49 181.85 190.79 181.49C190.78 180.58 190.44 179.78 189.28 179.78C188.44 179.78 187.67 180.16 186.99 180.59L186.37 179.47C187.19 178.95 188.3 178.43 189.57 178.43C191.54 178.43 192.45 179.67 192.45 181.79V186.56H191.1L190.97 185.65H190.91C190.19 186.27 189.34 186.76 188.39 186.76C187.02 186.76 186.06 185.85 186.06 184.46L186.05 184.44ZM190.79 184.48V182.55C188.44 182.82 187.65 183.43 187.65 184.31C187.65 185.1 188.18 185.42 188.89 185.42C189.6 185.42 190.14 185.09 190.79 184.48Z" fill="#717071"/>
<path d="M195.87 178.61H197.22L197.36 179.72H197.39C198.11 179 198.93 178.42 200.01 178.42C201.7 178.42 202.44 179.54 202.44 181.56V186.54H200.78V181.76C200.78 180.39 200.38 179.86 199.44 179.86C198.71 179.86 198.22 180.22 197.51 180.93V186.55H195.85V178.61H195.87Z" fill="#717071"/>
<path d="M205.4 182.58C205.4 180 207.03 178.42 208.79 178.42C209.71 178.42 210.29 178.75 210.92 179.31L210.86 178V175.06H212.52V186.54H211.17L211.03 185.65H210.99C210.4 186.26 209.58 186.75 208.67 186.75C206.7 186.75 205.41 185.22 205.41 182.59L205.4 182.58ZM210.86 184.38V180.52C210.27 179.99 209.71 179.8 209.12 179.8C208.03 179.8 207.12 180.85 207.12 182.57C207.12 184.29 207.83 185.35 209.06 185.35C209.72 185.35 210.28 185.06 210.86 184.38Z" fill="#717071"/>
<path d="M220.55 175.93H222.48L224.41 181.3C224.65 181.99 224.89 182.73 225.12 183.43H225.19C225.44 182.72 225.65 181.99 225.88 181.3L227.78 175.93H229.72V186.55H228.16V181.31C228.16 180.36 228.29 178.99 228.39 178.03H228.32L227.47 180.48L225.63 185.54H224.59L222.73 180.48L221.88 178.03H221.82C221.92 178.99 222.05 180.36 222.05 181.31V186.55H220.54V175.93H220.55Z" fill="#717071"/>
<path d="M232.88 182.58C232.88 179.94 234.65 178.42 236.63 178.42C238.61 178.42 240.35 179.95 240.35 182.58C240.35 185.21 238.59 186.74 236.63 186.74C234.67 186.74 232.88 185.21 232.88 182.58ZM238.64 182.58C238.64 180.91 237.86 179.79 236.62 179.79C235.38 179.79 234.59 180.91 234.59 182.58C234.59 184.25 235.37 185.36 236.62 185.36C237.87 185.36 238.64 184.26 238.64 182.58Z" fill="#717071"/>
<path d="M243.38 178.61H244.73L244.87 180.04H244.9C245.46 179.03 246.3 178.43 247.16 178.43C247.55 178.43 247.79 178.49 248.04 178.59L247.75 180.05C247.46 179.96 247.27 179.92 246.94 179.92C246.29 179.92 245.51 180.37 245.02 181.63V186.56H243.36V178.62L243.38 178.61Z" fill="#717071"/>
<path d="M250.61 183.95V179.95H249.46V178.71L250.7 178.61L250.89 176.42H252.27V178.61H254.33V179.95H252.27V183.97C252.27 184.92 252.6 185.41 253.44 185.41C253.7 185.41 254.04 185.31 254.27 185.22L254.57 186.44C254.14 186.58 253.59 186.74 253.01 186.74C251.24 186.74 250.6 185.62 250.6 183.95H250.61Z" fill="#717071"/>
<path d="M256.33 184.44C256.33 182.73 257.77 181.85 261.07 181.49C261.06 180.58 260.72 179.78 259.56 179.78C258.72 179.78 257.95 180.16 257.27 180.59L256.65 179.47C257.47 178.95 258.58 178.43 259.85 178.43C261.82 178.43 262.73 179.67 262.73 181.79V186.56H261.38L261.25 185.65H261.19C260.47 186.27 259.62 186.76 258.67 186.76C257.3 186.76 256.34 185.85 256.34 184.46L256.33 184.44ZM261.07 184.48V182.55C258.72 182.82 257.93 183.43 257.93 184.31C257.93 185.1 258.46 185.42 259.17 185.42C259.88 185.42 260.42 185.09 261.07 184.48Z" fill="#717071"/>
<path d="M266.15 178.61H267.5L267.64 180.04H267.67C268.23 179.03 269.07 178.43 269.93 178.43C270.32 178.43 270.56 178.49 270.81 178.59L270.52 180.05C270.23 179.96 270.04 179.92 269.71 179.92C269.06 179.92 268.28 180.37 267.79 181.63V186.56H266.13V178.62L266.15 178.61Z" fill="#717071"/>
<path d="M18.54 165.34H24.82V166.75H20.21V169.99H24.14V171.39H20.21V175.96H18.54V165.34Z" fill="#717071"/>
<path d="M27.6299 174.08V164.47H29.2899V174.16C29.2899 174.61 29.4799 174.77 29.6799 174.77C29.7499 174.77 29.8099 174.77 29.9699 174.74L30.1699 175.99C29.9699 176.08 29.6899 176.15 29.2799 176.15C28.0799 176.15 27.6399 175.37 27.6399 174.08H27.6299Z" fill="#717071"/>
<path d="M32.3599 179.11L32.6799 177.81C32.8199 177.85 33.0499 177.93 33.2699 177.93C34.1199 177.93 34.6199 177.3 34.9099 176.45L35.0799 175.9L31.9399 168.02H33.6299L35.0899 172.11C35.3399 172.82 35.5799 173.59 35.8199 174.34H35.8899C36.0899 173.61 36.3099 172.83 36.5099 172.11L37.7899 168.02H39.3899L36.4799 176.43C35.8599 178.13 35.0199 179.27 33.3699 179.27C32.9499 179.27 32.6399 179.21 32.3599 179.11Z" fill="#717071"/>
<path d="M41.71 165.54C41.71 164.96 42.13 164.56 42.75 164.56C43.37 164.56 43.77 164.96 43.77 165.54C43.77 166.16 43.35 166.55 42.75 166.55C42.15 166.55 41.71 166.16 41.71 165.54ZM41.91 168.02H43.57V175.96H41.91V168.02Z" fill="#717071"/>
<path d="M47.1401 168.02H48.4901L48.6301 169.13H48.6601C49.3801 168.41 50.2001 167.83 51.2801 167.83C52.9701 167.83 53.7101 168.95 53.7101 170.97V175.95H52.0501V171.17C52.0501 169.8 51.6501 169.27 50.7101 169.27C49.9801 169.27 49.4901 169.63 48.7801 170.34V175.96H47.1201V168.02H47.1401Z" fill="#717071"/>
<path d="M56.6299 177.419C56.6299 176.759 57.0499 176.139 57.7799 175.689V175.629C57.3799 175.359 57.0599 174.939 57.0599 174.309C57.0599 173.679 57.4899 173.139 57.9499 172.839V172.779C57.3999 172.359 56.8999 171.609 56.8999 170.659C56.8999 168.869 58.3299 167.819 59.9699 167.819C60.4199 167.819 60.8199 167.909 61.1199 168.009H63.9299V169.259H62.4299C62.7199 169.589 62.9299 170.109 62.9299 170.699C62.9299 172.439 61.6199 173.439 59.9599 173.439C59.6099 173.439 59.1999 173.349 58.8499 173.209C58.5999 173.429 58.4199 173.639 58.4199 174.029C58.4199 174.489 58.7399 174.809 59.7499 174.809H61.2199C63.0799 174.809 64.0599 175.389 64.0599 176.729C64.0599 178.269 62.4599 179.509 59.9299 179.509C58.0099 179.509 56.6299 178.799 56.6299 177.419ZM62.4499 176.999C62.4499 176.339 61.9299 176.139 60.9799 176.139H59.7799C59.3999 176.139 59.0499 176.109 58.7099 176.019C58.2299 176.369 58.0499 176.769 58.0499 177.169C58.0499 177.929 58.8399 178.409 60.1499 178.409C61.5299 178.409 62.4399 177.729 62.4399 176.999H62.4499ZM61.4699 170.669C61.4699 169.619 60.8099 168.999 59.9699 168.999C59.1299 168.999 58.4699 169.599 58.4699 170.669C58.4699 171.739 59.1499 172.369 59.9699 172.369C60.7899 172.369 61.4699 171.739 61.4699 170.669Z" fill="#717071"/>
<path d="M71.0701 165.34H77.3501V166.75H72.7401V169.99H76.6701V171.39H72.7401V175.96H71.0701V165.34Z" fill="#717071"/>
<path d="M79.96 165.54C79.96 164.96 80.38 164.56 81 164.56C81.62 164.56 82.02 164.96 82.02 165.54C82.02 166.16 81.6 166.55 81 166.55C80.4 166.55 79.96 166.16 79.96 165.54ZM80.16 168.02H81.82V175.96H80.16V168.02Z" fill="#717071"/>
<path d="M84.55 175.05L85.34 173.97C86.03 174.53 86.72 174.89 87.57 174.89C88.51 174.89 88.95 174.43 88.95 173.82C88.95 173.1 88.07 172.78 87.21 172.45C86.16 172.05 84.99 171.48 84.99 170.15C84.99 168.82 86.06 167.83 87.81 167.83C88.86 167.83 89.75 168.26 90.37 168.77L89.61 169.79C89.05 169.39 88.49 169.1 87.85 169.1C86.96 169.1 86.55 169.53 86.55 170.08C86.55 170.74 87.33 171 88.21 171.33C89.3 171.75 90.53 172.24 90.53 173.72C90.53 175.06 89.48 176.15 87.52 176.15C86.43 176.15 85.3 175.67 84.54 175.04L84.55 175.05Z" fill="#717071"/>
<path d="M93.3801 164.47H95.0401V167.51L94.9701 169.08C95.6601 168.4 96.4501 167.83 97.5301 167.83C99.2201 167.83 99.9601 168.95 99.9601 170.97V175.95H98.3001V171.17C98.3001 169.8 97.9001 169.27 96.9601 169.27C96.2301 169.27 95.7401 169.63 95.0301 170.34V175.96H93.3701V164.48L93.3801 164.47Z" fill="#717071"/>
<path d="M349.68 156.16H346.58V154.75H354.49V156.16H351.38V165.36H349.68V156.16Z" fill="#717071"/>
<path d="M356.54 157.43H357.89L358.03 158.86H358.06C358.62 157.85 359.46 157.25 360.32 157.25C360.71 157.25 360.95 157.31 361.2 157.41L360.91 158.87C360.62 158.78 360.43 158.74 360.1 158.74C359.45 158.74 358.67 159.19 358.18 160.45V165.38H356.52V157.44L356.54 157.43Z" fill="#717071"/>
<path d="M363.3 154.95C363.3 154.37 363.72 153.97 364.34 153.97C364.96 153.97 365.36 154.37 365.36 154.95C365.36 155.57 364.94 155.96 364.34 155.96C363.74 155.96 363.3 155.57 363.3 154.95ZM363.51 157.43H365.17V165.37H363.51V157.43Z" fill="#717071"/>
<path d="M368.2 161.4C368.2 158.82 369.83 157.24 371.58 157.24C372.5 157.24 373.08 157.57 373.71 158.13L373.65 156.82V153.88H375.31V165.36H373.96L373.82 164.47H373.78C373.19 165.08 372.37 165.57 371.46 165.57C369.49 165.57 368.2 164.04 368.2 161.41V161.4ZM373.66 163.2V159.34C373.07 158.81 372.51 158.62 371.92 158.62C370.83 158.62 369.92 159.67 369.92 161.39C369.92 163.11 370.63 164.17 371.86 164.17C372.52 164.17 373.08 163.88 373.66 163.2Z" fill="#717071"/>
<path d="M378.33 161.4C378.33 158.82 380.1 157.24 381.95 157.24C384.05 157.24 385.19 158.75 385.19 160.99C385.19 161.32 385.15 161.64 385.1 161.84H379.96C380.09 163.35 381.04 164.26 382.41 164.26C383.12 164.26 383.72 164.04 384.3 163.67L384.88 164.72C384.16 165.21 383.24 165.57 382.21 165.57C380.04 165.57 378.34 164.03 378.34 161.41L378.33 161.4ZM383.74 160.68C383.74 159.33 383.12 158.55 381.97 158.55C380.98 158.55 380.1 159.3 379.94 160.68H383.74Z" fill="#717071"/>
<path d="M388.12 157.43H389.47L389.61 158.54H389.64C390.36 157.82 391.18 157.24 392.26 157.24C393.95 157.24 394.69 158.36 394.69 160.38V165.36H393.03V160.58C393.03 159.21 392.63 158.68 391.69 158.68C390.96 158.68 390.47 159.04 389.76 159.75V165.37H388.1V157.43H388.12Z" fill="#717071"/>
<path d="M398.45 162.77V158.77H397.3V157.53L398.54 157.43L398.73 155.24H400.11V157.43H402.17V158.77H400.11V162.79C400.11 163.74 400.44 164.23 401.28 164.23C401.54 164.23 401.89 164.13 402.12 164.04L402.42 165.26C401.99 165.4 401.44 165.56 400.86 165.56C399.09 165.56 398.45 164.44 398.45 162.77Z" fill="#717071"/>
<path d="M409.43 154.75H415.71V156.16H411.1V159.4H415.03V160.8H411.1V165.37H409.43V154.75Z" fill="#717071"/>
<path d="M418.32 154.95C418.32 154.37 418.74 153.97 419.36 153.97C419.98 153.97 420.38 154.37 420.38 154.95C420.38 155.57 419.96 155.96 419.36 155.96C418.76 155.96 418.32 155.57 418.32 154.95ZM418.52 157.43H420.18V165.37H418.52V157.43Z" fill="#717071"/>
<path d="M422.91 164.46L423.7 163.38C424.39 163.94 425.08 164.3 425.93 164.3C426.87 164.3 427.31 163.84 427.31 163.23C427.31 162.51 426.43 162.19 425.57 161.86C424.52 161.46 423.35 160.89 423.35 159.56C423.35 158.23 424.42 157.24 426.17 157.24C427.22 157.24 428.11 157.67 428.73 158.18L427.97 159.2C427.41 158.8 426.85 158.51 426.21 158.51C425.32 158.51 424.91 158.94 424.91 159.49C424.91 160.15 425.69 160.41 426.57 160.74C427.66 161.16 428.89 161.65 428.89 163.13C428.89 164.47 427.84 165.56 425.88 165.56C424.79 165.56 423.66 165.08 422.9 164.45L422.91 164.46Z" fill="#717071"/>
<path d="M431.74 153.88H433.4V156.92L433.33 158.49C434.02 157.81 434.81 157.24 435.89 157.24C437.58 157.24 438.32 158.36 438.32 160.38V165.36H436.66V160.58C436.66 159.21 436.26 158.68 435.32 158.68C434.59 158.68 434.1 159.04 433.39 159.75V165.37H431.73V153.89L431.74 153.88Z" fill="#717071"/>
<path d="M360.63 175.93H362.3V180.27H366.84V175.93H368.51V186.55H366.84V181.72H362.3V186.55H360.63V175.93Z" fill="#717071"/>
<path d="M371.78 184.44C371.78 182.73 373.22 181.85 376.52 181.49C376.51 180.58 376.17 179.78 375.01 179.78C374.17 179.78 373.4 180.15 372.72 180.59L372.1 179.47C372.92 178.95 374.03 178.43 375.3 178.43C377.27 178.43 378.18 179.67 378.18 181.79V186.56H376.83L376.7 185.65H376.64C375.92 186.27 375.07 186.76 374.12 186.76C372.75 186.76 371.79 185.85 371.79 184.46L371.78 184.44ZM376.52 184.48V182.55C374.17 182.82 373.38 183.43 373.38 184.31C373.38 185.1 373.91 185.42 374.62 185.42C375.33 185.42 375.87 185.09 376.52 184.48Z" fill="#717071"/>
<path d="M381.6 178.61H382.95L383.09 180.04H383.12C383.68 179.03 384.52 178.43 385.38 178.43C385.77 178.43 386.01 178.49 386.26 178.59L385.97 180.05C385.68 179.96 385.5 179.92 385.16 179.92C384.51 179.92 383.73 180.37 383.24 181.63V186.56H381.58V178.62L381.6 178.61Z" fill="#717071"/>
<path d="M388.57 178.61H389.92L390.06 179.49H390.09C390.78 178.91 391.65 178.42 392.54 178.42C394.54 178.42 395.67 180 395.67 182.45C395.67 185.17 394.04 186.74 392.26 186.74C391.57 186.74 390.85 186.41 390.19 185.83L390.23 187.18V189.74H388.57V178.59V178.61ZM393.96 182.48C393.96 180.82 393.43 179.8 392.1 179.8C391.48 179.8 390.89 180.13 390.23 180.76V184.64C390.85 185.16 391.47 185.35 391.94 185.35C393.09 185.35 393.96 184.33 393.96 182.48Z" fill="#717071"/>
<path d="M398.16 182.58C398.16 179.94 399.93 178.42 401.91 178.42C403.89 178.42 405.63 179.95 405.63 182.58C405.63 185.21 403.87 186.74 401.91 186.74C399.95 186.74 398.16 185.21 398.16 182.58ZM403.93 182.58C403.93 180.91 403.15 179.79 401.91 179.79C400.67 179.79 399.88 180.91 399.88 182.58C399.88 184.25 400.66 185.36 401.91 185.36C403.16 185.36 403.93 184.27 403.93 182.58Z" fill="#717071"/>
<path d="M408.1 182.58C408.1 179.94 409.87 178.42 411.85 178.42C413.83 178.42 415.57 179.95 415.57 182.58C415.57 185.21 413.81 186.74 411.85 186.74C409.89 186.74 408.1 185.21 408.1 182.58ZM413.86 182.58C413.86 180.91 413.08 179.79 411.84 179.79C410.6 179.79 409.81 180.91 409.81 182.58C409.81 184.25 410.59 185.36 411.84 185.36C413.09 185.36 413.86 184.27 413.86 182.58Z" fill="#717071"/>
<path d="M418.6 178.61H419.95L420.09 179.72H420.12C420.84 179 421.66 178.42 422.74 178.42C424.43 178.42 425.17 179.54 425.17 181.56V186.54H423.51V181.76C423.51 180.39 423.11 179.86 422.17 179.86C421.44 179.86 420.95 180.22 420.24 180.93V186.55H418.58V178.61H418.6Z" fill="#717071"/>
<path d="M219.4 87.9502C225.38 88.8602 234.12 89.1902 243.93 86.3602C253.2 73.2702 249.91 49.7002 249.91 49.7002C249.91 45.9502 240.18 42.9102 228.18 42.9102C216.18 42.9102 206.45 45.9502 206.45 49.7002C206.45 49.7002 203.15 73.3902 212.5 86.4602C214.41 87.0102 216.74 87.5502 219.4 87.9602V87.9502Z" fill="#5D97C4"/>
<path d="M243.82 88.8301C238.08 90.4301 232.71 90.9801 228.03 90.9801C224.65 90.9801 221.63 90.6901 219.09 90.3001C216.56 89.9101 214.33 89.4101 212.46 88.8901C210.64 90.8201 206.12 96.9801 205.87 110.79C205.87 110.79 209.09 120.04 228.17 120.37C247.25 120.04 250.47 110.79 250.47 110.79C250.22 96.8201 245.59 90.6801 243.82 88.8301Z" fill="#5D97C4"/>
<path d="M236.69 52.16L240.57 38.96L244.51 36.48L253.54 5.71997C254.03 4.06997 253.08 2.32997 251.43 1.84997L245.73 0.169975C244.08 -0.320025 242.34 0.629974 241.86 2.27997L232.83 33.04L234.8 37.25L229.85 52.64C229.85 52.64 233.27 52.86 236.69 52.15V52.16Z" fill="#2E59A6"/>
<path d="M392.62 2.34988V1.62988L392.57 1.98988L392.52 1.62988V2.34988C391.41 7.08988 390.85 11.9499 390.85 16.8199V71.7099H394.28V16.8099C394.28 11.9399 393.72 7.08988 392.61 2.33988L392.62 2.34988Z" fill="#5D97C4"/>
<path d="M379.73 46.8301V16.8101C379.73 11.9401 379.17 7.08012 378.06 2.34012V1.62012L378.01 1.98012L377.96 1.62012V2.34012C376.85 7.08012 376.29 11.9401 376.29 16.8101V47.0501L385.81 60.2101V71.7001H388.99V59.3501L379.72 46.8301H379.73Z" fill="#5D97C4"/>
<path d="M405.41 46.8301V16.8101C405.41 11.9401 405.97 7.08012 407.08 2.34012V1.62012L407.13 1.98012L407.18 1.62012V2.34012C408.29 7.08012 408.85 11.9401 408.85 16.8101V47.0501L399.33 60.2101V71.7001H396.15V59.3501L405.42 46.8301H405.41Z" fill="#5D97C4"/>
<path d="M400.49 71.7002H384.66V95.9202H400.49V71.7002Z" fill="#2E59A6"/>
<path d="M397.63 93.4395H387.52V118.799H397.63V93.4395Z" fill="#2E59A6"/>
<path d="M49.77 49.6699C49.77 49.6699 71.99 60.9599 79.73 83.0399C79.73 83.0399 78.55 57.1399 49.77 49.6699Z" fill="#5D97C4"/>
<path d="M75.1001 83.9099C75.1001 83.9099 74.2501 65.2899 53.5701 59.9199C53.5701 59.9199 69.5401 68.0399 75.1001 83.9099Z" fill="#5D97C4"/>
<path d="M113.94 90.8493C112.4 84.3193 99 80.5193 93.4 78.2493C95.8 65.2993 93.4 49.6693 82.92 40.6793C81.17 40.3093 81.78 41.3793 81.44 42.5093C79.61 48.6893 79.03 55.4093 77.08 61.5793C67.5 49.7893 55.27 38.8693 39.46 37.3193C39.37 40.6693 42.31 44.1693 43.62 47.3793C48.06 58.2693 50.25 68.7593 59.1 77.4593C54.62 77.4993 47.91 81.5193 43.49 82.7393C19.32 78.2293 6.51001 81.3793 0.0100098 84.8193C6.79001 86.1593 16.93 89.9193 18.37 100.529L45.9 86.4393C45.9 86.4393 47.61 86.4793 50.36 86.6293C46.47 87.4593 37.59 94.5593 39.05 95.8493C46.14 96.5893 52.24 94.0993 58.27 90.8293C58.44 89.2593 56.56 90.1293 55.75 90.3993C51.97 91.6593 48.28 93.8093 44.06 93.3393C46.27 89.7993 49.6 87.8293 53.38 86.8293C54.14 86.8793 54.96 86.9493 55.8 87.0193C52.98 87.5593 49.71 89.0093 46.91 92.4893C46.91 92.4893 52.3 88.1693 59.51 87.3593C66.39 88.0693 74.59 89.3093 80.85 91.4693L77.12 88.1593C72.51 84.4493 69.97 82.9493 65.4 79.1093C52.77 68.4893 49.65 56.7893 44.06 41.9193C43.33 39.6493 55.89 46.1193 56.85 46.6893C71.03 55.0293 81.33 69.5693 88.4 84.1493C90.11 82.3693 97.76 84.9393 99.67 86.5893C98.21 87.0493 97.14 88.3393 97.14 89.8693C97.14 90.9093 97.64 91.8393 98.41 92.4793C98.41 92.4893 98.41 92.4993 98.41 92.5093L98.43 92.4893C99.07 93.0093 99.9 93.3393 100.81 93.3393C100.98 93.3393 101.13 93.3093 101.29 93.2893L101.74 94.1793C96.97 94.2293 91.8 92.0593 94.21 86.6593C92.8 86.9493 92.47 88.3493 92.47 89.5893C92.47 97.4893 116 99.5893 113.94 90.8393V90.8493ZM15.43 86.7593C25.18 79.9493 36.67 84.5693 36.67 84.5693C25.35 82.5593 15.43 86.7593 15.43 86.7593ZM18.44 93.2393C26.72 84.6993 38.88 87.0393 38.88 87.0393C27.39 87.2293 18.44 93.2393 18.44 93.2393ZM98.19 89.9693C98.19 88.5793 99.31 87.4593 100.7 87.4593C101.94 87.4593 102.97 88.3693 103.17 89.5593C102.8 88.8393 102.06 88.3193 101.19 88.3193C99.95 88.3193 98.94 89.3293 98.94 90.5693C98.94 91.2793 99.29 91.8793 99.8 92.2993C98.86 91.9393 98.2 91.0293 98.2 89.9693H98.19Z" fill="#5D97C4"/>
<path d="M33.9199 70.8103C34.0299 71.3803 33.2699 71.1303 32.9199 71.1103C26.0399 70.7203 16.5599 66.9403 12.2899 61.3603C8.37988 56.2303 6.85989 47.4803 12.7599 43.2003C16.8599 40.2303 23.6499 42.3003 23.2999 47.8503C23.1399 50.3803 19.9799 53.0403 19.6099 55.9303C18.6199 63.5503 27.5299 69.1703 33.9199 70.8103Z" fill="#2E59A6"/>
<path d="M29.31 46.1101C30.83 45.8201 33.16 46.7701 34.05 48.0201C36.19 51.0501 33.73 54.0301 33.22 57.2201C32.31 62.9201 34.74 66.5901 38.05 70.8601C30.76 68.1801 23.76 57.6001 25.75 49.8801C26.17 48.2601 27.56 46.4401 29.31 46.1101Z" fill="#2E59A6"/>
</g>
<defs>
<clipPath id="clip0_581_791">
<rect width="787.25" height="189.7" fill="white" transform="translate(0 0.0498047)"/>
</clipPath>
</defs>
</svg>
