<svg width="236" height="158" viewBox="0 0 236 158" fill="none" xmlns="http://www.w3.org/2000/svg">
<g clip-path="url(#clip0_176_21301)">
<path d="M22.17 148.34C22 149.54 21.45 150.24 19.85 150.66C19.76 150.4 19.49 150.03 19.29 149.84C20.54 149.57 20.98 149.13 21.12 148.34H19.56V147.38H22.1V146.47H20.08V145.52H22.1V144.64H23.28V145.52H25.31V146.47H23.28V147.38H25.79V148.34H24.12V148.93C24.12 149.23 24.13 149.33 24.34 149.33H25.08C25.24 149.33 25.57 149.3 25.74 149.26C25.75 149.5 25.78 149.82 25.81 150.07C25.65 150.14 25.35 150.14 25.1 150.14H24.15C23.3 150.14 23.13 149.78 23.13 148.93V148.34H22.18H22.17ZM19.36 157.3C20.02 156.75 20.69 155.75 21.07 154.81L22.35 155.14C21.97 156.12 21.33 157.17 20.62 157.83L19.35 157.3H19.36ZM31.44 153.19C31.53 153.19 31.6 153.18 31.64 153.12C31.68 153.06 31.71 152.92 31.74 152.67C31.77 152.38 31.78 151.78 31.78 150.98C32.01 151.18 32.36 151.37 32.64 151.45C32.63 152.17 32.58 153.08 32.51 153.4C32.44 153.72 32.31 153.93 32.15 154.06C31.98 154.19 31.7 154.25 31.46 154.25H30.87C30.6 154.25 30.28 154.16 30.08 153.96C29.88 153.74 29.81 153.48 29.81 152.49V147.72H28.66C28.62 148.59 28.53 149.39 28.43 150.11C28.95 150.5 29.45 150.84 29.77 151.13L29.18 152.25C28.91 152.02 28.55 151.72 28.13 151.4C27.76 152.68 27.14 153.72 26.14 154.53C26 154.31 25.71 153.98 25.46 153.77C23.31 154 21.11 154.23 19.53 154.39L19.43 153.27C20.16 153.21 21.09 153.14 22.09 153.05V151.94H19.89V150.96H22.09V150.02H23.27V150.96H25.39V151.94H23.27V152.95C24.08 152.88 24.91 152.81 25.73 152.72V153.25C26.42 152.54 26.84 151.68 27.1 150.63C26.67 150.31 26.24 150 25.86 149.72L26.42 148.74L27.33 149.36C27.4 148.84 27.45 148.29 27.47 147.72H26.06V146.54H27.5C27.51 145.92 27.53 145.27 27.53 144.59H28.74C28.74 145.27 28.73 145.91 28.71 146.54H31.01V152.5C31.01 152.85 31.01 153.05 31.05 153.12C31.08 153.16 31.14 153.18 31.21 153.18H31.43L31.44 153.19ZM24.77 155.09C24.94 155.88 25.09 156.9 25.1 157.51L23.76 157.68C23.76 157.05 23.66 156.02 23.5 155.22L24.77 155.09ZM27.67 154.98C28.02 155.76 28.38 156.77 28.48 157.41L27.16 157.66C27.06 157.03 26.76 155.99 26.41 155.2L27.68 154.98H27.67ZM30.61 154.75C31.26 155.54 32.05 156.65 32.4 157.37L31.05 157.83C30.73 157.12 29.98 155.99 29.34 155.17L30.62 154.75H30.61Z" fill="#717071"/>
<path d="M38.1501 146.91C37.4301 148.05 36.5501 149.04 35.6401 149.78C35.4401 149.5 34.9801 148.96 34.6901 148.71C36.0201 147.75 37.2101 146.22 37.8901 144.59L39.2001 144.96C39.0701 145.26 38.9301 145.55 38.7701 145.85H47.4101V146.9H38.1501V146.91ZM38.7701 154.89C38.1101 156.01 36.9301 157.18 35.8301 157.77C35.6401 157.47 35.2501 157.04 34.9801 156.81C36.0301 156.35 37.1801 155.41 37.7701 154.52L38.7601 154.9L38.7701 154.89ZM40.3001 154.17V157.8H39.0501V154.17H35.3201V153.12H39.0501V150.79H40.3001V153.12H41.7601L40.9201 152.79C41.3401 152.26 41.8301 151.45 42.0901 150.9L43.2901 151.29C42.7901 151.97 42.2401 152.66 41.8101 153.12H43.8801V154.17H40.3101H40.3001ZM37.2301 150.86C37.6801 151.39 38.1201 152.11 38.3001 152.6L37.2301 153.05C37.0701 152.56 36.6401 151.83 36.2201 151.29L37.2301 150.86ZM45.5801 149.43C45.5501 153.65 45.6801 156.47 46.6901 156.47C46.9601 156.47 47.0401 155.65 47.0501 154.43C47.3201 154.73 47.6701 155.06 47.9401 155.26C47.8401 157.1 47.5701 157.8 46.6101 157.8C44.5501 157.8 44.2801 154.92 44.2301 150.48H36.2401V149.43H45.5701H45.5801ZM37.7901 148.67V147.66H46.2601V148.67H37.7901ZM41.4801 154.5C42.3901 155.15 43.5701 156.07 44.1601 156.69L43.3201 157.51C42.7601 156.89 41.6101 155.91 40.7001 155.22L41.4801 154.5Z" fill="#717071"/>
<path d="M63.2601 149.551C62.5001 150.561 61.5701 151.741 60.8301 152.521C61.4601 153.841 62.3401 154.841 63.6401 155.751C63.3401 155.991 62.9601 156.411 62.8201 156.791C61.4101 155.721 60.4401 154.561 59.7701 153.041V156.251C59.7701 156.971 59.6001 157.341 59.1601 157.561C58.7101 157.791 58.0401 157.831 56.9301 157.831C56.8701 157.481 56.6401 156.891 56.4701 156.551C57.2501 156.581 57.9401 156.561 58.1601 156.561C58.3901 156.551 58.4801 156.471 58.4801 156.241V153.301C57.3701 154.411 56.2301 155.491 55.2801 156.351L54.4601 155.181L54.6601 155.021C53.1801 155.511 51.6201 156.001 50.4101 156.381L50.1201 155.101C50.6201 154.971 51.2601 154.781 51.9301 154.581V150.831H50.3901V149.591H51.9301V146.721H50.2901V145.481H54.7401V146.721H53.1701V149.591H54.5201V150.831H53.1701V154.201L54.8101 153.701L54.9801 154.771C55.9301 154.011 57.2401 152.901 58.4701 151.851V148.231H55.0601V146.991H58.4701V144.601H59.7701V146.991H63.4101V148.231H59.7701V148.821C59.9301 149.801 60.1301 150.631 60.3801 151.381C61.0001 150.621 61.6801 149.681 62.1101 148.931L63.2801 149.541L63.2601 149.551ZM56.2401 149.031C56.8401 149.821 57.4901 150.891 57.7401 151.591L56.6301 152.121C56.4101 151.401 55.8001 150.301 55.2001 149.481L56.2401 149.021V149.031ZM62.0001 146.981C61.6501 146.521 60.9301 145.861 60.3301 145.411L61.0801 144.721C61.7001 145.141 62.4501 145.761 62.8101 146.191L62.0001 146.981Z" fill="#717071"/>
<path d="M203.37 146.651C203.05 147.361 202.59 147.951 202.03 148.441C202.78 148.831 203.63 149.151 204.54 149.321C204.27 149.571 203.94 150.011 203.78 150.311C202.8 150.051 201.88 149.661 201.09 149.141C200.36 149.591 199.49 149.931 198.58 150.211C198.44 149.951 198.09 149.491 197.86 149.291C198.71 149.091 199.5 148.801 200.18 148.461C199.82 148.141 199.5 147.831 199.23 147.471C199 147.691 198.78 147.901 198.55 148.091C198.42 147.921 198.18 147.631 197.95 147.431C197.85 148.931 197.75 149.551 197.52 149.841C197.32 150.041 197.1 150.131 196.8 150.161C196.55 150.191 196.11 150.191 195.65 150.161C195.64 150.001 195.61 149.801 195.55 149.611H193.43V150.011H192.49V148.371C192.32 148.541 192.14 148.691 191.96 148.831C191.79 148.611 191.44 148.271 191.23 148.141C192.01 147.611 192.53 146.921 192.83 146.281L193.87 146.441C193.83 146.531 193.78 146.631 193.74 146.711H198V147.011C198.76 146.381 199.44 145.511 199.84 144.621L200.98 144.941C200.86 145.201 200.74 145.431 200.59 145.671H204.21V146.661H203.39L203.37 146.651ZM193.46 145.901H191.6V145.091H193.46V144.601H194.53V146.301H193.46V145.901ZM191.66 157.241C192.14 156.781 192.64 156.001 192.96 155.441L194.03 155.971C193.71 156.581 193.24 157.341 192.78 157.861L191.67 157.241H191.66ZM195.91 149.301H196.23C196.36 149.301 196.46 149.291 196.55 149.171C196.67 149.031 196.74 148.581 196.82 147.441H193.28C193.18 147.581 193.06 147.731 192.95 147.871H195.92V149.301H195.91ZM203.9 154.501C203.9 154.501 203.89 154.801 203.86 154.961C203.69 156.491 203.51 157.191 203.21 157.481C202.96 157.711 202.72 157.801 202.39 157.831C202.1 157.861 201.55 157.861 200.95 157.821C200.94 157.571 200.85 157.241 200.73 156.971L200.4 157.131C200.26 156.771 199.87 156.241 199.54 155.851L200.43 155.491C200.79 155.851 201.18 156.351 201.37 156.691L200.99 156.861C201.34 156.891 201.62 156.891 201.77 156.891C201.96 156.891 202.06 156.881 202.16 156.771C202.3 156.611 202.43 156.221 202.55 155.341H193.24V150.411H202.95V151.241H198.87V151.861H202.41V152.571H198.87V153.181H202.44V153.891H198.87V154.511H203.9V154.501ZM194.96 148.451H193.42V149.011H194.96V148.451ZM194.53 151.251V151.871H197.6V151.251H194.53ZM197.59 152.571H194.52V153.181H197.59V152.571ZM194.53 154.501H197.6V153.881H194.53V154.501ZM195.92 155.741C196.12 156.291 196.28 157.021 196.34 157.511L195.2 157.711C195.17 157.231 195.01 156.491 194.84 155.921L195.92 155.731V155.741ZM196.51 146.451H195.44V144.611H196.51V145.101H198.37V145.931H196.51V146.451ZM198.23 155.681C198.53 156.161 198.81 156.801 198.94 157.241L197.89 157.541C197.77 157.111 197.49 156.431 197.23 155.961L198.24 155.691L198.23 155.681ZM201.08 147.851C201.51 147.501 201.84 147.101 202.1 146.651H199.91C200.21 147.081 200.62 147.491 201.08 147.851Z" fill="#717071"/>
<path d="M208.38 154.06V155.38H207.24V145.9H210.86V154.05H208.38V154.06ZM208.38 147.14V152.81H209.7V147.14H208.38ZM215.65 155.22C215.06 156.34 213.84 157.28 211.52 157.83C211.38 157.57 211.03 157.07 210.77 156.82C212.58 156.49 213.62 155.91 214.2 155.22H211.22V154.2H214.73C214.8 153.95 214.86 153.71 214.87 153.45H211.84V152.43H214.91V151.71H211.88V148.96H214.91V148.38H212.98V146.69H211.34V145.65H212.98V144.58H214.16V145.65H216.84V144.58H218.08V145.65H219.79V146.69H218.08V148.38H216.16V148.96H219.13V151.71H216.16V152.43H219.17V153.45H216.13C216.1 153.71 216.06 153.95 216 154.2H219.73V155.22H215.64H215.65ZM214.92 150.82V149.85H213.03V150.82H214.92ZM214.17 147.5H216.85V146.69H214.17V147.5ZM216.5 155.25C217.61 155.65 219.15 156.33 219.94 156.82L219.31 157.78C218.56 157.3 217.03 156.57 215.88 156.12L216.5 155.24V155.25ZM216.17 149.85V150.82H217.94V149.85H216.17Z" fill="#717071"/>
<path d="M226.93 152.47C226.93 152.47 226.92 152.79 226.9 152.96C226.71 155.68 226.54 156.81 226.15 157.21C225.92 157.48 225.66 157.58 225.27 157.63C224.95 157.67 224.39 157.67 223.81 157.63C223.78 157.3 223.67 156.82 223.48 156.52C224.01 156.56 224.53 156.58 224.75 156.58C224.95 156.58 225.08 156.55 225.2 156.44C225.42 156.21 225.59 155.45 225.72 153.53H222.87C223.04 152.9 223.26 152.05 223.4 151.24H222.23V150.07H227.46V151.24H224.54C224.45 151.66 224.37 152.09 224.28 152.48H226.93V152.47ZM227.15 149.07H222.92V145.17H227.15V149.07ZM226.11 146.15H223.89V148.11H226.11V146.15ZM233.64 151.22C233.89 151.22 234.36 151.21 234.55 151.13C234.58 151.48 234.61 151.81 234.65 152.11C234.43 152.2 234.03 152.21 233.69 152.21H232.06C231.02 152.21 230.79 151.72 230.79 150.7V150.48L229.57 150.61L229.44 149.67L230.79 149.54V148.46H229.18V151.04C229.18 153.04 228.98 155.92 227.75 157.82C227.56 157.6 227.03 157.24 226.77 157.11C227.89 155.34 228.01 152.86 228.01 151.02V147.39H230.8V144.58H232.07V145.47H234.89V146.55H232.07V147.38H234.53L234.72 147.32L235.54 147.52C235.38 148.4 235.15 149.44 234.96 150.1L233.97 149.85C234.06 149.47 234.14 148.96 234.23 148.44H231.93V149.41L233.56 149.25L233.68 150.17L231.94 150.34V150.7C231.94 151.05 231.98 151.19 232.29 151.19H233.66L233.64 151.22ZM231.25 152.82C231.15 155.15 230.83 156.82 229.25 157.83C229.12 157.56 228.79 157.12 228.53 156.95C229.83 156.14 230.06 154.75 230.14 152.82H231.25ZM234.1 156.36C234.23 156.36 234.37 156.35 234.43 156.29C234.49 156.25 234.56 156.15 234.59 156.02C234.62 155.79 234.65 155.26 234.63 154.62C234.85 154.82 235.26 155.05 235.58 155.15C235.57 155.83 235.51 156.53 235.42 156.78C235.32 157.07 235.17 157.26 234.97 157.37C234.78 157.47 234.47 157.54 234.19 157.54H233.41C233.09 157.54 232.75 157.47 232.53 157.27C232.3 157.05 232.26 156.84 232.26 156.12V152.84H233.37V156.08C233.37 156.17 233.38 156.25 233.46 156.3C233.5 156.34 233.6 156.37 233.72 156.37H234.1V156.36Z" fill="#717071"/>
<path d="M51.05 92.9902C50.95 92.9602 50.85 92.9402 50.75 92.9202C50.64 92.9002 50.62 92.9502 50.77 92.9202C50.73 92.9202 50.66 92.9102 50.62 92.9102C50.52 92.9102 50.42 92.9102 50.33 92.9102C50.31 92.9102 50.3 92.9102 50.28 92.9102C50.25 92.9102 50.22 92.9202 50.19 92.9302C50.14 92.9402 50.08 92.9602 50.03 92.9802C49.94 93.0102 49.92 93.0802 50.05 92.9702C49.99 93.0302 49.87 93.0602 49.79 93.1102C49.79 93.1202 49.76 93.1402 49.74 93.1502C49.71 93.1702 49.68 93.2002 49.68 93.2002C49.68 93.2002 49.67 93.2102 49.66 93.2202L48.93 99.6302H33.45L32.78 93.7002C32.53 93.4902 32.29 93.2702 32.04 93.0702C32.03 93.0602 32.04 93.0702 32.02 93.0602C32.02 93.0602 32.02 93.0602 32.01 93.0602C31.96 93.0302 31.92 92.9902 31.87 92.9602C31.79 92.9002 31.7 92.8402 31.62 92.7902C31.47 92.6902 31.3 92.6202 31.15 92.5302C31.15 92.5302 31.13 92.5302 31.12 92.5302C31.08 92.5202 31.05 92.5102 31.01 92.5002C30.99 92.5002 30.97 92.5002 30.95 92.4902C30.94 92.4902 30.92 92.4902 30.9 92.4902C30.89 92.5002 30.87 92.5202 30.86 92.5302C30.86 92.5302 30.86 92.5302 30.86 92.5402C30.86 92.5402 30.86 92.5502 30.86 92.5602C30.96 92.5902 31.06 92.6202 31.17 92.6502L33.36 111.88H49.06L51.2 93.0602C51.2 93.0602 51.11 93.0302 51.07 93.0202L51.05 92.9902Z" fill="#5D97C4"/>
<path d="M27.3201 4.49004C2.40005 13.07 -7.54995 45.07 7.52005 66.66C10.7501 71.4 15.0901 75.28 18.5101 79.8C22.1101 84.16 24.7301 89.47 28.6101 93.58H53.3301C56.09 90.65 58.2201 87.11 60.6101 83.88C64.3201 78.45 69.5201 73.79 73.7301 68.55C79.1401 61.55 82.2501 52.55 82.2601 43.41V43.2C82.4601 14.81 53.8701 -5.26996 27.3201 4.49004Z" fill="#2E59A6"/>
<path d="M202.1 101.84C202.1 95.3198 206.85 90.7998 213.36 90.7998C219.87 90.7998 224.63 95.3198 224.63 101.84C224.63 108.36 219.88 113.1 213.36 113.1C206.84 113.1 202.1 108.35 202.1 101.84Z" fill="#2E59A6"/>
<path d="M198.52 27.5302L197.55 0.740234H229.18L228.21 27.5302L223.37 78.5302H203.36L198.52 27.5302Z" fill="#5D97C4"/>
</g>
<defs>
<clipPath id="clip0_176_21301">
<rect width="235.18" height="157.12" fill="white" transform="translate(0.410034 0.740234)"/>
</clipPath>
</defs>
</svg>
