<svg width="330" height="303" viewBox="0 0 330 303" fill="none" xmlns="http://www.w3.org/2000/svg">
<g clip-path="url(#clip0_582_480)">
<path d="M99.0727 198.31V198.272V198.254V183.889V183.87V183.833C96.8173 183.036 94.3942 182.575 91.8639 182.575C89.329 182.575 86.9105 183.032 84.6552 183.833V183.87V183.889V198.254V198.272V198.31C86.9152 199.106 89.3336 199.568 91.8639 199.568C94.3942 199.568 96.8173 199.111 99.0727 198.31Z" fill="#5D97C4"/>
<path d="M113.495 212.768V212.73V212.712V198.347V198.328V198.291C111.24 197.494 108.816 197.033 106.286 197.033C103.751 197.033 101.333 197.49 99.0774 198.291V198.328V198.347V212.712V212.73V212.768C101.337 213.564 103.756 214.026 106.286 214.026C108.816 214.026 111.24 213.569 113.495 212.768Z" fill="#2E59A6"/>
<path d="M99.0727 227.17V227.133V227.114V212.749V212.731V212.694C96.8173 211.897 94.3942 211.436 91.8639 211.436C89.329 211.436 86.9105 211.892 84.6552 212.694V212.731V212.749V227.114V227.133V227.17C86.9152 227.967 89.3336 228.428 91.8639 228.428C94.3942 228.428 96.8173 227.971 99.0727 227.17Z" fill="#5D97C4"/>
<path d="M113.495 241.627V241.59V241.571V227.207V227.188V227.151C111.24 226.354 108.816 225.893 106.286 225.893C103.751 225.893 101.333 226.349 99.0774 227.151V227.188V227.207V241.571V241.59V241.627C101.337 242.424 103.756 242.885 106.286 242.885C108.816 242.885 111.24 242.429 113.495 241.627Z" fill="#2E59A6"/>
<path d="M99.0727 256.025V255.987V255.969V241.604V241.585V241.548C96.8173 240.751 94.3942 240.29 91.8639 240.29C89.329 240.29 86.9105 240.747 84.6552 241.548V241.585V241.604V255.969V255.987V256.025C86.9152 256.821 89.3336 257.283 91.8639 257.283C94.3942 257.283 96.8173 256.826 99.0727 256.025Z" fill="#5D97C4"/>
<path d="M127.912 198.31V198.272V198.254V183.889V183.87V183.833C125.657 183.036 123.234 182.575 120.704 182.575C118.169 182.575 115.75 183.032 113.495 183.833V183.87V183.889V198.254V198.272V198.31C115.755 199.106 118.173 199.568 120.704 199.568C123.234 199.568 125.657 199.111 127.912 198.31Z" fill="#5D97C4"/>
<path d="M127.912 227.17V227.133V227.114V212.749V212.731V212.694C125.657 211.897 123.234 211.436 120.704 211.436C118.169 211.436 115.75 211.892 113.495 212.694V212.731V212.749V227.114V227.133V227.17C115.755 227.967 118.173 228.428 120.704 228.428C123.234 228.428 125.657 227.971 127.912 227.17Z" fill="#5D97C4"/>
<path d="M127.912 256.025V255.987V255.969V241.604V241.585V241.548C125.657 240.751 123.234 240.29 120.704 240.29C118.169 240.29 115.75 240.747 113.495 241.548V241.585V241.604V255.969V255.987V256.025C115.755 256.821 118.173 257.283 120.704 257.283C123.234 257.283 125.657 256.826 127.912 256.025Z" fill="#5D97C4"/>
<path d="M279.674 194.848C279.18 194.038 277.768 192.654 277.088 192.309C275.587 191.54 272.675 191.27 271.086 191.918C270.406 192.192 269.488 192.826 268.891 193.273C263.593 197.211 257.596 202.177 252.507 206.445C244.679 213.015 237.996 220.81 230.778 228.018L280.182 200.686C280.834 198.767 280.713 196.554 279.674 194.848Z" fill="#5D97C4"/>
<path d="M210.755 245.397C210.732 245.406 210.708 245.411 210.685 245.42L208.528 244.861L207.721 243.832L204.72 246.189L207.884 250.22L208.886 251.496L212.05 255.526L215.051 253.174L214.301 252.214C214.282 252.111 214.268 252.009 214.241 251.906L214.213 249.851C220.778 244.591 227.335 239.303 234.39 234.69C239.73 231.2 245.541 228.055 250.746 224.682C260.578 218.308 269.394 210.578 278.574 203.314C279.32 202.597 279.851 201.674 280.186 200.682L230.783 228.013C230.666 228.13 230.555 228.246 230.438 228.363C224.273 234.49 217.568 239.997 210.755 245.397Z" fill="#2E59A6"/>
<path d="M237.004 192.327L237.768 192.443C238.024 192.481 238.201 192.723 238.164 192.979C238.127 193.236 237.884 193.413 237.628 193.375L236.878 193.263C236.859 193.487 236.845 193.711 236.841 193.934L237.693 193.976C237.954 193.99 238.155 194.209 238.141 194.47C238.127 194.731 237.908 194.932 237.647 194.918L236.855 194.88C236.873 195.146 236.901 195.407 236.934 195.668L237.679 195.612C237.94 195.593 238.164 195.789 238.183 196.045C238.201 196.306 238.006 196.53 237.749 196.548L237.111 196.595C237.176 196.879 237.255 197.154 237.344 197.434L237.884 197.247C238.131 197.163 238.397 197.294 238.481 197.541C238.565 197.788 238.434 198.053 238.187 198.137L237.67 198.314C237.796 198.617 237.936 198.911 238.094 199.199L238.663 198.925C238.896 198.813 239.18 198.911 239.292 199.144C239.403 199.377 239.306 199.661 239.073 199.773L238.579 200.01C238.788 200.327 239.017 200.635 239.264 200.933L239.795 200.411C239.981 200.229 240.28 200.229 240.461 200.411C240.643 200.597 240.643 200.895 240.461 201.077L239.902 201.627C240.102 201.827 240.312 202.023 240.531 202.209L241.016 201.487C241.16 201.273 241.454 201.212 241.668 201.357C241.883 201.501 241.943 201.795 241.799 202.009L241.277 202.787C241.538 202.974 241.808 203.146 242.088 203.309C242.134 203.202 242.181 203.099 242.227 202.992C244.105 198.342 241.901 193.058 237.307 191.102C237.181 191.507 237.083 191.912 237.013 192.322L237.004 192.327Z" fill="#2E59A6"/>
<path d="M239.324 205.001C239.301 204.991 239.273 204.977 239.25 204.959C239.035 204.814 238.975 204.521 239.119 204.306L239.683 203.468C239.385 203.221 239.096 202.955 238.826 202.685L238.169 203.333C238.029 203.472 237.819 203.505 237.647 203.43C237.595 203.407 237.544 203.375 237.502 203.333C237.32 203.146 237.32 202.848 237.502 202.666L238.183 201.995C237.828 201.576 237.502 201.129 237.209 200.667L236.142 201.18C236.011 201.241 235.871 201.241 235.745 201.185C235.648 201.143 235.564 201.064 235.512 200.956C235.401 200.723 235.499 200.439 235.731 200.327L236.733 199.847C236.552 199.507 236.389 199.158 236.244 198.799L235.056 199.209C234.939 199.251 234.818 199.242 234.711 199.195C234.594 199.144 234.501 199.046 234.455 198.92C234.371 198.673 234.501 198.408 234.748 198.324L235.918 197.919C235.787 197.518 235.676 197.112 235.587 196.702L234.394 196.791C234.315 196.796 234.24 196.782 234.17 196.754C234.017 196.684 233.905 196.535 233.891 196.358C233.872 196.097 234.068 195.873 234.324 195.854L235.424 195.775C235.382 195.454 235.349 195.132 235.335 194.806L234.208 194.75C234.147 194.75 234.091 194.732 234.04 194.713C233.868 194.638 233.751 194.461 233.76 194.261C233.774 194 233.993 193.8 234.254 193.814L235.326 193.865C235.335 193.59 235.349 193.315 235.377 193.04L234.334 192.882C234.292 192.877 234.25 192.863 234.212 192.849C234.021 192.765 233.905 192.565 233.937 192.351C233.975 192.094 234.217 191.917 234.473 191.955L235.503 192.108C235.592 191.614 235.708 191.125 235.862 190.636C232.101 189.718 228.164 191.274 226.044 194.471C226.398 194.671 226.738 194.885 227.069 195.118L227.563 194.466C227.721 194.261 228.015 194.219 228.22 194.377C228.392 194.508 228.448 194.736 228.374 194.927C228.36 194.964 228.336 195.002 228.313 195.034L227.819 195.687C228.038 195.868 228.248 196.055 228.453 196.25L229.017 195.645C229.194 195.454 229.492 195.444 229.683 195.621C229.827 195.757 229.869 195.966 229.8 196.143C229.776 196.195 229.748 196.246 229.706 196.288L229.11 196.926C229.334 197.178 229.548 197.434 229.748 197.7L230.396 197.154C230.596 196.987 230.89 197.015 231.058 197.21C231.174 197.35 231.197 197.532 231.132 197.69C231.104 197.76 231.058 197.821 230.997 197.872L230.284 198.468C230.522 198.841 230.741 199.228 230.937 199.624L231.808 199.214C232.046 199.102 232.325 199.204 232.432 199.437C232.488 199.563 232.488 199.698 232.442 199.815C232.4 199.922 232.316 200.011 232.204 200.066L231.314 200.486C231.463 200.854 231.589 201.227 231.701 201.609L232.498 201.343C232.745 201.259 233.01 201.394 233.094 201.641C233.131 201.753 233.127 201.865 233.085 201.967C233.033 202.089 232.936 202.191 232.796 202.238L231.929 202.527C232.046 203.09 232.125 203.663 232.157 204.241H232.856C233.117 204.246 233.327 204.46 233.322 204.721C233.322 204.782 233.308 204.842 233.29 204.894C233.22 205.066 233.047 205.192 232.852 205.187H232.181C232.176 205.583 232.148 205.988 232.101 206.389L232.852 206.548C233.108 206.603 233.266 206.85 233.215 207.107C233.211 207.135 233.201 207.163 233.192 207.186C233.108 207.396 232.884 207.517 232.656 207.47L231.952 207.321C231.873 207.722 231.775 208.118 231.654 208.509C235.377 209.357 239.254 207.792 241.347 204.628C241.025 204.446 240.718 204.246 240.424 204.036L239.893 204.824C239.762 205.015 239.515 205.085 239.31 204.991L239.324 205.001Z" fill="#2E59A6"/>
<path d="M228.989 206.212C229.045 205.956 229.292 205.798 229.548 205.849L230.639 206.082C230.671 205.779 230.69 205.476 230.694 205.178L229.655 205.169C229.394 205.169 229.185 204.954 229.189 204.693C229.189 204.433 229.404 204.223 229.665 204.228L230.671 204.237C230.643 203.827 230.587 203.417 230.513 203.011L229.739 203.272C229.492 203.356 229.227 203.221 229.143 202.974C229.059 202.727 229.194 202.462 229.441 202.378L230.294 202.094C230.2 201.767 230.093 201.446 229.972 201.134L229.227 201.483C228.989 201.595 228.709 201.493 228.602 201.26C228.49 201.022 228.593 200.742 228.826 200.635L229.59 200.276C229.45 199.997 229.296 199.722 229.133 199.456L228.434 200.043C228.234 200.211 227.94 200.183 227.773 199.988C227.605 199.787 227.633 199.494 227.829 199.326L228.602 198.678C228.439 198.459 228.267 198.245 228.085 198.035L227.372 198.799C227.195 198.99 226.897 199 226.706 198.823C226.515 198.646 226.505 198.347 226.682 198.156L227.433 197.355C227.265 197.197 227.092 197.043 226.915 196.894L226.319 197.681C226.16 197.886 225.867 197.928 225.662 197.77C225.457 197.611 225.415 197.318 225.573 197.113L226.174 196.325C225.904 196.139 225.625 195.962 225.336 195.799C225.284 195.911 225.238 196.018 225.191 196.13C223.295 200.826 225.555 206.166 230.242 208.076C230.35 207.727 230.433 207.377 230.503 207.028L229.362 206.785C229.105 206.73 228.947 206.483 228.998 206.226L228.989 206.212Z" fill="#2E59A6"/>
<path d="M74.52 276.992H75.7595V284.876H74.52V276.992Z" fill="#717071"/>
<path d="M78.5228 278.982H79.5294L79.6365 279.806H79.6598C80.1957 279.27 80.8061 278.842 81.6076 278.842C82.8611 278.842 83.4157 279.676 83.4157 281.176V284.88H82.1855V281.33C82.1855 280.314 81.8872 279.918 81.1883 279.918C80.6431 279.918 80.2796 280.184 79.753 280.71V284.885H78.5228V278.991V278.982Z" fill="#717071"/>
<path d="M85.6058 281.935C85.6058 280.02 86.8174 278.841 88.1221 278.841C88.8071 278.841 89.2358 279.088 89.7065 279.503L89.6645 278.529V276.349H90.8947V284.875H89.8882L89.781 284.214H89.7484C89.3104 284.661 88.7 285.029 88.0243 285.029C86.5611 285.029 85.6058 283.897 85.6058 281.935ZM89.6599 283.272V280.402C89.2219 280.006 88.8025 279.866 88.3645 279.866C87.549 279.866 86.878 280.649 86.878 281.921C86.878 283.193 87.3999 283.985 88.3225 283.985C88.8118 283.985 89.2312 283.771 89.6599 283.268V283.272Z" fill="#717071"/>
<path d="M93.397 277.141C93.397 276.712 93.7092 276.414 94.1658 276.414C94.6225 276.414 94.9254 276.712 94.9254 277.141C94.9254 277.602 94.6132 277.891 94.1658 277.891C93.7185 277.891 93.397 277.602 93.397 277.141ZM93.5461 278.981H94.7763V284.875H93.5461V278.981Z" fill="#717071"/>
<path d="M97.0037 285.97C97.0037 285.476 97.3159 285.019 97.8611 284.684V284.642C97.5629 284.437 97.3252 284.129 97.3252 283.659C97.3252 283.188 97.6468 282.792 97.9869 282.569V282.527C97.5815 282.214 97.2041 281.66 97.2041 280.952C97.2041 279.624 98.2619 278.846 99.4827 278.846C99.8136 278.846 100.112 278.911 100.34 278.986H102.428V279.917H101.314C101.528 280.164 101.687 280.546 101.687 280.989C101.687 282.284 100.713 283.02 99.4827 283.02C99.2264 283.02 98.9142 282.955 98.6579 282.848C98.4762 283.006 98.3364 283.17 98.3364 283.458C98.3364 283.803 98.5694 284.036 99.3196 284.036H100.41C101.789 284.036 102.516 284.465 102.516 285.457C102.516 286.603 101.328 287.521 99.4455 287.521C98.0242 287.521 96.9944 287 96.9944 285.97H97.0037ZM101.323 285.658C101.323 285.164 100.937 285.015 100.233 285.015H99.3429C99.0634 285.015 98.7977 284.991 98.5508 284.931C98.1966 285.187 98.0568 285.485 98.0568 285.788C98.0568 286.357 98.644 286.706 99.6179 286.706C100.643 286.706 101.319 286.203 101.319 285.658H101.323ZM100.596 280.952C100.596 280.169 100.107 279.712 99.4827 279.712C98.8583 279.712 98.369 280.16 98.369 280.952C98.369 281.744 98.8723 282.214 99.4827 282.214C100.093 282.214 100.596 281.744 100.596 280.952Z" fill="#717071"/>
<path d="M103.816 281.936C103.816 280.021 105.131 278.842 106.5 278.842C108.062 278.842 108.91 279.965 108.91 281.623C108.91 281.87 108.877 282.103 108.844 282.257H105.023C105.121 283.38 105.825 284.056 106.841 284.056C107.363 284.056 107.815 283.897 108.243 283.618L108.672 284.4C108.136 284.764 107.451 285.029 106.692 285.029C105.075 285.029 103.812 283.883 103.812 281.936H103.816ZM107.843 281.4C107.843 280.393 107.381 279.816 106.528 279.816C105.792 279.816 105.135 280.37 105.019 281.4H107.843Z" fill="#717071"/>
<path d="M111.095 278.982H112.102L112.209 279.806H112.232C112.768 279.27 113.378 278.842 114.18 278.842C115.433 278.842 115.988 279.676 115.988 281.176V284.88H114.758V281.33C114.758 280.314 114.459 279.918 113.765 279.918C113.22 279.918 112.857 280.184 112.33 280.71V284.885H111.1V278.991L111.095 278.982Z" fill="#717071"/>
<path d="M118.155 281.936C118.155 279.979 119.469 278.842 120.937 278.842C122.404 278.842 123.7 279.974 123.7 281.936C123.7 283.897 122.395 285.029 120.937 285.029C119.478 285.029 118.155 283.897 118.155 281.936ZM122.437 281.936C122.437 280.696 121.859 279.858 120.941 279.858C120.023 279.858 119.431 280.692 119.431 281.936C119.431 283.18 120.009 284 120.941 284C121.873 284 122.437 283.184 122.437 281.936Z" fill="#717071"/>
<path d="M125.871 282.695V278.981H127.111V282.546C127.111 283.552 127.409 283.958 128.094 283.958C128.639 283.958 129.026 283.701 129.506 283.082V278.986H130.746V284.88H129.73L129.632 283.99H129.599C129.063 284.61 128.486 285.029 127.684 285.029C126.421 285.029 125.867 284.195 125.867 282.695H125.871Z" fill="#717071"/>
<path d="M132.773 284.204L133.36 283.403C133.872 283.822 134.39 284.087 135.019 284.087C135.713 284.087 136.048 283.743 136.048 283.295C136.048 282.76 135.396 282.527 134.753 282.28C133.97 281.981 133.103 281.562 133.103 280.57C133.103 279.577 133.896 278.846 135.2 278.846C135.983 278.846 136.645 279.167 137.106 279.54L136.538 280.299C136.123 280.001 135.704 279.787 135.233 279.787C134.571 279.787 134.268 280.108 134.268 280.514C134.268 281.008 134.846 281.199 135.499 281.446C136.314 281.758 137.223 282.121 137.223 283.221C137.223 284.218 136.44 285.029 134.986 285.029C134.171 285.029 133.336 284.675 132.773 284.204Z" fill="#717071"/>
<path d="M64.0121 296.686C64.0121 294.128 65.5871 292.586 67.5862 292.586C68.5601 292.586 69.329 293.057 69.8136 293.583L69.1519 294.375C68.7325 293.97 68.2432 293.667 67.6095 293.667C66.2488 293.667 65.2982 294.799 65.2982 296.654C65.2982 298.508 66.1882 299.673 67.5769 299.673C68.2945 299.673 68.8397 299.342 69.3103 298.829L69.986 299.621C69.3429 300.358 68.5508 300.768 67.5256 300.768C65.5452 300.768 64.0167 299.281 64.0167 296.691L64.0121 296.686Z" fill="#717071"/>
<path d="M72.0597 294.716H73.0662L73.1734 295.774H73.1967C73.6161 295.023 74.2358 294.576 74.8789 294.576C75.1678 294.576 75.3495 294.618 75.5313 294.693L75.3169 295.774C75.1026 295.708 74.9628 295.676 74.7158 295.676C74.2358 295.676 73.658 296.007 73.2945 296.948V300.605H72.0643V294.711L72.0597 294.716Z" fill="#717071"/>
<path d="M76.5936 299.049C76.5936 297.777 77.6654 297.125 80.1118 296.855C80.1025 296.179 79.8555 295.583 78.9888 295.583C78.369 295.583 77.7912 295.862 77.288 296.184L76.8266 295.35C77.4371 294.963 78.2619 294.581 79.2032 294.581C80.671 294.581 81.342 295.504 81.342 297.074V300.615H80.3355L80.2376 299.939H80.1957C79.6598 300.401 79.0307 300.764 78.3224 300.764C77.3066 300.764 76.589 300.088 76.589 299.054L76.5936 299.049ZM80.1165 299.082V297.647C78.3737 297.852 77.7819 298.299 77.7819 298.951C77.7819 299.539 78.178 299.776 78.6999 299.776C79.2218 299.776 79.6319 299.529 80.1118 299.082H80.1165Z" fill="#717071"/>
<path d="M83.2946 294.79L84.096 294.725V293.989C84.096 292.782 84.6506 291.943 85.96 291.943C86.3654 291.943 86.7289 292.027 86.9991 292.134L86.7522 293.066C86.5471 292.968 86.3141 292.926 86.1091 292.926C85.5825 292.926 85.3262 293.267 85.3262 293.975V294.711H86.5145V295.708H85.3262V300.61H84.096V295.708H83.2946V294.786V294.79Z" fill="#717071"/>
<path d="M88.5881 298.686V295.713H87.7307V294.791L88.6487 294.716L88.7885 293.09H89.8137V294.716H91.3467V295.713H89.8137V298.7C89.8137 299.408 90.0606 299.771 90.6804 299.771C90.8714 299.771 91.1277 299.697 91.3001 299.632L91.5238 300.54C91.2023 300.647 90.7969 300.764 90.3682 300.764C89.0541 300.764 88.5788 299.93 88.5788 298.686H88.5881Z" fill="#717071"/>
<path d="M92.698 299.939L93.2851 299.138C93.7977 299.557 94.315 299.823 94.944 299.823C95.6384 299.823 95.9739 299.478 95.9739 299.031C95.9739 298.495 95.3215 298.262 94.6784 298.015C93.8956 297.717 93.0288 297.297 93.0288 296.305C93.0288 295.313 93.821 294.581 95.1258 294.581C95.9086 294.581 96.5703 294.903 97.0316 295.275L96.4631 296.035C96.0438 295.737 95.629 295.522 95.1584 295.522C94.4967 295.522 94.1938 295.844 94.1938 296.249C94.1938 296.743 94.7716 296.934 95.424 297.181C96.2395 297.493 97.1481 297.857 97.1481 298.956C97.1481 299.953 96.3653 300.764 94.9114 300.764C94.1006 300.764 93.2618 300.41 92.698 299.939Z" fill="#717071"/>
<path d="M99.259 294.716H100.266L100.373 295.55H100.396C100.909 295.005 101.486 294.576 102.227 294.576C103.103 294.576 103.588 294.982 103.844 295.657C104.431 295.037 105.023 294.576 105.76 294.576C106.99 294.576 107.568 295.41 107.568 296.91V300.615H106.328V297.064C106.328 296.049 106.03 295.652 105.354 295.652C104.958 295.652 104.52 295.909 104.026 296.445V300.619H102.796V297.069C102.796 296.053 102.484 295.657 101.813 295.657C101.417 295.657 100.979 295.913 100.499 296.449V300.624H99.2684V294.73L99.259 294.716Z" fill="#717071"/>
<path d="M109.809 299.049C109.809 297.777 110.881 297.125 113.332 296.855C113.322 296.179 113.076 295.583 112.209 295.583C111.589 295.583 111.011 295.862 110.508 296.184L110.047 295.35C110.657 294.963 111.482 294.581 112.423 294.581C113.891 294.581 114.562 295.504 114.562 297.074V300.615H113.555L113.458 299.939H113.416C112.88 300.401 112.251 300.764 111.542 300.764C110.527 300.764 109.809 300.088 109.809 299.054V299.049ZM113.332 299.082V297.647C111.589 297.852 110.997 298.299 110.997 298.951C110.997 299.539 111.393 299.776 111.915 299.776C112.437 299.776 112.847 299.529 113.327 299.082H113.332Z" fill="#717071"/>
<path d="M117.106 294.716H118.113L118.22 295.541H118.243C118.779 295.005 119.39 294.576 120.191 294.576C121.445 294.576 121.999 295.41 121.999 296.91V300.615H120.769V297.064C120.769 296.049 120.471 295.652 119.776 295.652C119.231 295.652 118.868 295.918 118.341 296.445V300.619H117.111V294.725L117.106 294.716Z" fill="#717071"/>
<path d="M123.966 299.939L124.553 299.138C125.065 299.557 125.583 299.823 126.212 299.823C126.906 299.823 127.241 299.478 127.241 299.031C127.241 298.495 126.589 298.262 125.946 298.015C125.163 297.717 124.296 297.297 124.296 296.305C124.296 295.313 125.089 294.581 126.393 294.581C127.176 294.581 127.838 294.903 128.299 295.275L127.731 296.035C127.316 295.737 126.897 295.522 126.426 295.522C125.764 295.522 125.461 295.844 125.461 296.249C125.461 296.743 126.039 296.934 126.692 297.181C127.507 297.493 128.416 297.857 128.416 298.956C128.416 299.953 127.633 300.764 126.179 300.764C125.364 300.764 124.529 300.41 123.966 299.939Z" fill="#717071"/>
<path d="M130.527 292.083H131.757V294.343L131.706 295.508C132.218 295.004 132.81 294.576 133.611 294.576C134.865 294.576 135.419 295.41 135.419 296.91V300.614H134.189V297.064C134.189 296.048 133.891 295.652 133.197 295.652C132.651 295.652 132.288 295.918 131.761 296.444V300.619H130.531V292.092L130.527 292.083Z" fill="#717071"/>
<path d="M137.824 292.875C137.824 292.447 138.136 292.148 138.593 292.148C139.049 292.148 139.352 292.447 139.352 292.875C139.352 293.337 139.04 293.625 138.593 293.625C138.145 293.625 137.824 293.337 137.824 292.875ZM137.973 294.716H139.203V300.61H137.973V294.716Z" fill="#717071"/>
<path d="M141.859 294.716H142.866L142.973 295.368H142.996C143.509 294.94 144.152 294.576 144.814 294.576C146.3 294.576 147.134 295.755 147.134 297.572C147.134 299.594 145.923 300.759 144.599 300.759C144.087 300.759 143.551 300.512 143.057 300.083L143.089 301.09V302.996H141.859V294.716ZM145.862 297.595C145.862 296.365 145.466 295.606 144.483 295.606C144.021 295.606 143.583 295.853 143.089 296.323V299.203C143.551 299.59 144.012 299.725 144.362 299.725C145.219 299.725 145.857 298.965 145.857 297.595H145.862Z" fill="#717071"/>
<path d="M203.253 276.992H204.492V280.212H207.861V276.992H209.101V284.876H207.861V281.293H204.492V284.876H203.253V276.992Z" fill="#717071"/>
<path d="M211.458 281.936C211.458 279.979 212.773 278.842 214.24 278.842C215.708 278.842 216.999 279.974 216.999 281.936C216.999 283.897 215.694 285.029 214.24 285.029C212.787 285.029 211.458 283.897 211.458 281.936ZM215.736 281.936C215.736 280.696 215.158 279.858 214.24 279.858C213.322 279.858 212.731 280.692 212.731 281.936C212.731 283.18 213.308 284 214.24 284C215.172 284 215.736 283.184 215.736 281.936Z" fill="#717071"/>
<path d="M219.259 278.982H220.266L220.373 279.816H220.396C220.909 279.27 221.486 278.842 222.227 278.842C223.103 278.842 223.588 279.247 223.844 279.923C224.431 279.303 225.023 278.842 225.76 278.842C226.99 278.842 227.568 279.676 227.568 281.176V284.88H226.328V281.33C226.328 280.314 226.03 279.918 225.354 279.918C224.958 279.918 224.52 280.174 224.026 280.71V284.885H222.796V281.335C222.796 280.319 222.484 279.923 221.813 279.923C221.417 279.923 220.979 280.179 220.494 280.715V284.89H219.264V278.996L219.259 278.982Z" fill="#717071"/>
<path d="M229.734 281.936C229.734 280.021 231.048 278.842 232.418 278.842C233.979 278.842 234.828 279.965 234.828 281.623C234.828 281.87 234.795 282.103 234.762 282.257H230.941C231.039 283.38 231.743 284.056 232.759 284.056C233.281 284.056 233.733 283.897 234.161 283.618L234.59 284.4C234.054 284.764 233.369 285.029 232.61 285.029C230.993 285.029 229.73 283.883 229.73 281.936H229.734ZM233.76 281.4C233.76 280.393 233.299 279.816 232.442 279.816C231.706 279.816 231.048 280.37 230.932 281.4H233.756H233.76Z" fill="#717071"/>
<path d="M237.088 282.951V279.978H236.23V279.06L237.148 278.985L237.288 277.359H238.313V278.985H239.842V279.983H238.313V282.969C238.313 283.677 238.56 284.041 239.18 284.041C239.371 284.041 239.627 283.966 239.8 283.901L240.023 284.81C239.702 284.917 239.296 285.033 238.868 285.033C237.554 285.033 237.083 284.199 237.083 282.955L237.088 282.951Z" fill="#717071"/>
<path d="M241.333 281.936C241.333 279.979 242.647 278.842 244.115 278.842C245.583 278.842 246.873 279.974 246.873 281.936C246.873 283.897 245.569 285.029 244.115 285.029C242.661 285.029 241.333 283.897 241.333 281.936ZM245.615 281.936C245.615 280.696 245.037 279.858 244.119 279.858C243.201 279.858 242.61 280.692 242.61 281.936C242.61 283.18 243.187 284 244.119 284C245.051 284 245.615 283.184 245.615 281.936Z" fill="#717071"/>
<path d="M248.43 278.981H249.669L250.452 282.168C250.569 282.746 250.666 283.282 250.774 283.846H250.825C250.941 283.277 251.063 282.732 251.198 282.168L252.032 278.981H253.164L254.008 282.168C254.147 282.746 254.264 283.282 254.404 283.846H254.46C254.567 283.277 254.665 282.741 254.79 282.168L255.55 278.981H256.715L255.186 284.875H253.709L252.959 281.963C252.819 281.409 252.712 280.873 252.586 280.263H252.535C252.419 280.873 252.311 281.418 252.172 281.972L251.445 284.871H250.009L248.425 278.977L248.43 278.981Z" fill="#717071"/>
<path d="M258.747 278.982H259.753L259.86 279.806H259.884C260.419 279.27 261.03 278.842 261.831 278.842C263.085 278.842 263.639 279.676 263.639 281.176V284.88H262.409V281.33C262.409 280.314 262.111 279.918 261.412 279.918C260.867 279.918 260.503 280.184 259.977 280.71V284.885H258.747V278.991V278.982Z" fill="#717071"/>
<path d="M269.017 281.936C269.017 279.979 270.331 278.842 271.799 278.842C273.267 278.842 274.557 279.974 274.557 281.936C274.557 283.897 273.253 285.029 271.799 285.029C270.345 285.029 269.017 283.897 269.017 281.936ZM273.299 281.936C273.299 280.696 272.721 279.858 271.803 279.858C270.885 279.858 270.294 280.692 270.294 281.936C270.294 283.18 270.871 284 271.803 284C272.735 284 273.299 283.184 273.299 281.936Z" fill="#717071"/>
<path d="M276.188 279.061L276.99 278.995V278.259C276.99 277.053 277.544 276.214 278.854 276.214C279.259 276.214 279.623 276.298 279.893 276.405L279.646 277.337C279.441 277.239 279.208 277.197 279.003 277.197C278.476 277.197 278.22 277.537 278.22 278.245V278.982H279.408V279.979H278.22V284.88H276.99V279.979H276.188V279.061Z" fill="#717071"/>
<path d="M217.321 292.727H219.772C221.375 292.727 222.544 293.248 222.544 294.665C222.544 295.424 222.139 296.142 221.421 296.375V296.426C222.321 296.608 222.973 297.227 222.973 298.299C222.973 299.86 221.71 300.61 219.953 300.61H217.321V292.727ZM219.623 296.025C220.82 296.025 221.323 295.578 221.323 294.837C221.323 294.022 220.769 293.705 219.655 293.705H218.565V296.025H219.623ZM219.814 299.641C221.044 299.641 221.752 299.203 221.752 298.239C221.752 297.363 221.067 296.967 219.814 296.967H218.56V299.641H219.814Z" fill="#717071"/>
<path d="M224.814 299.053C224.814 297.781 225.885 297.129 228.337 296.859C228.327 296.183 228.08 295.587 227.214 295.587C226.594 295.587 226.016 295.866 225.513 296.188L225.051 295.354C225.662 294.967 226.487 294.585 227.428 294.585C228.896 294.585 229.567 295.507 229.567 297.078V300.619H228.56L228.462 299.943H228.42C227.885 300.404 227.255 300.768 226.547 300.768C225.531 300.768 224.814 300.092 224.814 299.058V299.053ZM228.332 299.081V297.646C226.589 297.851 225.997 298.298 225.997 298.951C225.997 299.538 226.393 299.775 226.915 299.775C227.437 299.775 227.847 299.529 228.327 299.081H228.332Z" fill="#717071"/>
<path d="M231.491 299.939L232.078 299.138C232.591 299.557 233.108 299.823 233.737 299.823C234.432 299.823 234.767 299.478 234.767 299.031C234.767 298.495 234.115 298.262 233.472 298.015C232.689 297.717 231.822 297.297 231.822 296.305C231.822 295.313 232.614 294.581 233.919 294.581C234.702 294.581 235.364 294.903 235.825 295.275L235.256 296.035C234.837 295.737 234.422 295.522 233.952 295.522C233.29 295.522 232.987 295.844 232.987 296.249C232.987 296.743 233.565 296.934 234.217 297.181C235.033 297.493 235.941 297.857 235.941 298.956C235.941 299.953 235.158 300.764 233.705 300.764C232.889 300.764 232.055 300.41 231.491 299.939Z" fill="#717071"/>
<path d="M237.633 297.67C237.633 295.755 238.947 294.576 240.317 294.576C241.878 294.576 242.726 295.699 242.726 297.358C242.726 297.605 242.693 297.838 242.661 297.991H238.84C238.938 299.114 239.641 299.79 240.657 299.79C241.179 299.79 241.631 299.632 242.06 299.352L242.488 300.135C241.952 300.498 241.267 300.764 240.508 300.764C238.891 300.764 237.628 299.618 237.628 297.67H237.633ZM241.654 297.134C241.654 296.128 241.193 295.55 240.336 295.55C239.599 295.55 238.942 296.104 238.826 297.134H241.65H241.654Z" fill="#717071"/>
<path d="M246.034 300.004H245.992L245.885 300.614H244.911V292.088H246.142V294.348L246.1 295.354C246.612 294.907 247.232 294.585 247.856 294.585C249.343 294.585 250.191 295.764 250.191 297.581C250.191 299.603 248.984 300.768 247.656 300.768C247.12 300.768 246.533 300.489 246.039 300.009L246.034 300.004ZM248.909 297.595C248.909 296.365 248.513 295.606 247.53 295.606C247.069 295.606 246.622 295.853 246.137 296.323V299.203C246.584 299.589 247.06 299.725 247.409 299.725C248.266 299.725 248.905 298.965 248.905 297.595H248.909Z" fill="#717071"/>
<path d="M251.938 299.053C251.938 297.781 253.01 297.129 255.461 296.859C255.452 296.183 255.205 295.587 254.338 295.587C253.719 295.587 253.141 295.866 252.637 296.188L252.176 295.354C252.787 294.967 253.611 294.585 254.553 294.585C256.021 294.585 256.692 295.507 256.692 297.078V300.619H255.685L255.587 299.943H255.545C255.009 300.404 254.38 300.768 253.672 300.768C252.656 300.768 251.938 300.092 251.938 299.058V299.053ZM255.461 299.081V297.646C253.719 297.851 253.127 298.298 253.127 298.951C253.127 299.538 253.523 299.775 254.045 299.775C254.567 299.775 254.977 299.529 255.457 299.081H255.461Z" fill="#717071"/>
<path d="M259.236 299.221V292.083H260.466V299.286C260.466 299.617 260.606 299.734 260.755 299.734C260.811 299.734 260.853 299.734 260.969 299.71L261.118 300.642C260.969 300.707 260.764 300.759 260.457 300.759C259.567 300.759 259.236 300.181 259.236 299.216V299.221Z" fill="#717071"/>
<path d="M263.229 299.221V292.083H264.459V299.286C264.459 299.617 264.599 299.734 264.748 299.734C264.804 299.734 264.846 299.734 264.963 299.71L265.112 300.642C264.963 300.707 264.758 300.759 264.45 300.759C263.56 300.759 263.229 300.181 263.229 299.216V299.221Z" fill="#717071"/>
<path d="M154.921 114.549H157.307C159.063 114.549 160.326 115.159 160.326 116.944C160.326 118.728 159.063 119.446 157.353 119.446H156.165V122.432H154.925V114.549H154.921ZM157.241 118.444C158.481 118.444 159.091 117.964 159.091 116.944C159.091 115.923 158.439 115.551 157.185 115.551H156.16V118.439H157.241V118.444Z" fill="#717071"/>
<path d="M161.855 119.493C161.855 117.578 163.169 116.399 164.539 116.399C166.1 116.399 166.948 117.522 166.948 119.181C166.948 119.428 166.915 119.661 166.883 119.815H163.062C163.159 120.938 163.863 121.613 164.879 121.613C165.401 121.613 165.853 121.455 166.281 121.175L166.71 121.958C166.174 122.321 165.489 122.587 164.73 122.587C163.113 122.587 161.85 121.441 161.85 119.493H161.855ZM165.876 118.957C165.876 117.951 165.415 117.373 164.557 117.373C163.821 117.373 163.164 117.928 163.048 118.957H165.871H165.876Z" fill="#717071"/>
<path d="M168.509 121.758L169.096 120.956C169.609 121.376 170.126 121.641 170.755 121.641C171.449 121.641 171.785 121.296 171.785 120.849C171.785 120.313 171.132 120.08 170.489 119.833C169.706 119.535 168.84 119.116 168.84 118.123C168.84 117.131 169.632 116.399 170.937 116.399C171.719 116.399 172.381 116.721 172.842 117.094L172.274 117.853C171.855 117.555 171.44 117.341 170.969 117.341C170.307 117.341 170.005 117.662 170.005 118.067C170.005 118.561 170.582 118.752 171.235 118.999C172.05 119.311 172.959 119.675 172.959 120.775C172.959 121.772 172.176 122.582 170.722 122.582C169.907 122.582 169.073 122.228 168.509 121.758Z" fill="#717071"/>
<path d="M175.028 120.508V117.536H174.171V116.618L175.089 116.543L175.228 114.917H176.253V116.543H177.782V117.54H176.253V120.527C176.253 121.235 176.5 121.598 177.12 121.598C177.311 121.598 177.568 121.524 177.74 121.459L177.964 122.367C177.642 122.474 177.237 122.591 176.808 122.591C175.494 122.591 175.023 121.757 175.023 120.513L175.028 120.508Z" fill="#717071"/>
<path d="M179.874 121.044V113.906H181.104V121.11C181.104 121.44 181.244 121.557 181.393 121.557C181.449 121.557 181.491 121.557 181.608 121.534L181.757 122.465C181.608 122.531 181.403 122.582 181.095 122.582C180.205 122.582 179.874 122.004 179.874 121.04V121.044Z" fill="#717071"/>
<path d="M183.448 119.493C183.448 117.578 184.762 116.399 186.132 116.399C187.693 116.399 188.541 117.522 188.541 119.181C188.541 119.428 188.509 119.661 188.476 119.815H184.655C184.753 120.938 185.457 121.613 186.472 121.613C186.994 121.613 187.446 121.455 187.875 121.175L188.304 121.958C187.768 122.321 187.083 122.587 186.323 122.587C184.706 122.587 183.444 121.441 183.444 119.493H183.448ZM187.47 118.957C187.47 117.951 187.008 117.373 186.151 117.373C185.415 117.373 184.758 117.928 184.641 118.957H187.465H187.47Z" fill="#717071"/>
<path d="M140.247 136.607C140.247 135.335 141.319 134.683 143.77 134.412C143.76 133.737 143.513 133.14 142.647 133.14C142.027 133.14 141.449 133.42 140.946 133.741L140.485 132.907C141.095 132.521 141.92 132.139 142.861 132.139C144.329 132.139 145 133.061 145 134.631V138.172H143.993L143.896 137.497H143.854C143.318 137.958 142.689 138.322 141.98 138.322C140.965 138.322 140.247 137.646 140.247 136.612V136.607ZM143.77 136.64V135.204C142.027 135.41 141.435 135.857 141.435 136.509C141.435 137.096 141.831 137.334 142.353 137.334C142.875 137.334 143.285 137.087 143.765 136.64H143.77Z" fill="#717071"/>
<path d="M147.549 132.274H148.555L148.663 133.098H148.686C149.222 132.562 149.832 132.134 150.634 132.134C151.887 132.134 152.442 132.968 152.442 134.468V138.172H151.212V134.622C151.212 133.606 150.913 133.21 150.214 133.21C149.669 133.21 149.306 133.476 148.779 134.002V138.177H147.549V132.283V132.274Z" fill="#717071"/>
<path d="M154.632 135.227C154.632 133.312 155.839 132.133 157.148 132.133C157.833 132.133 158.262 132.38 158.732 132.795L158.691 131.821V129.641H159.921V138.167H158.914L158.807 137.506H158.774C158.336 137.953 157.726 138.321 157.05 138.321C155.582 138.321 154.632 137.189 154.632 135.227ZM158.686 136.564V133.694C158.248 133.298 157.828 133.158 157.39 133.158C156.575 133.158 155.904 133.941 155.904 135.213C155.904 136.485 156.426 137.277 157.349 137.277C157.842 137.277 158.257 137.063 158.686 136.56V136.564Z" fill="#717071"/>
<path d="M165.89 130.284H167.325L168.76 134.277C168.942 134.79 169.115 135.335 169.282 135.861H169.338C169.52 135.335 169.683 134.79 169.851 134.277L171.263 130.284H172.707V138.168H171.552V134.273C171.552 133.564 171.65 132.549 171.724 131.831H171.668L171.039 133.648L169.669 137.404H168.9L167.521 133.648L166.892 131.831H166.85C166.924 132.549 167.022 133.564 167.022 134.273V138.168H165.899V130.284H165.89Z" fill="#717071"/>
<path d="M175.047 135.228C175.047 133.271 176.361 132.134 177.829 132.134C179.296 132.134 180.587 133.266 180.587 135.228C180.587 137.189 179.282 138.321 177.829 138.321C176.375 138.321 175.047 137.189 175.047 135.228ZM179.329 135.228C179.329 133.988 178.751 133.15 177.833 133.15C176.915 133.15 176.323 133.984 176.323 135.228C176.323 136.472 176.901 137.292 177.833 137.292C178.765 137.292 179.329 136.476 179.329 135.228Z" fill="#717071"/>
<path d="M182.847 132.274H183.854L183.961 133.331H183.984C184.404 132.581 185.023 132.134 185.662 132.134C185.951 132.134 186.132 132.176 186.314 132.25L186.1 133.331C185.885 133.266 185.746 133.233 185.499 133.233C185.019 133.233 184.441 133.564 184.077 134.505V138.163H182.847V132.269V132.274Z" fill="#717071"/>
<path d="M188.22 136.243V133.271H187.363V132.348L188.281 132.274L188.42 130.647H189.445V132.274H190.974V133.271H189.445V136.257C189.445 136.965 189.692 137.329 190.312 137.329C190.503 137.329 190.76 137.254 190.932 137.189L191.156 138.098C190.834 138.205 190.429 138.321 190 138.321C188.686 138.321 188.215 137.487 188.215 136.243H188.22Z" fill="#717071"/>
<path d="M192.47 136.607C192.47 135.335 193.541 134.683 195.993 134.412C195.983 133.737 195.736 133.14 194.87 133.14C194.25 133.14 193.672 133.42 193.169 133.741L192.707 132.907C193.318 132.521 194.143 132.139 195.084 132.139C196.552 132.139 197.223 133.061 197.223 134.631V138.172H196.216L196.118 137.497H196.076C195.541 137.958 194.911 138.322 194.203 138.322C193.187 138.322 192.47 137.646 192.47 136.612V136.607ZM195.988 136.64V135.204C194.245 135.41 193.653 135.857 193.653 136.509C193.653 137.096 194.049 137.334 194.571 137.334C195.093 137.334 195.503 137.087 195.983 136.64H195.988Z" fill="#717071"/>
<path d="M199.767 132.274H200.773L200.881 133.331H200.904C201.323 132.581 201.943 132.134 202.581 132.134C202.87 132.134 203.052 132.176 203.234 132.25L203.02 133.331C202.805 133.266 202.665 133.233 202.418 133.233C201.938 133.233 201.361 133.564 200.997 134.505V138.163H199.767V132.269V132.274Z" fill="#717071"/>
<path d="M18.1034 122.982H22.7679V124.031H19.3429V126.44H22.2646V127.479H19.3429V130.871H18.1034V122.987V122.982Z" fill="#717071"/>
<path d="M24.8556 129.478V122.34H26.0858V129.543C26.0858 129.874 26.2256 129.99 26.3747 129.99C26.4306 129.99 26.4726 129.99 26.589 129.972L26.7382 130.904C26.589 130.969 26.384 131.02 26.0765 131.02C25.1864 131.02 24.8556 130.442 24.8556 129.478Z" fill="#717071"/>
<path d="M28.3737 133.215L28.6114 132.251C28.7185 132.283 28.891 132.334 29.0494 132.334C29.6785 132.334 30.0559 131.864 30.2703 131.23L30.4007 130.825L28.0662 124.973H29.3197L30.4007 128.011C30.5825 128.532 30.7642 129.115 30.9459 129.669H30.9972C31.1463 129.124 31.3094 128.546 31.4585 128.011L32.4091 124.973H33.5974L31.4352 131.221C30.9739 132.483 30.3541 133.331 29.1239 133.331C28.8117 133.331 28.5787 133.29 28.3737 133.215Z" fill="#717071"/>
<path d="M35.3169 123.132C35.3169 122.703 35.6291 122.405 36.0858 122.405C36.5424 122.405 36.8453 122.703 36.8453 123.132C36.8453 123.593 36.5331 123.882 36.0858 123.882C35.6384 123.882 35.3169 123.593 35.3169 123.132ZM35.4707 124.973H36.7009V130.867H35.4707V124.973Z" fill="#717071"/>
<path d="M39.3523 124.972H40.3588L40.466 125.796H40.4893C41.0252 125.261 41.6356 124.832 42.4371 124.832C43.6906 124.832 44.2451 125.666 44.2451 127.166V130.871H43.0149V127.32C43.0149 126.304 42.7167 125.908 42.0177 125.908C41.4725 125.908 41.1091 126.174 40.5825 126.7V130.875H39.3523V124.981V124.972Z" fill="#717071"/>
<path d="M46.4026 131.961C46.4026 131.467 46.7148 131.011 47.26 130.675V130.633C46.9618 130.428 46.7242 130.121 46.7242 129.65C46.7242 129.179 47.0457 128.783 47.3859 128.56V128.518C46.9805 128.206 46.603 127.651 46.603 126.943C46.603 125.615 47.6608 124.837 48.8817 124.837C49.2125 124.837 49.5107 124.902 49.7391 124.977H51.8267V125.909H50.713C50.9273 126.156 51.0858 126.538 51.0858 126.976C51.0858 128.271 50.1119 129.007 48.8817 129.007C48.6254 129.007 48.3132 128.942 48.0569 128.835C47.8751 128.998 47.7353 129.156 47.7353 129.445C47.7353 129.79 47.9683 130.023 48.7186 130.023H49.809C51.1883 130.023 51.9152 130.451 51.9152 131.444C51.9152 132.59 50.727 133.508 48.8444 133.508C47.4231 133.508 46.3933 132.986 46.3933 131.956L46.4026 131.961ZM50.727 131.649C50.727 131.155 50.3402 131.006 49.6366 131.006H48.7465C48.4669 131.006 48.2013 130.987 47.9544 130.922C47.6002 131.178 47.4604 131.476 47.4604 131.779C47.4604 132.348 48.0476 132.697 49.0215 132.697C50.0466 132.697 50.7223 132.194 50.7223 131.649H50.727ZM50 126.943C50 126.16 49.5061 125.704 48.8863 125.704C48.2666 125.704 47.7726 126.151 47.7726 126.943C47.7726 127.735 48.2759 128.206 48.8863 128.206C49.4968 128.206 50 127.735 50 126.943Z" fill="#717071"/>
<path d="M57.1389 122.982H61.8034V124.031H58.3784V126.44H61.3001V127.479H58.3784V130.871H57.1389V122.987V122.982Z" fill="#717071"/>
<path d="M63.7418 123.132C63.7418 122.703 64.054 122.405 64.5107 122.405C64.9674 122.405 65.2703 122.703 65.2703 123.132C65.2703 123.593 64.958 123.882 64.5107 123.882C64.0634 123.882 63.7418 123.593 63.7418 123.132ZM63.8909 124.973H65.1211V130.867H63.8909V124.973Z" fill="#717071"/>
<path d="M67.1528 130.195L67.74 129.394C68.2525 129.808 68.7698 130.079 69.3989 130.079C70.0932 130.079 70.4287 129.739 70.4287 129.287C70.4287 128.751 69.7763 128.518 69.1333 128.271C68.3504 127.973 67.4837 127.553 67.4837 126.561C67.4837 125.568 68.2759 124.837 69.5806 124.837C70.3635 124.837 71.0252 125.158 71.4865 125.531L70.918 126.291C70.4986 125.992 70.0839 125.778 69.6132 125.778C68.9515 125.778 68.6486 126.1 68.6486 126.505C68.6486 126.999 69.2265 127.19 69.8788 127.437C70.6943 127.749 71.603 128.112 71.603 129.212C71.603 130.204 70.8201 131.02 69.3663 131.02C68.5508 131.02 67.7167 130.666 67.1528 130.195Z" fill="#717071"/>
<path d="M73.7139 122.34H74.9441V124.6L74.8928 125.764C75.4054 125.261 75.9972 124.833 76.7987 124.833C78.0522 124.833 78.6067 125.667 78.6067 127.167V130.871H77.3765V127.321C77.3765 126.305 77.0783 125.909 76.3793 125.909C75.8341 125.909 75.4706 126.174 74.9441 126.701V130.876H73.7139V122.349V122.34Z" fill="#717071"/>
<path d="M264.133 115.719H261.831V114.671H267.707V115.719H265.396V122.554H264.133V115.719Z" fill="#717071"/>
<path d="M269.227 116.66H270.233L270.34 117.718H270.364C270.778 116.968 271.403 116.521 272.041 116.521C272.33 116.521 272.512 116.562 272.693 116.637L272.479 117.718C272.265 117.653 272.125 117.62 271.878 117.62C271.398 117.62 270.82 117.951 270.457 118.892V122.55H269.227V116.656V116.66Z" fill="#717071"/>
<path d="M274.259 114.82C274.259 114.391 274.571 114.093 275.028 114.093C275.485 114.093 275.787 114.391 275.787 114.82C275.787 115.281 275.475 115.57 275.028 115.57C274.581 115.57 274.259 115.281 274.259 114.82ZM274.408 116.66H275.638V122.554H274.408V116.66Z" fill="#717071"/>
<path d="M277.894 119.614C277.894 117.699 279.101 116.52 280.41 116.52C281.095 116.52 281.524 116.767 281.994 117.182L281.953 116.208V114.027H283.183V122.554H282.176L282.069 121.892H282.036C281.598 122.34 280.988 122.708 280.312 122.708C278.844 122.708 277.894 121.575 277.894 119.614ZM281.953 120.951V118.081C281.514 117.685 281.095 117.545 280.657 117.545C279.846 117.545 279.171 118.328 279.171 119.6C279.171 120.872 279.693 121.664 280.615 121.664C281.109 121.664 281.524 121.45 281.953 120.946V120.951Z" fill="#717071"/>
<path d="M285.419 119.614C285.419 117.699 286.734 116.521 288.104 116.521C289.665 116.521 290.513 117.643 290.513 119.302C290.513 119.549 290.48 119.782 290.447 119.936H286.626C286.724 121.059 287.428 121.734 288.444 121.734C288.966 121.734 289.418 121.576 289.846 121.296L290.275 122.079C289.739 122.443 289.054 122.708 288.295 122.708C286.678 122.708 285.415 121.562 285.415 119.614H285.419ZM289.441 119.078C289.441 118.072 288.98 117.494 288.127 117.494C287.391 117.494 286.734 118.049 286.617 119.078H289.441Z" fill="#717071"/>
<path d="M292.693 116.66H293.7L293.807 117.485H293.83C294.366 116.949 294.977 116.521 295.778 116.521C297.032 116.521 297.586 117.355 297.586 118.855V122.559H296.356V119.009C296.356 117.993 296.058 117.597 295.359 117.597C294.814 117.597 294.45 117.862 293.924 118.389V122.564H292.693V116.67V116.66Z" fill="#717071"/>
<path d="M300.368 120.629V117.657H299.511V116.739L300.429 116.664L300.569 115.038H301.598V116.664H303.127V117.661H301.598V120.648C301.598 121.356 301.845 121.72 302.465 121.72C302.656 121.72 302.912 121.645 303.085 121.58L303.309 122.488C302.987 122.596 302.582 122.712 302.153 122.712C300.839 122.712 300.368 121.878 300.368 120.634V120.629Z" fill="#717071"/>
<path d="M308.532 114.671H313.197V115.719H309.772V118.128H312.693V119.167H309.772V122.559H308.532V114.676V114.671Z" fill="#717071"/>
<path d="M315.135 114.82C315.135 114.391 315.447 114.093 315.904 114.093C316.361 114.093 316.664 114.391 316.664 114.82C316.664 115.281 316.351 115.57 315.904 115.57C315.457 115.57 315.135 115.281 315.135 114.82ZM315.284 116.66H316.515V122.554H315.284V116.66Z" fill="#717071"/>
<path d="M318.546 121.883L319.133 121.081C319.646 121.501 320.163 121.766 320.792 121.766C321.487 121.766 321.822 121.421 321.822 120.974C321.822 120.438 321.17 120.205 320.527 119.958C319.744 119.66 318.877 119.241 318.877 118.248C318.877 117.256 319.669 116.524 320.974 116.524C321.757 116.524 322.418 116.846 322.88 117.219L322.311 117.978C321.897 117.68 321.477 117.466 321.007 117.466C320.345 117.466 320.042 117.787 320.042 118.192C320.042 118.686 320.62 118.877 321.272 119.124C322.088 119.436 322.996 119.8 322.996 120.9C322.996 121.897 322.213 122.707 320.76 122.707C319.944 122.707 319.11 122.353 318.546 121.883Z" fill="#717071"/>
<path d="M325.107 114.027H326.337V116.287L326.281 117.452C326.794 116.949 327.386 116.52 328.187 116.52C329.441 116.52 329.995 117.354 329.995 118.854V122.559H328.765V119.008C328.765 117.992 328.467 117.596 327.768 117.596C327.223 117.596 326.859 117.862 326.333 118.388V122.563H325.103V114.037L325.107 114.027Z" fill="#717071"/>
<path d="M272.274 130.405H273.513V133.625H276.883V130.405H278.122V138.289H276.883V134.706H273.513V138.289H272.274V130.405Z" fill="#717071"/>
<path d="M280.554 136.728C280.554 135.456 281.626 134.804 284.077 134.534C284.068 133.858 283.821 133.262 282.954 133.262C282.334 133.262 281.757 133.541 281.253 133.863L280.792 133.029C281.403 132.642 282.227 132.26 283.169 132.26C284.636 132.26 285.307 133.182 285.307 134.753V138.294H284.301L284.203 137.618H284.161C283.625 138.079 282.996 138.443 282.288 138.443C281.272 138.443 280.554 137.767 280.554 136.733V136.728ZM284.077 136.761V135.326C282.334 135.531 281.743 135.978 281.743 136.63C281.743 137.217 282.139 137.455 282.661 137.455C283.183 137.455 283.593 137.208 284.073 136.761H284.077Z" fill="#717071"/>
<path d="M287.852 132.395H288.858L288.966 133.452H288.989C289.404 132.702 290.028 132.255 290.666 132.255C290.955 132.255 291.137 132.297 291.319 132.371L291.104 133.452C290.89 133.387 290.75 133.354 290.503 133.354C290.023 133.354 289.445 133.685 289.082 134.626V138.284H287.852V132.39V132.395Z" fill="#717071"/>
<path d="M293.033 132.395H294.04L294.147 133.047H294.17C294.683 132.618 295.326 132.255 295.988 132.255C297.474 132.255 298.308 133.434 298.308 135.251C298.308 137.273 297.097 138.438 295.773 138.438C295.261 138.438 294.725 138.191 294.231 137.762L294.264 138.769V140.674H293.033V132.395ZM297.036 135.274C297.036 134.044 296.64 133.285 295.657 133.285C295.196 133.285 294.758 133.532 294.264 134.002V136.882C294.725 137.268 295.182 137.403 295.536 137.403C296.393 137.403 297.032 136.644 297.032 135.274H297.036Z" fill="#717071"/>
<path d="M300.158 135.349C300.158 133.392 301.473 132.255 302.94 132.255C304.408 132.255 305.699 133.387 305.699 135.349C305.699 137.31 304.394 138.442 302.94 138.442C301.486 138.442 300.158 137.31 300.158 135.349ZM304.441 135.349C304.441 134.109 303.863 133.271 302.945 133.271C302.027 133.271 301.435 134.105 301.435 135.349C301.435 136.593 302.013 137.413 302.945 137.413C303.877 137.413 304.441 136.597 304.441 135.349Z" fill="#717071"/>
<path d="M307.544 135.349C307.544 133.392 308.858 132.255 310.326 132.255C311.794 132.255 313.089 133.387 313.089 135.349C313.089 137.31 311.785 138.442 310.326 138.442C308.868 138.442 307.544 137.31 307.544 135.349ZM311.822 135.349C311.822 134.109 311.244 133.271 310.326 133.271C309.408 133.271 308.816 134.105 308.816 135.349C308.816 136.593 309.394 137.413 310.326 137.413C311.258 137.413 311.822 136.597 311.822 135.349Z" fill="#717071"/>
<path d="M315.345 132.395H316.351L316.458 133.219H316.482C317.018 132.684 317.628 132.255 318.43 132.255C319.683 132.255 320.238 133.089 320.238 134.589V138.293H319.007V134.743C319.007 133.727 318.709 133.331 318.015 133.331C317.47 133.331 317.106 133.597 316.58 134.123V138.298H315.349V132.404L315.345 132.395Z" fill="#717071"/>
<path d="M164.748 68.4361C169.408 69.1443 176.207 69.4006 183.844 67.1968C191.062 57.0068 188.504 38.6538 188.504 38.6538C188.504 35.7324 180.927 33.3701 171.584 33.3701C162.241 33.3701 154.665 35.737 154.665 38.6538C154.665 38.6538 152.092 57.0954 159.376 67.2713C160.867 67.6953 162.679 68.1193 164.748 68.4361Z" fill="#5D97C4"/>
<path d="M183.765 69.1211C179.296 70.3651 175.112 70.7984 171.468 70.7984C168.835 70.7984 166.486 70.5748 164.506 70.2719C162.535 69.9691 160.801 69.573 159.348 69.1723C157.931 70.6726 154.413 75.4717 154.217 86.2208C154.217 86.2208 156.724 93.4241 171.58 93.6803C186.435 93.4241 188.942 86.2208 188.942 86.2208C188.747 75.3459 185.144 70.5608 183.765 69.1211Z" fill="#5D97C4"/>
<path d="M178.215 40.5734L181.235 30.2903L184.301 28.3613L191.337 4.41708C191.715 3.1311 190.979 1.7799 189.693 1.4025L185.252 0.0978904C183.966 -0.279514 182.614 0.456658 182.237 1.74263L175.2 25.6869L176.738 28.967L172.889 40.9508C172.889 40.9508 175.55 41.1185 178.215 40.5687V40.5734Z" fill="#2E59A6"/>
<path d="M294.432 1.89679V1.33301L294.394 1.61257L294.357 1.33301V1.89679C293.495 5.59162 293.057 9.37033 293.057 13.163V55.8936H295.732V13.1584C295.732 9.36567 295.294 5.58696 294.432 1.89213V1.89679Z" fill="#5D97C4"/>
<path d="M284.403 36.5293V13.1581C284.403 9.36545 283.965 5.58674 283.103 1.8919V1.32812L283.066 1.60768L283.029 1.32812V1.8919C282.167 5.58674 281.729 9.36545 281.729 13.1581V36.7017L289.143 46.9475V55.8934H291.622V46.2812L284.403 36.5339V36.5293Z" fill="#5D97C4"/>
<path d="M304.389 36.5293V13.1581C304.389 9.36545 304.828 5.58674 305.69 1.8919V1.32812L305.727 1.60768L305.764 1.32812V1.8919C306.626 5.58674 307.064 9.36545 307.064 13.1581V36.7017L299.65 46.9475V55.8934H297.171V46.2812L304.389 36.5339V36.5293Z" fill="#5D97C4"/>
<path d="M300.559 55.8936H288.234V74.7498H300.559V55.8936Z" fill="#2E59A6"/>
<path d="M298.332 72.8154H290.461V92.5616H298.332V72.8154Z" fill="#2E59A6"/>
<path d="M38.7512 42.9404C38.7512 42.9404 56.0485 51.7326 62.0783 68.9208C62.0783 68.9208 61.1604 48.7553 38.7512 42.9404Z" fill="#5D97C4"/>
<path d="M58.4763 69.6013C58.4763 69.6013 57.8146 55.1062 41.7102 50.9268C41.7102 50.9268 54.1473 57.2448 58.4763 69.6013Z" fill="#5D97C4"/>
<path d="M88.7186 75.0055C87.521 69.9222 77.0876 66.9588 72.7214 65.193C74.59 55.1102 72.7214 42.9447 64.5573 35.9418C63.192 35.6529 63.6673 36.4916 63.4064 37.3675C61.9804 42.1806 61.5331 47.413 60.0093 52.2121C52.5489 43.0286 43.0289 34.5347 30.713 33.3232C30.6431 35.9325 32.9311 38.6582 33.9516 41.1556C37.4045 49.6355 39.1147 57.8033 46.0065 64.5779C42.5163 64.6106 37.288 67.737 33.8537 68.6921C15.0326 65.1836 5.0606 67.6298 -0.00463867 70.3136C5.27029 71.3526 13.1734 74.288 14.2871 82.5489L35.7223 71.5809C35.7223 71.5809 37.055 71.6088 39.1939 71.73C36.165 72.373 29.2498 77.8989 30.3868 78.9053C35.9087 79.4831 40.6524 77.5402 45.3542 74.9915C45.4893 73.7708 44.0261 74.4464 43.3924 74.656C40.4474 75.6345 37.5769 77.3072 34.2917 76.9438C36.0112 74.1901 38.6021 72.6572 41.5517 71.8744C42.1435 71.9164 42.7866 71.9676 43.4343 72.0235C41.2349 72.4429 38.6953 73.5751 36.5145 76.2821C36.5145 76.2821 40.713 72.9181 46.3281 72.2891C51.6869 72.8389 58.0662 73.8034 62.945 75.4901L60.042 72.9088C56.4539 70.02 54.4735 68.8552 50.918 65.8639C41.0811 57.5936 38.658 48.4893 34.2964 36.9063C33.7279 35.1404 43.5089 40.1771 44.2591 40.6197C55.3029 47.1148 63.3178 58.437 68.8257 69.7871C70.1631 68.4032 76.1091 70.4021 77.6002 71.6881C76.4585 72.0468 75.6338 73.0486 75.6338 74.2414C75.6338 75.0567 76.0205 75.7743 76.6263 76.2728C76.6263 76.2821 76.6263 76.2915 76.6263 76.3008L76.6403 76.2868C77.1389 76.6922 77.7819 76.9484 78.4949 76.9484C78.6254 76.9484 78.7465 76.9298 78.8723 76.9112L79.2218 77.6007C75.5033 77.638 71.4818 75.9467 73.3551 71.7486C72.2554 71.9769 71.9991 73.0626 71.9991 74.0317C71.9944 80.182 90.3215 81.8174 88.7186 75.0055ZM12.0177 71.8185C19.6133 66.5209 28.5601 70.1132 28.5601 70.1132C19.7437 68.5523 12.0177 71.8185 12.0177 71.8185ZM14.3616 76.8646C20.8062 70.2157 30.275 72.0328 30.275 72.0328C21.3234 72.1819 14.3616 76.8646 14.3616 76.8646ZM76.4585 74.3113C76.4585 73.2303 77.3346 72.359 78.411 72.359C79.3803 72.359 80.1771 73.0672 80.3309 73.9898C80.0373 73.426 79.4688 73.0299 78.7885 73.0299C77.8192 73.0299 77.0317 73.8174 77.0317 74.7865C77.0317 75.3363 77.302 75.8115 77.7027 76.133C76.9758 75.8488 76.4585 75.1453 76.4585 74.3159V74.3113Z" fill="#5D97C4"/>
<path d="M26.4073 59.4012C26.4958 59.8485 25.8993 59.6528 25.6291 59.6389C20.2749 59.336 12.8891 56.396 9.56663 52.0442C6.5191 48.0511 5.3355 41.2346 9.9301 37.9078C13.1267 35.5968 18.4063 37.2089 18.1361 41.5328C18.0149 43.499 15.5545 45.5724 15.2609 47.8182C14.4921 53.7542 21.4259 58.1293 26.4073 59.4012Z" fill="#2E59A6"/>
<path d="M22.8192 40.1721C24.0028 39.9485 25.8201 40.6847 26.5097 41.6585C28.1733 44.0161 26.2628 46.3364 25.8667 48.8198C25.1537 53.2602 27.0503 56.1163 29.6272 59.4384C23.9515 57.3557 18.4995 49.118 20.0512 43.1029C20.3774 41.8402 21.4585 40.4284 22.8238 40.1721H22.8192Z" fill="#2E59A6"/>
</g>
<defs>
<clipPath id="clip0_582_480">
<rect width="330" height="303" fill="white"/>
</clipPath>
</defs>
</svg>
