<svg width="778" height="175" viewBox="0 0 778 175" fill="none" xmlns="http://www.w3.org/2000/svg">
<g clip-path="url(#clip0_176_21190)">
<path d="M549.61 157.79C550.53 157.79 550.69 157.52 550.81 156.19C551.13 156.39 551.67 156.61 552.06 156.68C551.84 158.49 551.41 159.06 549.7 159.06H545.74C543.74 159.06 543.15 158.63 543.15 156.87V150.32H541.84V151.53C541.84 154.43 541.58 157.15 539.75 159.45C539.51 159.15 539.04 158.74 538.71 158.5C540.35 156.44 540.57 153.96 540.57 151.53V150.32H539.01V149.1H540.57V146.21H541.84V149.1H544.45V156.86C544.45 157.65 544.64 157.8 545.79 157.8H549.62L549.61 157.79ZM551.18 156.03H545.78V147.21H551.18V156.03ZM549.85 148.5H547.06V150.96H549.85V148.5ZM549.85 152.23H547.06V154.75H549.85V152.23Z" fill="#717071"/>
<path d="M565.83 147.1V159.18H564.4V158.3H557.62V159.24H556.25V147.1H565.83ZM557.62 148.46V151.97H564.4V148.46H557.62ZM564.4 156.95V153.29H557.62V156.95H564.4Z" fill="#717071"/>
<path d="M553.86 102C573.659 102 589.71 85.9492 589.71 66.1498C589.71 46.3504 573.659 30.2998 553.86 30.2998C534.061 30.2998 518.01 46.3504 518.01 66.1498C518.01 85.9492 534.061 102 553.86 102Z" fill="#2E59A6"/>
<path d="M522.075 94.4908L512.048 104.518L514.983 107.452L525.01 97.4253L522.075 94.4908Z" fill="#5D97C4"/>
<path d="M583.96 95.2257L581.025 98.1602L590.882 108.017L593.817 105.083L583.96 95.2257Z" fill="#5D97C4"/>
<path d="M556.06 11.3799H551.93V25.2199H556.06V11.3799Z" fill="#5D97C4"/>
<path d="M511.63 64.2998H497.79V68.4298H511.63V64.2998Z" fill="#5D97C4"/>
<path d="M608.98 65.5098H595.14V69.6398H608.98V65.5098Z" fill="#5D97C4"/>
<path d="M554.84 108.72H550.71V122.56H554.84V108.72Z" fill="#5D97C4"/>
<path d="M541.308 12.3859L537.318 13.4541L540.96 27.055L544.95 25.9867L541.308 12.3859Z" fill="#5D97C4"/>
<path d="M512.379 75.1685L498.771 78.7842L499.834 82.7853L513.442 79.1697L512.379 75.1685Z" fill="#5D97C4"/>
<path d="M540.05 106.386L536.485 119.966L540.499 121.02L544.064 107.44L540.05 106.386Z" fill="#5D97C4"/>
<path d="M566.23 12.5325L562.635 26.1562L566.638 27.2124L570.233 13.5886L566.23 12.5325Z" fill="#5D97C4"/>
<path d="M500.212 49.9335L499.163 53.9902L512.766 57.5057L513.815 53.449L500.212 49.9335Z" fill="#5D97C4"/>
<path d="M593.985 76.0438L592.909 80.0312L606.58 83.72L607.656 79.7326L593.985 76.0438Z" fill="#5D97C4"/>
<path d="M565.565 106.655L561.584 107.716L565.212 121.331L569.193 120.27L565.565 106.655Z" fill="#5D97C4"/>
<path d="M606.684 50.8604L593.072 54.5L594.136 58.4802L607.748 54.8405L606.684 50.8604Z" fill="#5D97C4"/>
<path d="M590.171 86.2614L588.099 89.8457L600.384 96.9471L602.456 93.3629L590.171 86.2614Z" fill="#5D97C4"/>
<path d="M600.833 37.6444L588.566 44.5762L590.623 48.2153L602.889 41.2835L600.833 37.6444Z" fill="#5D97C4"/>
<path d="M515.981 85.4524L503.762 92.4277L505.814 96.0232L518.034 89.0478L515.981 85.4524Z" fill="#5D97C4"/>
<path d="M579.858 17.7242L572.863 29.9893L576.485 32.0553L583.481 19.7902L579.858 17.7242Z" fill="#5D97C4"/>
<path d="M506.33 36.7219L504.268 40.3115L516.467 47.321L518.53 43.7313L506.33 36.7219Z" fill="#5D97C4"/>
<path d="M575.499 102.14L571.926 104.191L578.956 116.437L582.529 114.386L575.499 102.14Z" fill="#5D97C4"/>
<path d="M527.744 17.2724L524.083 19.3506L531.019 31.5694L534.68 29.4912L527.744 17.2724Z" fill="#5D97C4"/>
<path d="M530.272 101.553L523.303 113.765L526.899 115.816L533.867 103.605L530.272 101.553Z" fill="#5D97C4"/>
<path d="M515.757 25.7941L512.943 28.6084L522.8 38.4655L525.614 35.6512L515.757 25.7941Z" fill="#5D97C4"/>
<path d="M591.624 26.4027L581.767 36.2598L584.582 39.0741L594.439 29.217L591.624 26.4027Z" fill="#5D97C4"/>
<path d="M729.33 146.89C729.29 152.33 729.29 157.98 730.05 157.98C730.19 157.98 730.28 157.04 730.31 155.85C730.53 156.23 730.83 156.64 731.07 156.87C730.94 158.66 730.7 159.42 729.9 159.42C728.03 159.42 728.03 154.31 728 148.13H720.57V151.63C720.57 153.99 720.33 157.31 718.74 159.45C718.51 159.22 717.96 158.86 717.65 158.71C719.16 156.69 719.29 153.8 719.29 151.62V146.88H729.33V146.89ZM726.71 155.44C727.39 156.4 728.05 157.72 728.27 158.59L727.16 158.98C727.09 158.68 726.97 158.3 726.81 157.93C724.55 158.1 722.23 158.28 720.57 158.39L720.47 157.19C721.33 157.15 722.43 157.07 723.62 157V155.23H721.24V151.2H723.62V150.02H721.1V148.94H727.39V150.02H724.78V151.2H727.23V155.23H724.78V156.93L726.31 156.83C726.11 156.45 725.88 156.08 725.66 155.76L726.7 155.43L726.71 155.44ZM723.63 154.19V152.26H722.3V154.19H723.63ZM724.79 152.26V154.19H726.14V152.26H724.79Z" fill="#717071"/>
<path d="M686.33 100.64C675.4 89.7105 670.76 73.1505 671.33 57.9805C674.11 63.7905 675.81 70.0605 678.99 75.6805C690.52 96.0305 714.82 107.05 737.86 104.69C741.15 104.35 744.36 103.33 747.62 102.96C742.87 107.88 736.12 110.82 729.47 112.16C713.88 115.3 697.77 112.09 686.33 100.65V100.64Z" fill="#2E59A6"/>
<path d="M673.51 30.2402L676.73 38.3102C685.37 58.8702 713.25 79.2302 736.11 72.8402C758.33 66.6302 755.3 36.6202 737.82 26.7502L728.59 22.7102C742.57 18.7402 756.59 19.8802 766.62 31.2402C789.65 57.3202 773.77 99.2402 738.31 101.59C698.93 104.2 664.71 70.1502 673.5 30.2402H673.51Z" fill="#5D97C4"/>
<path d="M199.06 154.43C198.57 153.97 197.53 153.31 196.74 152.9L197.47 151.99C198.26 152.36 199.31 152.95 199.82 153.4L199.06 154.42V154.43ZM197.15 159.95C197.71 158.81 198.53 156.95 199.11 155.31L200.16 156.04C199.61 157.55 198.92 159.3 198.3 160.65L197.15 159.94V159.95ZM199.99 150.36C199.46 149.89 198.36 149.22 197.51 148.8L198.26 147.88C199.11 148.26 200.22 148.87 200.78 149.34L199.99 150.36ZM202.68 150.41C202.23 151.3 201.73 152.12 201.21 152.74C200.95 152.52 200.36 152.16 200.06 151.99C201.03 150.95 201.9 149.3 202.41 147.65L203.71 147.98C203.57 148.38 203.41 148.8 203.23 149.2H209.6V150.4H202.69L202.68 150.41ZM208.79 155.73C208.75 156.48 208.7 157.1 208.65 157.63H209.59V158.78H208.5C208.38 159.53 208.24 159.96 208.05 160.18C207.76 160.58 207.43 160.7 206.98 160.76C206.58 160.82 205.87 160.8 205.18 160.76C205.15 160.44 205.04 159.95 204.83 159.64C205.52 159.71 206.14 159.71 206.41 159.71C206.67 159.71 206.8 159.68 206.94 159.49C207.04 159.37 207.14 159.14 207.21 158.78H201.04C201.2 157.95 201.39 156.86 201.54 155.73H200.24V154.51H201.71C201.84 153.5 201.94 152.49 202.03 151.63H208.99C208.99 151.63 208.98 152.05 208.96 152.22C208.93 153.07 208.89 153.83 208.86 154.51H209.95V155.73H208.77H208.79ZM202.81 155.73C202.71 156.41 202.62 157.06 202.52 157.63H205.29C204.94 157.17 204.32 156.55 203.81 156.12L204.43 155.73H202.82H202.81ZM203.17 152.77C203.13 153.33 203.04 153.92 202.97 154.5H205.53C205.2 154.07 204.64 153.52 204.16 153.13L204.71 152.77H203.17ZM207.4 157.63C207.46 157.13 207.52 156.49 207.56 155.73H204.65C205.23 156.18 205.87 156.8 206.19 157.24L205.63 157.63H207.4ZM205.03 152.77C205.55 153.19 206.12 153.75 206.4 154.14L205.9 154.5H207.64C207.67 153.98 207.7 153.39 207.73 152.77H205.04H205.03Z" fill="#717071"/>
<path d="M214.22 154.13C213.77 153.67 212.81 152.96 212.06 152.5L212.85 151.62C213.58 152.04 214.58 152.69 215.05 153.15L214.21 154.13H214.22ZM212.36 160.12C212.89 158.94 213.63 156.99 214.15 155.28L215.22 155.96C214.76 157.54 214.11 159.36 213.55 160.79L212.37 160.13L212.36 160.12ZM214.56 150.47C214.13 149.94 213.26 149.19 212.53 148.67L213.38 147.88C214.1 148.36 215.04 149.06 215.47 149.57L214.56 150.48V150.47ZM218.65 158.38V160.89H217.43V158.38H215.33V157.2H217.43V156.13H215.82V151.42H217.43V150.38H215.57V149.23H217.43V147.72H218.65V149.23H220.49V150.38H218.65V151.42H220.26V156.13H218.65V157.2H220.57V158.38H218.65ZM216.89 153.31H219.14V152.36H216.89V153.31ZM216.89 155.19H219.14V154.2H216.89V155.19ZM224.99 159.34C224.99 159.99 224.87 160.39 224.49 160.59C224.09 160.81 223.5 160.85 222.59 160.83C222.56 160.5 222.4 159.89 222.23 159.55C222.81 159.58 223.38 159.58 223.56 159.58C223.75 159.57 223.8 159.51 223.8 159.31V156.04H222.17C222.03 157.78 221.65 159.63 220.72 160.92C220.52 160.7 220.01 160.33 219.73 160.2C220.95 158.47 221.07 155.94 221.07 153.95V148.2H225V159.33L224.99 159.34ZM223.79 154.85V152.7H222.23V153.95C222.23 154.24 222.23 154.53 222.22 154.84H223.79V154.85ZM222.24 149.42V151.49H223.8V149.42H222.24Z" fill="#717071"/>
<path d="M192.43 52.9701C195.85 55.7301 200.47 57.2301 204.83 57.5701C215.15 58.3501 225.04 53.8901 235.35 54.5601C251.48 55.6101 267.77 63.4301 273.05 79.6201L269.24 77.5101C255.55 71.3401 239.56 68.5601 224.89 72.9201C204.88 78.8601 196.2 97.5801 171.79 96.0201C155.82 95.0001 145.25 82.9901 151.88 67.1901C151.88 67.1901 153.68 69.5201 155 71.2201C156.02 72.5301 157.18 73.7401 158.51 74.7401C163.37 78.3801 169.08 80.4001 175.36 79.8201C175.84 79.7801 178.97 79.1601 179.11 79.0301C179.81 78.3601 178.85 78.3601 178.55 78.2101C172.42 75.0701 168.91 72.5401 166.77 65.5201C162.17 50.3701 171.81 36.9901 187 34.8301C186.32 34.9501 187.21 43.4901 187.3 44.1101C187.79 47.8601 189.74 50.8101 192.43 52.9801V52.9701Z" fill="#2E59A6"/>
<path d="M247.15 53.0999C247.24 53.8199 246.31 53.4399 245.88 53.3799C237.38 52.2699 225.96 46.7199 221.18 39.4C216.79 32.68 215.7 21.6799 223.42 16.9199C228.78 13.6099 237.01 16.7999 236.07 23.6499C235.64 26.7699 231.48 29.78 230.75 33.33C228.83 42.7 239.37 50.4799 247.15 53.0899V53.0999Z" fill="#5D97C4"/>
<path d="M155.99 42.0802C159.04 41.5202 162.43 43.5602 162.78 47.1002C163.08 50.1402 161.06 52.9102 160.53 55.8202C159.23 62.9902 162.27 67.6502 166.35 73.1402C160.01 70.2602 154.92 64.3802 152.41 57.7802C150.86 53.7102 149.72 47.6602 152.78 43.9802C153.67 42.9102 154.8 42.3002 155.99 42.0802Z" fill="#5D97C4"/>
<path d="M243.69 22.0503C245.6 21.8303 248.41 23.2203 249.39 24.8503C251.77 28.8003 248.45 32.2703 247.52 36.1803C245.87 43.1703 248.55 47.9503 252.26 53.5403C243.46 49.5604 235.74 35.7903 238.91 26.3903C239.58 24.4203 241.47 22.2903 243.67 22.0403L243.69 22.0503Z" fill="#5D97C4"/>
<path d="M30.3499 156.36C30.1299 155.96 29.6599 155.28 29.2299 154.69V160.62H27.9299V154.8C27.3999 156.11 26.7299 157.35 26.0899 158.16C25.9599 157.78 25.6399 157.24 25.4399 156.92C26.2899 155.94 27.2099 154.23 27.7599 152.7H25.7099V151.43H27.9299V149.47C27.2699 149.61 26.5999 149.72 25.9899 149.8C25.9299 149.5 25.7599 149.05 25.5999 148.76C27.1999 148.5 29.0099 148.08 30.0899 147.61L31.0099 148.63C30.4899 148.83 29.8699 149.02 29.2199 149.19V151.42H30.9099V152.69H29.2199V153.35C29.6399 153.71 30.8599 154.96 31.1199 155.29L30.3399 156.34L30.3499 156.36ZM38.8699 159.3V160.38H30.2699V159.3H34.0699V158.36H31.0699V157.32H34.0699V156.46H31.1999V151.79H34.0699V150.98H30.6699V149.91H34.0699V149.1C33.0799 149.16 32.0999 149.2 31.1699 149.22C31.1399 148.95 30.9999 148.49 30.8699 148.23C33.2499 148.14 36.1099 147.91 37.7599 147.58L38.5499 148.56C37.6599 148.76 36.5499 148.91 35.3699 149.01V149.92H38.5799V150.99H35.3699V151.8H38.3199V156.47H35.3699V157.33H38.3699V158.37H35.3699V159.31H38.8699V159.3ZM32.3799 153.71H34.0699V152.75H32.3799V153.71ZM34.0699 155.51V154.54H32.3799V155.51H34.0699ZM35.3699 152.74V153.7H37.0999V152.74H35.3699ZM37.0899 154.54H35.3599V155.51H37.0899V154.54Z" fill="#717071"/>
<path d="M54.16 155.05H48.44V158.98C48.44 159.8 48.24 160.2 47.63 160.41C47.03 160.63 46.07 160.66 44.73 160.66C44.64 160.27 44.38 159.65 44.15 159.28C45.24 159.32 46.33 159.32 46.64 159.31C46.94 159.3 47.03 159.22 47.03 158.96V155.06H41.23V153.72H47.03V151.69C48.1 151.19 49.35 150.41 50.29 149.66H42.66V148.35H51.76L52.06 148.28L53.07 149.06C51.85 150.24 50.07 151.54 48.43 152.4V153.73H54.15V155.07L54.16 155.05Z" fill="#717071"/>
<path d="M371.15 151.92H372.91V153.16H371.15V153.48C371.55 153.91 372.46 154.95 372.66 155.24L371.91 156.32C371.75 156 371.46 155.44 371.15 154.94V161.08H369.9V155.62C369.45 156.82 368.92 157.94 368.37 158.7C368.24 158.31 367.92 157.74 367.71 157.38C368.47 156.4 369.27 154.67 369.74 153.17H368.03V151.93H369.9V149.86C369.4 149.96 368.86 150.06 368.39 150.13C368.33 149.83 368.15 149.38 368.02 149.08C369.4 148.82 371.02 148.4 372 147.94L372.81 149.02C372.32 149.24 371.76 149.41 371.17 149.57V151.93L371.15 151.92ZM380.62 149.02C378.6 149.6 375.59 149.93 373.07 150.09C373.04 149.79 372.88 149.34 372.74 149.04C375.22 148.85 378.13 148.51 379.8 148L380.62 149.02ZM373.91 153.11C373.72 152.55 373.32 151.61 372.96 150.91L374.01 150.55C374.38 151.24 374.82 152.15 375.02 152.7L373.91 153.12V153.11ZM376.97 153.63H380.44V160.95H379.2V160.5H374.39V161.03H373.11V154.17C373.97 153.81 374.92 153.28 375.5 152.84L376.48 153.75C375.86 154.1 375.11 154.46 374.39 154.74V156.37H376.45V157.52H374.39V159.31H379.2V157.52H377.05V156.37H379.2V154.8H376.97V153.62V153.63ZM376.42 152.78C376.3 152.19 376 151.2 375.69 150.46L376.77 150.2C377.1 150.91 377.46 151.86 377.56 152.45L376.42 152.78ZM378.25 152.8C378.68 152.02 379.2 150.77 379.47 149.86L380.71 150.36C380.25 151.37 379.73 152.51 379.3 153.26L378.25 152.8Z" fill="#717071"/>
<path d="M385.68 154.52C385.16 154.03 384.1 153.32 383.26 152.86L384.05 151.95C384.87 152.37 385.95 153 386.51 153.48L385.67 154.52H385.68ZM383.56 159.9C384.21 158.82 385.12 157.03 385.78 155.42L386.86 156.21C386.26 157.69 385.48 159.36 384.79 160.7L383.57 159.89L383.56 159.9ZM386.12 150.91C385.67 150.38 384.74 149.6 383.96 149.05L384.87 148.24C385.62 148.73 386.58 149.46 387.06 149.98L386.12 150.9V150.91ZM395.86 156.66C395.24 157.18 394.42 157.71 393.71 158.11C394.46 158.86 395.38 159.44 396.49 159.78C396.2 160.05 395.83 160.57 395.64 160.93C393.19 160.05 391.71 158.15 390.86 155.51H388.94V159.27L391.48 158.49C391.51 158.85 391.6 159.38 391.68 159.67C388.57 160.69 388.05 160.89 387.75 161.14C387.62 160.84 387.25 160.33 387.04 160.12C387.28 159.92 387.6 159.49 387.6 158.79V149.37H390.97C390.81 148.94 390.61 148.42 390.39 148.02L391.63 147.7C391.92 148.2 392.21 148.87 392.38 149.37H395.23V155.51H392.13C392.35 156.13 392.65 156.71 392.99 157.22C393.67 156.79 394.47 156.21 394.98 155.76L395.84 156.64L395.86 156.66ZM388.95 150.53V151.87H393.93V150.53H388.95ZM388.95 154.35H393.93V153H388.95V154.35Z" fill="#717071"/>
<path d="M405.88 35.7597C407.91 36.1197 409.91 36.6497 411.82 37.4197C411.84 37.4197 411.85 37.4397 411.85 37.4697C411.87 37.6097 411.83 37.9797 411.82 38.1397C411.55 42.8297 409.99 48.1597 407.14 51.9397C401.91 58.8897 393.61 59.5197 385.67 57.5297C384.59 57.2597 383.52 56.9297 382.46 56.5997C382.48 56.2197 382.52 55.8297 382.57 55.4497C383.58 47.5797 386.71 39.4397 394.69 36.5097C398.18 35.2197 402.23 35.1297 405.89 35.7697L405.88 35.7597Z" fill="#2E59A6"/>
<path d="M370.16 36.5001C378.14 39.4401 381.27 47.5701 382.28 55.4401C382.33 55.8201 382.37 56.2101 382.39 56.5901C381.33 56.9301 380.26 57.2501 379.18 57.5201C371.24 59.5201 362.94 58.8901 357.71 51.9301C354.87 48.1501 353.3 42.8201 353.03 38.1301C353.03 37.9601 352.98 37.6001 353 37.4601C353 37.4401 353 37.4201 353.03 37.4101C354.94 36.6401 356.94 36.1101 358.97 35.7501C362.62 35.1101 366.68 35.2001 370.17 36.4901L370.16 36.5001Z" fill="#5D97C4"/>
<path d="M405.88 60.33C407.91 60.69 409.91 61.22 411.82 61.99C411.84 61.99 411.85 62.01 411.85 62.04C411.87 62.18 411.83 62.55 411.82 62.71C411.55 67.4 409.99 72.73 407.14 76.51C401.91 83.46 393.61 84.09 385.67 82.1C384.59 81.83 383.52 81.5 382.46 81.17C382.48 80.79 382.52 80.4 382.57 80.02C383.58 72.15 386.71 64.01 394.69 61.08C398.18 59.79 402.23 59.7 405.89 60.34L405.88 60.33Z" fill="#2E59A6"/>
<path d="M370.16 61.0704C378.14 64.0104 381.27 72.1404 382.28 80.0104C382.33 80.3904 382.37 80.7804 382.39 81.1604C381.33 81.5004 380.26 81.8204 379.18 82.0904C371.24 84.0904 362.94 83.4604 357.71 76.5004C354.87 72.7204 353.3 67.3904 353.03 62.7004C353.03 62.5304 352.98 62.1704 353 62.0304C353 62.0104 353 61.9904 353.03 61.9804C354.94 61.2104 356.94 60.6804 358.97 60.3204C362.62 59.6804 366.68 59.7704 370.17 61.0604L370.16 61.0704Z" fill="#5D97C4"/>
<path d="M405.88 84.9003C407.91 85.2603 409.91 85.7903 411.82 86.5603C411.84 86.5603 411.85 86.5803 411.85 86.6103C411.87 86.7503 411.83 87.1203 411.82 87.2803C411.55 91.9703 409.99 97.3003 407.14 101.08C401.91 108.03 393.61 108.66 385.67 106.67C384.59 106.4 383.52 106.07 382.46 105.74C382.48 105.36 382.52 104.97 382.57 104.59C383.58 96.7203 386.71 88.5803 394.69 85.6503C398.18 84.3603 402.23 84.2703 405.89 84.9103L405.88 84.9003Z" fill="#2E59A6"/>
<path d="M370.16 85.6398C378.14 88.5798 381.27 96.7098 382.28 104.58C382.33 104.96 382.37 105.35 382.39 105.73C381.33 106.07 380.26 106.39 379.18 106.66C371.24 108.66 362.94 108.03 357.71 101.07C354.87 97.2898 353.3 91.9598 353.03 87.2698C353.03 87.0998 352.98 86.7398 353 86.5998C353 86.5798 353 86.5598 353.03 86.5498C354.94 85.7798 356.94 85.2498 358.97 84.8898C362.62 84.2498 366.68 84.3398 370.17 85.6298L370.16 85.6398Z" fill="#5D97C4"/>
<path d="M377.69 8.35957C375.12 11.2196 373.03 14.7896 372.37 18.4596C370.97 26.2696 376.1 32.6496 382.39 37.3396V4.05957C380.66 5.32957 379.1 6.78957 377.69 8.35957Z" fill="#5D97C4"/>
<path d="M392.41 18.4703C391.75 14.8003 389.66 11.2303 387.09 8.37031C385.68 6.80031 384.11 5.34031 382.39 4.07031V37.3603C388.68 32.6703 393.81 26.2903 392.41 18.4803V18.4703Z" fill="#2E59A6"/>
<path d="M45.63 67.9701C38.6 66.7401 30.81 66.9201 24.1 69.3901C8.75997 75.0401 2.73997 90.6801 0.799966 105.81C0.709966 106.54 0.629966 107.29 0.589966 108.01C2.62997 108.66 4.68997 109.28 6.76997 109.81C22.03 113.65 37.99 112.44 48.05 99.0701C53.52 91.8101 56.52 81.5601 57.04 72.5301C57.05 72.3201 57.09 71.9501 57.1 71.6401L51.36 69.2401C49.47 68.7201 47.56 68.3001 45.63 67.9601V67.9701Z" fill="#2E59A6"/>
<path d="M60.41 60.3499C64.7799 41.9099 57.1199 13.9399 57.1199 13.9399C68.4199 25.0099 67.2 47.5699 65.74 58.8799C71.05 56.7299 75.6299 52.6899 78.1099 46.8799C79.8099 42.8999 80.51 39.0299 80.42 35.3199C80.04 20.1999 66.49 7.63989 53.29 0.329886C51.89 -0.450114 50.13 0.219886 49.55 1.71989C48.81 3.65989 47.86 5.88989 47.75 6.15989C46.32 9.54989 43.78 12.2199 41.66 15.1699C34.86 24.6399 30.82 38.1299 36.61 49.0499C40.49 56.3599 47.53 60.1099 54.82 60.5999C53.82 63.9299 52.39 67.1599 51.38 69.2599L57.1199 71.6599L60.41 60.3599V60.3499Z" fill="#5D97C4"/>
</g>
<defs>
<clipPath id="clip0_176_21190">
<rect width="776.82" height="175" fill="white" transform="translate(0.589966)"/>
</clipPath>
</defs>
</svg>
