<svg width="330" height="261" viewBox="0 0 330 261" fill="none" xmlns="http://www.w3.org/2000/svg">
<g clip-path="url(#clip0_176_21132)">
<path d="M100.095 171.695V171.658V171.639V157.125V157.106V157.068C97.816 156.263 95.3679 155.797 92.8115 155.797C90.2504 155.797 87.807 156.258 85.5284 157.068V157.106V157.125V171.639V171.658V171.695C87.8117 172.5 90.2551 172.967 92.8115 172.967C95.3679 172.967 97.816 172.505 100.095 171.695Z" fill="#5D97C4"/>
<path d="M114.666 186.304V186.266V186.247V171.733V171.714V171.676C112.387 170.871 109.939 170.405 107.382 170.405C104.821 170.405 102.378 170.867 100.099 171.676V171.714V171.733V186.247V186.266V186.304C102.383 187.109 104.826 187.575 107.382 187.575C109.939 187.575 112.387 187.114 114.666 186.304Z" fill="#2E59A6"/>
<path d="M100.095 200.856V200.818V200.799V186.285V186.266V186.228C97.816 185.423 95.3679 184.957 92.8115 184.957C90.2504 184.957 87.807 185.418 85.5284 186.228V186.266V186.285V200.799V200.818V200.856C87.8117 201.661 90.2551 202.127 92.8115 202.127C95.3679 202.127 97.816 201.665 100.095 200.856Z" fill="#5D97C4"/>
<path d="M114.666 215.465V215.427V215.408V200.894V200.875V200.838C112.387 200.032 109.939 199.566 107.382 199.566C104.821 199.566 102.378 200.028 100.099 200.838V200.875V200.894V215.408V215.427V215.465C102.383 216.27 104.826 216.736 107.382 216.736C109.939 216.736 112.387 216.275 114.666 215.465Z" fill="#2E59A6"/>
<path d="M100.095 230.012V229.974V229.955V215.441V215.422V215.384C97.816 214.579 95.3679 214.113 92.8115 214.113C90.2504 214.113 87.807 214.575 85.5284 215.384V215.422V215.441V229.955V229.974V230.012C87.8117 230.817 90.2551 231.283 92.8115 231.283C95.3679 231.283 97.816 230.822 100.095 230.012Z" fill="#5D97C4"/>
<path d="M129.232 171.695V171.658V171.639V157.125V157.106V157.068C126.953 156.263 124.505 155.797 121.949 155.797C119.388 155.797 116.944 156.258 114.666 157.068V157.106V157.125V171.639V171.658V171.695C116.949 172.5 119.392 172.967 121.949 172.967C124.505 172.967 126.953 172.505 129.232 171.695Z" fill="#5D97C4"/>
<path d="M129.232 200.856V200.818V200.799V186.285V186.266V186.228C126.953 185.423 124.505 184.957 121.949 184.957C119.388 184.957 116.944 185.418 114.666 186.228V186.266V186.285V200.799V200.818V200.856C116.949 201.661 119.392 202.127 121.949 202.127C124.505 202.127 126.953 201.665 129.232 200.856Z" fill="#5D97C4"/>
<path d="M129.232 230.012V229.974V229.955V215.441V215.422V215.384C126.953 214.579 124.505 214.113 121.949 214.113C119.388 214.113 116.944 214.575 114.666 215.384V215.422V215.441V229.955V229.974V230.012C116.949 230.817 119.392 231.283 121.949 231.283C124.505 231.283 126.953 230.822 129.232 230.012Z" fill="#5D97C4"/>
<path d="M282.559 168.197C282.059 167.378 280.633 165.98 279.946 165.631C278.43 164.854 275.487 164.581 273.882 165.236C273.195 165.514 272.267 166.154 271.664 166.606C266.312 170.584 260.253 175.603 255.111 179.915C247.202 186.553 240.451 194.429 233.159 201.713L283.072 174.096C283.731 172.156 283.608 169.92 282.559 168.197Z" fill="#5D97C4"/>
<path d="M212.929 219.273C212.905 219.283 212.882 219.288 212.858 219.297L210.678 218.732L209.864 217.692L206.832 220.074L210.029 224.146L211.041 225.436L214.238 229.508L217.269 227.131L216.511 226.161C216.493 226.058 216.478 225.954 216.45 225.85L216.422 223.774C223.055 218.459 229.679 213.116 236.807 208.455C242.202 204.929 248.073 201.751 253.332 198.342C263.266 191.902 272.173 184.091 281.447 176.752C282.201 176.027 282.737 175.095 283.076 174.092L233.163 201.708C233.046 201.826 232.933 201.944 232.815 202.061C226.586 208.252 219.812 213.817 212.929 219.273Z" fill="#2E59A6"/>
<path d="M239.448 165.65L240.22 165.768C240.479 165.806 240.658 166.05 240.621 166.309C240.583 166.568 240.338 166.747 240.079 166.71L239.321 166.597C239.302 166.823 239.288 167.049 239.284 167.275L240.145 167.317C240.409 167.331 240.611 167.552 240.597 167.816C240.583 168.08 240.362 168.282 240.098 168.268L239.298 168.23C239.316 168.499 239.345 168.762 239.378 169.026L240.131 168.969C240.395 168.951 240.621 169.148 240.639 169.407C240.658 169.671 240.461 169.897 240.202 169.916L239.557 169.963C239.623 170.25 239.703 170.528 239.792 170.81L240.338 170.622C240.588 170.537 240.856 170.669 240.941 170.918C241.025 171.168 240.894 171.436 240.644 171.521L240.122 171.7C240.249 172.006 240.39 172.303 240.55 172.594L241.124 172.317C241.36 172.204 241.647 172.303 241.76 172.538C241.873 172.773 241.774 173.061 241.539 173.174L241.04 173.414C241.251 173.734 241.482 174.044 241.732 174.346L242.268 173.818C242.457 173.635 242.758 173.635 242.942 173.818C243.125 174.007 243.125 174.308 242.942 174.492L242.377 175.047C242.579 175.25 242.791 175.447 243.012 175.636L243.502 174.906C243.648 174.689 243.944 174.628 244.161 174.774C244.377 174.92 244.439 175.217 244.293 175.433L243.765 176.22C244.029 176.408 244.302 176.582 244.585 176.747C244.632 176.639 244.679 176.535 244.726 176.427C246.623 171.728 244.396 166.389 239.754 164.412C239.627 164.822 239.528 165.231 239.458 165.646L239.448 165.65Z" fill="#2E59A6"/>
<path d="M241.793 178.456C241.769 178.446 241.741 178.432 241.718 178.414C241.501 178.268 241.44 177.971 241.586 177.754L242.155 176.907C241.854 176.657 241.562 176.389 241.289 176.116L240.625 176.77C240.484 176.912 240.272 176.945 240.098 176.869C240.046 176.846 239.994 176.813 239.952 176.77C239.768 176.582 239.768 176.281 239.952 176.097L240.639 175.419C240.282 174.996 239.952 174.544 239.655 174.078L238.577 174.595C238.446 174.657 238.304 174.657 238.177 174.6C238.078 174.558 237.994 174.478 237.942 174.369C237.829 174.134 237.928 173.847 238.163 173.734L239.175 173.249C238.992 172.905 238.827 172.552 238.681 172.19L237.48 172.604C237.363 172.646 237.24 172.637 237.132 172.59C237.014 172.538 236.92 172.439 236.873 172.312C236.788 172.063 236.92 171.794 237.17 171.709L238.351 171.3C238.22 170.895 238.107 170.485 238.017 170.071L236.812 170.161C236.732 170.165 236.657 170.151 236.586 170.123C236.431 170.052 236.318 169.902 236.303 169.723C236.285 169.459 236.482 169.233 236.741 169.214L237.852 169.134C237.81 168.809 237.777 168.485 237.763 168.155L236.624 168.099C236.562 168.099 236.506 168.08 236.454 168.061C236.28 167.986 236.162 167.807 236.172 167.604C236.186 167.341 236.407 167.138 236.671 167.152L237.753 167.204C237.763 166.926 237.777 166.648 237.805 166.371L236.751 166.211C236.708 166.206 236.666 166.192 236.628 166.178C236.435 166.093 236.318 165.891 236.351 165.674C236.388 165.415 236.633 165.236 236.892 165.274L237.932 165.429C238.022 164.93 238.14 164.436 238.295 163.941C234.496 163.014 230.517 164.586 228.375 167.816C228.733 168.018 229.077 168.235 229.411 168.47L229.91 167.811C230.07 167.604 230.367 167.562 230.574 167.722C230.748 167.854 230.805 168.084 230.729 168.277C230.715 168.315 230.692 168.353 230.668 168.386L230.169 169.045C230.39 169.228 230.602 169.417 230.809 169.614L231.379 169.002C231.558 168.809 231.859 168.8 232.052 168.979C232.198 169.115 232.241 169.327 232.17 169.506C232.146 169.558 232.118 169.61 232.076 169.652L231.473 170.297C231.699 170.551 231.916 170.81 232.118 171.079L232.773 170.528C232.975 170.358 233.272 170.387 233.441 170.584C233.559 170.726 233.582 170.909 233.516 171.069C233.488 171.14 233.441 171.201 233.38 171.253L232.66 171.855C232.9 172.232 233.121 172.623 233.319 173.023L234.199 172.609C234.439 172.496 234.722 172.599 234.83 172.835C234.886 172.962 234.886 173.098 234.839 173.216C234.797 173.324 234.712 173.414 234.599 173.47L233.7 173.894C233.851 174.266 233.978 174.643 234.091 175.029L234.896 174.76C235.145 174.675 235.414 174.812 235.498 175.062C235.536 175.174 235.531 175.287 235.489 175.391C235.437 175.513 235.338 175.617 235.197 175.664L234.321 175.956C234.439 176.526 234.519 177.105 234.552 177.689H235.258C235.522 177.693 235.734 177.91 235.729 178.173C235.729 178.235 235.715 178.296 235.696 178.348C235.626 178.522 235.451 178.649 235.254 178.644H234.576C234.571 179.044 234.543 179.454 234.496 179.859L235.254 180.019C235.513 180.075 235.673 180.325 235.621 180.584C235.616 180.612 235.607 180.64 235.597 180.664C235.513 180.876 235.287 180.998 235.056 180.951L234.345 180.8C234.265 181.205 234.166 181.605 234.044 182.001C237.805 182.858 241.722 181.276 243.836 178.079C243.511 177.896 243.201 177.693 242.904 177.481L242.367 178.277C242.235 178.47 241.986 178.541 241.779 178.446L241.793 178.456Z" fill="#2E59A6"/>
<path d="M231.351 179.679C231.407 179.42 231.657 179.26 231.916 179.312L233.017 179.548C233.05 179.242 233.069 178.936 233.074 178.634L232.024 178.625C231.76 178.625 231.548 178.408 231.553 178.145C231.553 177.881 231.77 177.669 232.033 177.674L233.05 177.683C233.022 177.269 232.966 176.855 232.89 176.445L232.109 176.709C231.859 176.793 231.591 176.657 231.506 176.407C231.421 176.158 231.558 175.89 231.807 175.805L232.669 175.518C232.575 175.188 232.467 174.863 232.344 174.548L231.591 174.901C231.351 175.014 231.068 174.91 230.96 174.675C230.847 174.435 230.951 174.152 231.186 174.044L231.958 173.682C231.817 173.399 231.661 173.121 231.497 172.853L230.79 173.446C230.588 173.616 230.291 173.587 230.122 173.39C229.952 173.187 229.981 172.891 230.178 172.721L230.96 172.067C230.795 171.845 230.621 171.629 230.437 171.417L229.717 172.189C229.538 172.382 229.237 172.392 229.044 172.213C228.851 172.034 228.841 171.732 229.02 171.539L229.778 170.73C229.609 170.57 229.435 170.414 229.256 170.264L228.653 171.059C228.493 171.266 228.196 171.309 227.989 171.149C227.782 170.989 227.74 170.692 227.9 170.485L228.507 169.689C228.234 169.501 227.952 169.322 227.66 169.157C227.608 169.27 227.561 169.378 227.514 169.491C225.598 174.237 227.881 179.632 232.617 181.563C232.725 181.209 232.81 180.856 232.881 180.503L231.727 180.258C231.468 180.202 231.308 179.952 231.36 179.694L231.351 179.679Z" fill="#2E59A6"/>
<path d="M82.6659 249.987C82.3317 250.835 81.9362 251.828 81.569 252.586H83.6264V253.58H76.0514V252.586H80.5191C80.9146 251.767 81.3524 250.571 81.5831 249.752L82.6612 249.987H82.6659ZM83.3109 249.663H76.4798V248.669H79.5022C79.3422 248.189 79.1068 247.619 78.9043 247.167L79.8553 246.89C80.1613 247.459 80.4532 248.175 80.6274 248.669H83.3156V249.663H83.3109ZM76.8847 254.907H82.9578V260.076H81.8939V259.493H77.911V260.194H76.8894V254.912L76.8847 254.907ZM78.2735 252.525C78.1417 251.852 77.765 250.816 77.3696 250.03L78.2876 249.794C78.7254 250.552 79.1209 251.574 79.2527 252.261L78.2735 252.525ZM77.9063 255.882V258.523H81.8891V255.882H77.9063ZM89.0451 248.175C88.5179 249.503 87.8493 251.169 87.2373 252.511C88.5367 253.881 88.8568 255.006 88.8568 256.028C88.8568 256.861 88.6685 257.577 88.1977 257.883C87.9482 258.057 87.6281 258.16 87.2938 258.189C86.9266 258.231 86.4605 258.231 86.0509 258.217C86.0368 257.925 85.9332 257.487 85.759 257.181C86.1828 257.223 86.5923 257.223 86.8842 257.209C87.1008 257.195 87.3079 257.153 87.468 257.063C87.7599 256.875 87.8635 256.423 87.8493 255.924C87.8493 255.006 87.4868 253.951 86.1875 252.624C86.7289 251.4 87.2985 249.851 87.6893 248.726H85.3683V260.255H84.389V247.732H88.1271L88.3013 247.676L89.0451 248.17V248.175Z" fill="#717071"/>
<path d="M94.431 255.053C93.8755 254.657 92.7832 254.003 91.964 253.551L92.5761 252.821C93.3952 253.231 94.5016 253.843 95.0713 254.224L94.431 255.058V255.053ZM95.3914 248.951H92.2371V247.972H95.3914V246.965H96.4413V247.972H98.235V248.951H96.4413V250.175H95.3914V248.951ZM92.2371 259.403C93.0422 258.527 94.2238 257.068 95.1277 255.754L95.801 256.526C94.9818 257.736 93.9319 259.168 93.028 260.236L92.2418 259.403H92.2371ZM93.5694 250.03C94.3274 250.481 95.4385 251.108 96.0364 251.461L95.3961 252.28C94.8406 251.913 93.7154 251.23 92.9292 250.731L93.5694 250.03ZM104.266 251.169C103.64 252.176 102.703 253.052 101.625 253.796C102.82 254.38 104.181 254.846 105.48 255.123C105.245 255.345 104.972 255.75 104.807 256.027C103.404 255.679 101.973 255.095 100.692 254.361C99.2895 255.147 97.7124 255.735 96.2388 256.112C96.1211 255.848 95.8904 255.439 95.6974 255.236C97.025 254.945 98.4845 254.45 99.7697 253.791C99.1295 253.367 98.5457 252.873 98.0466 252.374C97.5523 252.868 96.9968 253.367 96.3801 253.819C96.1917 253.598 95.8528 253.306 95.608 253.16C97.1239 252.139 98.2773 250.783 98.9082 249.7L99.9722 249.902C99.798 250.194 99.5908 250.472 99.3743 250.778H103.404L103.578 250.722L104.266 251.159V251.169ZM97.2039 255.957H103.889V260.293H102.825V259.667H98.2397V260.293H97.2039V255.957ZM98.2397 256.818V258.805H102.825V256.818H98.2397ZM98.6351 251.738C99.1765 252.294 99.8733 252.802 100.678 253.287C101.465 252.793 102.166 252.252 102.693 251.64H98.7246L98.6351 251.743V251.738ZM100.707 248.933H98.9835V247.967H100.707V246.96H101.771V247.967H104.953V248.933H101.771V250.175H100.707V248.933Z" fill="#717071"/>
<path d="M121.181 258.085V259.163H108.159V258.085H114.025V249.705H108.917V248.594H120.452V249.705H115.212V258.085H121.181Z" fill="#717071"/>
<path d="M124.232 257.341H137.179V258.043H133.342C134.523 258.523 135.926 259.385 136.67 260.001L135.926 260.529C135.649 260.279 135.286 260.02 134.862 259.742C126.746 260.124 125.96 260.152 125.432 260.312C125.39 260.124 125.23 259.728 125.112 259.493C125.39 259.465 125.724 259.347 126.12 259.173C126.44 259.027 127.245 258.589 128.092 258.047H124.237V257.346L124.232 257.341ZM126.887 251.795C126.652 252.643 126.068 253.081 124.712 253.358C124.656 253.184 124.449 252.906 124.288 252.789C125.4 252.615 125.908 252.337 126.115 251.795H124.496V251.155H127.165V250.543H125.192V249.917H127.165V249.451H128.097V249.917H130.023V250.543H128.097V251.155H130.696V251.795H128.799V252.087C128.799 252.379 128.813 252.455 129.015 252.455H129.877C130.023 252.455 130.315 252.455 130.489 252.398C130.503 252.586 130.517 252.808 130.545 252.996C130.399 253.038 130.107 253.052 129.872 253.052H128.865C128.191 253.052 128.059 252.761 128.059 252.073V251.795H126.878H126.887ZM127.749 248.745H124.378V247.926H127.749V246.946H128.813V247.926H130.522V248.745H128.813V249.404H127.749V248.745ZM136.242 254.658C136.36 254.658 136.458 254.644 136.505 254.615C136.562 254.573 136.623 254.47 136.637 254.309C136.666 254.135 136.68 253.726 136.694 253.198C136.868 253.344 137.132 253.476 137.353 253.547C137.339 254.06 137.296 254.672 137.221 254.874C137.165 255.077 137.033 255.223 136.887 255.312C136.741 255.402 136.505 255.43 136.303 255.43H135.719C135.456 255.43 135.192 255.373 135.018 255.195C134.829 255.034 134.768 254.827 134.768 254.055V251.353H133.558C133.544 251.819 133.488 252.318 133.323 252.812C133.803 253.118 134.199 253.41 134.476 253.688L133.935 254.375C133.7 254.159 133.379 253.895 133.017 253.632C132.636 254.375 132.024 255.091 131.002 255.703C130.898 255.571 130.668 255.369 130.461 255.209C128.3 255.383 126.068 255.543 124.491 255.646L124.434 254.931C125.178 254.903 126.115 254.841 127.165 254.785V254.055H125.046V253.429H127.165V252.685H128.097V253.429H130.23V254.055H128.097V254.728L130.668 254.568V254.931C131.454 254.361 131.953 253.749 132.259 253.137C131.793 252.874 131.327 252.629 130.889 252.422L131.416 251.81C131.765 251.97 132.174 252.158 132.541 252.365C132.645 252.017 132.687 251.678 132.701 251.358H131.068V250.538H132.716V249.545H133.577V250.538H135.663V254.116C135.663 254.394 135.677 254.554 135.738 254.597C135.766 254.639 135.842 254.653 135.926 254.653H136.247L136.242 254.658ZM135.441 255.915V256.616H126.054V255.915H135.441ZM133.718 259.064C133.323 258.848 132.913 258.641 132.551 258.481L133.238 258.043H129.575C128.86 258.523 128.13 258.961 127.415 259.314L133.718 259.064ZM132.579 248.745H130.988V247.926H132.579V246.946H133.643V247.926H137.103V248.745H133.643V249.404H132.579V248.745Z" fill="#717071"/>
<path d="M214.313 254.644C214.125 254.206 213.654 253.33 213.277 252.643V260.279H212.298V253.65C211.874 255.152 211.319 256.598 210.749 257.492C210.631 257.214 210.382 256.791 210.208 256.541C211.013 255.317 211.785 253.067 212.166 251.127H210.547V250.105H212.298V246.951H213.277V250.105H214.793V251.127H213.277V251.362C213.583 251.786 214.666 253.448 214.911 253.858L214.313 254.644ZM221.248 252.949C221.845 253.957 222.811 254.922 223.757 255.416C223.54 255.59 223.215 255.929 223.055 256.16C221.991 255.487 220.923 254.22 220.325 252.949H218.018C217.637 253.608 217.213 254.234 216.719 254.79H218.559V253.448H219.609V254.79H221.243V255.68H219.609V257.007H222.472V257.939H219.609V260.289H218.559V257.939H215.391V257.007H218.559V255.68H216.662V254.846C216.182 255.374 215.612 255.854 214.981 256.263C214.864 256.014 214.6 255.604 214.426 255.388C215.433 254.747 216.234 253.9 216.85 252.949H214.911V252.045H217.378C217.552 251.697 217.712 251.315 217.858 250.948H215.669V250.101H218.164C218.267 249.752 218.352 249.413 218.442 249.065H215.245V248.175H218.644C218.734 247.766 218.804 247.356 218.865 246.951L219.915 247.097C219.859 247.46 219.783 247.813 219.713 248.175H222.952V249.065H219.506C219.416 249.413 219.317 249.752 219.214 250.101H222.514V250.948H218.936C218.79 251.311 218.644 251.692 218.484 252.045H223.3V252.949H221.243H221.248Z" fill="#717071"/>
<path d="M231.125 257.285C229.505 257.798 227.782 258.335 226.469 258.773L226.233 257.723C226.761 257.577 227.415 257.388 228.145 257.167V253.137H226.525V252.13H228.145V248.961H226.393V247.94H230.847V248.961H229.166V252.13H230.64V253.137H229.166V256.861L230.96 256.292L231.12 257.285H231.125ZM239.415 251.824C238.657 252.874 237.664 254.145 236.873 254.964C237.532 256.381 238.464 257.459 239.853 258.424C239.604 258.613 239.312 258.933 239.166 259.243C237.532 258.033 236.478 256.687 235.795 254.851V258.937C235.795 259.596 235.621 259.903 235.225 260.077C234.802 260.279 234.147 260.312 233.008 260.312C232.951 260.02 232.773 259.554 232.612 259.262C233.46 259.29 234.204 259.276 234.42 259.276C234.656 259.262 234.74 259.187 234.74 258.942V255.496C233.545 256.706 232.302 257.906 231.308 258.839L230.635 257.906C231.629 257.087 233.234 255.656 234.736 254.3V250.506H231.205V249.498H234.736V246.975H235.786V249.498H239.608V250.506H235.786V251.033C235.974 252.2 236.195 253.208 236.501 254.084C237.203 253.25 237.975 252.158 238.455 251.325L239.406 251.838L239.415 251.824ZM232.264 251.4C232.904 252.233 233.592 253.359 233.855 254.102L232.966 254.526C232.702 253.796 232.048 252.629 231.417 251.795L232.264 251.4ZM238.22 249.3C237.871 248.82 237.141 248.147 236.496 247.695L237.123 247.125C237.749 247.563 238.511 248.203 238.874 248.641L238.215 249.3H238.22Z" fill="#717071"/>
<path d="M255.441 248.759H244.754V251.885C244.754 254.22 244.566 257.667 243.219 259.988C243.017 259.813 242.565 259.55 242.287 259.446C243.558 257.229 243.69 254.103 243.69 251.885V247.771H255.441V248.764V248.759ZM248.186 256.598C247.442 257.648 246.435 258.876 245.616 259.663C245.394 259.503 244.957 259.211 244.698 259.051C245.559 258.321 246.524 257.224 247.179 256.249L248.186 256.598ZM250.681 255.534V259.098C250.681 259.667 250.564 259.945 250.126 260.105C249.688 260.279 248.972 260.279 247.861 260.279C247.819 259.988 247.659 259.592 247.527 259.314C248.374 259.328 249.118 259.328 249.335 259.328C249.57 259.314 249.627 259.253 249.627 259.079V255.529H246.063V250.275H248.911C249.128 249.837 249.335 249.31 249.467 248.933L250.724 249.122C250.507 249.517 250.286 249.908 250.083 250.275H254.288V255.529H250.681V255.534ZM247.136 252.497H253.195V251.141H247.136V252.497ZM247.136 254.672H253.195V253.316H247.136V254.672ZM252.772 256.278C253.633 257.182 254.801 258.424 255.385 259.168L254.481 259.752C253.939 258.966 252.786 257.681 251.91 256.73L252.772 256.278Z" fill="#717071"/>
<path d="M262.912 253.137C262.446 256.465 261.293 258.683 259.076 260.1C258.958 259.94 258.652 259.544 258.464 259.37C260.012 258.494 260.973 257.139 261.542 255.298C259.367 255.632 259 255.721 258.784 255.853C258.741 255.651 258.581 255.194 258.464 254.949C258.755 254.893 259.061 254.512 259.429 253.984C259.664 253.692 260.187 252.906 260.756 251.927C259.311 252.087 259.005 252.162 258.831 252.247C258.774 252.045 258.614 251.546 258.496 251.301C258.713 251.258 258.934 250.966 259.156 250.557C259.405 250.161 260.191 248.598 260.601 247.125L261.608 247.403C261.142 248.716 260.483 250.105 259.843 251.155L261.26 251.037C261.495 250.571 261.726 250.091 261.933 249.606L262.823 249.973C262.004 251.654 260.996 253.33 259.975 254.657L261.783 254.408C261.886 253.984 261.971 253.518 262.018 253.019L262.922 253.137H262.912ZM265.963 255.415C266.575 256.672 267.206 258.292 267.423 259.285L266.505 259.653C266.448 259.318 266.33 258.895 266.184 258.443C263.44 259.332 263.044 259.492 262.814 259.685C262.738 259.45 262.564 259.073 262.418 258.866C262.682 258.763 263.077 258.518 263.077 257.92V248.448H264.64C264.438 248.081 264.188 247.662 263.939 247.323L264.772 246.988C265.12 247.426 265.502 248.01 265.704 248.448H266.914V254.855H264.038V258.198L265.907 257.628C265.671 256.955 265.398 256.301 265.102 255.717L265.963 255.425V255.415ZM264.038 249.375V251.216H265.996V249.375H264.038ZM265.991 253.914V252.12H264.033V253.914H265.991ZM271.759 248.09C271.307 249.446 270.709 251.141 270.181 252.497C271.307 253.885 271.599 255.039 271.599 256.06C271.599 256.908 271.424 257.623 271.015 257.929C270.793 258.089 270.502 258.179 270.196 258.221C269.89 258.264 269.494 258.264 269.132 258.235C269.117 257.958 269.028 257.534 268.868 257.242C269.235 257.284 269.569 257.284 269.819 257.27C270.007 257.27 270.2 257.214 270.313 257.11C270.577 256.936 270.648 256.451 270.648 255.957C270.648 255.039 270.342 253.942 269.216 252.614C269.697 251.376 270.196 249.799 270.53 248.66H268.571V260.265H267.639V247.694H270.911L271.071 247.638L271.759 248.09Z" fill="#717071"/>
<path d="M162.889 123.623C162.686 123.213 162.262 122.441 161.881 121.796V129.461H160.817V122.601C160.337 124.131 159.706 125.595 159.052 126.513C158.948 126.193 158.684 125.727 158.482 125.464C159.428 124.254 160.351 121.961 160.789 119.974H158.746V118.953H160.817V116.151H161.881V118.953H163.632V119.974H161.881V120.483C162.248 120.906 163.326 122.422 163.576 122.804L162.889 123.623ZM171.866 124.122H168.218V129.479H167.154V124.122H163.477V123.072H167.154V119.569H165.417C165.068 120.403 164.673 121.132 164.221 121.716C164.004 121.57 163.505 121.321 163.213 121.222C164.249 120.026 164.951 118.157 165.313 116.17L166.391 116.33C166.231 117.088 166.029 117.832 165.807 118.519H171.457V119.569H168.218V123.072H171.866V124.122Z" fill="#717071"/>
<path d="M187.129 117.771V129.39H185.99V128.326H176.636V129.494H175.496V118.195C177.144 117.653 179.027 116.881 180.138 116.18L180.986 117.145C179.79 117.785 178.17 118.388 176.636 118.868V122.356H180.458V123.435H176.636V127.229H185.99V123.435H181.875V122.356H185.99V118.84H181.772V117.776H187.129V117.771Z" fill="#717071"/>
<path d="M30.4742 126.509C29.9611 126.142 29.0571 125.647 28.1815 125.266C28.4592 126.989 29.0854 128.213 30.3706 128.317C30.559 128.345 30.6908 127.789 30.7661 126.829C30.9685 127.078 31.2322 127.309 31.4535 127.427C31.2793 128.9 30.912 129.442 30.1399 129.296C27.6448 129.018 27.1175 126.363 26.9433 123.152H24.7117V129.183H23.6478V123.152H21.2373C21.1479 125.238 20.6959 127.488 18.7139 129.268C18.5397 129.046 18.1725 128.698 17.9088 128.538C19.7025 126.947 20.1121 124.974 20.2016 123.152H18.1301V122.159H20.2157V120.13C19.7214 120.261 19.1941 120.379 18.7139 120.478C18.6574 120.243 18.4785 119.908 18.3325 119.692C19.8485 119.343 21.5292 118.802 22.5085 118.246L23.3559 119.066C22.7438 119.343 22.0282 119.607 21.2562 119.838V122.159H23.6478V118.176H24.7117V122.159H27.9225C27.9367 122.903 27.979 123.618 28.0402 124.305L28.3604 124.423C28.9018 123.971 29.542 123.359 29.9093 122.921L30.8273 123.416C30.3 123.882 29.7021 124.367 29.1607 124.757C29.8904 125.078 30.6202 125.445 31.0721 125.765L30.4742 126.509ZM30.3989 120.29C29.8716 119.955 28.9818 119.503 28.092 119.136C28.4404 120.525 29.0854 121.514 30.2671 121.603C30.4554 121.631 30.5731 121.222 30.6484 120.478C30.8508 120.68 31.1145 120.916 31.3216 121.033C31.1474 122.229 30.7661 122.681 30.0646 122.568C27.819 122.305 27.1316 120.191 26.8397 117.71H18.9728V116.73H27.7625C27.7907 117.211 27.8378 117.71 27.9084 118.162L28.2568 118.293C28.7841 117.827 29.4102 117.182 29.7586 116.73L30.6625 117.211C30.1541 117.677 29.5844 118.19 29.0571 118.6C29.7869 118.891 30.5025 119.24 30.9685 119.518L30.3989 120.29Z" fill="#717071"/>
<path d="M34.0475 128.783C34.8808 128.185 35.6529 127.06 36.0766 125.982L37.1123 126.274C36.6604 127.427 35.9024 128.623 35.0126 129.338L34.0475 128.783ZM35.8836 120.408C35.5634 120.671 35.2433 120.916 34.8902 121.165C34.7301 120.902 34.3629 120.539 34.1181 120.36C36.0719 119.089 37.5031 117.324 38.2658 115.921L39.4757 116.156C39.3298 116.406 39.1697 116.651 38.9955 116.914H42.2957L42.4699 116.872L43.2138 117.324C42.8936 117.964 42.3946 118.694 41.9144 119.296H45.7372V125.412H35.8836V120.403V120.408ZM36.9193 121.909H40.1725V120.214H36.9193V121.909ZM36.9193 124.494H40.1725V122.771H36.9193V124.494ZM38.3505 117.809C37.9692 118.303 37.5455 118.816 37.0794 119.296H40.5962C40.9775 118.873 41.3824 118.317 41.6743 117.809H38.3458H38.3505ZM39.5322 126.288C39.7205 127.163 39.8665 128.317 39.8806 129.004L38.7836 129.136C38.7836 128.434 38.6659 127.267 38.4918 126.363L39.5275 126.288H39.5322ZM44.645 120.214H41.2129V121.909H44.645V120.214ZM44.645 122.771H41.2129V124.494H44.645V122.771ZM42.3805 126.184C42.8042 127.017 43.2561 128.171 43.4162 128.872L42.3805 129.136C42.2345 128.434 41.8108 127.267 41.3871 126.391L42.3805 126.189V126.184ZM45.2146 125.864C46.0621 126.74 47.0225 127.983 47.4462 128.825L46.4104 129.305C46.0291 128.472 45.0828 127.206 44.2354 126.283L45.2146 125.859V125.864Z" fill="#717071"/>
<path d="M55.0212 126.363L55.1248 127.295C53.4629 127.747 51.7257 128.246 50.3933 128.608L50.1909 127.615L50.6993 127.483V122.417H51.5326V127.295L52.4224 127.045V120.958H50.7276V116.594H54.7293V120.958H53.2981V123.119H54.9176V124.051H53.2981V126.81L55.0212 126.358V126.363ZM51.5891 120.04H53.8348V117.516H51.5891V120.04ZM63.34 128.74H57.0644V129.296H56.0852V124.668C55.7933 125.077 55.5155 125.44 55.2095 125.765C55.0918 125.529 54.8611 125.091 54.7011 124.861C55.5908 123.882 56.4665 122.394 56.8902 121.184L57.0079 121.226C56.9655 121.01 56.862 120.774 56.7584 120.586C57.3422 120.6 57.8365 120.6 57.9825 120.586C58.1425 120.572 58.1849 120.544 58.1849 120.398V117.159H55.3225V116.354H59.0747V120.398C59.0747 120.836 59.0041 121.052 58.6651 121.184C58.3732 121.302 57.9354 121.33 57.2763 121.33L57.8742 121.546C57.7424 121.838 57.5823 122.173 57.4081 122.479H59.3807C59.2489 122.144 59.0888 121.763 58.9287 121.471L59.8327 121.207C60.0492 121.603 60.2846 122.097 60.4447 122.479H63.2035V123.326H60.4447V124.334H62.8222V125.091H60.4447V126.085H62.8222V126.843H60.4447V127.893H63.3353V128.74H63.34ZM55.3696 120.068C55.9957 119.79 56.8714 119.324 57.7941 118.858L57.9825 119.484C57.2669 119.922 56.523 120.36 55.8357 120.756L55.3696 120.068ZM55.9816 117.427C56.523 117.644 57.2386 118.025 57.6152 118.26L57.1774 118.844C56.8102 118.595 56.0993 118.204 55.5579 117.94L55.9816 117.427ZM59.4419 123.326H57.0644V124.334H59.4419V123.326ZM59.4419 125.091H57.0644V126.085H59.4419V125.091ZM57.0644 127.893H59.4419V126.843H57.0644V127.893ZM62.1442 117.149H59.4419V116.33H63.0199V120.534C63.0199 120.972 62.9305 121.174 62.5962 121.32C62.2902 121.452 61.777 121.452 60.9767 121.452C60.9343 121.217 60.8166 120.925 60.713 120.708C61.2827 120.723 61.7911 120.723 61.9418 120.723C62.1019 120.708 62.1442 120.68 62.1442 120.52V117.149ZM61.9842 119.442C61.2827 119.866 60.5671 120.304 59.9127 120.652L59.4466 119.979C60.0586 119.701 60.9061 119.263 61.7958 118.797L61.9842 119.437V119.442ZM61.2356 118.901C60.8872 118.623 60.214 118.213 59.6726 117.968L60.1104 117.46C60.6377 117.695 61.3204 118.072 61.6876 118.322L61.2356 118.905V118.901Z" fill="#717071"/>
<path d="M70.3266 127.455C71.174 127.775 72.2521 127.879 73.6127 127.879C74.3141 127.893 78.749 127.893 79.6294 127.851C79.4693 128.114 79.2621 128.609 79.1915 128.929H73.6315C70.5384 128.929 68.8153 128.448 67.7466 126.448C67.5724 127.601 67.2947 128.609 66.871 129.428C66.6968 129.282 66.2118 129.018 65.9812 128.9C66.8145 127.441 66.9745 125.12 67.0169 122.535L68.0385 122.611C68.0244 123.312 67.9961 123.981 67.9491 124.626C68.2692 125.69 68.7212 126.419 69.3379 126.918V121.387H66.2872V120.422H69.0743V118.567H66.6638V117.616H69.0743V115.996H70.11V117.616H72.4592V118.567H70.11V120.422H72.8406V121.387H70.3313V123.548H72.6946V124.513H70.3313V127.46L70.3266 127.455ZM75.2181 126.697C73.8904 126.697 73.4667 126.363 73.4667 125.002V116.928H78.7349V122.008H74.5166V125.002C74.5166 125.586 74.6343 125.718 75.3216 125.718H77.7886C78.3441 125.718 78.4618 125.412 78.5183 123.995C78.7678 124.169 79.1915 124.343 79.4834 124.419C79.3516 126.17 79.0456 126.697 77.8498 126.697H75.2228H75.2181ZM74.5166 117.893V121.048H77.685V117.893H74.5166Z" fill="#717071"/>
<path d="M281.415 127.455V128.552H268.844V127.455H281.415ZM280.624 117.69V118.769H269.678V117.69H280.624ZM279.489 122.422V123.519H270.615V122.422H279.489Z" fill="#717071"/>
<path d="M296.461 117.983C295.585 121.236 294.036 123.75 292.054 125.647C293.631 126.918 295.571 127.836 297.939 128.364C297.69 128.58 297.398 129.065 297.238 129.343C294.799 128.759 292.817 127.752 291.193 126.396C289.385 127.883 287.295 128.933 285.063 129.635C284.945 129.343 284.625 128.863 284.39 128.641C286.593 128.015 288.651 127.036 290.407 125.661C288.58 123.867 287.299 121.532 286.391 118.726H285.341V117.662H295.59L295.736 117.62L296.466 117.987L296.461 117.983ZM287.469 118.726C288.288 121.208 289.512 123.312 291.235 124.946C292.958 123.368 294.3 121.311 295.119 118.726H287.469ZM291.908 122.436C291.456 121.796 290.449 120.789 289.602 120.087L290.345 119.503C291.179 120.162 292.214 121.123 292.695 121.768L291.908 122.441V122.436Z" fill="#717071"/>
<path d="M300.576 129.093C301.409 128.495 302.181 127.37 302.605 126.292L303.64 126.584C303.189 127.737 302.431 128.933 301.541 129.649L300.576 129.093ZM302.412 120.713C302.092 120.977 301.771 121.222 301.418 121.471C301.258 121.208 300.891 120.845 300.646 120.666C302.6 119.395 304.031 117.63 304.794 116.227L306.004 116.462C305.858 116.711 305.698 116.956 305.524 117.22H308.824L308.998 117.178L309.742 117.63C309.422 118.27 308.923 119 308.443 119.602H312.265V125.718H302.412V120.708V120.713ZM303.447 122.215H306.701V120.52H303.447V122.215ZM303.447 124.8H306.701V123.077H303.447V124.8ZM304.879 118.114C304.497 118.609 304.074 119.122 303.608 119.602H307.124C307.506 119.178 307.911 118.623 308.202 118.114H304.874H304.879ZM306.06 126.593C306.249 127.469 306.395 128.622 306.409 129.31L305.312 129.442C305.312 128.74 305.194 127.573 305.02 126.669L306.056 126.593H306.06ZM311.173 120.52H307.741V122.215H311.173V120.52ZM311.173 123.077H307.741V124.8H311.173V123.077ZM308.909 126.494C309.332 127.328 309.784 128.481 309.944 129.183L308.909 129.446C308.763 128.745 308.339 127.577 307.915 126.702L308.909 126.499V126.494ZM311.743 126.17C312.59 127.045 313.551 128.288 313.974 129.131L312.939 129.611C312.557 128.778 311.611 127.511 310.764 126.589L311.743 126.165V126.17Z" fill="#717071"/>
<path d="M321.37 128.039C319.807 128.406 318.16 128.797 316.903 129.089L316.639 128.109C317.195 128.02 317.896 127.874 318.682 127.7V123.439H316.728V122.493H318.682V120.916H317.458V120.144C317.256 120.346 317.077 120.539 316.874 120.713C316.818 120.497 316.568 119.941 316.422 119.706C317.416 118.872 318.409 117.606 318.979 116.307L319.84 116.584C319.77 116.759 319.68 116.933 319.591 117.079C320.363 117.78 321.286 118.642 321.766 119.178L321.168 119.894C320.73 119.386 319.911 118.566 319.167 117.851C318.715 118.623 318.188 119.367 317.618 119.969H321.064V120.92H319.577V122.498H321.446V123.444H319.577V127.53L321.3 127.168L321.375 128.043L321.37 128.039ZM317.618 124.244C317.835 125.092 318.084 126.184 318.174 126.914L317.444 127.102C317.355 126.372 317.124 125.261 316.917 124.4L317.618 124.239V124.244ZM319.925 126.725C320.113 126.01 320.363 124.828 320.481 124.056L321.253 124.272C321.003 125.162 320.773 126.231 320.537 126.914L319.925 126.725ZM324.19 126.579C323.663 127.559 322.816 128.566 322.072 129.22C321.884 129.074 321.488 128.797 321.239 128.665C322.025 128.053 322.788 127.177 323.239 126.302L324.19 126.579ZM324.247 117.851H321.691V116.961H329.835V117.851H327.208V118.83H329.572V122.229H322.025V118.83H324.242V117.851H324.247ZM326.234 125.765V129.602H325.24V125.765H321.752V124.875H329.911V125.765H326.234ZM322.67 123.863V123.001H328.903V123.863H322.67ZM322.948 121.401H324.247V119.663H322.948V121.401ZM326.38 117.851H325.08V118.83H326.38V117.851ZM325.08 121.401H326.38V119.663H325.08V121.401ZM327.213 119.663V121.401H328.63V119.663H327.213ZM328.027 126.245C328.785 126.989 329.605 127.968 330 128.641L329.167 129.15C328.785 128.462 327.971 127.441 327.241 126.697L328.027 126.245Z" fill="#717071"/>
<path d="M166.448 69.5713C171.156 70.2869 178.024 70.5458 185.741 68.319C193.033 58.0228 190.449 39.4784 190.449 39.4784C190.449 36.5266 182.793 34.1396 173.354 34.1396C163.915 34.1396 156.26 36.5313 156.26 39.4784C156.26 39.4784 153.661 58.1123 161.019 68.3943C162.526 68.8227 164.357 69.2511 166.448 69.5713Z" fill="#5D97C4"/>
<path d="M185.661 70.2637C181.146 71.5207 176.918 71.9585 173.236 71.9585C170.576 71.9585 168.204 71.7325 166.203 71.4265C164.211 71.1205 162.46 70.7203 160.991 70.3155C159.56 71.8314 156.006 76.6805 155.808 87.5417C155.808 87.5417 158.341 94.8201 173.349 95.079C188.358 94.8201 190.891 87.5417 190.891 87.5417C190.693 76.5534 187.054 71.7184 185.661 70.2637Z" fill="#5D97C4"/>
<path d="M180.053 41.4183L183.104 31.028L186.202 29.0789L193.311 4.88502C193.692 3.58564 192.948 2.22035 191.649 1.83901L187.162 0.520796C185.863 0.139457 184.498 0.883304 184.116 2.18268L177.007 26.3766L178.561 29.6909L174.672 41.7996C174.672 41.7996 177.361 41.9691 180.053 41.4136V41.4183Z" fill="#2E59A6"/>
<path d="M297.468 2.33821V1.76855L297.431 2.05103L297.393 1.76855V2.33821C296.522 6.07157 296.08 9.88968 296.08 13.7219V56.898H298.782V13.7172C298.782 9.88497 298.339 6.06686 297.468 2.3335V2.33821Z" fill="#5D97C4"/>
<path d="M287.337 37.3318V13.717C287.337 9.88479 286.894 6.06669 286.024 2.33333V1.76367L285.986 2.04615L285.948 1.76367V2.33333C285.077 6.06669 284.635 9.88479 284.635 13.717V37.506L292.125 47.8587V56.8979H294.63V47.1855L287.337 37.3365V37.3318Z" fill="#5D97C4"/>
<path d="M307.529 37.3318V13.717C307.529 9.88479 307.972 6.06669 308.843 2.33333V1.76367L308.88 2.04615L308.918 1.76367V2.33333C309.789 6.06669 310.232 9.88479 310.232 13.717V37.506L302.741 47.8587V56.8979H300.237V47.1855L307.529 37.3365V37.3318Z" fill="#5D97C4"/>
<path d="M303.659 56.8975H291.207V75.9503H303.659V56.8975Z" fill="#2E59A6"/>
<path d="M301.409 73.9971H293.457V93.9491H301.409V73.9971Z" fill="#2E59A6"/>
<path d="M39.1509 43.8096C39.1509 43.8096 56.6266 52.6934 62.7186 70.0608C62.7186 70.0608 61.7911 49.685 39.1509 43.8096Z" fill="#5D97C4"/>
<path d="M59.0794 70.7482C59.0794 70.7482 58.4109 56.1019 42.1404 51.8789C42.1404 51.8789 54.7058 58.2628 59.0794 70.7482Z" fill="#5D97C4"/>
<path d="M89.6336 76.2096C88.4237 71.0733 77.8827 68.0791 73.4714 66.2948C75.3593 56.1069 73.4714 43.8146 65.2232 36.7386C63.8438 36.4467 64.324 37.2941 64.0603 38.1792C62.6197 43.0425 62.1678 48.3295 60.6283 53.1786C53.0909 43.8993 43.4727 35.3168 31.0297 34.0928C30.9591 36.7292 33.2707 39.4833 34.3017 42.0068C37.7903 50.5751 39.5181 58.8281 46.4811 65.6733C42.9548 65.7063 37.6726 68.8653 34.2029 69.8304C15.1877 66.2854 5.11278 68.757 -0.00470734 71.4688C5.32463 72.5186 13.3092 75.4846 14.4344 83.8317L36.0907 72.7493C36.0907 72.7493 37.4372 72.7776 39.5981 72.9C36.538 73.5497 29.5515 79.1332 30.7002 80.1501C36.2791 80.7339 41.0717 78.7707 45.822 76.1955C45.9585 74.962 44.4802 75.6447 43.8399 75.8565C40.8645 76.8452 37.9645 78.5353 34.6454 78.1681C36.3826 75.3857 39.0002 73.8368 41.9803 73.0459C42.5782 73.0883 43.2279 73.1401 43.8823 73.1966C41.6602 73.6203 39.0944 74.7643 36.8911 77.4996C36.8911 77.4996 41.1329 74.1005 46.8059 73.4649C52.22 74.0204 58.6651 74.995 63.5943 76.6992L60.6612 74.0911C57.0362 71.1722 55.0353 69.9952 51.4432 66.9727C41.5048 58.6162 39.0567 49.417 34.6501 37.7131C34.0758 35.9289 43.9576 41.0181 44.7156 41.4653C55.8733 48.0281 63.9709 59.4683 69.5356 70.9368C70.8868 69.5385 76.8941 71.5582 78.4006 72.8576C77.2472 73.2201 76.4139 74.2323 76.4139 75.4375C76.4139 76.2614 76.8046 76.9864 77.4166 77.4902C77.4166 77.4996 77.4166 77.509 77.4166 77.5184L77.4308 77.5043C77.9345 77.9139 78.5842 78.1728 79.3045 78.1728C79.4363 78.1728 79.5587 78.154 79.6859 78.1352L80.0389 78.8319C76.282 78.8696 72.2191 77.1606 74.1117 72.9188C73.0006 73.1495 72.7417 74.2464 72.7417 75.2257C72.737 81.4401 91.2532 83.0926 89.6336 76.2096ZM12.1417 72.9894C19.8155 67.6365 28.8547 71.2663 28.8547 71.2663C19.9474 69.6892 12.1417 72.9894 12.1417 72.9894ZM14.5097 78.0881C21.0208 71.3699 30.5872 73.206 30.5872 73.206C21.5433 73.3566 14.5097 78.0881 14.5097 78.0881ZM77.2472 75.5081C77.2472 74.4159 78.1322 73.5355 79.2198 73.5355C80.199 73.5355 81.0041 74.2511 81.1594 75.1833C80.8628 74.6136 80.2885 74.2135 79.6011 74.2135C78.6219 74.2135 77.8262 75.0091 77.8262 75.9883C77.8262 76.5439 78.0993 77.0241 78.5042 77.3489C77.7697 77.0617 77.2472 76.3509 77.2472 75.5129V75.5081Z" fill="#5D97C4"/>
<path d="M26.6796 60.443C26.7691 60.8949 26.1665 60.6972 25.8934 60.6831C20.4841 60.3771 13.022 57.4064 9.66531 53.0092C6.58635 48.9745 5.39054 42.0869 10.0325 38.7255C13.2621 36.3903 18.5962 38.0193 18.3231 42.3882C18.2007 44.3749 15.715 46.4699 15.4184 48.7391C14.6416 54.737 21.6469 59.1577 26.6796 60.443Z" fill="#2E59A6"/>
<path d="M23.0546 41.0134C24.2504 40.7874 26.0865 41.5313 26.7832 42.5152C28.4639 44.8974 26.5337 47.2419 26.1335 49.7512C25.4132 54.2379 27.3293 57.1238 29.9328 60.4805C24.1986 58.3761 18.6903 50.0525 20.2581 43.9747C20.5876 42.6988 21.6799 41.2723 23.0593 41.0134H23.0546Z" fill="#2E59A6"/>
</g>
<defs>
<clipPath id="clip0_176_21132">
<rect width="330" height="260.102" fill="white" transform="translate(0 0.421875)"/>
</clipPath>
</defs>
</svg>
