<svg width="300" height="157" viewBox="0 0 300 157" fill="none" xmlns="http://www.w3.org/2000/svg">
<g clip-path="url(#clip0_176_19663)">
<path d="M0.570068 145.971H2.24007V150.311H6.78007V145.971H8.45007V156.591H6.78007V151.761H2.24007V156.591H0.570068V145.971Z" fill="#717071"/>
<path d="M11.6001 152.631C11.6001 149.991 13.3701 148.471 15.3301 148.471C17.2901 148.471 19.0601 150.001 19.0601 152.631C19.0601 155.261 17.2901 156.781 15.3301 156.781C13.3701 156.781 11.6001 155.271 11.6001 152.631ZM17.3601 152.631C17.3601 150.961 16.5801 149.841 15.3301 149.841C14.0801 149.841 13.3101 150.961 13.3101 152.631C13.3101 154.301 14.0901 155.421 15.3301 155.421C16.5701 155.421 17.3601 154.311 17.3601 152.631Z" fill="#717071"/>
<path d="M22.0101 153.991V149.991H20.8601V148.751L22.1001 148.661L22.2901 146.471H23.6701V148.661H25.7301V149.981H23.6701V154.001C23.6701 154.951 24.0001 155.441 24.8201 155.441C25.0901 155.441 25.4401 155.351 25.6701 155.251L25.9701 156.471C25.5201 156.611 24.9901 156.761 24.4101 156.761C22.6201 156.761 22.0001 155.651 22.0001 153.981L22.0101 153.991Z" fill="#717071"/>
<path d="M35.1201 145.971H37.0501L40.5601 156.591H38.7901L37.9001 153.561H34.2101L33.3001 156.591H31.6001L35.1101 145.971H35.1201ZM34.6001 152.251H37.5001L37.0801 150.821C36.7201 149.671 36.4001 148.491 36.0901 147.291H36.0201C35.7201 148.501 35.3901 149.671 35.0401 150.821L34.6101 152.251H34.6001Z" fill="#717071"/>
<path d="M42.6902 146.19C42.6902 145.6 43.1102 145.21 43.7102 145.21C44.3102 145.21 44.7502 145.6 44.7502 146.19C44.7502 146.78 44.3202 147.18 43.7102 147.18C43.1002 147.18 42.6902 146.79 42.6902 146.19ZM42.9002 148.67H44.5602V156.59H42.9002V148.67Z" fill="#717071"/>
<path d="M48.1101 148.671H49.4601L49.5901 150.101H49.6301C50.1901 149.081 51.0301 148.471 51.8801 148.471C52.2701 148.471 52.5301 148.531 52.7701 148.641L52.4701 150.081C52.2001 149.991 51.9901 149.951 51.6801 149.951C51.0301 149.951 50.2501 150.401 49.7601 151.651V156.591H48.1001V148.671H48.1101Z" fill="#717071"/>
<path d="M59.54 145.97H62.82C64.99 145.97 66.57 146.68 66.57 148.59C66.57 149.6 66.01 150.56 65.06 150.88V150.95C66.27 151.21 67.15 152.03 67.15 153.47C67.15 155.57 65.44 156.58 63.09 156.58H59.55V145.96L59.54 145.97ZM62.64 150.41C64.25 150.41 64.93 149.8 64.93 148.81C64.93 147.7 64.18 147.28 62.68 147.28H61.21V150.4H62.64V150.41ZM62.9 155.28C64.56 155.28 65.51 154.69 65.51 153.39C65.51 152.19 64.59 151.66 62.9 151.66H61.22V155.28H62.9Z" fill="#717071"/>
<path d="M69.6201 154.48C69.6201 152.78 71.0601 151.9 74.3601 151.54C74.3501 150.62 74.0101 149.81 72.8501 149.81C72.0201 149.81 71.2401 150.18 70.5601 150.62L69.9401 149.5C70.7601 148.98 71.8701 148.46 73.1401 148.46C75.1101 148.46 76.0201 149.71 76.0201 151.82V156.59H74.6701L74.5401 155.68H74.4801C73.7601 156.3 72.9101 156.78 71.9601 156.78C70.5901 156.78 69.6301 155.89 69.6301 154.49L69.6201 154.48ZM74.3601 154.54V152.59C72.0101 152.86 71.2201 153.47 71.2201 154.36C71.2201 155.14 71.7501 155.46 72.4601 155.46C73.1701 155.46 73.7101 155.13 74.3601 154.54Z" fill="#717071"/>
<path d="M79.45 154.73V145.11H81.11V154.82C81.11 155.27 81.3 155.42 81.5 155.42C81.57 155.42 81.63 155.42 81.77 155.39L81.99 156.64C81.79 156.71 81.52 156.77 81.1 156.77C79.9 156.77 79.46 156.01 79.46 154.72L79.45 154.73Z" fill="#717071"/>
<path d="M84.8201 154.73V145.11H86.4801V154.82C86.4801 155.27 86.6701 155.42 86.8701 155.42C86.9401 155.42 87.0001 155.42 87.1401 155.39L87.3601 156.64C87.1601 156.71 86.8801 156.77 86.4701 156.77C85.2701 156.77 84.8301 156.01 84.8301 154.72L84.8201 154.73Z" fill="#717071"/>
<path d="M89.6301 152.631C89.6301 149.991 91.4001 148.471 93.3601 148.471C95.3201 148.471 97.0901 150.001 97.0901 152.631C97.0901 155.261 95.3201 156.781 93.3601 156.781C91.4001 156.781 89.6301 155.271 89.6301 152.631ZM95.3901 152.631C95.3901 150.961 94.6101 149.841 93.3601 149.841C92.1101 149.841 91.3401 150.961 91.3401 152.631C91.3401 154.301 92.1201 155.421 93.3601 155.421C94.6001 155.421 95.3901 154.311 95.3901 152.631Z" fill="#717071"/>
<path d="M99.55 152.631C99.55 149.991 101.32 148.471 103.28 148.471C105.24 148.471 107.01 150.001 107.01 152.631C107.01 155.261 105.24 156.781 103.28 156.781C101.32 156.781 99.55 155.271 99.55 152.631ZM105.31 152.631C105.31 150.961 104.53 149.841 103.28 149.841C102.03 149.841 101.26 150.961 101.26 152.631C101.26 154.301 102.04 155.421 103.28 155.421C104.52 155.421 105.31 154.311 105.31 152.631Z" fill="#717071"/>
<path d="M110.04 148.67H111.39L111.52 149.76H111.56C112.29 149.05 113.1 148.46 114.18 148.46C115.87 148.46 116.61 149.58 116.61 151.6V156.58H114.95V151.8C114.95 150.43 114.55 149.88 113.61 149.88C112.88 149.88 112.37 150.26 111.68 150.96V156.58H110.02V148.66L110.04 148.67Z" fill="#717071"/>
<path d="M162.5 145.97H168.77V147.38H164.18V150.33H168.07V151.74H164.18V155.17H168.93V156.58H162.51V145.96L162.5 145.97Z" fill="#717071"/>
<path d="M173.04 152.45L170.66 148.66H172.45L173.4 150.24C173.63 150.69 173.89 151.13 174.15 151.58H174.21C174.43 151.13 174.66 150.69 174.87 150.24L175.71 148.66H177.44L175.06 152.63L177.61 156.58H175.81L174.77 154.89C174.51 154.43 174.24 153.94 173.95 153.49H173.88C173.64 153.94 173.39 154.41 173.15 154.89L172.23 156.58H170.49L173.05 152.45H173.04Z" fill="#717071"/>
<path d="M179.28 152.631C179.28 149.991 181.11 148.471 183.2 148.471C184.21 148.471 184.94 148.871 185.52 149.381L184.7 150.461C184.27 150.071 183.82 149.841 183.29 149.841C181.95 149.841 181 150.961 181 152.631C181 154.301 181.92 155.421 183.23 155.421C183.89 155.421 184.48 155.101 184.96 154.701L185.65 155.791C184.91 156.441 183.98 156.771 183.07 156.771C180.92 156.771 179.28 155.261 179.28 152.621V152.631Z" fill="#717071"/>
<path d="M188.37 154.73V145.11H190.03V154.82C190.03 155.27 190.22 155.42 190.42 155.42C190.49 155.42 190.55 155.42 190.69 155.39L190.91 156.64C190.71 156.71 190.44 156.77 190.02 156.77C188.82 156.77 188.38 156.01 188.38 154.72L188.37 154.73Z" fill="#717071"/>
<path d="M193.28 154.48C193.28 152.78 194.72 151.9 198.02 151.54C198.01 150.62 197.67 149.81 196.51 149.81C195.68 149.81 194.9 150.18 194.22 150.62L193.6 149.5C194.42 148.98 195.53 148.46 196.8 148.46C198.77 148.46 199.68 149.71 199.68 151.82V156.59H198.33L198.2 155.68H198.14C197.42 156.3 196.57 156.77 195.62 156.77C194.25 156.77 193.29 155.88 193.29 154.48H193.28ZM198.02 154.54V152.59C195.67 152.86 194.88 153.47 194.88 154.36C194.88 155.14 195.41 155.46 196.12 155.46C196.83 155.46 197.37 155.13 198.02 154.54Z" fill="#717071"/>
<path d="M203.1 148.671H204.45L204.58 149.781H204.62C205.3 149.061 206.09 148.471 207.07 148.471C208.25 148.471 208.91 149.021 209.26 149.931C210.04 149.091 210.84 148.471 211.84 148.471C213.5 148.471 214.27 149.591 214.27 151.611V156.591H212.61V151.811C212.61 150.441 212.18 149.891 211.28 149.891C210.73 149.891 210.16 150.251 209.49 150.971V156.591H207.83V151.811C207.83 150.441 207.41 149.891 206.5 149.891C205.97 149.891 205.38 150.251 204.73 150.971V156.591H203.07V148.671H203.1Z" fill="#717071"/>
<path d="M217.29 154.48C217.29 152.78 218.73 151.9 222.03 151.54C222.02 150.62 221.68 149.81 220.52 149.81C219.69 149.81 218.91 150.18 218.23 150.62L217.61 149.5C218.43 148.98 219.54 148.46 220.81 148.46C222.78 148.46 223.69 149.71 223.69 151.82V156.59H222.34L222.21 155.68H222.15C221.43 156.3 220.58 156.77 219.63 156.77C218.26 156.77 217.3 155.88 217.3 154.48H217.29ZM222.03 154.54V152.59C219.68 152.86 218.89 153.47 218.89 154.36C218.89 155.14 219.42 155.46 220.13 155.46C220.84 155.46 221.38 155.13 222.03 154.54Z" fill="#717071"/>
<path d="M227.12 153.991V149.991H225.97V148.751L227.21 148.661L227.4 146.471H228.78V148.661H230.84V149.981H228.78V154.001C228.78 154.951 229.11 155.441 229.93 155.441C230.2 155.441 230.55 155.351 230.78 155.251L231.08 156.471C230.63 156.611 230.1 156.761 229.52 156.761C227.73 156.761 227.11 155.651 227.11 153.981L227.12 153.991Z" fill="#717071"/>
<path d="M233.45 146.19C233.45 145.6 233.87 145.21 234.47 145.21C235.07 145.21 235.51 145.6 235.51 146.19C235.51 146.78 235.08 147.18 234.47 147.18C233.86 147.18 233.45 146.79 233.45 146.19ZM233.65 148.67H235.31V156.59H233.65V148.67Z" fill="#717071"/>
<path d="M238.3 152.631C238.3 149.991 240.07 148.471 242.03 148.471C243.99 148.471 245.76 150.001 245.76 152.631C245.76 155.261 243.99 156.781 242.03 156.781C240.07 156.781 238.3 155.271 238.3 152.631ZM244.06 152.631C244.06 150.961 243.28 149.841 242.03 149.841C240.78 149.841 240.01 150.961 240.01 152.631C240.01 154.301 240.79 155.421 242.03 155.421C243.27 155.421 244.06 154.311 244.06 152.631Z" fill="#717071"/>
<path d="M248.78 148.67H250.13L250.26 149.76H250.3C251.03 149.05 251.84 148.46 252.92 148.46C254.61 148.46 255.35 149.58 255.35 151.6V156.58H253.69V151.8C253.69 150.43 253.29 149.88 252.35 149.88C251.62 149.88 251.11 150.26 250.42 150.96V156.58H248.76V148.66L248.78 148.67Z" fill="#717071"/>
<path d="M263.31 145.971H265.23L267.18 151.341C267.42 152.051 267.64 152.771 267.89 153.471H267.96C268.21 152.761 268.41 152.041 268.65 151.341L270.57 145.971H272.5V156.591H270.95V151.351C270.95 150.401 271.08 149.031 271.17 148.071H271.11L270.26 150.521L268.42 155.581H267.38L265.52 150.521L264.68 148.071H264.62C264.69 149.031 264.82 150.401 264.82 151.351V156.591H263.32V145.971H263.31Z" fill="#717071"/>
<path d="M275.74 154.48C275.74 152.78 277.18 151.9 280.48 151.54C280.47 150.62 280.13 149.81 278.97 149.81C278.14 149.81 277.36 150.18 276.68 150.62L276.06 149.5C276.88 148.98 277.99 148.46 279.26 148.46C281.23 148.46 282.14 149.71 282.14 151.82V156.59H280.79L280.66 155.68H280.6C279.88 156.3 279.03 156.77 278.08 156.77C276.71 156.77 275.75 155.88 275.75 154.48H275.74ZM280.48 154.54V152.59C278.13 152.86 277.34 153.47 277.34 154.36C277.34 155.14 277.87 155.46 278.58 155.46C279.29 155.46 279.83 155.13 280.48 154.54Z" fill="#717071"/>
<path d="M285.56 148.671H286.91L287.04 150.101H287.08C287.64 149.081 288.48 148.471 289.33 148.471C289.72 148.471 289.98 148.531 290.22 148.641L289.92 150.081C289.65 149.991 289.45 149.951 289.13 149.951C288.48 149.951 287.7 150.401 287.21 151.651V156.591H285.55V148.671H285.56Z" fill="#717071"/>
<path d="M292.53 145.11H294.16V152.5H294.22L297.29 148.67H299.13L296.45 151.9L299.43 156.6H297.63L295.48 153.01L294.15 154.54V156.6H292.52V145.12L292.53 145.11Z" fill="#717071"/>
<path d="M67.19 92.9004C67.09 92.8704 66.99 92.8504 66.89 92.8304C66.78 92.8104 66.76 92.8604 66.91 92.8304C66.87 92.8304 66.8 92.8204 66.76 92.8204C66.66 92.8204 66.56 92.8204 66.47 92.8204C66.45 92.8204 66.44 92.8204 66.42 92.8204C66.39 92.8204 66.36 92.8304 66.33 92.8404C66.28 92.8504 66.22 92.8704 66.17 92.8904C66.08 92.9204 66.06 92.9904 66.19 92.8804C66.13 92.9404 66.01 92.9704 65.93 93.0204C65.93 93.0304 65.9 93.0504 65.88 93.0604C65.85 93.0804 65.82 93.1104 65.82 93.1104C65.82 93.1104 65.81 93.1204 65.8 93.1304L65.07 99.5404H49.59L48.92 93.6104C48.67 93.4004 48.43 93.1804 48.18 92.9804C48.17 92.9704 48.18 92.9804 48.16 92.9704C48.16 92.9704 48.16 92.9704 48.15 92.9704C48.1 92.9404 48.06 92.9004 48.01 92.8704C47.93 92.8104 47.84 92.7504 47.76 92.7004C47.61 92.6004 47.44 92.5304 47.29 92.4404C47.29 92.4404 47.27 92.4404 47.26 92.4404C47.22 92.4304 47.19 92.4204 47.15 92.4104C47.13 92.4104 47.11 92.4104 47.09 92.4004C47.08 92.4004 47.06 92.4004 47.04 92.4004C47.03 92.4104 47.01 92.4304 47 92.4404C47 92.4404 47 92.4404 47 92.4504C47 92.4504 47 92.4604 47 92.4704C47.1 92.5004 47.2 92.5304 47.31 92.5604L49.5 111.79H65.2L67.34 92.9704C67.34 92.9704 67.25 92.9404 67.21 92.9304L67.19 92.9004Z" fill="#5D97C4"/>
<path d="M43.4501 4.4002C18.5401 12.9802 8.58008 44.9802 23.6601 66.5702C26.8901 71.3102 31.2301 75.1902 34.6501 79.7102C38.2501 84.0702 40.8701 89.3802 44.7501 93.4902H69.4701C72.2301 90.5602 74.3601 87.0202 76.7501 83.7902C80.4601 78.3602 85.6601 73.7002 89.8701 68.4602C95.2801 61.4602 98.3901 52.4602 98.4001 43.3202V43.1102C98.6001 14.7202 70.0101 -5.3598 43.4601 4.4002H43.4501Z" fill="#2E59A6"/>
<path d="M218.4 101.75C218.4 95.23 223.15 90.71 229.66 90.71C236.17 90.71 240.93 95.23 240.93 101.75C240.93 108.27 236.18 113.01 229.66 113.01C223.14 113.01 218.4 108.26 218.4 101.75Z" fill="#2E59A6"/>
<path d="M214.82 27.4404L213.85 0.650391H245.48L244.51 27.4404L239.67 78.4404H219.66L214.82 27.4404Z" fill="#5D97C4"/>
</g>
<defs>
<clipPath id="clip0_176_19663">
<rect width="298.86" height="156.13" fill="white" transform="translate(0.570068 0.650391)"/>
</clipPath>
</defs>
</svg>
