<svg width="250" height="356" viewBox="0 0 250 356" fill="none" xmlns="http://www.w3.org/2000/svg">
<g clip-path="url(#clip0_11_840)">
<path d="M74.6012 295.158H72.0401V298.878H51.656V301.44H72.0401V304.364H55.4451C53.3635 304.364 51.656 306.06 51.656 308.154V320.894H71.2448L51.656 332.534H56.2053L72.0401 323.444V332.534H74.6012V323.444L90.436 332.534H94.9853L75.3965 320.894H94.9853V308.154C94.9853 306.072 93.2895 304.364 91.1962 304.364H74.6012V301.44H94.9853V298.878H74.6012V295.158ZM55.4451 306.914H72.0401V311.348H54.2172V308.143C54.2172 307.464 54.7668 306.914 55.4451 306.914ZM54.2289 313.898H72.0518V318.332H54.2289V313.898ZM74.6012 318.332V313.898H92.4241V318.332H74.6012ZM91.2079 306.914C91.8862 306.914 92.4358 307.464 92.4358 308.143V311.348H74.6129V306.914H91.2079Z" fill="#717071"/>
<path d="M240.27 305.358H213.957C211.84 305.358 210.121 307.078 210.121 309.195V317.653H244.106V309.195C244.106 307.078 242.387 305.358 240.27 305.358ZM228.388 307.909H235.054L232.657 315.091H228.388V307.909ZM225.839 315.091H221.57L219.173 307.909H225.839V315.091ZM212.682 309.184C212.682 308.482 213.255 307.909 213.957 307.909H216.471L218.868 315.091H212.67V309.195L212.682 309.184ZM241.545 315.091H235.346L237.744 307.909H240.258C240.96 307.909 241.533 308.482 241.533 309.184V315.08L241.545 315.091Z" fill="#717071"/>
<path d="M240.621 319.15H213.594C211.676 319.15 210.109 320.847 210.109 322.941V332.533H244.094V322.941C244.094 320.847 242.539 319.15 240.609 319.15H240.621ZM213.594 321.935H240.621C241.135 321.935 241.545 322.391 241.545 322.941V324.45H212.67V322.941C212.67 322.391 213.079 321.935 213.594 321.935ZM212.682 329.749V327.234H241.556V329.749H212.682Z" fill="#717071"/>
<path d="M236.224 300.726H218.003V303.288H236.224V300.726Z" fill="#717071"/>
<path d="M232.446 295.391C229.324 293.754 225.605 293.754 222.482 295.391L205.349 304.574V307.476L223.675 297.649C226.049 296.409 228.879 296.397 231.265 297.649L250 307.476V304.586L232.458 295.38L232.446 295.391Z" fill="#717071"/>
<path d="M109.288 295.158H106.739V301.896H103.23V304.458H106.739V332.534H109.288V304.458H112.796V301.896H109.288V295.158Z" fill="#717071"/>
<path d="M129.368 303.183H118.445C116.387 303.183 114.703 304.855 114.703 306.926V318.203H117.264V315.758H129.368V318.203H131.929V315.758H144.22V318.203H146.782V306.926C146.782 304.867 145.109 303.183 143.039 303.183H131.929V300.574H143.215C145.179 300.574 146.782 298.971 146.782 297.006V295.134H144.22V297.006C144.22 297.556 143.764 298.012 143.215 298.012H131.929V295.158H129.368V298.012H114.235V300.574H129.368V303.183ZM118.445 305.733H129.368V308.178H117.264V306.914C117.264 306.259 117.79 305.733 118.445 305.733ZM117.264 313.185V310.74H129.368V313.185H117.264ZM131.918 313.185V310.74H144.209V313.185H131.918ZM143.028 305.733C143.683 305.733 144.209 306.259 144.209 306.914V308.178H131.918V305.733H143.028Z" fill="#717071"/>
<path d="M143.671 319.092H141.11V321.198H114.223V323.76H141.11V327.457C141.11 328.837 139.987 329.972 138.595 329.972H130.631V332.534H138.595C141.39 332.534 143.659 330.264 143.659 327.468V323.772H146.957V321.21H143.659V319.104L143.671 319.092Z" fill="#717071"/>
<path d="M120.351 325.093L122.889 331.2H125.661L123.123 325.093H120.351Z" fill="#717071"/>
<path d="M36.1603 313.5H6.95838C3.5435 313.5 0.760132 316.285 0.760132 319.701V332.534H42.3703V319.701C42.3703 316.285 39.5869 313.5 36.172 313.5H36.1603ZM39.8091 329.972H3.3096V319.701C3.3096 317.688 4.94687 316.051 6.95838 316.051H36.1603C38.1718 316.051 39.8091 317.688 39.8091 319.701V329.972Z" fill="#717071"/>
<path d="M39.1659 302.481L37.0843 303.955L40.3471 308.576H2.7366L10.806 295.158H7.82384L0.339161 307.616C-0.093547 308.33 -0.105242 309.184 0.304077 309.897C0.736785 310.658 1.56712 311.137 2.47931 311.137H40.6395C41.5868 311.137 42.4405 310.634 42.8615 309.827C43.2474 309.079 43.1889 308.166 42.6978 307.476L39.1659 302.492V302.481Z" fill="#717071"/>
<path d="M197.046 326.006H156.687V315.372C156.687 313.29 158.371 311.605 160.453 311.605H193.28C195.362 311.605 197.046 313.29 197.046 315.372V326.006ZM159.213 323.479H194.52V315.372C194.52 314.694 193.959 314.132 193.28 314.132H160.453C159.775 314.132 159.213 314.694 159.213 315.372V323.479Z" fill="#717071"/>
<path d="M195.479 315.559H158.172V318.086H195.479V315.559Z" fill="#717071"/>
<path d="M195.479 319.525H158.172V322.052H195.479V319.525Z" fill="#717071"/>
<path d="M197.046 332.533H186.602C184.626 332.533 183.024 330.849 183.024 328.778V325.339H185.55V328.778C185.55 329.386 186.018 329.878 186.602 329.878H197.046V332.522V332.533Z" fill="#717071"/>
<path d="M167.938 324.356L164.558 332.534H161.821L165.201 324.356H167.938Z" fill="#717071"/>
<path d="M175.2 309.956H158.149C156.64 309.956 155.424 308.728 155.424 307.23V297.872C155.424 296.363 156.652 295.146 158.149 295.146H175.2V297.673H158.149C158.044 297.673 157.95 297.766 157.95 297.872V307.23C157.95 307.336 158.044 307.429 158.149 307.429H175.2V309.956Z" fill="#717071"/>
<path d="M175.2 305.955H157.915V303.428H172.674V301.872C172.674 301.767 172.58 301.673 172.475 301.673H157.927V299.146H172.475C173.972 299.146 175.2 300.363 175.2 301.872V305.955Z" fill="#717071"/>
<path d="M167.774 297.556H165.248V299.228H167.774V297.556Z" fill="#717071"/>
<path d="M167.774 305.745H165.248V307.897H167.774V305.745Z" fill="#717071"/>
<path d="M198.309 309.956H177.504V304.481C177.504 302.949 178.744 301.708 180.276 301.708H195.526C197.058 301.708 198.297 302.949 198.297 304.481V309.956H198.309ZM180.03 307.429H195.783V304.481C195.783 304.341 195.666 304.235 195.537 304.235H180.287C180.147 304.235 180.042 304.352 180.042 304.481V307.429H180.03Z" fill="#717071"/>
<path d="M186.123 303.171H183.597V308.692H186.123V303.171Z" fill="#717071"/>
<path d="M192.216 303.171H189.69V308.692H192.216V303.171Z" fill="#717071"/>
<path d="M180.275 297.579C180.1 297.579 179.995 297.486 179.948 297.427C179.901 297.369 179.831 297.252 179.866 297.076L180.287 295.134H177.703L177.399 296.538C177.211 297.415 177.422 298.316 177.983 299.006C178.545 299.708 179.387 300.106 180.275 300.106L198.321 300.165V297.638L180.275 297.579Z" fill="#717071"/>
<path d="M32.7689 355.521V354.316C33.1081 353.602 33.5408 352.947 34.0904 352.374C34.6401 351.801 35.2248 351.227 35.868 350.654C36.3475 350.221 36.7452 349.859 37.0609 349.578C37.3767 349.297 37.6106 349.04 37.786 348.818C37.9614 348.595 38.0784 348.361 38.1602 348.127C38.2304 347.893 38.2772 347.601 38.2772 347.25C38.2772 346.104 37.5521 345.519 36.0902 345.519C35.5991 345.519 35.1079 345.577 34.6167 345.671C34.1255 345.776 33.6577 345.916 33.2133 346.092V343.881C33.6811 343.717 34.2308 343.588 34.8506 343.495C35.4704 343.401 36.0786 343.354 36.6399 343.354C38.0316 343.354 39.0724 343.694 39.7624 344.384C40.4641 345.074 40.815 345.998 40.815 347.18C40.815 347.999 40.6161 348.689 40.2068 349.274C39.8092 349.847 39.2829 350.42 38.6397 350.97C38.1368 351.415 37.6457 351.847 37.1896 352.257C36.7335 352.666 36.3475 353.111 36.0435 353.567H40.9202V355.497H32.7689V355.521Z" fill="#717071"/>
<path d="M48.627 356C47.3172 356 46.2647 355.754 45.4694 355.263C44.6742 354.772 44.1011 354.046 43.7503 353.099C43.3994 352.151 43.224 351.016 43.224 349.694C43.224 348.373 43.3994 347.214 43.7503 346.279C44.1011 345.343 44.6742 344.617 45.4694 344.126C46.2647 343.635 47.3172 343.377 48.627 343.377C49.9368 343.377 50.9894 343.623 51.7846 344.126C52.5798 344.617 53.1529 345.343 53.5037 346.279C53.8546 347.226 54.03 348.361 54.03 349.694C54.03 351.028 53.8546 352.151 53.5037 353.099C53.1529 354.046 52.5798 354.772 51.7846 355.263C50.9894 355.754 49.9368 356 48.627 356ZM48.627 353.847C49.7029 353.847 50.4514 353.485 50.8607 352.771C51.27 352.058 51.4805 351.028 51.4805 349.694C51.4805 348.361 51.27 347.331 50.8607 346.606C50.4514 345.893 49.7029 345.53 48.627 345.53C47.5511 345.53 46.8026 345.893 46.3933 346.606C45.9723 347.32 45.7735 348.349 45.7735 349.694C45.7735 351.04 45.984 352.058 46.3933 352.771C46.8026 353.485 47.5511 353.847 48.627 353.847Z" fill="#717071"/>
<path d="M56.3339 355.521V354.316C56.673 353.602 57.1057 352.947 57.6554 352.374C58.205 351.801 58.7898 351.227 59.433 350.654C59.9125 350.221 60.3101 349.859 60.6259 349.578C60.9299 349.297 61.1755 349.04 61.3509 348.818C61.5264 348.595 61.6433 348.361 61.7252 348.127C61.7953 347.893 61.8421 347.601 61.8421 347.25C61.8421 346.104 61.117 345.519 59.6552 345.519C59.164 345.519 58.6728 345.577 58.1816 345.671C57.6905 345.776 57.2227 345.916 56.7783 346.092V343.881C57.2461 343.717 57.7957 343.588 58.4155 343.495C59.0354 343.401 59.6435 343.354 60.2048 343.354C61.5965 343.354 62.6374 343.694 63.3274 344.384C64.0291 345.074 64.3799 345.998 64.3799 347.18C64.3799 347.999 64.1811 348.689 63.7718 349.274C63.3741 349.847 62.8479 350.42 62.2047 350.97C61.7018 351.415 61.2106 351.847 60.7545 352.257C60.2984 352.666 59.9125 353.111 59.6084 353.567H64.4851V355.497H56.3339V355.521Z" fill="#717071"/>
<path d="M71.4787 355.707C69.9232 355.707 68.7421 355.321 67.9585 354.561C67.175 353.789 66.7773 352.607 66.7773 351.016V348.454C66.7773 347.46 66.9879 346.583 67.4206 345.822C67.8416 345.062 68.4614 344.465 69.2449 344.033C70.0402 343.6 70.9758 343.377 72.0517 343.377C72.6715 343.377 73.2095 343.413 73.6656 343.494C74.1217 343.576 74.5661 343.682 74.9871 343.834V345.986C74.2036 345.682 73.2914 345.518 72.2271 345.518C71.1629 345.518 70.4495 345.74 69.9233 346.185C69.4087 346.63 69.1397 347.214 69.1397 347.951V348.525C69.5373 348.244 70.0051 348.022 70.5314 347.881C71.0576 347.741 71.5488 347.671 71.9932 347.671C73.42 347.671 74.4608 348.022 75.1274 348.712C75.794 349.402 76.1332 350.385 76.1332 351.648C76.1332 352.444 75.9695 353.145 75.642 353.754C75.3146 354.362 74.8117 354.842 74.1334 355.193C73.4551 355.544 72.5663 355.707 71.4787 355.707ZM71.4904 353.847C72.2973 353.847 72.8937 353.66 73.2914 353.274C73.689 352.888 73.8878 352.373 73.8878 351.73C73.8878 351.04 73.7124 350.502 73.3732 350.127C73.0224 349.753 72.4142 349.566 71.5371 349.566C71.1278 349.566 70.7185 349.636 70.2975 349.788C69.8765 349.94 69.4905 350.127 69.1514 350.361V351.496C69.1514 353.052 69.9349 353.836 71.5137 353.836L71.4904 353.847Z" fill="#717071"/>
<path d="M86.7521 355.521V345.495H83.08V343.565H92.9153V345.495H89.2548V355.521H86.7521Z" fill="#717071"/>
<path d="M93.2661 355.521L97.8271 343.565H100.575L105.125 355.521H102.528L101.394 352.643H96.9968L95.8857 355.521H93.2661ZM97.371 350.713H101.031L99.1954 345.905L97.371 350.713Z" fill="#717071"/>
<path d="M107.803 355.521V343.565H110.305V355.521H107.803Z" fill="#717071"/>
<path d="M116.293 355.521V345.495H112.621V343.565H122.456V345.495H118.796V355.521H116.293Z" fill="#717071"/>
<path d="M130.011 355.708C128.362 355.708 127.064 355.31 126.105 354.514C125.146 353.719 124.667 352.549 124.667 351.028V343.565H127.169V350.841C127.169 351.754 127.415 352.444 127.918 352.888C128.409 353.345 129.111 353.567 130.011 353.567C130.912 353.567 131.613 353.345 132.105 352.888C132.596 352.432 132.841 351.754 132.841 350.841V343.565H135.344V351.028C135.344 352.549 134.865 353.707 133.917 354.514C132.958 355.31 131.66 355.708 130.023 355.708H130.011Z" fill="#717071"/>
<path d="M138.291 355.521V343.565H140.466L146.127 351.531V343.565H148.629V355.521H146.454L140.794 347.554V355.521H138.291Z" fill="#717071"/>
<path d="M157.436 355.707C155.436 355.707 153.904 355.181 152.875 354.128C151.834 353.075 151.319 351.613 151.319 349.741C151.319 347.764 151.845 346.208 152.898 345.074C153.951 343.939 155.518 343.377 157.599 343.377C158.313 343.377 158.968 343.424 159.552 343.494C160.137 343.576 160.687 343.705 161.201 343.869V346.021C160.687 345.834 160.137 345.705 159.564 345.624C158.991 345.542 158.395 345.507 157.786 345.507C156.36 345.507 155.354 345.857 154.757 346.559C154.161 347.261 153.869 348.326 153.869 349.741C153.869 352.303 155.073 353.59 157.482 353.59C157.903 353.59 158.313 353.555 158.722 353.485C159.131 353.415 159.482 353.321 159.786 353.216V350.431H157.003V348.829H161.903V354.678C161.494 354.935 160.921 355.169 160.196 355.38C159.47 355.59 158.547 355.696 157.447 355.696L157.436 355.707Z" fill="#717071"/>
<path d="M169.575 355.521V343.565H178.147V345.519H172.078V348.583H177.457V350.514H172.078V353.602H178.147V355.532H169.575V355.521Z" fill="#717071"/>
<path d="M179.983 355.521L184.31 349.519L180.1 343.553H183.047L185.807 347.542L188.567 343.553H191.514L187.304 349.519L191.631 355.521H188.637L185.795 351.531L182.954 355.521H179.96H179.983Z" fill="#717071"/>
<path d="M193.947 355.521V343.565H199.549C200.484 343.565 201.256 343.74 201.864 344.103C202.461 344.466 202.917 344.945 203.209 345.565C203.501 346.185 203.653 346.887 203.653 347.683C203.653 348.478 203.478 349.203 203.139 349.812C202.8 350.432 202.32 350.911 201.689 351.251C201.069 351.59 200.32 351.765 199.467 351.765H196.438V355.521H193.935H193.947ZM196.449 349.777H198.952C199.666 349.777 200.215 349.59 200.578 349.215C200.94 348.841 201.127 348.326 201.127 347.683C201.127 346.993 200.952 346.454 200.613 346.092C200.262 345.729 199.747 345.542 199.057 345.542H196.461V349.777H196.449Z" fill="#717071"/>
<path d="M211.419 355.707C207.548 355.707 205.606 353.672 205.606 349.601C205.606 347.413 206.098 345.822 207.068 344.851C208.051 343.869 209.489 343.389 211.407 343.389C213.325 343.389 214.775 343.88 215.746 344.851C216.717 345.822 217.208 347.413 217.208 349.601C217.208 353.672 215.266 355.707 211.395 355.707H211.419ZM211.419 353.567C212.541 353.567 213.372 353.239 213.898 352.596C214.424 351.952 214.682 350.946 214.682 349.601C214.682 348.104 214.424 347.051 213.898 346.431C213.372 345.822 212.541 345.507 211.419 345.507C210.296 345.507 209.466 345.811 208.939 346.431C208.413 347.039 208.156 348.104 208.156 349.601C208.156 350.946 208.413 351.952 208.939 352.596C209.466 353.251 210.296 353.567 211.419 353.567Z" fill="#717071"/>
<path d="M124.994 267.772C134.889 267.772 142.911 259.748 142.911 249.85C142.911 239.953 134.889 231.929 124.994 231.929C115.099 231.929 107.078 239.953 107.078 249.85C107.078 259.748 115.099 267.772 124.994 267.772Z" fill="#F4E342"/>
<path d="M124.784 220.909C124.456 220.909 124.094 220.886 123.766 220.862C123.673 220.862 123.579 220.839 123.509 220.839C123.392 220.839 123.275 220.839 123.181 220.815C114.527 220.055 107.066 213.82 103.756 204.906C103.756 204.859 103.71 204.812 103.686 204.765C103.09 203.128 102.622 201.42 102.306 199.642C102.236 199.431 102.213 199.197 102.166 198.951L97.2657 166.828C99.8503 170.104 102.295 172.853 103.943 174.362C105.651 176.187 107.592 177.637 109.697 178.772L111.978 205.222C112.738 214.065 118.235 220.745 124.795 220.886L124.784 220.909Z" fill="#84B9DE"/>
<path d="M109.686 178.796C107.581 177.661 105.639 176.21 103.932 174.385C102.271 172.865 99.8269 170.116 97.2541 166.852L92.5411 135.945L88.9858 112.759C92.3306 116.959 95.4765 120.492 97.64 122.457C99.9205 124.902 102.517 126.821 105.394 128.33L105.698 131.979L109.697 178.796H109.686Z" fill="#5D97C4"/>
<path d="M98.7627 26.6135C97.7921 31.1407 97.4529 36.0189 97.8856 41.0491L100.084 66.8905L103.452 106.091L105.37 128.329C102.505 126.809 99.8971 124.89 97.6167 122.457C95.4648 120.492 92.3072 116.959 88.9625 112.759L86.1908 94.5567L82.7525 72.0611L77.5133 37.7151C77.4665 37.411 77.4197 37.0951 77.4197 36.8144C77.3028 35.937 77.256 35.0596 77.256 34.2057C77.256 29.7954 78.5073 25.6777 80.6709 22.3086L80.741 22.215C81.5714 21.0803 82.4485 19.9923 83.3958 18.9395C93.2194 7.65071 107.557 0.421218 123.579 0.046875C114.761 0.66688 107.136 6.87863 102.493 16.0032C100.856 19.2319 99.5814 22.7999 98.7744 26.6252L98.7627 26.6135Z" fill="#2E59A6"/>
<path d="M152.933 165.612L147.986 198.016L147.846 198.963C147.705 199.841 147.542 200.695 147.32 201.525C146.045 206.79 143.413 211.34 139.905 214.709C135.859 218.616 130.619 220.921 125.006 220.921C125.439 220.921 125.836 220.898 126.234 220.851C132.35 220.067 137.32 213.621 138.034 205.257L140.338 178.375C142.139 177.24 143.823 175.836 145.437 174.222C148.162 171.66 150.653 168.7 152.945 165.612H152.933Z" fill="#84B9DE"/>
<path d="M161.155 111.788L157.459 136.038L152.933 165.623C150.629 168.7 148.15 171.671 145.425 174.233C143.811 175.848 142.127 177.24 140.326 178.386L144.279 132.283L144.653 128.014C147.214 126.446 149.623 124.527 151.927 122.235C155.249 119.111 158.301 115.555 161.143 111.8L161.155 111.788Z" fill="#5D97C4"/>
<path d="M172.557 36.7442C172.557 37.0483 172.51 37.3876 172.463 37.7151L167.224 72.0143L163.786 94.5567L161.154 111.788C158.313 115.532 155.249 119.088 151.939 122.223C149.635 124.528 147.226 126.446 144.665 128.002L146.536 106.103L149.881 67.2063L152.103 41.0608C152.22 39.6102 152.29 38.1947 152.29 36.7676C152.29 33.2581 151.916 29.8656 151.226 26.6486C150.419 22.8116 149.144 19.2319 147.507 16.0032C142.864 6.87863 135.239 0.66688 126.421 0.046875C142.443 0.421218 156.781 7.65071 166.581 18.9395C167.528 19.9806 168.405 21.0686 169.236 22.215C169.259 22.2618 169.282 22.2852 169.306 22.3086C171.867 26.3094 173.165 31.4098 172.557 36.7442Z" fill="#2E59A6"/>
<path d="M103.674 204.766C96.7277 190.353 90.9505 169.8 86.0972 148.544C88.0619 154.066 92.8217 161.225 97.254 166.84L102.154 198.963C102.201 199.197 102.224 199.443 102.294 199.653C102.599 201.432 103.078 203.14 103.674 204.777V204.766Z" fill="#ADD7EF"/>
<path d="M88.9858 112.759C82.9162 105.05 76.2385 95.0247 73.9112 87.6548C73.5837 85.9703 73.2914 84.3325 73.0341 82.7533C72.157 77.2551 71.6073 72.2483 71.3968 67.7211V67.6509C70.8705 64.5976 70.5899 61.4391 70.5197 58.1987C70.239 44.851 74.0281 32.4275 80.6825 22.3086C78.5306 25.6777 77.2676 29.7954 77.2676 34.2057C77.2676 35.0596 77.3144 35.937 77.4313 36.8144C77.4313 37.0951 77.4781 37.411 77.5249 37.7151L82.7642 72.0611L86.2024 94.5568L88.9741 112.759H88.9858Z" fill="#5D97C4"/>
<path d="M97.2541 166.852C92.8218 161.237 88.062 154.077 86.0973 148.556C85.7932 147.257 85.5008 145.947 85.2202 144.648C80.7411 124.621 77.0689 104.278 73.9931 88.111C73.9698 87.9473 73.9464 87.8069 73.923 87.6665C76.2502 95.0364 82.928 105.062 88.9976 112.771L92.5528 135.957L97.2658 166.863L97.2541 166.852Z" fill="#84B9DE"/>
<path d="M179.48 58.187C179.41 61.6028 179.106 64.9368 178.51 68.1655C178.252 72.8565 177.609 78.0973 176.592 83.8762C176.358 85.1747 176.112 86.4849 175.855 87.8536C175.188 89.8891 174.101 92.0533 172.686 94.3227C169.294 99.9613 165.482 106.079 161.166 111.765L163.798 94.5333L167.236 71.9909L172.475 37.6917C172.522 37.3642 172.569 37.0249 172.569 36.7207C173.189 31.3864 171.879 26.2859 169.318 22.2852C175.972 32.4041 179.773 44.8276 179.48 58.1753V58.187Z" fill="#5D97C4"/>
<path d="M175.855 87.8652C175.832 87.9354 175.832 88.029 175.808 88.0992C172.686 103.623 168.908 124.317 164.265 144.871C163.961 146.274 163.622 147.643 163.318 149.023C162.815 150.275 162.137 151.562 161.283 152.907C158.816 157.037 156.044 161.435 152.945 165.612L157.471 136.027L161.166 111.776C165.482 106.091 169.294 99.9729 172.686 94.3343C174.112 92.0532 175.2 89.9007 175.855 87.8652Z" fill="#84B9DE"/>
<path d="M163.318 149.023C158.816 168.442 153.553 187.452 147.32 201.525C147.53 200.694 147.694 199.84 147.846 198.963L147.986 198.016L152.933 165.612C156.032 161.435 158.804 157.037 161.271 152.907C162.125 151.55 162.815 150.275 163.306 149.023H163.318Z" fill="#ADD7EF"/>
<path d="M83.4074 18.9395C82.4601 19.9806 81.583 21.0685 80.7527 22.215C81.5128 21.0334 82.4133 19.9221 83.4074 18.9395Z" fill="#5D97C4"/>
<path d="M169.236 22.215C168.405 21.0802 167.528 19.9923 166.581 18.9395C167.575 19.9104 168.475 21.0217 169.236 22.215Z" fill="#5D97C4"/>
<path d="M140.326 178.363L138.022 205.245C137.309 213.61 132.339 220.055 126.222 220.839C125.825 220.886 125.415 220.909 124.994 220.909H124.784C118.223 220.769 112.726 214.077 111.966 205.245L109.686 178.796C115.896 182.165 123.521 182.82 130.233 181.896C133.976 181.498 137.297 180.281 140.326 178.363Z" fill="#5D97C4"/>
<path d="M152.302 36.7675C152.302 38.1947 152.231 39.6101 152.114 41.0607L149.892 67.2062L146.548 106.103L144.677 128.002C142.279 129.452 139.776 130.54 137.098 131.301C135.484 131.757 133.8 132.085 132.046 132.272C125.743 133.149 118.796 132.938 112.375 131.114C109.931 130.423 107.592 129.523 105.382 128.341L103.464 106.103L100.096 66.9021L97.8973 41.0607C97.4646 36.0305 97.8037 31.1523 98.7744 26.6251C99.5814 22.8115 100.856 19.2319 102.493 16.0032C107.136 6.87855 114.761 0.666798 123.579 0.0467928C124.059 0.0233964 124.526 0 125.006 0C125.485 0 125.953 0.0233964 126.433 0.0467928C135.251 0.666798 142.876 6.87855 147.518 16.0032C149.156 19.2319 150.43 22.7998 151.237 26.6485C151.927 29.8772 152.302 33.258 152.302 36.7675Z" fill="#003893"/>
<path d="M144.665 128.002L144.291 132.272L140.338 178.374C137.309 180.293 133.987 181.498 130.245 181.907C123.544 182.831 115.907 182.165 109.697 178.807L105.698 131.991L105.394 128.341C107.592 129.523 109.943 130.423 112.387 131.114C118.808 132.939 125.754 133.149 132.058 132.272C133.812 132.085 135.496 131.745 137.11 131.301C139.788 130.54 142.303 129.453 144.688 128.002H144.665Z" fill="#2E59A6"/>
<g style="mix-blend-mode:multiply" opacity="0.46">
<path d="M73.9112 87.6545C73.3148 85.8296 73.0107 84.1684 73.0341 82.7529C73.2914 84.3439 73.5837 85.9816 73.9112 87.6545Z" fill="#003893"/>
</g>
<g style="mix-blend-mode:multiply" opacity="0.46">
<path d="M176.58 83.8877C176.533 85.1628 176.299 86.4964 175.843 87.8651C176.101 86.4847 176.346 85.1862 176.58 83.8877Z" fill="#003893"/>
</g>
<g style="mix-blend-mode:multiply" opacity="0.46">
<path d="M86.0855 148.544C85.5592 147.093 85.2552 145.795 85.2084 144.637C85.489 145.935 85.7814 147.245 86.0855 148.544Z" fill="#003893"/>
</g>
<g style="mix-blend-mode:multiply" opacity="0.46">
<path d="M164.265 144.871C164.219 146.169 163.915 147.573 163.318 149.023C163.622 147.655 163.961 146.274 164.265 144.871Z" fill="#003893"/>
</g>
</g>
<defs>
<clipPath id="clip0_11_840">
<rect width="250" height="356" fill="white"/>
</clipPath>
</defs>
</svg>
