<svg width="200" height="114" viewBox="0 0 200 114" fill="none" xmlns="http://www.w3.org/2000/svg">
<g clip-path="url(#clip0_176_21178)">
<path d="M9.13528 103.482C8.92329 104.764 8.32676 105.528 6.66042 105.971C6.58154 105.745 6.33997 105.405 6.15756 105.267C7.53303 104.946 8.03589 104.424 8.18872 103.477H6.42871V102.619H9.22402V101.49H7.00552V100.647H9.22402V99.6072H10.2642V100.647H12.5271V101.49H10.2642V102.619H13.03V103.477H11.196V104.256C11.196 104.576 11.2108 104.685 11.4228 104.685H12.3398C12.5222 104.685 12.8426 104.655 13.0103 104.606C13.025 104.833 13.0546 105.124 13.0694 105.34C12.9314 105.4 12.6257 105.419 12.3496 105.419H11.2798C10.4861 105.419 10.3185 105.084 10.3185 104.241V103.477H9.12542L9.13528 103.482ZM6.2463 113.07C6.99566 112.474 7.71544 111.419 8.12463 110.428L9.17965 110.704C8.76553 111.729 8.06547 112.844 7.30132 113.534L6.2463 113.075V113.07ZM19.0594 108.865C19.1678 108.865 19.2418 108.836 19.3059 108.772C19.3699 108.707 19.3995 108.56 19.4291 108.284C19.4587 107.978 19.4735 107.307 19.4735 106.435C19.6707 106.632 19.9763 106.785 20.2524 106.864C20.2376 107.657 20.1735 108.604 20.1144 108.929C20.0552 109.279 19.932 109.481 19.7643 109.6C19.5967 109.738 19.3502 109.797 19.1087 109.797H18.5121C18.236 109.797 17.96 109.703 17.748 109.506C17.5508 109.324 17.4719 109.077 17.4719 108.037V102.733H16.0028C15.9584 103.709 15.8647 104.611 15.7119 105.409C16.338 105.868 16.9049 106.297 17.2846 106.617L16.7521 107.564C16.4317 107.273 15.988 106.893 15.4851 106.509C15.071 107.993 14.4005 109.186 13.2518 110.068C13.099 109.822 12.7638 109.472 12.5173 109.319L12.6553 109.21C10.3776 109.437 8.04082 109.698 6.38927 109.866L6.28081 108.89C7.08933 108.831 8.09998 108.737 9.22895 108.629V107.238H6.79846V106.366H9.22895V105.267H10.2692V106.366H12.6553V107.238H10.2692V108.52C11.1714 108.461 12.1031 108.353 13.0053 108.259L13.0201 108.87C13.8286 108.076 14.3019 107.066 14.5928 105.829C14.1047 105.464 13.6166 105.109 13.1877 104.803L13.6906 103.995C14.0258 104.221 14.4104 104.483 14.79 104.759C14.8837 104.133 14.9428 103.443 14.9724 102.728H13.3208V101.702H15.0168C15.0316 101.012 15.0463 100.297 15.0463 99.5332H16.0866C16.0718 100.297 16.0718 101.017 16.0422 101.702H18.5023V108.091C18.5023 108.476 18.5171 108.717 18.5614 108.796C18.6058 108.841 18.6847 108.855 18.7734 108.855H19.0495L19.0594 108.865ZM11.7334 110.699C11.9306 111.522 12.0834 112.592 12.0982 113.223L10.984 113.376C10.9692 112.72 10.8608 111.636 10.6784 110.793L11.7334 110.699ZM14.8541 110.576C15.2386 111.384 15.6182 112.454 15.7563 113.115L14.6421 113.361C14.5188 112.691 14.1688 111.601 13.7991 110.778L14.8541 110.581V110.576ZM18.0043 110.379C18.7389 111.202 19.577 112.351 19.9615 113.115L18.8474 113.529C18.4825 112.779 17.6691 111.586 16.9542 110.714L18.0093 110.379H18.0043Z" fill="#717071"/>
<path d="M26.3755 101.85C25.6261 103.043 24.6943 104.083 23.7626 104.847C23.5802 104.621 23.1808 104.177 22.9393 103.96C24.3443 102.92 25.6162 101.283 26.3459 99.543L27.4453 99.8486C27.2777 100.233 27.11 100.583 26.9128 100.948H36.2995V101.85H26.3804H26.3755ZM27.1692 110.315C26.4642 111.508 25.1528 112.789 24.0041 113.435C23.8365 113.174 23.5161 112.824 23.2844 112.612C24.3985 112.094 25.6705 111.005 26.3262 109.969L27.1692 110.319V110.315ZM28.6827 109.506V113.494H27.5981V109.506H23.5013V108.589H27.5981V105.932H28.6827V108.589H32.6859V109.506H28.6827ZM34.3374 104.69C34.3226 109.412 34.4459 112.38 35.6685 112.38C35.989 112.38 36.0678 111.478 36.0974 110.162C36.3291 110.423 36.6348 110.679 36.8764 110.832C36.7827 112.834 36.5411 113.494 35.6094 113.494C33.4845 113.494 33.2577 110.531 33.2232 105.592H24.4922V104.69H34.3374ZM25.3993 106.085C25.9022 106.666 26.4396 107.46 26.622 108.012L25.7198 108.392C25.5374 107.859 25.0493 107.046 24.5415 106.45L25.3993 106.085ZM26.055 103.699V102.826H35.1361V103.699H26.055ZM29.9694 109.994C30.9801 110.714 32.2175 111.754 32.8436 112.454L32.1238 113.144C31.5421 112.439 30.3047 111.34 29.3088 110.591L29.9645 109.994H29.9694ZM31.9069 106.479C31.3548 107.199 30.7287 107.993 30.2406 108.51L29.506 108.19C29.9645 107.608 30.5758 106.706 30.8963 106.095L31.9069 106.479Z" fill="#717071"/>
<path d="M44.7644 110.364C43.0684 110.901 41.2641 111.463 39.8886 111.921L39.6421 110.822C40.1942 110.669 40.8795 110.472 41.6437 110.24V106.02H39.9477V104.965H41.6437V101.648H39.8097V100.578H44.4735V101.648H42.7135V104.965H44.2566V106.02H42.7135V109.92L44.5918 109.323L44.7594 110.364H44.7644ZM53.4461 104.645C52.6523 105.744 51.6121 107.075 50.7839 107.933C51.4741 109.417 52.4502 110.546 53.9046 111.557C53.6433 111.754 53.3376 112.089 53.1848 112.414C51.4741 111.147 50.3698 109.737 49.6549 107.815V112.094C49.6549 112.784 49.4725 113.105 49.0584 113.287C48.6147 113.499 47.9294 113.533 46.7364 113.533C46.6772 113.228 46.4898 112.74 46.3222 112.434C47.2096 112.464 47.9886 112.449 48.2154 112.449C48.4618 112.434 48.5506 112.355 48.5506 112.099V108.49C47.2984 109.757 45.9969 111.014 44.9566 111.99L44.2516 111.014C45.2919 110.157 46.973 108.658 48.5457 107.238V103.265H44.8482V102.21H48.5457V99.5674H49.645V102.21H53.6482V103.265H49.645V103.817C49.8422 105.039 50.074 106.094 50.3944 107.011C51.129 106.139 51.9375 104.995 52.4453 104.122L53.4411 104.66L53.4461 104.645ZM45.9525 104.201C46.623 105.074 47.3427 106.252 47.6188 107.031L46.687 107.475C46.411 106.711 45.7257 105.488 45.0651 104.615L45.9525 104.201ZM52.1889 102.003C51.8241 101.5 51.06 100.795 50.3845 100.322L51.0402 99.7251C51.6959 100.184 52.4946 100.854 52.8742 101.313L52.184 102.003H52.1889Z" fill="#717071"/>
<path d="M165.061 101.618C164.726 102.427 164.189 103.102 163.533 103.649C164.356 104.137 165.293 104.492 166.284 104.719C166.057 104.916 165.766 105.301 165.628 105.562C164.573 105.271 163.597 104.827 162.724 104.246C161.916 104.763 160.964 105.148 159.959 105.468C159.835 105.256 159.53 104.872 159.318 104.675C160.294 104.428 161.181 104.093 161.945 103.649C161.487 103.265 161.088 102.826 160.752 102.382C160.476 102.673 160.22 102.934 159.929 103.176C159.791 103.008 159.53 102.732 159.318 102.535C159.209 104.172 159.106 104.827 158.844 105.104C158.677 105.301 158.46 105.38 158.125 105.409C157.898 105.424 157.42 105.439 156.917 105.394C156.902 105.212 156.858 104.995 156.779 104.768H154.486V105.227H153.663V103.314C153.451 103.541 153.219 103.743 152.943 103.955C152.79 103.758 152.5 103.482 152.288 103.373C153.145 102.762 153.693 101.983 153.998 101.293L154.886 101.431C154.841 101.539 154.777 101.658 154.748 101.766H159.347C159.347 101.766 159.347 102.027 159.332 102.146L159.318 102.298C160.19 101.608 160.969 100.603 161.428 99.5772L162.404 99.8385C162.266 100.159 162.113 100.45 161.931 100.755H165.949V101.613H165.061V101.618ZM154.728 100.869H152.662V100.134H154.728V99.5674H155.66V101.327H154.728V100.869ZM152.771 113.006C153.288 112.503 153.826 111.66 154.161 111.064L155.078 111.522C154.713 112.148 154.22 112.991 153.702 113.524L152.771 113.006ZM157.267 104.66H157.681C157.849 104.66 157.957 104.66 158.046 104.551C158.169 104.369 158.258 103.832 158.337 102.456H154.333C154.21 102.624 154.087 102.791 153.954 102.959H157.272V104.655L157.267 104.66ZM165.643 110.102C165.643 110.102 165.613 110.378 165.584 110.516C165.401 112.183 165.234 112.902 164.913 113.193C164.701 113.405 164.455 113.484 164.105 113.514C163.784 113.528 163.188 113.528 162.547 113.484C162.532 113.238 162.438 112.917 162.3 112.661L162.148 112.74C161.965 112.355 161.536 111.808 161.152 111.409L161.931 111.073C162.33 111.453 162.754 111.976 162.971 112.326L162.374 112.631C162.926 112.69 163.415 112.69 163.612 112.69C163.809 112.69 163.947 112.676 164.041 112.567C164.208 112.4 164.346 111.941 164.484 110.857H154.457V105.72H164.608V106.484H160.19V107.248H164.041V107.904H160.19V108.668H164.09V109.323H160.19V110.102H165.648H165.643ZM156.424 103.531H154.481V104.221H156.424V103.531ZM155.536 106.479V107.243H159.096V106.479H155.536ZM159.101 107.899H155.541V108.663H159.101V107.899ZM155.536 110.102H159.096V109.323H155.536V110.102ZM157.065 111.34C157.277 111.921 157.479 112.7 157.523 113.203L156.547 113.386C156.503 112.868 156.335 112.084 156.133 111.492L157.065 111.34ZM157.696 101.51H156.764V99.5674H157.696V100.134H159.776V100.884H157.696V101.51ZM159.53 111.28C159.88 111.769 160.2 112.459 160.338 112.917L159.436 113.208C159.313 112.735 158.992 112.03 158.657 111.527L159.53 111.28ZM161.314 101.663C161.679 102.2 162.172 102.673 162.734 103.117C163.267 102.688 163.681 102.2 163.986 101.618H161.359L161.314 101.663Z" fill="#717071"/>
<path d="M173.314 109.476H170.622V110.93H169.646V100.997H173.314V109.481V109.476ZM170.622 102.047V108.421H172.333V102.047H170.622ZM178.451 110.654C177.854 111.877 176.602 112.917 173.955 113.514C173.832 113.282 173.556 112.873 173.329 112.641C175.513 112.227 176.661 111.527 177.243 110.654H173.743V109.767H177.657C177.751 109.461 177.81 109.141 177.825 108.82H174.492V107.933H177.84V106.987H174.566V104.206H177.84V103.486H175.744V101.667H173.896V100.765H175.744V99.5723H176.755V100.765H179.935V99.5723H180.99V100.765H182.903V101.667H180.99V103.486H178.909V104.206H182.134V106.987H178.909V107.933H182.227V108.82H178.895C178.88 109.141 178.836 109.447 178.757 109.767H182.883V110.654H178.451ZM177.835 106.188V104.995H175.557V106.188H177.835ZM176.75 102.703H179.93V101.662H176.75V102.703ZM179.319 110.807C180.571 111.295 182.222 112.089 183.065 112.611L182.533 113.469C181.71 112.917 180.073 112.094 178.801 111.557L179.319 110.807ZM178.905 104.995V106.188H181.103V104.995H178.905Z" fill="#717071"/>
<path d="M190.825 107.963C190.825 107.963 190.811 108.269 190.796 108.421C190.584 111.355 190.367 112.518 189.972 112.932C189.746 113.208 189.484 113.297 189.085 113.332C188.779 113.361 188.183 113.361 187.586 113.317C187.557 113.026 187.463 112.627 187.31 112.37C187.892 112.415 188.459 112.429 188.671 112.429C188.903 112.429 189.036 112.4 189.159 112.277C189.405 112.03 189.588 111.113 189.77 108.885H186.684C186.896 108.229 187.098 107.283 187.266 106.425H185.95V105.414H191.437V106.425H188.242C188.148 106.943 188.03 107.495 187.936 107.968H190.825V107.963ZM191.072 104.216H186.669V100.213H191.072V104.216ZM190.17 101.071H187.542V103.364H190.17V101.071ZM193.103 106.435C193.103 108.53 192.891 111.507 191.56 113.529C191.377 113.346 190.963 113.026 190.702 112.903C191.954 111.024 192.092 108.392 192.092 106.42V102.555H195.09V99.543H196.16V100.613H199.231V101.544H196.16V102.555H199.108L199.29 102.511L199.98 102.693C199.798 103.595 199.537 104.65 199.339 105.335L198.482 105.123C198.605 104.695 198.728 104.083 198.817 103.487H193.098V106.435H193.103ZM195.292 108.343C195.169 110.773 194.804 112.484 193.152 113.494C193.014 113.248 192.723 112.912 192.497 112.745C193.931 111.902 194.222 110.438 194.316 108.343H195.292ZM197.998 106.696C198.275 106.696 198.733 106.666 198.93 106.622C198.96 106.898 198.989 107.204 199.024 107.465C198.812 107.539 198.413 107.539 198.048 107.539H196.214C195.238 107.539 195.021 107.125 195.021 106.149V105.676L193.522 105.828L193.414 105.02L195.021 104.852V103.585H195.997V104.749L197.969 104.552L198.077 105.36L195.997 105.572V106.154C195.997 106.568 196.056 106.706 196.376 106.706H197.998V106.696ZM198.501 112.148C198.669 112.148 198.822 112.134 198.901 112.089C198.994 112.03 199.083 111.922 199.098 111.769C199.142 111.522 199.177 110.926 199.157 110.241C199.354 110.423 199.709 110.625 200 110.699C199.985 111.419 199.921 112.183 199.847 112.439C199.754 112.715 199.601 112.898 199.389 113.021C199.191 113.115 198.856 113.174 198.595 113.174H197.772C197.436 113.174 197.081 113.115 196.869 112.927C196.623 112.73 196.579 112.513 196.579 111.813V108.343H197.54V111.843C197.54 111.936 197.555 112.04 197.663 112.089C197.722 112.134 197.846 112.148 197.984 112.148H198.501Z" fill="#717071"/>
<path d="M36.6545 67.2868C36.5806 67.2671 36.5066 67.2474 36.4327 67.2375C36.3488 67.2227 36.339 67.2572 36.4474 67.2375C36.4179 67.2375 36.3686 67.2277 36.339 67.2277C36.27 67.2277 36.196 67.2277 36.127 67.2277C36.1171 67.2277 36.1073 67.2277 36.0925 67.2277C36.0728 67.2277 36.0481 67.2375 36.0284 67.2424C35.989 67.2523 35.9495 67.2622 35.9101 67.277C35.8411 67.3016 35.8312 67.3509 35.9249 67.2671C35.8805 67.3115 35.7918 67.3312 35.7375 67.3706C35.7326 67.3805 35.7178 67.3903 35.703 67.4002C35.6833 67.4199 35.6586 67.4347 35.6586 67.4396C35.6586 67.4396 35.6488 67.4495 35.6439 67.4544L35.1164 72.0983H23.9154L23.4273 67.8044C23.2499 67.6516 23.0724 67.4939 22.89 67.346C22.8801 67.341 22.885 67.341 22.8801 67.3361C22.8801 67.3361 22.8801 67.3361 22.8702 67.3312C22.8357 67.3065 22.8062 67.2819 22.7716 67.2572C22.7125 67.2129 22.6533 67.1734 22.5892 67.134C22.4808 67.065 22.3575 67.0157 22.2491 66.9467C22.2441 66.9467 22.2343 66.9467 22.2293 66.9417C22.2047 66.9319 22.18 66.9269 22.1505 66.9171C22.1357 66.9171 22.1209 66.9122 22.1061 66.9072C22.0962 66.9072 22.0864 66.9072 22.0716 66.9072C22.0617 66.9171 22.0519 66.9269 22.042 66.9368C22.042 66.9368 22.042 66.9368 22.0371 66.9417C22.0371 66.9417 22.0371 66.9516 22.0321 66.9516C22.1061 66.9713 22.18 66.996 22.254 67.0157L23.8365 80.9324H35.2002L36.7482 67.3115C36.7186 67.3016 36.6841 67.2917 36.6545 67.2819V67.2868Z" fill="#5D97C4"/>
<path d="M19.4735 3.23482C1.44448 9.44139 -5.76317 32.6014 5.14691 48.2288C7.48866 51.6599 10.6241 54.4698 13.099 57.7333C15.702 60.8884 17.6001 64.7287 20.4052 67.7062H38.2962C40.2928 65.5864 41.831 63.023 43.5664 60.6912C46.2483 56.7622 50.0148 53.3902 53.0615 49.5992C56.9759 44.5364 59.229 38.0192 59.2339 31.4035V31.2507C59.3769 10.7034 38.6857 -3.82953 19.4735 3.23482Z" fill="#2E59A6"/>
<path d="M166.787 73.6865C166.787 68.9687 170.223 65.6953 174.936 65.6953C179.649 65.6953 183.09 68.9687 183.09 73.6865C183.09 78.4042 179.654 81.8354 174.936 81.8354C170.218 81.8354 166.787 78.3993 166.787 73.6865Z" fill="#2E59A6"/>
<path d="M164.189 19.9122L163.488 0.523438H186.383L185.683 19.9122L182.178 56.8164H167.694L164.189 19.9122Z" fill="#5D97C4"/>
</g>
<defs>
<clipPath id="clip0_176_21178">
<rect width="200" height="113" fill="white" transform="translate(0 0.523438)"/>
</clipPath>
</defs>
</svg>
