<svg width="390" height="743" viewBox="0 0 390 743" fill="none" xmlns="http://www.w3.org/2000/svg">
<mask id="mask0_176_20923" style="mask-type:luminance" maskUnits="userSpaceOnUse" x="0" y="0" width="390" height="743">
<path d="M390 0H0V742.789H390V0Z" fill="white"/>
</mask>
<g mask="url(#mask0_176_20923)">
<path d="M187.163 120.006C187.172 119.961 187.185 119.912 187.23 119.844C188.153 117.998 188.878 116.031 189.35 114.046C196.17 93.221 194.491 69.7446 182.926 49.2979C182.598 48.6812 182.274 48.0689 181.918 47.4747C181.562 46.8805 181.175 46.2998 180.788 45.7191C168.269 25.8441 148.398 13.2348 126.831 9.36335C124.859 8.84115 122.779 8.54404 120.722 8.48102L120.551 8.46301C102.81 7.68872 84.3348 12.2489 67.7595 22.6344C63.726 25.1643 59.9761 27.8923 56.5188 30.8454L56.4288 30.8995C50.8917 34.5683 45.0124 39.016 38.7506 44.2515C36.9409 45.2914 35.0862 46.9255 33.236 49.0413C33.0739 49.1764 32.9119 49.3159 32.7228 49.469C14.698 65.495 -8.12558 85.397 -29.9633 106.087C-31.3904 107.019 -32.7949 108.387 -34.2219 110.129C-57.3246 132.219 -78.8337 154.939 -91.7446 174.508C-91.7851 174.571 -91.8121 174.67 -91.8707 174.702C-100.59 185.573 -102.823 199.655 -97.2772 211.107C-97.2367 211.242 -97.1466 211.395 -97.0566 211.544C-97.0026 211.634 -96.9621 211.769 -96.89 211.89C-96.6695 212.327 -96.4309 212.791 -96.1833 213.209L-96.0212 213.475C-91.7986 220.542 -84.9696 225.409 -77.006 227.57C-70.1365 229.451 -62.4341 229.343 -54.8487 227.002C-32.4482 224.265 -4.57824 216.603 23.2332 207.681C25.4976 207.339 27.4873 206.677 29.1665 205.759C58.513 196.161 87.3824 185.353 109.265 177.623C109.373 177.601 109.49 177.529 109.598 177.506C111.669 177.038 113.515 176.34 115.162 175.44C123.202 172.374 130.275 169.246 136.379 166.045C140.881 164.366 145.315 162.245 149.663 159.77C166.666 150.1 179.447 135.996 187.176 120.006H187.163Z" fill="#003893"/>
<path d="M202.419 228.461C202.405 228.412 202.392 228.358 202.347 228.286C201.352 226.296 200.569 224.167 200.055 222.028C192.691 199.542 194.505 174.198 206.988 152.126C207.339 151.464 207.695 150.798 208.077 150.154C208.46 149.51 208.879 148.885 209.297 148.259C222.811 126.799 244.266 113.186 267.554 109.009C269.683 108.446 271.925 108.126 274.149 108.054L274.333 108.036C293.488 107.199 313.435 112.124 331.334 123.338C335.687 126.07 339.738 129.014 343.47 132.201L343.569 132.26C349.548 136.221 355.895 141.02 362.657 146.674C364.61 147.795 366.614 149.56 368.612 151.847C368.788 151.995 368.959 152.144 369.166 152.311C388.627 169.611 413.269 191.102 436.845 213.439C438.384 214.447 439.906 215.924 441.445 217.801C466.385 241.651 489.609 266.181 503.551 287.307C503.596 287.379 503.623 287.479 503.686 287.519C513.099 299.259 515.512 314.457 509.52 326.828C509.475 326.976 509.381 327.138 509.281 327.296C509.223 327.391 509.182 327.539 509.101 327.67C508.863 328.138 508.606 328.642 508.336 329.092L508.165 329.38C503.605 337.011 496.235 342.264 487.633 344.596C480.214 346.631 471.899 346.514 463.711 343.979C439.528 341.026 409.434 332.752 379.407 323.118C376.963 322.749 374.811 322.034 373.006 321.043C341.319 310.68 310.153 299.012 286.524 290.666C286.407 290.639 286.281 290.562 286.164 290.54C283.931 290.035 281.932 289.279 280.159 288.307C271.475 284.998 263.84 281.617 257.254 278.164C252.392 276.355 247.602 274.059 242.907 271.389C224.549 260.95 210.751 245.721 202.41 228.461H202.419Z" fill="#2E59A6"/>
<path d="M187.919 338.951C187.932 338.897 187.946 338.843 187.995 338.766C189.049 336.655 189.877 334.404 190.422 332.135C198.223 308.321 196.301 281.477 183.079 258.1C182.706 257.398 182.332 256.696 181.927 256.011C181.522 255.332 181.081 254.67 180.635 254.004C166.32 231.279 143.6 216.856 118.935 212.435C116.679 211.836 114.303 211.499 111.948 211.427L111.75 211.404C91.4655 210.517 70.3345 215.735 51.3823 227.61C46.7726 230.505 42.478 233.62 38.53 236.996L38.4265 237.059C32.0971 241.255 25.3715 246.337 18.2138 252.324C16.1476 253.513 14.0228 255.381 11.907 257.803C11.7224 257.961 11.5378 258.114 11.3217 258.294C-9.28703 276.616 -35.3879 299.381 -60.3588 323.033C-61.9884 324.1 -63.6 325.662 -65.2296 327.656C-91.6456 352.915 -116.243 378.894 -131.008 401.272C-131.058 401.344 -131.085 401.457 -131.152 401.497C-141.124 413.931 -143.676 430.029 -137.333 443.129C-137.284 443.286 -137.185 443.457 -137.081 443.629C-137.023 443.732 -136.973 443.885 -136.892 444.025C-136.64 444.524 -136.37 445.056 -136.082 445.533L-135.897 445.839C-131.071 453.924 -123.261 459.484 -114.154 461.955C-106.299 464.111 -97.4888 463.985 -88.8185 461.302C-63.2039 458.174 -31.3318 449.409 0.468155 439.208C3.05663 438.816 5.33447 438.06 7.2522 437.007C40.8123 426.031 73.8188 413.674 98.8437 404.833C98.9653 404.806 99.1048 404.725 99.2264 404.698C101.594 404.162 103.706 403.365 105.587 402.335C114.784 398.832 122.869 395.249 129.847 391.593C134.992 389.676 140.066 387.249 145.04 384.418C164.483 373.362 179.095 357.232 187.932 338.951H187.919Z" fill="#5D97C4"/>
<path d="M202.023 442.504C202.009 442.45 201.996 442.396 201.946 442.319C200.879 440.19 200.046 437.912 199.497 435.62C191.615 411.559 193.555 384.432 206.916 360.811C207.294 360.1 207.672 359.393 208.082 358.704C208.492 358.016 208.937 357.345 209.387 356.679C223.851 333.716 246.814 319.144 271.736 314.673C274.014 314.07 276.413 313.728 278.795 313.656L278.993 313.634C299.489 312.738 320.84 318.009 339.995 330.011C344.654 332.932 348.989 336.083 352.982 339.496L353.086 339.559C359.483 343.799 366.281 348.936 373.51 354.986C375.599 356.188 377.742 358.074 379.88 360.523C380.065 360.681 380.254 360.838 380.474 361.018C401.299 379.534 427.675 402.533 452.907 426.437C454.554 427.513 456.179 429.093 457.832 431.11C484.522 456.634 509.376 482.888 524.299 505.496C524.349 505.572 524.376 505.68 524.443 505.721C534.518 518.285 537.097 534.554 530.687 547.789C530.637 547.947 530.534 548.118 530.435 548.293C530.372 548.397 530.327 548.555 530.246 548.694C529.994 549.198 529.719 549.734 529.431 550.216L529.246 550.526C524.367 558.692 516.48 564.315 507.274 566.809C499.333 568.988 490.433 568.857 481.673 566.152C455.792 562.992 423.587 554.132 391.454 543.823C388.839 543.427 386.538 542.662 384.602 541.599C350.691 530.512 317.338 518.024 292.052 509.088C291.926 509.061 291.791 508.98 291.665 508.953C289.274 508.413 287.141 507.607 285.236 506.563C275.945 503.024 267.774 499.405 260.725 495.709C255.525 493.773 250.398 491.316 245.374 488.457C225.729 477.284 210.963 460.988 202.032 442.513L202.023 442.504Z" fill="#BBD7EA"/>
</g>
<path d="M332.955 163.713C333.882 164.19 334.021 165.046 334.053 165.973C334.17 169.511 333.423 172.91 332.261 176.21C329.421 184.299 324.428 190.669 316.798 194.752C312.089 197.273 307.799 198.327 303.023 199.105C294.668 200.46 288.784 200.496 277.404 200.749C274.721 200.807 270.863 200.902 266.091 201.032C263.196 201.113 261.211 198.151 262.381 195.5C262.39 195.473 262.404 195.45 262.413 195.423C265.668 188.031 266.717 183.174 269.134 175.444C271.628 167.472 272.92 163.515 274 161.525C279.069 152.193 287.375 147.426 297.126 144.513C304.229 142.389 311.387 142.271 318.297 144.842C323.78 146.881 327.854 150.798 330.028 156.411C331.654 160.611 330.515 164.532 328.547 168.224C321.628 181.193 310.878 189.044 296.342 191.38C290.891 192.258 285.304 192.263 279.817 192.956C276.296 193.402 272.834 194.361 269.359 195.139C269.048 195.207 268.814 195.626 268.549 195.882C268.922 196.035 269.328 196.368 269.665 196.31C272.006 195.905 274.32 195.225 276.674 194.995C280.672 194.599 284.692 194.433 288.707 194.239C296.923 193.843 304.886 192.384 312.076 188.189C318.914 184.196 324.568 179.136 328.579 172.662C328.867 172.199 330.123 168.877 332.405 164.694C332.639 164.267 332.833 163.92 332.95 163.718L332.955 163.713ZM317.86 173.756C317.739 173.671 317.622 173.581 317.5 173.495C317.005 173.86 316.469 174.189 316.015 174.603C315.137 175.399 314.363 176.318 313.444 177.061C308.173 181.315 302.104 184.038 295.73 186.177C295.275 186.33 294.929 186.807 294.528 187.131C295.055 187.311 295.568 187.568 296.108 187.64C296.491 187.694 296.909 187.518 297.31 187.419C303.117 185.987 308.416 183.421 313.188 179.874C314.763 178.704 315.97 177.02 317.253 175.494C317.622 175.053 317.667 174.346 317.86 173.761V173.756ZM289.833 153.773C291.895 153.053 293.911 152.405 295.874 151.613C296.198 151.482 296.558 150.568 296.405 150.325C296.135 149.888 295.478 149.429 295.001 149.447C294.127 149.483 293.196 149.722 292.421 150.122C291.314 150.694 290.301 151.464 289.311 152.225C289.095 152.391 289.004 152.9 289.076 153.202C289.126 153.422 289.536 153.557 289.837 153.773H289.833ZM284.966 171.262C284.678 170.925 284.404 170.304 284.03 170.236C283.571 170.15 282.765 170.376 282.558 170.727C281.721 172.149 280.978 173.648 280.375 175.183C280.217 175.584 280.681 176.232 280.861 176.763C281.352 176.511 282.013 176.385 282.301 175.985C283.134 174.832 283.823 173.576 284.543 172.347C284.705 172.073 284.777 171.749 284.966 171.258V171.262ZM289.013 160.211C289.027 158.955 287.902 158.225 287.141 158.946C285.835 160.184 284.746 161.669 283.683 163.132C283.499 163.384 283.733 164.262 284.03 164.456C284.309 164.64 285.056 164.442 285.376 164.163C286.452 163.222 287.447 162.187 288.437 161.152C288.73 160.845 288.896 160.413 289.018 160.211H289.013ZM275.202 168.854C275.576 169.273 275.81 169.768 276.139 169.84C276.472 169.912 277.102 169.673 277.246 169.39C278.011 167.864 278.745 166.311 279.294 164.703C279.434 164.294 278.979 163.434 278.552 163.168C278.281 162.997 277.264 163.402 277.097 163.781C276.373 165.401 275.837 167.103 275.207 168.859L275.202 168.854ZM273.465 182.215C273.811 182.643 274.081 183.273 274.491 183.39C274.838 183.489 275.589 183.088 275.751 182.728C276.314 181.472 276.791 180.158 277.093 178.821C277.183 178.416 276.679 177.569 276.287 177.452C275.891 177.335 275.018 177.74 274.842 178.136C274.279 179.388 273.942 180.738 273.465 182.215Z" fill="white"/>
<path d="M237.478 208.924C237.451 203.85 241.129 199.646 246.175 198.948C251.091 198.268 255.921 201.482 257.231 206.326C257.808 208.46 257.173 210.414 256.088 212.187C253.653 216.167 249.898 217.981 245.356 217.963C241.129 217.945 237.784 214.42 237.483 210.027C237.455 209.662 237.483 209.293 237.483 208.924H237.478Z" fill="white"/>
<path d="M69.8978 103.593C69.2001 104.696 68.3493 105.659 67.4714 106.371C67.2779 106.105 66.8277 105.574 66.5486 105.34C67.8316 104.403 68.993 102.927 69.6458 101.347L70.9152 101.711C70.7892 102.004 70.6496 102.283 70.4966 102.576H78.8697V103.593H69.8933H69.8978ZM70.4966 111.327C69.8528 112.416 68.7094 113.546 67.647 114.118C67.4669 113.825 67.0888 113.407 66.8232 113.182C67.8406 112.736 68.957 111.827 69.5332 110.962L70.4966 111.327ZM71.9776 110.629V114.145H70.7622V110.629H67.1473V109.612H70.7622V107.352H71.9776V109.612H73.3867L72.5764 109.292C72.9815 108.774 73.4542 107.996 73.7063 107.464L74.8632 107.843C74.377 108.5 73.8458 109.171 73.4272 109.616H75.4349V110.634H71.9731L71.9776 110.629ZM69.002 107.419C69.4342 107.937 69.8663 108.635 70.0329 109.108L69.002 109.54C68.849 109.067 68.4303 108.351 68.0252 107.838L69.002 107.419ZM77.1006 106.037C77.0736 110.125 77.1996 112.862 78.1765 112.862C78.4421 112.862 78.5096 112.065 78.5276 110.881C78.7932 111.174 79.1263 111.494 79.3919 111.692C79.2929 113.479 79.0273 114.15 78.1089 114.15C76.1147 114.15 75.8491 111.358 75.8041 107.059H68.0567V106.042H77.1006V106.037ZM69.5467 105.295V104.318H77.7533V105.295H69.5467ZM73.1211 110.949C73.9989 111.579 75.1468 112.47 75.7185 113.069L74.9082 113.866C74.3635 113.267 73.2471 112.317 72.3693 111.647L73.1211 110.949Z" fill="white"/>
<path d="M93.7343 111.773C93.1491 112.079 92.4513 112.344 91.7941 112.583C92.6584 112.876 93.6488 113.042 94.7247 113.141C94.4996 113.348 94.252 113.74 94.126 114.005C91.542 113.686 89.4757 112.817 88.3188 111.282C87.7336 111.629 87.0088 111.926 86.1985 112.173V112.957L89.0166 112.484C88.9896 112.749 89.0031 113.141 89.0166 113.335C85.6088 113.965 85.1631 114.086 84.8705 114.244C84.7985 114.005 84.6319 113.614 84.4923 113.447C84.7174 113.348 85.0371 113.155 85.0371 112.61V112.484C84.1862 112.695 83.3084 112.862 82.4666 112.957C82.3405 112.718 82.0884 112.371 81.8949 112.173C83.43 112.034 85.1631 111.714 86.4731 111.282H82.1605V110.571H85.6763V110.125H83.2499V109.468H85.6763V109.049H82.9708V108.378H85.6763V107.946H83.9881V106.299H87.9091V107.946H86.9458V108.378H89.6693V107.946H88.6519V106.299H92.6179V107.946H90.9433V108.378H93.8199V109.049H90.9433V109.468H93.4822V110.125H90.9433V110.571H94.5176V111.282H93.0096L93.7343 111.768V111.773ZM83.3894 106.929H82.2595V105.268H87.6615V104.835H83.7946V103.161H87.6615V102.756H82.5521V102.004H87.6615V101.347H88.9445V102.004H94.081V102.756H88.9445V103.161H93.0771V104.835H88.9445V105.268H94.4141V106.929H93.2256V105.911H83.3849V106.929H83.3894ZM87.6615 104.237V103.764H84.983V104.237H87.6615ZM85.01 107.388H86.8512V106.857H85.01V107.388ZM86.9503 109.468H89.6738V109.049H86.9503V109.468ZM86.9503 110.571H89.6738V110.125H86.9503V110.571ZM88.9445 103.76V104.232H91.8346V103.76H88.9445ZM89.4352 111.282C89.7999 111.629 90.232 111.912 90.7497 112.173C91.4475 111.908 92.2443 111.575 92.789 111.282H89.4397H89.4352ZM89.6558 107.388H91.5555V106.857H89.6558V107.388Z" fill="white"/>
<path d="M108.248 112.695C108.765 112.695 108.86 112.376 108.919 110.53C109.211 110.755 109.769 110.976 110.107 111.048C109.967 113.267 109.634 113.879 108.347 113.879H106.353C104.944 113.879 104.565 113.474 104.565 112.151V107.964L102.724 108.063C102.472 111.021 101.747 113.033 98.2585 114.109C98.119 113.758 97.7723 113.258 97.4887 112.992C100.599 112.142 101.158 110.566 101.369 108.149C99.6226 108.248 99.2039 108.302 98.8573 108.414C98.7897 108.149 98.5646 107.478 98.3981 107.104C98.7627 107.019 99.0959 106.672 99.5865 106.1C99.8521 105.835 100.356 105.209 100.928 104.399H97.6778V103.156H101.765C102.143 102.584 102.49 101.972 102.814 101.355L104.282 101.828C104.03 102.274 103.737 102.719 103.458 103.156H109.724V104.399H102.594C101.923 105.335 101.212 106.199 100.527 106.951L106.389 106.699C105.898 106.195 105.371 105.695 104.881 105.276L105.943 104.664C107.145 105.641 108.581 107.064 109.252 108.054L108.081 108.752C107.915 108.473 107.676 108.167 107.41 107.815L105.916 107.901V112.16C105.916 112.619 106.001 112.704 106.546 112.704H108.261L108.248 112.695Z" fill="white"/>
<path d="M115.95 103.593C115.252 104.696 114.402 105.659 113.524 106.371C113.33 106.105 112.88 105.574 112.601 105.34C113.884 104.403 115.045 102.927 115.698 101.347L116.968 101.711C116.842 102.004 116.702 102.283 116.549 102.576H124.922V103.593H115.946H115.95ZM116.549 111.327C115.905 112.416 114.762 113.546 113.704 114.118C113.524 113.825 113.146 113.407 112.88 113.182C113.897 112.736 115.014 111.827 115.59 110.962L116.553 111.327H116.549ZM118.03 110.629V114.145H116.815V110.629H113.2V109.612H116.815V107.352H118.03V109.612H119.439L118.629 109.292C119.034 108.774 119.507 107.996 119.759 107.464L120.916 107.843C120.429 108.5 119.898 109.171 119.48 109.616H121.487V110.634H118.026L118.03 110.629ZM115.054 107.419C115.487 107.937 115.919 108.635 116.085 109.108L115.054 109.54C114.901 109.067 114.483 108.351 114.078 107.838L115.054 107.419ZM123.148 106.037C123.121 110.125 123.247 112.862 124.224 112.862C124.49 112.862 124.557 112.065 124.575 110.881C124.841 111.174 125.174 111.494 125.44 111.692C125.341 113.479 125.075 114.15 124.157 114.15C122.163 114.15 121.897 111.358 121.852 107.059H114.105V106.042H123.148V106.037ZM115.599 105.295V104.318H123.806V105.295H115.599ZM119.173 110.949C120.051 111.579 121.199 112.47 121.771 113.069L120.961 113.866C120.416 113.267 119.299 112.317 118.422 111.647L119.173 110.949Z" fill="white"/>
<path d="M35.9461 126.682C37.1885 128.37 39.1963 129.978 41.096 130.801C40.7899 131.067 40.3847 131.585 40.1461 131.918C38.386 131.04 36.5988 129.46 35.2753 127.731V132.602H33.9068V127.785C32.5788 129.5 30.7916 131.008 29.0494 131.904C28.8244 131.585 28.3922 131.08 28.0996 130.801C29.9993 129.964 31.9936 128.37 33.2225 126.682H28.5047V125.399H33.9068V123.279H29.5086V121.996H33.9068V119.804H35.2753V121.996H39.7815V123.279H35.2753V125.399H40.7629V126.682H35.9461Z" fill="white"/>
<path d="M55.1593 127.83C54.7271 127.358 53.9168 126.66 53.1515 126.016C52.8319 126.574 52.4673 127.065 52.0621 127.452C51.837 127.272 51.3373 126.948 51.0132 126.795C52.2827 128.542 54.3355 130.09 56.4288 130.869C56.0957 131.134 55.677 131.679 55.4519 132.044C53.6377 131.234 51.9046 129.824 50.5946 128.163V132.602H49.2261V128.204C47.8981 129.838 46.1694 131.22 44.4092 132.03C44.2022 131.711 43.797 131.179 43.4864 130.927C45.7327 130.036 47.9791 128.177 49.2216 126.223V122.901H44.0131V121.645H49.2216V119.804H50.5901V121.645H55.9651V122.901H50.5901V126.151C50.7161 126.358 50.8422 126.556 50.9817 126.75C51.9451 125.913 52.5888 124.603 52.8949 123.135L54.1509 123.36C54.0249 123.905 53.8718 124.436 53.6602 124.922C54.511 125.579 55.5329 126.39 56.0731 126.93L55.1503 127.821L55.1593 127.83ZM47.6235 123.378C47.4839 123.936 47.3173 124.454 47.1058 124.954C47.664 125.426 48.2492 125.971 48.5868 126.336L47.709 127.259C47.4569 126.939 47.0247 126.507 46.5655 126.07C46.1064 126.894 45.5347 127.592 44.8774 128.136C44.6703 127.898 44.1526 127.466 43.8735 127.286C45.116 126.363 45.9668 124.886 46.372 123.139L47.628 123.378H47.6235Z" fill="white"/>
<path d="M71.3069 121.964C71.3069 121.964 71.3069 122.41 71.2934 122.576C71.0998 128.87 70.9287 131.035 70.3705 131.733C70.0239 132.192 69.6863 132.318 69.1551 132.39C68.6689 132.444 67.8406 132.431 67.0483 132.39C67.0213 132.043 66.8682 131.499 66.6296 131.134C67.5209 131.202 68.3312 131.22 68.6824 131.22C68.9615 131.22 69.1145 131.179 69.2676 130.981C69.7133 130.522 69.8979 128.411 70.0779 123.153H66.7827C66.391 124.044 65.9589 124.854 65.5132 125.498C65.3061 125.304 64.8154 124.953 64.4958 124.773V131.179H60.7144V132.242H59.5304V122.036H61.0925C61.2861 121.365 61.4977 120.443 61.5787 119.776L62.9877 120.015C62.7492 120.713 62.4835 121.451 62.263 122.041H64.4958V124.679C65.4187 123.477 66.1569 121.622 66.5756 119.781L67.8316 120.073C67.665 120.717 67.4804 121.356 67.2599 121.973H71.3069V121.964ZM60.7144 123.166V125.818H63.3119V123.166H60.7144ZM63.3119 130.036V126.952H60.7144V130.036H63.3119ZM67.9576 128.946C67.566 128.096 66.6611 126.727 65.9184 125.723L66.9357 125.151C67.674 126.115 68.6239 127.438 69.0425 128.262L67.9531 128.946H67.9576Z" fill="white"/>
<path d="M83.9792 120.096C83.8936 120.262 83.7991 120.415 83.7271 120.569C84.857 121.924 86.0724 122.968 87.2744 123.805C86.9818 124.057 86.6036 124.462 86.4371 124.823C86.0904 124.544 85.7528 124.251 85.4197 123.945V124.602H80.927V124.084C80.6074 124.39 80.2832 124.656 79.9636 124.908C79.8106 124.643 79.5585 124.323 79.2929 124.071V128.271H77.5777V129.261H79.518V130.364H77.5777V132.597H76.4208V130.364H74.287V129.261H76.4208V128.271H74.6922V123.247H76.4073V122.311H74.4265V121.208H76.4073V119.799H77.5642V121.208H79.518V122.311H77.5642V123.247H79.2929V123.805C80.7154 122.842 82.1965 121.253 83.0473 119.659L83.9836 120.091L83.9792 120.096ZM75.6465 125.3H76.5378V124.197H75.6465V125.3ZM75.6465 127.339H76.5378V126.209H75.6465V127.339ZM78.298 124.201H77.4472V125.304H78.298V124.201ZM78.298 126.209H77.4472V127.339H78.298V126.209ZM86.4911 131.346C86.4911 131.818 86.4191 132.156 86.158 132.336C85.8789 132.53 85.5412 132.543 85.0416 132.543C85.001 132.237 84.848 131.76 84.7084 131.467C85.001 131.481 85.2396 131.481 85.3207 131.481C85.4197 131.467 85.4602 131.44 85.4602 131.314V129.473H84.5689V132.349H83.6325V129.473H82.7547V132.349H81.8318V129.473H80.9405V132.584H79.9231V125.66H86.4956V131.341L86.4911 131.346ZM81.8273 128.428V126.727H80.936V128.428H81.8273ZM84.983 123.544C84.3708 122.945 83.7406 122.288 83.1148 121.518C82.6106 122.243 82.0524 122.927 81.4672 123.544H84.983ZM83.628 128.428V126.727H82.7502V128.428H83.628ZM85.4557 128.428V126.727H84.5644V128.428H85.4557Z" fill="white"/>
<path d="M91.7356 122.036V125.165C91.7356 127.33 91.569 130.554 90.4931 132.674C90.286 132.435 89.7683 132.048 89.5027 131.922C90.4661 129.955 90.5336 127.177 90.5336 125.165V120.933H95.7826C95.6836 120.641 95.5305 120.348 95.391 120.083L96.6469 119.731C96.854 120.096 97.0926 120.555 97.2457 120.933H102.256V122.036H91.7311H91.7356ZM95.463 129.419C96.1877 129.379 96.944 129.334 97.6958 129.293L97.6823 130.216L95.463 130.369V131.445C95.463 131.963 95.3639 132.197 94.9903 132.354C94.5987 132.494 94.0269 132.494 93.1896 132.494C93.1491 132.215 92.9961 131.864 92.8565 131.584C93.4282 131.611 93.9999 131.611 94.153 131.598C94.3196 131.598 94.3601 131.557 94.3601 131.404V130.427L91.9337 130.581L91.8346 129.59C92.5324 129.563 93.3967 129.518 94.3601 129.478V128.973C94.6932 128.82 95.0578 128.609 95.3774 128.388H92.4198V127.524H96.4939L96.746 127.456L97.4032 128.028C96.8585 128.487 96.1742 128.919 95.463 129.257V129.424V129.419ZM97.5698 124.13H92.1812V123.18H94.315C94.189 122.901 94.0494 122.622 93.9234 122.383L95.1253 122.05C95.3189 122.383 95.5575 122.833 95.6971 123.18H97.5698V124.13ZM92.699 126.948V124.661H97.1241V126.948H92.699ZM93.7028 126.25H96.0887V125.386H93.7028V126.25ZM102.36 123.225C101.954 124.229 101.437 125.417 100.978 126.394C101.954 127.398 102.22 128.294 102.234 129.059C102.234 129.842 102.053 130.387 101.617 130.707C101.392 130.846 101.144 130.932 100.834 130.972C100.554 131.013 100.163 131.013 99.8296 130.999C99.8161 130.68 99.6901 130.175 99.4965 129.869C99.8161 129.896 100.095 129.91 100.32 129.896C100.487 129.896 100.64 129.856 100.752 129.784C100.96 129.644 101.032 129.352 101.032 128.946C101.032 128.303 100.766 127.479 99.7891 126.516C100.167 125.678 100.541 124.661 100.82 123.85H99.1724V132.642H98.056V122.802H101.293L101.486 122.748L102.351 123.22L102.36 123.225Z" fill="white"/>
<path d="M104.854 126.097C105.187 125.161 105.439 123.626 105.538 122.509L106.515 122.649C106.461 123.792 106.209 125.399 105.857 126.43L104.854 126.097ZM108.986 125.093C108.833 124.436 108.455 123.365 108.063 122.523V132.616H106.821V119.817H108.063V122.428L108.901 122.077C109.306 122.914 109.751 124.017 109.904 124.675L108.982 125.093H108.986ZM117.121 131.121C117.121 131.765 116.981 132.138 116.535 132.336C116.103 132.544 115.405 132.544 114.37 132.544C114.33 132.224 114.145 131.666 114.005 131.342C114.703 131.369 115.401 131.369 115.626 131.355C115.82 131.355 115.892 131.283 115.892 131.089V128.87C114.469 129.248 112.988 129.608 111.818 129.888L111.413 128.798C112.569 128.56 114.244 128.199 115.892 127.808V124.85H111.313V127.74C111.313 129.289 111.187 131.355 110.404 132.697C110.179 132.471 109.666 132.098 109.387 131.958C110.057 130.756 110.112 129.082 110.112 127.731V123.725H113.083V119.804H114.325V123.725H117.116V131.121H117.121ZM111.16 123.333C110.98 122.635 110.422 121.532 109.877 120.736L110.94 120.231C111.498 121.015 112.07 122.059 112.281 122.757L111.165 123.329L111.16 123.333ZM112.169 125.638C113.312 125.876 114.78 126.363 115.563 126.768L115.018 127.677C114.267 127.259 112.799 126.714 111.656 126.448L112.173 125.638H112.169ZM117.625 120.628C117.179 121.55 116.634 122.554 116.189 123.239L115.113 122.806C115.545 122.095 116.117 120.979 116.409 120.168L117.625 120.628Z" fill="white"/>
<path d="M120.303 132.129C120.902 131.486 121.613 130.401 122.064 129.451L123.279 129.77C122.82 130.747 122.136 131.891 121.519 132.633L120.303 132.129ZM127.114 121.267C126.291 125.399 124.17 127.871 121.46 129.082C121.28 128.802 120.83 128.298 120.551 128.105C122.199 127.42 123.594 126.304 124.557 124.715C124.085 124.229 123.342 123.626 122.658 123.153C122.127 123.905 121.514 124.589 120.857 125.12C120.745 124.828 120.479 124.269 120.312 124.004C121.595 122.941 122.644 121.172 123.13 119.664L124.359 120.029C124.233 120.348 124.08 120.686 123.927 121.019H126.075L126.327 120.965L127.11 121.271L127.114 121.267ZM123.594 125.597C122.644 125.93 121.739 126.241 120.916 126.507L120.623 125.503C121.375 125.336 122.383 125.057 123.455 124.791L123.594 125.602V125.597ZM123.387 122.05C123.319 122.162 123.247 122.275 123.18 122.383C123.81 122.802 124.535 123.333 125.053 123.779C125.291 123.247 125.498 122.676 125.665 122.045H123.392L123.387 122.05ZM125.66 129.77C125.827 130.594 125.98 131.684 125.993 132.323L124.738 132.489C124.724 131.832 124.611 130.743 124.445 129.892L125.66 129.766V129.77ZM131.927 129.001C131.535 127.911 130.63 126.25 129.721 124.801C129.262 126.349 128.325 127.956 126.372 129.266C126.147 129.001 125.714 128.654 125.395 128.429C127.448 127.047 128.312 125.386 128.663 123.864H126.795V122.635H128.861C128.888 122.284 128.902 121.937 128.902 121.631V119.984H130.131V121.645C130.131 121.951 130.117 122.302 130.104 122.635H132.994V123.864H130.495C131.526 125.386 132.615 127.24 133.12 128.456L131.936 129.001H131.927ZM128.496 129.671C128.861 130.468 129.208 131.54 129.347 132.21L128.078 132.462C127.965 131.792 127.632 130.702 127.281 129.865L128.496 129.671ZM131.274 129.338C131.931 130.176 132.742 131.332 133.102 132.089L131.873 132.647C131.553 131.895 130.783 130.707 130.126 129.829L131.269 129.343L131.274 129.338ZM131.747 122.455C131.481 121.951 130.896 121.159 130.378 120.569L131.314 120.051C131.846 120.596 132.458 121.348 132.724 121.865L131.747 122.451V122.455Z" fill="white"/>
<path d="M147.543 124.561C146.958 126.362 146.134 127.938 145.112 129.279C145.585 130.468 146.13 131.192 146.719 131.192C147.084 131.192 147.251 130.481 147.336 128.68C147.642 128.986 148.106 129.279 148.452 129.405C148.241 131.863 147.768 132.516 146.625 132.516C145.607 132.516 144.797 131.732 144.167 130.423C143.37 131.26 142.492 131.971 141.529 132.556C141.335 132.277 140.872 131.732 140.579 131.494C141.736 130.85 142.771 130.044 143.622 129.049C143.118 127.474 142.798 125.475 142.632 123.301H138.166V124.989H141.668V125.493C141.596 128.523 141.529 129.72 141.236 130.112C140.984 130.404 140.719 130.517 140.345 130.558C139.994 130.612 139.368 130.612 138.697 130.585C138.67 130.206 138.544 129.707 138.346 129.369C138.918 129.423 139.463 129.441 139.688 129.441C139.881 129.441 140.021 129.401 140.12 129.275C140.273 129.081 140.358 128.284 140.399 126.177H138.166C138.153 128.158 137.914 130.949 136.685 132.75C136.46 132.484 135.888 132.025 135.596 131.859C136.712 130.184 136.811 127.785 136.811 125.984V122.036H142.546C142.506 121.311 142.474 120.555 142.474 119.817H143.843C143.829 120.568 143.843 121.311 143.883 122.036H146.575C146.031 121.577 145.126 120.973 144.383 120.568L145.166 119.771C145.99 120.204 147.039 120.847 147.579 121.32L146.908 122.031H148.331V123.301H143.946C144.086 124.962 144.311 126.47 144.631 127.712C145.301 126.682 145.814 125.52 146.22 124.237L147.534 124.557L147.543 124.561Z" fill="white"/>
<path d="M157.186 126.39V132.616H155.916V126.39H153.949C153.895 128.677 153.53 130.941 151.883 132.715C151.689 132.449 151.212 132.017 150.919 131.837C152.355 130.275 152.68 128.348 152.734 126.394H151.032V125.179H152.747V121.843H151.253V120.641H158.415V121.843H157.186V125.179H158.608V126.394H157.186V126.39ZM155.916 125.179V121.843H153.963V125.179H155.916ZM163.902 128.024C162.732 129.978 160.832 131.585 158.739 132.602C158.532 132.269 158.154 131.832 157.816 131.553C159.783 130.729 161.669 129.248 162.673 127.533L163.902 128.024ZM163.272 120.515C162.241 121.825 160.702 123.068 159.293 123.864C159.067 123.572 158.707 123.18 158.356 122.942C159.671 122.271 161.219 121.127 162.043 120.024L163.272 120.511V120.515ZM163.578 124.324C162.516 125.692 160.913 127.016 159.446 127.871C159.234 127.592 158.86 127.2 158.523 126.948C159.891 126.237 161.525 125.021 162.39 123.819L163.578 124.324Z" fill="white"/>
<path d="M70.5551 79.3288C71.1673 79.0047 71.7615 78.622 72.4008 78.3609C77.5912 76.2361 81.3051 72.3871 84.5193 67.98C86.8242 64.8243 88.8905 61.4795 91.3214 58.4229C96.3723 52.071 102.684 47.2812 110.485 44.8728C117.274 42.775 124.211 42.6219 130.905 45.395C135.515 47.3037 139.116 50.4504 141.034 55.2042C142.447 58.702 143.586 62.2448 143.532 66.1163C143.474 70.4514 141.475 73.5531 137.95 75.8219C133.57 78.64 128.726 80.3462 123.662 81.314C120.191 81.9803 116.652 82.48 113.128 82.615C104.336 82.9436 95.544 82.5745 86.7882 81.6967C81.7598 81.1925 76.7494 80.4812 71.7345 79.8555C71.3474 79.806 70.9693 79.6799 70.5866 79.5899C70.5776 79.4998 70.5686 79.4098 70.5641 79.3198L70.5551 79.3288Z" fill="white"/>
<path d="M56.6088 89.1252C55.6274 88.9857 54.6236 88.9317 53.6647 88.6931C49.3341 87.6037 47.4569 83.9393 49.0325 79.7437C50.5586 75.6787 54.7901 73.3918 59.3233 74.1841C63.3389 74.8819 66.5756 78.7803 66.5396 82.9399C66.5215 85.1097 65.3646 86.6583 63.5009 87.5767C61.3581 88.6301 59.0127 88.9947 56.6133 89.1297L56.6088 89.1252Z" fill="white"/>
<path d="M94.7652 339.459C94.108 343.128 92.5459 345.811 90.5922 347.233C90.3671 346.927 89.8674 346.423 89.5433 346.216C91.2314 345.1 92.5459 343.087 93.1851 340.494H90.0024V339.18H93.6578L93.8964 339.126L94.7607 339.459H94.7652ZM101.477 339.067C100.514 340.116 99.2984 341.314 98.3216 342.138C99.438 343.799 100.919 345.181 102.607 345.964C102.301 346.23 101.855 346.761 101.644 347.152C99.564 346.05 97.9164 344.082 96.7325 341.723V346.819C96.7325 347.616 96.5659 348.035 96.0887 348.255C95.616 348.494 94.8733 348.548 93.7838 348.548C93.7118 348.156 93.5047 347.486 93.2977 347.098C94.081 347.139 94.8057 347.139 95.0443 347.125C95.2694 347.125 95.3639 347.058 95.3639 346.819V335.723H96.7325V339.058C96.9981 339.77 97.3177 340.467 97.7093 341.138C98.6007 340.287 99.6361 339.144 100.293 338.221L101.482 339.072L101.477 339.067Z" fill="white"/>
<path d="M53.3451 360.483C52.8859 360.064 51.9091 359.434 51.1528 359.033L51.8911 358.11C52.6158 358.461 53.5927 359.033 54.1104 359.452L53.3406 360.483H53.3451ZM54.394 362.229C53.8628 363.665 53.1651 365.299 52.5528 366.569L51.4364 365.858C52.0081 364.809 52.8184 363.053 53.4036 361.505L54.394 362.229ZM54.1554 356.787C53.6692 356.328 52.6744 355.657 51.9226 355.211L52.6924 354.302C53.4171 354.707 54.439 355.333 54.9522 355.751L54.1554 356.782V356.787ZM63.0463 366.821C62.9742 366.501 62.8797 366.11 62.7537 365.718C59.9896 366.15 59.571 366.249 59.2918 366.402C59.2378 366.164 59.0397 365.606 58.9137 365.286C59.2198 365.2 59.4989 364.827 59.9041 364.224C60.1427 363.89 60.6739 363.04 61.2186 361.991C59.697 362.157 59.3774 362.243 59.1658 362.342C59.1118 362.09 58.9407 361.532 58.8011 361.252C58.9947 361.198 59.1928 360.946 59.4134 360.595C59.607 360.244 60.2372 359.002 60.5838 357.764H56.5908L57.2166 358.016C56.8249 359.078 56.2667 360.181 55.722 361.086L57.077 360.973C57.3831 360.402 57.6622 359.803 57.9008 359.213L58.9902 359.744C58.0989 361.644 56.9375 363.571 55.767 365.092L57.5947 364.84C57.4687 364.381 57.3291 363.904 57.176 363.499L58.1529 363.206C58.5446 364.255 58.8912 365.606 59.0173 366.501L57.9863 366.808C57.9593 366.501 57.8873 366.15 57.8198 365.79C55.1413 366.209 54.7226 366.335 54.4435 366.474C54.3895 366.236 54.2049 365.664 54.0654 365.344C54.358 365.277 54.6776 364.885 55.1143 364.282C55.3664 363.949 55.9246 363.094 56.5233 362.036C55.1008 362.189 54.7946 362.274 54.5831 362.369C54.511 362.117 54.331 361.559 54.2049 361.279C54.412 361.225 54.6236 360.96 54.8352 360.609C55.0287 360.262 55.6725 359.002 56.0506 357.759H54.5156V356.589H57.3201C57.068 356.017 56.6223 355.207 56.2307 354.621L57.3066 354.176C57.7793 354.833 58.2835 355.67 58.5356 356.242L57.7658 356.589H60.2777C60.6424 355.877 61.0475 354.901 61.2681 354.189L62.5781 354.581C62.2585 355.238 61.8668 355.976 61.5157 356.589H63.8881V357.759H61.1105L61.7543 358.025C61.3626 359.056 60.8449 360.159 60.3047 361.054L61.7273 360.942C61.9929 360.397 62.245 359.825 62.4385 359.267L63.555 359.771C62.7177 361.626 61.6688 363.526 60.5658 365.02L62.407 364.768C62.2405 364.309 62.0424 363.832 61.8488 363.427L62.8392 363.076C63.3704 364.138 63.8701 365.52 64.0817 366.425L63.0328 366.817L63.0463 366.821Z" fill="white"/>
<path d="M76.0787 359.326C76.9295 360.217 78.1855 360.987 79.5 361.392C79.2074 361.644 78.8427 362.103 78.6627 362.409C77.9649 362.157 77.2806 361.766 76.6684 361.32V364.377H73.1661C73.8773 364.57 74.7012 364.809 75.525 365.074C76.3353 364.696 77.2401 364.17 77.8298 363.778L78.6671 364.462C78.0549 364.795 77.3392 365.147 76.6594 365.426C77.4292 365.691 78.1269 365.943 78.6401 366.137L78.0954 367.046C76.88 366.542 74.4671 365.691 72.6664 365.16C72.6799 365.439 72.7069 365.804 72.7519 365.997C69.7493 366.709 69.3036 366.835 69.0245 367.015C68.939 366.709 68.6914 366.177 68.4798 365.952C68.7319 365.813 69.038 365.534 69.038 364.935V361.599C68.4933 361.991 67.9351 362.324 67.3499 362.603C67.1698 362.351 66.7196 361.878 66.4585 361.653C67.7685 361.122 69.011 360.298 69.8663 359.321H66.8952V358.412H72.3107V357.786H68.3628V356.976H72.3107V356.391H67.6605V355.499H70.0914C69.8978 355.18 69.6593 354.829 69.4612 354.536L70.6181 354.158C70.9377 354.563 71.3159 355.135 71.5095 355.499H74.5526C74.8182 355.094 75.1108 354.523 75.2774 354.131L76.6864 354.45C76.4343 354.815 76.1687 355.175 75.9166 355.499H78.3295V356.391H73.6253V356.976H77.6183V357.786H73.6253V358.412H79.0948V359.321H76.0787V359.326ZM76.3443 361.086C75.7005 360.568 75.1288 359.97 74.6967 359.326H71.3609C70.9017 359.97 70.3435 360.568 69.7133 361.086H76.3443ZM70.4426 362.382H75.3539V361.838H70.4426V362.382ZM75.3539 363.625V363.04H70.4426V363.625H75.3539ZM73.094 364.377H70.4426V365.48L72.6484 365.007L73.094 364.381V364.377ZM70.9872 359.844H74.9938V360.528H70.9872V359.844Z" fill="white"/>
<path d="M92.978 356.088C92.1812 357.358 91.0243 358.461 89.6558 359.37C91.2179 360.153 93.0186 360.752 94.8913 361.072C94.5987 361.378 94.2205 361.923 94.054 362.274C92.0282 361.855 90.088 361.117 88.4133 360.122C86.5586 361.153 84.4518 361.896 82.4396 362.341C82.3135 362.008 82.0344 361.463 81.7958 361.184C83.5965 360.82 85.5097 360.194 87.2249 359.343C86.4731 358.812 85.8023 358.213 85.1856 357.569C84.5149 358.182 83.8171 358.726 83.1058 359.176C82.8943 358.924 82.4216 358.438 82.1289 358.213C83.8756 357.263 85.5638 355.728 86.5406 354.04L87.7696 354.472C87.5445 354.837 87.2969 355.21 87.0313 355.562H91.8481L92.0732 355.49L92.9826 356.088H92.978ZM84.1997 361.936H92.5054V366.96H91.1234V366.415H85.5142V367H84.2042V361.936H84.1997ZM85.5142 363.106V365.272H91.1234V363.106H85.5142ZM86.0274 356.741C86.6712 357.439 87.477 358.096 88.4133 358.668C89.3632 358.083 90.214 357.425 90.8713 356.687H86.0679L86.0274 356.741Z" fill="white"/>
<path d="M101.644 361.599L101.95 362.742C100.482 363.44 98.9203 364.165 97.7048 364.71L97.1871 363.413C97.6913 363.233 98.3306 362.981 99.0418 362.688V358.668H97.4527V357.44H99.0418V354.342H100.257V357.44H101.666V358.668H100.257V362.184L101.639 361.599H101.644ZM107.996 365.525C108.765 365.525 108.901 365.178 109.013 363.656C109.306 363.85 109.81 364.062 110.157 364.129C109.976 366.056 109.585 366.681 108.077 366.681H104.867C103.152 366.681 102.661 366.249 102.661 364.575V360.541L101.698 360.96L101.207 359.803L102.657 359.191V355.49H103.886V358.673L105.448 358.016V354.176H106.663V357.498L108.536 356.701L109.499 357.021L109.445 357.228C109.333 359.168 109.126 361.721 108.774 363.314L107.712 363.022C107.919 361.82 108.077 359.879 108.144 358.178L106.663 358.822V363.832H105.448V359.339L103.886 360.01V364.588C103.886 365.372 104.039 365.525 104.935 365.525H107.991H107.996Z" fill="white"/>
<path d="M117.719 359.843C117.386 360.388 116.995 360.919 116.589 361.405H118.876V360.136H120.132V361.405H124.08V364.795C124.08 365.407 123.954 365.731 123.509 365.911C123.063 366.105 122.379 366.105 121.388 366.105C121.316 365.772 121.136 365.295 120.97 364.989C121.667 365.016 122.352 365.016 122.532 365.016C122.725 365.002 122.797 364.962 122.797 364.777V362.531H120.132V366.969H118.876V362.531H116.49V366.218H115.207V362.796C114.663 363.255 114.064 363.688 113.42 364.052C113.209 363.773 112.804 363.3 112.556 363.062C114.023 362.279 115.261 361.135 116.171 359.839H112.907V358.695H116.914C117.139 358.304 117.319 357.898 117.472 357.493C116.382 357.799 115.279 358.065 114.222 358.29C114.028 357.984 113.623 357.453 113.344 357.187C114.825 356.98 116.36 356.629 117.809 356.224C116.594 355.805 115.351 355.427 114.235 355.134L115.126 354.351C116.468 354.684 118.03 355.148 119.538 355.634C120.754 355.202 121.843 354.684 122.68 354.126L123.77 354.851C123.031 355.355 122.149 355.801 121.199 356.219C122.356 356.624 123.392 357.03 124.202 357.421L123.211 358.344C122.334 357.898 121.019 357.354 119.583 356.836C119.178 356.989 118.732 357.115 118.314 357.255L118.971 357.435C118.791 357.853 118.593 358.286 118.399 358.691H125.183V359.834H117.728L117.719 359.843Z" fill="white"/>
<path d="M129.221 356.674H128.078V355.571H130.882C130.743 355.206 130.59 354.788 130.437 354.468L131.594 354.148C131.819 354.581 132.053 355.139 132.224 355.571H134.29V356.674H130.41V358.947C130.41 359.366 130.495 359.519 130.842 359.519H132.836C133.156 359.519 133.633 359.492 133.898 359.433C133.912 359.753 133.966 360.244 134.011 360.509C133.772 360.595 133.313 360.608 132.868 360.608H130.842C129.559 360.608 129.221 360.176 129.221 358.92V356.674ZM135.01 365.619H140.525V366.695H128.24V365.619H133.709V364.556H129.046V363.507H133.709V362.504C132.242 362.589 130.752 362.643 129.383 362.643C129.356 362.337 129.217 361.873 129.104 361.594C132.552 361.522 136.667 361.261 139.098 360.811L139.683 361.86C138.373 362.098 136.739 362.279 135.006 362.418V363.507H139.791V364.556H135.006V365.619H135.01ZM140.818 355.332C140.021 358.862 137.86 360.37 134.871 361.095C134.731 360.802 134.479 360.356 134.245 360.118C134.943 359.978 135.614 359.785 136.199 359.505C135.834 359.033 135.276 358.416 134.736 357.871C134.61 357.997 134.457 358.11 134.29 358.236C134.079 357.97 133.678 357.592 133.381 357.426C134.736 356.503 135.668 355.247 136.145 354.175L137.401 354.387C137.288 354.639 137.149 354.86 137.023 355.112H139.8L140.039 355.058L140.822 355.337L140.818 355.332ZM137.077 359.033C137.396 358.808 137.707 358.574 137.982 358.308C137.423 357.849 136.626 357.232 135.875 356.746C135.722 356.926 135.569 357.111 135.402 357.264C135.974 357.822 136.644 358.506 137.077 359.037V359.033ZM136.41 356.116C137.122 356.561 137.973 357.133 138.576 357.624C138.882 357.178 139.147 356.674 139.346 356.116H136.415H136.41Z" fill="white"/>
<path d="M160.729 640.798C160.562 641.955 160.031 642.64 158.482 643.045C158.397 642.793 158.131 642.428 157.938 642.248C159.153 641.982 159.572 641.564 159.711 640.798H158.203V639.862H160.661V638.984H158.707V638.061H160.661V637.211H161.805V638.061H163.772V638.984H161.805V639.862H164.231V640.798H162.61V641.37C162.61 641.663 162.624 641.762 162.817 641.762H163.529C163.682 641.762 164.001 641.735 164.172 641.694C164.186 641.933 164.213 642.239 164.244 642.478C164.091 642.545 163.799 642.545 163.56 642.545H162.637C161.813 642.545 161.647 642.198 161.647 641.375V640.803H160.724L160.729 640.798ZM158.005 649.482C158.649 648.951 159.288 647.974 159.666 647.069L160.909 647.389C160.544 648.339 159.918 649.356 159.234 650L158.005 649.482ZM169.718 645.503C169.804 645.503 169.872 645.489 169.912 645.431C169.953 645.377 169.98 645.237 170.011 644.999C170.038 644.719 170.052 644.134 170.052 643.364C170.277 643.558 170.61 643.743 170.889 643.824C170.875 644.521 170.835 645.399 170.763 645.71C170.695 646.016 170.569 646.228 170.412 646.354C170.245 646.48 169.98 646.534 169.741 646.534H169.169C168.904 646.534 168.598 646.448 168.399 646.254C168.206 646.047 168.134 645.795 168.134 644.832V640.213H167.017C166.977 641.051 166.891 641.834 166.792 642.532C167.297 642.91 167.783 643.243 168.089 643.522L167.517 644.611C167.252 644.386 166.905 644.094 166.5 643.788C166.135 645.03 165.536 646.034 164.573 646.817C164.433 646.61 164.154 646.286 163.916 646.079C161.836 646.304 159.702 646.525 158.167 646.678L158.068 645.588C158.779 645.534 159.675 645.462 160.652 645.381V644.305H158.518V643.355H160.652V642.446H161.795V643.355H163.848V644.305H161.795V645.282C162.579 645.21 163.385 645.143 164.181 645.057L164.195 645.575C164.852 644.89 165.257 644.053 165.505 643.036C165.086 642.73 164.668 642.424 164.303 642.158L164.848 641.208L165.725 641.807C165.797 641.303 165.838 640.776 165.865 640.213H164.497V639.07H165.892C165.906 638.471 165.919 637.841 165.919 637.184H167.089C167.089 637.841 167.076 638.467 167.062 639.07H169.295V644.85C169.295 645.183 169.295 645.381 169.336 645.449C169.363 645.489 169.421 645.503 169.489 645.503H169.696H169.718ZM163.254 647.348C163.421 648.118 163.56 649.109 163.574 649.694L162.277 649.86C162.277 649.244 162.178 648.253 162.025 647.474L163.254 647.348ZM166.059 647.236C166.392 647.988 166.743 648.969 166.842 649.595L165.559 649.833C165.46 649.221 165.167 648.213 164.834 647.447L166.063 647.236H166.059ZM168.908 647.011C169.534 647.781 170.304 648.852 170.637 649.55L169.327 649.995C169.021 649.311 168.296 648.208 167.666 647.411L168.908 647.006V647.011Z" fill="#2E59A6"/>
<path d="M176.566 639.416C175.868 640.519 175.017 641.483 174.139 642.194C173.946 641.928 173.495 641.397 173.216 641.163C174.499 640.227 175.661 638.75 176.313 637.17L177.583 637.535C177.457 637.827 177.317 638.106 177.164 638.399H185.537V639.416H176.561H176.566ZM177.169 647.15C176.525 648.24 175.382 649.37 174.324 649.941C174.144 649.649 173.766 649.23 173.5 649.005C174.517 648.559 175.634 647.65 176.21 646.786L177.173 647.15H177.169ZM178.645 646.452V649.968H177.43V646.452H173.815V645.435H177.43V643.175H178.645V645.435H180.054L179.244 645.115C179.649 644.598 180.122 643.819 180.374 643.288L181.531 643.666C181.045 644.323 180.514 644.994 180.095 645.44H182.103V646.457H178.641L178.645 646.452ZM175.674 643.243C176.106 643.76 176.539 644.458 176.705 644.931L175.674 645.363C175.521 644.89 175.102 644.175 174.697 643.661L175.674 643.243ZM183.768 641.861C183.741 645.948 183.867 648.685 184.844 648.685C185.11 648.685 185.177 647.888 185.195 646.704C185.461 646.997 185.794 647.317 186.06 647.515C185.961 649.302 185.695 649.973 184.777 649.973C182.782 649.973 182.517 647.182 182.472 642.883H174.724V641.865H183.768V641.861ZM176.219 641.122V640.146H184.426V641.122H176.219ZM179.793 646.777C180.671 647.407 181.819 648.298 182.391 648.897L181.58 649.694C181.036 649.095 179.919 648.145 179.041 647.474L179.793 646.777Z" fill="#2E59A6"/>
<path d="M201.239 641.973C200.501 642.95 199.605 644.094 198.88 644.85C199.493 646.133 200.344 647.096 201.604 647.979C201.311 648.217 200.947 648.622 200.807 648.983C199.439 647.952 198.502 646.817 197.85 645.354V648.465C197.85 649.163 197.683 649.527 197.264 649.734C196.832 649.959 196.175 650 195.099 650C195.045 649.667 194.82 649.091 194.653 648.757C195.405 648.784 196.076 648.771 196.287 648.771C196.513 648.757 196.594 648.685 196.594 648.465V645.62C195.518 646.696 194.415 647.74 193.496 648.577L192.7 647.447L192.893 647.294C191.457 647.767 189.949 648.244 188.774 648.604L188.495 647.362C188.981 647.236 189.598 647.056 190.255 646.858V643.229H188.761V642.027H190.255V639.25H188.662V638.048H192.974V639.25H191.453V642.027H192.767V643.229H191.453V646.498L193.046 646.007L193.213 647.038C194.136 646.299 195.405 645.224 196.589 644.206V640.704H193.28V639.502H196.589V637.184H197.845V639.502H201.374V640.704H197.845V641.276C197.998 642.225 198.196 643.036 198.43 643.761C199.029 643.022 199.686 642.113 200.105 641.388L201.235 641.973H201.239ZM194.446 641.469C195.032 642.239 195.662 643.27 195.896 643.954L194.82 644.472C194.613 643.774 194.01 642.712 193.438 641.919L194.442 641.474L194.446 641.469ZM200.028 639.488C199.695 639.043 198.998 638.399 198.408 637.967L199.133 637.296C199.731 637.701 200.461 638.3 200.807 638.719L200.024 639.488H200.028Z" fill="#2E59A6"/>
<path d="M216.635 643.94H213.718V649.968H212.39V643.94H208.442C208.33 646.2 207.672 648.433 204.895 650C204.715 649.707 204.265 649.23 203.972 649.009C206.403 647.668 207.015 645.813 207.141 643.945H204.098V642.703H207.168V639.885C206.331 640.123 205.48 640.33 204.67 640.515C204.598 640.209 204.391 639.731 204.21 639.452C206.389 638.948 208.775 638.169 210.184 637.332L211.134 638.394C210.351 638.8 209.446 639.164 208.469 639.497V642.707H212.39V637.431H213.718V642.707H216.635V643.95V643.94Z" fill="#2E59A6"/>
<path d="M221.056 641.946H219.773V638.709H225.049C224.882 638.291 224.671 637.832 224.477 637.453L225.846 637.075C226.111 637.579 226.444 638.205 226.656 638.709H231.612V641.626H230.271V639.88H227.885V641.888C227.885 642.279 227.97 642.419 228.358 642.419H230.604C230.955 642.419 231.527 642.392 231.806 642.32C231.833 642.671 231.878 643.171 231.932 643.477C231.666 643.544 231.135 643.562 230.635 643.562H228.349C226.967 643.562 226.602 643.13 226.602 641.874V639.88H225.094C224.9 642.279 224.144 643.468 220.475 644.026C220.376 643.706 220.097 643.216 219.863 642.95C223.073 642.558 223.617 641.748 223.77 639.88H221.06V641.946H221.056ZM226.444 648.465H231.72V649.693H219.773V648.465H225.089V645.799H221.141V644.598H230.397V645.799H226.449V648.465H226.444Z" fill="#2E59A6"/>
<path d="M152.9 659.674V660.331C152.9 662.717 152.693 666.179 151.253 668.457C151 668.25 150.429 667.912 150.096 667.786C151.478 665.639 151.604 662.55 151.604 660.331V656.271H162.088V659.678H152.905L152.9 659.674ZM152.9 657.387V658.575H160.787V657.387H152.9ZM162.25 664.981C161.638 665.441 160.882 665.904 160.224 666.237C161.008 666.768 161.94 667.142 163.042 667.367C162.763 667.619 162.43 668.092 162.259 668.443C159.801 667.831 158.154 666.435 157.208 664.338H155.52V666.89L158.226 666.318C158.172 666.651 158.127 667.142 158.14 667.408C154.845 668.159 154.399 668.286 154.12 668.47V668.484C154.035 668.164 153.8 667.646 153.602 667.408C153.881 667.255 154.314 666.89 154.314 666.251V664.338H152.932V663.248H155.219V662.006H153.278V660.903H155.219V659.687H156.407V660.903H158.892V659.687H160.107V660.903H162.3V662.006H160.107V663.248H162.871V664.338H161.309L162.246 664.981H162.25ZM156.416 663.248H158.901V662.006H156.416V663.248ZM158.455 664.338C158.707 664.797 159.027 665.215 159.405 665.58C160.049 665.215 160.774 664.729 161.246 664.338H158.455Z" fill="#2E59A6"/>
<path d="M167.522 660.949V668.444H166.239V656.19H171.416V660.949H167.522ZM167.522 657.149V658.086H170.2V657.149H167.522ZM170.205 659.999V658.981H167.526V659.999H170.205ZM173.901 665.189V668.192H172.744V665.189H171.055C170.943 666.126 170.497 667.548 169.228 668.399C169.048 668.16 168.656 667.814 168.39 667.629C169.421 666.999 169.813 665.955 169.926 665.185H168.332V664.109H169.966V662.781H168.584V661.75H175.355V662.781H173.905V664.109H175.638V665.185H173.905L173.901 665.189ZM172.744 664.113V662.785H171.082V664.113H172.744ZM177.781 666.85C177.781 667.562 177.641 667.94 177.182 668.16C176.737 668.368 176.039 668.413 174.99 668.399C174.949 668.048 174.765 667.463 174.571 667.116C175.283 667.13 175.994 667.13 176.219 667.13C176.426 667.116 176.498 667.044 176.498 666.837V660.976H172.492V656.19H177.781V666.855V666.85ZM173.734 657.149V658.086H176.498V657.149H173.734ZM176.498 660.026V658.977H173.734V660.026H176.498Z" fill="#2E59A6"/>
<path d="M192.646 657.625C192.339 658.31 191.894 658.881 191.349 659.354C192.074 659.732 192.898 660.038 193.776 660.205C193.51 660.444 193.19 660.876 193.037 661.168C192.087 660.916 191.196 660.538 190.426 660.038C189.715 660.471 188.878 660.808 188 661.069C187.86 660.817 187.527 660.372 187.302 660.178C188.126 659.984 188.896 659.705 189.548 659.368C189.197 659.061 188.891 658.755 188.626 658.404C188.401 658.611 188.193 658.823 187.968 659.003C187.842 658.836 187.604 658.557 187.383 658.359C187.284 659.809 187.19 660.412 186.964 660.691C186.771 660.885 186.559 660.97 186.267 660.997C186.028 661.024 185.596 661.024 185.15 660.997C185.137 660.844 185.11 660.651 185.051 660.466H182.998V660.858H182.089V659.269C181.923 659.435 181.756 659.575 181.571 659.714C181.405 659.503 181.067 659.17 180.86 659.044C181.612 658.526 182.116 657.855 182.409 657.243L183.413 657.396C183.372 657.481 183.327 657.576 183.287 657.662H187.419L187.406 657.954C188.157 657.342 188.815 656.505 189.206 655.636L190.309 655.942C190.197 656.194 190.071 656.415 189.931 656.653H193.433V657.616H192.637L192.646 657.625ZM183.044 656.896H181.243V656.113H183.044V655.64H184.074V657.288H183.044V656.896ZM181.297 667.885C181.756 667.439 182.247 666.683 182.553 666.138L183.584 666.656C183.278 667.241 182.814 667.984 182.368 668.484L181.292 667.885H181.297ZM185.416 660.191H185.722C185.848 660.191 185.947 660.178 186.028 660.065C186.141 659.926 186.208 659.494 186.294 658.391H182.859C182.76 658.53 182.652 658.67 182.539 658.809H185.416V660.191ZM193.163 665.233C193.163 665.233 193.15 665.526 193.123 665.679C192.956 667.16 192.79 667.844 192.497 668.123C192.258 668.349 192.024 668.43 191.7 668.457C191.421 668.484 190.89 668.484 190.305 668.443C190.291 668.204 190.206 667.885 190.093 667.619L189.774 667.772C189.634 667.426 189.256 666.908 188.936 666.53L189.801 666.179C190.152 666.53 190.525 667.016 190.71 667.336L190.345 667.502C190.678 667.529 190.957 667.529 191.097 667.529C191.277 667.529 191.376 667.516 191.475 667.417C191.615 667.264 191.741 666.885 191.853 666.035H182.836V661.263H192.245V662.073H188.297V662.672H191.732V663.356H188.297V663.941H191.759V664.626H188.297V665.224H193.168L193.163 665.233ZM184.493 659.368H182.998V659.912H184.493V659.368ZM184.074 662.078V662.676H187.045V662.078H184.074ZM187.05 663.361H184.079V663.946H187.05V663.361ZM184.074 665.233H187.045V664.635H184.074V665.233ZM185.429 666.431C185.623 666.962 185.781 667.673 185.835 668.146L184.732 668.34C184.705 667.88 184.552 667.151 184.385 666.611L185.434 666.431H185.429ZM186.001 657.427H184.97V655.64H186.001V656.113H187.802V656.923H186.001V657.427ZM187.662 666.377C187.955 666.836 188.22 667.466 188.346 667.885L187.329 668.177C187.217 667.759 186.937 667.102 186.685 666.642L187.662 666.377ZM190.426 658.782C190.845 658.449 191.165 658.058 191.417 657.625L189.296 657.639C189.589 658.044 189.981 658.436 190.426 658.782Z" fill="#2E59A6"/>
<path d="M197.85 664.797V666.08H196.747V656.897H200.249V664.797H197.85ZM197.85 658.099V663.6H199.133V658.099H197.85ZM204.895 665.927C204.323 667.017 203.135 667.921 200.888 668.453C200.749 668.201 200.416 667.714 200.163 667.476C201.924 667.156 202.927 666.598 203.486 665.927H200.596V664.937H204.003C204.075 664.698 204.129 664.464 204.143 664.212H201.212V663.222H204.183V662.524H201.253V659.859H204.183V659.301H202.311V657.667H200.722V656.663H202.311V655.632H203.454V656.663H206.052V655.632H207.254V656.663H208.915V657.667H207.254V659.301H205.399V659.859H208.276V662.524H205.399V663.222H208.316V664.212H205.372C205.345 664.464 205.3 664.698 205.246 664.937H208.861V665.927H204.895ZM204.183 661.66V660.723H202.356V661.66H204.183ZM203.459 658.45H206.056V657.667H203.459V658.45ZM205.719 665.959C206.794 666.35 208.289 667.008 209.054 667.48L208.442 668.417C207.717 667.957 206.236 667.246 205.12 666.81L205.719 665.959ZM205.399 660.723V661.66H207.114V660.723H205.399Z" fill="#2E59A6"/>
<path d="M216.883 660.682C216.883 660.682 216.869 661.047 216.869 661.213C216.757 665.737 216.644 667.286 216.298 667.759C216.059 668.092 215.825 668.218 215.46 668.263C215.141 668.303 214.636 668.303 214.119 668.29C214.092 667.957 213.993 667.48 213.799 667.16C214.258 667.201 214.677 667.214 214.889 667.214C215.055 667.214 215.154 667.173 215.267 667.02C215.492 666.728 215.6 665.427 215.685 661.857H214.344C214.29 663.977 213.939 666.363 212.417 668.416C212.192 668.191 211.773 667.871 211.467 667.678C213.002 665.544 213.182 663.045 213.182 661.092V659.066H211.773V657.864H214.312C214.186 657.346 213.894 656.568 213.601 655.978L214.731 655.6C215.037 656.185 215.361 656.955 215.483 657.472L214.393 657.864H217.171V659.066H214.353V660.687H216.878L216.883 660.682ZM219.089 658.589C218.697 659.386 218.251 660.083 217.734 660.642C217.527 660.416 216.995 660.029 216.703 659.845C217.707 658.854 218.449 657.274 218.836 655.631L220.092 655.87C219.953 656.387 219.786 656.919 219.62 657.405H224.212V658.593H219.089V658.589ZM224.27 662.105C223.658 662.703 222.915 663.334 222.262 663.82C222.735 665.269 223.433 666.444 224.428 667.142C224.121 667.381 223.73 667.867 223.536 668.204C221.736 666.822 220.898 664.144 220.439 660.934C220.061 661.02 219.687 661.101 219.323 661.186V666.435L221.249 665.625C221.249 665.976 221.335 666.516 221.402 666.795C218.891 667.925 218.458 668.105 218.206 668.344C218.094 668.078 217.761 667.606 217.549 667.421C217.788 667.209 218.08 666.804 218.08 666.125V660.389C219.84 660.025 221.835 659.453 222.978 658.895L223.995 659.786C223.284 660.106 222.433 660.385 221.551 660.637C221.65 661.348 221.758 662.033 221.929 662.69C222.447 662.231 222.992 661.713 223.338 661.294L224.275 662.105H224.27Z" fill="#2E59A6"/>
<path d="M231.594 664.284C231.387 663.892 230.924 663.235 230.505 662.663V668.412H229.249V662.771C228.731 664.041 228.092 665.243 227.462 666.022C227.336 665.657 227.03 665.13 226.831 664.82C227.655 663.87 228.547 662.209 229.078 660.732H227.097V659.503H229.244V657.617C228.601 657.743 227.961 657.842 227.358 657.923C227.304 657.644 227.12 657.198 226.98 656.919C228.542 656.667 230.329 656.262 231.392 655.803L232.283 656.793C231.752 657 231.14 657.185 230.496 657.338V659.503H232.13V660.732H230.496V661.376C230.901 661.727 232.089 662.938 232.337 663.262L231.585 664.279L231.594 664.284ZM239.702 666.962V668.119H231.842V666.962H235.178V665.355H232.58V664.239H235.178V662.816C234.286 662.902 233.39 662.956 232.567 662.983C232.54 662.717 232.387 662.272 232.261 662.006C234.426 661.866 237.005 661.601 238.486 661.209L239.283 662.173C238.486 662.38 237.496 662.551 236.465 662.677V664.239H239.13V665.355H236.465V666.962H239.702ZM239.018 660.836H232.711V656.284H239.018V660.836ZM237.762 657.387H233.908V659.733H237.762V657.387Z" fill="#2E59A6"/>
<path d="M276.305 230.901C276.098 230.51 275.634 229.852 275.216 229.281V235.029H273.96V229.389C273.442 230.658 272.803 231.86 272.173 232.639C272.047 232.274 271.74 231.747 271.542 231.437C272.366 230.487 273.258 228.826 273.789 227.349H271.808V226.12H273.96V224.221C273.316 224.36 272.677 224.459 272.074 224.54C272.02 224.248 271.848 223.815 271.695 223.536C273.244 223.284 275.004 222.879 276.049 222.42L276.94 223.41C276.436 223.604 275.837 223.788 275.211 223.955V226.12H276.845V227.349H275.211V227.993C275.616 228.344 276.8 229.555 277.052 229.879L276.301 230.897L276.305 230.901ZM284.557 233.751V234.8H276.224V233.751H279.911V232.841H277.007V231.838H279.911V231H277.133V226.476H279.911V225.693H276.616V224.662H279.911V223.879C278.948 223.933 277.998 223.978 277.106 223.991C277.079 223.725 276.94 223.28 276.814 223.028C279.119 222.942 281.896 222.722 283.485 222.397L284.255 223.347C283.391 223.541 282.315 223.68 281.171 223.779V224.657H284.282V225.688H281.171V226.471H284.035V230.996H281.171V231.833H284.075V232.837H281.171V233.746H284.561L284.557 233.751ZM278.272 228.335H279.907V227.399H278.272V228.335ZM279.907 230.077V229.141H278.272V230.077H279.907ZM281.163 227.399V228.335H282.837V227.399H281.163ZM282.837 229.146H281.163V230.082H282.837V229.146Z" fill="white"/>
<path d="M299.723 229.631H294.181V233.44C294.181 234.236 293.988 234.628 293.398 234.822C292.813 235.029 291.89 235.06 290.594 235.06C290.508 234.682 290.26 234.083 290.035 233.719C291.098 233.759 292.142 233.759 292.448 233.746C292.741 233.732 292.826 233.66 292.826 233.412V229.631H287.199V228.335H292.826V226.367C293.857 225.881 295.073 225.125 295.982 224.4H288.586V223.131H297.409L297.702 223.059L298.679 223.81C297.495 224.954 295.775 226.21 294.186 227.047V228.33H299.728V229.627L299.723 229.631Z" fill="white"/>
<path d="M253.671 250.226H248.03V252.207C248.03 252.878 247.89 253.211 247.386 253.396C246.9 253.576 246.157 253.603 245.054 253.603C245 253.238 244.802 252.725 244.622 252.401C245.406 252.428 246.216 252.428 246.436 252.414C246.662 252.414 246.729 252.36 246.729 252.176V250.222H241.088V249.052H246.729V248.034C247.287 247.769 247.886 247.377 248.404 246.985H244.159V246.247C243.614 246.904 242.889 247.462 241.899 247.922C241.759 247.615 241.413 247.152 241.115 246.931C243.434 245.981 244.073 244.239 244.339 242.439H241.768V241.309H250.101C249.975 241.979 249.835 242.731 249.682 243.402H253.171C253.171 243.402 253.157 243.708 253.144 243.875C252.991 246.053 252.851 246.931 252.532 247.296C252.307 247.534 252.086 247.629 251.762 247.674C251.496 247.701 251.037 247.715 250.546 247.701C250.533 247.435 250.461 247.102 250.366 246.837C249.682 247.435 248.858 248.007 248.021 248.471V249.056H253.662V250.226H253.671ZM245.658 242.434C245.491 243.676 245.153 244.847 244.456 245.869H249.718L249.997 245.801L250.808 246.445L250.614 246.625C250.853 246.639 251.033 246.639 251.145 246.639C251.312 246.639 251.411 246.612 251.51 246.499C251.649 246.333 251.775 245.788 251.874 244.473H248.201C248.354 243.915 248.521 243.177 248.66 242.434H245.658Z" fill="white"/>
<path d="M268.841 243.133H265.519C266.55 243.871 267.711 244.848 268.324 245.546L267.221 246.257H267.54V252.078C267.54 252.816 267.333 253.126 266.789 253.293C266.23 253.446 265.339 253.446 264.065 253.446C264.025 253.113 263.871 252.649 263.732 252.33C264.542 252.37 265.573 252.37 265.798 252.357C266.05 252.357 266.131 252.271 266.131 252.064V250.628C264.011 251.087 261.832 251.519 260.158 251.843L259.766 250.673C261.288 250.479 263.759 250.074 266.131 249.683V247.337H259.545V248.62C259.545 250.169 259.307 252.262 257.983 253.658C257.79 253.405 257.245 253 256.934 252.861C258.15 251.632 258.276 249.903 258.276 248.589V246.257H267.167C266.96 245.978 266.649 245.672 266.316 245.334C259.365 245.654 258.595 245.667 258.069 245.852C257.997 245.6 257.83 244.974 257.677 244.636C258.028 244.582 258.388 244.317 258.879 243.938C259.073 243.799 259.424 243.506 259.842 243.128H256.646V241.985H261.031C261.45 241.539 261.895 241.021 262.287 240.535L263.601 241.053C263.322 241.372 263.043 241.683 262.737 241.989H268.85V243.133H268.841ZM265.213 244.362C264.821 244.055 264.443 243.749 264.07 243.47L264.628 243.137H261.558C260.999 243.655 260.441 244.127 259.883 244.546L265.213 244.366V244.362ZM260.342 247.742C261.976 247.949 264.124 248.467 265.253 248.958L264.848 249.867C263.745 249.381 261.612 248.805 259.937 248.553L260.342 247.742Z" fill="white"/>
<path d="M274.099 243.384C273.582 244.015 272.996 244.6 272.425 245.045C272.272 244.807 271.894 244.249 271.655 243.997C272.798 243.173 273.915 241.903 274.559 240.575L275.715 240.953C275.49 241.386 275.243 241.818 274.946 242.236H283.823V243.38H274.095L274.099 243.384ZM284.246 248.759V249.934H271.948V248.759H273.973V246.666H272.38V245.496H273.973V244.087H275.13V245.496H276.373V244.087H277.476V245.496H278.844V244.087H279.947V245.496H281.257V244.087H282.459V245.496H283.954V246.666H282.459V248.759H284.246ZM272.02 253.045C272.506 252.374 273.122 251.285 273.501 250.366L274.743 250.686C274.365 251.636 273.78 252.806 273.276 253.549L272.02 253.045ZM275.135 248.759H276.377V246.666H275.135V248.759ZM277.043 250.7C277.21 251.523 277.363 252.599 277.377 253.238L276.107 253.419C276.094 252.761 275.995 251.672 275.828 250.835L277.043 250.695V250.7ZM277.48 246.666V248.759H278.849V246.666H277.48ZM279.879 250.587C280.244 251.397 280.604 252.473 280.73 253.139L279.447 253.392C279.335 252.721 279.015 251.631 278.664 250.808L279.879 250.582V250.587ZM279.947 246.666V248.759H281.257V246.666H279.947ZM282.684 250.294C283.229 251.105 283.9 252.262 284.219 252.973L282.95 253.531C282.671 252.82 282.027 251.631 281.5 250.754L282.689 250.294H282.684Z" fill="white"/>
<path d="M292.061 241.709C291.669 242.853 291.197 244.221 290.765 245.297C291.687 246.441 291.895 247.418 291.895 248.268C291.895 249.119 291.728 249.664 291.323 249.97C291.116 250.123 290.877 250.209 290.571 250.249C290.319 250.276 289.972 250.276 289.662 250.276C289.662 249.957 289.549 249.466 289.356 249.146C289.648 249.16 289.873 249.173 290.08 249.16C290.233 249.16 290.373 249.119 290.486 249.047C290.679 248.894 290.751 248.543 290.751 248.124C290.751 247.413 290.526 246.49 289.635 245.446C289.968 244.523 290.332 243.353 290.585 242.43H288.869V253.472H287.74V241.273H291.035L291.215 241.219L292.066 241.705L292.061 241.709ZM299.624 248.719C298.953 249.263 298.116 249.821 297.418 250.24C298.062 251.163 298.881 251.888 299.917 252.32C299.637 252.572 299.219 253.09 299.052 253.423C296.918 252.347 295.703 250.227 295.019 247.49H293.889V251.775L296.122 251.258C296.122 251.622 296.135 252.135 296.194 252.428C293.403 253.166 292.925 253.333 292.633 253.531C292.534 253.238 292.255 252.721 292.061 252.482C292.3 252.342 292.633 252.009 292.633 251.406V241.3H298.805V247.485H296.153C296.347 248.129 296.572 248.741 296.864 249.326C297.522 248.867 298.287 248.277 298.764 247.805L299.628 248.71L299.624 248.719ZM293.889 242.434V243.843H297.544V242.434H293.889ZM293.889 246.36H297.544V244.91H293.889V246.36Z" fill="white"/>
<path d="M315.006 242.966H313.345V251.789C313.345 252.626 313.134 253.059 312.548 253.257C311.95 253.495 310.973 253.509 309.577 253.509C309.505 253.131 309.244 252.491 309.032 252.113C310.095 252.167 311.252 252.154 311.585 252.154C311.891 252.14 311.99 252.055 311.99 251.762V242.97H302.609V241.674H315.002V242.97L315.006 242.966ZM305.233 250.042V251.132H303.977V244.794H309.726V250.042H305.233ZM305.233 246.022V248.814H308.443V246.022H305.233Z" fill="white"/>
<path d="M323.686 252.222C323.686 252.807 323.559 253.099 323.168 253.284C322.763 253.451 322.15 253.464 321.282 253.464C321.228 253.171 321.043 252.712 320.876 252.433C321.462 252.46 322.033 252.46 322.218 252.447C322.398 252.447 322.457 252.393 322.457 252.222V250.367C321.619 250.898 320.795 251.429 320.071 251.861L319.706 250.939C319.553 251.888 319.274 252.825 318.716 253.55C318.549 253.297 318.058 252.825 317.806 252.672C318.59 251.596 318.657 250.119 318.657 248.931V245.649H323.681V252.222H323.686ZM322.83 241.724C323.474 242.7 324.239 244.015 324.577 244.839L323.46 245.311C323.375 245.059 323.235 244.74 323.055 244.402C319.4 244.735 318.869 244.821 318.504 244.96C318.432 244.695 318.238 244.096 318.099 243.776C318.324 243.722 318.558 243.511 318.837 243.218C319.103 242.926 319.994 241.823 320.552 240.72L321.88 241.111C321.336 241.976 320.665 242.84 320.026 243.556L322.524 243.376C322.272 242.944 322.02 242.498 321.786 242.12L322.835 241.728L322.83 241.724ZM319.859 248.94C319.859 249.485 319.832 250.083 319.747 250.7C320.471 250.38 321.448 249.876 322.452 249.372V248.854L321.84 249.467C321.394 249.061 320.512 248.418 319.859 247.972L320.53 247.36C321.156 247.751 321.979 248.323 322.457 248.701V246.734H319.859V248.94ZM326.63 246.734C325.207 246.734 324.829 246.248 324.829 244.906V240.733H326.112V242.534H329.713V243.65H326.112V244.933C326.112 245.438 326.211 245.618 326.657 245.618H329.002C329.353 245.618 329.911 245.591 330.204 245.532C330.231 245.865 330.276 246.356 330.33 246.635C330.064 246.72 329.533 246.734 329.034 246.734H326.634H326.63ZM328.822 252.276C329.34 252.276 329.452 252.024 329.506 250.614C329.772 250.826 330.289 251.033 330.65 251.087C330.497 252.915 330.145 253.406 328.935 253.406H326.675C325.207 253.406 324.833 253.027 324.833 251.731V247.18H326.116V248.715H329.844V249.872H326.116V251.713C326.116 252.186 326.229 252.271 326.841 252.271H328.822V252.276Z" fill="white"/>
<path d="M260.549 455.072C259.964 456.873 259.14 458.448 258.118 459.79C258.591 460.978 259.136 461.703 259.725 461.703C260.09 461.703 260.257 460.992 260.342 459.191C260.648 459.497 261.112 459.79 261.459 459.916C261.247 462.374 260.774 463.027 259.631 463.027C258.613 463.027 257.803 462.243 257.173 460.933C256.376 461.771 255.498 462.482 254.535 463.067C254.341 462.788 253.878 462.243 253.585 462.005C254.742 461.361 255.777 460.555 256.628 459.56C256.124 457.985 255.804 455.986 255.638 453.812H251.172V455.5H254.674V456.004C254.602 459.034 254.535 460.231 254.242 460.623C253.99 460.915 253.725 461.028 253.351 461.068C253 461.122 252.374 461.122 251.703 461.095C251.676 460.717 251.55 460.217 251.352 459.88C251.924 459.934 252.469 459.952 252.694 459.952C252.887 459.952 253.027 459.911 253.126 459.785C253.279 459.592 253.365 458.795 253.405 456.688H251.172C251.159 458.669 250.92 461.46 249.691 463.261C249.466 462.995 248.894 462.536 248.602 462.369C249.718 460.695 249.817 458.295 249.817 456.495V452.547H255.552C255.512 451.822 255.48 451.066 255.48 450.327H256.849C256.835 451.079 256.849 451.822 256.889 452.547H259.581C259.037 452.087 258.132 451.484 257.389 451.079L258.172 450.282C258.996 450.714 260.045 451.358 260.585 451.831L259.914 452.542H261.337V453.812H256.952C257.092 455.473 257.317 456.981 257.637 458.223C258.307 457.192 258.821 456.031 259.226 454.748L260.54 455.068L260.549 455.072Z" fill="#2E59A6"/>
<path d="M276.098 458.809C275.274 459.408 274.243 460.038 273.334 460.497C274.311 461.168 275.526 461.627 276.949 461.879C276.67 462.172 276.292 462.703 276.139 463.049C272.983 462.352 270.944 460.691 269.76 458.093H267.653V461.469L271.101 460.718C271.047 461.051 271.002 461.582 271.002 461.847C267.455 462.725 266.69 462.91 266.338 463.076L266.239 463.162C266.154 462.829 265.906 462.172 265.681 461.852C265.974 461.726 266.365 461.406 266.365 460.848V458.098H264.2V456.954H266.599V450.841H275.225V451.917H267.909V452.921H274.82V453.952H267.909V454.928H274.82V455.946H267.909V456.95H276.62V458.093H275.058L276.089 458.804L276.098 458.809ZM271.115 458.098C271.479 458.741 271.911 459.313 272.456 459.813C273.361 459.295 274.383 458.642 275.04 458.098H271.119H271.115Z" fill="#2E59A6"/>
<path d="M292.007 461.406V462.622H279.569V461.406H285.056V459.119H280.811V457.917H285.056V456.297H286.411V457.917H290.796V459.119H286.411V461.406H292.007ZM290.445 456.648C290.238 456.369 289.972 456.049 289.635 455.698C282.306 456.018 281.482 456.031 280.91 456.243C280.838 455.977 280.631 455.32 280.492 454.973C280.771 454.919 281.077 454.694 281.442 454.329C281.761 454.077 282.572 453.227 283.328 452.236H279.907V451.034H291.548V452.236H285.002C284.278 453.2 283.467 454.091 282.698 454.82L288.545 454.627C288.028 454.154 287.483 453.69 286.983 453.299L288.014 452.614C289.257 453.537 290.832 454.901 291.575 455.865L290.445 456.648Z" fill="#2E59A6"/>
<path d="M297.724 452.668H294.92V451.511H297.724V450.322H298.994V451.511H300.709V452.668H298.994V453.964H297.724V452.668ZM305.112 458.686H306.453V463.098H305.112V462.454H295.883V458.7H297.211V461.239H300.421V458.128H296.567V454.513H297.909V456.926H300.421V453.771H301.776V456.926H304.274V454.513H305.67V458.128H301.776V461.239H305.112V458.686ZM307.259 451.497V452.668H304.535V453.964H303.252V452.668H301.425V451.497H303.252V450.322H304.535V451.497H307.259Z" fill="#2E59A6"/>
<path d="M313.386 450.309H314.601V463.108H313.386V458.277H312.031V458.471C312.031 459.673 311.878 461.753 310.941 463.162C310.716 462.936 310.257 462.603 309.964 462.45C310.748 461.235 310.856 459.493 310.856 458.43V458.277H310.072V457.107H313.381V455.32H310.631V450.894H311.806V454.145H313.381V450.305L313.386 450.309ZM319.625 456.031V461.446H322.583V462.675H315.407V461.446H318.31V456.031H315.087V454.775H318.31V450.336H319.625V454.775H322.92V456.031H319.625Z" fill="#2E59A6"/>
<path d="M132.498 269.138C132.192 266.496 131.823 263.844 130.45 261.512C125.102 252.424 117.112 247.458 106.618 246.598C102.873 246.292 99.2444 246.909 95.6205 248.097C92.1137 249.245 89.1336 251.028 86.6442 253.639C83.2454 257.209 80.6704 261.355 78.9778 265.965C77.6858 269.476 77.2581 273.149 78.28 276.854C78.9913 279.42 80.1887 281.599 82.6241 283.013C84.911 284.345 87.3599 284.917 89.9394 284.962C94.1845 285.034 98.1775 282.923 99.0869 277.876C99.2669 276.886 99.483 275.9 99.6406 274.91C100.046 272.33 100.19 269.706 101.176 267.234C102.909 262.881 107.172 259.968 111.196 260.324C116.49 260.797 119.714 264.083 120.731 269.21C121.343 272.308 120.596 275.279 119.313 278.11C119.106 278.565 118.615 278.894 118.255 279.281C118.278 278.763 118.156 278.178 118.354 277.741C119.637 274.896 118.458 272.38 115.784 269.697C115.32 269.228 114.793 268.823 114.226 268.486C111.975 267.158 109.558 266.401 106.902 266.933C104.178 267.477 102.477 269.282 102.071 271.97C101.905 273.091 101.783 274.212 101.585 275.328C101.153 277.755 100.829 280.231 99.4515 282.351C96.6739 286.627 92.5279 287.564 87.8146 286.983C86.8332 286.862 85.8744 286.578 84.7129 286.33C86.077 291.593 86.9098 296.887 87.5715 302.212C88.1387 306.777 93.3607 309.091 97.1016 306.417C99.591 304.639 102.067 302.87 104.543 301.1C104.48 300.974 104.498 301.006 104.435 300.88C101.972 301.659 99.51 302.446 97.0431 303.198C96.6784 303.311 96.2598 303.252 95.8681 303.275C96.0932 302.892 96.2328 302.298 96.5659 302.154C99.9692 300.655 103.462 299.367 107.257 299.642C109.981 299.84 112.574 299.426 115.054 298.431C120.997 296.049 125.381 291.777 128.627 286.407C131.814 281.131 133.232 275.342 132.507 269.134L132.498 269.138ZM82.5476 265.573C83.0158 264.569 83.718 263.664 84.4158 262.791C84.5644 262.606 85.1406 262.597 85.4152 262.728C85.6853 262.858 85.8248 263.268 86.0544 263.601C85.5998 264.641 85.2756 265.681 84.6994 266.559C84.4653 266.919 83.5605 267.185 83.1869 267.009C82.8087 266.829 82.3945 265.911 82.5521 265.573H82.5476ZM86.2795 280.645C85.6358 280.609 84.938 280.465 84.3708 280.163C81.5843 278.691 80.0672 274.964 80.99 271.961C81.1116 271.56 81.3276 271.128 81.6293 270.853C81.8814 270.619 82.3765 270.426 82.6691 270.516C82.9393 270.601 83.0833 271.092 83.1914 271.259C83.1193 271.691 83.0968 271.889 83.0563 272.087C82.4936 274.657 83.2138 276.773 85.2801 278.434C85.7753 278.831 86.2705 279.245 86.6847 279.722C87.1033 280.208 86.9593 280.681 86.2885 280.645H86.2795ZM110.012 288.442C111.854 286.497 113.695 284.557 115.563 282.639C115.802 282.391 116.202 282.306 116.531 282.144C116.558 282.337 116.562 282.495 116.562 282.58C116.571 283.872 115.802 285.286 110.602 289.427C110.22 289.734 109.913 289.972 109.783 290.076C109.643 289.761 109.391 289.459 109.436 289.216C109.49 288.928 109.783 288.671 110.008 288.437L110.012 288.442ZM122.118 291.093C122.018 291.458 121.735 291.8 121.465 292.088C118.728 295.005 115.342 296.738 111.444 297.526C111.313 297.553 111.178 297.571 111.043 297.576C110.841 297.585 110.638 297.576 110.44 297.576C110.44 297.553 110.436 297.531 110.431 297.513C109.868 297.594 109.301 297.751 108.743 297.729C108.293 297.711 107.847 297.468 107.401 297.323C107.78 297.017 108.108 296.572 108.54 296.423C109.837 295.977 111.183 295.671 112.488 295.257C115.225 294.393 117.643 292.984 119.727 290.999C120.114 290.629 120.537 290.278 121.006 290.04C121.249 289.914 121.757 289.941 121.915 290.112C122.113 290.328 122.199 290.792 122.118 291.093ZM124.467 286.051C124.139 286.011 123.869 285.529 123.337 285.025C123.99 284.507 124.436 284.161 124.877 283.809C125.143 284.161 125.638 284.521 125.629 284.867C125.62 285.502 125.242 286.155 124.463 286.056L124.467 286.051Z" fill="white"/>
<path d="M84.4023 310.667C79.7386 310.676 76.0427 314.345 76.0607 318.954C76.0787 323.546 79.8826 327.242 84.5374 327.147C88.922 327.057 92.5819 323.334 92.5999 318.945C92.6224 314.345 88.9626 310.658 84.4023 310.662V310.667Z" fill="white"/>
<path d="M88.3143 243.758C89.3587 243.803 90.4256 243.74 91.4295 243.511C93.1131 243.123 94.7292 242.466 96.3768 241.926C97.3762 241.597 97.5968 240.729 96.8315 240.004C94.8238 238.095 92.5639 236.65 89.4352 236.65C88.2198 236.555 87.0088 237.055 86.0229 238.073C85.1271 238.995 84.6589 240.094 85.0506 241.372C85.4422 242.655 86.9683 243.695 88.3143 243.754V243.758Z" fill="white"/>
<path d="M98.8978 238.73C100.807 240.431 103.093 241.363 105.578 241.795C106.019 241.872 106.51 241.66 106.978 241.579C106.839 241.062 106.798 240.485 106.537 240.044C105.637 238.523 104.628 237.064 103.715 235.547C103.318 234.89 103.111 234.124 102.724 233.463C101.864 232.004 100.541 231.239 99.0329 231.072C97.3402 231.095 96.3273 232.175 96.3723 233.76C96.4354 235.804 97.4167 237.406 98.8978 238.725V238.73Z" fill="white"/>
<path d="M119.155 271.61C119.272 267.185 116.355 263.431 112.371 262.499C109.594 261.846 105.893 262.895 104.318 265.871C109.508 263.48 116.396 266.402 119.155 271.61Z" fill="white"/>
<path d="M195 625.745C198.441 625.745 201.23 622.955 201.23 619.515C201.23 616.074 198.441 613.284 195 613.284C191.559 613.284 188.77 616.074 188.77 619.515C188.77 622.955 191.559 625.745 195 625.745Z" fill="#2E59A6"/>
<path d="M194.928 609.449C194.811 609.449 194.689 609.44 194.572 609.431C194.541 609.431 194.505 609.422 194.482 609.422C194.442 609.422 194.401 609.422 194.365 609.413C191.358 609.148 188.761 606.982 187.604 603.881C187.604 603.863 187.586 603.849 187.581 603.831C187.374 603.264 187.212 602.67 187.104 602.049C187.082 601.976 187.073 601.891 187.055 601.81L185.348 590.637C186.249 591.776 187.095 592.73 187.671 593.257C188.265 593.891 188.941 594.396 189.674 594.792L190.467 603.993C190.732 607.068 192.646 609.395 194.928 609.445V609.449Z" fill="#84B9DE"/>
<path d="M189.675 594.8C188.941 594.404 188.265 593.899 187.671 593.265C187.095 592.738 186.244 591.779 185.348 590.645L183.71 579.895L182.472 571.832C183.633 573.291 184.732 574.52 185.479 575.204C186.271 576.055 187.176 576.721 188.175 577.248L188.283 578.517L189.679 594.8H189.675Z" fill="#5D97C4"/>
<path d="M185.875 541.869C185.537 543.445 185.42 545.142 185.569 546.889L186.334 555.874L187.505 569.51L188.171 577.244C187.172 576.717 186.267 576.046 185.474 575.2C184.723 574.516 183.629 573.287 182.467 571.828L181.504 565.494L180.306 557.67L178.483 545.723C178.465 545.615 178.452 545.507 178.452 545.408C178.411 545.102 178.393 544.796 178.393 544.503C178.393 542.968 178.83 541.536 179.582 540.366L179.604 540.334C179.892 539.938 180.198 539.56 180.527 539.196C183.939 535.27 188.927 532.758 194.5 532.623C191.435 532.839 188.779 534.995 187.163 538.174C186.595 539.295 186.15 540.541 185.866 541.865L185.875 541.869Z" fill="#2E59A6"/>
<path d="M204.724 590.213L203 601.485L202.95 601.814C202.9 602.12 202.842 602.417 202.77 602.705C202.324 604.537 201.41 606.117 200.19 607.288C198.781 608.647 196.958 609.449 195.005 609.449C195.153 609.449 195.293 609.44 195.432 609.426C197.561 609.156 199.29 606.91 199.538 604.002L200.339 594.652C200.965 594.255 201.55 593.769 202.113 593.207C203.063 592.315 203.927 591.284 204.728 590.213H204.724Z" fill="#84B9DE"/>
<path d="M207.582 571.49L206.295 579.926L204.719 590.217C203.918 591.289 203.054 592.32 202.104 593.211C201.541 593.774 200.956 594.26 200.33 594.656L201.708 578.621L201.838 577.135C202.729 576.591 203.571 575.924 204.368 575.123C205.52 574.034 206.587 572.8 207.573 571.495L207.582 571.49Z" fill="#5D97C4"/>
<path d="M211.548 545.389C211.548 545.497 211.53 545.61 211.517 545.727L209.694 557.656L208.496 565.498L207.582 571.49C206.592 572.791 205.529 574.029 204.377 575.118C203.576 575.92 202.734 576.586 201.847 577.131L202.5 569.514L203.661 555.986L204.436 546.893C204.476 546.389 204.503 545.893 204.503 545.398C204.503 544.178 204.373 542.999 204.134 541.878C203.855 540.541 203.409 539.298 202.837 538.178C201.221 535.004 198.565 532.843 195.5 532.627C201.073 532.758 206.061 535.274 209.473 539.199C209.802 539.564 210.108 539.942 210.396 540.338C210.405 540.356 210.414 540.365 210.418 540.37C211.31 541.765 211.764 543.535 211.548 545.389Z" fill="#2E59A6"/>
<path d="M187.581 603.836C185.164 598.825 183.152 591.677 181.463 584.28C182.148 586.202 183.804 588.692 185.348 590.646L187.055 601.819C187.073 601.9 187.077 601.985 187.104 602.057C187.212 602.674 187.374 603.268 187.581 603.84V603.836Z" fill="#AAD5ED"/>
<path d="M182.472 571.829C180.361 569.15 178.038 565.661 177.227 563.095C177.11 562.51 177.011 561.943 176.921 561.389C176.615 559.476 176.426 557.738 176.354 556.163V556.14C176.174 555.078 176.075 553.979 176.048 552.849C175.949 548.208 177.268 543.887 179.586 540.366C178.834 541.537 178.398 542.973 178.398 544.503C178.398 544.8 178.416 545.107 178.456 545.408C178.456 545.507 178.474 545.615 178.488 545.723L180.311 557.671L181.508 565.495L182.472 571.829Z" fill="#5D97C4"/>
<path d="M185.348 590.646C183.804 588.692 182.148 586.202 181.463 584.28C181.355 583.825 181.256 583.375 181.157 582.921C179.6 575.952 178.321 568.88 177.25 563.257C177.241 563.199 177.232 563.149 177.227 563.1C178.033 565.666 180.36 569.15 182.472 571.833L183.71 579.895L185.348 590.646Z" fill="#84B9DE"/>
<path d="M213.957 552.849C213.934 554.037 213.826 555.199 213.619 556.32C213.529 557.954 213.304 559.772 212.953 561.785C212.872 562.239 212.786 562.69 212.696 563.171C212.467 563.878 212.084 564.63 211.593 565.422C210.414 567.385 209.086 569.51 207.587 571.49L208.501 565.499L209.698 557.657L211.521 545.727C211.539 545.61 211.553 545.498 211.553 545.39C211.769 543.535 211.314 541.761 210.423 540.37C212.741 543.89 214.06 548.212 213.961 552.853L213.957 552.849Z" fill="#5D97C4"/>
<path d="M212.696 563.171C212.687 563.194 212.687 563.23 212.678 563.252C211.589 568.655 210.279 575.848 208.663 582.997C208.555 583.483 208.442 583.96 208.334 584.442C208.163 584.879 207.92 585.324 207.627 585.793C206.772 587.229 205.804 588.759 204.724 590.213L206.299 579.922L207.587 571.486C209.086 569.505 210.414 567.381 211.593 565.418C212.088 564.626 212.467 563.874 212.696 563.167V563.171Z" fill="#84B9DE"/>
<path d="M208.334 584.441C206.767 591.194 204.935 597.807 202.77 602.705C202.842 602.417 202.9 602.12 202.95 601.813L203 601.485L204.724 590.213C205.804 588.763 206.767 587.228 207.627 585.792C207.924 585.324 208.163 584.878 208.334 584.441Z" fill="#AAD5ED"/>
<path d="M200.335 594.651L199.533 604.001C199.286 606.909 197.552 609.155 195.428 609.426C195.288 609.444 195.149 609.448 195 609.448H194.928C192.646 609.399 190.732 607.076 190.467 603.997L189.674 594.795C191.835 595.966 194.491 596.195 196.823 595.875C198.124 595.736 199.281 595.313 200.335 594.646V594.651Z" fill="#5D97C4"/>
<path d="M204.499 545.398C204.499 545.893 204.476 546.388 204.431 546.893L203.657 555.986L202.495 569.514L201.843 577.131C201.01 577.635 200.136 578.013 199.205 578.278C198.642 578.436 198.057 578.549 197.449 578.616C195.257 578.922 192.839 578.846 190.606 578.211C189.756 577.972 188.941 577.657 188.175 577.248L187.509 569.514L186.339 555.878L185.573 546.893C185.425 545.146 185.542 543.444 185.88 541.873C186.159 540.545 186.604 539.303 187.176 538.182C188.792 535.008 191.448 532.847 194.514 532.631C194.68 532.622 194.842 532.613 195.009 532.613C195.176 532.613 195.338 532.622 195.504 532.631C198.57 532.847 201.226 535.004 202.842 538.182C203.409 539.303 203.855 540.55 204.138 541.882C204.377 543.003 204.508 544.183 204.508 545.403L204.499 545.398Z" fill="#003893"/>
<path d="M201.843 577.131L201.712 578.616L200.335 594.651C199.281 595.318 198.124 595.741 196.823 595.88C194.491 596.2 191.835 595.97 189.674 594.8L188.279 578.517L188.171 577.248C188.936 577.662 189.756 577.973 190.602 578.211C192.835 578.846 195.252 578.918 197.444 578.616C198.057 578.549 198.642 578.436 199.2 578.279C200.132 578.013 201.005 577.635 201.838 577.131H201.843Z" fill="#2E59A6"/>
<g style="mix-blend-mode:multiply" opacity="0.46">
<path d="M177.227 563.1C177.02 562.465 176.912 561.889 176.921 561.394C177.011 561.947 177.11 562.514 177.227 563.1Z" fill="#003893"/>
</g>
<g style="mix-blend-mode:multiply" opacity="0.46">
<path d="M212.948 561.784C212.93 562.23 212.849 562.689 212.692 563.171C212.782 562.694 212.863 562.239 212.948 561.784Z" fill="#003893"/>
</g>
<g style="mix-blend-mode:multiply" opacity="0.46">
<path d="M181.463 584.279C181.283 583.775 181.175 583.325 181.157 582.92C181.256 583.375 181.355 583.825 181.463 584.279Z" fill="#003893"/>
</g>
<g style="mix-blend-mode:multiply" opacity="0.46">
<path d="M208.663 583.001C208.645 583.456 208.541 583.942 208.334 584.446C208.442 583.969 208.555 583.492 208.663 583.001Z" fill="#003893"/>
</g>
<path d="M285.768 440.09C290.924 440.09 295.104 435.91 295.104 430.754C295.104 425.597 290.924 421.417 285.768 421.417C280.611 421.417 276.431 425.597 276.431 430.754C276.431 435.91 280.611 440.09 285.768 440.09Z" fill="#2E59A6"/>
<path d="M269.274 407.233C267.126 404.707 264.556 401.191 262.237 396.595C260.63 393.403 259.473 390.351 258.632 387.637V387.601C258.159 386.057 257.781 384.44 257.506 382.743C256.322 375.464 257.38 368.194 260.374 361.878C259.397 364.021 259.005 366.587 259.334 369.265C259.397 369.774 259.473 370.296 259.617 370.818C259.64 370.985 259.671 371.169 259.721 371.349L264.412 388.969L267.392 400.205L269.265 407.233H269.274Z" fill="#5D97C4"/>
<path d="M270.926 364.615C270.575 367.415 270.588 370.355 271.043 373.294L273.014 386.367L275.851 405.121L277.106 413.386C275.815 412.824 274.608 412.072 273.532 411.131C272.501 410.348 270.953 408.948 269.274 407.228L267.401 400.201L264.421 388.965L259.73 371.345C259.68 371.165 259.644 370.98 259.626 370.814C259.482 370.296 259.406 369.774 259.343 369.261C259.01 366.582 259.406 364.016 260.383 361.873L260.414 361.81C260.806 361.076 261.234 360.37 261.693 359.685C266.753 352.042 275.099 346.856 284.89 346.581C279.515 347.031 275.04 351.492 272.632 357.745C271.812 359.875 271.223 362.188 270.93 364.606L270.926 364.615Z" fill="#2E59A6"/>
<path d="M300.781 370.791C300.722 371.629 300.61 372.461 300.488 373.299L298.494 386.516L295.689 405.126L294.451 413.283C292.741 414.147 290.9 414.692 288.865 414.876C285.052 415.322 280.726 415.016 277.106 413.391L275.85 405.126L273.014 386.372L271.043 373.299C270.588 370.355 270.574 367.415 270.926 364.619C271.223 362.202 271.808 359.884 272.627 357.759C275.036 351.506 279.51 347.045 284.885 346.595C285.191 346.577 285.48 346.559 285.772 346.559C286.065 346.559 286.339 346.577 286.646 346.595C292.039 347.045 296.495 351.506 298.917 357.759C299.723 359.888 300.313 362.202 300.619 364.637C300.866 366.636 300.934 368.702 300.785 370.796L300.781 370.791Z" fill="#003893"/>
<path d="M311.923 370.778C311.9 370.958 311.851 371.156 311.801 371.35L307.124 388.933L304.126 400.206L302.347 406.904L302.334 406.913C300.893 408.421 299.412 409.821 297.841 411.041C296.752 411.937 295.626 412.689 294.447 413.279L295.685 405.121L298.49 386.511L300.484 373.294C300.605 372.457 300.718 371.624 300.776 370.787C300.925 368.694 300.862 366.627 300.61 364.629C300.304 362.198 299.714 359.879 298.908 357.75C296.486 351.497 292.03 347.036 286.637 346.586C296.441 346.865 304.792 352.046 309.834 359.69C310.293 360.37 310.734 361.081 311.112 361.815C311.135 361.847 311.135 361.86 311.144 361.878C312.314 364.422 312.656 367.573 311.918 370.774L311.923 370.778Z" fill="#2E59A6"/>
<path d="M314.02 382.743C313.732 384.521 313.345 386.236 312.814 387.862C312.436 389.086 311.887 390.729 311.148 392.624C310.437 394.447 309.465 396.937 307.979 399.534C306.876 401.461 305.116 404.108 302.352 406.908L304.13 400.21L307.128 388.937L311.806 371.354C311.855 371.16 311.905 370.962 311.927 370.782C312.67 367.581 312.323 364.426 311.153 361.887C314.146 368.203 315.218 375.473 314.02 382.752V382.743Z" fill="#5D97C4"/>
<path d="M203.072 139.849L200.037 127.704C199.785 126.686 198.457 126.43 197.841 127.276L188.387 140.263C187.77 141.11 188.423 142.294 189.467 142.222L201.955 141.38C202.725 141.326 203.256 140.592 203.072 139.849Z" fill="#003893"/>
<path d="M188.184 248.782L191.219 236.636C191.471 235.619 192.799 235.362 193.415 236.209L202.869 249.196C203.486 250.042 202.833 251.226 201.789 251.154L189.301 250.312C188.531 250.258 188 249.525 188.184 248.782Z" fill="#2E59A6"/>
<path d="M194.104 491.135L186.028 481.573C185.353 480.772 185.916 479.547 186.964 479.538L203.027 479.462C204.075 479.457 204.652 480.677 203.985 481.488L195.999 491.126C195.509 491.72 194.599 491.725 194.104 491.135Z" fill="#5D97C4"/>
<path d="M202.774 352.893L197.35 341.611C196.895 340.666 195.545 340.68 195.113 341.634L188.473 356.26C188.04 357.214 188.918 358.241 189.927 357.962L201.987 354.617C202.729 354.41 203.103 353.586 202.77 352.893H202.774Z" fill="#5D97C4"/>
<path d="M98.146 603.934C98.0514 550.44 141.34 507.003 194.833 506.904C248.327 506.81 291.764 550.094 291.863 603.587C291.958 657.081 248.674 700.522 195.18 700.617C141.686 700.711 98.245 657.423 98.146 603.934Z" stroke="#5D97C4" stroke-width="2" stroke-miterlimit="10"/>
</svg>
