<svg width="778" height="167" viewBox="0 0 778 167" fill="none" xmlns="http://www.w3.org/2000/svg">
<g clip-path="url(#clip0_176_21255)">
<path d="M551.67 41.1102V41.0602V41.0402V22.5902V22.5702V22.5202C548.77 21.4902 545.66 20.9102 542.41 20.9102C539.16 20.9102 536.05 21.5002 533.15 22.5202V22.5702V22.5902V41.0402V41.0602V41.1102C536.05 42.1402 539.16 42.7202 542.41 42.7202C545.66 42.7202 548.77 42.1302 551.67 41.1102Z" fill="#5D97C4"/>
<path d="M570.19 59.6805V59.6305V59.6105V41.1605V41.1405V41.0905C567.29 40.0605 564.18 39.4805 560.93 39.4805C557.68 39.4805 554.57 40.0705 551.67 41.0905V41.1405V41.1605V59.6105V59.6305V59.6805C554.57 60.7105 557.68 61.2905 560.93 61.2905C564.18 61.2905 567.29 60.7005 570.19 59.6805Z" fill="#2E59A6"/>
<path d="M551.67 78.1697V78.1197V78.0997V59.6497V59.6297V59.5797C548.77 58.5497 545.66 57.9697 542.41 57.9697C539.16 57.9697 536.05 58.5597 533.15 59.5797V59.6297V59.6497V78.0997V78.1197V78.1697C536.05 79.1997 539.16 79.7797 542.41 79.7797C545.66 79.7797 548.77 79.1897 551.67 78.1697Z" fill="#5D97C4"/>
<path d="M570.19 96.74V96.69V96.67V78.22V78.2V78.15C567.29 77.12 564.18 76.54 560.93 76.54C557.68 76.54 554.57 77.13 551.67 78.15V78.2V78.22V96.67V96.69V96.74C554.57 97.77 557.68 98.35 560.93 98.35C564.18 98.35 567.29 97.76 570.19 96.74Z" fill="#2E59A6"/>
<path d="M551.67 115.23V115.18V115.16V96.7103V96.6903V96.6403C548.77 95.6103 545.66 95.0303 542.41 95.0303C539.16 95.0303 536.05 95.6203 533.15 96.6403V96.6903V96.7103V115.16V115.18V115.23C536.05 116.26 539.16 116.84 542.41 116.84C545.66 116.84 548.77 116.25 551.67 115.23Z" fill="#5D97C4"/>
<path d="M588.71 41.1102V41.0602V41.0402V22.5902V22.5702V22.5202C585.81 21.4902 582.7 20.9102 579.45 20.9102C576.2 20.9102 573.09 21.5002 570.19 22.5202V22.5702V22.5902V41.0402V41.0602V41.1102C573.09 42.1402 576.2 42.7202 579.45 42.7202C582.7 42.7202 585.81 42.1302 588.71 41.1102Z" fill="#5D97C4"/>
<path d="M588.71 78.1697V78.1197V78.0997V59.6497V59.6297V59.5797C585.81 58.5497 582.7 57.9697 579.45 57.9697C576.2 57.9697 573.09 58.5597 570.19 59.5797V59.6297V59.6497V78.0997V78.1197V78.1697C573.09 79.1997 576.2 79.7797 579.45 79.7797C582.7 79.7797 585.81 79.1897 588.71 78.1697Z" fill="#5D97C4"/>
<path d="M588.71 115.23V115.18V115.16V96.7103V96.6903V96.6403C585.81 95.6103 582.7 95.0303 579.45 95.0303C576.2 95.0303 573.09 95.6203 570.19 96.6403V96.6903V96.7103V115.16V115.18V115.23C573.09 116.26 576.2 116.84 579.45 116.84C582.7 116.84 585.81 116.25 588.71 115.23Z" fill="#5D97C4"/>
<path d="M776.25 32.7904C775.61 31.7504 773.8 29.9704 772.93 29.5304C771 28.5404 767.26 28.1904 765.22 29.0204C764.35 29.3804 763.17 30.1904 762.4 30.7604C755.6 35.8204 747.89 42.2004 741.36 47.6804C731.3 56.1204 722.73 66.1304 713.46 75.3904L776.9 40.2904C777.74 37.8304 777.58 34.9804 776.25 32.7904Z" fill="#5D97C4"/>
<path d="M687.73 97.7103C687.73 97.7103 687.67 97.7303 687.64 97.7403L684.87 97.0203L683.83 95.7003L679.97 98.7303L684.03 103.91L685.31 105.55L689.37 110.73L693.23 107.7L692.26 106.47C692.24 106.34 692.22 106.21 692.18 106.07L692.14 103.43C700.57 96.6803 708.99 89.8803 718.05 83.9603C724.91 79.4803 732.37 75.4403 739.06 71.1003C751.69 62.9103 763.01 52.9803 774.8 43.6603C775.76 42.7403 776.44 41.5603 776.87 40.2803L713.43 75.3803C713.28 75.5303 713.14 75.6803 712.99 75.8303C705.07 83.7003 696.46 90.7703 687.71 97.7103H687.73Z" fill="#2E59A6"/>
<path d="M721.44 29.55L722.42 29.7C722.75 29.75 722.98 30.06 722.93 30.39C722.88 30.72 722.57 30.95 722.24 30.9L721.28 30.75C721.25 31.04 721.24 31.32 721.23 31.61L722.33 31.66C722.66 31.68 722.92 31.96 722.9 32.29C722.88 32.62 722.6 32.88 722.27 32.86L721.26 32.81C721.28 33.15 721.32 33.49 721.36 33.82L722.32 33.75C722.65 33.73 722.94 33.98 722.97 34.31C722.99 34.64 722.74 34.93 722.41 34.96L721.59 35.02C721.67 35.38 721.77 35.74 721.89 36.09L722.58 35.85C722.9 35.74 723.24 35.91 723.35 36.22C723.46 36.54 723.29 36.88 722.98 36.99L722.31 37.22C722.47 37.61 722.65 37.99 722.85 38.36L723.58 38.01C723.88 37.87 724.24 37.99 724.39 38.29C724.53 38.59 724.41 38.95 724.11 39.1L723.48 39.41C723.75 39.82 724.04 40.21 724.36 40.59L725.04 39.92C725.28 39.69 725.66 39.69 725.89 39.92C726.12 40.16 726.12 40.54 725.89 40.77L725.17 41.48C725.43 41.74 725.7 41.99 725.98 42.23L726.6 41.3C726.79 41.02 727.16 40.95 727.44 41.13C727.72 41.32 727.79 41.69 727.61 41.97L726.94 42.97C727.27 43.21 727.62 43.43 727.98 43.64C728.04 43.51 728.1 43.37 728.16 43.23C730.57 37.26 727.74 30.47 721.84 27.96C721.68 28.48 721.56 29 721.46 29.53L721.44 29.55Z" fill="#2E59A6"/>
<path d="M724.43 45.8298C724.43 45.8298 724.37 45.7997 724.34 45.7797C724.06 45.5897 723.99 45.2197 724.17 44.9397L724.89 43.8598C724.5 43.5398 724.14 43.1997 723.79 42.8497L722.95 43.6798C722.77 43.8598 722.5 43.8997 722.28 43.7997C722.21 43.7697 722.15 43.7297 722.09 43.6697C721.86 43.4297 721.86 43.0497 722.09 42.8197L722.96 41.9597C722.5 41.4197 722.09 40.8497 721.71 40.2597L720.34 40.9197C720.17 40.9997 719.99 40.9997 719.83 40.9197C719.7 40.8597 719.59 40.7598 719.53 40.6298C719.39 40.3298 719.51 39.9697 719.81 39.8197L721.09 39.1998C720.86 38.7598 720.65 38.3098 720.46 37.8598L718.93 38.3897C718.78 38.4397 718.62 38.4297 718.49 38.3697C718.34 38.2997 718.22 38.1797 718.16 38.0097C718.05 37.6897 718.22 37.3498 718.53 37.2398L720.03 36.7198C719.86 36.2098 719.72 35.6897 719.61 35.1597L718.08 35.2698C717.98 35.2698 717.88 35.2598 717.79 35.2198C717.59 35.1298 717.45 34.9397 717.43 34.7097C717.41 34.3797 717.66 34.0898 717.99 34.0598L719.4 33.9597C719.34 33.5497 719.31 33.1297 719.29 32.7097L717.84 32.6398C717.76 32.6398 717.69 32.6198 717.63 32.5898C717.41 32.4898 717.26 32.2597 717.27 32.0097C717.29 31.6797 717.57 31.4198 717.9 31.4398L719.27 31.5098C719.27 31.1598 719.3 30.7998 719.33 30.4498L717.99 30.2498C717.94 30.2498 717.88 30.2297 717.84 30.2097C717.6 30.0997 717.45 29.8398 717.49 29.5698C717.54 29.2398 717.85 29.0097 718.18 29.0597L719.5 29.2598C719.61 28.6298 719.76 27.9998 719.96 27.3698C715.13 26.1898 710.07 28.1897 707.35 32.2997C707.81 32.5597 708.24 32.8298 708.66 33.1298L709.3 32.2898C709.5 32.0198 709.88 31.9697 710.15 32.1697C710.37 32.3397 710.44 32.6298 710.35 32.8798C710.33 32.9298 710.3 32.9798 710.27 33.0198L709.63 33.8598C709.91 34.0898 710.18 34.3398 710.45 34.5898L711.18 33.8098C711.41 33.5698 711.79 33.5497 712.03 33.7797C712.22 33.9597 712.27 34.2198 712.18 34.4498C712.15 34.5198 712.11 34.5798 712.06 34.6398L711.29 35.4597C711.58 35.7797 711.85 36.1097 712.11 36.4597L712.94 35.7597C713.2 35.5497 713.58 35.5798 713.79 35.8298C713.94 36.0098 713.97 36.2498 713.89 36.4498C713.85 36.5398 713.8 36.6197 713.72 36.6897L712.81 37.4597C713.12 37.9397 713.4 38.4398 713.65 38.9498L714.77 38.4197C715.07 38.2797 715.43 38.4097 715.57 38.7097C715.64 38.8697 715.64 39.0397 715.58 39.1897C715.52 39.3297 715.42 39.4397 715.28 39.5097L714.14 40.0497C714.33 40.5197 714.49 40.9998 714.64 41.4898L715.66 41.1498C715.98 41.0398 716.32 41.2097 716.43 41.5297C716.48 41.6697 716.47 41.8198 716.42 41.9498C716.36 42.1098 716.23 42.2397 716.05 42.2997L714.94 42.6697C715.09 43.3897 715.19 44.1298 715.23 44.8798H716.13C716.46 44.8798 716.73 45.1597 716.73 45.4998C716.73 45.5798 716.71 45.6498 716.69 45.7198C716.6 45.9398 716.38 46.0997 716.12 46.0997H715.26C715.26 46.6097 715.22 47.1298 715.16 47.6498L716.12 47.8497C716.45 47.9197 716.66 48.2397 716.59 48.5697C716.59 48.6098 716.57 48.6397 716.56 48.6697C716.45 48.9397 716.17 49.0997 715.87 49.0297L714.97 48.8398C714.87 49.3498 714.74 49.8597 714.59 50.3697C719.37 51.4597 724.35 49.4498 727.04 45.3798C726.63 45.1398 726.23 44.8897 725.85 44.6197L725.17 45.6298C725 45.8798 724.69 45.9597 724.42 45.8497L724.43 45.8298Z" fill="#2E59A6"/>
<path d="M711.15 47.3903C711.22 47.0603 711.54 46.8503 711.87 46.9203L713.27 47.2203C713.31 46.8303 713.34 46.4403 713.34 46.0603H712.01C711.68 46.0503 711.41 45.7803 711.41 45.4403C711.41 45.1103 711.69 44.8403 712.02 44.8403H713.31C713.27 44.3203 713.2 43.7903 713.1 43.2803L712.11 43.6103C711.79 43.7203 711.45 43.5503 711.34 43.2303C711.23 42.9103 711.41 42.5703 711.72 42.4603L712.82 42.0903C712.7 41.6703 712.56 41.2603 712.41 40.8603L711.45 41.3103C711.15 41.4503 710.79 41.3203 710.65 41.0203C710.51 40.7203 710.64 40.3603 710.94 40.2203L711.92 39.7603C711.74 39.4003 711.55 39.0503 711.33 38.7103L710.43 39.4603C710.17 39.6703 709.79 39.6403 709.58 39.3903C709.37 39.1303 709.4 38.7503 709.65 38.5403L710.64 37.7103C710.43 37.4303 710.21 37.1503 709.98 36.8903L709.06 37.8703C708.83 38.1103 708.45 38.1303 708.21 37.9003C707.97 37.6703 707.95 37.2903 708.18 37.0503L709.14 36.0203C708.93 35.8203 708.7 35.6203 708.47 35.4303L707.7 36.4403C707.5 36.7103 707.12 36.7603 706.85 36.5603C706.58 36.3603 706.53 35.9803 706.73 35.7103L707.5 34.7003C707.15 34.4603 706.8 34.2303 706.42 34.0303C706.36 34.1703 706.29 34.3103 706.24 34.4603C703.81 40.4903 706.71 47.3503 712.73 49.8003C712.87 49.3503 712.98 48.9003 713.07 48.4503L711.6 48.1403C711.27 48.0703 711.06 47.7503 711.13 47.4203L711.15 47.3903Z" fill="#2E59A6"/>
<path d="M536.86 156.49C536.54 157.28 536.18 158.15 535.87 158.84H537.77V160.05H530.25V158.84H532.28C532.15 158.21 531.8 157.26 531.46 156.54L532.61 156.24C533.01 156.96 533.36 157.91 533.5 158.54L532.45 158.84H534.58C534.94 158.08 535.33 156.98 535.53 156.19L536.86 156.49ZM537.44 156.18H530.64V154.98H533.49C533.35 154.53 533.14 154.02 532.96 153.6L534.17 153.25C534.44 153.8 534.73 154.47 534.89 154.98H537.44V156.18ZM531 161.22H537.15V166.39H535.82V165.83H532.26V166.49H530.99V161.22H531ZM532.27 162.43V164.66H535.83V162.43H532.27ZM543.21 154.6C542.71 155.94 542.07 157.58 541.5 158.88C542.72 160.19 543 161.31 543 162.26C543 163.21 542.8 163.87 542.31 164.22C542.07 164.39 541.75 164.49 541.42 164.54C541.07 164.58 540.64 164.58 540.22 164.57C540.21 164.22 540.09 163.66 539.89 163.3C540.26 163.34 540.61 163.34 540.86 163.34C541.08 163.33 541.28 163.28 541.42 163.2C541.69 163.03 541.78 162.62 541.78 162.13C541.78 161.28 541.43 160.26 540.24 159.03C540.72 157.88 541.25 156.38 541.59 155.27H539.6V166.51H538.42V154.06H542.08L542.28 154L543.22 154.59L543.21 154.6Z" fill="#717071"/>
<path d="M548.01 161.56C547.48 161.16 546.38 160.49 545.59 160.03L546.37 159.14C547.13 159.53 548.26 160.15 548.83 160.54L548.01 161.56ZM545.86 165.49C546.64 164.68 547.8 163.33 548.71 162.06L549.52 163.04C548.7 164.18 547.72 165.49 546.83 166.53L545.86 165.49ZM548.89 155.45H545.91V154.25H548.89V153.34H550.2V154.25H551.84V155.45H550.2V156.53H548.89V155.45ZM547.29 156.36C548.04 156.78 549.16 157.41 549.74 157.76L548.95 158.77C548.4 158.41 547.28 157.73 546.53 157.26L547.29 156.37V156.36ZM557.89 157.62C557.29 158.59 556.41 159.42 555.37 160.13C556.49 160.62 557.78 161.02 559.01 161.24C558.74 161.5 558.39 162 558.22 162.35C556.84 162.03 555.44 161.52 554.19 160.84C553.14 161.42 551.97 161.89 550.82 162.22H557.42V166.56H556.11V165.97H551.89V166.56H550.62V162.28C550.36 162.37 550.1 162.42 549.84 162.5C549.7 162.17 549.41 161.68 549.16 161.41C550.44 161.16 551.8 160.72 553.03 160.14C552.48 159.78 551.99 159.38 551.56 158.96C551.11 159.42 550.61 159.87 550.06 160.28C549.83 160.01 549.41 159.65 549.11 159.47C550.56 158.49 551.67 157.18 552.31 156.13L553.62 156.39C553.45 156.65 553.27 156.89 553.1 157.15H556.82L557.05 157.09L557.89 157.62ZM551.88 163.27V164.91H556.1V163.27H551.88ZM552.32 158.17C552.8 158.66 553.44 159.12 554.18 159.52C554.86 159.13 555.46 158.65 555.94 158.17H552.32ZM554.13 155.42H552.56V154.25H554.13V153.34H555.43V154.25H558.48V155.42H555.43V156.54H554.13V155.42Z" fill="#717071"/>
<path d="M574.13 164.18V165.52H561.24V164.18H566.87V156.29H562V154.91H573.38V156.29H568.37V164.18H574.13Z" fill="#717071"/>
<path d="M588.58 160.82C588.67 160.82 588.75 160.81 588.8 160.76C588.86 160.73 588.9 160.64 588.92 160.49C588.95 160.33 588.96 159.93 588.98 159.45C589.18 159.61 589.48 159.77 589.76 159.84C589.73 160.36 589.69 160.95 589.62 161.17C589.55 161.37 589.42 161.53 589.25 161.62C589.11 161.72 588.86 161.76 588.65 161.76H588.06C587.79 161.76 587.5 161.67 587.31 161.49C587.12 161.3 587.05 161.07 587.05 160.28V157.8H586.06C586.03 158.22 585.97 158.68 585.84 159.12C586.3 159.39 586.69 159.68 586.96 159.93L586.31 160.77C586.11 160.55 585.81 160.32 585.46 160.09C585.09 160.78 584.51 161.46 583.57 162.03C583.45 161.9 583.27 161.73 583.09 161.55C580.89 161.72 578.62 161.88 577.01 161.95L576.94 161.14C577.66 161.11 578.54 161.05 579.53 161.01V160.4H577.56V159.68H579.53V158.96H580.57C580.51 158.8 580.5 158.61 580.5 158.36V158.16H579.42C579.19 158.95 578.61 159.41 577.24 159.67C577.15 159.47 576.94 159.17 576.76 159.02C577.81 158.86 578.3 158.62 578.5 158.16H577V157.43H579.52V156.93H577.68V156.21H579.52V155.79H580.64V156.21H582.47V156.93H580.64V157.43H583.15V158.16H581.34V158.39C581.34 158.64 581.35 158.72 581.56 158.72H582.25C582.41 158.72 582.71 158.71 582.87 158.65C582.9 158.87 582.91 159.1 582.94 159.31C582.78 159.37 582.49 159.37 582.26 159.37H581.34C580.99 159.37 580.78 159.3 580.65 159.14V159.69H582.68V160.41H580.65V160.97L583.13 160.83V161.09C583.81 160.59 584.25 160.05 584.53 159.49C584.11 159.26 583.67 159.03 583.25 158.84L583.84 158.11C584.17 158.24 584.53 158.41 584.88 158.59C584.95 158.32 585 158.06 585.01 157.8H583.48V156.82H585.02V155.9H586.06V156.82H588.12V160.31C588.12 160.57 588.12 160.71 588.16 160.76C588.19 160.82 588.25 160.83 588.32 160.83H588.59L588.58 160.82ZM576.75 163.59H589.53V164.4H586.19C587.24 164.88 588.38 165.6 589.03 166.13L588.11 166.75C587.87 166.53 587.56 166.3 587.19 166.04C579.38 166.39 578.53 166.4 577.96 166.56C577.89 166.37 577.7 165.88 577.57 165.64C577.86 165.6 578.17 165.48 578.55 165.31C578.84 165.18 579.5 164.85 580.21 164.4H576.77V163.59H576.75ZM580.11 155.19H576.88V154.23H580.11V153.34H581.41V154.23H582.97V155.19H581.41V155.75H580.11V155.19ZM587.83 162.18V162.99H578.54V162.18H587.83ZM585.91 165.26C585.58 165.07 585.22 164.9 584.9 164.76L585.52 164.4H581.99C581.4 164.79 580.78 165.15 580.18 165.47L585.91 165.27V165.26ZM584.85 155.19H583.42V154.23H584.85V153.34H586.16V154.23H589.47V155.19H586.16V155.75H584.85V155.19Z" fill="#717071"/>
<path d="M707.35 161.11C707.18 160.66 706.82 159.93 706.47 159.28V166.57H705.29V160.61C704.92 161.89 704.44 163.1 703.94 163.91C703.81 163.53 703.52 163 703.31 162.69C704.07 161.54 704.79 159.43 705.12 157.63H703.67V156.39H705.3V153.36H706.48V156.39H707.89V157.63H706.48V157.72C706.77 158.08 707.83 159.75 708.08 160.14L707.36 161.12L707.35 161.11ZM714.48 159.32C715.04 160.28 715.91 161.19 716.77 161.7C716.5 161.9 716.11 162.32 715.92 162.61C714.9 161.89 713.93 160.61 713.34 159.33H711.16C710.84 159.93 710.45 160.51 710.02 161.03H711.49V159.79H712.79V161.03H714.24V162.1H712.79V163.25H715.45V164.37H712.79V166.57H711.49V164.37H708.49V163.25H711.49V162.1H709.76V161.34C709.28 161.86 708.75 162.33 708.12 162.75C707.99 162.43 707.67 161.91 707.46 161.66C708.4 161.04 709.13 160.25 709.72 159.34H707.99V158.26H710.35C710.48 157.97 710.61 157.67 710.72 157.37H708.72V156.35H711.08C711.15 156.08 711.24 155.8 711.31 155.52H708.3V154.47H711.54C711.61 154.11 711.67 153.73 711.73 153.38L713.03 153.58C712.97 153.88 712.91 154.17 712.86 154.47H715.96V155.52H712.62C712.55 155.81 712.48 156.08 712.39 156.35H715.56V157.37H712.06C711.94 157.67 711.83 157.96 711.71 158.26H716.29V159.34H714.48V159.32Z" fill="#717071"/>
<path d="M731.89 158.3C731.13 159.31 730.2 160.49 729.46 161.27C730.09 162.6 730.97 163.59 732.27 164.5C731.97 164.75 731.59 165.16 731.45 165.54C730.04 164.47 729.07 163.31 728.4 161.79V165C728.4 165.72 728.23 166.1 727.8 166.31C727.35 166.54 726.68 166.58 725.57 166.58C725.51 166.23 725.28 165.64 725.11 165.3C725.89 165.33 726.58 165.31 726.8 165.31C727.03 165.3 727.12 165.22 727.12 164.99V162.05C726.01 163.16 724.87 164.24 723.92 165.1L723.1 163.93L723.3 163.77C721.82 164.26 720.26 164.75 719.05 165.12L718.76 163.84C719.26 163.71 719.9 163.52 720.57 163.32V159.57H719.03V158.33H720.57V155.46H718.93V154.22H723.38V155.46H721.81V158.33H723.16V159.57H721.81V162.94L723.45 162.44L723.62 163.51C724.57 162.75 725.88 161.64 727.11 160.59V156.97H723.7V155.73H727.11V153.34H728.41V155.73H732.05V156.97H728.41V157.56C728.57 158.54 728.77 159.38 729.01 160.12C729.63 159.36 730.31 158.42 730.74 157.67L731.91 158.28L731.89 158.3ZM724.87 157.78C725.47 158.57 726.12 159.64 726.37 160.34L725.26 160.87C725.04 160.15 724.42 159.06 723.83 158.23L724.87 157.77V157.78ZM730.63 155.74C730.28 155.28 729.56 154.62 728.96 154.17L729.71 153.48C730.33 153.9 731.08 154.52 731.44 154.95L730.63 155.74Z" fill="#717071"/>
<path d="M736.88 158.16C736.88 160.51 736.68 163.98 735.38 166.27C735.14 166.05 734.54 165.71 734.23 165.59C735.45 163.44 735.56 160.35 735.56 158.16V154.07H747.29V155.29H736.89V158.16H736.88ZM740.28 162.94C739.56 164.01 738.57 165.22 737.77 165.99C737.51 165.77 736.98 165.43 736.65 165.26C737.49 164.54 738.39 163.47 739 162.52L740.28 162.94ZM742.73 161.93V165.17C742.73 165.82 742.61 166.16 742.14 166.35C741.67 166.54 740.94 166.55 739.88 166.55C739.82 166.19 739.65 165.7 739.49 165.37C740.24 165.38 740.96 165.38 741.16 165.38C741.38 165.37 741.43 165.31 741.43 165.13V161.92H738.02V156.58H740.71C740.91 156.16 741.08 155.73 741.2 155.38L742.78 155.6C742.58 155.93 742.39 156.26 742.19 156.58H746.21V161.92H742.72L742.73 161.93ZM739.33 158.78H744.85V157.63H739.33V158.78ZM739.33 160.89H744.85V159.74H739.33V160.89ZM744.78 162.52C745.6 163.41 746.74 164.64 747.32 165.39L746.18 166.07C745.66 165.31 744.54 164.03 743.73 163.1L744.78 162.52Z" fill="#717071"/>
<path d="M754.31 159.53C753.85 162.76 752.71 164.99 750.52 166.4C750.4 166.17 750.04 165.71 749.81 165.49C751.24 164.67 752.16 163.4 752.71 161.72C750.81 162.02 750.45 162.09 750.2 162.22C750.14 161.99 749.96 161.44 749.83 161.14C750.13 161.08 750.42 160.74 750.78 160.23C751 159.96 751.44 159.25 751.95 158.37C750.75 158.5 750.45 158.59 750.26 158.67C750.19 158.42 750 157.84 749.86 157.53C750.09 157.49 750.29 157.2 750.51 156.81C750.74 156.42 751.48 154.94 751.84 153.53L753.09 153.83C752.64 155.08 752.02 156.35 751.42 157.36L752.54 157.27C752.74 156.84 752.96 156.39 753.14 155.96L754.23 156.41C753.48 157.95 752.53 159.56 751.57 160.82L753 160.65C753.09 160.25 753.16 159.83 753.22 159.4L754.31 159.53ZM757.38 161.74C757.93 162.95 758.5 164.52 758.71 165.49L757.57 165.92C757.51 165.62 757.44 165.24 757.31 164.84C754.83 165.68 754.43 165.83 754.18 166.01C754.11 165.75 753.91 165.29 753.73 165.07C754 164.95 754.38 164.68 754.38 164.11V154.81H755.85C755.66 154.45 755.43 154.07 755.23 153.76L756.27 153.37C756.62 153.8 756.95 154.36 757.15 154.81H758.24V161.26H755.55V164.28L756.99 163.83C756.79 163.24 756.56 162.63 756.33 162.1L757.38 161.74ZM755.55 155.94V157.52H757.16V155.94H755.55ZM757.16 160.12V158.61H755.55V160.12H757.16ZM763.04 154.56C762.61 155.91 762.06 157.6 761.59 158.88C762.6 160.21 762.84 161.33 762.84 162.31C762.85 163.22 762.65 163.91 762.25 164.24C762.02 164.4 761.75 164.5 761.43 164.54C761.16 164.57 760.8 164.57 760.44 164.55C760.44 164.22 760.35 163.69 760.17 163.35C760.47 163.38 760.75 163.38 760.96 163.38C761.13 163.37 761.29 163.32 761.41 163.22C761.64 163.06 761.71 162.64 761.71 162.14C761.71 161.29 761.45 160.25 760.46 159C760.86 157.86 761.28 156.36 761.58 155.24H760V166.53H758.88V154.06H762.01L762.21 154L763.06 154.55L763.04 154.56Z" fill="#717071"/>
<path d="M227.48 161.38H224.01V166.57H222.68V161.38H219.17V160.34L218.55 161.08C218.36 160.68 218.02 160 217.67 159.41V166.57H216.36V160.58C215.94 161.85 215.41 163.03 214.88 163.81C214.74 163.44 214.43 162.83 214.2 162.48C215.09 161.36 215.93 159.21 216.36 157.38V157.31H214.47V156.07H216.36V153.36H217.67V156.07H219.31V157.31H217.67V157.77C218.04 158.22 219.14 159.71 219.38 160.09H219.37L222.68 160.1V156.83H221.18C220.86 157.64 220.47 158.34 220.04 158.9C219.77 158.73 219.15 158.41 218.8 158.28C219.81 157.14 220.47 155.27 220.82 153.34L222.15 153.56C222.02 154.24 221.85 154.9 221.66 155.53H227.09V156.83H224.01V160.1H227.48V161.38Z" fill="#717071"/>
<path d="M242.24 154.92V166.49H240.8V165.48H232.07V166.57H230.63V155.32C232.24 154.82 234.02 154.02 235.14 153.35L236.16 154.56C234.99 155.15 233.5 155.71 232.07 156.16V159.37H235.66V160.72H232.07V164.09H240.8V160.72H236.94V159.37H240.8V156.27H236.85V154.92H242.24Z" fill="#717071"/>
<path d="M42.15 163.72C41.66 163.37 40.82 162.94 40 162.55C40.27 164.13 40.85 165.26 42 165.34C42.2 165.37 42.3 164.82 42.39 163.94C42.62 164.23 42.94 164.54 43.18 164.7C42.99 166.18 42.55 166.72 41.7 166.56C39.25 166.26 38.72 163.69 38.55 160.61H36.63V166.4H35.33V160.61H33.23C33.13 162.63 32.67 164.8 30.77 166.5C30.54 166.21 30.08 165.79 29.75 165.59C31.44 164.12 31.85 162.32 31.95 160.61H30.01V159.39H31.98V157.66C31.53 157.76 31.06 157.86 30.63 157.95C30.56 157.66 30.34 157.24 30.17 156.97C31.62 156.67 33.22 156.19 34.23 155.66L35.24 156.68C34.65 156.92 33.96 157.14 33.25 157.34V159.39H35.34V155.67H36.64V159.39H39.75C39.76 160.07 39.79 160.74 39.85 161.38L40.12 161.5C40.62 161.08 41.2 160.52 41.53 160.15L42.68 160.73C42.16 161.13 41.6 161.56 41.11 161.91C41.79 162.21 42.42 162.53 42.85 162.8L42.14 163.72H42.15ZM42.05 157.59C41.56 157.27 40.74 156.87 39.9 156.52C40.23 157.73 40.85 158.62 41.95 158.71C42.14 158.74 42.24 158.33 42.31 157.63C42.55 157.89 42.86 158.19 43.1 158.35C42.91 159.56 42.45 160.01 41.67 159.88C39.44 159.61 38.73 157.62 38.43 155.26H30.8V154.05H39.53C39.56 154.48 39.59 154.93 39.66 155.33L40.01 155.46C40.49 155 41.06 154.41 41.39 153.98L42.51 154.56C42.01 154.99 41.46 155.47 40.97 155.83C41.65 156.12 42.3 156.41 42.74 156.68L42.05 157.6V157.59Z" fill="#717071"/>
<path d="M45.2999 165.91C46.0899 165.32 46.8599 164.25 47.2899 163.19L48.5699 163.55C48.1199 164.69 47.3699 165.88 46.5199 166.6L45.2999 165.91ZM47.1299 157.94C46.8899 158.14 46.6299 158.34 46.3499 158.53C46.1299 158.2 45.6999 157.72 45.3799 157.51C47.2799 156.3 48.6499 154.63 49.3999 153.28L50.8799 153.58C50.7499 153.8 50.6099 154.03 50.4599 154.24H53.4099L53.6099 154.17L54.5499 154.75C54.2599 155.34 53.7999 156.02 53.3499 156.59H56.9499V162.7H47.1099V157.95L47.1299 157.94ZM48.4299 159.11H51.2799V157.73H48.4299V159.11ZM48.4299 161.57H51.2799V160.16H48.4299V161.57ZM49.6999 155.3C49.3699 155.73 48.9899 156.16 48.6099 156.58H51.7399C52.0699 156.21 52.4199 155.75 52.6899 155.3H49.7099H49.6999ZM50.9599 163.5C51.1599 164.38 51.3199 165.55 51.3299 166.24L49.9599 166.4C49.9599 165.69 49.8399 164.51 49.6699 163.61L50.9499 163.51L50.9599 163.5ZM53.7099 163.37C54.1299 164.22 54.5699 165.34 54.7499 166.06L53.4499 166.38C53.3099 165.67 52.8899 164.51 52.4799 163.64L53.6999 163.37H53.7099ZM55.6199 157.72H52.5799V159.1H55.6199V157.72ZM55.6199 160.16H52.5799V161.57H55.6199V160.16ZM56.4799 163.04C57.2699 163.92 58.2399 165.13 58.6599 165.98L57.3499 166.57C56.9799 165.76 56.0699 164.48 55.2599 163.56L56.4799 163.04Z" fill="#717071"/>
<path d="M65.7499 163.56L65.8799 164.68C64.2199 165.14 62.4899 165.59 61.1599 165.95L60.9299 164.71L61.3599 164.62V159.65H62.3499V164.39L63.0699 164.22V158.33H61.4299V153.94H65.4799V158.33H64.1299V160.36H65.6599V161.48H64.1299V163.96L65.7599 163.56H65.7499ZM62.4699 157.23H64.3999V155.03H62.4699V157.23ZM73.9499 166.06H67.9099V166.58H66.7099V162.37C66.4699 162.69 66.2299 162.99 65.9899 163.26C65.8699 162.96 65.6199 162.38 65.4299 162.09C66.2499 161.15 67.0599 159.68 67.4799 158.55L67.6099 158.61C67.5499 158.35 67.4499 158.09 67.3499 157.89C67.8499 157.9 68.3299 157.9 68.4699 157.9C68.6299 157.89 68.6699 157.86 68.6699 157.71V154.66H65.9499V153.69H69.7199V157.71C69.7199 158.21 69.6299 158.44 69.2899 158.62C69.0199 158.74 68.6299 158.76 68.0899 158.78L68.6799 159C68.5599 159.25 68.4399 159.5 68.3099 159.76H69.9499C69.8299 159.44 69.7099 159.13 69.5799 158.85L70.6999 158.55C70.8999 158.93 71.0899 159.39 71.2499 159.76H73.8299V160.78H71.2899V161.59H73.4399V162.5H71.2899V163.29H73.4399V164.2H71.2899V165.04H73.9399V166.06H73.9499ZM65.9799 157.38C66.5799 157.11 67.4199 156.67 68.2999 156.24L68.5399 156.98C67.8599 157.41 67.1599 157.83 66.5199 158.2L65.9699 157.38H65.9799ZM66.6299 154.81C67.1299 155.01 67.8399 155.36 68.2299 155.59L67.7099 156.3C67.3599 156.05 66.6599 155.68 66.1299 155.43L66.6299 154.81ZM70.0799 160.79H67.9199V161.6H70.0799V160.79ZM70.0799 162.51H67.9199V163.3H70.0799V162.51ZM67.9099 165.04H70.0699V164.2H67.9099V165.04ZM72.5399 156.98C71.8799 157.37 71.1899 157.79 70.5499 158.15L70.0199 157.33C70.6199 157.07 71.4499 156.65 72.2999 156.21L72.5399 156.99V156.98ZM72.6199 154.67H70.0699V153.69H73.6699V157.87C73.6699 158.37 73.5699 158.61 73.2199 158.76C72.8699 158.91 72.3599 158.92 71.5899 158.92C71.5599 158.65 71.4199 158.3 71.2999 158.06C71.7999 158.07 72.2699 158.07 72.4199 158.06C72.5599 158.06 72.6099 158.02 72.6099 157.87V154.67H72.6199ZM71.7499 156.36C71.3999 156.12 70.7399 155.73 70.2099 155.48L70.7299 154.86C71.2199 155.06 71.8999 155.42 72.2599 155.65L71.7599 156.36H71.7499Z" fill="#717071"/>
<path d="M80.63 164.57C81.42 164.84 82.42 164.92 83.64 164.92C84.52 164.93 88.62 164.93 89.68 164.89C89.48 165.19 89.25 165.8 89.16 166.22H83.66C80.79 166.22 79.09 165.8 78.01 164.02C77.84 165.06 77.59 165.98 77.23 166.73C76.99 166.56 76.41 166.27 76.11 166.12C76.89 164.68 77.03 162.36 77.08 159.85L78.33 159.95C78.32 160.61 78.29 161.25 78.24 161.87C78.53 162.76 78.9 163.41 79.39 163.87V158.84H76.45V157.66H79.09V156.06H76.83V154.88H79.09V153.38H80.37V154.88H82.59V156.06H80.37V157.66H82.96V158.84H80.63V160.73H82.82V161.9H80.63V164.58V164.57ZM85.36 163.88C83.93 163.88 83.49 163.5 83.49 161.95V154.2H88.81V159.34H84.79V161.95C84.79 162.57 84.91 162.67 85.52 162.67H87.65C88.18 162.67 88.27 162.38 88.34 161.03C88.64 161.25 89.15 161.45 89.52 161.53C89.38 163.32 88.99 163.88 87.75 163.88H85.36ZM84.78 155.38V158.15H87.5V155.38H84.78Z" fill="#717071"/>
<path d="M376.33 164.25V165.6H363.94V164.25H376.33ZM375.57 154.72V156.09H364.77V154.72H375.57ZM374.45 159.34V160.71H365.71V159.34H374.45Z" fill="#717071"/>
<path d="M390.98 155.02C390.14 158.26 388.66 160.75 386.73 162.63C388.24 163.77 390.1 164.6 392.33 165.08C392.03 165.37 391.64 165.96 391.45 166.32C389.12 165.76 387.2 164.84 385.63 163.58C383.92 164.96 381.91 165.94 379.75 166.58C379.59 166.23 379.2 165.6 378.9 165.34C381.02 164.78 382.96 163.9 384.62 162.66C382.89 160.92 381.67 158.68 380.79 156.01L380.89 155.98H379.84V154.65H389.87L390.06 154.59L390.98 155.02ZM382.16 155.97C382.92 158.27 384.08 160.22 385.69 161.76C387.27 160.28 388.51 158.39 389.28 155.97H382.16ZM386.18 159.54C385.75 158.92 384.83 157.98 384.03 157.34L384.95 156.56C385.73 157.18 386.71 158.06 387.15 158.68L386.17 159.54H386.18Z" fill="#717071"/>
<path d="M394.46 165.91C395.25 165.32 396.02 164.25 396.45 163.19L397.73 163.55C397.28 164.69 396.53 165.88 395.68 166.6L394.46 165.91ZM396.29 157.94C396.05 158.14 395.79 158.34 395.51 158.53C395.29 158.2 394.86 157.72 394.54 157.51C396.44 156.3 397.81 154.63 398.56 153.28L400.04 153.58C399.91 153.8 399.77 154.03 399.62 154.24H402.57L402.77 154.17L403.71 154.75C403.42 155.34 402.96 156.02 402.51 156.59H406.11V162.7H396.27V157.95L396.29 157.94ZM397.59 159.11H400.44V157.73H397.59V159.11ZM397.59 161.57H400.44V160.16H397.59V161.57ZM398.86 155.31C398.53 155.74 398.15 156.17 397.77 156.59H400.9C401.23 156.22 401.58 155.76 401.85 155.31H398.87H398.86ZM400.12 163.5C400.32 164.38 400.48 165.55 400.49 166.24L399.12 166.4C399.12 165.69 399 164.51 398.83 163.61L400.11 163.51L400.12 163.5ZM402.87 163.37C403.29 164.22 403.73 165.34 403.91 166.06L402.61 166.38C402.47 165.67 402.05 164.51 401.64 163.64L402.86 163.37H402.87ZM404.78 157.73H401.74V159.11H404.78V157.73ZM404.78 160.16H401.74V161.57H404.78V160.16ZM405.64 163.04C406.43 163.92 407.4 165.13 407.82 165.98L406.51 166.57C406.14 165.76 405.23 164.48 404.42 163.56L405.64 163.04Z" fill="#717071"/>
<path d="M414.77 165.04C413.23 165.4 411.6 165.8 410.33 166.09L410.03 164.89C410.56 164.79 411.23 164.66 411.96 164.52V160.59H410.12V159.45H411.96V158.08H410.87V157.36C410.67 157.58 410.48 157.75 410.28 157.94C410.22 157.67 409.98 156.96 409.8 156.64C410.75 155.83 411.67 154.59 412.22 153.33L413.27 153.69C413.2 153.85 413.13 154.01 413.04 154.15C413.8 154.83 414.7 155.63 415.16 156.15L414.45 157.04L414.42 157.01V158.08H413.01V159.45H414.8V160.59H413.01V164.31C413.54 164.21 414.1 164.09 414.67 163.98L414.77 165.05V165.04ZM411.05 161.3C411.27 162.09 411.5 163.16 411.6 163.84L410.74 164.07C410.67 163.36 410.45 162.3 410.25 161.48L411.06 161.31L411.05 161.3ZM414.38 156.96C413.95 156.46 413.21 155.75 412.54 155.12C412.15 155.78 411.69 156.4 411.23 156.96H414.38ZM413.23 163.65C413.4 162.96 413.63 161.86 413.73 161.13L414.62 161.38C414.4 162.21 414.16 163.22 413.94 163.87L413.22 163.65H413.23ZM417.62 163.63C417.1 164.61 416.28 165.62 415.56 166.27C415.32 166.07 414.85 165.72 414.55 165.56C415.3 164.98 416.03 164.13 416.45 163.28L417.62 163.63ZM417.49 155.05H415.03V153.97H423.1V155.05H420.54V155.86H422.84V159.27H415.34V155.86H417.5V155.05H417.49ZM419.65 162.84V166.57H418.45V162.84H415.04V161.77H423.14V162.84H419.65ZM415.94 160.95V159.9H422.21V160.95H415.94ZM416.43 158.27H417.5V156.84H416.43V158.27ZM419.54 155.05H418.49V155.86H419.54V155.05ZM418.49 158.27H419.54V156.84H418.49V158.27ZM421.4 163.23C422.12 163.94 422.88 164.89 423.27 165.53L422.23 166.15C421.88 165.49 421.11 164.48 420.42 163.77L421.4 163.22V163.23ZM420.53 156.85V158.28H421.67V156.85H420.53Z" fill="#717071"/>
<path d="M219.99 87.9004C225.97 88.8104 234.71 89.1404 244.52 86.3103C253.79 73.2203 250.5 49.6504 250.5 49.6504C250.5 45.9004 240.77 42.8604 228.77 42.8604C216.77 42.8604 207.04 45.9004 207.04 49.6504C207.04 49.6504 203.74 73.3404 213.09 86.4104C215 86.9604 217.33 87.5004 219.99 87.9104V87.9004Z" fill="#5D97C4"/>
<path d="M244.41 88.7803C238.67 90.3803 233.3 90.9303 228.62 90.9303C225.24 90.9303 222.22 90.6403 219.68 90.2503C217.15 89.8603 214.92 89.3603 213.05 88.8403C211.23 90.7703 206.71 96.9303 206.46 110.74C206.46 110.74 209.68 119.99 228.76 120.32C247.84 119.99 251.06 110.74 251.06 110.74C250.81 96.7703 246.18 90.6303 244.41 88.7803Z" fill="#5D97C4"/>
<path d="M237.28 52.1102L241.16 38.9102L245.1 36.4302L254.13 5.67017C254.62 4.02017 253.67 2.28017 252.02 1.80017L246.32 0.12017C244.67 -0.36983 242.93 0.58017 242.45 2.23017L233.42 32.9902L235.39 37.2002L230.44 52.5902C230.44 52.5902 233.86 52.8102 237.28 52.1002V52.1102Z" fill="#2E59A6"/>
<path d="M393.21 2.30008V1.58008L393.16 1.94008L393.11 1.58008V2.30008C392 7.04008 391.44 11.9001 391.44 16.7701V71.6601H394.87V16.7601C394.87 11.8901 394.31 7.04008 393.2 2.29008L393.21 2.30008Z" fill="#5D97C4"/>
<path d="M380.32 46.7803V16.7603C380.32 11.8903 379.76 7.03031 378.65 2.29031V1.57031L378.6 1.93031L378.55 1.57031V2.29031C377.44 7.03031 376.88 11.8903 376.88 16.7603V47.0003L386.4 60.1603V71.6503H389.58V59.3003L380.31 46.7803H380.32Z" fill="#5D97C4"/>
<path d="M406 46.7803V16.7603C406 11.8903 406.56 7.03031 407.67 2.29031V1.57031L407.72 1.93031L407.77 1.57031V2.29031C408.88 7.03031 409.44 11.8903 409.44 16.7603V47.0003L399.92 60.1603V71.6503H396.74V59.3003L406.01 46.7803H406Z" fill="#5D97C4"/>
<path d="M401.08 71.6504H385.25V95.8704H401.08V71.6504Z" fill="#2E59A6"/>
<path d="M398.22 93.3896H388.11V118.75H398.22V93.3896Z" fill="#2E59A6"/>
<path d="M50.36 49.6201C50.36 49.6201 72.58 60.9101 80.32 82.9901C80.32 82.9901 79.14 57.0901 50.36 49.6201Z" fill="#5D97C4"/>
<path d="M75.6899 83.8601C75.6899 83.8601 74.8399 65.2401 54.1599 59.8701C54.1599 59.8701 70.1299 67.9901 75.6899 83.8601Z" fill="#5D97C4"/>
<path d="M114.53 90.7995C112.99 84.2695 99.59 80.4695 93.99 78.1995C96.39 65.2495 93.99 49.6195 83.51 40.6295C81.76 40.2595 82.37 41.3295 82.03 42.4595C80.2 48.6395 79.62 55.3595 77.67 61.5295C68.09 49.7395 55.86 38.8195 40.05 37.2695C39.96 40.6195 42.9 44.1195 44.21 47.3295C48.65 58.2195 50.84 68.7095 59.69 77.4095C55.21 77.4495 48.5 81.4695 44.08 82.6895C19.91 78.1795 7.09998 81.3295 0.599976 84.7695C7.37998 86.1095 17.52 89.8695 18.96 100.48L46.49 86.3895C46.49 86.3895 48.2 86.4295 50.95 86.5795C47.06 87.4095 38.18 94.5095 39.64 95.7995C46.73 96.5395 52.83 94.0495 58.86 90.7795C59.03 89.2095 57.15 90.0795 56.34 90.3495C52.56 91.6095 48.87 93.7595 44.65 93.2895C46.86 89.7495 50.19 87.7795 53.97 86.7795C54.73 86.8295 55.55 86.8995 56.39 86.9695C53.57 87.5095 50.3 88.9595 47.5 92.4395C47.5 92.4395 52.89 88.1195 60.1 87.3095C66.98 88.0195 75.18 89.2595 81.44 91.4195L77.71 88.1095C73.1 84.3995 70.56 82.8995 65.99 79.0595C53.36 68.4395 50.24 56.7395 44.65 41.8695C43.92 39.5995 56.48 46.0695 57.44 46.6395C71.62 54.9795 81.92 69.5195 88.99 84.0995C90.7 82.3195 98.35 84.8895 100.26 86.5395C98.8 86.9995 97.73 88.2895 97.73 89.8195C97.73 90.8595 98.23 91.7895 99 92.4295C99 92.4395 99 92.4495 99 92.4595L99.02 92.4395C99.66 92.9595 100.49 93.2895 101.4 93.2895C101.57 93.2895 101.72 93.2595 101.88 93.2395L102.33 94.1295C97.56 94.1795 92.39 92.0095 94.8 86.6095C93.39 86.8995 93.06 88.2995 93.06 89.5395C93.06 97.4395 116.59 99.5395 114.53 90.7895V90.7995ZM16.02 86.7095C25.77 79.8995 37.26 84.5195 37.26 84.5195C25.94 82.5095 16.02 86.7095 16.02 86.7095ZM19.03 93.1895C27.31 84.6495 39.47 86.9895 39.47 86.9895C27.98 87.1795 19.03 93.1895 19.03 93.1895ZM98.78 89.9195C98.78 88.5295 99.9 87.4095 101.29 87.4095C102.53 87.4095 103.56 88.3195 103.76 89.5095C103.39 88.7895 102.65 88.2695 101.78 88.2695C100.54 88.2695 99.53 89.2795 99.53 90.5195C99.53 91.2295 99.88 91.8295 100.39 92.2495C99.45 91.8895 98.79 90.9795 98.79 89.9195H98.78Z" fill="#5D97C4"/>
<path d="M34.51 70.7605C34.62 71.3305 33.86 71.0805 33.51 71.0605C26.63 70.6705 17.15 66.8905 12.88 61.3105C8.96997 56.1805 7.44997 47.4305 13.35 43.1505C17.45 40.1805 24.24 42.2505 23.89 47.8005C23.73 50.3305 20.57 52.9905 20.2 55.8805C19.21 63.5005 28.12 69.1205 34.51 70.7605Z" fill="#2E59A6"/>
<path d="M29.8999 46.0603C31.4199 45.7703 33.7499 46.7203 34.6399 47.9703C36.7799 51.0003 34.3199 53.9803 33.8099 57.1703C32.8999 62.8703 35.3299 66.5403 38.6399 70.8103C31.3499 68.1303 24.3499 57.5503 26.3399 49.8303C26.7599 48.2103 28.1499 46.3903 29.8999 46.0603Z" fill="#2E59A6"/>
</g>
<defs>
<clipPath id="clip0_176_21255">
<rect width="776.82" height="166.74" fill="white" transform="translate(0.589966)"/>
</clipPath>
</defs>
</svg>
