<svg width="330" height="287" viewBox="0 0 330 287" fill="none" xmlns="http://www.w3.org/2000/svg">
<g clip-path="url(#clip0_176_21024)">
<path d="M91.0722 284.856C92.1099 284.856 92.2845 284.521 92.4078 282.954C92.6955 283.129 93.1732 283.32 93.5071 283.402C93.3016 285.381 92.901 285.989 91.1184 285.989H86.485C84.4456 285.989 83.8395 285.556 83.8395 283.83V276.193H82.1186V277.487C82.1186 280.728 81.8155 283.815 79.7299 286.417C79.5245 286.159 79.1084 285.809 78.8207 285.587C80.7624 283.207 81.0039 280.285 81.0039 277.487V276.193H79.1546V275.091H81.0039V271.813H82.1186V275.091H85.0004V283.83C85.0004 284.66 85.2059 284.85 86.5004 284.85H91.0722V284.856ZM92.49 282.743H86.6288V272.999H92.49V282.743ZM91.3239 274.132H87.7384V277.281H91.3239V274.132ZM91.3239 278.399H87.7384V281.609H91.3239V278.399Z" fill="#717071"/>
<path d="M109.051 272.905V286.148H107.808V285.174H99.9077V286.215H98.7108V272.905H109.046H109.051ZM99.9077 274.07V278.383H107.808V274.07H99.9077ZM107.808 284.005V279.547H99.9077V284.005H107.808Z" fill="#717071"/>
<path d="M95.4386 239.432C111.485 239.432 124.493 226.383 124.493 210.287C124.493 194.19 111.485 181.142 95.4386 181.142C79.3923 181.142 66.3842 194.19 66.3842 210.287C66.3842 226.383 79.3923 239.432 95.4386 239.432Z" fill="#2E59A6"/>
<path d="M69.6704 233.332L61.5485 241.479L63.9277 243.866L72.0496 235.719L69.6704 233.332Z" fill="#5D97C4"/>
<path d="M119.833 233.924L117.454 236.311L125.442 244.323L127.821 241.936L119.833 233.924Z" fill="#5D97C4"/>
<path d="M97.216 165.755H93.8718V177.004H97.216V165.755Z" fill="#5D97C4"/>
<path d="M61.2114 208.777H49.9975V212.132H61.2114V208.777Z" fill="#5D97C4"/>
<path d="M140.104 209.767H128.89V213.121H140.104V209.767Z" fill="#5D97C4"/>
<path d="M96.2297 244.895H92.8855V256.143H96.2297V244.895Z" fill="#5D97C4"/>
<path d="M85.2413 166.557L82.011 167.425L84.9633 178.485L88.1936 177.617L85.2413 166.557Z" fill="#5D97C4"/>
<path d="M61.8146 217.615L50.7881 220.554L51.6495 223.806L62.676 220.867L61.8146 217.615Z" fill="#5D97C4"/>
<path d="M84.265 242.981L81.3745 254.025L84.6289 254.882L87.5194 243.838L84.265 242.981Z" fill="#5D97C4"/>
<path d="M105.489 166.693L102.576 177.769L105.819 178.627L108.732 167.551L105.489 166.693Z" fill="#5D97C4"/>
<path d="M51.9627 197.102L51.1131 200.399L62.1344 203.257L62.984 199.959L51.9627 197.102Z" fill="#5D97C4"/>
<path d="M127.948 218.339L127.077 221.578L138.151 224.576L139.022 221.337L127.948 218.339Z" fill="#5D97C4"/>
<path d="M104.935 243.214L101.703 244.078L104.642 255.142L107.874 254.278L104.935 243.214Z" fill="#5D97C4"/>
<path d="M138.261 197.871L127.23 200.83L128.094 204.071L139.125 201.112L138.261 197.871Z" fill="#5D97C4"/>
<path d="M124.876 226.638L123.197 229.551L133.155 235.325L134.834 232.412L124.876 226.638Z" fill="#5D97C4"/>
<path d="M133.506 187.101L123.56 192.739L125.225 195.696L135.172 190.058L133.506 187.101Z" fill="#5D97C4"/>
<path d="M64.743 225.985L54.8391 231.656L56.5021 234.579L66.406 228.907L64.743 225.985Z" fill="#5D97C4"/>
<path d="M116.499 170.917L110.829 180.89L113.765 182.57L119.435 172.597L116.499 170.917Z" fill="#5D97C4"/>
<path d="M56.9457 186.368L55.2746 189.285L65.1626 194.984L66.8337 192.067L56.9457 186.368Z" fill="#5D97C4"/>
<path d="M112.963 239.542L110.062 241.212L115.761 251.169L118.661 249.498L112.963 239.542Z" fill="#5D97C4"/>
<path d="M74.2883 170.563L71.3175 172.255L76.9367 182.186L79.9076 180.494L74.2883 170.563Z" fill="#5D97C4"/>
<path d="M76.3495 239.075L70.7027 249.002L73.6161 250.67L79.2629 240.743L76.3495 239.075Z" fill="#5D97C4"/>
<path d="M64.5512 177.476L62.2701 179.765L70.2576 187.777L72.5387 185.489L64.5512 177.476Z" fill="#5D97C4"/>
<path d="M126.037 177.968L118.05 185.98L120.335 188.272L128.322 180.26L126.037 177.968Z" fill="#5D97C4"/>
<path d="M249.654 272.679C249.638 278.62 249.669 285.139 250.594 285.139C250.784 285.139 250.881 284.082 250.912 282.696C251.118 283 251.405 283.351 251.626 283.526C251.513 285.571 251.277 286.386 250.465 286.386C248.539 286.386 248.57 280.743 248.508 273.781H239.924V277.806C239.924 280.377 239.652 284.02 237.854 286.417C237.664 286.195 237.186 285.891 236.914 285.747C238.62 283.479 238.794 280.248 238.794 277.806V272.679H249.659H249.654ZM246.751 282.088C247.563 283.16 248.359 284.613 248.631 285.587L247.676 285.937C247.578 285.571 247.404 285.154 247.198 284.721C244.553 284.912 241.83 285.087 239.95 285.231L239.868 284.16C240.854 284.113 242.159 284.031 243.577 283.938V281.702H240.823V277.358H243.577V275.822H240.597V274.833H247.717V275.822H244.625V277.358H247.445V281.702H244.625V283.876L246.695 283.747C246.423 283.284 246.135 282.804 245.837 282.408L246.746 282.088H246.751ZM243.582 280.764V278.321H241.784V280.764H243.582ZM244.635 278.321V280.764H246.453V278.321H244.635Z" fill="#717071"/>
<path d="M213.438 238.329C204.582 229.44 200.822 215.98 201.279 203.649C203.529 208.375 204.906 213.471 207.49 218.042C216.834 234.583 236.524 243.544 255.196 241.627C257.862 241.354 260.462 240.524 263.107 240.215C259.255 244.214 253.784 246.605 248.4 247.692C235.763 250.248 222.711 247.635 213.438 238.329Z" fill="#2E59A6"/>
<path d="M203.052 181.095L205.661 187.655C212.663 204.371 235.26 220.927 253.789 215.728C271.799 210.678 269.343 186.279 255.176 178.261L247.691 174.978C259.018 171.747 270.386 172.675 278.513 181.909C297.18 203.108 284.312 237.19 255.571 239.102C223.656 241.22 195.922 213.543 203.052 181.1V181.095Z" fill="#5D97C4"/>
<path d="M154.287 124.248C153.712 123.737 152.597 123.032 151.693 122.604L152.345 121.79C153.254 122.192 154.385 122.846 154.955 123.325L154.287 124.253V124.248ZM152.15 130.606C152.787 129.359 153.696 127.252 154.349 125.428L155.258 126.098C154.667 127.757 153.871 129.772 153.188 131.256L152.15 130.601V130.606ZM153.203 117.157C154.143 117.559 155.355 118.26 155.956 118.755L155.258 119.667C154.683 119.156 153.491 118.42 152.535 117.971L153.203 117.157ZM158.078 119.826C157.569 120.867 156.963 121.79 156.373 122.511C156.136 122.32 155.638 122.001 155.335 121.857C156.465 120.641 157.436 118.791 158.011 116.936L159.172 117.224C158.998 117.734 158.792 118.244 158.581 118.744H165.86V119.832H158.073L158.078 119.826ZM164.956 125.706C164.874 126.695 164.813 127.509 164.751 128.169H165.819V129.225H164.607C164.448 130.086 164.289 130.55 164.068 130.823C163.78 131.204 163.446 131.333 162.968 131.379C162.521 131.426 161.725 131.395 160.96 131.348C160.929 131.044 160.816 130.627 160.657 130.344C161.468 130.405 162.218 130.421 162.506 130.421C162.794 130.421 162.953 130.39 163.097 130.199C163.241 130.055 163.354 129.736 163.461 129.225H156.424C156.614 128.282 156.819 127.02 156.999 125.711H155.535V124.624H157.159C157.302 123.49 157.446 122.356 157.539 121.362H165.152C165.152 121.362 165.136 121.779 165.136 121.918C165.09 122.923 165.039 123.82 165.008 124.619H166.266V125.706H164.961H164.956ZM163.616 128.164C163.698 127.525 163.775 126.726 163.836 125.701H158.088C157.975 126.582 157.852 127.427 157.739 128.164H163.616ZM158.535 122.398C158.438 123.114 158.345 123.866 158.248 124.619H161.592C161.258 124.093 160.508 123.341 159.84 122.831L160.492 122.398C161.16 122.892 161.941 123.645 162.29 124.155L161.622 124.619H163.883C163.929 123.949 163.965 123.227 163.996 122.398H158.535ZM160.112 125.752C160.811 126.293 161.643 127.092 162.039 127.669L161.304 128.164C160.939 127.623 160.128 126.773 159.424 126.18L160.107 125.747L160.112 125.752Z" fill="#717071"/>
<path d="M171.434 123.965C170.941 123.47 169.903 122.718 169.076 122.238L169.759 121.47C170.586 121.919 171.639 122.604 172.163 123.099L171.429 123.959L171.434 123.965ZM169.425 130.782C170.032 129.504 170.889 127.314 171.48 125.464L172.405 126.072C171.881 127.814 171.131 129.86 170.479 131.395L169.425 130.787V130.782ZM171.896 119.806C171.403 119.28 170.432 118.451 169.605 117.92L170.371 117.199C171.182 117.693 172.184 118.461 172.698 119.002L171.901 119.801L171.896 119.806ZM176.165 128.628V131.534H175.081V128.628H172.61V127.556H175.081V126.232H173.217V121.105H175.081V119.78H172.898V118.739H175.081V116.967H176.165V118.739H178.379V119.78H176.165V121.105H178.014V126.232H176.165V127.556H178.425V128.628H176.165ZM174.208 123.228H176.997V121.965H174.208V123.228ZM174.208 125.351H176.997V124.057H174.208V125.351ZM183.254 130.066C183.254 130.705 183.126 131.07 182.73 131.266C182.314 131.472 181.662 131.503 180.644 131.488C180.598 131.184 180.454 130.658 180.326 130.339C181.045 130.37 181.713 130.354 181.903 130.354C182.108 130.354 182.191 130.292 182.191 130.05V126.103H180.038C179.879 128.02 179.463 130.081 178.364 131.55C178.189 131.359 177.742 131.04 177.485 130.911C178.918 128.963 179.062 126.134 179.062 123.898V117.539H183.249V130.066H183.254ZM182.186 125.016V122.331H180.115V123.898C180.115 124.248 180.115 124.634 180.1 125.016H182.186ZM180.115 118.626V121.264H182.186V118.626H180.115Z" fill="#717071"/>
<path d="M156.953 43.4856C159.727 45.7272 163.472 46.9536 167.001 47.2215C175.364 47.8605 183.382 44.2328 191.74 44.779C204.808 45.6293 218.015 51.9932 222.294 65.1487L219.207 63.4328C208.111 58.4189 195.156 56.1568 183.264 59.6969C167.052 64.5252 160.015 79.7471 140.227 78.4794C127.282 77.6498 118.719 67.8849 124.092 55.0437C124.092 55.0437 125.551 56.9349 126.62 58.321C127.447 59.3877 128.382 60.3668 129.46 61.1809C133.4 64.1439 138.029 65.7825 143.119 65.3084C143.505 65.2724 146.047 64.7725 146.16 64.6643C146.731 64.1181 145.945 64.1233 145.703 63.9944C140.736 61.4386 137.89 59.3825 136.159 53.6782C132.429 41.3626 140.243 30.4847 152.556 28.7275C152.001 28.8203 152.731 35.7665 152.797 36.2715C153.193 39.322 154.775 41.7182 156.958 43.4856H156.953Z" fill="#2E59A6"/>
<path d="M201.3 43.5935C201.372 44.1809 200.617 43.8717 200.273 43.8253C193.389 42.9184 184.127 38.4096 180.254 32.4579C176.699 26.9957 175.816 18.0554 182.067 14.1803C186.413 11.4905 193.081 14.0824 192.321 19.6528C191.976 22.188 188.602 24.6357 188.011 27.5214C186.454 35.1374 194.992 41.4653 201.3 43.5883V43.5935Z" fill="#5D97C4"/>
<path d="M127.416 34.6372C129.892 34.1786 132.64 35.8378 132.923 38.7132C133.164 41.1866 131.53 43.4385 131.099 45.8037C130.046 51.6317 132.506 55.4191 135.82 59.8867C130.683 57.5473 126.558 52.7653 124.524 47.4011C123.265 44.0929 122.346 39.1718 124.822 36.1779C125.541 35.3122 126.46 34.8124 127.421 34.6372H127.416Z" fill="#5D97C4"/>
<path d="M198.495 18.3443C200.047 18.1691 202.322 19.2924 203.118 20.6219C205.045 23.8322 202.353 26.656 201.608 29.8354C200.267 35.5191 202.445 39.3993 205.456 43.9493C198.326 40.7081 192.064 29.521 194.643 21.8792C195.182 20.2766 196.713 18.5504 198.5 18.3443H198.495Z" fill="#5D97C4"/>
<path d="M21.1897 126.427C20.9329 125.979 20.2805 125.103 19.7411 124.443V131.281H18.5956V124.217C17.9432 125.83 17.1008 127.427 16.284 128.401C16.171 128.066 15.8833 127.602 15.6932 127.314C16.6949 126.195 17.7942 124.134 18.4312 122.31H15.9963V121.192H18.5905V118.765C17.8097 118.925 16.998 119.053 16.2634 119.167C16.2018 118.894 16.0426 118.512 15.8987 118.239C17.6812 117.951 19.7668 117.487 20.9329 116.961L21.7599 117.858C21.1846 118.095 20.486 118.322 19.736 118.497V121.197H21.7291V122.315H19.736V123.289C20.2291 123.707 21.5853 125.113 21.9038 125.479L21.1846 126.422L21.1897 126.427ZM30.4721 130.009V130.998H20.9945V130.009H25.3609V128.762H21.9038V127.803H25.3609V126.67H22.0784V121.573H25.3609V120.501H21.4106V119.527H25.3609V118.456C24.2154 118.538 23.0339 118.584 21.9705 118.615C21.9551 118.358 21.8113 117.946 21.6983 117.719C24.3438 117.605 27.6417 117.337 29.4242 116.936L30.1434 117.832C29.1417 118.054 27.8677 118.234 26.4962 118.358V119.522H30.1742V120.496H26.4962V121.568H29.8557V126.664H26.4962V127.798H29.9379V128.756H26.4962V130.003H30.4773L30.4721 130.009ZM23.1315 123.712H25.3609V122.465H23.1315V123.712ZM25.3609 125.773V124.495H23.1315V125.773H25.3609ZM26.491 122.465V123.712H28.7821V122.465H26.491ZM28.7872 124.495H26.4962V125.773H28.7872V124.495Z" fill="#717071"/>
<path d="M47.8143 124.99H41.3161V129.751C41.3161 130.55 41.1107 130.916 40.5045 131.091C39.9138 131.297 38.9121 131.312 37.3813 131.312C37.2991 130.962 37.0782 130.431 36.8727 130.096C38.1621 130.143 39.3282 130.127 39.6775 130.112C39.996 130.096 40.109 130.014 40.109 129.73V124.984H33.5491V123.804H40.109V121.506C41.4292 120.898 42.9754 119.909 44.0901 118.981H35.121V117.817H45.3794L45.6363 117.755L46.5301 118.425C45.174 119.765 43.1397 121.187 41.3213 122.114V123.81H47.8195V124.99H47.8143Z" fill="#717071"/>
<path d="M292.737 121.62H294.761V122.738H292.737V123.119C293.153 123.614 294.17 124.907 294.412 125.294L293.728 126.221C293.538 125.819 293.122 125.072 292.742 124.433V131.689H291.612V125.01C291.073 126.515 290.384 127.984 289.701 128.891C289.588 128.571 289.269 128.061 289.079 127.757C289.973 126.608 290.929 124.547 291.468 122.738H289.413V121.62H291.612V119.048C291.006 119.177 290.4 119.285 289.814 119.383C289.768 119.11 289.609 118.729 289.465 118.456C291.026 118.152 292.855 117.704 293.908 117.193L294.658 118.152C294.103 118.389 293.446 118.616 292.747 118.791V121.62H292.737ZM303.232 118.203C301.079 118.842 297.735 119.224 294.935 119.419C294.905 119.146 294.761 118.765 294.648 118.492C297.37 118.286 300.668 117.868 302.466 117.312L303.232 118.208V118.203ZM295.968 122.851C295.763 122.197 295.3 121.141 294.869 120.357L295.809 120.038C296.271 120.79 296.749 121.841 296.954 122.465L295.968 122.846V122.851ZM299.328 123.506H303.052V131.56H301.937V131.003H296.22V131.658H295.074V124.134C296.045 123.732 297.144 123.16 297.781 122.712L298.675 123.511C297.956 123.944 297.067 124.325 296.22 124.66V126.623H298.675V127.68H296.22V129.947H301.937V127.68H299.42V126.644H301.937V124.567H299.328V123.511V123.506ZM298.804 122.403C298.675 121.749 298.31 120.661 297.961 119.847L298.901 119.61C299.302 120.409 299.682 121.45 299.826 122.104L298.809 122.408L298.804 122.403ZM300.858 122.501C301.321 121.656 301.927 120.249 302.245 119.26L303.345 119.708C302.851 120.795 302.276 122.089 301.768 122.918L300.858 122.501Z" fill="#717071"/>
<path d="M309.422 124.304C308.846 123.794 307.654 123.026 306.699 122.531L307.398 121.717C308.322 122.15 309.529 122.866 310.151 123.376L309.416 124.304H309.422ZM307.033 130.549C307.767 129.369 308.815 127.37 309.581 125.628L310.521 126.329C309.822 127.942 308.882 129.828 308.086 131.281L307.033 130.544V130.549ZM308.261 117.497C309.139 118.023 310.233 118.842 310.778 119.398L309.951 120.228C309.442 119.651 308.358 118.806 307.48 118.229L308.261 117.492V117.497ZM320.476 126.654C319.742 127.277 318.755 127.916 317.944 128.395C318.822 129.369 319.916 130.106 321.226 130.534C320.954 130.756 320.62 131.219 320.461 131.539C317.784 130.534 316.048 128.359 315.093 125.453H312.75V130.055L315.714 129.112C315.73 129.431 315.812 129.91 315.874 130.168C312.463 131.317 311.954 131.528 311.651 131.781C311.538 131.508 311.204 131.06 311.014 130.853C311.25 130.663 311.569 130.261 311.569 129.529V118.826H315.375C315.185 118.316 314.913 117.724 314.661 117.244L315.73 116.94C316.079 117.533 316.449 118.28 316.608 118.826H319.762V125.458H316.213C316.5 126.242 316.865 126.958 317.327 127.617C318.123 127.123 319.094 126.437 319.701 125.891L320.481 126.659L320.476 126.654ZM312.75 119.878V121.604H318.596V119.878H312.75ZM312.75 124.417H318.596V122.629H312.75V124.417Z" fill="#717071"/>
<path d="M325.161 29.4954C326.805 29.7839 328.423 30.2219 329.974 30.8403C329.995 30.8455 330 30.8609 330 30.8764C330.015 30.9897 329.979 31.2886 329.974 31.4226C329.753 35.2358 328.49 39.5694 326.183 42.6406C321.945 48.2934 315.216 48.8035 308.785 47.1804C307.906 46.9588 307.043 46.696 306.18 46.4229C306.196 46.1188 306.226 45.7994 306.268 45.4902C307.089 39.0902 309.622 32.4789 316.089 30.088C318.92 29.0419 322.202 28.9646 325.166 29.4851L325.161 29.4954Z" fill="#2E59A6"/>
<path d="M296.209 30.0923C302.677 32.4781 305.209 39.0894 306.031 45.4945C306.072 45.8037 306.103 46.1232 306.119 46.4272C305.256 46.7055 304.393 46.9631 303.514 47.1847C297.083 48.8079 290.353 48.2977 286.115 42.6449C283.814 39.5738 282.545 35.2401 282.324 31.4269C282.314 31.293 282.283 30.9941 282.299 30.8807C282.299 30.8601 282.304 30.8498 282.324 30.8446C283.871 30.2211 285.494 29.7883 287.138 29.4997C290.097 28.9793 293.384 29.0566 296.215 30.1026L296.209 30.0923Z" fill="#5D97C4"/>
<path d="M325.161 49.468C326.805 49.7566 328.423 50.1946 329.974 50.813C329.995 50.8181 330 50.8336 330 50.849C330.015 50.9624 329.979 51.2613 329.974 51.3952C329.753 55.2084 328.49 59.5421 326.183 62.6133C321.945 68.2661 315.216 68.7762 308.785 67.153C307.906 66.9314 307.043 66.6686 306.18 66.3955C306.196 66.0915 306.226 65.772 306.268 65.4628C307.089 59.0629 309.622 52.4516 316.089 50.0606C318.92 49.0146 322.202 48.9373 325.166 49.4577L325.161 49.468Z" fill="#2E59A6"/>
<path d="M296.209 50.0708C302.677 52.4567 305.209 59.0679 306.031 65.473C306.072 65.7822 306.103 66.1017 306.119 66.4057C305.256 66.684 304.393 66.9416 303.514 67.1632C297.083 68.7864 290.353 68.2763 286.115 62.6235C283.814 59.5523 282.545 55.2186 282.324 51.4054C282.314 51.2715 282.283 50.9726 282.299 50.8592C282.299 50.8386 282.304 50.8283 282.324 50.8232C283.871 50.1996 285.494 49.7668 287.138 49.4782C290.097 48.9578 293.384 49.0351 296.215 50.0811L296.209 50.0708Z" fill="#5D97C4"/>
<path d="M325.161 69.4456C326.805 69.7341 328.423 70.1721 329.974 70.7905C329.995 70.7956 330 70.8111 330 70.8266C330.015 70.9399 329.979 71.2388 329.974 71.3728C329.753 75.186 328.49 79.5196 326.183 82.5908C321.945 88.2436 315.216 88.7537 308.785 87.1306C307.906 86.909 307.043 86.6462 306.18 86.3731C306.196 86.069 306.226 85.7496 306.268 85.4404C307.089 79.0404 309.622 72.4291 316.089 70.0382C318.92 68.9921 322.202 68.9148 325.166 69.4353L325.161 69.4456Z" fill="#2E59A6"/>
<path d="M296.209 70.0484C302.677 72.4342 305.209 79.0454 306.031 85.4506C306.072 85.7598 306.103 86.0792 306.119 86.3833C305.256 86.6615 304.393 86.9192 303.514 87.1408C297.083 88.7639 290.353 88.2538 286.115 82.601C283.814 79.5298 282.545 75.1962 282.324 71.383C282.314 71.249 282.283 70.9501 282.299 70.8368C282.299 70.8162 282.304 70.8059 282.324 70.8007C283.871 70.1772 285.494 69.7443 287.138 69.4558C290.097 68.9353 293.384 69.0126 296.215 70.0587L296.209 70.0484Z" fill="#5D97C4"/>
<path d="M302.307 7.22347C300.227 9.54746 298.531 12.4537 297.997 15.4373C296.862 21.7909 301.018 26.9748 306.119 30.788V3.72461C304.716 4.76036 303.447 5.94554 302.307 7.21832V7.22347Z" fill="#5D97C4"/>
<path d="M314.24 15.438C313.706 12.4544 312.016 9.54817 309.93 7.22418C308.785 5.94624 307.516 4.76106 306.119 3.73047V30.7939C311.219 26.9807 315.375 21.7968 314.24 15.4432V15.438Z" fill="#2E59A6"/>
<path d="M36.5029 55.682C30.8112 54.6823 24.4928 54.8266 19.0528 56.8363C6.62147 61.4276 1.74655 74.1399 0.169518 86.4452C0.0924643 87.0378 0.0308214 87.651 0 88.2384C1.65408 88.7692 3.31844 89.2742 5.00335 89.6967C17.373 92.8194 30.3078 91.8352 38.46 80.9676C42.888 75.0623 45.3229 66.73 45.7493 59.3973C45.7596 59.2272 45.7904 58.9232 45.8007 58.6707L41.1466 56.7229C39.6158 56.3003 38.0645 55.9551 36.4977 55.682H36.5029Z" fill="#2E59A6"/>
<path d="M45.8007 58.6712H45.8109V58.666L45.8007 58.6712Z" fill="#5D97C4"/>
<path d="M48.477 49.4834C52.0215 34.4934 45.8058 11.7534 45.8058 11.7534C54.9598 20.7505 53.9735 39.095 52.7869 48.2879C57.0916 46.5462 60.8004 43.2586 62.809 38.5282C64.1856 35.2922 64.7507 32.1488 64.6788 29.1292C64.3757 16.8342 53.3879 6.63135 42.6877 0.684827C41.5524 0.0561648 40.1244 0.597226 39.6569 1.81333C39.0559 3.38498 38.2854 5.20398 38.1929 5.4204C37.032 8.17724 34.9772 10.3466 33.2563 12.7479C27.7496 20.4465 24.4671 31.412 29.1674 40.2957C32.3111 46.2422 38.0131 49.2876 43.9257 49.6844C43.1141 52.3897 41.9583 55.0177 41.1363 56.7233L45.7904 58.6712H45.8007L48.4718 49.4834H48.477Z" fill="#5D97C4"/>
</g>
<defs>
<clipPath id="clip0_176_21024">
<rect width="330" height="286" fill="white" transform="translate(0 0.421875)"/>
</clipPath>
</defs>
</svg>
