<svg width="330" height="281" viewBox="0 0 330 281" fill="none" xmlns="http://www.w3.org/2000/svg">
<g clip-path="url(#clip0_582_383)">
<path d="M63.8158 274.747H62.4357V278.161H61.1056V269.69H63.8708C65.616 269.69 66.9261 270.311 66.9261 272.149C66.9261 273.46 66.2261 274.241 65.156 274.577L67.2211 278.166H65.716L63.8108 274.752L63.8158 274.747ZM63.7158 273.676C64.9309 273.676 65.611 273.17 65.611 272.149C65.611 271.127 64.9309 270.767 63.7158 270.767H62.4407V273.676H63.7158Z" fill="#717071"/>
<path d="M69.2263 269.845C69.2263 269.385 69.5613 269.064 70.0514 269.064C70.5414 269.064 70.8665 269.385 70.8665 269.845C70.8665 270.341 70.5314 270.652 70.0514 270.652C69.5713 270.652 69.2263 270.341 69.2263 269.845ZM69.3863 271.823H70.7064V278.156H69.3863V271.823Z" fill="#717071"/>
<path d="M72.8916 277.435L73.5217 276.574C74.0717 277.025 74.6268 277.31 75.3018 277.31C76.0469 277.31 76.4069 276.94 76.4069 276.459C76.4069 275.883 75.7069 275.633 75.0168 275.368C74.1767 275.047 73.2466 274.597 73.2466 273.53C73.2466 272.464 74.0967 271.678 75.4968 271.678C76.3369 271.678 77.047 272.023 77.542 272.424L76.932 273.24C76.4869 272.919 76.0369 272.689 75.5318 272.689C74.8218 272.689 74.4967 273.034 74.4967 273.47C74.4967 274.001 75.1168 274.206 75.8169 274.471C76.6919 274.807 77.667 275.197 77.667 276.379C77.667 277.45 76.827 278.321 75.2668 278.321C74.3917 278.321 73.4967 277.941 72.8916 277.435Z" fill="#717071"/>
<path d="M79.7672 269.845C79.7672 269.385 80.1022 269.064 80.5923 269.064C81.0823 269.064 81.4074 269.385 81.4074 269.845C81.4074 270.341 81.0723 270.652 80.5923 270.652C80.1122 270.652 79.7672 270.341 79.7672 269.845ZM79.9272 271.823H81.2473V278.156H79.9272V271.823Z" fill="#717071"/>
<path d="M84.0977 271.823H85.1778L85.2928 272.709H85.3178C85.8928 272.133 86.5479 271.673 87.408 271.673C88.7531 271.673 89.3481 272.569 89.3481 274.181V278.161H88.028V274.346C88.028 273.255 87.708 272.829 86.9629 272.829C86.3779 272.829 85.9878 273.115 85.4228 273.68V278.166H84.1027V271.833L84.0977 271.823Z" fill="#717071"/>
<path d="M91.6633 279.333C91.6633 278.802 91.9984 278.311 92.5834 277.951V277.906C92.2634 277.686 92.0084 277.355 92.0084 276.849C92.0084 276.344 92.3534 275.918 92.7184 275.678V275.633C92.2834 275.297 91.8783 274.702 91.8783 273.941C91.8783 272.514 93.0134 271.678 94.3236 271.678C94.6786 271.678 95.0036 271.748 95.2437 271.828H97.4839V272.829H96.2887C96.5188 273.095 96.6888 273.505 96.6888 273.981C96.6888 275.373 95.6437 276.164 94.3236 276.164C94.0485 276.164 93.7135 276.093 93.4385 275.978C93.2435 276.149 93.0935 276.324 93.0935 276.634C93.0935 277.005 93.3485 277.255 94.1485 277.255H95.3187C96.7988 277.255 97.5789 277.716 97.5789 278.782C97.5789 280.014 96.3037 281 94.2836 281C92.7584 281 91.6533 280.439 91.6533 279.333H91.6633ZM96.3037 278.997C96.3037 278.467 95.8887 278.306 95.1336 278.306H94.1786C93.8785 278.306 93.5935 278.281 93.3285 278.216C92.9484 278.492 92.7984 278.812 92.7984 279.137C92.7984 279.748 93.4285 280.124 94.4736 280.124C95.5787 280.124 96.2987 279.583 96.2987 278.997H96.3037ZM95.5237 273.941C95.5237 273.1 94.9936 272.609 94.3286 272.609C93.6635 272.609 93.1335 273.09 93.1335 273.941C93.1335 274.792 93.6735 275.297 94.3286 275.297C94.9836 275.297 95.5237 274.792 95.5237 273.941Z" fill="#717071"/>
<path d="M102.584 277.065L103.364 276.144C103.974 276.74 104.8 277.145 105.63 277.145C106.64 277.145 107.2 276.664 107.2 275.948C107.2 275.177 106.64 274.937 105.855 274.592L104.685 274.086C103.859 273.741 102.959 273.11 102.959 271.868C102.959 270.536 104.119 269.535 105.74 269.535C106.74 269.535 107.67 269.951 108.29 270.607L107.615 271.458C107.085 270.987 106.49 270.697 105.745 270.697C104.885 270.697 104.335 271.122 104.335 271.778C104.335 272.514 105.015 272.779 105.69 273.065L106.85 273.56C107.86 273.986 108.575 274.607 108.575 275.848C108.575 277.205 107.45 278.322 105.6 278.322C104.44 278.322 103.359 277.851 102.589 277.07L102.584 277.065Z" fill="#717071"/>
<path d="M110.815 275.813V271.823H112.145V275.653C112.145 276.735 112.465 277.17 113.2 277.17C113.785 277.17 114.2 276.895 114.715 276.229V271.828H116.046V278.161H114.955L114.85 277.205H114.815C114.24 277.871 113.62 278.322 112.76 278.322C111.405 278.322 110.81 277.426 110.81 275.813H110.815Z" fill="#717071"/>
<path d="M118.891 271.823H119.971L120.086 272.709H120.111C120.686 272.133 121.341 271.673 122.201 271.673C123.546 271.673 124.141 272.569 124.141 274.181V278.161H122.821V274.346C122.821 273.255 122.501 272.829 121.756 272.829C121.171 272.829 120.781 273.115 120.216 273.68V278.166H118.896V271.833L118.891 271.823Z" fill="#717071"/>
<path d="M92.9034 232.217C108.523 232.217 121.186 219.539 121.186 203.9C121.186 188.261 108.523 175.583 92.9034 175.583C77.2834 175.583 64.6208 188.261 64.6208 203.9C64.6208 219.539 77.2834 232.217 92.9034 232.217Z" fill="#2E59A6"/>
<path d="M67.8197 226.29L59.9136 234.206L62.2296 236.525L70.1357 228.609L67.8197 226.29Z" fill="#5D97C4"/>
<path d="M116.65 226.865L114.334 229.184L122.109 236.968L124.425 234.65L116.65 226.865Z" fill="#5D97C4"/>
<path d="M94.6336 160.634H91.3783V171.563H94.6336V160.634Z" fill="#5D97C4"/>
<path d="M59.5854 202.433H48.6694V205.692H59.5854V202.433Z" fill="#5D97C4"/>
<path d="M136.382 203.395H125.466V206.654H136.382V203.395Z" fill="#5D97C4"/>
<path d="M93.6735 237.523H90.4182V248.453H93.6735V237.523Z" fill="#5D97C4"/>
<path d="M82.977 161.413L79.8325 162.256L82.7064 173.002L85.8509 172.159L82.977 161.413Z" fill="#5D97C4"/>
<path d="M60.1725 211.02L49.439 213.875L50.2775 217.035L61.0111 214.179L60.1725 211.02Z" fill="#5D97C4"/>
<path d="M82.0267 235.665L79.2129 246.396L82.3808 247.228L85.1946 236.497L82.0267 235.665Z" fill="#5D97C4"/>
<path d="M102.687 161.544L99.851 172.306L103.008 173.14L105.844 162.378L102.687 161.544Z" fill="#5D97C4"/>
<path d="M50.5824 191.089L49.7554 194.293L60.4839 197.069L61.3109 193.865L50.5824 191.089Z" fill="#5D97C4"/>
<path d="M124.549 211.723L123.701 214.87L134.482 217.782L135.33 214.636L124.549 211.723Z" fill="#5D97C4"/>
<path d="M102.148 235.892L99.002 236.731L101.863 247.481L105.008 246.642L102.148 235.892Z" fill="#5D97C4"/>
<path d="M134.589 191.837L123.85 194.712L124.691 197.861L135.43 194.986L134.589 191.837Z" fill="#5D97C4"/>
<path d="M121.559 219.786L119.925 222.616L129.618 228.226L131.252 225.396L121.559 219.786Z" fill="#5D97C4"/>
<path d="M129.96 181.374L120.278 186.852L121.899 189.724L131.581 184.246L129.96 181.374Z" fill="#5D97C4"/>
<path d="M63.0232 219.152L53.3824 224.662L55.0013 227.501L64.642 221.991L63.0232 219.152Z" fill="#5D97C4"/>
<path d="M113.405 165.65L107.885 175.339L110.743 176.971L116.263 167.282L113.405 165.65Z" fill="#5D97C4"/>
<path d="M55.4331 180.66L53.8064 183.495L63.4317 189.032L65.0585 186.197L55.4331 180.66Z" fill="#5D97C4"/>
<path d="M109.962 232.323L107.139 233.945L112.686 243.619L115.509 241.996L109.962 232.323Z" fill="#5D97C4"/>
<path d="M72.315 165.306L69.4231 166.949L74.8931 176.598L77.785 174.954L72.315 165.306Z" fill="#5D97C4"/>
<path d="M74.3214 231.87L68.8246 241.515L71.6606 243.135L77.1575 233.49L74.3214 231.87Z" fill="#5D97C4"/>
<path d="M62.8366 172.023L60.6161 174.246L68.3914 182.031L70.6119 179.808L62.8366 172.023Z" fill="#5D97C4"/>
<path d="M122.69 172.5L114.914 180.285L117.138 182.512L124.914 174.727L122.69 172.5Z" fill="#5D97C4"/>
<path d="M222.75 269.686H224.115L224.905 274.086C225.055 274.992 225.205 275.894 225.365 276.81H225.41C225.581 275.889 225.791 274.982 225.986 274.086L227.066 269.686H228.251L229.341 274.086C229.536 274.982 229.721 275.894 229.916 276.81H229.971C230.121 275.889 230.256 274.982 230.396 274.086L231.201 269.686H232.476L230.811 278.157H229.171L228.036 273.455C227.896 272.79 227.761 272.159 227.646 271.513H227.601C227.476 272.159 227.336 272.79 227.201 273.455L226.086 278.157H224.465L222.755 269.686H222.75Z" fill="#717071"/>
<path d="M234.451 269.845C234.451 269.385 234.786 269.064 235.276 269.064C235.766 269.064 236.091 269.385 236.091 269.845C236.091 270.341 235.756 270.652 235.276 270.652C234.796 270.652 234.451 270.341 234.451 269.845ZM234.611 271.823H235.931V278.156H234.611V271.823Z" fill="#717071"/>
<path d="M238.782 271.823H239.862L239.977 272.709H240.002C240.577 272.133 241.232 271.673 242.092 271.673C243.437 271.673 244.032 272.569 244.032 274.181V278.161H242.712V274.346C242.712 273.255 242.392 272.829 241.642 272.829C241.057 272.829 240.667 273.115 240.102 273.68V278.166H238.782V271.833V271.823Z" fill="#717071"/>
<path d="M246.382 274.997C246.382 272.939 247.677 271.673 249.083 271.673C249.818 271.673 250.278 271.938 250.783 272.384L250.738 271.337V268.994H252.058V278.156H250.978L250.863 277.445H250.828C250.358 277.926 249.703 278.321 248.978 278.321C247.402 278.321 246.382 277.105 246.382 274.997ZM250.733 276.434V273.35C250.263 272.924 249.813 272.774 249.343 272.774C248.468 272.774 247.747 273.615 247.747 274.982C247.747 276.349 248.307 277.2 249.298 277.2C249.828 277.2 250.273 276.97 250.733 276.429V276.434Z" fill="#717071"/>
<path d="M207.769 231.145C199.148 222.509 195.488 209.432 195.933 197.451C198.123 202.042 199.463 206.994 201.978 211.434C211.074 227.505 230.241 236.212 248.418 234.349C251.013 234.084 253.543 233.278 256.118 232.977C252.368 236.862 247.042 239.185 241.802 240.242C229.501 242.725 216.795 240.187 207.769 231.145Z" fill="#2E59A6"/>
<path d="M197.658 175.538L200.198 181.911C207.014 198.152 229.011 214.238 247.047 209.187C264.579 204.28 262.189 180.574 248.398 172.784L241.112 169.595C252.138 166.456 263.204 167.357 271.115 176.329C289.286 196.926 276.76 230.039 248.783 231.896C217.715 233.954 190.717 207.064 197.658 175.543V175.538Z" fill="#5D97C4"/>
<path d="M126.302 115.71C126.302 112.972 127.817 111.354 129.987 111.354C132.157 111.354 133.672 112.987 133.672 115.71C133.672 118.434 132.167 120.136 129.987 120.136C127.807 120.136 126.302 118.434 126.302 115.71ZM132.307 115.71C132.307 113.733 131.387 112.516 129.987 112.516C128.587 112.516 127.677 113.733 127.677 115.71C127.677 117.688 128.582 118.964 129.987 118.964C131.392 118.964 132.307 117.688 132.307 115.71Z" fill="#717071"/>
<path d="M135.732 116.812C135.732 114.709 137.192 113.487 138.858 113.487C139.663 113.487 140.248 113.808 140.708 114.213L140.053 115.074C139.708 114.774 139.353 114.579 138.928 114.579C137.857 114.579 137.102 115.475 137.102 116.812C137.102 118.148 137.837 119.03 138.883 119.03C139.413 119.03 139.883 118.789 140.263 118.454L140.813 119.34C140.228 119.856 139.483 120.131 138.758 120.131C137.047 120.131 135.737 118.914 135.737 116.807L135.732 116.812Z" fill="#717071"/>
<path d="M142.228 116.812C142.228 114.754 143.638 113.487 145.108 113.487C146.783 113.487 147.693 114.694 147.693 116.476C147.693 116.742 147.658 116.992 147.623 117.157H143.523C143.628 118.364 144.383 119.09 145.473 119.09C146.033 119.09 146.518 118.919 146.978 118.619L147.438 119.46C146.863 119.851 146.128 120.136 145.313 120.136C143.578 120.136 142.223 118.904 142.223 116.812H142.228ZM146.548 116.241C146.548 115.159 146.053 114.539 145.133 114.539C144.343 114.539 143.638 115.134 143.513 116.241H146.543H146.548Z" fill="#717071"/>
<path d="M149.499 118.298C149.499 116.932 150.649 116.231 153.279 115.94C153.269 115.214 153.004 114.573 152.074 114.573C151.409 114.573 150.789 114.874 150.249 115.219L149.754 114.323C150.409 113.908 151.294 113.497 152.304 113.497C153.879 113.497 154.599 114.488 154.599 116.176V119.98H153.519L153.414 119.255H153.369C152.794 119.75 152.119 120.141 151.359 120.141C150.269 120.141 149.499 119.415 149.499 118.303V118.298ZM153.279 118.328V116.786C151.409 117.007 150.774 117.487 150.774 118.188C150.774 118.819 151.199 119.074 151.759 119.074C152.319 119.074 152.759 118.809 153.274 118.328H153.279Z" fill="#717071"/>
<path d="M157.329 113.642H158.409L158.524 114.529H158.549C159.125 113.953 159.78 113.492 160.64 113.492C161.985 113.492 162.58 114.388 162.58 116V119.981H161.26V116.166C161.26 115.074 160.94 114.649 160.19 114.649C159.605 114.649 159.215 114.934 158.649 115.5V119.986H157.329V113.652V113.642Z" fill="#717071"/>
<path d="M170.625 112.631H168.155V111.505H174.461V112.631H171.981V119.976H170.625V112.631Z" fill="#717071"/>
<path d="M176.516 111.665C176.516 111.204 176.851 110.884 177.341 110.884C177.831 110.884 178.156 111.204 178.156 111.665C178.156 112.16 177.821 112.471 177.341 112.471C176.861 112.471 176.516 112.16 176.516 111.665ZM176.681 113.642H178.001V119.976H176.681V113.642Z" fill="#717071"/>
<path d="M180.421 116.811C180.421 114.754 181.717 113.487 183.122 113.487C183.857 113.487 184.317 113.752 184.822 114.198L184.777 113.152V110.809H186.097V119.97H185.017L184.902 119.26H184.867C184.397 119.74 183.742 120.136 183.017 120.136C181.441 120.136 180.421 118.919 180.421 116.811ZM184.777 118.248V115.164C184.307 114.739 183.857 114.589 183.387 114.589C182.512 114.589 181.792 115.43 181.792 116.796C181.792 118.163 182.352 119.014 183.342 119.014C183.872 119.014 184.317 118.784 184.777 118.243V118.248Z" fill="#717071"/>
<path d="M188.497 116.812C188.497 114.754 189.907 113.487 191.377 113.487C193.053 113.487 193.963 114.694 193.963 116.476C193.963 116.742 193.928 116.992 193.893 117.157H189.792C189.897 118.364 190.652 119.09 191.742 119.09C192.303 119.09 192.788 118.919 193.248 118.619L193.708 119.46C193.133 119.851 192.398 120.136 191.582 120.136C189.847 120.136 188.492 118.904 188.492 116.812H188.497ZM192.813 116.241C192.813 115.159 192.318 114.539 191.397 114.539C190.607 114.539 189.902 115.134 189.777 116.241H192.808H192.813Z" fill="#717071"/>
<path d="M195.638 119.25L196.268 118.389C196.818 118.839 197.373 119.125 198.048 119.125C198.793 119.125 199.153 118.754 199.153 118.273C199.153 117.698 198.453 117.447 197.763 117.182C196.923 116.862 195.993 116.411 195.993 115.345C195.993 114.278 196.843 113.492 198.243 113.492C199.083 113.492 199.793 113.838 200.288 114.238L199.678 115.054C199.228 114.734 198.783 114.504 198.278 114.504C197.568 114.504 197.243 114.849 197.243 115.285C197.243 115.815 197.863 116.02 198.563 116.286C199.438 116.621 200.413 117.012 200.413 118.193C200.413 119.265 199.573 120.136 198.013 120.136C197.138 120.136 196.243 119.755 195.638 119.25Z" fill="#717071"/>
<path d="M152.784 41.8396C155.484 44.0174 159.129 45.209 162.565 45.4693C170.706 46.0901 178.511 42.5655 186.647 43.0962C199.368 43.9223 212.224 50.1053 216.39 62.8869L213.384 61.2198C202.583 56.3484 189.972 54.1506 178.396 57.5901C162.615 62.2812 155.764 77.0704 136.502 75.8388C123.901 75.0327 115.565 65.5454 120.796 53.0692C120.796 53.0692 122.216 54.9066 123.256 56.2533C124.061 57.2897 124.971 58.2409 126.021 59.0319C129.857 61.9107 134.362 63.5027 139.318 63.0421C139.693 63.0071 142.168 62.5215 142.278 62.4163C142.833 61.8856 142.068 61.8906 141.833 61.7655C136.997 59.2823 134.227 57.2847 132.542 51.7425C128.912 39.7769 136.517 29.2082 148.503 27.501C147.963 27.5911 148.673 34.3399 148.739 34.8305C149.124 37.7943 150.664 40.1224 152.789 41.8396H152.784Z" fill="#2E59A6"/>
<path d="M195.953 41.9448C196.023 42.5156 195.288 42.2152 194.953 42.1701C188.252 41.289 179.236 36.9083 175.466 31.1258C172.006 25.8189 171.146 17.1326 177.231 13.3677C181.462 10.7543 187.952 13.2726 187.212 18.6846C186.877 21.1478 183.592 23.5259 183.017 26.3295C181.502 33.7292 189.812 39.8771 195.953 41.9398V41.9448Z" fill="#5D97C4"/>
<path d="M124.031 33.2434C126.441 32.7979 129.117 34.41 129.392 37.2036C129.627 39.6067 128.037 41.7945 127.617 44.0925C126.591 49.7549 128.987 53.4347 132.212 57.7753C127.212 55.5024 123.196 50.8563 121.216 45.6445C119.991 42.4304 119.096 37.6492 121.506 34.7404C122.206 33.8993 123.101 33.4137 124.036 33.2434H124.031Z" fill="#5D97C4"/>
<path d="M193.223 17.4131C194.733 17.2429 196.948 18.3343 197.723 19.6259C199.598 22.745 196.978 25.4886 196.253 28.5776C194.948 34.0997 197.068 37.8696 199.998 42.2904C193.058 39.1413 186.962 28.2722 189.472 20.8475C189.997 19.2905 191.487 17.6133 193.228 17.4131H193.223Z" fill="#5D97C4"/>
<path d="M13.4712 118.884L14.2513 117.963C14.8613 118.559 15.6864 118.964 16.5115 118.964C17.5216 118.964 18.0866 118.484 18.0866 117.768C18.0866 116.997 17.5266 116.757 16.7415 116.411L15.5714 115.905C14.7463 115.56 13.8462 114.929 13.8462 113.688C13.8462 112.356 15.0063 111.354 16.6265 111.354C17.6266 111.354 18.5567 111.77 19.1767 112.426L18.5016 113.277C17.9716 112.806 17.3765 112.516 16.6315 112.516C15.7714 112.516 15.2214 112.942 15.2214 113.597C15.2214 114.333 15.8964 114.599 16.5765 114.884L17.7366 115.38C18.7467 115.805 19.4617 116.426 19.4617 117.668C19.4617 119.024 18.3366 120.141 16.4865 120.141C15.3264 120.141 14.2463 119.67 13.4762 118.889L13.4712 118.884Z" fill="#717071"/>
<path d="M21.3519 116.812C21.3519 114.754 22.7621 113.487 24.2322 113.487C25.9073 113.487 26.8174 114.694 26.8174 116.476C26.8174 116.742 26.7824 116.992 26.7474 117.157H22.647C22.7521 118.364 23.5071 119.09 24.5972 119.09C25.1573 119.09 25.6423 118.919 26.1024 118.619L26.5624 119.46C25.9873 119.851 25.2523 120.136 24.4372 120.136C22.702 120.136 21.3469 118.904 21.3469 116.812H21.3519ZM25.6673 116.241C25.6673 115.159 25.1723 114.539 24.2522 114.539C23.4621 114.539 22.7571 115.134 22.632 116.241H25.6623H25.6673Z" fill="#717071"/>
<path d="M28.7126 116.812C28.7126 114.754 30.1228 113.487 31.5929 113.487C33.2681 113.487 34.1781 114.694 34.1781 116.476C34.1781 116.742 34.1431 116.992 34.1081 117.157H30.0078C30.1128 118.364 30.8678 119.09 31.9579 119.09C32.518 119.09 33.003 118.919 33.4631 118.619L33.9231 119.46C33.3481 119.851 32.613 120.136 31.7979 120.136C30.0628 120.136 28.7076 118.904 28.7076 116.812H28.7126ZM33.028 116.241C33.028 115.159 32.533 114.539 31.6129 114.539C30.8228 114.539 30.1178 115.134 29.9928 116.241H33.023H33.028Z" fill="#717071"/>
<path d="M36.0933 116.811C36.0933 114.754 37.3884 113.487 38.7935 113.487C39.5286 113.487 39.9886 113.752 40.4937 114.198L40.4487 113.152V110.809H41.7688V119.97H40.6887L40.5737 119.26H40.5387C40.0686 119.74 39.4136 120.136 38.6885 120.136C37.1134 120.136 36.0933 118.919 36.0933 116.811ZM40.4437 118.248V115.164C39.9736 114.739 39.5236 114.589 39.0535 114.589C38.1785 114.589 37.4584 115.43 37.4584 116.796C37.4584 118.163 38.0184 119.014 39.0085 119.014C39.5386 119.014 39.9836 118.784 40.4437 118.243V118.248Z" fill="#717071"/>
<path d="M43.949 119.25L44.579 118.389C45.1291 118.839 45.6841 119.125 46.3592 119.125C47.1043 119.125 47.4643 118.754 47.4643 118.273C47.4643 117.698 46.7642 117.447 46.0742 117.182C45.2341 116.862 44.304 116.411 44.304 115.345C44.304 114.278 45.1541 113.492 46.5542 113.492C47.3943 113.492 48.1044 113.838 48.5994 114.238L47.9893 115.054C47.5393 114.734 47.0943 114.504 46.5892 114.504C45.8791 114.504 45.5541 114.849 45.5541 115.285C45.5541 115.815 46.1742 116.02 46.8742 116.286C47.7493 116.621 48.7244 117.012 48.7244 118.193C48.7244 119.265 47.8843 120.136 46.3242 120.136C45.4491 120.136 44.554 119.755 43.949 119.25Z" fill="#717071"/>
<path d="M271.845 112.431L272.625 111.51C273.235 112.106 274.06 112.511 274.89 112.511C275.9 112.511 276.46 112.031 276.46 111.315C276.46 110.544 275.9 110.303 275.115 109.958L273.945 109.452C273.12 109.107 272.22 108.476 272.22 107.234C272.22 105.903 273.38 104.901 275 104.901C276 104.901 276.93 105.317 277.55 105.973L276.875 106.824C276.345 106.353 275.75 106.063 275.005 106.063C274.145 106.063 273.595 106.488 273.595 107.144C273.595 107.88 274.275 108.146 274.95 108.431L276.11 108.927C277.12 109.352 277.835 109.973 277.835 111.215C277.835 112.571 276.71 113.688 274.86 113.688C273.7 113.688 272.62 113.217 271.85 112.436L271.845 112.431Z" fill="#717071"/>
<path d="M279.485 107.19H280.816L281.656 110.614C281.781 111.235 281.886 111.811 282.001 112.416H282.056C282.181 111.806 282.311 111.22 282.456 110.614L283.351 107.19H284.566L285.471 110.614C285.621 111.235 285.746 111.811 285.896 112.416H285.956C286.071 111.806 286.176 111.23 286.311 110.614L287.126 107.19H288.376L286.736 113.523H285.151L284.346 110.394C284.196 109.798 284.081 109.222 283.946 108.566H283.891C283.766 109.222 283.651 109.808 283.501 110.404L282.721 113.518H281.181L279.48 107.185L279.485 107.19Z" fill="#717071"/>
<path d="M290.056 111.845C290.056 110.478 291.206 109.777 293.837 109.487C293.827 108.761 293.562 108.12 292.632 108.12C291.967 108.12 291.347 108.421 290.806 108.766L290.311 107.87C290.966 107.454 291.852 107.044 292.862 107.044C294.437 107.044 295.157 108.035 295.157 109.722V113.527H294.077L293.972 112.801H293.927C293.352 113.297 292.677 113.688 291.917 113.688C290.826 113.688 290.056 112.962 290.056 111.85V111.845ZM293.837 111.88V110.338C291.967 110.559 291.332 111.039 291.332 111.74C291.332 112.371 291.757 112.626 292.317 112.626C292.877 112.626 293.317 112.361 293.832 111.88H293.837Z" fill="#717071"/>
<path d="M297.387 116.041L297.642 115.005C297.757 115.04 297.942 115.095 298.112 115.095C298.787 115.095 299.192 114.589 299.422 113.908L299.562 113.473L297.057 107.185H298.402L299.562 110.449C299.757 111.015 299.952 111.635 300.147 112.231H300.202C300.362 111.645 300.537 111.025 300.697 110.449L301.718 107.185H302.993L300.672 113.898C300.177 115.255 299.512 116.161 298.192 116.161C297.857 116.161 297.607 116.116 297.387 116.036V116.041Z" fill="#717071"/>
<path d="M304.838 105.212C304.838 104.751 305.173 104.431 305.663 104.431C306.153 104.431 306.478 104.751 306.478 105.212C306.478 105.707 306.143 106.018 305.663 106.018C305.183 106.018 304.838 105.707 304.838 105.212ZM304.998 107.189H306.318V113.522H304.998V107.189Z" fill="#717071"/>
<path d="M309.168 107.189H310.248L310.363 108.075H310.388C310.963 107.5 311.618 107.039 312.479 107.039C313.824 107.039 314.419 107.935 314.419 109.547V113.527H313.099V109.713C313.099 108.621 312.779 108.196 312.028 108.196C311.443 108.196 311.053 108.481 310.488 109.047V113.532H309.168V107.199V107.189Z" fill="#717071"/>
<path d="M316.734 114.699C316.734 114.168 317.069 113.678 317.654 113.317V113.272C317.334 113.052 317.079 112.721 317.079 112.216C317.079 111.71 317.424 111.284 317.789 111.044V110.999C317.354 110.664 316.949 110.068 316.949 109.307C316.949 107.88 318.084 107.044 319.394 107.044C319.749 107.044 320.069 107.114 320.314 107.194H322.554V108.195H321.359C321.589 108.461 321.759 108.871 321.759 109.347C321.759 110.739 320.714 111.53 319.394 111.53C319.119 111.53 318.784 111.46 318.509 111.345C318.314 111.515 318.164 111.69 318.164 112C318.164 112.371 318.414 112.621 319.219 112.621H320.389C321.869 112.621 322.649 113.082 322.649 114.148C322.649 115.38 321.374 116.366 319.354 116.366C317.829 116.366 316.724 115.805 316.724 114.699H316.734ZM321.374 114.363C321.374 113.833 320.959 113.673 320.204 113.673H319.249C318.949 113.673 318.664 113.648 318.399 113.582C318.019 113.858 317.869 114.178 317.869 114.504C317.869 115.114 318.499 115.49 319.544 115.49C320.644 115.49 321.369 114.949 321.369 114.363H321.374ZM320.589 109.307C320.589 108.466 320.064 107.975 319.394 107.975C318.724 107.975 318.199 108.456 318.199 109.307C318.199 110.158 318.739 110.664 319.394 110.664C320.049 110.664 320.589 110.158 320.589 109.307Z" fill="#717071"/>
<path d="M267.579 127.015H266.199V130.429H264.869V121.958H267.634C269.38 121.958 270.69 122.579 270.69 124.416C270.69 125.728 269.99 126.509 268.919 126.844L270.985 130.434H269.48L267.574 127.02L267.579 127.015ZM267.479 125.948C268.694 125.948 269.375 125.443 269.375 124.421C269.375 123.4 268.694 123.039 267.479 123.039H266.204V125.948H267.479Z" fill="#717071"/>
<path d="M272.99 122.119C272.99 121.658 273.325 121.338 273.815 121.338C274.305 121.338 274.63 121.658 274.63 122.119C274.63 122.615 274.295 122.925 273.815 122.925C273.335 122.925 272.99 122.615 272.99 122.119ZM273.15 124.096H274.47V130.43H273.15V124.096Z" fill="#717071"/>
<path d="M276.87 127.271C276.87 125.168 278.33 123.946 279.995 123.946C280.8 123.946 281.386 124.267 281.846 124.672L281.191 125.533C280.845 125.233 280.49 125.038 280.065 125.038C278.995 125.038 278.24 125.934 278.24 127.271C278.24 128.607 278.975 129.488 280.02 129.488C280.55 129.488 281.02 129.248 281.401 128.913L281.951 129.799C281.366 130.315 280.62 130.59 279.895 130.59C278.185 130.59 276.875 129.373 276.875 127.266L276.87 127.271Z" fill="#717071"/>
<path d="M283.371 127.271C283.371 125.213 284.781 123.946 286.251 123.946C287.926 123.946 288.836 125.153 288.836 126.935C288.836 127.201 288.801 127.451 288.766 127.616H284.666C284.771 128.823 285.526 129.549 286.616 129.549C287.176 129.549 287.661 129.378 288.121 129.078L288.581 129.919C288.006 130.31 287.271 130.595 286.456 130.595C284.721 130.595 283.366 129.363 283.366 127.271H283.371ZM287.686 126.695C287.686 125.613 287.191 124.993 286.276 124.993C285.486 124.993 284.781 125.588 284.656 126.695H287.686Z" fill="#717071"/>
<path d="M294.737 121.958H299.742V123.084H296.067V125.673H299.202V126.789H296.067V130.434H294.737V121.963V121.958Z" fill="#717071"/>
<path d="M301.823 122.119C301.823 121.658 302.158 121.338 302.648 121.338C303.138 121.338 303.463 121.658 303.463 122.119C303.463 122.615 303.128 122.925 302.648 122.925C302.168 122.925 301.823 122.615 301.823 122.119ZM301.982 124.096H303.303V130.43H301.982V124.096Z" fill="#717071"/>
<path d="M305.703 127.271C305.703 125.213 307.113 123.946 308.583 123.946C310.258 123.946 311.168 125.153 311.168 126.935C311.168 127.201 311.133 127.451 311.098 127.616H306.998C307.103 128.823 307.858 129.549 308.948 129.549C309.508 129.549 309.993 129.378 310.453 129.078L310.913 129.919C310.338 130.31 309.603 130.595 308.788 130.595C307.053 130.595 305.698 129.363 305.698 127.271H305.703ZM310.023 126.695C310.023 125.613 309.528 124.993 308.608 124.993C307.818 124.993 307.118 125.588 306.988 126.695H310.018H310.023Z" fill="#717071"/>
<path d="M313.513 128.938V121.268H314.834V129.008C314.834 129.363 314.984 129.488 315.144 129.488C315.204 129.488 315.249 129.488 315.374 129.463L315.534 130.465C315.374 130.535 315.154 130.59 314.824 130.59C313.868 130.59 313.513 129.969 313.513 128.933V128.938Z" fill="#717071"/>
<path d="M317.369 127.27C317.369 125.213 318.669 123.946 320.069 123.946C320.804 123.946 321.264 124.211 321.769 124.657L321.724 123.611V121.268H323.044V130.429H321.964L321.849 129.719H321.814C321.344 130.199 320.689 130.595 319.964 130.595C318.394 130.595 317.369 129.378 317.369 127.27ZM321.724 128.707V125.623C321.254 125.198 320.804 125.047 320.334 125.047C319.459 125.047 318.739 125.889 318.739 127.255C318.739 128.622 319.299 129.473 320.289 129.473C320.814 129.473 321.264 129.243 321.724 128.702V128.707Z" fill="#717071"/>
<path d="M325.225 129.709L325.855 128.848C326.405 129.298 326.96 129.583 327.635 129.583C328.38 129.583 328.74 129.213 328.74 128.732C328.74 128.157 328.04 127.906 327.35 127.641C326.51 127.321 325.58 126.87 325.58 125.804C325.58 124.737 326.43 123.951 327.83 123.951C328.67 123.951 329.38 124.297 329.875 124.697L329.265 125.513C328.815 125.193 328.37 124.962 327.865 124.962C327.155 124.962 326.83 125.308 326.83 125.744C326.83 126.274 327.45 126.479 328.15 126.745C329.025 127.08 330 127.471 330 128.652C330 129.724 329.16 130.595 327.6 130.595C326.725 130.595 325.83 130.214 325.225 129.709Z" fill="#717071"/>
<path d="M316.524 28.2469C318.124 28.5273 319.699 28.9528 321.209 29.5536C321.229 29.5586 321.234 29.5736 321.234 29.5886C321.249 29.6988 321.214 29.9892 321.209 30.1193C320.994 33.8241 319.764 38.0346 317.519 41.0185C313.394 46.5106 306.843 47.0063 300.582 45.4292C299.727 45.2139 298.887 44.9586 298.047 44.6933C298.062 44.3979 298.092 44.0875 298.132 43.7871C298.932 37.569 301.397 31.1457 307.693 28.8226C310.448 27.8063 313.644 27.7312 316.529 28.2369L316.524 28.2469Z" fill="#2E59A6"/>
<path d="M288.341 28.8273C294.637 31.1453 297.102 37.5686 297.902 43.7917C297.942 44.0921 297.972 44.4025 297.987 44.6979C297.147 44.9682 296.307 45.2186 295.452 45.4338C289.191 47.0109 282.641 46.5153 278.515 41.0231C276.275 38.0392 275.04 33.8288 274.825 30.124C274.815 29.9938 274.785 29.7034 274.8 29.5933C274.8 29.5732 274.805 29.5632 274.825 29.5582C276.33 28.9524 277.91 28.5319 279.51 28.2515C282.391 27.7459 285.591 27.821 288.346 28.8373L288.341 28.8273Z" fill="#5D97C4"/>
<path d="M316.524 47.6522C318.124 47.9325 319.699 48.3581 321.209 48.9589C321.229 48.9639 321.234 48.9789 321.234 48.9939C321.249 49.1041 321.214 49.3944 321.209 49.5246C320.994 53.2294 319.764 57.4399 317.519 60.4238C313.394 65.9159 306.843 66.4115 300.582 64.8345C299.727 64.6192 298.887 64.3639 298.047 64.0985C298.062 63.8031 298.092 63.4927 298.132 63.1924C298.932 56.9743 301.397 50.5509 307.693 48.2279C310.448 47.2116 313.644 47.1365 316.529 47.6422L316.524 47.6522Z" fill="#2E59A6"/>
<path d="M288.341 48.2374C294.637 50.5554 297.102 56.9788 297.902 63.2019C297.942 63.5023 297.972 63.8127 297.987 64.1081C297.147 64.3784 296.307 64.6287 295.452 64.844C289.191 66.4211 282.641 65.9254 278.515 60.4333C276.275 57.4494 275.04 53.2389 274.825 49.5341C274.815 49.404 274.785 49.1136 274.8 49.0034C274.8 48.9834 274.805 48.9734 274.825 48.9684C276.33 48.3626 277.91 47.9421 279.51 47.6617C282.391 47.156 285.591 47.2311 288.346 48.2475L288.341 48.2374Z" fill="#5D97C4"/>
<path d="M316.524 67.0623C318.124 67.3427 319.699 67.7682 321.209 68.369C321.229 68.374 321.234 68.3891 321.234 68.4041C321.249 68.5142 321.214 68.8046 321.209 68.9348C320.994 72.6396 319.764 76.85 317.519 79.8339C313.394 85.3261 306.843 85.8217 300.582 84.2446C299.727 84.0294 298.887 83.774 298.047 83.5087C298.062 83.2133 298.092 82.9029 298.132 82.6025C298.932 76.3844 301.397 69.9611 307.693 67.6381C310.448 66.6218 313.644 66.5467 316.529 67.0523L316.524 67.0623Z" fill="#2E59A6"/>
<path d="M288.341 67.6476C294.637 69.9656 297.102 76.3889 297.902 82.612C297.942 82.9124 297.972 83.2228 297.987 83.5182C297.147 83.7886 296.307 84.0389 295.452 84.2542C289.191 85.8312 282.641 85.3356 278.515 79.8434C276.275 76.8596 275.04 72.6491 274.825 68.9443C274.815 68.8141 274.785 68.5237 274.8 68.4136C274.8 68.3936 274.805 68.3835 274.825 68.3785C276.33 67.7728 277.91 67.3522 279.51 67.0718C282.391 66.5662 285.591 66.6413 288.346 67.6576L288.341 67.6476Z" fill="#5D97C4"/>
<path d="M294.277 6.6084C292.252 8.86633 290.601 11.69 290.081 14.5888C288.976 20.7618 293.022 25.7983 297.987 29.5031V3.20898C296.622 4.21529 295.387 5.36679 294.277 6.60339V6.6084Z" fill="#5D97C4"/>
<path d="M305.893 14.5886C305.373 11.6899 303.728 8.86621 301.697 6.60828C300.582 5.36666 299.347 4.21517 297.987 3.21387V29.508C302.953 25.8032 306.998 20.7667 305.893 14.5936V14.5886Z" fill="#2E59A6"/>
<path d="M35.5332 53.6902C29.9927 52.7189 23.8422 52.8591 18.5467 54.8116C6.44559 59.2724 1.70015 71.6235 0.165015 83.579C0.0900082 84.1548 0.0300027 84.7505 0 85.3213C1.61015 85.8369 3.23029 86.3276 4.87044 86.7381C16.9115 89.7721 29.5027 88.8158 37.4384 78.2571C41.7488 72.5196 44.119 64.4241 44.534 57.2999C44.544 57.1347 44.5741 56.8393 44.5841 56.594L40.0536 54.7015C38.5635 54.291 37.0534 53.9555 35.5282 53.6902H35.5332Z" fill="#2E59A6"/>
<path d="M44.5841 56.5943H44.595V56.5889L44.5841 56.5943Z" fill="#5D97C4"/>
<path d="M47.1893 47.667C50.6396 33.1031 44.589 11.0094 44.589 11.0094C53.4998 19.7508 52.5397 37.5739 51.3846 46.5055C55.575 44.8133 59.1853 41.6192 61.1405 37.0232C62.4806 33.8791 63.0307 30.8252 62.9607 27.8913C62.6657 15.9458 51.9697 6.03295 41.5537 0.25545C40.4486 -0.355343 39.0585 0.17034 38.6035 1.35187C38.0184 2.87886 37.2683 4.64615 37.1783 4.85643C36.0482 7.5349 34.0481 9.64264 32.3729 11.9757C27.0124 19.4554 23.8171 30.1092 28.3925 38.7404C31.4528 44.5179 37.0033 47.4768 42.7588 47.8623C41.9688 50.4907 40.8437 53.044 40.0436 54.7012L44.574 56.5936H44.584L47.1842 47.667H47.1893Z" fill="#5D97C4"/>
</g>
<defs>
<clipPath id="clip0_582_383">
<rect width="330" height="281" fill="white"/>
</clipPath>
</defs>
</svg>
