<svg width="1585" height="187" viewBox="0 0 1585 187" fill="none" xmlns="http://www.w3.org/2000/svg">
<g clip-path="url(#clip0_109_127)">
<path d="M1522.36 89.6601C1522.58 106.42 1536.35 119.84 1553.11 119.61C1569.87 119.39 1583.29 105.62 1583.06 88.8601C1582.83 72.1001 1569.07 58.6801 1552.31 58.9001C1535.55 59.1201 1522.13 72.8901 1522.35 89.6501L1522.36 89.6601Z" stroke="#BBD7EA" stroke-width="2" stroke-miterlimit="10"/>
<path d="M1166.27 19.2401C1166.27 19.2401 1166.19 19.3201 1166.11 19.3601C1164.12 20.6701 1162.25 22.2201 1160.63 23.9301C1141.74 40.8101 1129.81 65.2601 1129.52 92.4101C1129.49 93.2101 1129.46 94.0201 1129.47 94.8201C1129.48 95.6201 1129.53 96.4301 1129.58 97.2301C1130.58 124.36 1143.15 148.5 1162.48 164.87C1164.15 166.53 1166.06 168.04 1168.08 169.29L1168.24 169.41C1185.53 180.47 1206.66 186.62 1229.26 185.84C1234.76 185.65 1240.09 185.09 1245.26 184.14H1245.38C1253.04 183.68 1261.5 182.64 1270.8 181.03C1273.21 181.03 1276.01 180.48 1279.09 179.44C1279.33 179.4 1279.57 179.35 1279.85 179.31C1307.17 173.73 1341.54 167.05 1375.37 159.02C1377.34 158.91 1379.54 158.36 1381.97 157.45C1417.88 148.75 1452.56 138.49 1476.82 126.4C1476.9 126.36 1476.98 126.28 1477.06 126.28C1492.08 120.46 1502.48 107.67 1503.57 93.0001C1503.61 92.8401 1503.61 92.6401 1503.6 92.4401C1503.6 92.3201 1503.64 92.1601 1503.64 92.0001C1503.67 91.4401 1503.7 90.8301 1503.7 90.2701V89.9101C1503.57 80.3901 1499.56 71.5701 1492.84 64.7901C1487.06 58.9201 1479.29 54.5701 1470.35 52.5201C1446.36 42.2701 1414.04 33.7801 1381.05 26.5901C1378.59 25.6201 1376.21 25.1301 1374 25.0801C1339.08 17.6701 1303.95 11.7401 1277.57 6.7901C1277.45 6.7501 1277.29 6.7501 1277.17 6.7101C1274.83 5.9801 1272.58 5.6101 1270.41 5.5501C1260.59 3.9501 1251.7 2.9901 1243.75 2.6501C1238.28 1.7201 1232.61 1.2701 1226.82 1.2301C1204.21 1.0501 1183.25 7.7501 1166.25 19.2601L1166.27 19.2401Z" stroke="#BBD7EA" stroke-width="2" stroke-miterlimit="10"/>
<path d="M60.7107 98.3904C60.4907 81.6304 46.7207 68.2104 29.9607 68.4404C13.2007 68.6704 -0.219286 82.4304 0.000713593 99.1904C0.220714 115.95 13.9907 129.37 30.7507 129.15C47.5107 128.93 60.9307 115.16 60.7107 98.4004V98.3904Z" fill="#003893"/>
<path d="M416.811 168.821C416.811 168.821 416.891 168.741 416.971 168.701C418.961 167.391 420.831 165.841 422.451 164.131C441.341 147.251 453.271 122.801 453.561 95.6505C453.591 94.8505 453.621 94.0405 453.611 93.2405C453.601 92.4405 453.551 91.6305 453.501 90.8305C452.501 63.7005 439.931 39.5605 420.601 23.1905C418.931 21.5305 417.021 20.0205 415.001 18.7705L414.841 18.6505C397.551 7.5905 376.421 1.44051 353.821 2.22051C348.321 2.41051 342.991 2.97051 337.821 3.92051H337.701C330.041 4.38051 321.581 5.42051 312.281 7.03051C309.871 7.03051 307.071 7.58051 303.991 8.62051C303.751 8.66051 303.511 8.71051 303.231 8.75051C275.911 14.3305 241.541 21.0105 207.711 29.0405C205.741 29.1505 203.541 29.7005 201.111 30.6105C165.201 39.3105 130.521 49.5705 106.261 61.6605C106.181 61.7005 106.101 61.7805 106.021 61.7805C91.0009 67.6005 80.6009 80.3905 79.5109 95.0605C79.4709 95.2205 79.4709 95.4205 79.4809 95.6205C79.4809 95.7405 79.4409 95.9005 79.4409 96.0605C79.4109 96.6205 79.3809 97.2305 79.3809 97.7905V98.1505C79.5109 107.671 83.5209 116.49 90.2409 123.271C96.0209 129.141 103.791 133.49 112.731 135.54C136.721 145.79 169.041 154.281 202.031 161.471C204.491 162.441 206.871 162.93 209.081 162.98C244.001 170.39 279.131 176.321 305.511 181.271C305.631 181.311 305.791 181.311 305.911 181.351C308.251 182.081 310.501 182.45 312.671 182.51C322.491 184.11 331.381 185.071 339.331 185.411C344.801 186.341 350.471 186.791 356.261 186.831C378.871 187.011 399.831 180.311 416.831 168.801L416.811 168.821Z" fill="#003893"/>
<path d="M333.761 104.73C333.041 105.87 332.161 106.86 331.251 107.6C331.051 107.33 330.591 106.78 330.301 106.53C331.631 105.57 332.821 104.04 333.501 102.41L334.811 102.78C334.681 103.08 334.541 103.37 334.381 103.67H343.021V104.72H333.761V104.73ZM334.381 112.71C333.721 113.83 332.541 115 331.441 115.59C331.251 115.29 330.861 114.86 330.591 114.63C331.641 114.17 332.791 113.23 333.381 112.34L334.371 112.71H334.381ZM335.901 111.99V115.62H334.651V111.99H330.921V110.94H334.651V108.61H335.901V110.94H337.351L336.511 110.61C336.931 110.08 337.421 109.27 337.681 108.72L338.881 109.11C338.381 109.79 337.831 110.48 337.401 110.94H339.471V111.99H335.901ZM332.841 108.68C333.291 109.21 333.731 109.93 333.911 110.42L332.841 110.87C332.681 110.38 332.251 109.65 331.831 109.11L332.841 108.68ZM341.191 107.25C341.161 111.47 341.291 114.29 342.301 114.29C342.571 114.29 342.651 113.47 342.661 112.24C342.931 112.54 343.281 112.87 343.551 113.07C343.451 114.91 343.181 115.61 342.221 115.61C340.161 115.61 339.891 112.73 339.841 108.29H331.851V107.24H341.181L341.191 107.25ZM333.401 106.49V105.48H341.871V106.49H333.401ZM337.091 112.32C338.001 112.97 339.181 113.89 339.771 114.51L338.931 115.33C338.371 114.71 337.221 113.73 336.311 113.04L337.091 112.32Z" fill="white"/>
<path d="M358.001 113.17C357.401 113.49 356.671 113.76 356.001 114C356.891 114.3 357.921 114.48 359.021 114.58C358.791 114.8 358.531 115.2 358.401 115.47C355.741 115.14 353.601 114.25 352.411 112.66C351.811 113.02 351.061 113.32 350.221 113.58V114.39L353.131 113.9C353.101 114.17 353.121 114.58 353.131 114.78C349.621 115.43 349.151 115.56 348.851 115.72C348.781 115.47 348.611 115.07 348.461 114.9C348.691 114.8 349.021 114.6 349.021 114.04V113.91C348.141 114.13 347.231 114.3 346.371 114.4C346.241 114.15 345.981 113.79 345.781 113.59C347.361 113.45 349.151 113.11 350.501 112.67H346.051V111.93H349.681V111.47H347.171V110.79H349.681V110.36H346.891V109.67H349.681V109.22H347.941V107.52H351.991V109.22H351.001V109.67H353.811V109.22H352.761V107.52H356.851V109.22H355.121V109.67H358.091V110.36H355.121V110.79H357.741V111.47H355.121V111.93H358.811V112.67H357.251L358.001 113.17ZM347.321 108.18H346.151V106.47H351.721V106.02H347.731V104.29H351.721V103.87H346.451V103.09H351.721V102.41H353.051V103.09H358.351V103.87H353.051V104.29H357.311V106.02H353.051V106.47H358.701V108.18H357.481V107.13H347.321V108.18ZM351.731 105.39V104.9H348.961V105.39H351.731ZM349.001 108.65H350.901V108.1H349.001V108.65ZM351.001 110.8H353.811V110.37H351.001V110.8ZM351.001 111.93H353.811V111.47H351.001V111.93ZM353.061 104.9V105.39H356.041V104.9H353.061ZM353.561 112.67C353.931 113.03 354.381 113.32 354.911 113.59C355.631 113.32 356.451 112.97 357.011 112.67H353.551H353.561ZM353.791 108.65H355.751V108.1H353.791V108.65Z" fill="white"/>
<path d="M372.621 114.12C373.151 114.12 373.251 113.79 373.311 111.89C373.611 112.12 374.191 112.35 374.531 112.42C374.391 114.71 374.041 115.34 372.721 115.34H370.661C369.211 115.34 368.822 114.92 368.822 113.55V109.23L366.922 109.33C366.662 112.38 365.911 114.46 362.311 115.57C362.171 115.21 361.811 114.69 361.521 114.42C364.731 113.54 365.311 111.91 365.521 109.42C363.721 109.52 363.291 109.58 362.931 109.69C362.861 109.42 362.632 108.73 362.452 108.34C362.822 108.25 363.172 107.89 363.672 107.3C363.942 107.03 364.461 106.38 365.051 105.54H361.691V104.26H365.911C366.301 103.67 366.661 103.04 366.991 102.4L368.501 102.89C368.241 103.35 367.941 103.81 367.651 104.26H374.121V105.54H366.762C366.072 106.5 365.332 107.4 364.632 108.18L370.681 107.92C370.181 107.4 369.631 106.88 369.121 106.45L370.211 105.82C371.451 106.83 372.931 108.3 373.621 109.32L372.411 110.04C372.241 109.75 371.991 109.44 371.721 109.08L370.181 109.17V113.56C370.181 114.04 370.271 114.12 370.831 114.12H372.602H372.621Z" fill="white"/>
<path d="M380.2 104.73C379.48 105.87 378.6 106.86 377.69 107.6C377.49 107.33 377.03 106.78 376.74 106.53C378.07 105.57 379.26 104.04 379.94 102.41L381.25 102.78C381.12 103.08 380.98 103.37 380.82 103.67H389.46V104.72H380.2V104.73ZM380.82 112.71C380.16 113.83 378.98 115 377.88 115.59C377.69 115.29 377.3 114.86 377.03 114.63C378.08 114.17 379.23 113.23 379.82 112.34L380.81 112.71H380.82ZM382.35 111.99V115.62H381.1V111.99H377.37V110.94H381.1V108.61H382.35V110.94H383.8L382.96 110.61C383.38 110.08 383.87 109.27 384.13 108.72L385.33 109.11C384.83 109.79 384.28 110.48 383.85 110.94H385.92V111.99H382.35ZM379.28 108.68C379.73 109.21 380.17 109.93 380.35 110.42L379.28 110.87C379.12 110.38 378.69 109.65 378.27 109.11L379.28 108.68ZM387.64 107.25C387.61 111.47 387.74 114.29 388.75 114.29C389.02 114.29 389.1 113.47 389.11 112.24C389.38 112.54 389.73 112.87 390 113.07C389.9 114.91 389.63 115.61 388.67 115.61C386.61 115.61 386.34 112.73 386.29 108.29H378.3V107.24H387.63L387.64 107.25ZM379.84 106.49V105.48H388.31V106.49H379.84ZM383.53 112.32C384.44 112.97 385.62 113.89 386.21 114.51L385.37 115.33C384.81 114.71 383.66 113.73 382.75 113.04L383.53 112.32Z" fill="white"/>
<path d="M299.621 130.691C300.901 132.431 302.981 134.091 304.941 134.941C304.621 135.211 304.211 135.751 303.961 136.091C302.151 135.181 300.301 133.551 298.931 131.771V136.801H297.521V131.831C296.151 133.601 294.311 135.161 292.511 136.081C292.281 135.751 291.831 135.231 291.531 134.941C293.491 134.081 295.551 132.431 296.821 130.691H291.951V129.361H297.521V127.171H292.981V125.851H297.521V123.591H298.931V125.851H303.581V127.171H298.931V129.361H304.591V130.691H299.621Z" fill="white"/>
<path d="M319.091 131.871C318.641 131.381 317.811 130.661 317.021 130.001C316.691 130.581 316.311 131.081 315.901 131.481C315.671 131.291 315.151 130.961 314.821 130.801C316.131 132.601 318.251 134.201 320.411 135.011C320.061 135.281 319.631 135.851 319.401 136.221C317.531 135.381 315.741 133.931 314.391 132.221V136.801H312.981V132.261C311.611 133.951 309.831 135.371 308.011 136.211C307.791 135.881 307.381 135.331 307.061 135.071C309.381 134.151 311.701 132.231 312.981 130.221V126.791H307.611V125.491H312.981V123.591H314.391V125.491H319.941V126.791H314.391V130.151C314.521 130.371 314.651 130.571 314.791 130.771C315.781 129.911 316.451 128.551 316.761 127.041L318.061 127.271C317.931 127.831 317.771 128.381 317.561 128.881C318.441 129.561 319.491 130.391 320.051 130.951L319.101 131.871H319.091ZM311.311 127.281C311.171 127.861 310.991 128.391 310.781 128.911C311.361 129.401 311.961 129.961 312.311 130.341L311.401 131.291C311.141 130.961 310.691 130.511 310.221 130.071C309.741 130.921 309.151 131.641 308.481 132.201C308.261 131.951 307.731 131.511 307.441 131.321C308.721 130.371 309.601 128.841 310.021 127.041L311.321 127.291L311.311 127.281Z" fill="white"/>
<path d="M335.39 125.821C335.39 125.821 335.39 126.281 335.38 126.451C335.18 132.951 335.01 135.181 334.43 135.901C334.07 136.381 333.72 136.501 333.18 136.581C332.68 136.641 331.83 136.621 331 136.581C330.97 136.221 330.81 135.661 330.57 135.281C331.49 135.351 332.33 135.371 332.69 135.371C332.98 135.371 333.14 135.331 333.29 135.121C333.75 134.651 333.94 132.471 334.13 127.041H330.73C330.33 127.961 329.88 128.801 329.42 129.461C329.2 129.261 328.7 128.901 328.37 128.711V135.321H324.47V136.411H323.25V125.881H324.86C325.06 125.191 325.28 124.241 325.36 123.551L326.81 123.801C326.57 124.521 326.29 125.281 326.06 125.891H328.36V128.611C329.31 127.371 330.07 125.451 330.51 123.551L331.81 123.851C331.64 124.511 331.45 125.181 331.22 125.811H335.4L335.39 125.821ZM324.46 127.061V129.801H327.14V127.061H324.46ZM327.14 134.151V130.971H324.46V134.151H327.14ZM331.94 133.031C331.54 132.151 330.6 130.741 329.84 129.701L330.89 129.111C331.65 130.101 332.63 131.471 333.07 132.321L331.95 133.031H331.94Z" fill="white"/>
<path d="M348.111 123.89C348.021 124.06 347.921 124.22 347.851 124.38C349.021 125.78 350.271 126.86 351.511 127.72C351.211 127.98 350.821 128.4 350.651 128.77C350.291 128.48 349.941 128.18 349.601 127.86V128.54H344.961V128.01C344.631 128.33 344.301 128.6 343.971 128.86C343.811 128.59 343.551 128.26 343.281 128V132.34H341.511V133.36H343.511V134.5H341.511V136.8H340.311V134.5H338.111V133.36H340.311V132.34H338.521V127.15H340.291V126.19H338.241V125.05H340.291V123.59H341.491V125.05H343.511V126.19H341.491V127.15H343.281V127.73C344.751 126.74 346.281 125.09 347.151 123.45L348.121 123.9L348.111 123.89ZM339.511 129.27H340.431V128.13H339.511V129.27ZM339.511 131.37H340.431V130.2H339.511V131.37ZM342.251 128.13H341.371V129.27H342.251V128.13ZM342.251 130.2H341.371V131.37H342.251V130.2ZM350.701 135.5C350.701 135.99 350.631 136.34 350.351 136.52C350.061 136.72 349.721 136.74 349.201 136.74C349.161 136.42 349.001 135.93 348.851 135.63C349.151 135.64 349.401 135.64 349.481 135.64C349.581 135.63 349.621 135.6 349.621 135.47V133.57H348.701V136.54H347.731V133.57H346.821V136.54H345.871V133.57H344.951V136.78H343.901V129.64H350.681V135.5H350.701ZM345.891 132.49V130.73H344.971V132.49H345.891ZM349.151 127.45C348.521 126.83 347.871 126.15 347.221 125.36C346.701 126.11 346.131 126.82 345.521 127.45H349.151ZM347.751 132.49V130.73H346.841V132.49H347.751ZM349.641 132.49V130.73H348.721V132.49H349.641Z" fill="white"/>
<path d="M355.761 125.901V129.131C355.761 131.361 355.591 134.691 354.481 136.881C354.261 136.631 353.731 136.231 353.461 136.101C354.451 134.071 354.531 131.201 354.531 129.131V124.761H359.951C359.851 124.461 359.691 124.161 359.551 123.881L360.851 123.521C361.071 123.901 361.311 124.371 361.471 124.761H366.641V125.901H355.781H355.761ZM359.601 133.521C360.351 133.481 361.131 133.431 361.901 133.391V134.341L359.601 134.501V135.611C359.601 136.141 359.501 136.391 359.111 136.551C358.711 136.691 358.121 136.691 357.251 136.691C357.211 136.401 357.051 136.041 356.901 135.751C357.491 135.781 358.081 135.781 358.241 135.761C358.411 135.761 358.461 135.721 358.461 135.561V134.551L355.951 134.711L355.851 133.691C356.571 133.661 357.461 133.621 358.461 133.571V133.051C358.811 132.891 359.181 132.681 359.511 132.451H356.461V131.561H360.671L360.931 131.491L361.611 132.081C361.051 132.551 360.341 133.001 359.611 133.351V133.521H359.601ZM361.781 128.061H356.221V127.081H358.421C358.291 126.791 358.151 126.501 358.021 126.261L359.261 125.911C359.461 126.261 359.711 126.721 359.851 127.081H361.781V128.061ZM356.751 130.971V128.611H361.321V130.971H356.751ZM357.791 130.251H360.251V129.361H357.791V130.251ZM366.721 127.121C366.301 128.161 365.771 129.381 365.291 130.391C366.301 131.431 366.571 132.351 366.591 133.141C366.591 133.951 366.401 134.511 365.961 134.841C365.731 134.981 365.471 135.071 365.151 135.111C364.861 135.151 364.461 135.151 364.111 135.141C364.101 134.811 363.971 134.291 363.761 133.971C364.091 134.001 364.381 134.011 364.611 134.001C364.781 134.001 364.941 133.961 365.061 133.881C365.281 133.741 365.351 133.431 365.351 133.021C365.351 132.361 365.081 131.511 364.071 130.511C364.461 129.651 364.851 128.591 365.141 127.761H363.441V136.841H362.291V126.681H365.631L365.831 126.621L366.721 127.111V127.121Z" fill="white"/>
<path d="M368.932 130.091C369.282 129.131 369.532 127.541 369.642 126.391L370.652 126.531C370.592 127.711 370.332 129.371 369.972 130.431L368.932 130.081V130.091ZM373.202 129.051C373.042 128.371 372.652 127.261 372.252 126.401V136.811H370.972V123.601H372.252V126.291L373.112 125.931C373.532 126.791 373.992 127.931 374.152 128.611L373.202 129.041V129.051ZM381.602 135.271C381.602 135.931 381.462 136.321 381.002 136.521C380.552 136.741 379.832 136.741 378.772 136.741C378.732 136.411 378.542 135.831 378.402 135.501C379.122 135.531 379.842 135.531 380.072 135.511C380.272 135.511 380.342 135.441 380.342 135.241V132.951C378.872 133.341 377.342 133.711 376.132 134.001L375.712 132.881C376.912 132.631 378.632 132.261 380.332 131.861V128.811H375.612V131.791C375.612 133.391 375.482 135.521 374.672 136.901C374.442 136.671 373.912 136.281 373.622 136.141C374.312 134.901 374.372 133.171 374.372 131.781V127.651H377.442V123.601H378.722V127.651H381.602V135.281V135.271ZM375.442 127.241C375.252 126.521 374.682 125.381 374.112 124.561L375.202 124.041C375.782 124.851 376.372 125.931 376.582 126.651L375.432 127.241H375.442ZM376.482 129.611C377.662 129.861 379.172 130.361 379.982 130.781L379.422 131.721C378.642 131.291 377.132 130.731 375.952 130.451L376.482 129.611ZM382.112 124.441C381.652 125.391 381.092 126.431 380.632 127.131L379.522 126.681C379.972 125.951 380.562 124.791 380.862 123.961L382.112 124.441Z" fill="white"/>
<path d="M384.521 136.31C385.141 135.65 385.871 134.52 386.331 133.54L387.581 133.87C387.101 134.88 386.401 136.06 385.771 136.82L384.521 136.3V136.31ZM391.551 125.1C390.701 129.36 388.511 131.91 385.721 133.17C385.531 132.88 385.071 132.36 384.781 132.16C386.481 131.45 387.921 130.3 388.911 128.66C388.421 128.16 387.662 127.54 386.952 127.05C386.402 127.83 385.771 128.53 385.091 129.08C384.971 128.78 384.701 128.2 384.531 127.93C385.861 126.83 386.941 125.01 387.441 123.45L388.711 123.83C388.581 124.16 388.422 124.51 388.262 124.85H390.482L390.741 124.79L391.551 125.11V125.1ZM387.922 129.57C386.942 129.92 386.001 130.23 385.151 130.51L384.852 129.47C385.632 129.3 386.661 129.01 387.771 128.74L387.911 129.57H387.922ZM387.702 125.91L387.482 126.26C388.132 126.69 388.881 127.24 389.411 127.7C389.651 127.15 389.872 126.56 390.042 125.91H387.691H387.702ZM390.051 133.88C390.221 134.73 390.381 135.85 390.401 136.52L389.102 136.69C389.092 136.01 388.971 134.89 388.801 134.01L390.051 133.88ZM396.521 133.08C396.121 131.96 395.181 130.24 394.241 128.74C393.761 130.34 392.801 132 390.781 133.35C390.551 133.08 390.101 132.72 389.771 132.49C391.891 131.06 392.782 129.35 393.142 127.78H391.211V126.51H393.341C393.371 126.15 393.382 125.79 393.382 125.47V123.77H394.651V125.48C394.651 125.8 394.641 126.16 394.621 126.5H397.602V127.77H395.021C396.091 129.34 397.212 131.26 397.732 132.51L396.512 133.07L396.521 133.08ZM392.971 133.78C393.341 134.6 393.702 135.71 393.852 136.4L392.542 136.66C392.422 135.97 392.081 134.85 391.721 133.98L392.971 133.78ZM395.841 133.43C396.521 134.29 397.352 135.49 397.732 136.27L396.461 136.85C396.131 136.07 395.341 134.85 394.661 133.94L395.841 133.44V133.43ZM396.331 126.33C396.061 125.81 395.452 124.99 394.922 124.39L395.892 123.86C396.442 124.42 397.071 125.2 397.341 125.73L396.331 126.33Z" fill="white"/>
<path d="M412.271 128.5C411.671 130.36 410.821 131.99 409.761 133.37C410.251 134.59 410.811 135.34 411.421 135.34C411.791 135.34 411.971 134.61 412.051 132.75C412.371 133.07 412.841 133.37 413.201 133.5C412.981 136.04 412.491 136.71 411.311 136.71C410.261 136.71 409.421 135.9 408.771 134.55C407.951 135.42 407.041 136.15 406.051 136.75C405.851 136.46 405.371 135.9 405.071 135.66C406.271 135 407.331 134.16 408.211 133.14C407.691 131.51 407.361 129.45 407.191 127.21H402.581V128.95H406.201V129.47C406.131 132.59 406.061 133.83 405.751 134.24C405.491 134.54 405.221 134.66 404.831 134.7C404.471 134.76 403.821 134.76 403.131 134.73C403.101 134.34 402.971 133.82 402.771 133.48C403.361 133.54 403.921 133.55 404.151 133.55C404.351 133.55 404.501 133.51 404.601 133.38C404.761 133.18 404.841 132.36 404.891 130.18H402.591C402.581 132.23 402.331 135.11 401.061 136.97C400.831 136.7 400.241 136.22 399.941 136.05C401.091 134.32 401.191 131.84 401.191 129.99V125.91H407.111C407.071 125.16 407.041 124.38 407.041 123.62H408.451C408.441 124.4 408.451 125.16 408.491 125.91H411.271C410.711 125.43 409.771 124.82 409.011 124.4L409.821 123.58C410.671 124.03 411.751 124.69 412.311 125.18L411.621 125.91H413.091V127.22H408.571C408.711 128.93 408.941 130.49 409.281 131.77C409.971 130.7 410.501 129.51 410.921 128.18L412.271 128.51V128.5Z" fill="white"/>
<path d="M421.86 130.39V136.81H420.55V130.39H418.52C418.46 132.75 418.09 135.09 416.39 136.92C416.19 136.65 415.7 136.2 415.4 136.01C416.88 134.4 417.21 132.41 417.27 130.39H415.51V129.14H417.28V125.7H415.74V124.46H423.13V125.7H421.86V129.14H423.33V130.39H421.86ZM420.55 129.14V125.7H418.53V129.14H420.55ZM428.79 132.08C427.58 134.1 425.62 135.75 423.46 136.8C423.24 136.45 422.86 136.01 422.51 135.72C424.54 134.87 426.49 133.34 427.52 131.57L428.79 132.07V132.08ZM428.14 124.33C427.07 125.68 425.49 126.97 424.03 127.79C423.8 127.49 423.43 127.08 423.06 126.84C424.41 126.15 426.01 124.97 426.86 123.83L428.13 124.33H428.14ZM428.46 128.26C427.37 129.67 425.71 131.04 424.2 131.92C423.98 131.63 423.6 131.23 423.25 130.97C424.66 130.24 426.35 128.98 427.24 127.74L428.46 128.26Z" fill="white"/>
<path d="M338.99 83.61C339.53 83.33 340.04 82.99 340.6 82.77C345.13 80.92 348.37 77.56 351.18 73.71C353.19 70.95 355 68.04 357.12 65.37C361.53 59.83 367.04 55.65 373.84 53.54C379.76 51.71 385.82 51.58 391.66 54C395.68 55.67 398.82 58.41 400.5 62.56C401.73 65.61 402.73 68.71 402.68 72.08C402.63 75.86 400.88 78.57 397.81 80.55C393.99 83.01 389.76 84.5 385.34 85.34C382.31 85.92 379.22 86.36 376.15 86.47C368.48 86.76 360.8 86.43 353.16 85.67C348.77 85.23 344.4 84.61 340.02 84.06C339.68 84.02 339.35 83.91 339.02 83.83C339.02 83.75 339.01 83.67 339 83.59L338.99 83.61Z" fill="white"/>
<path d="M326.821 92.1601C325.961 92.0401 325.091 91.9901 324.251 91.7801C320.471 90.8301 318.831 87.6301 320.211 83.9701C321.541 80.4201 325.231 78.4301 329.191 79.1201C332.691 79.7301 335.521 83.1301 335.491 86.7601C335.471 88.6501 334.461 90.0101 332.841 90.8101C330.971 91.7301 328.921 92.0501 326.831 92.1601H326.821Z" fill="white"/>
<path d="M497.9 136.05C472.61 93.1004 486.93 37.7804 529.88 12.5004C572.83 -12.7896 628.14 1.53039 653.43 44.4804C678.72 87.4304 664.4 142.75 621.45 168.03C578.5 193.32 523.18 179 497.89 136.05H497.9Z" fill="#2E59A6"/>
<path d="M613.331 56.4305C614.051 56.8005 614.161 57.4705 614.181 58.1805C614.271 60.9305 613.691 63.5705 612.791 66.1305C610.581 72.4105 606.711 77.3605 600.781 80.5305C597.121 82.4905 593.791 83.3105 590.091 83.9105C583.601 84.9605 579.041 84.9905 570.201 85.1905C568.121 85.2405 565.121 85.3105 561.421 85.4105C559.171 85.4705 557.631 83.1705 558.541 81.1205C558.541 81.1005 558.561 81.0805 558.571 81.0605C561.101 75.3205 561.911 71.5505 563.791 65.5505C565.721 59.3605 566.731 56.2905 567.571 54.7405C571.501 47.5005 577.951 43.7905 585.521 41.5305C591.041 39.8805 596.591 39.7905 601.961 41.7905C606.221 43.3705 609.381 46.4105 611.071 50.7705C612.331 54.0305 611.451 57.0805 609.921 59.9405C604.551 70.0105 596.201 76.1005 584.921 77.9205C580.691 78.6005 576.351 78.6105 572.091 79.1405C569.361 79.4905 566.671 80.2305 563.971 80.8305C563.731 80.8805 563.551 81.2105 563.341 81.4105C563.631 81.5305 563.941 81.7905 564.211 81.7405C566.031 81.4205 567.821 80.9005 569.651 80.7205C572.751 80.4105 575.871 80.2805 578.991 80.1305C585.371 79.8205 591.551 78.6905 597.131 75.4305C602.441 72.3305 606.831 68.4005 609.941 63.3805C610.161 63.0205 611.141 60.4405 612.911 57.1905C613.091 56.8605 613.241 56.5905 613.331 56.4305ZM601.611 64.2205C601.521 64.1505 601.421 64.0805 601.331 64.0205C600.941 64.3005 600.531 64.5605 600.181 64.8805C599.501 65.5005 598.901 66.2105 598.181 66.7905C594.091 70.0905 589.381 72.2105 584.431 73.8705C584.081 73.9905 583.811 74.3605 583.501 74.6105C583.911 74.7505 584.311 74.9505 584.721 75.0105C585.021 75.0505 585.341 74.9105 585.651 74.8405C590.161 73.7305 594.271 71.7405 597.981 68.9805C599.201 68.0705 600.141 66.7605 601.131 65.5805C601.421 65.2405 601.451 64.6905 601.601 64.2305L601.611 64.2205ZM579.851 48.7105C581.451 48.1505 583.021 47.6505 584.541 47.0305C584.791 46.9305 585.071 46.2205 584.951 46.0305C584.741 45.6905 584.231 45.3405 583.861 45.3505C583.181 45.3805 582.461 45.5605 581.861 45.8705C581.001 46.3205 580.221 46.9105 579.441 47.5005C579.271 47.6305 579.201 48.0205 579.261 48.2605C579.301 48.4305 579.621 48.5405 579.851 48.7005V48.7105ZM576.081 62.2905C575.861 62.0305 575.641 61.5505 575.351 61.4905C574.991 61.4205 574.371 61.6005 574.211 61.8705C573.561 62.9805 572.981 64.1405 572.521 65.3305C572.401 65.6405 572.761 66.1405 572.901 66.5605C573.281 66.3605 573.791 66.2705 574.021 65.9605C574.661 65.0705 575.201 64.0905 575.761 63.1405C575.881 62.9305 575.941 62.6805 576.091 62.2905H576.081ZM579.221 53.7105C579.231 52.7405 578.361 52.1705 577.771 52.7305C576.761 53.6905 575.911 54.8405 575.081 55.9805C574.941 56.1805 575.121 56.8605 575.351 57.0105C575.571 57.1505 576.151 57.0005 576.401 56.7805C577.241 56.0505 578.011 55.2505 578.771 54.4405C579.001 54.2005 579.131 53.8705 579.221 53.7105ZM568.501 60.4205C568.791 60.7405 568.971 61.1305 569.231 61.1905C569.491 61.2505 569.981 61.0605 570.091 60.8405C570.681 59.6605 571.251 58.4505 571.681 57.2005C571.791 56.8805 571.431 56.2205 571.101 56.0105C570.891 55.8805 570.101 56.1905 569.971 56.4905C569.411 57.7505 568.991 59.0705 568.501 60.4305V60.4205ZM567.151 70.7905C567.421 71.1205 567.631 71.6105 567.951 71.7005C568.221 71.7805 568.801 71.4705 568.931 71.1905C569.371 70.2205 569.741 69.2005 569.971 68.1605C570.041 67.8505 569.651 67.1905 569.351 67.1005C569.041 67.0105 568.371 67.3205 568.231 67.6305C567.791 68.6005 567.531 69.6505 567.161 70.8005L567.151 70.7905Z" fill="white"/>
<path d="M539.21 91.52C539.19 87.58 542.05 84.32 545.96 83.77C549.78 83.24 553.53 85.74 554.54 89.5C554.99 91.16 554.5 92.67 553.65 94.05C551.76 97.14 548.85 98.55 545.32 98.53C542.04 98.52 539.44 95.78 539.21 92.37C539.19 92.09 539.21 91.8 539.21 91.51V91.52Z" fill="white"/>
<path d="M566.08 120.831C565.86 120.431 565.39 119.751 564.96 119.161V125.091H563.66V119.271C563.13 120.581 562.46 121.821 561.82 122.631C561.69 122.261 561.37 121.711 561.17 121.391C562.02 120.411 562.94 118.701 563.49 117.171H561.44V115.901H563.66V113.941C563 114.081 562.33 114.191 561.72 114.271C561.66 113.971 561.49 113.521 561.33 113.231C562.93 112.971 564.74 112.551 565.82 112.081L566.74 113.101C566.22 113.301 565.6 113.491 564.95 113.661V115.891H566.64V117.161H564.95V117.821C565.37 118.181 566.59 119.431 566.85 119.761L566.07 120.811L566.08 120.831ZM574.59 123.771V124.851H565.99V123.771H569.79V122.831H566.79V121.791H569.79V120.931H566.92V116.261H569.79V115.451H566.39V114.381H569.79V113.571C568.8 113.631 567.82 113.671 566.89 113.691C566.86 113.421 566.72 112.951 566.59 112.701C568.97 112.611 571.83 112.381 573.48 112.051L574.27 113.031C573.38 113.231 572.27 113.381 571.09 113.481V114.391H574.3V115.461H571.09V116.271H574.04V120.941H571.09V121.801H574.09V122.841H571.09V123.781H574.59V123.771ZM568.11 118.181H569.8V117.211H568.11V118.181ZM569.8 119.981V119.021H568.11V119.981H569.8ZM571.09 117.221V118.191H572.82V117.221H571.09ZM572.82 119.021H571.09V119.981H572.82V119.021Z" fill="white"/>
<path d="M589.891 119.52H584.171V123.45C584.171 124.27 583.971 124.67 583.361 124.88C582.761 125.1 581.801 125.12 580.461 125.12C580.371 124.73 580.111 124.11 579.881 123.74C580.971 123.78 582.061 123.78 582.371 123.77C582.671 123.76 582.761 123.68 582.761 123.42V119.52H576.961V118.18H582.761V116.15C583.831 115.65 585.081 114.87 586.021 114.12H578.391V112.81H587.491L587.791 112.74L588.801 113.52C587.581 114.7 585.801 116 584.161 116.86V118.19H589.881V119.53L589.891 119.52Z" fill="white"/>
<path d="M543.441 142.91H537.621V144.96C537.621 145.65 537.481 146 536.961 146.18C536.461 146.37 535.691 146.4 534.551 146.4C534.491 146.02 534.291 145.49 534.101 145.16C534.911 145.19 535.741 145.19 535.971 145.17C536.201 145.17 536.271 145.11 536.271 144.92V142.9H530.451V141.69H536.271V140.64C536.851 140.37 537.471 139.96 538.001 139.56H533.621V138.8C533.061 139.48 532.311 140.05 531.291 140.53C531.151 140.21 530.791 139.74 530.481 139.51C532.871 138.53 533.531 136.73 533.811 134.87H531.161V133.7H539.761C539.631 134.39 539.491 135.17 539.331 135.86H542.931C542.931 135.86 542.921 136.18 542.901 136.35C542.741 138.6 542.601 139.5 542.271 139.88C542.041 140.13 541.811 140.23 541.481 140.27C541.211 140.3 540.731 140.31 540.231 140.3C540.221 140.03 540.141 139.68 540.041 139.41C539.331 140.03 538.481 140.62 537.621 141.1V141.7H543.441V142.91ZM535.171 134.87C535.001 136.15 534.651 137.36 533.931 138.41H539.361L539.651 138.34L540.491 139L540.291 139.19C540.531 139.2 540.721 139.2 540.841 139.2C541.011 139.2 541.111 139.17 541.211 139.06C541.351 138.89 541.481 138.33 541.581 136.97H537.791C537.951 136.39 538.121 135.63 538.271 134.87H535.171Z" fill="white"/>
<path d="M558.74 135.59H555.31C556.38 136.35 557.57 137.36 558.21 138.08L557.07 138.81H557.4V144.82C557.4 145.58 557.18 145.9 556.62 146.07C556.04 146.23 555.12 146.23 553.81 146.23C553.77 145.88 553.61 145.41 553.46 145.08C554.3 145.12 555.36 145.12 555.59 145.11C555.85 145.11 555.94 145.02 555.94 144.81V143.33C553.75 143.81 551.5 144.25 549.77 144.58L549.37 143.37C550.94 143.17 553.49 142.75 555.94 142.35V139.93H549.14V141.26C549.14 142.86 548.9 145.02 547.53 146.46C547.33 146.2 546.77 145.78 546.45 145.64C547.7 144.37 547.83 142.59 547.83 141.23V138.82H557.01C556.79 138.53 556.48 138.22 556.13 137.87C548.96 138.2 548.16 138.22 547.62 138.4C547.55 138.14 547.38 137.49 547.22 137.15C547.58 137.09 547.95 136.82 548.46 136.43C548.66 136.29 549.02 135.98 549.45 135.59H546.15V134.41H550.67C551.1 133.95 551.56 133.42 551.97 132.91L553.32 133.44C553.03 133.77 552.74 134.09 552.43 134.4H558.74V135.58V135.59ZM554.99 136.86C554.59 136.54 554.2 136.23 553.81 135.94L554.39 135.59H551.22C550.64 136.12 550.07 136.61 549.49 137.05L554.99 136.86ZM549.96 140.34C551.65 140.56 553.86 141.09 555.03 141.59L554.61 142.53C553.47 142.03 551.27 141.44 549.54 141.18L549.96 140.35V140.34Z" fill="white"/>
<path d="M563.801 135.85C563.271 136.5 562.661 137.1 562.071 137.56C561.911 137.31 561.521 136.74 561.281 136.48C562.461 135.63 563.611 134.32 564.281 132.95L565.481 133.34C565.251 133.79 564.991 134.23 564.691 134.67H573.851V135.85H563.811H563.801ZM574.281 141.39V142.6H561.591V141.39H563.681V139.23H562.041V138.02H563.681V136.56H564.881V138.02H566.161V136.56H567.301V138.02H568.711V136.56H569.851V138.02H571.201V136.56H572.441V138.02H573.981V139.23H572.441V141.39H574.281ZM561.661 145.82C562.161 145.13 562.801 144 563.191 143.05L564.471 143.38C564.081 144.36 563.481 145.57 562.961 146.33L561.661 145.81V145.82ZM564.871 141.39H566.151V139.23H564.871V141.39ZM566.841 143.4C567.011 144.25 567.171 145.36 567.191 146.02L565.881 146.21C565.871 145.53 565.761 144.41 565.591 143.54L566.841 143.4ZM567.291 139.23V141.39H568.701V139.23H567.291ZM569.771 143.28C570.141 144.11 570.521 145.22 570.651 145.92L569.321 146.18C569.201 145.49 568.871 144.37 568.511 143.52L569.761 143.29L569.771 143.28ZM569.841 139.23V141.39H571.191V139.23H569.841ZM572.661 142.98C573.221 143.82 573.911 145.01 574.241 145.75L572.931 146.33C572.641 145.6 571.981 144.37 571.431 143.46L572.651 142.98H572.661Z" fill="white"/>
<path d="M581.982 134.121C581.582 135.301 581.092 136.711 580.642 137.821C581.592 139.001 581.812 140.011 581.812 140.891C581.812 141.771 581.642 142.331 581.222 142.651C581.002 142.811 580.762 142.901 580.442 142.941C580.182 142.971 579.822 142.971 579.502 142.971C579.502 142.641 579.382 142.141 579.182 141.801C579.482 141.811 579.712 141.831 579.932 141.811C580.092 141.811 580.232 141.771 580.352 141.691C580.552 141.531 580.622 141.171 580.622 140.741C580.622 140.011 580.392 139.051 579.472 137.971C579.822 137.021 580.192 135.811 580.452 134.861H578.682V146.251H577.512V133.661H580.912L581.102 133.601L581.982 134.101V134.121ZM589.792 141.351C589.102 141.911 588.232 142.491 587.512 142.921C588.172 143.871 589.022 144.621 590.092 145.071C589.802 145.331 589.372 145.861 589.202 146.211C587.002 145.101 585.742 142.911 585.042 140.091H583.872V144.511L586.172 143.981C586.172 144.351 586.182 144.891 586.242 145.191C583.362 145.951 582.872 146.131 582.572 146.331C582.472 146.031 582.182 145.491 581.982 145.251C582.222 145.111 582.572 144.761 582.572 144.141V133.711H588.942V140.091H586.202C586.402 140.751 586.632 141.391 586.932 141.991C587.612 141.521 588.402 140.911 588.892 140.421L589.782 141.361L589.792 141.351ZM583.872 134.871V136.331H587.642V134.871H583.872ZM583.872 138.921H587.642V137.421H583.872V138.921Z" fill="white"/>
<path d="M605.301 135.42H603.591V144.52C603.591 145.38 603.371 145.83 602.771 146.03C602.151 146.28 601.141 146.29 599.701 146.29C599.631 145.9 599.351 145.24 599.141 144.85C600.231 144.91 601.431 144.89 601.781 144.89C602.101 144.88 602.201 144.79 602.201 144.49V135.41H592.521V134.07H605.311V135.41L605.301 135.42ZM595.211 142.72V143.84H593.911V137.3H599.841V142.72H595.201H595.211ZM595.211 138.57V141.45H598.521V138.57H595.211Z" fill="white"/>
<path d="M613.89 144.971C613.89 145.571 613.76 145.881 613.36 146.061C612.94 146.231 612.31 146.251 611.42 146.251C611.36 145.951 611.18 145.471 611 145.181C611.6 145.211 612.2 145.211 612.38 145.191C612.57 145.191 612.62 145.131 612.62 144.961V143.041C611.76 143.591 610.91 144.131 610.16 144.581L609.79 143.631C609.63 144.611 609.34 145.581 608.77 146.321C608.6 146.061 608.09 145.571 607.83 145.411C608.64 144.301 608.71 142.771 608.71 141.551V138.171H613.9V144.961L613.89 144.971ZM613.02 134.131C613.68 135.141 614.47 136.491 614.82 137.341L613.67 137.831C613.58 137.571 613.44 137.241 613.25 136.891C609.48 137.241 608.93 137.321 608.55 137.471C608.48 137.201 608.28 136.581 608.13 136.251C608.36 136.191 608.61 135.981 608.89 135.671C609.16 135.371 610.09 134.231 610.66 133.091L612.03 133.491C611.47 134.381 610.78 135.281 610.11 136.011L612.69 135.821C612.43 135.371 612.17 134.911 611.93 134.521L613.01 134.121L613.02 134.131ZM609.95 141.581C609.95 142.141 609.92 142.761 609.83 143.401C610.58 143.071 611.59 142.551 612.62 142.031V141.501L611.99 142.131C611.53 141.711 610.62 141.051 609.94 140.591L610.63 139.961C611.28 140.361 612.13 140.951 612.62 141.341V139.311H609.94V141.591L609.95 141.581ZM616.93 139.301C615.46 139.301 615.07 138.801 615.07 137.411V133.101H616.4V134.961H620.12V136.111H616.4V137.441C616.4 137.961 616.5 138.151 616.96 138.151H619.38C619.74 138.151 620.32 138.121 620.62 138.061C620.65 138.411 620.69 138.911 620.75 139.201C620.48 139.291 619.93 139.301 619.41 139.301H616.93ZM619.19 145.021C619.72 145.021 619.84 144.761 619.9 143.311C620.17 143.531 620.71 143.741 621.08 143.801C620.92 145.691 620.56 146.191 619.31 146.191H616.98C615.47 146.191 615.08 145.801 615.08 144.461V139.761H616.41V141.341H620.26V142.541H616.41V144.441C616.41 144.931 616.53 145.021 617.16 145.021H619.21H619.19Z" fill="white"/>
<path d="M713.4 139.77C688.11 96.8201 702.43 41.5001 745.38 16.2201C788.33 -9.06988 843.64 5.25012 868.93 48.2001C894.22 91.1501 879.9 146.47 836.95 171.75C794 197.04 738.68 182.72 713.39 139.77H713.4Z" fill="#5D97C4"/>
<path d="M792.22 120.69C791.54 124.48 789.93 127.24 787.91 128.71C787.68 128.39 787.16 127.88 786.83 127.66C788.57 126.51 789.93 124.43 790.59 121.75H787.31V120.4H791.08L791.32 120.34L792.21 120.69H792.22ZM799.15 120.29C798.16 121.37 796.9 122.61 795.89 123.46C797.04 125.17 798.57 126.6 800.31 127.41C799.99 127.68 799.53 128.23 799.32 128.63C797.17 127.49 795.47 125.46 794.25 123.03V128.29C794.25 129.11 794.08 129.54 793.59 129.77C793.1 130.02 792.34 130.07 791.21 130.07C791.14 129.67 790.92 128.98 790.71 128.57C791.52 128.61 792.27 128.61 792.51 128.6C792.74 128.6 792.84 128.53 792.84 128.28V116.83H794.25V120.27C794.52 121 794.85 121.73 795.26 122.42C796.18 121.54 797.25 120.36 797.92 119.41L799.14 120.29H799.15Z" fill="white"/>
<path d="M750.381 144.52C749.901 144.09 748.901 143.44 748.121 143.02L748.881 142.07C749.631 142.43 750.641 143.02 751.171 143.45L750.381 144.52ZM751.461 146.32C750.911 147.8 750.191 149.49 749.561 150.8L748.411 150.06C749.001 148.98 749.841 147.16 750.441 145.57L751.461 146.32ZM751.211 140.71C750.711 140.23 749.681 139.54 748.911 139.08L749.701 138.14C750.451 138.56 751.501 139.21 752.031 139.64L751.211 140.71ZM760.391 151.06C760.321 150.73 760.221 150.33 760.091 149.92C757.241 150.37 756.811 150.47 756.521 150.63C756.461 150.39 756.261 149.81 756.131 149.48C756.451 149.39 756.731 149.01 757.151 148.39C757.391 148.04 757.941 147.17 758.501 146.09C756.931 146.26 756.601 146.35 756.381 146.45C756.321 146.19 756.151 145.62 756.011 145.33C756.211 145.27 756.411 145.01 756.641 144.65C756.841 144.29 757.491 143.01 757.851 141.73H753.731L754.381 141.99C753.981 143.08 753.401 144.22 752.841 145.16L754.241 145.04C754.561 144.45 754.841 143.83 755.091 143.22L756.211 143.77C755.291 145.73 754.091 147.72 752.881 149.29L754.771 149.03C754.641 148.56 754.501 148.07 754.341 147.65L755.351 147.35C755.751 148.43 756.111 149.83 756.241 150.75L755.171 151.07C755.141 150.75 755.071 150.39 755.001 150.02C752.231 150.45 751.801 150.58 751.511 150.73C751.451 150.49 751.271 149.9 751.121 149.56C751.421 149.49 751.751 149.08 752.201 148.46C752.461 148.11 753.041 147.24 753.651 146.14C752.181 146.3 751.861 146.38 751.651 146.49C751.581 146.23 751.391 145.65 751.261 145.37C751.481 145.31 751.691 145.04 751.911 144.68C752.111 144.32 752.771 143.02 753.161 141.74H751.581V140.53H754.481C754.221 139.94 753.761 139.1 753.361 138.5L754.471 138.04C754.961 138.72 755.481 139.58 755.741 140.17L754.951 140.53H757.541C757.911 139.8 758.331 138.79 758.561 138.05L759.911 138.45C759.581 139.13 759.181 139.89 758.821 140.52H761.271V141.73H758.401L759.061 142C758.661 143.07 758.121 144.2 757.561 145.13L759.031 145.01C759.301 144.45 759.561 143.86 759.761 143.28L760.911 143.8C760.051 145.72 758.971 147.68 757.831 149.22L759.731 148.96C759.561 148.48 759.361 147.99 759.151 147.58L760.171 147.22C760.721 148.31 761.241 149.74 761.451 150.68L760.371 151.08L760.391 151.06Z" fill="white"/>
<path d="M773.481 143.33C774.361 144.25 775.661 145.04 777.011 145.46C776.711 145.72 776.331 146.2 776.151 146.51C775.431 146.25 774.721 145.85 774.091 145.39V148.54H770.471C771.201 148.74 772.051 148.99 772.901 149.26C773.741 148.87 774.671 148.32 775.281 147.92L776.141 148.63C775.511 148.98 774.771 149.34 774.071 149.62C774.861 149.89 775.581 150.15 776.121 150.35L775.561 151.29C774.311 150.77 771.811 149.89 769.961 149.35C769.971 149.64 770.001 150.01 770.051 150.21C766.951 150.94 766.491 151.07 766.201 151.26C766.111 150.94 765.851 150.39 765.641 150.16C765.901 150.02 766.221 149.73 766.221 149.11V145.67C765.661 146.07 765.081 146.42 764.481 146.71C764.291 146.45 763.831 145.96 763.561 145.73C764.911 145.18 766.201 144.33 767.071 143.32H764.001V142.38H769.591V141.73H765.511V140.89H769.591V140.29H764.791V139.37H767.301C767.101 139.04 766.851 138.68 766.651 138.38L767.851 137.99C768.181 138.41 768.571 139 768.771 139.37H771.911C772.181 138.95 772.491 138.36 772.661 137.96L774.111 138.29C773.851 138.67 773.581 139.04 773.321 139.37H775.811V140.29H770.961V140.89H775.081V141.73H770.961V142.38H776.611V143.32H773.501L773.481 143.33ZM773.751 145.14C773.091 144.61 772.501 143.99 772.051 143.32H768.611C768.131 143.98 767.561 144.6 766.911 145.14H773.751ZM767.661 146.48H772.731V145.92H767.661V146.48ZM772.731 147.76V147.16H767.661V147.76H772.731ZM770.401 148.54H767.661V149.68L769.941 149.19L770.401 148.54ZM768.221 143.86H772.351V144.57H768.221V143.86Z" fill="white"/>
<path d="M790.561 139.98C789.741 141.29 788.541 142.43 787.131 143.36C788.741 144.17 790.601 144.79 792.531 145.12C792.231 145.44 791.841 146 791.671 146.36C789.581 145.93 787.581 145.16 785.851 144.14C783.931 145.21 781.761 145.97 779.681 146.43C779.551 146.08 779.261 145.52 779.021 145.23C780.881 144.85 782.851 144.21 784.621 143.33C783.841 142.78 783.151 142.16 782.521 141.5C781.831 142.13 781.111 142.7 780.371 143.16C780.151 142.9 779.661 142.4 779.361 142.17C781.161 141.19 782.901 139.61 783.911 137.86L785.181 138.31C784.951 138.69 784.691 139.07 784.421 139.43H789.391L789.621 139.36L790.561 139.98ZM781.501 146.02H790.071V151.21H788.641V150.65H782.851V151.26H781.501V146.03V146.02ZM782.851 147.23V149.46H788.641V147.23H782.851ZM783.391 140.66C784.051 141.38 784.891 142.06 785.851 142.65C786.831 142.05 787.711 141.37 788.391 140.6H783.431L783.391 140.66Z" fill="white"/>
<path d="M799.141 145.67L799.461 146.85C797.951 147.57 796.331 148.32 795.081 148.88L794.551 147.54C795.071 147.35 795.731 147.09 796.471 146.79V142.64H794.831V141.37H796.471V138.17H797.721V141.37H799.171V142.64H797.721V146.27L799.151 145.66L799.141 145.67ZM805.701 149.72C806.491 149.72 806.641 149.36 806.751 147.79C807.051 147.99 807.571 148.21 807.931 148.28C807.741 150.27 807.341 150.92 805.781 150.92H802.471C800.701 150.92 800.191 150.47 800.191 148.74V144.58L799.201 145.01L798.701 143.81L800.201 143.18V139.36H801.471V142.64L803.081 141.96V138H804.331V141.43L806.261 140.61L807.251 140.94L807.191 141.16C807.071 143.16 806.861 145.8 806.501 147.44L805.411 147.14C805.631 145.9 805.781 143.9 805.861 142.14L804.331 142.8V147.97H803.081V143.33L801.471 144.02V148.74C801.471 149.55 801.631 149.7 802.551 149.7H805.701V149.72Z" fill="white"/>
<path d="M815.371 143.861C815.021 144.421 814.621 144.971 814.201 145.471H816.561V144.161H817.861V145.471H821.941V148.971C821.941 149.601 821.811 149.931 821.351 150.121C820.891 150.321 820.181 150.321 819.161 150.321C819.091 149.971 818.901 149.481 818.731 149.171C819.451 149.201 820.161 149.201 820.341 149.201C820.541 149.191 820.611 149.141 820.611 148.961V146.641H817.861V151.221H816.561V146.641H814.101V150.441H812.771V146.911C812.211 147.391 811.591 147.831 810.931 148.211C810.711 147.921 810.301 147.431 810.041 147.191C811.551 146.381 812.831 145.201 813.771 143.861H810.401V142.681H814.531C814.761 142.281 814.951 141.861 815.111 141.441C813.991 141.761 812.851 142.031 811.751 142.261C811.551 141.941 811.131 141.401 810.841 141.121C812.371 140.901 813.951 140.541 815.451 140.131C814.201 139.701 812.911 139.311 811.761 139.011L812.681 138.201C814.061 138.551 815.681 139.021 817.231 139.531C818.481 139.081 819.611 138.551 820.471 137.971L821.591 138.721C820.831 139.241 819.921 139.701 818.941 140.131C820.141 140.551 821.201 140.961 822.041 141.371L821.021 142.321C820.111 141.861 818.761 141.301 817.271 140.761C816.851 140.921 816.391 141.051 815.961 141.191L816.641 141.381C816.451 141.811 816.251 142.261 816.051 142.681H823.051V143.861H815.361H815.371Z" fill="white"/>
<path d="M826.881 140.59H825.701V139.45H828.601C828.461 139.08 828.301 138.64 828.141 138.31L829.341 137.98C829.571 138.43 829.821 139 829.991 139.45H832.121V140.59H828.121V142.94C828.121 143.37 828.211 143.53 828.571 143.53H830.631C830.961 143.53 831.451 143.5 831.721 143.44C831.731 143.77 831.791 144.28 831.841 144.55C831.601 144.64 831.121 144.65 830.661 144.65H828.571C827.241 144.65 826.901 144.2 826.901 142.91V140.59H826.881ZM832.861 149.82H838.551V150.93H825.871V149.82H831.521V148.73H826.711V147.65H831.521V146.61C830.011 146.7 828.471 146.75 827.051 146.75C827.021 146.43 826.881 145.96 826.761 145.67C830.321 145.6 834.571 145.32 837.071 144.86L837.671 145.94C836.321 146.19 834.631 146.37 832.841 146.52V147.64H837.781V148.72H832.841V149.81L832.861 149.82ZM838.851 139.21C838.031 142.85 835.801 144.41 832.711 145.16C832.571 144.86 832.311 144.4 832.061 144.15C832.781 144.01 833.471 143.8 834.081 143.52C833.711 143.03 833.131 142.4 832.571 141.83C832.441 141.96 832.281 142.08 832.111 142.21C831.891 141.94 831.481 141.55 831.171 141.37C832.571 140.42 833.531 139.12 834.021 138.01L835.321 138.23C835.201 138.49 835.061 138.72 834.931 138.98H837.801L838.041 138.92L838.851 139.21ZM834.991 143.02C835.321 142.79 835.641 142.55 835.931 142.27C835.351 141.79 834.531 141.16 833.751 140.66C833.591 140.85 833.431 141.03 833.261 141.19C833.851 141.77 834.541 142.47 834.991 143.02ZM834.301 140.01C835.031 140.47 835.911 141.06 836.531 141.57C836.851 141.11 837.121 140.59 837.321 140.01H834.301Z" fill="white"/>
<path d="M825.96 50.9507C825.69 48.6207 825.36 46.2807 824.15 44.2307C819.44 36.2207 812.39 31.8407 803.14 31.0807C799.84 30.8107 796.64 31.3507 793.44 32.4007C790.35 33.4107 787.72 34.9807 785.52 37.2907C782.52 40.4407 780.25 44.0907 778.76 48.1607C777.62 51.2607 777.24 54.4907 778.15 57.7607C778.78 60.0207 779.83 61.9407 781.98 63.1907C784 64.3607 786.16 64.8707 788.43 64.9107C792.17 64.9707 795.69 63.1107 796.49 58.6607C796.65 57.7907 796.84 56.9207 796.98 56.0407C797.34 53.7707 797.46 51.4507 798.33 49.2707C799.86 45.4307 803.62 42.8607 807.17 43.1807C811.84 43.5907 814.68 46.4907 815.57 51.0107C816.11 53.7407 815.45 56.3607 814.32 58.8607C814.14 59.2607 813.71 59.5507 813.39 59.8907C813.41 59.4307 813.3 58.9207 813.48 58.5307C814.61 56.0207 813.57 53.8007 811.21 51.4407C810.8 51.0307 810.34 50.6707 809.84 50.3707C807.86 49.2007 805.72 48.5307 803.38 49.0007C800.98 49.4807 799.48 51.0707 799.12 53.4407C798.97 54.4307 798.87 55.4207 798.69 56.4007C798.31 58.5407 798.02 60.7207 796.81 62.5907C794.36 66.3607 790.71 67.1807 786.55 66.6707C785.68 66.5607 784.84 66.3107 783.82 66.0907C785.02 70.7307 785.76 75.4007 786.34 80.0907C786.84 84.1207 791.44 86.1607 794.74 83.8007C796.94 82.2307 799.12 80.6707 801.3 79.1107L801.2 78.9207C799.03 79.6007 796.86 80.3007 794.68 80.9607C794.36 81.0607 793.99 81.0107 793.64 81.0307C793.84 80.6907 793.96 80.1707 794.25 80.0407C797.25 78.7207 800.33 77.5807 803.67 77.8307C806.07 78.0007 808.36 77.6407 810.54 76.7607C815.78 74.6607 819.65 70.8907 822.51 66.1607C825.32 61.5107 826.57 56.4007 825.93 50.9307L825.96 50.9507ZM781.92 47.8107C782.33 46.9307 782.95 46.1307 783.57 45.3607C783.7 45.2007 784.21 45.1907 784.45 45.3107C784.69 45.4207 784.81 45.7807 785.01 46.0807C784.61 47.0007 784.32 47.9107 783.82 48.6907C783.61 49.0107 782.81 49.2407 782.49 49.0907C782.16 48.9307 781.79 48.1207 781.93 47.8207L781.92 47.8107ZM785.21 61.1007C784.64 61.0707 784.03 60.9407 783.53 60.6807C781.07 59.3807 779.73 56.1007 780.55 53.4507C780.66 53.1007 780.85 52.7207 781.11 52.4707C781.33 52.2607 781.77 52.0907 782.03 52.1707C782.27 52.2507 782.4 52.6807 782.49 52.8207C782.43 53.2007 782.41 53.3807 782.37 53.5507C781.88 55.8207 782.51 57.6807 784.33 59.1507C784.77 59.5007 785.2 59.8707 785.57 60.2907C785.94 60.7207 785.81 61.1407 785.22 61.1007H785.21ZM806.14 67.9707C807.76 66.2607 809.39 64.5407 811.04 62.8507C811.25 62.6307 811.61 62.5607 811.89 62.4107C811.91 62.5807 811.92 62.7207 811.92 62.8007C811.92 63.9407 811.25 65.1807 806.67 68.8407C806.33 69.1107 806.06 69.3207 805.95 69.4107C805.83 69.1307 805.6 68.8707 805.64 68.6507C805.69 68.4007 805.95 68.1707 806.15 67.9607L806.14 67.9707ZM816.81 70.3107C816.72 70.6307 816.47 70.9307 816.24 71.1907C813.83 73.7607 810.84 75.2907 807.4 75.9807C807.28 76.0007 807.17 76.0207 807.05 76.0307C806.87 76.0307 806.69 76.0307 806.52 76.0307C806.52 76.0107 806.52 75.9907 806.52 75.9707C806.02 76.0407 805.52 76.1807 805.03 76.1607C804.63 76.1407 804.24 75.9307 803.85 75.8007C804.18 75.5307 804.47 75.1407 804.85 75.0107C805.99 74.6207 807.18 74.3507 808.33 73.9807C810.74 73.2207 812.87 71.9707 814.71 70.2307C815.05 69.9107 815.42 69.5907 815.84 69.3807C816.06 69.2707 816.5 69.2907 816.64 69.4407C816.82 69.6307 816.89 70.0407 816.82 70.3107H816.81ZM818.88 65.8707C818.59 65.8307 818.35 65.4107 817.88 64.9607C818.46 64.5107 818.85 64.2007 819.24 63.8907C819.48 64.2007 819.91 64.5207 819.9 64.8207C819.9 65.3807 819.56 65.9607 818.87 65.8707H818.88Z" fill="white"/>
<path d="M783.561 87.5703C779.451 87.5703 776.191 90.8103 776.201 94.8803C776.211 98.9303 779.571 102.19 783.671 102.1C787.541 102.02 790.761 98.7403 790.781 94.8703C790.801 90.8103 787.571 87.5603 783.551 87.5703H783.561Z" fill="white"/>
<path d="M768.381 49.8903C769.141 49.3703 769.861 48.7603 770.451 48.0703C771.441 46.9103 772.231 45.5903 773.111 44.3403C773.641 43.5803 773.341 42.8503 772.421 42.7403C770.001 42.4503 767.641 42.6203 765.431 44.2703C764.521 44.8503 763.931 45.8303 763.771 47.0703C763.631 48.1903 763.871 49.2203 764.821 49.9203C765.781 50.6203 767.401 50.5503 768.381 49.8803V49.8903Z" fill="white"/>
<path d="M773.2 40.7508C775.45 40.9508 777.55 40.4008 779.54 39.3908C779.89 39.2108 780.13 38.8008 780.41 38.5008C780.04 38.2108 779.71 37.8208 779.29 37.6508C777.85 37.0508 776.37 36.5508 774.92 35.9608C774.29 35.7008 773.74 35.2708 773.12 35.0108C771.74 34.4308 770.41 34.5908 769.25 35.2708C768.07 36.1808 767.92 37.4808 768.79 38.5708C769.91 39.9808 771.45 40.5908 773.19 40.7508H773.2Z" fill="white"/>
<path d="M814.191 53.1306C814.291 49.2306 811.721 45.9206 808.211 45.1006C805.761 44.5306 802.501 45.4506 801.111 48.0706C805.681 45.9606 811.761 48.5406 814.191 53.1306Z" fill="white"/>
<path d="M928.9 139.77C903.61 96.8201 917.93 41.5001 960.88 16.2201C1003.83 -9.06988 1059.14 5.25012 1084.43 48.2001C1109.72 91.1501 1095.4 146.47 1052.45 171.75C1009.5 197.04 954.18 182.72 928.89 139.77H928.9Z" fill="#BBD7EA"/>
<path d="M983.762 133.71C983.162 135.57 982.312 137.2 981.252 138.58C981.742 139.8 982.302 140.55 982.912 140.55C983.282 140.55 983.462 139.82 983.542 137.96C983.862 138.28 984.332 138.58 984.692 138.71C984.472 141.25 983.982 141.92 982.802 141.92C981.752 141.92 980.912 141.11 980.262 139.76C979.442 140.63 978.532 141.36 977.542 141.96C977.342 141.67 976.862 141.11 976.562 140.87C977.762 140.21 978.822 139.37 979.702 138.35C979.182 136.72 978.852 134.66 978.682 132.42H974.072V134.16H977.692V134.68C977.622 137.8 977.552 139.04 977.242 139.45C976.982 139.75 976.712 139.87 976.322 139.91C975.962 139.97 975.312 139.97 974.622 139.94C974.592 139.55 974.462 139.03 974.262 138.69C974.852 138.75 975.412 138.76 975.642 138.76C975.842 138.76 975.992 138.72 976.092 138.59C976.252 138.39 976.332 137.57 976.382 135.39H974.082C974.072 137.44 973.822 140.32 972.552 142.18C972.322 141.91 971.732 141.43 971.432 141.26C972.582 139.53 972.682 137.05 972.682 135.2V131.12H978.602C978.562 130.37 978.532 129.59 978.532 128.83H979.942C979.932 129.61 979.942 130.37 979.982 131.12H982.762C982.202 130.64 981.262 130.03 980.502 129.61L981.312 128.79C982.162 129.24 983.242 129.9 983.802 130.39L983.112 131.12H984.582V132.43H980.062C980.202 134.14 980.432 135.7 980.772 136.98C981.462 135.91 981.992 134.72 982.412 133.39L983.762 133.72V133.71Z" fill="#003893"/>
<path d="M999.452 137.57C998.602 138.19 997.532 138.84 996.602 139.31C997.612 140 998.862 140.48 1000.33 140.74C1000.04 141.04 999.652 141.59 999.492 141.95C996.232 141.23 994.132 139.52 992.912 136.84H990.732V140.33L994.292 139.55C994.232 139.9 994.192 140.44 994.192 140.72C990.532 141.63 989.742 141.81 989.382 141.99L989.282 142.08C989.192 141.73 988.932 141.06 988.702 140.73C989.002 140.6 989.412 140.27 989.412 139.69V136.85H987.182V135.67H989.662V129.36H998.562V130.47H991.012V131.51H998.142V132.58H991.012V133.59H998.142V134.64H991.012V135.68H1000V136.86H998.392L999.462 137.59L999.452 137.57ZM994.312 136.83C994.682 137.49 995.132 138.08 995.692 138.6C996.632 138.07 997.682 137.39 998.352 136.83H994.302H994.312Z" fill="#003893"/>
<path d="M1015.51 140.25V141.5H1002.68V140.25H1008.34V137.89H1003.96V136.65H1008.34V134.98H1009.74V136.65H1014.26V137.89H1009.74V140.25H1015.52H1015.51ZM1013.89 135.33C1013.67 135.04 1013.4 134.71 1013.05 134.35C1005.49 134.68 1004.64 134.7 1004.05 134.91C1003.98 134.64 1003.76 133.96 1003.62 133.6C1003.91 133.54 1004.22 133.31 1004.6 132.94C1004.93 132.68 1005.77 131.8 1006.54 130.78H1003.01V129.54H1015.02V130.78H1008.26C1007.51 131.77 1006.68 132.7 1005.88 133.45L1011.92 133.25C1011.39 132.76 1010.83 132.28 1010.31 131.88L1011.38 131.17C1012.66 132.12 1014.29 133.53 1015.05 134.53L1013.88 135.34L1013.89 135.33Z" fill="#003893"/>
<path d="M1021.05 131.231H1018.15V130.031H1021.05V128.811H1022.36V130.031H1024.13V131.231H1022.36V132.571H1021.05V131.231ZM1028.67 137.441H1030.05V141.991H1028.67V141.331H1019.15V137.451H1020.52V140.071H1023.83V136.861H1019.85V133.131H1021.23V135.621H1023.82V132.371H1025.22V135.621H1027.8V133.131H1029.24V136.861H1025.22V140.071H1028.66V137.431L1028.67 137.441ZM1030.89 130.021V131.231H1028.08V132.571H1026.75V131.231H1024.86V130.021H1026.75V128.811H1028.08V130.021H1030.89Z" fill="#003893"/>
<path d="M1036.85 128.801H1038.1V142.011H1036.85V137.031H1035.45V137.231C1035.45 138.471 1035.29 140.621 1034.33 142.071C1034.1 141.841 1033.62 141.491 1033.32 141.341C1034.13 140.091 1034.24 138.291 1034.24 137.191V137.031H1033.43V135.821H1036.84V133.981H1034V129.411H1035.21V132.771H1036.84V128.811L1036.85 128.801ZM1043.29 134.701V140.291H1046.34V141.561H1038.94V140.291H1041.94V134.701H1038.61V133.401H1041.94V128.821H1043.29V133.401H1046.69V134.701H1043.29Z" fill="#003893"/>
<path d="M1008.78 108.3C1013.11 108.3 1016.62 104.79 1016.62 100.46C1016.62 96.1302 1013.11 92.6201 1008.78 92.6201C1004.45 92.6201 1000.94 96.1302 1000.94 100.46C1000.94 104.79 1004.45 108.3 1008.78 108.3Z" fill="#2E59A6"/>
<path d="M994.931 80.7109C993.131 78.5909 990.971 75.6409 989.021 71.7809C987.671 69.1009 986.701 66.5409 985.991 64.2609V64.2309C985.591 62.9309 985.281 61.5809 985.041 60.1509C984.041 54.0409 984.941 47.9309 987.451 42.6309C986.631 44.4309 986.301 46.5809 986.581 48.8309C986.631 49.2609 986.701 49.7009 986.821 50.1309C986.841 50.2709 986.871 50.4209 986.911 50.5809L990.851 65.3709L993.351 74.8009L994.921 80.7009L994.931 80.7109Z" fill="#5D97C4"/>
<path d="M996.31 44.9303C996.01 47.2803 996.03 49.7503 996.41 52.2203L998.07 63.2003L1000.45 78.9503L1001.5 85.8903C1000.42 85.4203 999.4 84.7903 998.5 84.0003C997.64 83.3403 996.33 82.1703 994.93 80.7203L993.36 74.8203L990.86 65.3903L986.92 50.6003C986.88 50.4503 986.85 50.3003 986.83 50.1503C986.71 49.7103 986.64 49.2803 986.59 48.8503C986.31 46.6003 986.64 44.4503 987.46 42.6503L987.49 42.6003C987.82 41.9803 988.18 41.3903 988.56 40.8203C992.81 34.4003 999.82 30.0503 1008.04 29.8203C1003.53 30.2003 999.77 33.9403 997.75 39.1903C997.06 40.9803 996.57 42.9203 996.32 44.9503L996.31 44.9303Z" fill="#2E59A6"/>
<path d="M1021.38 50.11C1021.33 50.81 1021.24 51.51 1021.13 52.21L1019.46 63.31L1017.1 78.93L1016.06 85.78C1014.62 86.5 1013.08 86.96 1011.37 87.12C1008.17 87.49 1004.54 87.24 1001.5 85.87L1000.45 78.93L998.07 63.18L996.41 52.2C996.03 49.73 996.02 47.26 996.31 44.91C996.56 42.88 997.05 40.94 997.74 39.15C999.76 33.9 1003.52 30.16 1008.03 29.78C1008.29 29.77 1008.53 29.75 1008.77 29.75C1009.01 29.75 1009.25 29.76 1009.5 29.78C1014.03 30.16 1017.77 33.9 1019.8 39.15C1020.48 40.94 1020.97 42.88 1021.23 44.92C1021.44 46.6 1021.49 48.33 1021.37 50.09L1021.38 50.11Z" fill="#003893"/>
<path d="M1030.74 50.1008C1030.72 50.2508 1030.68 50.4208 1030.64 50.5808L1026.71 65.3408L1024.19 74.8008L1022.7 80.4308C1021.49 81.7008 1020.25 82.8808 1018.93 83.9008C1018.01 84.6508 1017.07 85.2808 1016.08 85.7808L1017.12 78.9308L1019.48 63.3108L1021.15 52.2108C1021.25 51.5108 1021.35 50.8108 1021.4 50.1108C1021.53 48.3508 1021.47 46.6208 1021.26 44.9408C1021 42.9008 1020.51 40.9508 1019.83 39.1708C1017.8 33.9208 1014.05 30.1808 1009.53 29.8008C1017.76 30.0308 1024.77 34.3808 1029.01 40.8008C1029.4 41.3708 1029.76 41.9708 1030.08 42.5808C1030.1 42.6108 1030.1 42.6208 1030.11 42.6308C1031.09 44.7708 1031.38 47.4108 1030.76 50.1008H1030.74Z" fill="#2E59A6"/>
<path d="M1032.5 60.1506C1032.26 61.6406 1031.93 63.0806 1031.49 64.4506C1031.17 65.4806 1030.71 66.8606 1030.09 68.4506C1029.49 69.9806 1028.67 72.0706 1027.43 74.2506C1026.51 75.8706 1025.03 78.0906 1022.7 80.4406L1024.19 74.8106L1026.71 65.3506L1030.64 50.5906C1030.68 50.4306 1030.72 50.2606 1030.74 50.1106C1031.36 47.4206 1031.07 44.7806 1030.09 42.6406C1032.6 47.9406 1033.5 54.0506 1032.5 60.1606V60.1506Z" fill="#5D97C4"/>
<path d="M1187.51 124.581C1187.34 125.781 1186.79 126.481 1185.19 126.901C1185.1 126.641 1184.83 126.271 1184.63 126.081C1185.88 125.811 1186.32 125.371 1186.46 124.581H1184.9V123.611H1187.44V122.701H1185.42V121.751H1187.44V120.871H1188.62V121.751H1190.65V122.701H1188.62V123.611H1191.13V124.581H1189.46V125.171C1189.46 125.471 1189.47 125.571 1189.68 125.571H1190.41C1190.57 125.571 1190.9 125.541 1191.07 125.501C1191.08 125.751 1191.11 126.061 1191.14 126.311C1190.98 126.381 1190.68 126.381 1190.43 126.381H1189.48C1188.63 126.381 1188.46 126.021 1188.46 125.171V124.581H1187.51ZM1184.7 133.541C1185.36 132.991 1186.03 131.981 1186.41 131.051L1187.69 131.381C1187.32 132.361 1186.67 133.411 1185.96 134.071L1184.69 133.541H1184.7ZM1196.79 129.441C1196.88 129.441 1196.95 129.431 1196.99 129.371C1197.03 129.311 1197.06 129.171 1197.09 128.921C1197.12 128.631 1197.13 128.031 1197.13 127.241C1197.36 127.441 1197.71 127.631 1197.99 127.721C1197.98 128.441 1197.93 129.351 1197.86 129.661C1197.79 129.981 1197.66 130.191 1197.5 130.321C1197.33 130.451 1197.05 130.511 1196.81 130.511H1196.22C1195.95 130.511 1195.63 130.421 1195.43 130.221C1195.23 130.001 1195.16 129.741 1195.16 128.751V123.981H1194.01C1193.97 124.841 1193.88 125.651 1193.78 126.371C1194.3 126.761 1194.8 127.101 1195.12 127.391L1194.53 128.511C1194.26 128.281 1193.9 127.981 1193.48 127.661C1193.11 128.941 1192.49 129.981 1191.49 130.791C1191.35 130.571 1191.06 130.241 1190.81 130.031C1188.66 130.261 1186.46 130.491 1184.88 130.651L1184.78 129.531C1185.51 129.471 1186.44 129.401 1187.44 129.311V128.201H1185.24V127.221H1187.44V126.281H1188.62V127.221H1190.74V128.201H1188.62V129.211C1189.43 129.141 1190.26 129.071 1191.08 128.981V129.511C1191.77 128.801 1192.19 127.941 1192.45 126.891C1192.02 126.571 1191.59 126.261 1191.21 125.981L1191.77 125.001L1192.68 125.621C1192.75 125.101 1192.8 124.551 1192.82 123.981H1191.41V122.801H1192.85C1192.86 122.181 1192.88 121.531 1192.88 120.851H1194.09C1194.09 121.531 1194.08 122.181 1194.06 122.801H1196.36V128.761C1196.36 129.111 1196.36 129.311 1196.4 129.381C1196.43 129.421 1196.49 129.441 1196.56 129.441H1196.78H1196.79ZM1190.12 131.341C1190.29 132.131 1190.44 133.161 1190.45 133.761L1189.11 133.931C1189.11 133.301 1189.01 132.271 1188.85 131.471L1190.12 131.341ZM1193.01 131.221C1193.36 132.001 1193.72 133.011 1193.82 133.651L1192.49 133.901C1192.39 133.271 1192.09 132.231 1191.74 131.441L1193.01 131.221ZM1195.95 130.991C1196.6 131.781 1197.39 132.891 1197.74 133.611L1196.39 134.071C1196.07 133.361 1195.32 132.231 1194.68 131.401L1195.96 130.981L1195.95 130.991Z" fill="#003893"/>
<path d="M1203.5 123.161C1202.78 124.301 1201.9 125.291 1200.99 126.031C1200.79 125.761 1200.33 125.211 1200.04 124.961C1201.37 124.001 1202.56 122.471 1203.24 120.841L1204.55 121.211C1204.42 121.511 1204.28 121.801 1204.12 122.101H1212.76V123.151H1203.5V123.161ZM1204.12 131.141C1203.46 132.261 1202.28 133.431 1201.18 134.021C1200.99 133.721 1200.6 133.291 1200.33 133.061C1201.38 132.601 1202.53 131.661 1203.12 130.771L1204.11 131.151L1204.12 131.141ZM1205.64 130.421V134.051H1204.39V130.421H1200.66V129.371H1204.39V127.041H1205.64V129.371H1207.09L1206.25 129.041C1206.67 128.511 1207.16 127.701 1207.42 127.151L1208.62 127.541C1208.12 128.221 1207.57 128.911 1207.14 129.371H1209.21V130.421H1205.64ZM1202.58 127.101C1203.03 127.631 1203.47 128.351 1203.65 128.841L1202.58 129.291C1202.42 128.801 1201.99 128.071 1201.57 127.531L1202.58 127.101ZM1210.93 125.681C1210.9 129.901 1211.03 132.721 1212.04 132.721C1212.31 132.721 1212.39 131.901 1212.4 130.681C1212.67 130.981 1213.02 131.311 1213.29 131.521C1213.19 133.361 1212.92 134.061 1211.96 134.061C1209.9 134.061 1209.63 131.181 1209.58 126.741H1201.59V125.691H1210.92L1210.93 125.681ZM1203.14 124.911V123.901H1211.61V124.911H1203.14ZM1206.83 130.751C1207.74 131.401 1208.92 132.321 1209.51 132.941L1208.67 133.761C1208.11 133.141 1206.96 132.161 1206.05 131.471L1206.83 130.751Z" fill="#003893"/>
<path d="M1228.6 125.79C1227.84 126.8 1226.91 127.98 1226.17 128.76C1226.8 130.09 1227.68 131.08 1228.98 131.99C1228.68 132.24 1228.3 132.65 1228.16 133.03C1226.75 131.96 1225.78 130.8 1225.11 129.28V132.49C1225.11 133.21 1224.94 133.59 1224.51 133.8C1224.06 134.03 1223.39 134.07 1222.28 134.07C1222.22 133.72 1221.99 133.13 1221.82 132.79C1222.6 132.82 1223.29 132.8 1223.51 132.8C1223.74 132.79 1223.83 132.71 1223.83 132.48V129.54C1222.72 130.65 1221.58 131.73 1220.63 132.59L1219.81 131.42L1220.01 131.26C1218.53 131.75 1216.97 132.24 1215.76 132.61L1215.47 131.33C1215.97 131.2 1216.61 131.01 1217.28 130.81V127.06H1215.74V125.82H1217.28V122.95H1215.64V121.71H1220.09V122.95H1218.52V125.82H1219.87V127.06H1218.52V130.43L1220.16 129.93L1220.33 131C1221.28 130.24 1222.59 129.13 1223.82 128.08V124.46H1220.41V123.22H1223.82V120.83H1225.12V123.22H1228.76V124.46H1225.12V125.05C1225.28 126.03 1225.48 126.87 1225.72 127.61C1226.34 126.85 1227.02 125.91 1227.45 125.16L1228.62 125.77L1228.6 125.79ZM1221.59 125.27C1222.19 126.06 1222.84 127.13 1223.09 127.83L1221.98 128.36C1221.76 127.64 1221.14 126.55 1220.55 125.72L1221.59 125.26V125.27ZM1227.35 123.23C1227 122.77 1226.28 122.11 1225.68 121.66L1226.43 120.97C1227.05 121.39 1227.8 122.01 1228.16 122.44L1227.35 123.23Z" fill="#003893"/>
<path d="M1244.13 127.82H1241.12V134.04H1239.75V127.82H1235.67C1235.55 130.15 1234.88 132.46 1232.01 134.07C1231.82 133.77 1231.36 133.28 1231.06 133.05C1233.57 131.67 1234.2 129.75 1234.33 127.82H1231.19V126.54H1234.36V123.63C1233.5 123.88 1232.62 124.09 1231.78 124.28C1231.71 123.96 1231.49 123.47 1231.3 123.19C1233.55 122.67 1236.01 121.86 1237.47 121L1238.45 122.09C1237.64 122.51 1236.71 122.88 1235.7 123.23V126.54H1239.75V121.09H1241.12V126.54H1244.13V127.82Z" fill="#003893"/>
<path d="M1248.33 125.76H1247V122.42H1252.44C1252.27 121.99 1252.05 121.51 1251.85 121.12L1253.26 120.73C1253.53 121.25 1253.88 121.9 1254.1 122.42H1259.21V125.43H1257.83V123.63H1255.37V125.7C1255.37 126.1 1255.46 126.25 1255.86 126.25H1258.18C1258.54 126.25 1259.13 126.22 1259.42 126.15C1259.45 126.51 1259.49 127.03 1259.55 127.35C1259.28 127.42 1258.73 127.44 1258.21 127.44H1255.85C1254.42 127.44 1254.05 126.99 1254.05 125.7V123.64H1252.49C1252.29 126.12 1251.51 127.34 1247.72 127.92C1247.62 127.59 1247.33 127.08 1247.09 126.81C1250.4 126.41 1250.96 125.57 1251.12 123.64H1248.33V125.77V125.76ZM1253.89 132.49H1259.33V133.76H1247V132.49H1252.49V129.74H1248.41V128.5H1257.96V129.74H1253.88V132.49H1253.89Z" fill="#003893"/>
<path d="M1179.61 146.191V146.871C1179.61 149.331 1179.39 152.911 1177.91 155.251C1177.65 155.031 1177.06 154.691 1176.71 154.561C1178.14 152.341 1178.27 149.161 1178.27 146.871V142.681H1189.09V146.191H1179.61ZM1179.61 143.831V145.051H1187.75V143.831H1179.61ZM1189.26 151.671C1188.63 152.151 1187.85 152.621 1187.17 152.971C1187.98 153.521 1188.94 153.911 1190.08 154.141C1189.79 154.401 1189.45 154.891 1189.27 155.251C1186.73 154.621 1185.04 153.181 1184.06 151.021H1182.32V153.661L1185.11 153.071C1185.05 153.421 1185.01 153.921 1185.02 154.191C1181.62 154.971 1181.16 155.101 1180.87 155.281C1180.78 154.961 1180.54 154.431 1180.34 154.191C1180.63 154.031 1181.07 153.661 1181.07 152.991V151.021H1179.64V149.901H1182V148.621H1180V147.481H1182V146.231H1183.22V147.481H1185.78V146.231H1187.03V147.481H1189.29V148.621H1187.03V149.901H1189.88V151.021H1188.27L1189.24 151.681L1189.26 151.671ZM1183.24 149.881H1185.8V148.601H1183.24V149.881ZM1185.35 151.001C1185.61 151.481 1185.94 151.911 1186.33 152.281C1186.99 151.901 1187.74 151.401 1188.23 151.001H1185.35Z" fill="#003893"/>
<path d="M1194.35 147.501V155.241H1193.02V142.591H1198.36V147.501H1194.34H1194.35ZM1194.35 143.591V144.561H1197.12V143.591H1194.35ZM1197.11 146.521V145.471H1194.34V146.521H1197.11ZM1200.93 151.881V154.981H1199.73V151.881H1197.99C1197.87 152.851 1197.41 154.311 1196.1 155.191C1195.91 154.941 1195.51 154.591 1195.24 154.401C1196.31 153.751 1196.71 152.671 1196.82 151.881H1195.18V150.771H1196.87V149.401H1195.44V148.331H1202.43V149.401H1200.93V150.771H1202.72V151.881H1200.93ZM1199.73 150.771V149.401H1198.02V150.771H1199.73ZM1204.93 153.601C1204.93 154.331 1204.79 154.721 1204.31 154.951C1203.85 155.171 1203.13 155.211 1202.05 155.201C1202.01 154.841 1201.82 154.241 1201.62 153.871C1202.35 153.881 1203.09 153.881 1203.32 153.881C1203.54 153.871 1203.61 153.791 1203.61 153.581V147.531H1199.48V142.591H1204.94V153.591L1204.93 153.601ZM1200.76 143.591V144.561H1203.61V143.591H1200.76ZM1203.61 146.551V145.471H1200.76V146.551H1203.61Z" fill="#003893"/>
<path d="M1219.91 144.08C1219.59 144.79 1219.13 145.38 1218.57 145.87C1219.32 146.26 1220.17 146.58 1221.08 146.75C1220.81 147 1220.48 147.44 1220.32 147.74C1219.34 147.48 1218.42 147.09 1217.63 146.57C1216.9 147.02 1216.03 147.36 1215.12 147.64C1214.98 147.38 1214.63 146.92 1214.4 146.72C1215.25 146.52 1216.04 146.23 1216.72 145.89C1216.36 145.57 1216.04 145.26 1215.77 144.9C1215.54 145.12 1215.32 145.33 1215.09 145.52C1214.96 145.35 1214.72 145.06 1214.49 144.86C1214.39 146.36 1214.29 146.98 1214.06 147.27C1213.86 147.47 1213.64 147.56 1213.34 147.59C1213.1 147.62 1212.65 147.62 1212.19 147.59C1212.18 147.43 1212.15 147.23 1212.09 147.04H1209.97V147.44H1209.03V145.8C1208.86 145.97 1208.68 146.12 1208.5 146.26C1208.33 146.04 1207.98 145.7 1207.77 145.57C1208.55 145.04 1209.07 144.35 1209.37 143.71L1210.41 143.87C1210.37 143.96 1210.32 144.06 1210.28 144.14H1214.54V144.44C1215.3 143.81 1215.98 142.94 1216.38 142.05L1217.52 142.37C1217.4 142.63 1217.28 142.86 1217.13 143.1H1220.75V144.09H1219.93L1219.91 144.08ZM1210 143.33H1208.14V142.52H1210V142.03H1211.07V143.73H1210V143.33ZM1208.2 154.66C1208.68 154.2 1209.18 153.42 1209.5 152.86L1210.57 153.39C1210.25 154 1209.78 154.76 1209.32 155.28L1208.21 154.66H1208.2ZM1212.45 146.73H1212.77C1212.9 146.73 1213 146.72 1213.09 146.6C1213.21 146.46 1213.28 146.01 1213.36 144.87H1209.82C1209.72 145.01 1209.6 145.16 1209.49 145.3H1212.46V146.73H1212.45ZM1220.44 151.93C1220.44 151.93 1220.43 152.23 1220.4 152.39C1220.23 153.92 1220.05 154.62 1219.75 154.91C1219.51 155.14 1219.26 155.23 1218.93 155.26C1218.64 155.29 1218.09 155.29 1217.49 155.25C1217.48 155 1217.39 154.67 1217.27 154.4L1216.94 154.56C1216.8 154.2 1216.41 153.67 1216.08 153.28L1216.97 152.92C1217.33 153.28 1217.72 153.78 1217.91 154.12L1217.54 154.29C1217.89 154.32 1218.17 154.32 1218.32 154.32C1218.51 154.32 1218.61 154.31 1218.71 154.2C1218.85 154.04 1218.98 153.65 1219.1 152.77H1209.79V147.84H1219.5V148.67H1215.42V149.29H1218.96V150H1215.42V150.61H1218.99V151.32H1215.42V151.94H1220.45L1220.44 151.93ZM1211.5 145.88H1209.96V146.44H1211.5V145.88ZM1211.07 148.67V149.29H1214.14V148.67H1211.07ZM1214.13 150H1211.06V150.61H1214.13V150ZM1211.07 151.93H1214.14V151.31H1211.07V151.93ZM1212.46 153.16C1212.66 153.71 1212.82 154.44 1212.88 154.93L1211.74 155.13C1211.71 154.65 1211.55 153.91 1211.38 153.34L1212.46 153.15V153.16ZM1213.05 143.87H1211.98V142.03H1213.05V142.52H1214.91V143.35H1213.05V143.87ZM1214.77 153.11C1215.07 153.59 1215.35 154.23 1215.48 154.67L1214.43 154.97C1214.31 154.54 1214.03 153.86 1213.77 153.39L1214.78 153.12L1214.77 153.11ZM1217.62 145.27C1218.05 144.92 1218.38 144.52 1218.64 144.07H1216.45C1216.75 144.5 1217.16 144.91 1217.62 145.27Z" fill="#003893"/>
<path d="M1224.92 151.481V152.801H1223.78V143.321H1227.4V151.471H1224.92V151.481ZM1224.92 144.571V150.241H1226.25V144.571H1224.92ZM1232.19 152.651C1231.6 153.771 1230.38 154.711 1228.06 155.261C1227.92 155.001 1227.57 154.501 1227.31 154.251C1229.12 153.921 1230.16 153.341 1230.74 152.651H1227.76V151.631H1231.27C1231.34 151.381 1231.4 151.141 1231.41 150.881H1228.39V149.861H1231.46V149.141H1228.44V146.391H1231.46V145.811H1229.53V144.121H1227.89V143.081H1229.53V142.011H1230.71V143.081H1233.39V142.011H1234.63V143.081H1236.34V144.121H1234.63V145.811H1232.71V146.391H1235.68V149.141H1232.71V149.861H1235.72V150.881H1232.68C1232.65 151.141 1232.61 151.381 1232.55 151.631H1236.28V152.651H1232.19ZM1231.46 148.241V147.271H1229.57V148.241H1231.46ZM1230.71 144.931H1233.39V144.121H1230.71V144.931ZM1233.04 152.681C1234.15 153.081 1235.69 153.761 1236.48 154.251L1235.85 155.211C1235.1 154.731 1233.57 154.001 1232.42 153.551L1233.04 152.671V152.681ZM1232.71 147.271V148.241H1234.48V147.271H1232.71Z" fill="#003893"/>
<path d="M1244.2 147.23C1244.2 147.23 1244.19 147.61 1244.19 147.78C1244.07 152.45 1243.96 154.05 1243.6 154.53C1243.36 154.88 1243.11 155.01 1242.74 155.05C1242.41 155.09 1241.89 155.09 1241.36 155.08C1241.33 154.73 1241.23 154.25 1241.03 153.91C1241.51 153.95 1241.94 153.97 1242.15 153.97C1242.32 153.97 1242.42 153.93 1242.54 153.77C1242.77 153.47 1242.89 152.13 1242.97 148.44H1241.59C1241.53 150.63 1241.17 153.09 1239.6 155.21C1239.37 154.98 1238.94 154.65 1238.62 154.45C1240.2 152.25 1240.39 149.67 1240.39 147.65V145.56H1238.94V144.32H1241.56C1241.43 143.79 1241.13 142.98 1240.83 142.38L1242 141.99C1242.32 142.6 1242.65 143.39 1242.78 143.92L1241.66 144.32H1244.53V145.56H1241.62V147.23H1244.23H1244.2ZM1246.48 145.07C1246.08 145.89 1245.62 146.61 1245.08 147.19C1244.86 146.96 1244.32 146.56 1244.01 146.37C1245.05 145.35 1245.81 143.72 1246.21 142.02L1247.51 142.27C1247.37 142.8 1247.19 143.35 1247.02 143.85H1251.76V145.07H1246.47H1246.48ZM1251.82 148.7C1251.19 149.32 1250.42 149.97 1249.75 150.47C1250.24 151.97 1250.96 153.18 1251.98 153.9C1251.66 154.14 1251.26 154.65 1251.06 154.99C1249.2 153.56 1248.34 150.8 1247.86 147.49C1247.47 147.58 1247.08 147.66 1246.71 147.75V153.17L1248.7 152.34C1248.7 152.7 1248.79 153.26 1248.86 153.55C1246.27 154.72 1245.82 154.9 1245.56 155.15C1245.44 154.88 1245.1 154.39 1244.88 154.2C1245.12 153.98 1245.43 153.57 1245.43 152.86V146.94C1247.24 146.57 1249.3 145.98 1250.49 145.4L1251.54 146.32C1250.81 146.65 1249.93 146.94 1249.02 147.2C1249.12 147.93 1249.24 148.64 1249.41 149.32C1249.94 148.85 1250.5 148.31 1250.86 147.88L1251.83 148.72L1251.82 148.7Z" fill="#003893"/>
<path d="M1259.02 150.95C1258.8 150.55 1258.33 149.87 1257.9 149.28V155.21H1256.6V149.39C1256.07 150.7 1255.4 151.94 1254.76 152.75C1254.63 152.37 1254.31 151.83 1254.11 151.51C1254.96 150.53 1255.88 148.82 1256.43 147.29H1254.38V146.02H1256.6V144.08C1255.94 144.21 1255.27 144.31 1254.66 144.4C1254.6 144.11 1254.42 143.65 1254.27 143.36C1255.88 143.1 1257.73 142.68 1258.82 142.21L1259.74 143.23C1259.19 143.45 1258.56 143.63 1257.9 143.79V146.02H1259.59V147.29H1257.9V147.95C1258.32 148.31 1259.54 149.56 1259.8 149.89L1259.02 150.94V150.95ZM1267.39 153.71V154.91H1259.28V153.71H1262.72V152.05H1260.04V150.9H1262.72V149.43C1261.8 149.52 1260.88 149.57 1260.03 149.6C1260 149.33 1259.84 148.87 1259.71 148.59C1261.94 148.45 1264.61 148.17 1266.13 147.77L1266.95 148.76C1266.13 148.98 1265.11 149.15 1264.04 149.28V150.89H1266.79V152.04H1264.04V153.7H1267.38L1267.39 153.71ZM1266.69 147.39H1260.18V142.69H1266.69V147.39ZM1265.39 143.83H1261.41V146.25H1265.39V143.83Z" fill="#003893"/>
<path d="M1223.2 108.3C1226.6 108.3 1229.36 105.543 1229.36 102.14C1229.36 98.7384 1226.6 95.9805 1223.2 95.9805C1219.8 95.9805 1217.04 98.7384 1217.04 102.14C1217.04 105.543 1219.8 108.3 1223.2 108.3Z" fill="#2E59A6"/>
<path d="M1223.12 92.2009C1223.01 92.2009 1222.88 92.2009 1222.77 92.1809C1222.74 92.1809 1222.7 92.1809 1222.68 92.1809C1222.64 92.1809 1222.6 92.1809 1222.57 92.1809C1219.6 91.9209 1217.03 89.7809 1215.89 86.7209C1215.89 86.7009 1215.87 86.6909 1215.87 86.6709C1215.67 86.1109 1215.5 85.5209 1215.4 84.9109C1215.38 84.8409 1215.37 84.7609 1215.35 84.6709L1213.66 73.6309C1214.55 74.7509 1215.39 75.7009 1215.96 76.2209C1216.55 76.8509 1217.21 77.3409 1217.94 77.7309L1218.72 86.8209C1218.98 89.8609 1220.87 92.1509 1223.13 92.2009H1223.12Z" fill="#84B9DE"/>
<path d="M1217.94 77.7203C1217.22 77.3303 1216.55 76.8303 1215.96 76.2103C1215.39 75.6903 1214.55 74.7403 1213.66 73.6203L1212.04 63.0003L1210.82 55.0303C1211.97 56.4703 1213.05 57.6903 1213.79 58.3603C1214.57 59.2003 1215.47 59.8603 1216.45 60.3803L1216.56 61.6303L1217.94 77.7203Z" fill="#5D97C4"/>
<path d="M1214.18 25.4405C1213.85 27.0005 1213.73 28.6705 1213.88 30.4005L1214.64 39.2805L1215.8 52.7505L1216.46 60.3905C1215.47 59.8705 1214.58 59.2105 1213.8 58.3705C1213.06 57.6905 1211.98 56.4806 1210.83 55.0406L1209.88 48.7805L1208.7 41.0505L1206.9 29.2505C1206.88 29.1405 1206.87 29.0405 1206.87 28.9405C1206.83 28.6405 1206.81 28.3405 1206.81 28.0405C1206.81 26.5305 1207.24 25.1105 1207.98 23.9505L1208 23.9205C1208.29 23.5305 1208.59 23.1505 1208.91 22.8005C1212.28 18.9205 1217.21 16.4405 1222.71 16.3105C1219.68 16.5205 1217.06 18.6605 1215.46 21.7905C1214.9 22.9005 1214.46 24.1305 1214.18 25.4405Z" fill="#2E59A6"/>
<path d="M1232.8 73.2004L1231.1 84.3304L1231.05 84.6604C1231 84.9604 1230.94 85.2504 1230.87 85.5404C1230.43 87.3504 1229.53 88.9104 1228.32 90.0704C1226.93 91.4104 1225.13 92.2004 1223.2 92.2004C1223.35 92.2004 1223.49 92.2004 1223.62 92.1804C1225.72 91.9104 1227.43 89.7004 1227.68 86.8204L1228.47 77.5804C1229.09 77.1904 1229.67 76.7104 1230.22 76.1504C1231.16 75.2704 1232.01 74.2504 1232.8 73.1904V73.2004Z" fill="#84B9DE"/>
<path d="M1235.63 54.7002L1234.36 63.0302L1232.8 73.1902C1232.01 74.2502 1231.15 75.2702 1230.22 76.1502C1229.67 76.7002 1229.09 77.1802 1228.47 77.5802L1229.83 61.7402L1229.96 60.2702C1230.84 59.7302 1231.67 59.0702 1232.46 58.2802C1233.6 57.2002 1234.65 55.9802 1235.63 54.7002Z" fill="#5D97C4"/>
<path d="M1239.54 28.9108C1239.54 29.0208 1239.52 29.1308 1239.51 29.2408L1237.71 41.0308L1236.53 48.7808L1235.63 54.7008C1234.65 55.9908 1233.6 57.2108 1232.46 58.2808C1231.67 59.0708 1230.84 59.7308 1229.96 60.2708L1230.6 52.7408L1231.75 39.3708L1232.52 30.3908C1232.56 29.8908 1232.59 29.4008 1232.59 28.9208C1232.59 27.7108 1232.46 26.5508 1232.22 25.4408C1231.94 24.1208 1231.5 22.8908 1230.94 21.7808C1229.34 18.6408 1226.72 16.5108 1223.69 16.3008C1229.2 16.4308 1234.12 18.9108 1237.49 22.7908C1237.82 23.1508 1238.12 23.5208 1238.4 23.9108C1238.4 23.9308 1238.42 23.9308 1238.42 23.9408C1239.3 25.3208 1239.75 27.0708 1239.54 28.9008V28.9108Z" fill="#2E59A6"/>
<path d="M1215.87 86.6501C1213.48 81.7001 1211.5 74.6401 1209.83 67.3301C1210.51 69.2301 1212.14 71.6901 1213.67 73.6201L1215.36 84.6601C1215.38 84.7401 1215.38 84.8201 1215.41 84.9001C1215.52 85.5101 1215.68 86.1001 1215.88 86.6601L1215.87 86.6501Z" fill="#AAD5ED"/>
<path d="M1210.82 55.0302C1208.73 52.3802 1206.44 48.9402 1205.64 46.4002C1205.53 45.8202 1205.43 45.2602 1205.34 44.7102C1205.04 42.8202 1204.85 41.1002 1204.78 39.5502V39.5302C1204.6 38.4802 1204.5 37.4002 1204.48 36.2802C1204.38 31.6902 1205.69 27.4302 1207.97 23.9502C1207.23 25.1102 1206.8 26.5202 1206.8 28.0402C1206.8 28.3302 1206.82 28.6302 1206.86 28.9402C1206.86 29.0402 1206.88 29.1402 1206.89 29.2502L1208.69 41.0502L1209.87 48.7802L1210.82 55.0402V55.0302Z" fill="#5D97C4"/>
<path d="M1213.66 73.6199C1212.14 71.6899 1210.5 69.2299 1209.82 67.3299C1209.71 66.8799 1209.62 66.4299 1209.52 65.9899C1207.98 59.1099 1206.72 52.1199 1205.66 46.5699C1205.66 46.5099 1205.64 46.4599 1205.64 46.4199C1206.44 48.9499 1208.73 52.3999 1210.82 55.0499L1212.04 63.0199L1213.66 73.6399V73.6199Z" fill="#84B9DE"/>
<path d="M1241.92 36.2902C1241.9 37.4602 1241.79 38.6102 1241.59 39.7202C1241.5 41.3302 1241.28 43.1302 1240.93 45.1202C1240.85 45.5702 1240.77 46.0202 1240.68 46.4902C1240.45 47.1902 1240.08 47.9302 1239.59 48.7102C1238.43 50.6502 1237.11 52.7502 1235.63 54.7002L1236.53 48.7802L1237.71 41.0302L1239.51 29.2402C1239.53 29.1302 1239.54 29.0102 1239.54 28.9102C1239.75 27.0802 1239.3 25.3302 1238.42 23.9502C1240.71 27.4302 1242.01 31.7002 1241.91 36.2802L1241.92 36.2902Z" fill="#5D97C4"/>
<path d="M1240.67 46.4805C1240.67 46.4805 1240.67 46.5405 1240.65 46.5605C1239.58 51.8905 1238.28 59.0005 1236.68 66.0705C1236.57 66.5505 1236.46 67.0205 1236.35 67.5005C1236.18 67.9305 1235.94 68.3705 1235.65 68.8405C1234.8 70.2605 1233.85 71.7705 1232.78 73.2105L1234.34 63.0505L1235.61 54.7205C1237.09 52.7705 1238.4 50.6605 1239.57 48.7305C1240.06 47.9505 1240.43 47.2105 1240.66 46.5105L1240.67 46.4805Z" fill="#84B9DE"/>
<path d="M1236.37 67.4905C1234.82 74.1605 1233.01 80.6905 1230.87 85.5305C1230.94 85.2405 1231 84.9505 1231.05 84.6505L1231.1 84.3205L1232.8 73.1905C1233.87 71.7605 1234.82 70.2405 1235.67 68.8205C1235.96 68.3605 1236.2 67.9205 1236.37 67.4805V67.4905Z" fill="#AAD5ED"/>
<path d="M1228.47 77.5801L1227.68 86.8201C1227.44 89.6901 1225.73 91.9101 1223.62 92.1801C1223.48 92.2001 1223.34 92.2001 1223.2 92.2001H1223.13C1220.87 92.1501 1218.98 89.8501 1218.72 86.8201L1217.94 77.7301C1220.07 78.8901 1222.7 79.1101 1225 78.8001C1226.29 78.6601 1227.43 78.2501 1228.47 77.5901V77.5801Z" fill="#5D97C4"/>
<path d="M1232.58 28.9203C1232.58 29.4103 1232.56 29.9003 1232.51 30.3903L1231.74 39.3703L1230.59 52.7403L1229.95 60.2703C1229.13 60.7703 1228.26 61.1403 1227.34 61.4003C1226.79 61.5503 1226.21 61.6703 1225.61 61.7303C1223.44 62.0303 1221.06 61.9603 1218.85 61.3303C1218.01 61.0903 1217.2 60.7803 1216.45 60.3803L1215.79 52.7403L1214.63 39.2703L1213.87 30.3903C1213.72 28.6603 1213.84 26.9903 1214.17 25.4303C1214.45 24.1203 1214.89 22.8903 1215.45 21.7803C1217.05 18.6403 1219.67 16.5103 1222.7 16.3003C1222.86 16.3003 1223.03 16.2803 1223.19 16.2803C1223.35 16.2803 1223.52 16.2803 1223.68 16.3003C1226.71 16.5103 1229.33 18.6503 1230.93 21.7803C1231.49 22.8903 1231.93 24.1203 1232.21 25.4403C1232.45 26.5503 1232.58 27.7103 1232.58 28.9203Z" fill="#003893"/>
<path d="M1229.96 60.2705L1229.83 61.7405L1228.47 77.5805C1227.43 78.2405 1226.29 78.6605 1225 78.7905C1222.7 79.1105 1220.07 78.8805 1217.94 77.7205L1216.56 61.6305L1216.45 60.3805C1217.21 60.7905 1218.01 61.1005 1218.85 61.3305C1221.06 61.9605 1223.44 62.0305 1225.61 61.7305C1226.21 61.6605 1226.79 61.5505 1227.34 61.4005C1228.26 61.1405 1229.12 60.7605 1229.95 60.2705H1229.96Z" fill="#2E59A6"/>
<g style="mix-blend-mode:multiply" opacity="0.46">
<path d="M1205.64 46.4107C1205.44 45.7807 1205.33 45.2107 1205.34 44.7207C1205.43 45.2707 1205.53 45.8307 1205.64 46.4107Z" fill="#003893"/>
</g>
<g style="mix-blend-mode:multiply" opacity="0.46">
<path d="M1240.93 45.1104C1240.91 45.5504 1240.83 46.0104 1240.68 46.4804C1240.77 46.0104 1240.85 45.5604 1240.93 45.1104Z" fill="#003893"/>
</g>
<g style="mix-blend-mode:multiply" opacity="0.46">
<path d="M1209.82 67.3302C1209.64 66.8302 1209.53 66.3902 1209.52 65.9902C1209.62 66.4402 1209.72 66.8902 1209.82 67.3302Z" fill="#003893"/>
</g>
<g style="mix-blend-mode:multiply" opacity="0.46">
<path d="M1236.69 66.0703C1236.67 66.5203 1236.57 67.0003 1236.36 67.5003C1236.47 67.0303 1236.58 66.5603 1236.69 66.0703Z" fill="#003893"/>
</g>
</g>
<defs>
<clipPath id="clip0_109_127">
<rect width="1584.07" height="186.9" fill="white"/>
</clipPath>
</defs>
</svg>
