<svg width="230" height="105" viewBox="0 0 230 105" fill="none" xmlns="http://www.w3.org/2000/svg">
<g clip-path="url(#clip0_176_20887)">
<path d="M0 97.0381H1.22581V100.233H4.5576V97.0381H5.78341V104.861H4.5576V101.306H1.22581V104.861H0V97.0381Z" fill="#717071"/>
<path d="M8.10596 101.944C8.10596 100.002 9.4055 98.874 10.8479 98.874C12.2903 98.874 13.5898 99.9975 13.5898 101.944C13.5898 103.891 12.2857 105 10.8479 105C9.4101 105 8.10596 103.886 8.10596 101.944ZM12.341 101.944C12.341 100.714 11.7696 99.8819 10.8479 99.8819C9.92623 99.8819 9.36863 100.71 9.36863 101.944C9.36863 103.179 9.94006 104.006 10.8479 104.006C11.7557 104.006 12.341 103.188 12.341 101.944Z" fill="#717071"/>
<path d="M15.7558 102.952V100.002H14.9078V99.0914L15.8157 99.0267L15.9539 97.4131H16.9677V99.0267H18.4793V100.002H16.9677V102.966C16.9677 103.669 17.212 104.029 17.8157 104.029C18.0184 104.029 18.2719 103.965 18.4378 103.891L18.659 104.792C18.3318 104.899 17.9401 105.005 17.5161 105.005C16.2028 105.005 15.7512 104.187 15.7512 102.957L15.7558 102.952Z" fill="#717071"/>
<path d="M25.3871 97.0381H26.8065L29.3871 104.861H28.083L27.4286 102.633H24.7189L24.0507 104.861H22.8019L25.3825 97.0381H25.3871ZM25.0046 101.666H27.1337L26.8249 100.617C26.5622 99.766 26.3272 98.8967 26.0968 98.0136H26.0461C25.8249 98.906 25.5807 99.766 25.3272 100.617L25.0093 101.666H25.0046Z" fill="#717071"/>
<path d="M30.9539 97.1998C30.9539 96.7652 31.2626 96.4785 31.705 96.4785C32.1474 96.4785 32.4654 96.7652 32.4654 97.1998C32.4654 97.6344 32.1474 97.9303 31.705 97.9303C31.2626 97.9303 30.9539 97.6436 30.9539 97.1998ZM31.1013 99.0214H32.3179V104.861H31.1013V99.0214Z" fill="#717071"/>
<path d="M34.9309 99.022H35.9263L36.0231 100.072H36.0553C36.4701 99.3179 37.083 98.874 37.7051 98.874C37.9908 98.874 38.1798 98.9156 38.3595 99.0035L38.1383 100.067C37.9355 100.002 37.788 99.9698 37.5576 99.9698C37.083 99.9698 36.5116 100.298 36.1521 101.223V104.866H34.9355V99.0266L34.9309 99.022Z" fill="#717071"/>
<path d="M43.3364 97.0381H45.7512C47.3502 97.0381 48.5023 97.5559 48.5023 98.9707C48.5023 99.7151 48.0876 100.427 47.3917 100.658V100.709C48.2811 100.899 48.9263 101.504 48.9263 102.568C48.9263 104.117 47.6682 104.861 45.9401 104.861H43.3364V97.0381ZM45.6083 100.307C46.7926 100.307 47.2903 99.863 47.2903 99.1279C47.2903 98.3095 46.742 98.0044 45.6406 98.0044H44.5622V100.307H45.6083ZM45.8019 103.899C47.0185 103.899 47.7189 103.465 47.7189 102.508C47.7189 101.625 47.0415 101.232 45.8019 101.232H44.5622V103.895H45.8019V103.899Z" fill="#717071"/>
<path d="M50.7419 103.313C50.7419 102.06 51.8018 101.413 54.2258 101.149C54.2166 100.469 53.9724 99.873 53.1152 99.873C52.5023 99.873 51.9309 100.15 51.4332 100.469L50.977 99.6418C51.5807 99.258 52.3963 98.8789 53.3272 98.8789C54.7788 98.8789 55.4424 99.8036 55.4424 101.352V104.866H54.447L54.3502 104.196H54.3088C53.7788 104.654 53.1567 105.005 52.4562 105.005C51.4516 105.005 50.7419 104.349 50.7419 103.317V103.313ZM54.2258 103.354V101.921C52.5023 102.125 51.9171 102.568 51.9171 103.23C51.9171 103.803 52.3088 104.039 52.8249 104.039C53.341 104.039 53.7466 103.794 54.2212 103.359L54.2258 103.354Z" fill="#717071"/>
<path d="M57.9585 103.493V96.4004H59.1751V103.558C59.1751 103.886 59.3133 104.001 59.4608 104.001C59.5161 104.001 59.5576 104.001 59.6636 103.978L59.8202 104.903C59.6728 104.959 59.47 105 59.1659 105C58.2857 105 57.9585 104.436 57.9585 103.493Z" fill="#717071"/>
<path d="M61.9078 103.493V96.4004H63.1244V103.558C63.1244 103.886 63.2627 104.001 63.4101 104.001C63.4654 104.001 63.5069 104.001 63.6129 103.978L63.7696 104.903C63.6221 104.959 63.4194 105 63.1152 105C62.235 105 61.9078 104.436 61.9078 103.493Z" fill="#717071"/>
<path d="M65.4424 101.944C65.4424 100.002 66.7419 98.874 68.1843 98.874C69.6267 98.874 70.9263 99.9975 70.9263 101.944C70.9263 103.891 69.6221 105 68.1843 105C66.7465 105 65.4424 103.886 65.4424 101.944ZM69.6728 101.944C69.6728 100.714 69.1014 99.8819 68.1797 99.8819C67.2581 99.8819 66.7005 100.71 66.7005 101.944C66.7005 103.179 67.2719 104.006 68.1797 104.006C69.0875 104.006 69.6728 103.188 69.6728 101.944Z" fill="#717071"/>
<path d="M72.7327 101.944C72.7327 100.002 74.0322 98.874 75.4746 98.874C76.917 98.874 78.2165 99.9975 78.2165 101.944C78.2165 103.891 76.9124 105 75.4746 105C74.0368 105 72.7327 103.886 72.7327 101.944ZM76.9677 101.944C76.9677 100.714 76.3963 99.8819 75.4746 99.8819C74.5529 99.8819 73.9953 100.71 73.9953 101.944C73.9953 103.179 74.5668 104.006 75.4746 104.006C76.3824 104.006 76.9677 103.188 76.9677 101.944Z" fill="#717071"/>
<path d="M80.4377 99.022H81.4331L81.5299 99.8311H81.5622C82.1013 99.3086 82.6958 98.874 83.4884 98.874C84.7281 98.874 85.2765 99.7016 85.2765 101.19V104.866H84.0599V101.343C84.0599 100.335 83.7649 99.9328 83.0737 99.9328C82.5345 99.9328 82.1659 100.21 81.6543 100.728V104.871H80.4377V99.0312V99.022Z" fill="#717071"/>
<path d="M129.378 97.0381H133.982V98.0784H130.604V100.256H133.461V101.296H130.604V103.821H134.097V104.861H129.378V97.0381Z" fill="#717071"/>
<path d="M137.129 101.814L135.383 99.0215H136.696L137.396 100.191C137.567 100.52 137.756 100.848 137.945 101.181H137.986C138.143 100.852 138.313 100.524 138.475 100.191L139.088 99.0215H140.359L138.613 101.953L140.484 104.861H139.161L138.401 103.617C138.212 103.275 138.009 102.914 137.797 102.586H137.742C137.562 102.914 137.383 103.266 137.203 103.617L136.525 104.861H135.244L137.129 101.814Z" fill="#717071"/>
<path d="M141.71 101.944C141.71 100.002 143.055 98.874 144.59 98.874C145.332 98.874 145.871 99.1699 146.295 99.5444L145.691 100.34C145.373 100.053 145.046 99.8819 144.654 99.8819C143.668 99.8819 142.972 100.71 142.972 101.944C142.972 103.179 143.65 104.006 144.613 104.006C145.101 104.006 145.535 103.775 145.885 103.474L146.392 104.284C145.853 104.76 145.166 105.005 144.498 105.005C142.922 105.005 141.714 103.891 141.714 101.949L141.71 101.944Z" fill="#717071"/>
<path d="M148.387 103.493V96.4004H149.604V103.558C149.604 103.886 149.742 104.001 149.889 104.001C149.945 104.001 149.986 104.001 150.092 103.978L150.249 104.903C150.101 104.959 149.899 105 149.594 105C148.714 105 148.387 104.436 148.387 103.493Z" fill="#717071"/>
<path d="M151.995 103.313C151.995 102.06 153.055 101.413 155.479 101.149C155.47 100.469 155.226 99.873 154.369 99.873C153.756 99.873 153.184 100.15 152.687 100.469L152.23 99.6418C152.834 99.258 153.65 98.8789 154.581 98.8789C156.032 98.8789 156.696 99.8036 156.696 101.352V104.866H155.7L155.604 104.196H155.562C155.032 104.654 154.41 105.005 153.71 105.005C152.705 105.005 151.995 104.349 151.995 103.317V103.313ZM155.475 103.354V101.921C153.751 102.125 153.166 102.568 153.166 103.23C153.166 103.803 153.558 104.039 154.074 104.039C154.59 104.039 154.995 103.794 155.47 103.359L155.475 103.354Z" fill="#717071"/>
<path d="M159.212 99.022H160.207L160.304 99.8403H160.336C160.834 99.3086 161.415 98.874 162.134 98.874C163 98.874 163.489 99.2763 163.742 99.9467C164.313 99.3317 164.908 98.874 165.636 98.874C166.853 98.874 167.424 99.7016 167.424 101.19V104.866H166.207V101.343C166.207 100.335 165.889 99.9328 165.235 99.9328C164.834 99.9328 164.41 100.196 163.922 100.728V104.871H162.705V101.348C162.705 100.34 162.396 99.9374 161.733 99.9374C161.341 99.9374 160.908 100.201 160.429 100.733V104.875H159.212V99.0358V99.022Z" fill="#717071"/>
<path d="M169.636 103.313C169.636 102.06 170.696 101.413 173.12 101.149C173.111 100.469 172.866 99.873 172.009 99.873C171.396 99.873 170.825 100.15 170.327 100.469L169.871 99.6418C170.475 99.258 171.29 98.8789 172.221 98.8789C173.673 98.8789 174.336 99.8036 174.336 101.352V104.866H173.341L173.244 104.196H173.203C172.673 104.654 172.051 105.005 171.35 105.005C170.346 105.005 169.636 104.349 169.636 103.317V103.313ZM173.12 103.354V101.921C171.396 102.125 170.811 102.568 170.811 103.23C170.811 103.803 171.203 104.039 171.719 104.039C172.235 104.039 172.641 103.794 173.115 103.359L173.12 103.354Z" fill="#717071"/>
<path d="M176.862 102.952V100.002H176.014V99.0914L176.922 99.0267L177.06 97.4131H178.074V99.0267H179.585V100.002H178.074V102.966C178.074 103.669 178.318 104.029 178.922 104.029C179.124 104.029 179.378 103.965 179.544 103.891L179.765 104.792C179.438 104.899 179.046 105.005 178.622 105.005C177.309 105.005 176.857 104.187 176.857 102.957L176.862 102.952Z" fill="#717071"/>
<path d="M181.511 97.1998C181.511 96.7652 181.82 96.4785 182.263 96.4785C182.705 96.4785 183.023 96.7652 183.023 97.1998C183.023 97.6344 182.705 97.9303 182.263 97.9303C181.82 97.9303 181.511 97.6436 181.511 97.1998ZM181.659 99.0214H182.876V104.861H181.659V99.0214Z" fill="#717071"/>
<path d="M185.074 101.944C185.074 100.002 186.373 98.874 187.816 98.874C189.258 98.874 190.558 99.9975 190.558 101.944C190.558 103.891 189.253 105 187.816 105C186.378 105 185.074 103.886 185.074 101.944ZM189.309 101.944C189.309 100.714 188.737 99.8819 187.816 99.8819C186.894 99.8819 186.336 100.71 186.336 101.944C186.336 103.179 186.908 104.006 187.816 104.006C188.724 104.006 189.309 103.188 189.309 101.944Z" fill="#717071"/>
<path d="M192.779 99.022H193.774L193.871 99.8311H193.903C194.442 99.3086 195.037 98.874 195.83 98.874C197.069 98.874 197.618 99.7016 197.618 101.19V104.866H196.401V101.343C196.401 100.335 196.106 99.9328 195.415 99.9328C194.876 99.9328 194.507 100.21 193.995 100.728V104.871H192.779V99.0312V99.022Z" fill="#717071"/>
<path d="M203.456 97.0381H204.862L206.29 101C206.47 101.523 206.631 102.05 206.807 102.572H206.862C207.042 102.05 207.189 101.523 207.369 101L208.774 97.0381H210.194V104.861H209.051V100.996C209.051 100.293 209.148 99.2851 209.207 98.5731H209.166L208.544 100.376L207.189 104.103H206.429L205.065 100.376L204.452 98.5731H204.41C204.466 99.2851 204.558 100.293 204.558 100.996V104.861H203.456V97.0381Z" fill="#717071"/>
<path d="M212.59 103.313C212.59 102.06 213.65 101.413 216.074 101.149C216.064 100.469 215.82 99.873 214.963 99.873C214.35 99.873 213.779 100.15 213.281 100.469L212.825 99.6418C213.429 99.258 214.244 98.8789 215.175 98.8789C216.627 98.8789 217.29 99.8036 217.29 101.352V104.866H216.295L216.198 104.196H216.157C215.627 104.654 215.005 105.005 214.304 105.005C213.3 105.005 212.59 104.349 212.59 103.317V103.313ZM216.074 103.354V101.921C214.35 102.125 213.765 102.568 213.765 103.23C213.765 103.803 214.157 104.039 214.673 104.039C215.189 104.039 215.594 103.794 216.069 103.359L216.074 103.354Z" fill="#717071"/>
<path d="M219.806 99.022H220.802L220.899 100.072H220.931C221.346 99.3179 221.958 98.874 222.581 98.874C222.866 98.874 223.055 98.9156 223.235 99.0035L223.014 100.067C222.811 100.002 222.664 99.9698 222.433 99.9698C221.958 99.9698 221.387 100.298 221.028 101.223V104.866H219.811V99.0266L219.806 99.022Z" fill="#717071"/>
<path d="M224.931 96.4001H226.124V101.847H226.166L228.419 99.0217H229.774L227.806 101.398L229.995 104.861H228.673L227.097 102.217L226.124 103.34V104.857H224.931V96.3955V96.4001Z" fill="#717071"/>
<path d="M48.8663 62.6158C48.7972 62.5973 48.7281 62.5788 48.6589 62.5695C48.5806 62.5557 48.5714 62.588 48.6728 62.5695C48.6451 62.5695 48.599 62.5603 48.5714 62.5603C48.5069 62.5603 48.4378 62.5603 48.3732 62.5603C48.364 62.5603 48.3548 62.5603 48.341 62.5603C48.3225 62.5603 48.2995 62.5695 48.2811 62.5742C48.2442 62.5834 48.2073 62.5927 48.1705 62.6065C48.106 62.6296 48.0967 62.6759 48.1843 62.5973C48.1428 62.6389 48.0599 62.6574 48.0092 62.6944C48.0046 62.7036 47.9907 62.7129 47.9769 62.7221C47.9585 62.7406 47.9354 62.7545 47.9354 62.7591C47.9354 62.7591 47.9262 62.7684 47.9216 62.773L47.4285 67.1283H36.9585L36.5023 63.1012C36.3364 62.9579 36.1705 62.81 36 62.6713C35.9907 62.6666 35.9954 62.6666 35.9907 62.662C35.9907 62.662 35.9907 62.662 35.9815 62.6574C35.9493 62.6343 35.9216 62.6111 35.8894 62.588C35.8341 62.5464 35.7788 62.5094 35.7189 62.4724C35.6175 62.4077 35.5023 62.3615 35.4009 62.2968C35.3963 62.2968 35.3871 62.2968 35.3825 62.2921C35.3594 62.2829 35.3364 62.2783 35.3087 62.269C35.2949 62.269 35.2811 62.2644 35.2672 62.2598C35.258 62.2598 35.2488 62.2598 35.235 62.2598C35.2258 62.269 35.2166 62.2783 35.2073 62.2875C35.2073 62.2875 35.2073 62.2875 35.2027 62.2921C35.2027 62.2921 35.2027 62.3014 35.1981 62.3014C35.2672 62.3199 35.3364 62.343 35.4055 62.3615L36.8848 75.4137H47.5069L48.9539 62.6389C48.9262 62.6296 48.894 62.6204 48.8663 62.6112V62.6158Z" fill="#5D97C4"/>
<path d="M32.811 2.54314C15.9539 8.36414 9.22118 30.0854 19.4193 44.7373C21.6083 47.9553 24.5391 50.5907 26.8525 53.6515C29.2857 56.6105 31.0599 60.2122 33.682 63.0048H50.4055C52.2719 61.0167 53.7097 58.6125 55.3318 56.4256C57.8387 52.7406 61.3594 49.5781 64.2074 46.0227C67.8663 41.2743 69.9723 35.162 69.9769 28.9573V28.8139C70.1106 9.54314 50.7696 -4.08698 32.811 2.53851V2.54314Z" fill="#2E59A6"/>
<path d="M170.507 68.6178C170.507 64.1931 173.719 61.123 178.124 61.123C182.53 61.123 185.746 64.1931 185.746 68.6178C185.746 73.0425 182.534 76.2604 178.124 76.2604C173.714 76.2604 170.507 73.0378 170.507 68.6178Z" fill="#2E59A6"/>
<path d="M168.083 18.1843L167.429 0H188.83L188.175 18.1843L184.894 52.7959H171.359L168.083 18.1843Z" fill="#5D97C4"/>
</g>
<defs>
<clipPath id="clip0_176_20887">
<rect width="230" height="105" fill="white"/>
</clipPath>
</defs>
</svg>
